<svg width="20" height="20" viewBox="0 0 20 20" fill="none" xmlns="http://www.w3.org/2000/svg">
<path d="M0.911623 4.91172L0.91167 4.91167L4.91167 0.91167L4.91172 0.911623C4.92332 0.900012 4.93711 0.890802 4.95227 0.884518C4.96744 0.878234 4.9837 0.875 5.00012 0.875C5.01653 0.875 5.03279 0.878234 5.04796 0.884518C5.06313 0.890802 5.07691 0.900012 5.08852 0.911623L5.08856 0.91167L8.60326 4.42636L3.93895 8.11403L0.911623 5.08852C0.911603 5.0885 0.911584 5.08848 0.911564 5.08846C0.899981 5.07686 0.890791 5.0631 0.884518 5.04796C0.878234 5.03279 0.875 5.01653 0.875 5.00012C0.875 4.9837 0.878234 4.96744 0.884518 4.95227C0.890802 4.93711 0.900012 4.92332 0.911623 4.91172ZM11.8551 16.0324L15.5565 11.38L19.0844 14.9115L19.0846 14.9117C19.0962 14.9233 19.1054 14.9371 19.1117 14.9523C19.118 14.9674 19.1212 14.9837 19.1212 15.0001C19.1212 15.0165 19.118 15.0328 19.1117 15.048C19.1054 15.0631 19.0962 15.0769 19.0846 15.0885L19.0846 15.0886L15.0846 19.0886L15.0845 19.0886C15.0729 19.1002 15.0591 19.1094 15.044 19.1157C15.0288 19.122 15.0125 19.1252 14.9961 19.1252C14.9797 19.1252 14.9634 19.122 14.9483 19.1157C14.9332 19.1095 14.9195 19.1003 14.9079 19.0888L14.9077 19.0886L11.8551 16.0324ZM3.09357 11.8606L3.09578 11.8585C3.42939 11.5339 3.82486 11.2798 4.25868 11.1111C4.69211 10.9426 5.15498 10.863 5.6198 10.8769C6.53863 10.9091 7.41106 11.2885 8.06111 11.9387C8.71108 12.5889 9.09032 13.4613 9.12237 14.38C9.13564 14.8448 9.05575 15.3076 8.88739 15.7411C8.71887 16.1751 8.46511 16.5709 8.1411 16.9051L8.13948 16.9068C7.77714 17.2841 7.34384 17.5861 6.86447 17.7956C6.38509 18.005 5.86908 18.1177 5.34604 18.1272L5.34124 18.1273C4.06136 18.1628 2.79699 18.417 1.60279 18.8788L1.60218 18.879C1.53517 18.905 1.46205 18.911 1.39171 18.8962C1.32137 18.8815 1.25683 18.8466 1.20593 18.7958C1.15504 18.7451 1.11999 18.6806 1.10504 18.6103C1.09011 18.5401 1.09586 18.4671 1.12158 18.4002C1.58394 17.2058 1.8384 15.9412 1.87392 14.661L1.87395 14.661L1.87404 14.6559C1.88319 14.1326 1.99564 13.6163 2.20492 13.1366C2.41421 12.6569 2.7162 12.2233 3.09356 11.8606L3.09357 11.8606ZM16.9701 1.40936C17.3915 1.43592 17.7889 1.61441 18.0886 1.91168C18.3848 2.21027 18.563 2.60595 18.5902 3.0257C18.6174 3.44445 18.4925 3.85888 18.2386 4.19285L11.2778 12.9418C11.0039 11.9271 10.4658 10.9951 9.70932 10.2458C8.95714 9.50075 8.02647 8.97338 7.01586 8.70765L15.7985 1.76646C16.133 1.50971 16.5492 1.38283 16.9701 1.40936Z" fill="#0F1A1C" stroke="#0F1A1C"/>
</svg>
