<svg width="20" height="20" viewBox="0 0 20 20" fill="none" xmlns="http://www.w3.org/2000/svg">
<path d="M17.882 2H2.118C1.82183 2 1.53777 2.11751 1.32816 2.32675C1.11855 2.53598 1.00053 2.81983 1 3.116V16.884C1.00053 17.1802 1.11855 17.464 1.32816 17.6733C1.53777 17.8825 1.82183 18 2.118 18H17.882C18.1782 18 18.4622 17.8825 18.6718 17.6733C18.8814 17.464 18.9995 17.1802 19 16.884V3.116C18.9995 2.81983 18.8814 2.53598 18.6718 2.32675C18.4622 2.11751 18.1782 2 17.882 2ZM2.25 3.25H17.75V7H2.25V3.25ZM17.75 16.75H2.25V13.25H17.75V16.75ZM17.75 12H2.25V8.25H17.75V12Z" fill="#0F1A1C"/>
</svg>
