<svg width="20" height="20" viewBox="0 0 20 20" fill="none" xmlns="http://www.w3.org/2000/svg">
<g clip-path="url(#clip0_1141_26)">
<path d="M10 20C8.02219 20 6.08879 19.4135 4.4443 18.3147C2.79981 17.2159 1.51809 15.6541 0.761209 13.8268C0.00433284 11.9996 -0.193701 9.98891 0.192152 8.0491C0.578004 6.10929 1.53041 4.32746 2.92894 2.92894C4.32746 1.53041 6.10929 0.578004 8.0491 0.192152C9.98891 -0.193701 11.9996 0.00433284 13.8268 0.761209C15.6541 1.51809 17.2159 2.79981 18.3147 4.4443C19.4135 6.08879 20 8.02219 20 10C19.9971 12.6513 18.9426 15.1931 17.0679 17.0679C15.1931 18.9426 12.6513 19.9971 10 20ZM10 1.25C8.26942 1.25 6.57769 1.76318 5.13876 2.72465C3.69983 3.68611 2.57833 5.05267 1.91606 6.65152C1.25379 8.25038 1.08051 10.0097 1.41813 11.707C1.75575 13.4044 2.58911 14.9635 3.81282 16.1872C5.03653 17.4109 6.59563 18.2443 8.29296 18.5819C9.9903 18.9195 11.7496 18.7462 13.3485 18.084C14.9473 17.4217 16.3139 16.3002 17.2754 14.8612C18.2368 13.4223 18.75 11.7306 18.75 10C18.7474 7.68017 17.8246 5.45611 16.1843 3.81574C14.5439 2.17537 12.3198 1.25265 10 1.25ZM8.77001 13.157L14.088 7.838L13.2 6.954L8.438 11.72L6.8 10.079L5.917 10.963L7.917 12.963C7.98419 13.0322 8.06455 13.0872 8.15334 13.1248C8.24214 13.1624 8.33757 13.1819 8.434 13.182L8.77001 13.157Z" fill="#0F1A1C"/>
</g>
<defs>
<clipPath id="clip0_1141_26">
<rect width="20" height="20" fill="white"/>
</clipPath>
</defs>
</svg>
