<svg width="20" height="20" viewBox="0 0 20 20" fill="none" xmlns="http://www.w3.org/2000/svg">
<g clip-path="url(#clip0_474_23)">
<path d="M18.384 18.7999L18.397 18.7869L2.486 2.87389L1.6 3.75889L8.844 10.9999H7.538C5.82142 10.985 4.16902 11.6516 2.94332 12.8534C1.71762 14.0553 1.01874 15.6943 1 17.4109V17.8929C1.00185 18.188 1.12072 18.4703 1.33052 18.6779C1.54032 18.8854 1.82389 19.0012 2.119 18.9999H16.844L17.514 19.6699L18.275 18.9079C18.3265 18.8879 18.3769 18.8652 18.426 18.8399L18.384 18.7999ZM2.251 17.7499V17.4109C2.26945 16.026 2.83641 14.7049 3.82753 13.7374C4.81865 12.7699 6.15303 12.2349 7.538 12.2499H10.094L15.594 17.7499H2.251ZM13.5 11.0889C14.8649 11.2969 16.1276 11.9357 17.1039 12.912C18.0802 13.8883 18.7189 15.151 18.927 16.5159L16.327 13.9159C16.247 13.8309 16.166 13.7479 16.08 13.6689L13.5 11.0889ZM6.4 3.98889L5.42 3.00589C5.7438 2.25722 6.24586 1.59913 6.88237 1.08903C7.51889 0.578932 8.27054 0.232304 9.07177 0.079379C9.873 -0.0735457 10.6995 -0.0281231 11.4791 0.211686C12.2588 0.451494 12.9679 0.878406 13.5447 1.45519C14.1215 2.03197 14.5484 2.74111 14.7882 3.52076C15.028 4.3004 15.0734 5.12688 14.9205 5.92811C14.7676 6.72934 14.421 7.481 13.9109 8.11751C13.4008 8.75403 12.7427 9.25608 11.994 9.57989L11.009 8.59989C11.64 8.42612 12.2144 8.08984 12.6747 7.62465C13.1351 7.15946 13.4654 6.58163 13.6326 5.94887C13.7998 5.3161 13.7981 4.65054 13.6276 4.01865C13.4571 3.38677 13.1238 2.81066 12.661 2.34787C12.1982 1.88508 11.6221 1.5518 10.9902 1.38131C10.3583 1.21082 9.69279 1.20909 9.06002 1.37629C8.42725 1.5435 7.84942 1.87378 7.38423 2.33415C6.91904 2.79453 6.58277 3.36889 6.409 3.99989L6.4 3.98889Z" fill="#0F1A1C"/>
</g>
<defs>
<clipPath id="clip0_474_23">
<rect width="20" height="20" fill="white"/>
</clipPath>
</defs>
</svg>
