<svg width="20" height="20" viewBox="0 0 20 20" fill="none" xmlns="http://www.w3.org/2000/svg">
<path d="M5.625 1.75L5.62441 1.75C4.59722 1.75122 3.61246 2.1598 2.88613 2.88613C2.1598 3.61246 1.75122 4.59722 1.75 5.62441V5.625L1.75 14.375L1.75 14.3756C1.75122 15.4028 2.1598 16.3875 2.88613 17.1139C3.61246 17.8402 4.59722 18.2488 5.62441 18.25H5.625H14.375H14.3756C15.4028 18.2488 16.3875 17.8402 17.1139 17.1139C17.8402 16.3875 18.2488 15.4028 18.25 14.3756V14.375V5.625V5.62441C18.2488 4.59722 17.8402 3.61246 17.1139 2.88613C16.3875 2.1598 15.4028 1.75122 14.3756 1.75H14.375L5.625 1.75ZM9.443 13.5H12.6V14.5H7.7V5.424H12.6V6.424H9.443H8.943V6.924V8.936V9.436H9.443H11.971V10.371H9.443H8.943V10.871V13V13.5H9.443ZM14.3744 18.5H5.62565C4.53189 18.4986 3.48334 18.0635 2.70994 17.2901C1.93661 16.5167 1.5015 15.4683 1.5 14.3747V5.62533C1.5015 4.53169 1.93661 3.48327 2.70994 2.70994C3.48327 1.93661 4.53169 1.5015 5.62533 1.5H14.3747C15.4683 1.5015 16.5167 1.93661 17.2901 2.70994C18.0635 3.48334 18.4986 4.53189 18.5 5.62565V14.3744C18.4986 15.4681 18.0635 16.5167 17.2901 17.2901C16.5167 18.0635 15.4681 18.4986 14.3744 18.5Z" fill="#0F1A1C" stroke="#0F1A1C"/>
</svg>
