<svg width="20" height="20" viewBox="0 0 20 20" fill="none" xmlns="http://www.w3.org/2000/svg">
<path d="M18 2.5H19.5V3.5H18H17.5V4V5.5H16.5V4V3.5H16H14.5V2.5H16H16.5V2V0.5H17.5V2V2.5H18ZM14.416 13.1773L14.6784 12.7838L14.3 12.5L13.1 11.6L12.6772 11.2829L12.384 11.7226L11.9887 12.3155C11.6016 12.8524 10.8734 13.2 10 13.2C9.12662 13.2 8.39837 12.8524 8.01128 12.3155L7.61602 11.7226L7.32284 11.2829L6.9 11.6L5.7 12.5L5.32161 12.7838L5.58397 13.1774L5.98397 13.7774L5.98963 13.7858L5.99563 13.7941C6.88938 15.023 8.33945 15.8 10 15.8C11.6605 15.8 13.1106 15.023 14.0044 13.7941L14.0104 13.7858L14.016 13.7773L14.416 13.1773ZM19.5 10C19.5 15.2239 15.2239 19.5 10 19.5C4.77614 19.5 0.5 15.2239 0.5 10C0.5 4.77614 4.77614 0.5 10 0.5C10.931 0.5 11.7965 0.626213 12.652 0.879478C12.3298 1.53455 12.2 2.24686 12.2 3C12.2 4.64782 13.0069 6.12888 14.2796 7.02087C14.1879 7.00713 14.0945 7 14 7C12.9239 7 12 7.92386 12 9C12 10.0761 12.9239 11 14 11C15.0761 11 16 10.0761 16 9C16 8.46882 15.7749 7.97475 15.4175 7.61056C15.9383 7.79765 16.5038 7.9 17.1 7.9C17.8686 7.9 18.5635 7.70557 19.1802 7.42558C19.3775 8.22523 19.5 9.08294 19.5 10ZM6 11C7.07614 11 8 10.0761 8 9C8 7.92386 7.07614 7 6 7C4.92386 7 4 7.92386 4 9C4 10.0761 4.92386 11 6 11Z" fill="#0F1A1C" stroke="#0F1A1C"/>
</svg>
