<svg width="20" height="20" viewBox="0 0 20 20" fill="none" xmlns="http://www.w3.org/2000/svg">
<path d="M10.573 18C9.60417 18.0095 8.6598 17.696 7.88898 17.109C7.58912 16.8297 7.35445 16.4878 7.20166 16.1076C7.04888 15.7273 6.98173 15.3181 7.00499 14.909C7.00898 14.5106 7.05286 14.1136 7.13599 13.724L8.52099 7.429H11.979L10.541 13.936C10.5239 14.0165 10.5165 14.0987 10.519 14.181C10.509 14.3221 10.5377 14.4633 10.602 14.5893C10.6663 14.7153 10.7638 14.8213 10.884 14.896C11.1587 15.0572 11.4596 15.1689 11.773 15.226L10.573 18ZM9.82998 5.829C9.51619 5.65077 9.25479 5.39315 9.07198 5.082C8.88586 4.76947 8.78934 4.41174 8.79299 4.048C8.788 3.67968 8.88453 3.31709 9.07198 3C9.25324 2.69048 9.51526 2.43607 9.82998 2.264C10.1579 2.08509 10.5265 1.99414 10.9 2C11.2707 1.99623 11.6359 2.09004 11.959 2.272C12.272 2.4464 12.5334 2.70027 12.717 3.008C12.9058 3.32179 13.0037 3.68182 13 4.048C13.0036 4.41174 12.9071 4.76947 12.721 5.082C12.5338 5.39735 12.2671 5.658 11.9475 5.83788C11.6279 6.01777 11.2667 6.11057 10.9 6.107C10.5249 6.11156 10.1554 6.01557 9.82998 5.829Z" fill="#0F1A1C"/>
</svg>
