<svg width="20" height="20" viewBox="0 0 20 20" fill="none" xmlns="http://www.w3.org/2000/svg">
<g clip-path="url(#clip0_474_90)">
<path d="M7.98 8.383C7.71563 8.2199 7.41063 8.13463 7.1 8.137C6.78857 8.13562 6.48287 8.22079 6.217 8.383C5.94618 8.54524 5.72326 8.77644 5.571 9.053C5.41604 9.3446 5.335 9.66978 5.335 10C5.335 10.3302 5.41604 10.6554 5.571 10.947C5.72033 11.2244 5.94224 11.456 6.213 11.617C6.48196 11.778 6.78955 11.863 7.103 11.863C7.41646 11.863 7.72404 11.778 7.993 11.617C8.26119 11.4543 8.48109 11.223 8.63 10.947C8.78496 10.6563 8.866 10.3319 8.866 10.0025C8.866 9.67307 8.78496 9.34871 8.63 9.058C8.47724 8.77919 8.25286 8.54617 7.98 8.383Z" fill="#0F1A1C"/>
<path d="M10 0C8.02219 0 6.08879 0.58649 4.4443 1.6853C2.79981 2.78412 1.51809 4.3459 0.761209 6.17317C0.00433284 8.00043 -0.193701 10.0111 0.192152 11.9509C0.578004 13.8907 1.53041 15.6725 2.92894 17.0711C4.32746 18.4696 6.10929 19.422 8.0491 19.8079C9.98891 20.1937 11.9996 19.9957 13.8268 19.2388C15.6541 18.4819 17.2159 17.2002 18.3147 15.5557C19.4135 13.9112 20 11.9778 20 10C19.9971 7.34873 18.9426 4.80688 17.0679 2.93215C15.1931 1.05742 12.6513 0.0029116 10 0ZM9.76501 11.551C9.49811 12.0146 9.11257 12.3988 8.648 12.664C8.17296 12.9302 7.63754 13.07 7.093 13.07C6.54847 13.07 6.01304 12.9302 5.538 12.664C5.06821 12.3948 4.67782 12.0063 4.40633 11.5378C4.13484 11.0693 3.99186 10.5375 3.99186 9.996C3.99186 9.45453 4.13484 8.92267 4.40633 8.45418C4.67782 7.9857 5.06821 7.59721 5.538 7.328C6.01299 7.05964 6.55049 6.92164 7.096 6.928C7.64206 6.92217 8.17947 7.06456 8.651 7.34C9.35192 7.75549 9.8615 8.42978 10.0699 9.21749C10.2783 10.0052 10.1688 10.8433 9.76501 11.551ZM15.142 12.943C14.8309 13.0286 14.5097 13.072 14.187 13.072C13.6235 13.0768 13.0678 12.9411 12.57 12.677C12.0847 12.4219 11.6761 12.0422 11.386 11.577C11.0969 11.1021 10.9441 10.5569 10.9441 10.001C10.9441 9.44508 11.0969 8.89986 11.386 8.425C11.6748 7.9587 12.0837 7.57873 12.57 7.325C13.0601 7.06484 13.6071 6.93016 14.162 6.933C14.4775 6.93364 14.7915 6.97567 15.096 7.058C15.4065 7.14172 15.704 7.26791 15.98 7.433L15.48 8.609C15.3206 8.44273 15.1207 8.32075 14.9 8.255C14.6739 8.18163 14.4378 8.14351 14.2 8.142C13.866 8.13956 13.5366 8.21959 13.241 8.375C12.9532 8.52661 12.7114 8.75285 12.541 9.03C12.3645 9.31688 12.2736 9.64821 12.279 9.985C12.2748 10.3197 12.3612 10.6493 12.529 10.939C12.6931 11.2235 12.9325 11.4571 13.221 11.614C13.522 11.7803 13.8612 11.8651 14.205 11.86C14.4555 11.8597 14.7045 11.8206 14.943 11.744C15.1576 11.6825 15.3518 11.5644 15.505 11.402L16 12.58C15.7325 12.7408 15.4437 12.8631 15.142 12.943Z" fill="#0F1A1C"/>
</g>
<defs>
<clipPath id="clip0_474_90">
<rect width="20" height="20" fill="white"/>
</clipPath>
</defs>
</svg>
