<svg width="20" height="20" viewBox="0 0 20 20" fill="none" xmlns="http://www.w3.org/2000/svg">
<g clip-path="url(#clip0_1581_879)">
<path d="M6.32145 7.51696L6.45086 8.49993H18.3749C18.408 8.49993 18.4398 8.5131 18.4632 8.53654C18.4867 8.55998 18.4999 8.59177 18.4999 8.62493V17.3742C18.499 17.9377 18.2748 18.4779 17.8763 18.8764C17.4778 19.2748 16.9376 19.4991 16.3741 19.4999H3.62562C3.0621 19.4991 2.5219 19.2748 2.12343 18.8764C1.72502 18.478 1.50079 17.9379 1.49986 17.3745V8.67187L1.5345 8.54973L1.49884 8.41657L0.529837 4.79857L0.529657 4.7979C0.525419 4.78217 0.524324 4.76575 0.526436 4.74959C0.528547 4.73343 0.533823 4.71785 0.541963 4.70373C0.550101 4.68961 0.560943 4.67723 0.57387 4.66731C0.586789 4.65739 0.601537 4.65011 0.617272 4.64589C0.617278 4.64589 0.617285 4.64588 0.617291 4.64588L16.0713 0.504896L16.0741 0.504129C16.089 0.500031 16.1046 0.498969 16.12 0.501007C16.1354 0.503045 16.1502 0.50814 16.1635 0.515992L16.1635 0.516018L16.1682 0.518733C16.182 0.526626 16.1941 0.537173 16.2038 0.549767C16.2134 0.56236 16.2205 0.576746 16.2246 0.592091L16.2248 0.59306L17.2578 4.45706L17.2581 4.45795C17.2623 4.47369 17.2634 4.49011 17.2613 4.50626C17.2592 4.52242 17.2539 4.53801 17.2458 4.55212C17.2376 4.56625 17.2268 4.57862 17.2138 4.58855C17.2009 4.59847 17.1862 4.60575 17.1704 4.60997L6.32145 7.51696ZM8.19029 6.75788L8.56086 6.65857V6.27493V3.43293V2.7814L7.93151 2.94995L5.15351 3.69395L4.64275 3.83074L4.80786 4.33306C4.80905 4.33667 4.81005 4.34034 4.81086 4.34405V7.01193V7.66357L5.44029 7.49488L8.19029 6.75788ZM9.18143 2.60997L8.81086 2.70928V3.09293V5.93693V6.58857L9.44029 6.41988L12.1903 5.68288L12.5609 5.58357V5.19993V2.35593V1.70428L11.9314 1.87297L9.18143 2.60997ZM16.5033 4.52988L16.9863 4.40042L16.8568 3.91746L16.1448 1.26146L16.0154 0.778558L15.5324 0.907965L13.1814 1.53797L12.8109 1.63727V2.02093V4.86793V5.51959L13.4403 5.35088L16.5033 4.52988ZM4.56086 4.49993V3.84849L3.93157 4.01693L1.28657 4.72493L0.803443 4.85425L0.932899 5.33735L1.6449 7.99434L1.77433 8.47734L2.25731 8.34788L4.19731 7.82788L4.59822 7.72042L4.56639 7.30658C4.56506 7.28931 4.56303 7.27369 4.56086 7.26027V4.49993ZM4.54789 7.20011C4.54788 7.20004 4.54789 7.20007 4.54791 7.20018L4.54789 7.20011ZM18.2499 17.3757V17.3749V9.24993V8.74993H17.7499H2.24986H1.74986V9.24993L1.74986 17.3749L1.74986 17.3757C1.75058 17.8725 1.94828 18.3488 2.29962 18.7002C2.65096 19.0515 3.12727 19.2492 3.62413 19.2499H3.62486H16.3749H16.3756C16.8725 19.2492 17.3488 19.0515 17.7001 18.7002C18.0514 18.3488 18.2491 17.8725 18.2499 17.3757Z" fill="#0F1A1C" stroke="#0F1A1C"/>
</g>
<defs>
<clipPath id="clip0_1581_879">
<rect width="20" height="20" fill="white"/>
</clipPath>
</defs>
</svg>
