<svg width="20" height="20" viewBox="0 0 20 20" fill="none" xmlns="http://www.w3.org/2000/svg">
<path d="M19.567 18.683L17.373 16.489C17.8717 15.7688 18.0828 14.888 17.9649 14.0199C17.847 13.1519 17.4086 12.3594 16.7359 11.7982C16.0632 11.2371 15.2048 10.948 14.3297 10.9877C13.4546 11.0274 12.626 11.3932 12.0069 12.013C11.3878 12.6328 11.023 13.4618 10.9843 14.3369C10.9455 15.2121 11.2356 16.0701 11.7975 16.7422C12.3594 17.4143 13.1524 17.8518 14.0206 17.9687C14.8888 18.0856 15.7693 17.8735 16.489 17.374L18.683 19.567L19.567 18.683ZM14.5 16.75C14.055 16.75 13.62 16.618 13.25 16.3708C12.88 16.1236 12.5916 15.7722 12.4213 15.361C12.251 14.9499 12.2064 14.4975 12.2932 14.061C12.3801 13.6246 12.5943 13.2237 12.909 12.909C13.2237 12.5943 13.6246 12.38 14.061 12.2932C14.4975 12.2064 14.9499 12.251 15.361 12.4213C15.7722 12.5916 16.1236 12.88 16.3708 13.25C16.618 13.62 16.75 14.055 16.75 14.5C16.7492 15.0965 16.5119 15.6683 16.0901 16.0901C15.6683 16.5119 15.0965 16.7492 14.5 16.75ZM5.5 2C4.80777 2 4.13108 2.20527 3.55551 2.58986C2.97993 2.97444 2.53133 3.52107 2.26642 4.16061C2.00152 4.80015 1.9322 5.50388 2.06725 6.18282C2.2023 6.86175 2.53564 7.48539 3.02513 7.97487C3.51461 8.46436 4.13825 8.7977 4.81719 8.93275C5.49612 9.0678 6.19985 8.99849 6.83939 8.73358C7.47894 8.46867 8.02556 8.02007 8.41015 7.4445C8.79473 6.86892 9 6.19223 9 5.5C9 4.57174 8.63125 3.6815 7.97487 3.02513C7.3185 2.36875 6.42826 2 5.5 2ZM5.5 7.75C5.05499 7.75 4.61998 7.61804 4.24997 7.37081C3.87996 7.12357 3.59157 6.77217 3.42127 6.36104C3.25098 5.9499 3.20642 5.4975 3.29323 5.06105C3.38005 4.62459 3.59434 4.22368 3.90901 3.90901C4.22368 3.59434 4.62459 3.38005 5.06105 3.29323C5.49751 3.20642 5.94991 3.25097 6.36104 3.42127C6.77217 3.59157 7.12357 3.87996 7.37081 4.24997C7.61804 4.61998 7.75 5.05499 7.75 5.5C7.74921 6.09649 7.5119 6.66833 7.09012 7.09011C6.66833 7.5119 6.0965 7.74921 5.5 7.75ZM12.125 9H16.875C17.1732 8.99947 17.459 8.88078 17.6699 8.66991C17.8808 8.45905 17.9995 8.17321 18 7.875V3.125C17.9995 2.82679 17.8808 2.54095 17.6699 2.33009C17.459 2.11922 17.1732 2.00053 16.875 2H12.125C11.8268 2.00053 11.541 2.11922 11.3301 2.33009C11.1192 2.54095 11.0005 2.82679 11 3.125V7.875C11.0005 8.17321 11.1192 8.45905 11.3301 8.66991C11.541 8.88078 11.8268 8.99947 12.125 9ZM12.25 3.25H16.75V7.75H12.25V3.25ZM7.875 11H3.125C2.8268 11.0005 2.54095 11.1192 2.33009 11.3301C2.11923 11.541 2.00053 11.8268 2 12.125V16.875C2.00053 17.1732 2.11923 17.459 2.33009 17.6699C2.54095 17.8808 2.8268 17.9995 3.125 18H7.875C8.17321 17.9995 8.45905 17.8808 8.66991 17.6699C8.88078 17.459 8.99947 17.1732 9 16.875V12.125C8.99947 11.8268 8.88078 11.541 8.66991 11.3301C8.45905 11.1192 8.17321 11.0005 7.875 11ZM7.75 16.75H3.25V12.25H7.75V16.75Z" fill="#0F1A1C"/>
</svg>
