<svg width="20" height="20" viewBox="0 0 20 20" fill="none" xmlns="http://www.w3.org/2000/svg">
<path d="M12 10C12.2652 10 12.5196 9.89464 12.7071 9.70711C12.8946 9.51957 13 9.26522 13 9V7H16C16.7956 7 17.5587 6.68393 18.1213 6.12132C18.6839 5.55871 19 4.79565 19 4C19 3.20435 18.6839 2.44129 18.1213 1.87868C17.5587 1.31607 16.7956 1 16 1H12C11.7348 1 11.4804 1.10536 11.2929 1.29289C11.1054 1.48043 11 1.73479 11 2V9C11 9.26522 11.1054 9.51957 11.2929 9.70711C11.4804 9.89464 11.7348 10 12 10ZM13 3H16C16.2652 3 16.5196 3.10536 16.7071 3.2929C16.8946 3.48043 17 3.73479 17 4C17 4.26522 16.8946 4.51957 16.7071 4.70711C16.5196 4.89464 16.2652 5 16 5H13V3ZM7.27 6.708C7.88829 6.42 8.3897 5.92952 8.69127 5.31774C8.99283 4.70595 9.07647 4.00954 8.92833 3.34375C8.7802 2.67796 8.40917 2.0827 7.87666 1.6565C7.34415 1.23029 6.68207 0.998681 6 1H2C1.73478 1 1.48043 1.10536 1.29289 1.29289C1.10536 1.48043 1 1.73479 1 2V9C1 9.26522 1.10536 9.51957 1.29289 9.70711C1.48043 9.89464 1.73478 10 2 10C2.26522 10 2.51957 9.89464 2.70711 9.70711C2.89464 9.51957 3 9.26522 3 9V7H5.164L7.431 9.7C7.50704 9.79055 7.60016 9.86523 7.70506 9.91979C7.80996 9.97435 7.92457 10.0077 8.04237 10.018C8.16016 10.0282 8.27881 10.0152 8.39157 9.97959C8.50432 9.94399 8.60895 9.88654 8.6995 9.8105C8.79005 9.73447 8.86473 9.64134 8.91929 9.53644C8.97384 9.43154 9.0072 9.31693 9.01746 9.19914C9.02773 9.08135 9.01469 8.96269 8.97909 8.84994C8.94349 8.73718 8.88604 8.63255 8.81 8.542L7.27 6.708ZM3 3H6C6.26522 3 6.51957 3.10536 6.70711 3.2929C6.89464 3.48043 7 3.73479 7 4C7 4.26522 6.89464 4.51957 6.70711 4.70711C6.51957 4.89464 6.26522 5 6 5H3V3ZM19 14V18C19 18.2652 18.8946 18.5196 18.7071 18.7071C18.5196 18.8946 18.2652 19 18 19C17.7348 19 17.4804 18.8946 17.2929 18.7071C17.1054 18.5196 17 18.2652 17 18V14C17 13.4696 16.7893 12.9609 16.4142 12.5858C16.0391 12.2107 15.5304 12 15 12C14.4696 12 13.9609 12.2107 13.5858 12.5858C13.2107 12.9609 13 13.4696 13 14V18C13 18.2652 12.8946 18.5196 12.7071 18.7071C12.5196 18.8946 12.2652 19 12 19C11.7348 19 11.4804 18.8946 11.2929 18.7071C11.1054 18.5196 11 18.2652 11 18V14C11 12.9391 11.4214 11.9217 12.1716 11.1716C12.9217 10.4214 13.9391 10 15 10C16.0609 10 17.0783 10.4214 17.8284 11.1716C18.5786 11.9217 19 12.9391 19 14ZM5 10C3.93913 10 2.92172 10.4214 2.17157 11.1716C1.42143 11.9217 1 12.9391 1 14V18C1 18.2652 1.10536 18.5196 1.29289 18.7071C1.48043 18.8946 1.73478 19 2 19C2.26522 19 2.51957 18.8946 2.70711 18.7071C2.89464 18.5196 3 18.2652 3 18V16H7V18C7 18.2652 7.10536 18.5196 7.29289 18.7071C7.48043 18.8946 7.73478 19 8 19C8.26522 19 8.51957 18.8946 8.70711 18.7071C8.89464 18.5196 9 18.2652 9 18V14C9 12.9391 8.57857 11.9217 7.82843 11.1716C7.07828 10.4214 6.06087 10 5 10ZM3 14C3 13.4696 3.21071 12.9609 3.58579 12.5858C3.96086 12.2107 4.46957 12 5 12C5.53043 12 6.03914 12.2107 6.41421 12.5858C6.78929 12.9609 7 13.4696 7 14H3Z" fill="#0F1A1C"/>
</svg>
