<svg width="20" height="20" viewBox="0 0 20 20" fill="none" xmlns="http://www.w3.org/2000/svg">
<path d="M17.375 1H2.625C2.19419 1.00053 1.78117 1.1719 1.47654 1.47654C1.1719 1.78117 1.00053 2.19419 1 2.625V17.375C1.00053 17.8058 1.1719 18.2188 1.47654 18.5235C1.78117 18.8281 2.19419 18.9995 2.625 19H17.375C17.8058 18.9995 18.2188 18.8281 18.5235 18.5235C18.8281 18.2188 18.9995 17.8058 19 17.375V2.625C18.9995 2.19419 18.8281 1.78117 18.5235 1.47654C18.2188 1.1719 17.8058 1.00053 17.375 1ZM5.5 6.5C5.20333 6.5 4.91332 6.41203 4.66664 6.2472C4.41997 6.08238 4.22771 5.84811 4.11418 5.57403C4.00065 5.29994 3.97094 4.99834 4.02882 4.70736C4.0867 4.41639 4.22956 4.14912 4.43934 3.93934C4.64912 3.72956 4.91639 3.5867 5.20736 3.52882C5.49834 3.47094 5.79994 3.50065 6.07403 3.61418C6.34811 3.72771 6.58238 3.91997 6.7472 4.16664C6.91203 4.41332 7 4.70333 7 5C7 5.39782 6.84196 5.77936 6.56066 6.06066C6.27936 6.34196 5.89782 6.5 5.5 6.5ZM16 6H8V4H16V6Z" fill="#0F1A1C"/>
</svg>
