<svg width="20" height="20" viewBox="0 0 20 20" fill="none" xmlns="http://www.w3.org/2000/svg">
<path d="M19 11H7V9H19V11ZM19 3H7V5H19V3ZM19 15H7V17H19V15ZM3 2C2.60444 2 2.21776 2.1173 1.88886 2.33706C1.55996 2.55682 1.30362 2.86918 1.15224 3.23463C1.00087 3.60009 0.96126 4.00222 1.03843 4.39018C1.1156 4.77814 1.30608 5.13451 1.58579 5.41421C1.86549 5.69392 2.22186 5.8844 2.60982 5.96157C2.99778 6.03874 3.39992 5.99913 3.76537 5.84776C4.13082 5.69638 4.44318 5.44004 4.66294 5.11114C4.8827 4.78224 5 4.39556 5 4C5 3.46957 4.78929 2.96086 4.41421 2.58579C4.03914 2.21071 3.53043 2 3 2ZM3 8C2.60444 8 2.21776 8.1173 1.88886 8.33706C1.55996 8.55682 1.30362 8.86918 1.15224 9.23463C1.00087 9.60009 0.96126 10.0022 1.03843 10.3902C1.1156 10.7781 1.30608 11.1345 1.58579 11.4142C1.86549 11.6939 2.22186 11.8844 2.60982 11.9616C2.99778 12.0387 3.39992 11.9991 3.76537 11.8478C4.13082 11.6964 4.44318 11.44 4.66294 11.1111C4.8827 10.7822 5 10.3956 5 10C5 9.46957 4.78929 8.96086 4.41421 8.58579C4.03914 8.21071 3.53043 8 3 8ZM3 14C2.60444 14 2.21776 14.1173 1.88886 14.3371C1.55996 14.5568 1.30362 14.8692 1.15224 15.2346C1.00087 15.6001 0.96126 16.0022 1.03843 16.3902C1.1156 16.7781 1.30608 17.1345 1.58579 17.4142C1.86549 17.6939 2.22186 17.8844 2.60982 17.9616C2.99778 18.0387 3.39992 17.9991 3.76537 17.8478C4.13082 17.6964 4.44318 17.44 4.66294 17.1111C4.8827 16.7822 5 16.3956 5 16C5 15.4696 4.78929 14.9609 4.41421 14.5858C4.03914 14.2107 3.53043 14 3 14Z" fill="#0F1A1C"/>
</svg>
