<svg width="20" height="20" viewBox="0 0 20 20" fill="none" xmlns="http://www.w3.org/2000/svg">
<path d="M16.875 0H4.625C3.93002 -2.47104e-06 3.2634 0.275598 2.77132 0.766368C2.27923 1.25714 2.00185 1.92302 2 2.618V17.326H2.018C2.018 17.387 2 17.444 2 17.506C2.00159 18.168 2.26568 18.8023 2.73435 19.2699C3.20302 19.7374 3.838 20 4.5 20H16.875C17.1728 20 17.4585 19.8819 17.6694 19.6716C17.8803 19.4612 17.9992 19.1758 18 18.878V1.122C17.9992 0.824152 17.8803 0.538774 17.6694 0.328443C17.4585 0.118113 17.1728 -1.05901e-06 16.875 0V0ZM16.75 18.753H4.5C4.16928 18.753 3.8521 18.6216 3.61824 18.3878C3.38438 18.1539 3.253 17.8367 3.253 17.506C3.253 17.1753 3.38438 16.8581 3.61824 16.6242C3.8521 16.3904 4.16928 16.259 4.5 16.259H16.75V18.753ZM4.5 15.012C4.05989 15.0144 3.62838 15.1342 3.25 15.359V2.618C3.25106 2.25402 3.39639 1.90531 3.65414 1.64831C3.91189 1.39131 4.26102 1.247 4.625 1.247H16.75V15.012H4.5Z" fill="#0F1A1C"/>
</svg>
