<svg width="20" height="20" viewBox="0 0 20 20" fill="none" xmlns="http://www.w3.org/2000/svg">
<path d="M1.06662 3.38799L0.182617 2.49999L2.18262 0.49999C2.24066 0.441936 2.30956 0.395885 2.3854 0.364465C2.46124 0.333046 2.54253 0.316874 2.62462 0.316874C2.70671 0.316874 2.78799 0.333046 2.86383 0.364465C2.93967 0.395885 3.00858 0.441936 3.06662 0.49999L5.06662 2.49999L4.18262 3.38399L3.24962 2.45499V6.44599H1.99962V2.45499L1.06662 3.38799ZM18.9996 10.223V13.246C19.0211 15.0076 18.3452 16.7062 17.1193 17.9714C15.8934 19.2366 14.217 19.9658 12.4556 20H9.82462C8.68598 19.9753 7.57271 19.6589 6.59123 19.0811C5.60975 18.5034 4.79285 17.6835 4.21862 16.7L1.31062 11.884C1.01509 11.3943 0.925458 10.8075 1.06131 10.2519C1.19717 9.69629 1.54746 9.21707 2.03562 8.91899C2.48864 8.64337 3.02838 8.54718 3.54873 8.64932C4.06908 8.75147 4.53241 9.04456 4.84762 9.47099L5.99962 11.016V2.24599C5.9842 1.97498 6.02382 1.70365 6.11608 1.44836C6.20833 1.19306 6.35132 0.959089 6.53642 0.760534C6.72152 0.561979 6.9449 0.402954 7.1931 0.293041C7.4413 0.183128 7.70919 0.124602 7.98062 0.12099C8.55903 0.117169 9.11685 0.335464 9.53903 0.730854C9.96121 1.12624 10.2156 1.66857 10.2496 2.24599V6.19999C10.4733 6.11559 10.7105 6.07288 10.9496 6.07399C11.368 6.07517 11.7766 6.20047 12.1237 6.43403C12.4709 6.66758 12.7409 6.99888 12.8996 7.38599C13.2113 7.21177 13.5625 7.12052 13.9196 7.12099C14.3276 7.12203 14.7266 7.24119 15.0684 7.46408C15.4102 7.68696 15.6801 8.00403 15.8456 8.37699C16.1631 8.19425 16.5233 8.09869 16.8896 8.09999C17.4507 8.10237 17.988 8.32722 18.3836 8.72522C18.7791 9.12322 19.0007 9.66186 18.9996 10.223ZM17.7496 10.223C17.7496 10.1101 17.7274 9.99822 17.6842 9.89388C17.6409 9.78954 17.5776 9.69474 17.4977 9.61488C17.4179 9.53502 17.3231 9.47167 17.2187 9.42845C17.1144 9.38524 17.0026 9.36299 16.8896 9.36299C16.7767 9.36299 16.6648 9.38524 16.5605 9.42845C16.4562 9.47167 16.3614 9.53502 16.2815 9.61488C16.2016 9.69474 16.1383 9.78954 16.0951 9.89388C16.0519 9.99822 16.0296 10.1101 16.0296 10.223H14.7796V9.24599C14.7836 9.13065 14.7642 9.0157 14.7228 8.90799C14.6814 8.80027 14.6187 8.702 14.5385 8.61901C14.4583 8.53603 14.3622 8.47004 14.256 8.42497C14.1497 8.3799 14.0355 8.35667 13.9201 8.35667C13.8047 8.35667 13.6905 8.3799 13.5842 8.42497C13.478 8.47004 13.3819 8.53603 13.3017 8.61901C13.2215 8.702 13.1588 8.80027 13.1174 8.90799C13.076 9.0157 13.0567 9.13065 13.0606 9.24599H11.8106V8.24599C11.816 8.12877 11.7978 8.01166 11.7573 7.90156C11.7167 7.79145 11.6545 7.69057 11.5744 7.60485C11.4943 7.51912 11.3978 7.45029 11.2907 7.4024C11.1836 7.35452 11.0679 7.32854 10.9506 7.32599C10.4336 7.32599 10.2506 7.79699 10.2506 8.20099H8.99962V2.24599C8.96451 2.00148 8.84187 1.77802 8.65447 1.6171C8.46706 1.45617 8.22762 1.36873 7.98062 1.37099C7.48062 1.37099 7.24962 1.80999 7.24962 2.24599V12.429C7.24661 12.5823 7.19474 12.7306 7.10157 12.8524C7.0084 12.9742 6.87879 13.063 6.73162 13.106C6.5728 13.1653 6.39945 13.1737 6.23565 13.13C6.07185 13.0862 5.92574 12.9926 5.81762 12.862L3.84562 10.218C3.71589 10.0411 3.52454 9.9194 3.30938 9.87682C3.09423 9.83423 2.87093 9.8739 2.68362 9.98799C2.4787 10.1145 2.33215 10.317 2.27594 10.5511C2.21974 10.7853 2.25845 11.0322 2.38362 11.238L5.28962 16.055C5.74669 16.863 6.40723 17.5373 7.20561 18.011C8.00399 18.4846 8.91241 18.7411 9.84062 18.755H12.4536C13.8784 18.7062 15.2282 18.1048 16.2174 17.0783C17.2066 16.0518 17.7576 14.6806 17.7536 13.255L17.7496 10.223Z" fill="#0F1A1C"/>
</svg>
