<svg width="20" height="20" viewBox="0 0 20 20" fill="none" xmlns="http://www.w3.org/2000/svg">
<path d="M15.4999 9C16.1657 9.00128 16.818 8.81264 17.3804 8.45622C17.9427 8.09979 18.3917 7.59036 18.6747 6.98772C18.9577 6.38507 19.063 5.71421 18.9781 5.05386C18.8932 4.3935 18.6218 3.77106 18.1956 3.25955C17.7694 2.74805 17.2062 2.36872 16.572 2.16607C15.9378 1.96343 15.2589 1.94587 14.6151 2.11546C13.9713 2.28506 13.3892 2.63476 12.9371 3.12355C12.4851 3.61233 12.1818 4.21992 12.0629 4.875H0.999909V6.125H12.0629C12.2091 6.93054 12.6331 7.65933 13.261 8.18462C13.889 8.7099 14.6812 8.99842 15.4999 9ZM15.4999 3.25C15.9449 3.25 16.3799 3.38196 16.7499 3.62919C17.12 3.87643 17.4083 4.22783 17.5786 4.63896C17.7489 5.0501 17.7935 5.5025 17.7067 5.93895C17.6199 6.37541 17.4056 6.77632 17.0909 7.09099C16.7762 7.40566 16.3753 7.61995 15.9389 7.70677C15.5024 7.79359 15.05 7.74903 14.6389 7.57873C14.2277 7.40843 13.8763 7.12004 13.6291 6.75003C13.3819 6.38002 13.2499 5.94501 13.2499 5.5C13.2507 4.90351 13.488 4.33167 13.9098 3.90989C14.3316 3.4881 14.9034 3.2508 15.4999 3.25ZM4.49991 11C3.83413 10.9987 3.18179 11.1874 2.61944 11.5438C2.0571 11.9002 1.60809 12.4096 1.32509 13.0123C1.04209 13.6149 0.93685 14.2858 1.02172 14.9461C1.10659 15.6065 1.37804 16.2289 1.80423 16.7404C2.23042 17.2519 2.79366 17.6313 3.42785 17.8339C4.06205 18.0366 4.74089 18.0541 5.38471 17.8845C6.02853 17.7149 6.61063 17.3652 7.06269 16.8765C7.51475 16.3877 7.81802 15.7801 7.93691 15.125H18.9599V13.875H7.93691C7.79072 13.0695 7.36676 12.3407 6.7388 11.8154C6.11084 11.2901 5.3186 11.0016 4.49991 11ZM4.49991 16.75C4.0549 16.75 3.61989 16.618 3.24988 16.3708C2.87987 16.1236 2.59148 15.7722 2.42118 15.361C2.25088 14.9499 2.20633 14.4975 2.29314 14.061C2.37996 13.6246 2.59425 13.2237 2.90892 12.909C3.22359 12.5943 3.6245 12.3801 4.06096 12.2932C4.49741 12.2064 4.94981 12.251 5.36095 12.4213C5.77208 12.5916 6.12348 12.88 6.37072 13.25C6.61795 13.62 6.74991 14.055 6.74991 14.5C6.74912 15.0965 6.51181 15.6683 6.09002 16.0901C5.66824 16.5119 5.0964 16.7492 4.49991 16.75Z" fill="#0F1A1C"/>
</svg>
