<svg width="20" height="20" viewBox="0 0 20 20" fill="none" xmlns="http://www.w3.org/2000/svg">
<path d="M19 10.625H7V9.375H19V10.625ZM19 3.375H7V4.625H19V3.375ZM19 15.375H7V16.625H19V15.375ZM3 2.5C2.70333 2.5 2.41332 2.58797 2.16665 2.7528C1.91997 2.91762 1.72771 3.15189 1.61418 3.42597C1.50065 3.70006 1.47094 4.00166 1.52882 4.29264C1.5867 4.58361 1.72956 4.85088 1.93934 5.06066C2.14912 5.27044 2.41639 5.4133 2.70737 5.47118C2.99834 5.52906 3.29994 5.49935 3.57403 5.38582C3.84811 5.27229 4.08238 5.08003 4.24721 4.83336C4.41203 4.58668 4.5 4.29667 4.5 4C4.5 3.60218 4.34197 3.22064 4.06066 2.93934C3.77936 2.65804 3.39783 2.5 3 2.5ZM3 8.5C2.70333 8.5 2.41332 8.58797 2.16665 8.7528C1.91997 8.91762 1.72771 9.15189 1.61418 9.42597C1.50065 9.70006 1.47094 10.0017 1.52882 10.2926C1.5867 10.5836 1.72956 10.8509 1.93934 11.0607C2.14912 11.2704 2.41639 11.4133 2.70737 11.4712C2.99834 11.5291 3.29994 11.4994 3.57403 11.3858C3.84811 11.2723 4.08238 11.08 4.24721 10.8334C4.41203 10.5867 4.5 10.2967 4.5 10C4.5 9.60218 4.34197 9.22064 4.06066 8.93934C3.77936 8.65804 3.39783 8.5 3 8.5ZM3 14.5C2.70333 14.5 2.41332 14.588 2.16665 14.7528C1.91997 14.9176 1.72771 15.1519 1.61418 15.426C1.50065 15.7001 1.47094 16.0017 1.52882 16.2926C1.5867 16.5836 1.72956 16.8509 1.93934 17.0607C2.14912 17.2704 2.41639 17.4133 2.70737 17.4712C2.99834 17.5291 3.29994 17.4993 3.57403 17.3858C3.84811 17.2723 4.08238 17.08 4.24721 16.8334C4.41203 16.5867 4.5 16.2967 4.5 16C4.5 15.6022 4.34197 15.2206 4.06066 14.9393C3.77936 14.658 3.39783 14.5 3 14.5Z" fill="#0F1A1C"/>
</svg>
