<svg width="20" height="20" viewBox="0 0 20 20" fill="none" xmlns="http://www.w3.org/2000/svg">
<path d="M17.375 1H13.545V2.25H17.375C17.4745 2.25 17.5698 2.28951 17.6402 2.35983C17.7105 2.43016 17.75 2.52554 17.75 2.625V17.375C17.749 17.4604 17.7187 17.5428 17.664 17.6084C17.6094 17.6739 17.5338 17.7187 17.45 17.735L7.2 14.079V14.69C7.19767 15.4369 6.92159 16.1571 6.42403 16.7142C5.92646 17.2713 5.24193 17.6266 4.5 17.713C3.87754 17.6267 3.30715 17.3186 2.89376 16.8453C2.48036 16.372 2.25176 15.7654 2.25 15.137V2.625C2.25 2.52554 2.28951 2.43016 2.35983 2.35983C2.43016 2.28951 2.52554 2.25 2.625 2.25H6.225V1H2.625C2.19419 1.00053 1.78117 1.1719 1.47654 1.47654C1.1719 1.78117 1.00053 2.19419 1 2.625V15.137C1.00168 16.0351 1.316 16.9046 1.88898 17.5962C2.46196 18.2878 3.25786 18.7583 4.14 18.927C4.14 18.927 4.748 19 4.863 19H17.375C17.8058 18.9995 18.2188 18.8281 18.5235 18.5235C18.8281 18.2188 18.9995 17.8058 19 17.375V2.625C18.9995 2.19419 18.8281 1.78117 18.5235 1.47654C18.2188 1.1719 17.8058 1.00053 17.375 1ZM8.36 15.667L14.018 17.75H7.151C7.75843 17.1964 8.18057 16.4691 8.36 15.667ZM12.044 2.419C12.044 2.82326 11.9241 3.21845 11.6995 3.55459C11.4749 3.89072 11.1557 4.1527 10.7822 4.30741C10.4087 4.46212 9.99773 4.50259 9.60124 4.42373C9.20474 4.34486 8.84053 4.15018 8.55467 3.86433C8.26882 3.57847 8.07414 3.21426 7.99528 2.81776C7.91641 2.42127 7.95688 2.01029 8.11159 1.6368C8.2663 1.2633 8.52828 0.944074 8.86441 0.719476C9.20055 0.494879 9.59573 0.375 10 0.375C10.5421 0.375 11.062 0.590349 11.4453 0.973674C11.8287 1.357 12.044 1.8769 12.044 2.419ZM11.686 12.25H6V11H11.686V12.25ZM14 9.25H6V8H14V9.25Z" fill="#0F1A1C"/>
</svg>
