<svg width="20" height="20" viewBox="0 0 20 20" fill="none" xmlns="http://www.w3.org/2000/svg">
<path d="M17.875 2H2.125C1.82679 2.00053 1.54095 2.11922 1.33009 2.33009C1.11922 2.54095 1.00053 2.82679 1 3.125V16.875C1.00053 17.1732 1.11922 17.459 1.33009 17.6699C1.54095 17.8808 1.82679 17.9995 2.125 18H17.875C18.1732 17.9995 18.459 17.8808 18.6699 17.6699C18.8808 17.459 18.9995 17.1732 19 16.875V3.125C18.9995 2.82679 18.8808 2.54095 18.6699 2.33009C18.459 2.11922 18.1732 2.00053 17.875 2ZM9.759 12.817C9.4677 13.0099 9.14728 13.1548 8.81 13.246C8.46885 13.3415 8.11626 13.3899 7.762 13.39C7.14955 13.3955 6.54617 13.2418 6.011 12.944C5.48959 12.6559 5.05301 12.2359 4.745 11.726C4.43376 11.2095 4.27144 10.617 4.276 10.014C4.26951 9.40557 4.43484 8.80766 4.753 8.289C5.06365 7.78374 5.50252 7.36972 6.025 7.089C6.87378 6.63718 7.86511 6.53352 8.789 6.8C9.12053 6.89495 9.43772 7.03421 9.732 7.214L9.952 7.349L9.243 9.024L8.929 8.724C8.78414 8.59149 8.6141 8.48946 8.429 8.424C8.18338 8.33106 7.92069 8.2919 7.65865 8.30915C7.39661 8.3264 7.14131 8.39967 6.91 8.524C6.64599 8.66823 6.4266 8.8821 6.27567 9.14234C6.12475 9.40258 6.04808 9.69922 6.054 10C6.0495 10.3048 6.12752 10.6051 6.2798 10.8692C6.43208 11.1333 6.65294 11.3512 6.919 11.5C7.15118 11.626 7.4075 11.7011 7.67095 11.7204C7.93439 11.7397 8.19894 11.7028 8.447 11.612C8.63091 11.5545 8.79852 11.454 8.936 11.319L9.25 11L9.965 12.68L9.759 12.817ZM15.505 12.817C15.2137 13.0099 14.8933 13.1548 14.556 13.246C14.2149 13.3415 13.8623 13.3899 13.508 13.39C12.8956 13.3955 12.2922 13.2418 11.757 12.944C11.2356 12.6559 10.799 12.2359 10.491 11.726C10.1798 11.2095 10.0174 10.617 10.022 10.014C10.0158 9.40547 10.1815 8.80755 10.5 8.289C10.8107 7.78374 11.2495 7.36972 11.772 7.089C12.6205 6.63744 13.6114 6.53379 14.535 6.8C14.8668 6.89513 15.1843 7.03437 15.479 7.214L15.698 7.349L14.989 9.027L14.675 8.727C14.5301 8.59449 14.3601 8.49246 14.175 8.427C13.9294 8.33406 13.6667 8.2949 13.4046 8.31215C13.1426 8.3294 12.8873 8.40267 12.656 8.527C12.3925 8.671 12.1734 8.88439 12.0225 9.14405C11.8716 9.40371 11.7946 9.69973 11.8 10C11.7955 10.3048 11.8735 10.6051 12.0258 10.8692C12.1781 11.1333 12.3989 11.3512 12.665 11.5C12.8972 11.626 13.1535 11.7011 13.4169 11.7204C13.6804 11.7397 13.9449 11.7028 14.193 11.612C14.3769 11.5545 14.5445 11.454 14.682 11.319L15 11L15.715 12.68L15.505 12.817Z" fill="#0F1A1C"/>
</svg>
