<svg width="20" height="20" viewBox="0 0 20 20" fill="none" xmlns="http://www.w3.org/2000/svg">
<g clip-path="url(#clip0_3595_192)">
<path d="M12.4759 1.4203L12.4299 1.46416L11.9459 1.92577L12.5256 2.25937C13.2082 2.65218 13.7764 3.21647 14.174 3.89637C14.5492 4.5381 14.76 5.26181 14.7888 6.00325C14.4558 5.96253 14.1195 5.95719 13.7855 5.98729C13.7244 5.0609 13.3151 4.18992 12.6372 3.55099C11.9315 2.88582 10.9919 2.52617 10.0227 2.54984C9.05431 2.52741 8.11589 2.8876 7.41113 3.55265C6.73358 4.19201 6.3248 5.06331 6.26429 5.98984C5.9308 5.96042 5.59504 5.96625 5.26263 6.00728C5.3208 4.81974 5.82944 3.69684 6.68788 2.86922C7.57822 2.01084 8.77223 1.5401 10.0087 1.55983C10.1884 1.56728 10.3676 1.58501 10.5454 1.61294L10.7889 1.65119L10.9675 1.48137L11.7849 0.704297L12.4759 1.4203ZM8.37866 5.49962L8.37878 5.4995L8.36921 5.49016C8.35736 5.47859 8.34743 5.46524 8.33976 5.4506C8.33435 5.43494 8.3311 5.41861 8.3301 5.40206C8.33063 5.3907 8.33322 5.37951 8.33776 5.36905C8.34293 5.35712 8.35053 5.34639 8.36006 5.33755L8.36017 5.33767L8.36921 5.32885C8.39349 5.30515 8.42607 5.29189 8.46 5.29189C8.49393 5.29189 8.52651 5.30515 8.55079 5.32885L8.55074 5.32891L8.55728 5.33507C8.56345 5.34088 8.56884 5.34743 8.57334 5.35456C8.58174 5.38901 8.5822 5.42491 8.5747 5.45952C8.5582 5.48527 8.53599 5.50691 8.50978 5.52275C8.49625 5.52585 8.48237 5.52731 8.46844 5.52707L8.45742 5.52689L8.44641 5.52718C8.43382 5.52753 8.4213 5.52525 8.40964 5.52051C8.39798 5.51577 8.38743 5.50865 8.37866 5.49962ZM11.5827 5.50388L11.5761 5.49689L11.5692 5.49016C11.5574 5.47859 11.5474 5.46524 11.5398 5.4506C11.5344 5.43496 11.5311 5.41865 11.5301 5.40212C11.5306 5.39074 11.5332 5.37953 11.5378 5.36905C11.5429 5.35712 11.5505 5.34639 11.5601 5.33755L11.5602 5.33766L11.5692 5.32885C11.5935 5.30515 11.6261 5.29189 11.66 5.29189C11.6939 5.29189 11.7265 5.30515 11.7508 5.32885L11.7508 5.32886L11.754 5.33197C11.7626 5.34017 11.7693 5.35007 11.7738 5.36103C11.7783 5.37199 11.7805 5.38377 11.7802 5.39562L11.7799 5.40652L11.7801 5.41742C11.7803 5.4287 11.7793 5.43994 11.7772 5.45098C11.7668 5.4674 11.7552 5.48306 11.7425 5.49781C11.7201 5.51671 11.6916 5.52713 11.662 5.527V5.52689L11.6516 5.52707C11.6358 5.52734 11.6201 5.52544 11.6049 5.52144C11.5967 5.51668 11.5893 5.51077 11.5827 5.50388ZM4.55274 8.69863L4.55276 8.69866L4.55778 8.69551C4.90033 8.48053 5.29186 8.35608 5.69566 8.3338C6.09491 8.31178 6.49323 8.39037 6.8541 8.56227L7.17433 8.74036L3.5 10.5929V10.5688C3.5012 10.1932 3.59852 9.82422 3.7827 9.49692C3.96699 9.16943 4.23209 8.8946 4.55274 8.69863ZM15.4425 8.69567L15.4448 8.69715C15.8296 8.93533 16.1296 9.28366 16.3089 9.69256L4.12377 15.7542C3.76873 15.0095 3.56047 14.2028 3.51102 13.3782L11.0542 9.57342L11.329 9.4348V9.43286L13.1321 8.56891L13.1333 8.56829C13.4976 8.39249 13.9005 8.31196 14.3043 8.33423C14.7082 8.35651 15.0998 8.48086 15.4425 8.69567ZM10.0072 19.5H10.004H10.0036H10.0031H10.0027H10.0023H10.0019H10.0014H10.001H10.0006H10.0002H9.99972H9.99929H9.99887H9.99844H9.99801H9.99758H9.99716H9.99673H9.9963H9.99587H9.99545H9.99502H9.99459H9.99416H9.99373H9.99331H9.99288H9.99245H9.99202H9.9916H9.99117H9.99074H9.99031H9.98988H9.98946H9.98903H9.9886H9.98817H9.98775H9.98732H9.98689H9.98646H9.98604H9.98561H9.98518H9.98475H9.98432H9.9839H9.98347H9.98304H9.98261H9.98219H9.98176H9.98133H9.9809H9.98048H9.98005H9.97962H9.97919H9.97877H9.97834H9.97791H9.97748H9.97705H9.97663H9.9762H9.97577H9.97534H9.97492H9.97449H9.97406H9.97363H9.97321H9.97278H9.97235H9.97192H9.9715H9.97107H9.97064H9.97021H9.96978H9.96936H9.96893H9.9685H9.96807H9.96765H9.96722H9.96679H9.96636H9.96594H9.96551H9.96508H9.96465H9.96423H9.9638H9.96337H9.96294H9.96252H9.96209H9.96166H9.96123H9.96081H9.96038H9.95995H9.95952H9.9591H9.95867H9.95824H9.95781H9.95739H9.95696H9.95653H9.9561H9.95568H9.95525H9.95482H9.95439H9.95397H9.95354H9.95311H9.95268H9.95226H9.95183H9.9514H9.95097H9.95055H9.95012H9.94969H9.94927H9.94884H9.94841H9.94798H9.94756H9.94713H9.9467H9.94627H9.94585H9.94542H9.94499H9.94456H9.94414H9.94371H9.94328H9.94286H9.94243H9.942H9.94157H9.94115H9.94072H9.94029H9.93986H9.93944H9.93901H9.93858H9.93816H9.93773H9.9373H9.93687H9.93645H9.93602H9.93559H9.93517H9.93474H9.93431H9.93388H9.93346H9.93303H9.9326H9.93218H9.93175H9.93132H9.93089H9.93047H9.93004H9.92961H9.92919H9.92876H9.92833H9.92791H9.92748H9.92705H9.92662H9.9262H9.92577H9.92534H9.92492H9.92449H9.92406H9.92364H9.92321H9.92278H9.92235H9.92193H9.9215H9.92107H9.92065H9.92022H9.91979H9.91937H9.91894H9.91851H9.91809H9.91766H9.91723H9.91681H9.91638H9.91595H9.91552H9.9151H9.91467H9.91424H9.91382H9.91339H9.91296H9.91254H9.91211H9.91168H9.91126H9.91083H9.9104H9.90998H9.90955H9.90912H9.9087H9.90827H9.90784H9.90742H9.90699H9.90656H9.90614H9.90571H9.90529H9.90486H9.90443H9.90401H9.90358H9.90315H9.90273H9.9023H9.90187H9.90145H9.90102H9.90059H9.90017H9.89974H9.89931H9.89889H9.89846H9.89804H9.89761H9.89718H9.89676H9.89633H9.8959H9.89548H9.89505H9.89463H9.8942H9.89377H9.89335H9.89292H9.89249H9.89207H9.89164H9.89122H9.89079H9.89036H9.88994H9.88951H9.88908H9.88866H9.88823H9.88781H9.88738H9.88695H9.88653H9.8861H9.88568H9.88525H9.88482H9.8844H9.88397H9.88355H9.88312H9.88269H9.88227H9.88184H9.88142H9.88099H9.88056H9.88014H9.87971H9.87929H9.87886H9.87844H9.87801H9.87758H9.87716H9.87673H9.87631H9.87588H9.87546H9.87503H9.8746H9.87418H9.87375H9.87333H9.8729H9.87248H9.87205H9.87162H9.8712H9.87077H9.87035H9.86992H9.8695H9.86907H9.86865H9.86822H9.86779H9.86737H9.86694H9.86652H9.86609H9.86567H9.86524H9.86482H9.86439H9.86397H9.86354H9.86312H9.86269H9.86227H9.86184H9.86141H9.86099H9.86056H9.86014H9.85971H9.85929H9.85886H9.85844H9.85801H9.85759H9.85716H9.85674H9.85631H9.85589H9.85546H9.85504H9.85461H9.85419H9.85376H9.85334H9.85291H9.85249H9.85206H9.85164H9.85121H9.85079H9.85036H9.84994H9.84951H9.84909H9.84866H9.84824H9.84781H9.84739H9.84697H9.84654H9.84612H9.84569H9.84527H9.84484H9.84442H9.84399H9.84357H9.84314H9.84272H9.84229H9.84187H9.84145H9.84102H9.8406H9.84017H9.83975H9.83932H9.8389H9.83847H9.83805H9.83763H9.8372H9.83678H9.83635H9.83593H9.8355H9.83508H9.83466H9.83423H9.83381H9.83338H9.83296H9.83253H9.83211H9.83169H9.83126H9.83084H9.83041H9.82999H9.82957H9.82914H9.82872H9.82829H9.82787H9.82745H9.82702H9.8266H9.82618H9.82575H9.82533H9.8249H9.82448H9.82406H9.82363H9.82321H9.82278H9.82236H9.82194H9.82151H9.82109H9.82067H9.82024H9.81982H9.8194H9.81897H9.81855H9.81813H9.8177H9.81728H9.81686H9.81643H9.81601H9.81559H9.81516H9.81474H9.81431H9.81389H9.81347H9.81305H9.81262H9.8122H9.81178H9.81135H9.81093H9.81051H9.81008H9.80966H9.80924H9.80881H9.80839H9.80797H9.80754H9.80712H9.8067H9.80628H9.80585H9.80543H9.80501H9.80458H9.80416H9.80374H9.80332H9.80289H9.80247H9.80205H9.80162H9.8012H9.80078H9.80036H9.79993H9.79951H9.79909H9.79867H9.79824H9.79782H9.7974H9.79698H9.79655H9.79613H9.79571H9.79529H9.79486H9.79475C8.91833 19.4688 8.05736 19.2598 7.2641 18.8858C6.66832 18.6049 6.12008 18.2352 5.63762 17.7906L16.5 12.3834V13.2637C16.4995 14.0848 16.3322 14.8973 16.0084 15.652C15.6846 16.4066 15.211 17.0877 14.6162 17.6539L14.6137 17.6563C13.3782 18.8493 11.7247 19.5112 10.0072 19.5Z" fill="#0F1A1C" stroke="#0F1A1C"/>
</g>
<defs>
<clipPath id="clip0_3595_192">
<rect width="20" height="20" fill="white"/>
</clipPath>
</defs>
</svg>
