<svg width="20" height="20" viewBox="0 0 20 20" fill="none" xmlns="http://www.w3.org/2000/svg">
<path d="M16.375 2H3.625C3.19419 2.00053 2.78117 2.1719 2.47654 2.47654C2.1719 2.78117 2.00053 3.19419 2 3.625V16.375C2.00053 16.8058 2.1719 17.2188 2.47654 17.5235C2.78117 17.8281 3.19419 17.9995 3.625 18H16.375C16.8058 17.9995 17.2188 17.8281 17.5235 17.5235C17.8281 17.2188 17.9995 16.8058 18 16.375V3.625C17.9995 3.19419 17.8281 2.78117 17.5235 2.47654C17.2188 2.1719 16.8058 2.00053 16.375 2ZM9.03 13.03C8.9605 13.0998 8.87791 13.1552 8.78696 13.1929C8.696 13.2307 8.59849 13.2502 8.5 13.2502C8.40151 13.2502 8.304 13.2307 8.21304 13.1929C8.12209 13.1552 8.0395 13.0998 7.97 13.03L5.97 11.03L7.03 9.97L8.5 11.439L12.97 6.97L14.03 8.03L9.03 13.03Z" fill="#0F1A1C"/>
</svg>
