<svg width="20" height="20" viewBox="0 0 20 20" fill="none" xmlns="http://www.w3.org/2000/svg">
<path d="M17.279 7.82501L12.172 2.71801L13.172 1.74001C13.6638 1.26185 14.3239 0.996099 15.0098 1.00003C15.6957 1.00396 16.3527 1.27725 16.839 1.76101L18.239 3.16101C18.7227 3.64763 18.9958 4.30481 18.9996 4.99091C19.0033 5.67702 18.7374 6.33713 18.259 6.82901L17.279 7.82501ZM1.336 13.318C1.23 13.4226 1.14575 13.5471 1.08808 13.6844C1.03041 13.8217 1.00048 13.9691 1 14.118V17.875C0.99961 18.0225 1.02831 18.1687 1.08445 18.3051C1.1406 18.4415 1.22309 18.5655 1.32721 18.67C1.43134 18.7745 1.55504 18.8574 1.69125 18.914C1.82745 18.9707 1.97349 18.9999 2.121 19H5.878C6.02698 18.9993 6.17436 18.9692 6.31166 18.9114C6.44895 18.8536 6.57346 18.7691 6.678 18.663L15.878 9.25701L10.742 4.11601L1.336 13.318Z" fill="#0F1A1C"/>
</svg>
