<svg width="20" height="20" viewBox="0 0 20 20" fill="none" xmlns="http://www.w3.org/2000/svg">
<path d="M16.5005 4.00001C16.5005 4.08823 16.4811 4.17537 16.4436 4.25523C16.4061 4.33509 16.3514 4.40569 16.2835 4.462L13.5415 6.74801C13.4539 6.82098 13.3473 6.86748 13.2342 6.88206C13.1211 6.89663 13.0062 6.87868 12.9029 6.83031C12.7997 6.78193 12.7123 6.70514 12.6512 6.60892C12.59 6.51269 12.5575 6.40103 12.5575 6.28701V1.71301C12.5577 1.59906 12.5903 1.48753 12.6516 1.39146C12.7128 1.29539 12.8002 1.21874 12.9034 1.17049C13.0066 1.12224 13.1214 1.10437 13.2344 1.11898C13.3474 1.1336 13.4539 1.18008 13.5415 1.25301L16.4645 3.689L16.5005 4.00001ZM7.03448 5.18301V6.28301C7.03449 6.39703 7.06699 6.50869 7.12817 6.60492C7.18935 6.70114 7.27668 6.77793 7.37994 6.82631C7.48319 6.87468 7.59809 6.89263 7.71118 6.87806C7.82428 6.86348 7.93087 6.81698 8.01848 6.74401L10.7605 4.462C10.8284 4.40569 10.8831 4.33509 10.9206 4.25523C10.9581 4.17537 10.9775 4.08823 10.9775 4.00001L10.9415 3.689L8.01848 1.25301C7.93093 1.18008 7.82443 1.1336 7.71143 1.11898C7.59843 1.10437 7.48361 1.12224 7.38039 1.17049C7.27717 1.21874 7.18982 1.29539 7.12857 1.39146C7.06731 1.48753 7.03468 1.59906 7.03448 1.71301V3.13701C5.46892 3.42738 4.02529 4.17737 2.88761 5.29137C1.74993 6.40536 0.969735 7.8329 0.646484 9.392H2.71848C3.00328 8.37238 3.55244 7.44611 4.31036 6.70698C5.06827 5.96786 6.00803 5.44212 7.03448 5.18301ZM4.18248 13.41L5.82348 12.684V18.906H7.73948V10.27H7.17048L4.18248 11.635V13.41ZM12.6255 19C13.2255 19.0165 13.8167 18.8531 14.3232 18.5309C14.8296 18.2088 15.2281 17.7425 15.4675 17.192C15.7593 16.5355 15.9014 15.8222 15.8835 15.104V14.125C15.9014 13.399 15.7593 12.678 15.4675 12.013C15.223 11.4556 14.8222 10.9811 14.3135 10.647C13.8069 10.3289 13.2186 10.1653 12.6205 10.176C12.022 10.1622 11.4327 10.3253 10.9265 10.645C10.4138 10.9801 10.0089 11.4562 9.76048 12.016C9.46562 12.6792 9.32149 13.3995 9.33848 14.125V15.1C9.32169 15.8149 9.46485 16.5245 9.75748 17.177C10.0012 17.7308 10.4039 18.1997 10.9145 18.5243C11.4251 18.8488 12.0206 19.0144 12.6255 19ZM12.6315 17.342C12.4275 17.3524 12.2243 17.3094 12.0419 17.2173C11.8595 17.1253 11.7043 16.9873 11.5915 16.817C11.3343 16.3893 11.211 15.8944 11.2375 15.396V13.785C11.202 13.2722 11.3302 12.7614 11.6035 12.326C11.7221 12.1653 11.8785 12.0363 12.0588 11.9504C12.2392 11.8646 12.438 11.8246 12.6375 11.834C12.8316 11.8241 13.0251 11.8634 13.2 11.9484C13.3748 12.0334 13.5253 12.1612 13.6375 12.32C13.8987 12.762 14.0193 13.2729 13.9835 13.785V15.4C14.0178 15.9093 13.895 16.4168 13.6315 16.854C13.5192 17.0128 13.3688 17.1408 13.194 17.2261C13.0192 17.3114 12.8257 17.3513 12.6315 17.342Z" fill="#0F1A1C"/>
</svg>
