<svg width="20" height="20" viewBox="0 0 20 20" fill="none" xmlns="http://www.w3.org/2000/svg">
<path d="M16.375 8H15V5.312C15.0385 3.94532 14.534 2.61904 13.597 1.62348C12.6599 0.62791 11.3665 0.0441579 10 0C8.63349 0.0441579 7.34014 0.62791 6.40305 1.62348C5.46596 2.61904 4.96146 3.94532 5 5.312V8H3.625C3.19348 8.00106 2.78002 8.17329 2.47535 8.47889C2.17069 8.78449 1.99973 9.19848 2 9.63V17.37C1.99973 17.8015 2.17069 18.2155 2.47535 18.5211C2.78002 18.8267 3.19348 18.9989 3.625 19H16.375C16.8065 18.9989 17.22 18.8267 17.5246 18.5211C17.8293 18.2155 18.0003 17.8015 18 17.37V9.63C18.0003 9.19848 17.8293 8.78449 17.5246 8.47889C17.22 8.17329 16.8065 8.00106 16.375 8ZM13.125 8H6.875V5.313C6.83743 4.4437 7.14471 3.59475 7.72996 2.95088C8.31521 2.307 9.13107 1.92033 10 1.875C10.8689 1.92033 11.6848 2.307 12.27 2.95088C12.8553 3.59475 13.1626 4.4437 13.125 5.313V8Z" fill="#0F1A1C"/>
</svg>
