<svg width="20" height="20" viewBox="0 0 20 20" fill="none" xmlns="http://www.w3.org/2000/svg">
<g clip-path="url(#clip0_1118_398)">
<path d="M12.857 18H1.126C0.829036 18.0013 0.543678 17.8848 0.332569 17.6759C0.12146 17.4671 0.00185141 17.183 0 16.886L0 7.114C0.00185141 6.81704 0.12146 6.53295 0.332569 6.32409C0.543678 6.11523 0.829036 5.99867 1.126 6H12.857C13.1541 5.99867 13.4395 6.11519 13.6508 6.32403C13.8621 6.53286 13.9819 6.81695 13.984 7.114V8.414L15.9 7.2C16.0819 7.08284 16.2936 7.02036 16.51 7.02L18.866 7C19.0159 6.99453 19.1653 7.02094 19.3042 7.07748C19.4432 7.13402 19.5685 7.21941 19.672 7.328C19.7763 7.43075 19.859 7.55329 19.9154 7.68843C19.9717 7.82357 20.0005 7.96859 20 8.115V15.887C20.0002 16.0331 19.9713 16.1777 19.915 16.3125C19.8587 16.4473 19.7761 16.5695 19.672 16.672C19.567 16.7769 19.4422 16.8599 19.3049 16.9162C19.1675 16.9725 19.0204 17.001 18.872 17H18.864L16.509 16.983C16.2927 16.9816 16.0813 16.918 15.9 16.8L13.981 15.586V16.886C13.9789 17.1825 13.8595 17.4662 13.6488 17.6749C13.4382 17.8837 13.1535 18.0005 12.857 18ZM1.25 16.75H12.734V15.35C12.7344 15.1503 12.7885 14.9544 12.8907 14.7828C12.993 14.6112 13.1395 14.4704 13.315 14.375C13.4941 14.2771 13.6962 14.2292 13.9001 14.2365C14.1041 14.2437 14.3023 14.3057 14.474 14.416L16.581 15.751H18.75V8.218L16.55 8.268L14.474 9.583C14.3023 9.69331 14.1041 9.75533 13.9001 9.76254C13.6962 9.76976 13.4941 9.7219 13.315 9.624C13.1395 9.52863 12.993 9.38777 12.8907 9.21621C12.7885 9.04464 12.7344 8.84871 12.734 8.649V7.25H1.25V16.75ZM4.625 3.25H13.95V2H4.625C3.92913 2.00106 3.26207 2.27796 2.77001 2.77001C2.27796 3.26207 2.00106 3.92913 2 4.625V5H3.25V4.625C3.25053 4.26049 3.39556 3.91106 3.65331 3.65331C3.91106 3.39556 4.26049 3.25053 4.625 3.25Z" fill="#0F1A1C"/>
</g>
<defs>
<clipPath id="clip0_1118_398">
<rect width="20" height="20" fill="white"/>
</clipPath>
</defs>
</svg>
