<svg width="20" height="20" viewBox="0 0 20 20" fill="none" xmlns="http://www.w3.org/2000/svg">
<path d="M15.6739 10.912C16.2329 11.5993 16.5179 12.4691 16.4739 13.354C16.4882 14.2078 16.2529 15.0471 15.7969 15.769C15.3324 16.4864 14.6734 17.0569 13.8969 17.414C13.0288 17.8164 12.0807 18.0168 11.1239 18H4.35791V2H9.72691C10.7326 1.97599 11.7329 2.15489 12.6679 2.526C13.4224 2.82231 14.0783 3.32476 14.5609 3.976C14.9966 4.58683 15.2261 5.32075 15.2159 6.071C15.2169 6.74236 15.0561 7.40406 14.7469 8C14.4474 8.59235 14.0218 9.11188 13.4999 9.522C14.3402 9.77304 15.0934 10.2546 15.6739 10.912ZM7.92691 5.1V8.567H9.97791C10.219 8.57952 10.4601 8.54151 10.6857 8.45541C10.9113 8.3693 11.1164 8.23701 11.2879 8.067C11.4496 7.89259 11.5752 7.68796 11.6576 7.46487C11.7399 7.24178 11.7774 7.00462 11.7679 6.767C11.7836 6.53176 11.7427 6.29619 11.6488 6.07996C11.5548 5.86373 11.4105 5.6731 11.2279 5.524C10.7959 5.22177 10.2754 5.07254 9.74891 5.1H7.92691ZM10.9379 14.9C11.4648 14.922 11.9802 14.7413 12.3779 14.395C12.5629 14.2256 12.7086 14.0178 12.8048 13.7861C12.901 13.5545 12.9454 13.3046 12.9349 13.054C12.9478 12.8009 12.9012 12.5484 12.7989 12.3166C12.6966 12.0848 12.5415 11.8801 12.3459 11.719C11.8935 11.3816 11.3376 11.2126 10.7739 11.241H7.92691V14.9H10.9379Z" fill="#0F1A1C"/>
</svg>
