<svg width="20" height="20" viewBox="0 0 20 20" fill="none" xmlns="http://www.w3.org/2000/svg">
<path d="M12.375 7.93499H3.625C3.19419 7.93552 2.78117 8.10689 2.47654 8.41152C2.1719 8.71616 2.00053 9.12917 2 9.55999V18.31C2.00053 18.7408 2.1719 19.1538 2.47654 19.4585C2.78117 19.7631 3.19419 19.9345 3.625 19.935H12.375C12.8058 19.9345 13.2188 19.7631 13.5235 19.4585C13.8281 19.1538 13.9995 18.7408 14 18.31V9.55999C13.9995 9.12917 13.8281 8.71616 13.5235 8.41152C13.2188 8.10689 12.8058 7.93552 12.375 7.93499ZM12.75 18.31C12.75 18.4094 12.7105 18.5048 12.6402 18.5752C12.5698 18.6455 12.4745 18.685 12.375 18.685H3.625C3.52554 18.685 3.43016 18.6455 3.35983 18.5752C3.28951 18.5048 3.25 18.4094 3.25 18.31V9.55999C3.25 9.46053 3.28951 9.36515 3.35983 9.29482C3.43016 9.2245 3.52554 9.18499 3.625 9.18499H12.375C12.4745 9.18499 12.5698 9.2245 12.6402 9.29482C12.7105 9.36515 12.75 9.46053 12.75 9.55999V18.31ZM19 8.35599V11.856H17.75V8.35599C17.7489 7.25027 17.3093 6.19012 16.5275 5.40817C15.7458 4.62621 14.6857 4.18631 13.58 4.18499H9.42V5.84599C9.42008 5.96019 9.38756 6.07204 9.32627 6.16841C9.26498 6.26477 9.17747 6.34164 9.074 6.38999C8.99486 6.42717 8.90844 6.4463 8.821 6.44599C8.68034 6.44621 8.54407 6.39702 8.436 6.30699L5.513 3.87199L5.477 3.55999C5.47703 3.47226 5.49629 3.3856 5.53344 3.30612C5.57059 3.22664 5.62471 3.15628 5.692 3.09999L8.436 0.812987C8.52361 0.74001 8.63021 0.693511 8.7433 0.678934C8.85639 0.664358 8.97129 0.682308 9.07455 0.730683C9.1778 0.779058 9.26514 0.855854 9.32632 0.952076C9.3875 1.0483 9.42 1.15996 9.42 1.27399V2.93499H13.58C15.0171 2.93684 16.3948 3.50861 17.4108 4.52487C18.4269 5.54113 18.9984 6.91891 19 8.35599Z" fill="#0F1A1C"/>
</svg>
