<svg width="20" height="20" viewBox="0 0 20 20" fill="none" xmlns="http://www.w3.org/2000/svg">
<path d="M1.24595 15.5786L1.24605 15.5785L6.91621 9.9065C6.95659 9.98431 6.99837 10.0614 7.04151 10.1377L1.42195 15.7554L1.421 15.7563C1.04809 16.1311 0.838754 16.6383 0.838754 17.167C0.838754 17.6957 1.04809 18.2029 1.421 18.5777L1.42089 18.5778L1.43004 18.5865C1.80829 18.9479 2.3113 19.1496 2.83444 19.1496C3.35758 19.1496 3.86059 18.9479 4.23884 18.5865L4.23893 18.5866L4.24708 18.5785L9.86162 12.9611C9.93669 13.0036 10.0125 13.0448 10.089 13.0847L4.42193 18.7554C4.4219 18.7554 4.42186 18.7555 4.42183 18.7555C4.42181 18.7555 4.42179 18.7555 4.42177 18.7556C4.00052 19.1766 3.42926 19.4131 2.83365 19.4131C2.23796 19.413 1.6667 19.1763 1.24554 18.755C0.824377 18.3337 0.587814 17.7624 0.587891 17.1667C0.587967 16.571 0.824678 15.9998 1.24595 15.5786ZM18.4599 7.91769L18.459 7.92036C18.1651 8.86439 17.6081 9.70505 16.8534 10.3438C16.0995 10.9818 15.1796 11.3919 14.2012 11.5261C13.9889 11.5521 13.7753 11.565 13.5615 11.565H13.5614C12.8341 11.565 12.115 11.4103 11.452 11.111C10.7891 10.8118 10.1974 10.3749 9.71624 9.82935C9.23511 9.28384 8.87555 8.6422 8.66146 7.94705C8.44765 7.25277 8.38381 6.521 8.47418 5.80021C8.60865 4.82316 9.01822 3.90449 9.6551 3.15139C10.2926 2.3976 11.1315 1.84085 12.0737 1.54622L12.0761 1.54545C13.1252 1.21155 14.2566 1.24352 15.2851 1.63613L15.2851 1.63614L15.2888 1.6375C15.3855 1.67356 15.4715 1.73346 15.5389 1.81164C15.5898 1.8706 15.6288 1.93853 15.654 2.01169L15.0017 1.79705C14.5372 1.6442 14.0514 1.56589 13.5623 1.565L13.5598 1.56501C13.0819 1.56661 12.607 1.63994 12.151 1.78255C11.2551 2.05955 10.4568 2.58634 9.84987 3.30111C9.24271 4.01611 8.85217 4.88951 8.72412 5.81875L8.72409 5.81874L8.7234 5.8242C8.62994 6.56238 8.70662 7.31215 8.94758 8.01613C9.18854 8.7201 9.58738 9.35961 10.1136 9.88569C10.6398 10.4118 11.2793 10.8105 11.9834 11.0513C12.6874 11.2921 13.4372 11.3686 14.1753 11.275L14.1753 11.2751L14.1808 11.2743C15.1098 11.1462 15.9831 10.7558 16.6982 10.1489C17.4129 9.54236 17.9399 8.74471 18.2176 7.84942C18.5112 6.92219 18.506 5.92608 18.2025 5.00199L17.9843 4.33759C18.0608 4.36283 18.1319 4.40292 18.1933 4.4558C18.2718 4.52333 18.3319 4.60954 18.3682 4.70646L18.3692 4.70899C18.761 5.7376 18.793 6.86859 18.4599 7.91769ZM15.199 2.62556L15.6846 2.14C15.6968 2.22708 15.6905 2.31595 15.6661 2.4008C15.637 2.50162 15.583 2.59353 15.5092 2.6681C15.509 2.66832 15.5088 2.66853 15.5086 2.66875L12.6459 5.53039L12.6455 5.53084C12.4042 5.77268 12.2687 6.10036 12.2687 6.442C12.2687 6.78364 12.4042 7.11133 12.6455 7.35317L12.6454 7.35324L12.6528 7.36032C12.8963 7.59459 13.221 7.72545 13.5589 7.72545C13.8968 7.72545 14.2216 7.59459 14.4651 7.36032L14.4652 7.36039L14.4719 7.35368L17.3379 4.48968L17.3384 4.48911C17.4128 4.41457 17.5047 4.35995 17.6057 4.3303C17.6909 4.3053 17.7802 4.29871 17.8678 4.31076L17.374 4.80438L14.6513 7.526C14.3564 7.80554 13.9654 7.96143 13.5589 7.96143C13.1527 7.96143 12.7621 7.80577 12.4672 7.52661C12.1818 7.23785 12.0217 6.84816 12.0217 6.442C12.0217 6.03396 12.1833 5.64255 12.4712 5.35339C12.4713 5.35323 12.4715 5.35307 12.4716 5.35291L15.199 2.62556Z" fill="#0F1A1C" stroke="#0F1A1C"/>
</svg>
