<svg width="20" height="20" viewBox="0 0 20 20" fill="none" xmlns="http://www.w3.org/2000/svg">
<path d="M19 8.50001H19.5V13.5H19H18.5V14V15.3742C18.4991 15.9378 18.2749 16.478 17.8764 16.8764C17.478 17.2749 16.9378 17.4992 16.3742 17.5H2.62576C2.06224 17.4992 1.52204 17.2749 1.12357 16.8764C0.725178 16.4781 0.50095 15.938 0.5 15.3746V6.62623C0.501997 6.23955 0.610717 5.86093 0.814187 5.5321L0.889 5.41119V5.26901V4.94701V4.91245L0.884247 4.87823C0.817221 4.39559 0.941852 3.90589 1.23145 3.51401C1.52105 3.12213 1.95258 2.85924 2.43364 2.78162L2.43385 2.78159L14.4568 0.83659L14.457 0.836568C14.6987 0.797391 14.9458 0.806233 15.1841 0.862589C15.4225 0.918946 15.6473 1.02171 15.8459 1.16501C16.0445 1.30832 16.2129 1.48935 16.3415 1.69776C16.4701 1.90617 16.5564 2.13788 16.5954 2.37965L16.5955 2.38044L16.9065 4.28844L16.9508 4.56031L17.2043 4.66812C17.5883 4.83146 17.9159 5.10408 18.1463 5.45208C18.3766 5.80007 18.4996 6.2081 18.5 6.62544V8.00001V8.50001H19ZM1.41961 3.68112L1.40688 3.69901L1.39577 3.71795C1.34269 3.8084 1.29885 3.90396 1.26491 4.0032L0.922085 5.00553L1.91379 4.63309C2.14201 4.54738 2.38348 4.50234 2.62724 4.50001H16.1H16.6882L16.5935 3.91946L16.3487 2.42016C16.3487 2.41982 16.3486 2.41948 16.3486 2.41914C16.315 2.20991 16.2406 2.00934 16.1294 1.82892C16.0181 1.6482 15.8722 1.49124 15.7001 1.36706C15.5279 1.24287 15.333 1.1539 15.1263 1.10526C14.9199 1.05666 14.7059 1.04927 14.4967 1.0835C14.4965 1.08353 14.4963 1.08356 14.4961 1.08359L2.47561 3.02803C2.47515 3.02811 2.47468 3.02818 2.47422 3.02825C2.26407 3.06137 2.06262 3.13606 1.88167 3.24797C1.70033 3.36012 1.54323 3.50739 1.41961 3.68112ZM18.25 15.3717V15.371V14V13.5H17.75H14C13.337 13.5 12.7011 13.2366 12.2322 12.7678C11.7634 12.2989 11.5 11.663 11.5 11C11.5 10.337 11.7634 9.70108 12.2322 9.23224C12.7011 8.7634 13.337 8.50001 14 8.50001H17.75H18.25V8.00001V6.62501V6.62428C18.2493 6.12741 18.0516 5.6511 17.7002 5.29977C17.3489 4.94843 16.8726 4.75073 16.3757 4.75001H16.375L2.625 4.75001L2.62427 4.75001C2.12741 4.75073 1.6511 4.94843 1.29976 5.29977C0.948421 5.6511 0.750722 6.12741 0.75 6.62428V6.62501L0.749995 15.375L0.750005 15.3772C0.752165 15.8731 0.950499 16.348 1.30168 16.6982C1.65286 17.0483 2.12835 17.2453 2.62428 17.246H2.625H16.375H16.3757C16.8726 17.2453 17.3489 17.0476 17.7002 16.6962C18.0516 16.3449 18.2493 15.8686 18.25 15.3717ZM19.25 13.246V12.746V9.24601V8.74601H18.75H14C13.4033 8.74601 12.831 8.98306 12.409 9.40502C11.9871 9.82697 11.75 10.3993 11.75 10.996C11.75 11.5927 11.9871 12.165 12.409 12.587C12.831 13.009 13.4033 13.246 14 13.246H18.75H19.25Z" fill="#0F1A1C" stroke="#0F1A1C"/>
<path d="M15.2549 11.036C15.2549 11.4502 14.9191 11.786 14.5049 11.786C14.0907 11.786 13.7549 11.4502 13.7549 11.036C13.7549 10.6218 14.0907 10.286 14.5049 10.286C14.9191 10.286 15.2549 10.6218 15.2549 11.036Z" fill="#0F1A1C" stroke="#0F1A1C"/>
</svg>
