<svg width="20" height="20" viewBox="0 0 20 20" fill="none" xmlns="http://www.w3.org/2000/svg">
<path d="M19.932 7.68098C19.9326 7.83092 19.9034 7.9795 19.8461 8.11805C19.7887 8.2566 19.7044 8.38235 19.598 8.48798L18.933 9.15298C18.6164 9.45977 18.2123 9.66056 17.7766 9.72757C17.3409 9.79457 16.8951 9.72448 16.501 9.52698L14.471 11.557L8.44197 5.52898L10.473 3.49998C10.2691 3.10738 10.1955 2.66011 10.2627 2.22289C10.33 1.78567 10.5346 1.38119 10.847 1.06798L11.512 0.399978C11.7241 0.187544 12.0118 0.0678078 12.312 0.0669783C12.4626 0.0660275 12.6119 0.09497 12.7513 0.15213C12.8907 0.20929 13.0174 0.293532 13.124 0.399978L19.6 6.87598C19.7059 6.98147 19.7898 7.10695 19.8468 7.24515C19.9038 7.38335 19.9327 7.53149 19.932 7.68098ZM1.59997 2.48698L6.27497 7.15998C5.92208 7.06113 5.54955 7.0558 5.19398 7.14451C4.83842 7.23323 4.51205 7.41294 4.24697 7.66598L3.58297 8.32998C3.47699 8.43585 3.39292 8.56157 3.33556 8.69996C3.2782 8.83834 3.24867 8.98668 3.24867 9.13648C3.24867 9.28628 3.2782 9.43461 3.33556 9.573C3.39292 9.71138 3.47699 9.8371 3.58297 9.94298L6.11297 12.473L0.292969 18.293L1.70797 19.707L7.52697 13.887L10.058 16.417C10.1626 16.5227 10.2872 16.6067 10.4245 16.6641C10.5619 16.7214 10.7092 16.7509 10.858 16.751C11.0067 16.7508 11.1539 16.7213 11.2911 16.6641C11.4284 16.607 11.5531 16.5233 11.658 16.418L12.323 15.753C12.5169 15.5603 12.6707 15.3311 12.7754 15.0786C12.8801 14.8261 12.9337 14.5553 12.933 14.282C12.9318 14.1051 12.9086 13.9291 12.864 13.758L17.513 18.4L18.397 17.516L2.48597 1.59998L1.59997 2.48698Z" fill="#0F1A1C"/>
</svg>
