<svg width="20" height="20" viewBox="0 0 20 20" fill="none" xmlns="http://www.w3.org/2000/svg">
<path d="M15.175 13.1109C14.938 13.5719 14.747 13.7109 14.661 13.7369L14.528 13.7019C14.089 13.4639 13.25 11.6719 13.25 8.50188C13.25 5.55288 13.979 3.78388 14.434 3.35788L14.679 3.27088C14.774 3.31288 14.955 3.46288 15.179 3.89088L15.463 4.44688L16.576 3.87688L16.291 3.32088C15.75 2.26388 15.121 2.02088 14.673 2.00488H14.629C14.3608 2.00775 14.0991 2.08758 13.875 2.23488L3.7 5.85188C2.785 5.29988 1.853 4.86088 1.09 5.27288C0.237 5.73388 0.044 6.97988 0 8.99988C0.047 10.9999 0.24 12.2449 1.093 12.6999C1.876 13.1229 2.847 12.6399 3.793 12.0629C4.081 12.1629 4.478 12.2809 5.017 12.4329V16.7799C5.01726 17.0771 5.13545 17.3621 5.34563 17.5723C5.5558 17.7824 5.84077 17.9006 6.138 17.9009H8.888C9.18532 17.9006 9.4704 17.7825 9.68073 17.5723C9.89106 17.3622 10.0095 17.0772 10.01 16.7799V13.7799L14.038 14.8549C14.2213 14.9426 14.4218 14.9887 14.625 14.9899C15.075 14.9899 15.725 14.7599 16.286 13.6709L16.571 13.1149L15.458 12.5449L15.175 13.1109ZM3.293 10.9109C2.046 11.6919 1.747 11.6439 1.686 11.6109C1.6 11.5599 1.3 11.2279 1.25 8.99988C1.299 6.74988 1.595 6.41788 1.684 6.36988C1.748 6.33688 2.045 6.28888 3.294 7.06988C3.37382 7.11962 3.46385 7.15067 3.55736 7.16071C3.65087 7.17076 3.74544 7.15953 3.834 7.12788L12.672 3.98188C12.2004 5.44052 11.9733 6.96713 12 8.49988C11.9658 10.1083 12.2212 11.7098 12.754 13.2279L3.79 10.8339C3.70662 10.8109 3.61939 10.8056 3.53383 10.8182C3.44827 10.8307 3.36626 10.8609 3.293 10.9069V10.9109ZM6.263 16.6629V12.7859C6.941 12.9699 7.77 13.1909 8.763 13.4559V16.6559L6.263 16.6629ZM19.25 7.99988V9.24988H16V7.99988H19.25ZM15.773 5.32588L18.593 3.73188L19.208 4.81988L16.389 6.41388L15.773 5.32588ZM16.389 10.5859L19.208 12.1799L18.593 13.2679L15.773 11.6739L16.389 10.5859Z" fill="#0F1A1C"/>
</svg>
