<svg width="20" height="20" viewBox="0 0 20 20" fill="none" xmlns="http://www.w3.org/2000/svg">
<path d="M14 9.62498V18.375C13.9995 18.8058 13.8281 19.2188 13.5235 19.5234C13.2188 19.8281 12.8058 19.9995 12.375 20H3.625C3.19419 19.9995 2.78117 19.8281 2.47654 19.5234C2.1719 19.2188 2.00053 18.8058 2 18.375V9.62498C2.00053 9.19417 2.1719 8.78115 2.47654 8.47652C2.78117 8.17188 3.19419 8.00051 3.625 7.99998H12.375C12.8058 8.00051 13.2188 8.17188 13.5235 8.47652C13.8281 8.78115 13.9995 9.19417 14 9.62498ZM13.205 2.99998H9.869V1.35398C9.86896 1.23708 9.8356 1.1226 9.77283 1.02398C9.71006 0.925359 9.62048 0.846669 9.51459 0.797135C9.4087 0.7476 9.29088 0.729272 9.17495 0.744299C9.05901 0.759326 8.94976 0.807085 8.86 0.88198L5.7 3.51598C5.63077 3.57383 5.5751 3.64618 5.53691 3.72791C5.49872 3.80964 5.47895 3.89877 5.479 3.98898L5.52 4.31198L8.859 7.09998C8.97024 7.19165 9.10986 7.24185 9.254 7.24198C9.34384 7.24269 9.43269 7.22321 9.514 7.18498C9.61995 7.13515 9.70957 7.05625 9.77242 6.95746C9.83527 6.85868 9.86876 6.74407 9.869 6.62698V4.99998H13.205C14.212 5.00131 15.1772 5.40225 15.8888 6.11474C16.6003 6.82724 17 7.79302 17 8.79998V12H19V8.79998C19 7.26259 18.3896 5.78809 17.303 4.70053C16.2164 3.61296 14.7424 3.00131 13.205 2.99998Z" fill="#0F1A1C"/>
</svg>
