<svg width="20" height="20" viewBox="0 0 20 20" fill="none" xmlns="http://www.w3.org/2000/svg">
<path d="M17.381 6H7.619C7.18978 6.00053 6.77829 6.17127 6.47478 6.47478C6.17127 6.77829 6.00053 7.18978 6 7.619V17.381C6.00053 17.8102 6.17127 18.2217 6.47478 18.5252C6.77829 18.8287 7.18978 18.9995 7.619 19H17.381C17.8102 18.9995 18.2217 18.8287 18.5252 18.5252C18.8287 18.2217 18.9995 17.8102 19 17.381V7.619C18.9995 7.18978 18.8287 6.77829 18.5252 6.47478C18.2217 6.17127 17.8102 6.00053 17.381 6ZM9.5 10.763C9.2502 10.763 9.00601 10.6889 8.79832 10.5501C8.59062 10.4114 8.42873 10.2141 8.33314 9.98333C8.23755 9.75255 8.21254 9.4986 8.26127 9.2536C8.31 9.0086 8.43029 8.78356 8.60692 8.60692C8.78356 8.43029 9.0086 8.31 9.2536 8.26127C9.4986 8.21254 9.75255 8.23755 9.98333 8.33314C10.2141 8.42873 10.4114 8.59062 10.5501 8.79832C10.6889 9.00601 10.763 9.2502 10.763 9.5C10.7627 9.83489 10.6296 10.156 10.3928 10.3928C10.156 10.6296 9.83489 10.7627 9.5 10.763ZM12.5 13.763C12.2502 13.763 12.006 13.6889 11.7983 13.5501C11.5906 13.4114 11.4287 13.2141 11.3331 12.9833C11.2375 12.7525 11.2125 12.4986 11.2613 12.2536C11.31 12.0086 11.4303 11.7836 11.6069 11.6069C11.7836 11.4303 12.0086 11.31 12.2536 11.2613C12.4986 11.2125 12.7525 11.2375 12.9833 11.3331C13.2141 11.4287 13.4114 11.5906 13.5501 11.7983C13.6889 12.006 13.763 12.2502 13.763 12.5C13.7627 12.8349 13.6296 13.156 13.3928 13.3928C13.156 13.6296 12.8349 13.7627 12.5 13.763ZM15.408 16.671C15.1582 16.6712 14.9139 16.5973 14.706 16.4586C14.4982 16.32 14.3362 16.1228 14.2404 15.892C14.1447 15.6613 14.1195 15.4073 14.1681 15.1622C14.2168 14.9172 14.337 14.692 14.5136 14.5153C14.6902 14.3385 14.9152 14.2182 15.1602 14.1693C15.4053 14.1205 15.6593 14.1455 15.8901 14.241C16.1209 14.3366 16.3183 14.4985 16.4571 14.7062C16.5959 14.9139 16.67 15.1582 16.67 15.408C16.6701 15.5738 16.6376 15.738 16.5742 15.8913C16.5109 16.0445 16.4179 16.1837 16.3007 16.301C16.1835 16.4183 16.0444 16.5114 15.8912 16.5748C15.738 16.6383 15.5738 16.671 15.408 16.671ZM11.369 1H2.631C2.19842 1.00053 1.78373 1.17267 1.47794 1.47865C1.17215 1.78462 1.00026 2.19942 1 2.632V11.368C1.00026 11.8006 1.17215 12.2154 1.47794 12.5214C1.78373 12.8273 2.19842 12.9995 2.631 13H4.031H4.625V10.05C4.50048 10.3074 4.29231 10.5149 4.03453 10.6386C3.77675 10.7624 3.48462 10.795 3.20591 10.7311C2.92721 10.6672 2.67842 10.5107 2.50024 10.287C2.32207 10.0634 2.22504 9.78593 2.22504 9.5C2.22504 9.21407 2.32207 8.9366 2.50024 8.71297C2.67842 8.48934 2.92721 8.33279 3.20591 8.26891C3.48462 8.20504 3.77675 8.23763 4.03453 8.36135C4.29231 8.48507 4.50048 8.6926 4.625 8.95V7.619C4.62659 6.82543 4.94253 6.06481 5.50367 5.50367C6.06481 4.94253 6.82543 4.62659 7.619 4.625H8.952C8.6946 4.50048 8.48707 4.29231 8.36335 4.03453C8.23963 3.77675 8.20704 3.48462 8.27091 3.20591C8.33479 2.92721 8.49134 2.67842 8.71497 2.50024C8.9386 2.32207 9.21607 2.22504 9.502 2.22504C9.78793 2.22504 10.0654 2.32207 10.289 2.50024C10.5127 2.67842 10.6692 2.92721 10.7331 3.20591C10.797 3.48462 10.7644 3.77675 10.6406 4.03453C10.5169 4.29231 10.3094 4.50048 10.052 4.625H13V2.632C12.9997 2.19942 12.8278 1.78462 12.5221 1.47865C12.2163 1.17267 11.8016 1.00053 11.369 1ZM3.5 4.763C3.2502 4.763 3.00601 4.68893 2.79831 4.55015C2.59062 4.41137 2.42873 4.21411 2.33314 3.98333C2.23755 3.75255 2.21254 3.4986 2.26127 3.2536C2.31 3.0086 2.43029 2.78356 2.60692 2.60692C2.78356 2.43029 3.0086 2.31 3.2536 2.26127C3.4986 2.21254 3.75255 2.23755 3.98333 2.33314C4.21411 2.42873 4.41137 2.59062 4.55015 2.79831C4.68893 3.00601 4.763 3.2502 4.763 3.5C4.76274 3.83489 4.62958 4.15598 4.39278 4.39278C4.15598 4.62958 3.83489 4.76274 3.5 4.763Z" fill="#0F1A1C"/>
</svg>
