<svg width="20" height="20" viewBox="0 0 20 20" fill="none" xmlns="http://www.w3.org/2000/svg">
<g clip-path="url(#clip0_609_338)">
<path d="M2.774 6.562L0.97 5.7C1.28958 5.03079 1.68267 4.39923 2.142 3.817L3.712 5.055C3.34468 5.52118 3.03009 6.02659 2.774 6.562ZM2.195 8.236L0.244 7.8C0.0818948 8.52211 6.50836e-05 9.25992 0 10H2C1.99966 9.4066 2.06505 8.81499 2.195 8.236ZM3.695 2.236L4.956 3.79C5.41557 3.41558 5.9157 3.0939 6.447 2.831L5.559 1.039C4.89462 1.36836 4.26908 1.77085 3.694 2.239L3.695 2.236ZM16.129 4.858L17.66 3.572C17.1844 3.00516 16.6478 2.4924 16.06 2.043L14.847 3.633C15.3175 3.99366 15.7473 4.4044 16.129 4.858ZM17.746 7.991L19.682 7.491C19.4953 6.77386 19.2297 6.07962 18.89 5.421L17.112 6.337C17.3841 6.8631 17.5967 7.41785 17.746 7.991ZM10.38 17.991L10.474 19.991C11.2147 19.9568 11.9492 19.84 12.664 19.643L12.133 17.715C11.5607 17.8716 10.9728 17.9642 10.38 17.991ZM16.443 14.742L18.051 15.931C18.492 15.3344 18.8649 14.6904 19.163 14.011L17.331 13.211C17.0928 13.7527 16.7949 14.2662 16.443 14.742ZM13.777 17.054L14.725 18.816C15.3771 18.4649 15.9888 18.0434 16.549 17.559L15.238 16.047C14.79 16.436 14.3 16.7737 13.777 17.054ZM20 9.684L18 9.745V10C18.0002 10.5088 17.9519 11.0164 17.856 11.516L19.821 11.892C19.9396 11.2683 19.9995 10.6349 20 10V9.684ZM7.643 0.28L8.113 2.224C8.69 2.08495 9.28056 2.00983 9.874 2L9.841 0C9.10025 0.0119443 8.36309 0.105849 7.643 0.28ZM12.043 0.21L11.637 2.168C12.217 2.28865 12.7815 2.47415 13.32 2.721L14.156 0.9C13.4809 0.592139 12.7735 0.360702 12.047 0.21H12.043ZM1.371 11.112C1.22565 11.1591 1.09897 11.2511 1.00914 11.3747C0.919307 11.4983 0.870947 11.6472 0.871 11.8V16.361C0.871139 16.4756 0.898393 16.5885 0.950534 16.6905C1.00268 16.7925 1.07822 16.8808 1.171 16.948L1.521 17.148L4.559 16.136C4.66829 16.1 4.76745 16.0385 4.8483 15.9566C4.92914 15.8747 4.98937 15.7747 5.024 15.665L5.105 15.265L2.18 11.365C2.08855 11.2435 1.96131 11.1538 1.81619 11.1084C1.67107 11.063 1.51537 11.0643 1.371 11.112Z" fill="#0F1A1C"/>
</g>
<defs>
<clipPath id="clip0_609_338">
<rect width="20" height="20" fill="white"/>
</clipPath>
</defs>
</svg>
