<svg width="20" height="20" viewBox="0 0 20 20" fill="none" xmlns="http://www.w3.org/2000/svg">
<path d="M18.5 7.9V4H19.5V7.89146C19.479 8.47987 19.2569 9.04339 18.8707 9.48796C18.4827 9.93449 17.9528 10.2338 17.3701 10.3354L17.37 10.3353L17.3582 10.3377L10.8547 11.6346C10.5055 11.6835 10.1825 11.848 9.93752 12.1021C9.68811 12.3609 9.53448 12.697 9.50204 13.0549L9.5 13.0774V13.1V13.125V13.4583L9.80769 13.5865C10.0127 13.672 10.1879 13.8162 10.3111 14.001C10.4343 14.1858 10.5 14.4029 10.5 14.625V17.3744C10.4996 17.6728 10.3809 17.9589 10.1699 18.1699C9.9589 18.3809 9.6728 18.4996 9.37439 18.5H8.62561C8.32684 18.4996 8.04043 18.3806 7.82936 18.1692C7.61828 17.9577 7.49982 17.6711 7.5 17.3723V17.372V14.622C7.5 14.3999 7.56574 14.1828 7.68894 13.998C7.81214 13.8132 7.98729 13.669 8.19231 13.5835L8.5 13.4553V13.122V13.1085C8.52098 12.5201 8.74306 11.9566 9.12932 11.512C9.51729 11.0655 10.0472 10.7662 10.6299 10.6646L10.63 10.6647L10.6418 10.6623L17.1453 9.36543C17.4945 9.31652 17.8175 9.152 18.0625 8.89786C18.3119 8.63914 18.4655 8.30303 18.498 7.94514L18.5 7.92261V7.9ZM15.8746 7.5H2.12544C1.9597 7.49959 1.80085 7.43357 1.68364 7.31636C1.56642 7.19913 1.50039 7.04026 1.5 6.87449V2.12551C1.50039 1.95974 1.56642 1.80087 1.68364 1.68364C1.80087 1.56642 1.95974 1.50039 2.12551 1.5H15.8745C16.0403 1.50039 16.1991 1.56642 16.3164 1.68364C16.4336 1.80085 16.4996 1.9597 16.5 2.12544C16.5 2.12559 16.5 2.12574 16.5 2.12589V6.87411C16.5 6.87426 16.5 6.87441 16.5 6.87456C16.4996 7.0403 16.4336 7.19915 16.3164 7.31636C16.1991 7.43357 16.0403 7.49959 15.8746 7.5Z" fill="#0F1A1C" stroke="#0F1A1C"/>
</svg>
