<svg width="20" height="20" viewBox="0 0 20 20" fill="none" xmlns="http://www.w3.org/2000/svg">
<path d="M11.991 10.625H1V9.375H11.991L10.058 7.442L10.942 6.558L13.942 9.558C14.0001 9.61604 14.0461 9.68495 14.0775 9.76079C14.1089 9.83662 14.1251 9.91791 14.1251 10C14.1251 10.0821 14.1089 10.1634 14.0775 10.2392C14.0461 10.3151 14.0001 10.384 13.942 10.442L10.942 13.442L10.058 12.558L11.991 10.625ZM15.375 1H5.625C4.92913 1.00106 4.26207 1.27796 3.77001 1.77001C3.27796 2.26207 3.00106 2.92913 3 3.625V4.417H4.25V3.625C4.25053 3.26049 4.39556 2.91106 4.65331 2.65331C4.91106 2.39556 5.26049 2.25053 5.625 2.25H15.375C15.7395 2.25053 16.0889 2.39556 16.3467 2.65331C16.6044 2.91106 16.7495 3.26049 16.75 3.625V16.375C16.7495 16.7395 16.6044 17.0889 16.3467 17.3467C16.0889 17.6044 15.7395 17.7495 15.375 17.75H5.625C5.26049 17.7495 4.91106 17.6044 4.65331 17.3467C4.39556 17.0889 4.25053 16.7395 4.25 16.375V15.583H3V16.375C3.00106 17.0709 3.27796 17.7379 3.77001 18.23C4.26207 18.722 4.92913 18.9989 5.625 19H15.375C16.0709 18.9989 16.7379 18.722 17.23 18.23C17.722 17.7379 17.9989 17.0709 18 16.375V3.625C17.9989 2.92913 17.722 2.26207 17.23 1.77001C16.7379 1.27796 16.0709 1.00106 15.375 1Z" fill="#0F1A1C"/>
</svg>
