<svg width="20" height="20" viewBox="0 0 20 20" fill="none" xmlns="http://www.w3.org/2000/svg">
<path d="M0.900391 8.5V9H3.50039L0.900391 8.5ZM0.900391 8.5H3.50039H3.50369L3.50368 8.50001C3.61416 8.50073 3.72286 8.47221 3.81875 8.41734C3.91462 8.36247 3.99426 8.28322 4.04959 8.18763C4.0496 8.1876 4.04962 8.18758 4.04963 8.18756L5.49274 5.6891C5.49284 5.68893 5.49294 5.68875 5.49305 5.68857C5.54763 5.59326 5.57634 5.48533 5.57634 5.3755C5.57634 5.26565 5.54762 5.15772 5.49303 5.0624C5.49294 5.06223 5.49284 5.06206 5.49274 5.06189L3.84327 2.20396L3.62642 2.32911L5.24042 5.12502L5.38472 5.37499L5.24042 5.62497L3.86942 7.99997L3.72509 8.25H3.43639H0.900391V8.5ZM16.2757 8.25L16.1314 7.99997L14.7604 5.62497L14.6161 5.37499L14.7604 5.12502L16.3744 2.32911L16.1575 2.20396L14.508 5.06189C14.508 5.06202 14.5079 5.06216 14.5078 5.06229C14.4532 5.15763 14.4244 5.26561 14.4244 5.3755C14.4244 5.48533 14.4532 5.59326 14.5077 5.68857C14.5078 5.68875 14.5079 5.68893 14.508 5.6891L15.9511 8.18755L16.2757 8.25ZM16.2757 8.25H16.5644M16.2757 8.25H16.5644M16.5644 8.25H19.0972M16.5644 8.25H19.0972M19.0972 8.25L19.0956 8.5H16.4926C16.3829 8.49994 16.2751 8.47105 16.1801 8.41621C16.0852 8.36144 16.0063 8.28272 15.9514 8.18791L19.0972 8.25ZM5.99966 10.0634L5.99894 10.0622C5.98807 10.0434 5.98235 10.0222 5.98235 10.0005C5.98235 9.97883 5.98807 9.95754 5.99894 9.9388L5.99966 9.93756L7.79953 6.81277C7.79954 6.81276 7.79955 6.81274 7.79956 6.81273C7.85436 6.71771 7.93321 6.63878 8.02818 6.58389C8.12317 6.52899 8.23093 6.50005 8.34064 6.5H11.6601C11.7698 6.50005 11.8776 6.52899 11.9726 6.58389C12.0676 6.63879 12.1464 6.71773 12.2013 6.81277L14.0011 9.93756L14.0018 9.9388C14.0127 9.95754 14.0184 9.97883 14.0184 10.0005C14.0184 10.0222 14.0127 10.0434 14.0018 10.0622L14.0011 10.0634L12.2016 13.1876C12.2016 13.1877 12.2015 13.1878 12.2014 13.1879C12.1465 13.2827 12.0676 13.3614 11.9727 13.4162C11.8776 13.471 11.7699 13.4999 11.6601 13.5H8.34064C8.23092 13.4999 8.12314 13.471 8.0281 13.4162C7.93318 13.3614 7.8543 13.2827 7.79934 13.1879C7.79928 13.1878 7.79921 13.1877 7.79915 13.1876L5.99966 10.0634ZM7.9804 13L8.12474 13.25H8.41339H11.5874H11.876L12.0204 13L13.6084 10.25L13.7528 10L13.6084 9.74996L12.0204 6.99996L11.876 6.75H11.5874H8.41339H8.12474L7.9804 6.99996L6.3924 9.74996L6.24801 10L6.3924 10.25L7.9804 13ZM4.04925 11.8128L4.04942 11.8131L5.49274 14.3119C5.49283 14.3121 5.49293 14.3122 5.49302 14.3124C5.54762 14.4077 5.57634 14.5156 5.57634 14.6255C5.57634 14.7353 5.54763 14.8432 5.49305 14.9386C5.49295 14.9387 5.49285 14.9389 5.49274 14.9391L3.84333 17.7961L3.62642 17.6709L5.24042 14.875L5.38472 14.625L5.24042 14.375L3.86942 12L3.72509 11.75H3.43639H0.900391V11.5H3.50814C3.61785 11.5001 3.72561 11.529 3.8206 11.5839C3.91558 11.6388 3.99444 11.7177 4.04925 11.8128ZM16.1644 17.7942L14.516 14.9391C14.516 14.939 14.5159 14.9388 14.5158 14.9387C14.4612 14.8433 14.4324 14.7354 14.4324 14.6255C14.4324 14.5157 14.4611 14.4078 14.5157 14.3125C14.5158 14.3123 14.5159 14.3121 14.516 14.3119L15.9594 11.8131L15.9595 11.8128C16.0143 11.7177 16.0932 11.6388 16.1882 11.5839C16.2832 11.529 16.3909 11.5001 16.5006 11.5H19.1004V11.746H16.5684H16.2797L16.1354 11.996L14.7644 14.371L14.6201 14.621L14.7644 14.871L16.3795 17.6688L16.1644 17.7942Z" fill="#0F1A1C" stroke="#0F1A1C"/>
</svg>
