<svg width="20" height="20" viewBox="0 0 20 20" fill="none" xmlns="http://www.w3.org/2000/svg">
<path d="M10.3062 8.021C10.1198 7.91285 9.91723 7.83552 9.7062 7.792C9.48987 7.74599 9.26936 7.72253 9.0482 7.722C8.65882 7.71356 8.27339 7.80151 7.9262 7.978C7.61585 8.13614 7.35654 8.3788 7.1782 8.678C7.00256 8.97447 6.91159 9.31343 6.9152 9.658V14.5H5.0542V6.092H6.8422V7.163H6.8812C7.19822 6.79451 7.59212 6.49994 8.0352 6.3C8.55767 6.06302 9.12662 5.94616 9.7002 5.958C9.98044 5.9542 10.2602 5.98204 10.5342 6.041C10.7164 6.07405 10.892 6.13653 11.0542 6.226L10.3062 8.021ZM8.6062 16.862L15.0002 1.416H16.5832L10.1662 16.862H8.6062Z" fill="#0F1A1C"/>
</svg>
