<svg width="20" height="20" viewBox="0 0 20 20" fill="none" xmlns="http://www.w3.org/2000/svg">
<path d="M17.375 5H16.753C17.1287 4.41862 17.2682 3.71573 17.143 3.03494C17.0179 2.35415 16.6375 1.74683 16.0797 1.33704C15.5218 0.927259 14.8285 0.74594 14.1415 0.830126C13.4544 0.914312 12.8254 1.25765 12.383 1.79L10 4.649L7.617 1.79C7.17457 1.25765 6.54558 0.914312 5.85852 0.830126C5.17146 0.74594 4.47819 0.927259 3.92032 1.33704C3.36245 1.74683 2.9821 2.35415 2.85695 3.03494C2.73181 3.71573 2.87133 4.41862 3.247 5H2.627C2.19566 5.00053 1.78213 5.17211 1.47712 5.47712C1.17211 5.78213 1.00053 6.19565 1 6.627V17.373C1.00053 17.8043 1.17211 18.2179 1.47712 18.5229C1.78213 18.8279 2.19566 18.9995 2.627 19H17.373C17.8043 18.9995 18.2179 18.8279 18.5229 18.5229C18.8279 18.2179 18.9995 17.8043 19 17.373V6.625C18.9995 6.19419 18.8281 5.78117 18.5235 5.47654C18.2188 5.1719 17.8058 5.00053 17.375 5ZM13.343 2.59C13.5361 2.35708 13.7963 2.18944 14.0882 2.11C14.3801 2.03055 14.6895 2.04317 14.9739 2.14612C15.2584 2.24908 15.5042 2.43735 15.6776 2.68522C15.851 2.9331 15.9437 3.22847 15.943 3.531C15.9425 3.92079 15.7873 4.29443 15.5114 4.56986C15.2356 4.84529 14.8618 5 14.472 5H11.334L13.343 2.59ZM4.059 3.531C4.0547 3.22801 4.14602 2.93138 4.31998 2.68328C4.49394 2.43517 4.74169 2.24822 5.028 2.149C5.19451 2.08915 5.37006 2.05837 5.547 2.058C5.76013 2.05742 5.97064 2.10496 6.16283 2.19708C6.35502 2.28919 6.52395 2.42351 6.657 2.59L8.666 5H5.528C5.13856 4.99947 4.76522 4.84453 4.48984 4.56916C4.21447 4.29378 4.05953 3.92044 4.059 3.531ZM17.75 17.373C17.75 17.473 17.7103 17.5689 17.6396 17.6396C17.5689 17.7103 17.473 17.75 17.373 17.75H2.627C2.52701 17.75 2.43112 17.7103 2.36042 17.6396C2.28972 17.5689 2.25 17.473 2.25 17.373V6.627C2.25 6.52701 2.28972 6.43112 2.36042 6.36042C2.43112 6.28972 2.52701 6.25 2.627 6.25H17.375C17.4745 6.25 17.5698 6.28951 17.6402 6.35984C17.7105 6.43016 17.75 6.52554 17.75 6.625V17.373ZM10.625 11.373H14V12.623H10.625V16H9.375V12.625H6V11.375H9.375V8H10.625V11.373Z" fill="#0F1A1C"/>
</svg>
