<svg width="20" height="20" viewBox="0 0 20 20" fill="none" xmlns="http://www.w3.org/2000/svg">
<path d="M17.8214 17.5002L17.8214 17.5001H17.8096H2.18957V17.4999L2.1777 17.5002C1.82332 17.5086 1.47575 17.4021 1.18699 17.1965C0.898329 16.9909 0.683946 16.6975 0.575897 16.36C0.475651 16.0448 0.480205 15.7056 0.588882 15.3931C0.6976 15.0806 0.90467 14.8116 1.17907 14.6266L1.17914 14.6267L1.18846 14.6201L7.48035 10.1661L7.6246 10.3698L1.34164 14.8176C1.10783 14.9698 0.9299 15.1941 0.835065 15.4567C0.738638 15.7238 0.733578 16.0152 0.820677 16.2855L0.820666 16.2855L0.821718 16.2886C0.917755 16.5799 1.10675 16.8315 1.35968 17.0049C1.60876 17.1757 1.90626 17.2612 2.20776 17.2491H17.7984C18.0999 17.2612 18.3974 17.1757 18.6465 17.0049C18.8994 16.8315 19.0884 16.5799 19.1844 16.2886L19.1855 16.2853C19.2724 16.0154 19.2675 15.7243 19.1714 15.4575C19.0769 15.1949 18.8994 14.9705 18.666 14.818L11.1747 9.50914C11.1747 9.50913 11.1747 9.50912 11.1747 9.50911C10.3463 8.92194 9.58724 8.24274 8.91195 7.48451L8.91034 7.48272C8.19726 6.68978 7.79965 5.66301 7.7926 4.59679C7.80755 4.02926 8.04596 3.49048 8.45615 3.09772C8.86799 2.70338 9.41938 2.48841 9.98945 2.49995L9.99957 2.50016L10.0097 2.49995C10.5798 2.48841 11.1311 2.70338 11.543 3.09772C11.9535 3.49079 12.192 4.03012 12.2066 4.59813V4.71706H11.9566V4.59206V4.58191L11.9562 4.57177C11.946 4.32231 11.8868 4.07729 11.782 3.85072C11.6771 3.62415 11.5286 3.42047 11.3449 3.25133C11.1613 3.08218 10.9461 2.95089 10.7117 2.86495C10.4838 2.7814 10.2421 2.74231 9.99957 2.74974C9.75707 2.74231 9.51533 2.7814 9.28742 2.86495C9.05301 2.95089 8.83783 3.08218 8.65419 3.25133C8.47056 3.42047 8.32205 3.62415 8.21718 3.85072C8.1123 4.07729 8.0531 4.32231 8.04298 4.57177L8.04252 4.58297L8.04257 4.59418C8.04684 5.60091 8.42135 6.57085 9.09471 7.3192C9.75529 8.06391 10.4985 8.73101 11.3099 9.30763L11.3106 9.30809L18.8156 14.6231L18.8155 14.6232L18.8237 14.6287C19.0972 14.8144 19.3034 15.0837 19.4112 15.3962C19.5191 15.7087 19.523 16.0477 19.4224 16.3626C19.3139 16.6994 19.0995 16.9921 18.8111 17.1972C18.5226 17.4023 18.1754 17.5086 17.8214 17.5002Z" fill="#0F1A1C" stroke="#0F1A1C"/>
</svg>
