<svg width="20" height="20" viewBox="0 0 20 20" fill="none" xmlns="http://www.w3.org/2000/svg">
<g clip-path="url(#clip0_472_1128)">
<path d="M15.3091 2.062C14.3209 1.90823 13.3096 2.01801 12.3774 2.38024C11.4452 2.74247 10.6252 3.34433 10.0001 4.125C9.37457 3.34456 8.5543 2.7429 7.62201 2.38069C6.68973 2.01849 5.67841 1.90856 4.69008 2.062C3.31159 2.23447 2.05405 2.93582 1.1829 4.01799C0.311753 5.10016 -0.104832 6.47848 0.021081 7.862C0.512081 13.395 7.94208 17.981 9.42108 18.844C9.59514 18.9456 9.79306 18.9991 9.99458 18.9991C10.1961 18.9991 10.394 18.9456 10.5681 18.844C12.0531 17.981 19.4821 13.395 19.9731 7.862C20.0991 6.47924 19.6832 5.10159 18.8131 4.01955C17.943 2.93751 16.6867 2.23566 15.3091 2.062Z" fill="#0F1A1C"/>
</g>
<defs>
<clipPath id="clip0_472_1128">
<rect width="20" height="20" fill="white"/>
</clipPath>
</defs>
</svg>
