<svg width="20" height="20" viewBox="0 0 20 20" fill="none" xmlns="http://www.w3.org/2000/svg">
<g clip-path="url(#clip0_474_50)">
<path d="M10 20C8.02219 20 6.08879 19.4135 4.4443 18.3147C2.79981 17.2159 1.51809 15.6541 0.761209 13.8268C0.00433284 11.9996 -0.193701 9.98891 0.192152 8.0491C0.578004 6.10929 1.53041 4.32746 2.92894 2.92893C4.32746 1.53041 6.10929 0.578 8.0491 0.192148C9.98891 -0.193704 11.9996 0.00432903 13.8268 0.761205C15.6541 1.51808 17.2159 2.79981 18.3147 4.4443C19.4135 6.08879 20 8.02219 20 10C19.9971 12.6513 18.9426 15.1931 17.0679 17.0679C15.1931 18.9426 12.6513 19.9971 10 20ZM10 1.25C8.26942 1.25 6.57769 1.76318 5.13876 2.72464C3.69983 3.6861 2.57833 5.05267 1.91606 6.65152C1.25379 8.25037 1.08051 10.0097 1.41813 11.707C1.75575 13.4044 2.58911 14.9635 3.81282 16.1872C5.03653 17.4109 6.59563 18.2443 8.29296 18.5819C9.9903 18.9195 11.7496 18.7462 13.3485 18.0839C14.9473 17.4217 16.3139 16.3002 17.2754 14.8612C18.2368 13.4223 18.75 11.7306 18.75 10C18.7474 7.68017 17.8246 5.45611 16.1843 3.81574C14.5439 2.17537 12.3198 1.25265 10 1.25ZM10 15.125C8.98638 15.125 7.99551 14.8244 7.15271 14.2613C6.3099 13.6981 5.65302 12.8977 5.26512 11.9613C4.87722 11.0248 4.77573 9.99432 4.97348 9.00016C5.17123 8.00601 5.65934 7.09282 6.37608 6.37608C7.09283 5.65933 8.00601 5.17123 9.00017 4.97348C9.99432 4.77573 11.0248 4.87722 11.9613 5.26512C12.8977 5.65302 13.6981 6.3099 14.2613 7.1527C14.8244 7.9955 15.125 8.98637 15.125 10C15.1234 11.3587 14.583 12.6614 13.6222 13.6222C12.6614 14.5829 11.3588 15.1234 10 15.125ZM10 6.125C9.2336 6.125 8.48441 6.35227 7.84717 6.77806C7.20993 7.20385 6.71326 7.80904 6.41997 8.5171C6.12668 9.22517 6.04994 10.0043 6.19946 10.756C6.34898 11.5077 6.71804 12.1981 7.25997 12.74C7.80189 13.282 8.49235 13.651 9.24403 13.8005C9.99571 13.9501 10.7748 13.8733 11.4829 13.58C12.191 13.2867 12.7962 12.7901 13.2219 12.1528C13.6477 11.5156 13.875 10.7664 13.875 10C13.8739 8.97261 13.4653 7.98761 12.7389 7.26113C12.0124 6.53466 11.0274 6.12606 10 6.125Z" fill="#0F1A1C"/>
</g>
<defs>
<clipPath id="clip0_474_50">
<rect width="20" height="20" fill="white"/>
</clipPath>
</defs>
</svg>
