<svg width="20" height="20" viewBox="0 0 20 20" fill="none" xmlns="http://www.w3.org/2000/svg">
<g clip-path="url(#clip0_1581_869)">
<path d="M17.0359 17.1328L16.0999 16.2998L16.5169 15.8338C17.6433 14.5749 18.3811 13.0168 18.6414 11.3478C18.9017 9.67872 18.6733 7.97 17.9838 6.4279C17.2943 4.8858 16.1731 3.57625 14.7557 2.65735C13.3383 1.73845 11.6851 1.24948 9.99591 1.24948C8.30668 1.24948 6.65356 1.73845 5.23612 2.65735C3.81869 3.57625 2.69754 4.8858 2.00803 6.4279C1.31851 7.97 1.09012 9.67872 1.35042 11.3478C1.61071 13.0168 2.34857 14.5749 3.47491 15.8338L3.89991 16.2998L2.96791 17.1338L2.55091 16.6678C1.26379 15.229 0.420653 13.4484 0.123272 11.5409C-0.174109 9.63347 0.0869837 7.68072 0.875031 5.91839C1.66308 4.15606 2.94439 2.65951 4.56429 1.60939C6.18419 0.559275 8.07342 0.000488281 10.0039 0.000488281C11.9344 0.000488281 13.8236 0.559275 15.4435 1.60939C17.0634 2.65951 18.3447 4.15606 19.1328 5.91839C19.9208 7.68072 20.1819 9.63347 19.8846 11.5409C19.5872 13.4484 18.744 15.229 17.4569 16.6678L17.0359 17.1328ZM15.7419 13.8328C16.5156 12.7081 16.952 11.386 16.9999 10.0218C17.0379 9.11048 16.8907 8.20094 16.5669 7.34822C16.2432 6.4955 15.7498 5.71735 15.1166 5.06087C14.4834 4.40439 13.7236 3.88323 12.8831 3.52896C12.0426 3.17468 11.139 2.99466 10.2269 2.99978C8.35726 3.01423 6.56462 3.74649 5.21957 5.0452C3.87452 6.34391 3.07988 8.10978 2.99991 9.97778C2.94769 11.3242 3.29567 12.656 3.99991 13.8048L4.32791 14.3368L5.39991 13.6818L5.06991 13.1498C4.49478 12.2107 4.21083 11.1222 4.25391 10.0218C4.31951 8.4773 4.97596 7.01706 6.0876 5.94283C7.19924 4.8686 8.6811 4.26249 10.2269 4.24978C10.9716 4.24363 11.7097 4.38913 12.3963 4.6774C13.0829 4.96568 13.7037 5.39071 14.2208 5.9266C14.7379 6.46249 15.1404 7.09802 15.404 7.7945C15.6676 8.49098 15.7866 9.23382 15.7539 9.97778C15.7129 11.1044 15.3511 12.1958 14.7109 13.1238L14.3569 13.6388L15.3879 14.3468L15.7419 13.8328ZM12.9999 10.0448C12.9999 9.45144 12.824 8.87142 12.4943 8.37807C12.1647 7.88472 11.6961 7.50021 11.148 7.27314C10.5998 7.04608 9.99658 6.98667 9.41464 7.10243C8.8327 7.21818 8.29815 7.5039 7.87859 7.92346C7.45903 8.34302 7.17331 8.87757 7.05756 9.45951C6.9418 10.0415 7.00121 10.6447 7.22827 11.1928C7.45534 11.741 7.83985 12.2095 8.3332 12.5392C8.82655 12.8688 9.40657 13.0448 9.99991 13.0448C10.7956 13.0448 11.5586 12.7287 12.1212 12.1661C12.6838 11.6035 12.9999 10.8404 12.9999 10.0448ZM11.7499 10.0448C11.7509 10.3911 11.6491 10.7299 11.4574 11.0184C11.2657 11.3068 10.9928 11.5319 10.6731 11.6651C10.3534 11.7984 10.0014 11.8337 9.66158 11.7668C9.32178 11.6998 9.0095 11.5335 8.76425 11.289C8.51901 11.0444 8.35184 10.7326 8.28391 10.393C8.21598 10.0534 8.25035 9.70131 8.38265 9.38124C8.51496 9.06118 8.73925 8.78757 9.02715 8.59506C9.31504 8.40254 9.65358 8.29978 9.99991 8.29978C10.463 8.30031 10.9071 8.48416 11.235 8.81116C11.5629 9.13815 11.7481 9.58168 11.7499 10.0448ZM12.2829 18.9308L12.9739 15.5628C13.0116 15.3771 13.0074 15.1854 12.9618 15.0015C12.9161 14.8176 12.8301 14.6463 12.7099 14.4998C12.5813 14.3426 12.4192 14.2161 12.2355 14.1296C12.0518 14.0431 11.851 13.9987 11.6479 13.9998H8.34791C8.14483 13.9987 7.94407 14.0431 7.76033 14.1296C7.57659 14.2161 7.4145 14.3426 7.28591 14.4998C7.16546 14.6465 7.07926 14.8182 7.03359 15.0025C6.98792 15.1867 6.98393 15.3788 7.02191 15.5648L7.71291 18.9338C7.78187 19.2394 7.95369 19.512 8.19962 19.7061C8.44555 19.9001 8.75067 20.0038 9.06391 19.9998H10.9359C11.2489 20.0027 11.5534 19.8982 11.7986 19.7036C12.0437 19.509 12.2147 19.2362 12.2829 18.9308ZM11.6479 15.2498L11.7479 15.3118L11.0579 18.6788C11.0473 18.7019 11.0297 18.7211 11.0077 18.7338C10.9857 18.7465 10.9602 18.7521 10.9349 18.7498H9.06391C9.03872 18.7521 9.01343 18.7466 8.99145 18.7341C8.96946 18.7215 8.95183 18.7026 8.94091 18.6798L8.25091 15.3118L8.35091 15.2498H11.6479Z" fill="#0F1A1C"/>
</g>
<defs>
<clipPath id="clip0_1581_869">
<rect width="20" height="20" fill="white"/>
</clipPath>
</defs>
</svg>
