<svg width="21" height="20" viewBox="0 0 21 20" fill="none" xmlns="http://www.w3.org/2000/svg">
<path d="M16.1263 0C14.8607 0.0015877 13.6473 0.505071 12.7524 1.40003C11.8574 2.29498 11.3539 3.50834 11.3523 4.774C11.3593 4.98791 11.381 5.20109 11.4173 5.412L11.2803 5.274C11.1643 5.15903 11.025 5.07025 10.8718 5.01365C10.7186 4.95704 10.5551 4.93394 10.3922 4.94588C10.2293 4.95781 10.0708 5.00453 9.92752 5.08286C9.78421 5.1612 9.65934 5.26934 9.56134 5.4L1.45934 16.2C1.12579 16.6459 0.964131 17.197 1.00399 17.7524C1.04385 18.3078 1.28255 18.8303 1.67635 19.2239C2.07015 19.6176 2.59265 19.8561 3.14806 19.8958C3.70347 19.9355 4.25457 19.7737 4.70034 19.44L15.5003 11.34C15.631 11.242 15.739 11.1171 15.8172 10.9737C15.8954 10.8303 15.9418 10.6717 15.9534 10.5088C15.9649 10.3459 15.9414 10.1824 15.8843 10.0294C15.8271 9.87643 15.7378 9.73748 15.6223 9.622L15.4843 9.484C15.6959 9.52035 15.9098 9.54206 16.1243 9.549C16.757 9.55816 17.3852 9.44145 17.9724 9.20567C18.5596 8.96989 19.094 8.61974 19.5446 8.17557C19.9953 7.7314 20.3531 7.20208 20.5974 6.61838C20.8417 6.03468 20.9674 5.40824 20.9674 4.7755C20.9674 4.14276 20.8417 3.51632 20.5974 2.93262C20.3531 2.34892 19.9953 1.8196 19.5446 1.37543C19.094 0.931263 18.5596 0.58111 17.9724 0.345328C17.3852 0.109547 16.757 -0.00715748 16.1243 0.002L16.1263 0ZM3.95334 18.445C3.74738 18.6026 3.49118 18.68 3.2324 18.6629C2.97362 18.6458 2.72987 18.5352 2.54649 18.3519C2.3631 18.1685 2.25256 17.9247 2.23543 17.6659C2.2183 17.4072 2.29573 17.151 2.45334 16.945L10.4853 6.239L14.6603 10.415L3.95334 18.445ZM16.1263 8.3C15.4281 8.3 14.7456 8.09294 14.1651 7.70502C13.5845 7.31709 13.1321 6.76572 12.865 6.12064C12.5978 5.47556 12.528 4.76574 12.6642 4.08096C12.8005 3.39618 13.1368 2.7672 13.6306 2.27356C14.1244 1.77992 14.7535 1.4438 15.4383 1.30771C16.1231 1.17161 16.8329 1.24166 17.4779 1.50899C18.1229 1.77632 18.6742 2.22893 19.0619 2.80956C19.4497 3.3902 19.6565 4.07279 19.6563 4.771C19.655 5.70672 19.2827 6.60371 18.6209 7.26527C17.9592 7.92683 17.0621 8.29894 16.1263 8.3ZM8.94034 11.08L11.0163 9L11.8953 9.88L9.81934 11.96L8.94034 11.08Z" fill="#0F1A1C"/>
</svg>
