<svg width="20" height="20" viewBox="0 0 20 20" fill="none" xmlns="http://www.w3.org/2000/svg">
<path d="M5.81199 19C4.54765 18.9818 3.34126 18.4667 2.45361 17.5662C1.56597 16.6657 1.06836 15.452 1.06836 14.1875C1.06836 12.923 1.56597 11.7094 2.45361 10.8088C3.34126 9.90828 4.54765 9.39323 5.81199 9.375H14.187C14.8917 9.3752 15.5807 9.1664 16.1668 8.77501C16.7528 8.38363 17.2097 7.82723 17.4795 7.1762C17.7493 6.52516 17.82 5.80873 17.6826 5.11751C17.5453 4.42629 17.206 3.79133 16.7078 3.29293C16.2095 2.79454 15.5746 2.4551 14.8835 2.31754C14.1923 2.17998 13.4758 2.25048 12.8247 2.52012C12.1736 2.78977 11.6171 3.24645 11.2255 3.8324C10.834 4.41836 10.625 5.10727 10.625 5.812V7.537H9.37499V5.812C9.37499 4.86004 9.65729 3.92945 10.1862 3.13794C10.7151 2.34642 11.4668 1.72953 12.3464 1.36527C13.2259 1.00102 14.1937 0.905765 15.1273 1.09156C16.061 1.27735 16.9186 1.73584 17.5916 2.40905C18.2647 3.08226 18.723 3.93995 18.9086 4.87365C19.0942 5.80734 18.9988 6.77511 18.6343 7.65455C18.2699 8.53399 17.6528 9.28561 16.8612 9.81435C16.0696 10.3431 15.139 10.6252 14.187 10.625H5.81199C5.10729 10.625 4.41842 10.834 3.83249 11.2255C3.24656 11.617 2.78988 12.1734 2.5202 12.8245C2.25053 13.4756 2.17997 14.192 2.31745 14.8831C2.45493 15.5743 2.79427 16.2091 3.29256 16.7074C3.79086 17.2057 4.42572 17.5451 5.11688 17.6825C5.80803 17.82 6.52443 17.7495 7.17549 17.4798C7.82654 17.2101 8.383 16.7534 8.77451 16.1675C9.16602 15.5816 9.37499 14.8927 9.37499 14.188V12.463H10.625V14.188C10.6234 15.4639 10.1158 16.6871 9.21348 17.5892C8.31118 18.4913 7.08789 18.9987 5.81199 19Z" fill="#0F1A1C"/>
</svg>
