<svg width="20" height="20" viewBox="0 0 20 20" fill="none" xmlns="http://www.w3.org/2000/svg">
<path d="M17.875 13H8.125C7.82671 12.9997 7.54072 12.8811 7.3298 12.6702C7.11888 12.4593 7.00026 12.1733 7 11.875V2.125C7.00053 1.82679 7.11923 1.54095 7.33009 1.33009C7.54095 1.11922 7.82679 1.00053 8.125 1H17.875C18.1732 1.00053 18.459 1.11922 18.6699 1.33009C18.8808 1.54095 18.9995 1.82679 19 2.125V11.875C18.9997 12.1733 18.8811 12.4593 18.6702 12.6702C18.4593 12.8811 18.1733 12.9997 17.875 13ZM8.25 11.75H17.75V2.25H8.25V11.75ZM13 17.875V14.466H11.75V17.75H2.25V8.25H5.534V7H2.125C1.82679 7.00053 1.54095 7.11923 1.33009 7.33009C1.11922 7.54095 1.00053 7.82679 1 8.125V17.875C1.00053 18.1732 1.11922 18.459 1.33009 18.6699C1.54095 18.8808 1.82679 18.9995 2.125 19H11.875C12.1732 18.9995 12.459 18.8808 12.6699 18.6699C12.8808 18.459 12.9995 18.1732 13 17.875Z" fill="#0F1A1C"/>
</svg>
