<svg width="20" height="20" viewBox="0 0 20 20" fill="none" xmlns="http://www.w3.org/2000/svg">
<path d="M14.0002 9.948V5.048C14.0048 3.98132 13.5863 2.95633 12.8366 2.19758C12.0868 1.43884 11.0669 1.00819 10.0002 1C9.27831 1.00432 8.57115 1.20502 7.95457 1.5806C7.338 1.95618 6.83526 2.49248 6.50025 3.132L13.9382 10.57C13.9747 10.3645 13.9954 10.1566 14.0002 9.948Z" fill="#0F1A1C"/>
<path d="M15.0002 10V10.4C14.9959 10.7648 14.9445 11.1274 14.8472 11.479L16.4072 13.039C16.7961 12.2135 16.9986 11.3125 17.0002 10.4V10H15.0002Z" fill="#0F1A1C"/>
<path d="M2.65625 4.47L6.00025 7.814V9.948C5.99466 11.0154 6.41263 12.0414 7.1625 12.801C7.91236 13.5606 8.9329 13.9918 10.0002 14C10.6119 13.9989 11.2145 13.8522 11.7583 13.572L12.5312 14.345C11.7573 14.7759 10.886 15.0014 10.0002 15C8.72818 15.0493 7.48828 14.5932 6.55142 13.7313C5.61456 12.8694 5.05689 11.6718 5.00025 10.4V10H3.00025V10.4C3.04349 12.0289 3.67494 13.5871 4.77788 14.7865C5.88083 15.986 7.38069 16.7456 9.00025 16.925V18H7.58025V20H12.4202V18H11.0002V16.925C12.0652 16.7745 13.0829 16.387 13.9782 15.791L15.3842 17.2L16.8002 15.784L4.07025 3.056L2.65625 4.47Z" fill="#0F1A1C"/>
</svg>
