<svg width="20" height="20" viewBox="0 0 20 20" fill="none" xmlns="http://www.w3.org/2000/svg">
<path d="M18.854 5.5001V5.50015L18.8607 5.50006C19.0277 5.49782 19.1887 5.56186 19.3086 5.67815C19.4276 5.7936 19.4963 5.9512 19.5 6.11685V11.8227L19.4412 12.1643C19.2682 13.1702 18.7058 14.0674 17.8759 14.6615L17.8759 14.6615L17.8722 14.6643C17.1228 15.2114 16.2181 15.5043 15.2903 15.5001L15.29 15.5001C14.79 15.4981 14.2932 15.4193 13.8171 15.2665C13.1844 15.0596 12.6131 14.6986 12.1547 14.2159C11.6964 13.7334 11.3653 13.1446 11.1911 12.5023C11.1541 12.3611 11.1244 12.218 11.1021 12.0738L11.1019 12.0725C11.0395 11.6751 10.9659 11.3246 10.8021 11.0832C10.704 10.9386 10.5728 10.8286 10.4074 10.7644C10.2579 10.7064 10.1105 10.6981 10 10.6981C9.8846 10.6981 9.73577 10.7113 9.58416 10.781C9.42428 10.8545 9.3044 10.9706 9.21516 11.1076C9.05946 11.3466 8.97332 11.692 8.89716 12.1081L8.89685 12.1099C8.87103 12.2539 8.84939 12.3662 8.82741 12.4512C8.54129 13.4628 7.88703 14.3308 6.99323 14.8844C6.09807 15.4389 5.02762 15.6378 3.99303 15.4418L3.99305 15.4417L3.98269 15.44C3.01593 15.2779 2.1371 14.7806 1.50029 14.0354C0.863985 13.2907 0.509904 12.346 0.5 11.3666V6.11688C0.503706 5.95122 0.572437 5.79361 0.691426 5.67815C0.81127 5.56186 0.972324 5.49782 1.1393 5.50006L1.1393 5.5001H1.146H18.854ZM1.385 11.7501H0.726833L0.903309 12.3842C1.10236 13.0993 1.50069 13.7432 2.05182 14.2405C2.60187 14.7369 3.28149 15.0669 4.01165 15.1923C4.97236 15.3723 5.96579 15.1943 6.8043 14.6919C7.64406 14.1887 8.27014 13.395 8.56395 12.4612L8.56844 12.4469L8.57207 12.4324C8.57804 12.4085 8.58191 12.3894 8.58441 12.3767L8.58757 12.3609L8.72639 11.7501H8.1H1.385ZM17.723 14.4694L18.6067 13.8403L18.4352 13.7974C18.7727 13.3835 19.0188 12.8981 19.1517 12.3727L19.3093 11.7501H18.667H11.9H11.4V12.2501V12.2601V12.3232L11.4157 12.3842C11.5726 12.9968 11.8812 13.56 12.313 14.022C12.7441 14.4832 13.284 14.8288 13.8834 15.027C14.5211 15.2456 15.2018 15.3093 15.8691 15.2126C16.5373 15.1158 17.1729 14.861 17.723 14.4694ZM18.75 11.5001H19.25V11.0001V9.2501V8.7501H18.75H1.25H0.75V9.2501V11.0001V11.5001H1.25H8.436H8.78403L8.90488 11.1737C8.98584 10.9551 9.13356 10.7675 9.3271 10.6376C9.52065 10.5077 9.75019 10.442 9.98317 10.4498L10.0054 10.4506L10.0277 10.4493C10.2634 10.4363 10.4971 10.4994 10.6942 10.6294C10.8913 10.7594 11.0414 10.9494 11.1222 11.1712L11.242 11.5001H11.592H18.75ZM0.75 8.0001V8.5001H1.25H18.75H19.25V8.0001V6.2501V5.7501H18.75H1.25H0.75V6.2501V8.0001Z" fill="#0F1A1C" stroke="#0F1A1C"/>
</svg>
