<svg width="20" height="20" viewBox="0 0 20 20" fill="none" xmlns="http://www.w3.org/2000/svg">
<path d="M4.444 10.625H0V9.375H4.444V10.625ZM20 9.375H15.556V10.625H20V9.375ZM10.625 0H9.375V4.444H10.625V0ZM10.625 15.556H9.375V20H10.625V15.556ZM5.5 13.319L4.875 12.236L1.027 14.459L1.652 15.541L5.5 13.319ZM18.973 5.541L18.348 4.459L14.5 6.681L15.125 7.764L18.973 5.541ZM7.763 4.876L5.541 1.027L4.459 1.652L6.681 5.5L7.763 4.876ZM15.541 18.348L13.318 14.5L12.236 15.125L14.459 18.974L15.541 18.348ZM18.973 14.459L15.124 12.236L14.5 13.319L18.349 15.541L18.973 14.459ZM5.5 6.681L1.652 4.459L1.027 5.541L4.876 7.764L5.5 6.681ZM7.763 15.124L6.682 14.5L4.459 18.348L5.541 18.973L7.763 15.124ZM15.541 1.652L14.459 1.027L12.236 4.876L13.318 5.501L15.541 1.652Z" fill="#0F1A1C"/>
</svg>
