<svg width="20" height="20" viewBox="0 0 20 20" fill="none" xmlns="http://www.w3.org/2000/svg">
<path d="M15.9542 6.89397C14.6972 6.38714 13.3546 6.12609 11.9992 6.12497C11.6602 6.12497 11.3262 6.15597 10.9922 6.18797C10.9793 6.03759 10.9546 5.88846 10.9182 5.74197C10.6974 4.98389 10.188 4.34267 9.49958 3.95601C8.81114 3.56935 7.99852 3.46808 7.23625 3.67397C6.85958 3.76626 6.50511 3.93274 6.19355 4.16366C5.88199 4.39458 5.61961 4.68531 5.42174 5.01884C5.22388 5.35237 5.0945 5.72201 5.04119 6.10613C4.98788 6.49026 5.01169 6.88116 5.11125 7.25597C5.21366 7.6263 5.3891 7.97242 5.62725 8.27397C4.7254 8.94577 3.94054 9.76172 3.30425 10.689C2.82768 10.3977 2.38058 10.0608 1.96925 9.68297C1.25078 9.02495 0.65546 8.24405 0.211246 7.37697C0.0736515 7.10528 0.00195313 6.80501 0.00195312 6.50047C0.00195313 6.19592 0.0736515 5.89565 0.211246 5.62397C0.965804 4.2143 2.09191 3.03813 3.46744 2.223C4.84296 1.40788 6.41541 0.984907 8.01425 0.999965C9.59068 0.976742 11.1437 1.38337 12.5064 2.17619C13.8692 2.96901 14.9903 4.11807 15.7492 5.49997C15.9747 5.92759 16.0471 6.41952 15.9542 6.89397ZM19.6082 14.494C19.111 15.4463 18.4315 16.2917 17.6082 16.982C15.9725 18.3381 13.9005 19.0551 11.7764 18.9999C9.65237 18.9448 7.62037 18.1212 6.05725 16.682C5.34895 16.0208 4.76384 15.239 4.32925 14.373C4.19507 14.1017 4.12527 13.8031 4.12527 13.5005C4.12527 13.1978 4.19507 12.8992 4.32925 12.628C5.05785 11.2253 6.15951 10.051 7.51285 9.2344C8.86618 8.41781 10.4187 7.99064 11.9992 7.99997C13.5568 7.9817 15.0893 8.39175 16.4296 9.18534C17.7699 9.97893 18.8664 11.1255 19.5992 12.5C19.7617 12.8064 19.8473 13.1476 19.8489 13.4944C19.8504 13.8411 19.7679 14.1831 19.6082 14.491V14.494ZM14.8492 12.742C14.7032 12.1761 14.3922 11.6664 13.9557 11.2776C13.5193 10.8889 12.9772 10.6386 12.3983 10.5586C11.8193 10.4786 11.2297 10.5725 10.7042 10.8284C10.1788 11.0843 9.74121 11.4905 9.44715 11.9956C9.15309 12.5007 9.0158 13.0818 9.05272 13.6651C9.08964 14.2484 9.29909 14.8075 9.65448 15.2715C10.0099 15.7355 10.4952 16.0833 11.0487 16.2709C11.6022 16.4585 12.199 16.4773 12.7632 16.325C13.1361 16.2277 13.486 16.0577 13.7929 15.8247C14.0998 15.5917 14.3576 15.3003 14.5514 14.9673C14.7453 14.6343 14.8714 14.2663 14.9225 13.8844C14.9736 13.5025 14.9487 13.1142 14.8492 12.742Z" fill="#0F1A1C"/>
</svg>
