<svg width="20" height="20" viewBox="0 0 20 20" fill="none" xmlns="http://www.w3.org/2000/svg">
<path d="M19.4928 1.61525C19.4341 1.54063 19.3592 1.48027 19.2738 1.4387C19.1884 1.39714 19.0948 1.37545 18.9998 1.37525H18.1228C15.4354 1.37485 12.7581 1.0454 10.1508 0.394251C10.0524 0.368583 9.94915 0.368583 9.8508 0.394251C7.24346 1.0454 4.56621 1.37485 1.8788 1.37525H0.999796C0.904844 1.37513 0.811116 1.39668 0.725752 1.43826C0.640387 1.47984 0.565638 1.54035 0.507196 1.61519C0.448754 1.69002 0.408162 1.77721 0.38851 1.87011C0.368859 1.963 0.370667 2.05916 0.393796 2.15125C1.04506 4.75856 1.37452 7.43583 1.3748 10.1233V13.9743C1.37612 15.057 1.80682 16.095 2.57243 16.8606C3.33805 17.6262 4.37606 18.0569 5.4588 18.0583C6.9648 18.0604 8.42702 18.5651 9.6138 19.4923C9.72403 19.5784 9.85991 19.6252 9.9998 19.6252C10.1397 19.6252 10.2756 19.5784 10.3858 19.4923C11.5726 18.5651 13.0348 18.0604 14.5408 18.0583C15.6235 18.0569 16.6615 17.6262 17.4272 16.8606C18.1928 16.095 18.6235 15.057 18.6248 13.9743V10.1233C18.6251 7.43583 18.9545 4.75856 19.6058 2.15125C19.6289 2.05919 19.6307 1.96308 19.6111 1.87021C19.5916 1.77734 19.5511 1.69015 19.4928 1.61525ZM17.3748 13.9743C17.374 14.7256 17.0752 15.446 16.5439 15.9773C16.0126 16.5086 15.2922 16.8075 14.5408 16.8083C12.9187 16.8107 11.3354 17.3047 9.9998 18.2253V9.50025H2.6078C2.56872 7.18685 2.29499 4.88338 1.7908 2.62525H1.8768C4.61398 2.62484 7.3412 2.29547 9.9998 1.64425V9.50025H17.3918C17.3918 9.70825 17.3748 9.91525 17.3748 10.1233V13.9743Z" fill="#0F1A1C"/>
</svg>
