<svg width="20" height="20" viewBox="0 0 20 20" fill="none" xmlns="http://www.w3.org/2000/svg">
<path d="M18.6352 6.72918L13.2702 1.36518C12.4025 0.497924 11.226 0.0107422 9.9992 0.0107422C8.77243 0.0107422 7.59587 0.497924 6.7282 1.36518L1.3642 6.72918C0.496948 7.59684 0.00976563 8.7734 0.00976562 10.0002C0.00976563 11.2269 0.496948 12.4035 1.3642 13.2712L6.7292 18.6362C7.597 19.5032 8.77351 19.9902 10.0002 19.9902C11.2269 19.9902 12.4034 19.5032 13.2712 18.6362L18.6352 13.2712C19.5025 12.4035 19.9896 11.2269 19.9896 10.0002C19.9896 8.7734 19.5025 7.59684 18.6352 6.72918ZM11.0862 15.3522C10.9754 15.5461 10.8162 15.708 10.6242 15.8222C10.4265 15.9417 10.1992 16.0034 9.9682 16.0002C9.74241 15.9989 9.52089 15.9385 9.32572 15.825C9.13055 15.7114 8.96854 15.5487 8.85584 15.3531C8.74314 15.1574 8.68368 14.9356 8.68339 14.7098C8.68311 14.484 8.742 14.2621 8.8542 14.0662C9.02678 13.7731 9.30801 13.56 9.63681 13.4732C9.9656 13.3863 10.3154 13.4326 10.6102 13.6022C10.8046 13.7129 10.9664 13.873 11.0792 14.0662C11.1953 14.2626 11.2554 14.487 11.2532 14.7152C11.2547 14.9385 11.1971 15.1583 11.0862 15.3522ZM12.8862 9.11318C12.7868 9.34686 12.6519 9.56375 12.4862 9.75618C12.2881 9.97587 12.0782 10.1845 11.8572 10.3812C11.6352 10.5812 11.4572 10.7532 11.3282 10.8952C11.1957 11.0395 11.0851 11.2026 11.0002 11.3792C10.9098 11.5693 10.8643 11.7777 10.8672 11.9882V12.5622H9.0382V11.9942C9.03208 11.6637 9.09545 11.3356 9.2242 11.0312C9.33158 10.776 9.47911 10.5397 9.6612 10.3312C9.86785 10.1072 10.089 9.89711 10.3232 9.70218C10.5232 9.52818 10.6732 9.38618 10.7822 9.27418C10.8904 9.16467 10.9827 9.04044 11.0562 8.90518C11.1288 8.7696 11.1663 8.61798 11.1652 8.46418C11.1667 8.2862 11.1144 8.11192 11.0152 7.96418C10.9128 7.8142 10.7719 7.69466 10.6072 7.61818C10.4313 7.53502 10.2388 7.49295 10.0442 7.49518C9.83343 7.49367 9.62546 7.54343 9.4382 7.64018C9.25923 7.7309 9.1064 7.86583 8.9942 8.03218C8.88201 8.20053 8.82121 8.39788 8.8192 8.60018H6.9272C6.93264 8.09035 7.07047 7.59068 7.3272 7.15018C7.58951 6.70643 7.96862 6.34323 8.4232 6.10018C8.93419 5.82834 9.50656 5.69265 10.0852 5.70618C10.6106 5.69782 11.1311 5.80788 11.6082 6.02818C12.0383 6.22421 12.4056 6.53577 12.6692 6.92818C12.9259 7.31852 13.0594 7.77703 13.0522 8.24418C13.0571 8.54237 12.9999 8.83831 12.8842 9.11318H12.8862Z" fill="#0F1A1C"/>
</svg>
