<svg width="20" height="20" viewBox="0 0 20 20" fill="none" xmlns="http://www.w3.org/2000/svg">
<path d="M11.8424 9.88624L11.8417 9.90493L11.8423 9.92362C11.8606 10.4414 11.741 10.9548 11.4957 11.4112C11.3047 11.7583 11.021 12.0456 10.6763 12.2411L10.6753 12.2417C10.3836 12.408 10.0547 12.4982 9.71895 12.504H8.773V7.42H9.72022C10.0589 7.42398 10.3919 7.50743 10.6924 7.66364L10.6929 7.66392C11.0302 7.83874 11.3101 8.10685 11.4993 8.43628C11.7437 8.87924 11.8624 9.38065 11.8424 9.88624ZM6.031 15.5H9.66125C10.5756 15.5025 11.4769 15.2821 12.2869 14.8579C13.1294 14.417 13.8315 13.7491 14.3139 12.9296L14.3139 12.9297L14.3163 12.9255C14.8463 12.005 15.112 10.9561 15.0842 9.89446C15.1184 8.82455 14.8382 7.76794 14.2781 6.85544L14.2782 6.8554L14.2738 6.84851C13.7629 6.04586 13.0325 5.40654 12.1693 5.00637L12.1684 5.00598C11.3266 4.61764 10.4097 4.41897 9.48263 4.424H6.031H5.531V4.924V15V15.5H6.031ZM18.5 5.62565V14.3744C18.4986 15.4681 18.0635 16.5167 17.2901 17.2901C16.5167 18.0635 15.4681 18.4986 14.3744 18.5H5.62565C4.53189 18.4986 3.48334 18.0635 2.70994 17.2901C1.93661 16.5167 1.5015 15.4683 1.5 14.3747V5.62533C1.5015 4.53169 1.93661 3.48327 2.70994 2.70994C3.48327 1.93661 4.53169 1.5015 5.62533 1.5H14.3747C15.4683 1.5015 16.5167 1.93661 17.2901 2.70994C18.0635 3.48334 18.4986 4.53189 18.5 5.62565Z" fill="#0F1A1C" stroke="#0F1A1C"/>
</svg>
