<svg width="20" height="20" viewBox="0 0 20 20" fill="none" xmlns="http://www.w3.org/2000/svg">
<g clip-path="url(#clip0_630_42)">
<path d="M9.99992 14C9.20879 14 8.43544 13.7654 7.77764 13.3259C7.11984 12.8864 6.60715 12.2616 6.3044 11.5307C6.00165 10.7998 5.92244 9.99556 6.07678 9.21964C6.23112 8.44371 6.61208 7.73098 7.17149 7.17157C7.7309 6.61216 8.44363 6.2312 9.21956 6.07686C9.99548 5.92252 10.7997 6.00173 11.5307 6.30448C12.2616 6.60723 12.8863 7.11992 13.3258 7.77772C13.7653 8.43552 13.9999 9.20887 13.9999 10C13.9999 11.0609 13.5785 12.0783 12.8283 12.8284C12.0782 13.5786 11.0608 14 9.99992 14ZM9.99992 7.25C9.45602 7.25 8.92434 7.41128 8.4721 7.71346C8.01987 8.01563 7.66739 8.44512 7.45925 8.94762C7.25111 9.45012 7.19665 10.003 7.30276 10.5365C7.40887 11.0699 7.67078 11.5599 8.05538 11.9445C8.43997 12.3291 8.92997 12.5911 9.46342 12.6972C9.99687 12.8033 10.5498 12.7488 11.0523 12.5407C11.5548 12.3325 11.9843 11.9801 12.2865 11.5278C12.5886 11.0756 12.7499 10.5439 12.7499 10C12.7494 9.27082 12.4595 8.57165 11.9439 8.05604C11.4283 7.54043 10.7291 7.25053 9.99992 7.25ZM17.3679 18H2.61792C1.92205 17.9989 1.25499 17.722 0.762933 17.23C0.270879 16.7379 -0.00602212 16.0709 -0.00708008 15.375V5.656C-0.00602212 4.96013 0.270879 4.29307 0.762933 3.80101C1.25499 3.30896 1.92205 3.03206 2.61792 3.031H5.00692L6.22292 1.454C6.33181 1.31278 6.47164 1.19843 6.63165 1.11972C6.79166 1.04101 6.9676 1.00006 7.14592 1H12.8849C13.06 1.00073 13.2327 1.04125 13.3898 1.11852C13.5469 1.19579 13.6844 1.30777 13.7919 1.446L15.0139 3.031H17.3689C18.0648 3.03179 18.7319 3.30864 19.2238 3.80078C19.7158 4.29292 19.9924 4.96014 19.9929 5.656V15.374C19.9921 16.07 19.7153 16.7374 19.2233 17.2296C18.7312 17.7219 18.064 17.9989 17.3679 18ZM2.61792 4.281C2.25341 4.28153 1.90398 4.42656 1.64623 4.68431C1.38848 4.94206 1.24345 5.29149 1.24292 5.656V15.375C1.24345 15.7395 1.38848 16.0889 1.64623 16.3467C1.90398 16.6044 2.25341 16.7495 2.61792 16.75H17.3679C17.7324 16.7495 18.0819 16.6044 18.3396 16.3467C18.5974 16.0889 18.7424 15.7395 18.7429 15.375V5.657C18.7429 5.2925 18.5982 4.94292 18.3405 4.68508C18.0829 4.42725 17.7334 4.28227 17.3689 4.282H14.3999L12.7999 2.209L7.14592 2.25L5.62192 4.281H2.61792Z" fill="#0F1A1C"/>
</g>
<defs>
<clipPath id="clip0_630_42">
<rect width="20" height="20" fill="white"/>
</clipPath>
</defs>
</svg>
