<svg width="20" height="20" viewBox="0 0 20 20" fill="none" xmlns="http://www.w3.org/2000/svg">
<path d="M19.7549 6.11945C18.397 3.5758 16.3143 1.49273 13.7709 0.134451C13.5523 0.0199654 13.3029 -0.0218823 13.0589 0.0149799C12.8149 0.0518421 12.5889 0.165496 12.4139 0.339451L6.43589 6.31745L4.34889 8.40045C3.95746 8.79395 3.73773 9.32642 3.73773 9.88145C3.73773 10.4365 3.95746 10.9689 4.34889 11.3625L4.89989 11.9135L1.02689 15.0134C0.726797 15.254 0.480777 15.555 0.304882 15.897C0.128988 16.239 0.0271707 16.6143 0.00607326 16.9983C-0.0150242 17.3823 0.0450719 17.7664 0.182441 18.1257C0.319811 18.4849 0.531367 18.8111 0.803309 19.083C1.07525 19.355 1.40147 19.5665 1.76068 19.7039C2.1199 19.8413 2.50404 19.9014 2.88804 19.8803C3.27205 19.8592 3.64729 19.7574 3.9893 19.5815C4.3313 19.4056 4.63238 19.1595 4.87289 18.8594L7.97289 14.9865L8.52389 15.5374C8.92256 15.919 9.45308 16.1319 10.0049 16.1319C10.5567 16.1319 11.0872 15.919 11.4859 15.5374L13.5729 13.4504L19.5499 7.47745C19.7243 7.3025 19.8383 7.07638 19.8752 6.83209C19.9121 6.58779 19.8699 6.3381 19.7549 6.11945ZM10.5999 14.6585C10.4394 14.8126 10.2254 14.8987 10.0029 14.8987C9.78035 14.8987 9.56643 14.8126 9.40589 14.6585L7.86789 13.1195L3.89989 18.0825C3.76922 18.2453 3.60568 18.3788 3.41995 18.4742C3.23422 18.5697 3.03047 18.6249 2.82197 18.6363C2.61347 18.6477 2.40491 18.615 2.20989 18.5404C2.01486 18.4658 1.83775 18.3509 1.6901 18.2032C1.54245 18.0556 1.42757 17.8785 1.35296 17.6835C1.27835 17.4884 1.24568 17.2799 1.25708 17.0714C1.26847 16.8629 1.32368 16.6591 1.41911 16.4734C1.51453 16.2877 1.64803 16.1241 1.81089 15.9935L6.77389 12.0215L5.23189 10.4834C5.07422 10.3248 4.98573 10.1101 4.98573 9.88645C4.98573 9.66275 5.07422 9.44813 5.23189 9.28945L6.87789 7.64445L12.2469 13.0125L10.5999 14.6585ZM13.1289 12.1285L7.76189 6.76045L13.2489 1.27245C15.5216 2.50332 17.3869 4.36925 18.6169 6.64245L13.1289 12.1285Z" fill="#0F1A1C"/>
</svg>
