<svg width="20" height="20" viewBox="0 0 20 20" fill="none" xmlns="http://www.w3.org/2000/svg">
<path d="M17.882 1H2.118C1.8214 1.00027 1.53703 1.11828 1.32739 1.3281C1.11776 1.53793 1 1.8224 1 2.119V17.881C1 18.1776 1.11776 18.4621 1.32739 18.6719C1.53703 18.8817 1.8214 18.9997 2.118 19H17.882C18.1786 18.9997 18.463 18.8817 18.6726 18.6719C18.8822 18.4621 19 18.1776 19 17.881V2.119C19 1.8224 18.8822 1.53793 18.6726 1.3281C18.463 1.11828 18.1786 1.00027 17.882 1ZM17.75 17.75H2.25V10.612H17.75V17.75ZM2.25 9.362V2.25H17.75V9.362H2.25Z" fill="#0F1A1C"/>
</svg>
