<svg width="20" height="20" viewBox="0 0 20 20" fill="none" xmlns="http://www.w3.org/2000/svg">
<path d="M6.75 8.5C6.75106 9.36163 7.09381 10.1877 7.70307 10.7969C8.31234 11.4062 9.13837 11.7489 10 11.75C10.6016 11.7484 11.1906 11.5779 11.7 11.258L7.242 6.8C6.92209 7.30944 6.75163 7.89845 6.75 8.5Z" fill="#0F1A1C"/>
<path d="M10 5.25C9.39845 5.25163 8.80944 5.42209 8.3 5.742L12.758 10.2C13.0779 9.69056 13.2484 9.10155 13.25 8.5C13.2489 7.63837 12.9062 6.81234 12.2969 6.20307C11.6877 5.59381 10.8616 5.25106 10 5.25Z" fill="#0F1A1C"/>
<path d="M16.377 1H3.623C2.92758 1.00079 2.26087 1.2774 1.76914 1.76914C1.2774 2.26087 1.00079 2.92758 1 3.623V13.423C1.00106 14.1063 1.27304 14.7613 1.75631 15.2444C2.23958 15.7275 2.89469 15.9992 3.578 16H7.012V18.664C7.01226 18.9596 7.12945 19.243 7.33798 19.4525C7.5465 19.662 7.82944 19.7804 8.125 19.782C8.41327 19.7781 8.68982 19.6673 8.901 19.471L12.331 16H16.377C17.0724 15.9992 17.7391 15.7226 18.2309 15.2309C18.7226 14.7391 18.9992 14.0724 19 13.377V3.623C18.9992 2.92758 18.7226 2.26087 18.2309 1.76914C17.7391 1.2774 17.0724 1.00079 16.377 1ZM10 13.25C9.06054 13.25 8.14218 12.9714 7.36104 12.4495C6.57991 11.9275 5.97109 11.1857 5.61157 10.3177C5.25206 9.4498 5.15799 8.49473 5.34127 7.57332C5.52455 6.65191 5.97694 5.80554 6.64124 5.14124C7.30554 4.47694 8.15191 4.02455 9.07332 3.84127C9.99473 3.65799 10.9498 3.75206 11.8177 4.11157C12.6857 4.47109 13.4275 5.07991 13.9495 5.86104C14.4714 6.64218 14.75 7.56054 14.75 8.5C14.7484 9.75929 14.2475 10.9665 13.357 11.857C12.4665 12.7475 11.2593 13.2484 10 13.25Z" fill="#0F1A1C"/>
</svg>
