<svg width="20" height="20" viewBox="0 0 20 20" fill="none" xmlns="http://www.w3.org/2000/svg">
<path d="M10.1291 4.5499L10.1291 4.55H10.139C11.0653 4.55 11.7197 4.78461 12.1326 5.12221C12.5359 5.45192 12.7506 5.91238 12.751 6.47436L12.751 6.47506C12.7518 6.86891 12.6335 7.2538 12.4116 7.57916C12.1897 7.90452 11.8745 8.15515 11.5075 8.2981L11.4829 8.30768L11.4595 8.3198C11.0651 8.52357 10.746 8.71565 10.5125 8.9453C10.2577 9.19596 10.1226 9.47266 10.0576 9.80073L10.048 9.8489V9.85691L10.0326 9.94471L10.0166 10.0361L10.0116 10.0648C9.99405 10.1292 9.96151 10.1886 9.91665 10.2381C9.8787 10.2744 9.83414 10.303 9.78538 10.3226C9.73407 10.3432 9.67916 10.3532 9.6239 10.3521L9.62391 10.352L9.61609 10.352C9.55255 10.3517 9.48953 10.3408 9.42965 10.3196C9.38295 10.2998 9.34056 10.2709 9.30487 10.2348L9.3048 10.2347C9.2217 10.1505 9.17453 10.0375 9.17304 9.9194C9.17615 9.83189 9.19484 9.74561 9.22824 9.66463L9.22839 9.66469L9.23302 9.65258C9.43417 9.12653 9.82353 8.69393 10.3256 8.43871L10.3353 8.43377L10.3448 8.4284C10.71 8.22221 11.0462 8.00972 11.2831 7.7298C11.544 7.42164 11.658 7.06713 11.658 6.642C11.658 6.22187 11.4741 5.84826 11.136 5.59402C10.8121 5.35038 10.3835 5.242 9.913 5.242H9.90284L9.89269 5.24241C9.14625 5.27276 8.42929 5.54203 7.84742 6.01056L7.84741 6.01054L7.84406 6.01329C7.7826 6.06366 7.7051 6.09032 7.62566 6.08841C7.54745 6.08654 7.47245 6.05711 7.41387 6.00538L7.3557 5.95079C7.31889 5.91501 7.29032 5.87162 7.272 5.82365C7.25341 5.77499 7.24582 5.72282 7.24978 5.67088C7.25373 5.61894 7.26914 5.56852 7.29488 5.52324C7.32062 5.47795 7.35606 5.43893 7.39867 5.40896L7.3987 5.409L7.40469 5.40465C8.19553 4.83068 9.15212 4.53056 10.1291 4.5499ZM13.376 15.5H13.1749L13.0298 15.6392L9.99608 18.5505L9.82364 18.3713L13.0799 15.25H15.379H15.3796C16.4057 15.2488 17.3895 14.8406 18.115 14.115C18.8406 13.3895 19.2488 12.4057 19.25 11.3796V11.379V5.621V5.62041C19.2488 4.59428 18.8406 3.61054 18.115 2.88496C17.3895 2.15938 16.4057 1.75122 15.3796 1.75H15.379L4.621 1.75L4.62041 1.75C3.59428 1.75122 2.61054 2.15938 1.88496 2.88496C1.15938 3.61054 0.751216 4.59428 0.75 5.62041V5.621L0.75 11.379L0.75 11.3796C0.751216 12.4057 1.15938 13.3895 1.88496 14.115C2.61054 14.8406 3.59428 15.2488 4.62041 15.25H4.621H7V15.5H4.62154C3.5288 15.4988 2.48116 15.0642 1.70847 14.2915C0.935855 13.5189 0.501251 12.4714 0.5 11.3787V5.62127C0.501251 4.52863 0.935855 3.48109 1.70847 2.70847C2.48109 1.93585 3.52863 1.50125 4.62127 1.5H15.3787C16.4714 1.50125 17.5189 1.93585 18.2915 2.70847C19.0642 3.48116 19.4988 4.5288 19.5 5.62154V11.3785C19.4988 12.4717 19.0638 13.5197 18.2906 14.2925C17.5174 15.0652 16.4691 15.4995 15.376 15.5C15.3759 15.5 15.3759 15.5 15.3758 15.5H13.376ZM9.72433 13.3646C9.6427 13.4196 9.54814 13.449 9.45079 13.45C9.31732 13.4483 9.1894 13.3965 9.09229 13.3051C9.00099 13.2095 8.94994 13.0823 8.94994 12.95C8.94994 12.8191 8.99987 12.6933 9.08928 12.5981C9.18688 12.5109 9.31332 12.4625 9.4445 12.4625C9.57683 12.4625 9.70434 12.5117 9.80228 12.6004C9.86957 12.6692 9.91561 12.756 9.93479 12.8504C9.95448 12.9473 9.945 13.0479 9.90754 13.1394C9.87007 13.2309 9.80632 13.3093 9.72433 13.3646Z" fill="#0F1A1C" stroke="#0F1A1C"/>
</svg>
