<svg width="20" height="20" viewBox="0 0 20 20" fill="none" xmlns="http://www.w3.org/2000/svg">
<path d="M7.819 9H2.181C1.8669 8.99894 1.56606 8.87321 1.34461 8.65045C1.12315 8.42768 0.999207 8.12611 1 7.812V2.188C0.999207 1.87389 1.12315 1.57232 1.34461 1.34955C1.56606 1.12679 1.8669 1.00106 2.181 1H7.819C8.13311 1.00106 8.43395 1.12679 8.6554 1.34955C8.87685 1.57232 9.0008 1.87389 9 2.188V7.812C9.0008 8.12611 8.87685 8.42768 8.6554 8.65045C8.43395 8.87321 8.13311 8.99894 7.819 9ZM2.249 7.75H7.819L7.75 2.188L2.181 2.25L2.249 7.75ZM17.819 9H12.181C11.8669 8.99894 11.5661 8.87321 11.3446 8.65045C11.1232 8.42768 10.9992 8.12611 11 7.812V2.188C10.9992 1.87389 11.1232 1.57232 11.3446 1.34955C11.5661 1.12679 11.8669 1.00106 12.181 1H17.819C18.1331 1.00106 18.4339 1.12679 18.6554 1.34955C18.8769 1.57232 19.0008 1.87389 19 2.188V7.812C19.0008 8.12611 18.8769 8.42768 18.6554 8.65045C18.4339 8.87321 18.1331 8.99894 17.819 9ZM12.25 2.249V7.812L17.819 7.75L17.75 2.188L12.25 2.249ZM7.819 19H2.181C1.8669 18.9989 1.56606 18.8732 1.34461 18.6504C1.12315 18.4277 0.999207 18.1261 1 17.812V12.188C0.999207 11.8739 1.12315 11.5723 1.34461 11.3496C1.56606 11.1268 1.8669 11.0011 2.181 11H7.819C8.13311 11.0011 8.43395 11.1268 8.6554 11.3496C8.87685 11.5723 9.0008 11.8739 9 12.188V17.812C9.0008 18.1261 8.87685 18.4277 8.6554 18.6504C8.43395 18.8732 8.13311 18.9989 7.819 19ZM2.249 17.75H7.819L7.75 12.188L2.181 12.25L2.249 17.75ZM17.819 19H12.181C11.8669 18.9989 11.5661 18.8732 11.3446 18.6504C11.1232 18.4277 10.9992 18.1261 11 17.812V12.188C10.9992 11.8739 11.1232 11.5723 11.3446 11.3496C11.5661 11.1268 11.8669 11.0011 12.181 11H17.819C18.1331 11.0011 18.4339 11.1268 18.6554 11.3496C18.8769 11.5723 19.0008 11.8739 19 12.188V17.812C19.0008 18.1261 18.8769 18.4277 18.6554 18.6504C18.4339 18.8732 18.1331 18.9989 17.819 19ZM12.25 12.249V17.812L17.819 17.75L17.75 12.188L12.25 12.249Z" fill="#0F1A1C"/>
</svg>
