<svg width="20" height="20" viewBox="0 0 20 20" fill="none" xmlns="http://www.w3.org/2000/svg">
<path d="M13.1 7.42H13.6V6.92V4.924V4.424H13.1H7.2H6.7V4.924V15V15.5H7.2H13.1H13.6V15V13V12.5H13.1H9.943V11.371H12.471H12.971V10.871V8.936V8.436H12.471H9.943V7.42H13.1ZM5.62533 1.5H14.3747C15.4683 1.5015 16.5167 1.93661 17.2901 2.70994C18.0635 3.48334 18.4986 4.53189 18.5 5.62565V14.3744C18.4986 15.4681 18.0635 16.5167 17.2901 17.2901C16.5167 18.0635 15.4681 18.4986 14.3744 18.5H5.62565C4.53189 18.4986 3.48334 18.0635 2.70994 17.2901C1.93661 16.5167 1.5015 15.4683 1.5 14.3747V5.62533C1.5015 4.53169 1.93661 3.48327 2.70994 2.70994C3.48327 1.93661 4.53169 1.5015 5.62533 1.5Z" fill="#0F1A1C" stroke="#0F1A1C"/>
</svg>
