<svg width="20" height="20" viewBox="0 0 20 20" fill="none" xmlns="http://www.w3.org/2000/svg">
<path d="M15.75 13H17V16.375C16.9989 17.0709 16.722 17.7379 16.23 18.23C15.7379 18.722 15.0709 18.9989 14.375 19H3.625C2.92913 18.9989 2.26207 18.722 1.77001 18.23C1.27796 17.7379 1.00106 17.0709 1 16.375V5.625C1.00106 4.92913 1.27796 4.26207 1.77001 3.77001C2.26207 3.27796 2.92913 3.00106 3.625 3H7V4.25H3.625C3.26049 4.25053 2.91106 4.39556 2.65331 4.65331C2.39556 4.91106 2.25053 5.26049 2.25 5.625V16.375C2.25053 16.7395 2.39556 17.0889 2.65331 17.3467C2.91106 17.6044 3.26049 17.7495 3.625 17.75H14.375C14.7395 17.7495 15.0889 17.6044 15.3467 17.3467C15.6044 17.0889 15.7495 16.7395 15.75 16.375V13ZM18.375 1H13.375V2.25H16.866L8.433 10.683L9.317 11.567L17.75 3.134V6.625H19V1.625C19 1.45924 18.9342 1.30027 18.8169 1.18306C18.6997 1.06585 18.5408 1 18.375 1Z" fill="#0F1A1C"/>
</svg>
