<svg width="20" height="20" viewBox="0 0 20 20" fill="none" xmlns="http://www.w3.org/2000/svg">
<g clip-path="url(#clip0_423_3)">
<path d="M11.5997 19.872C12.8959 19.6596 14.1376 19.194 15.2538 18.5017C16.3701 17.8094 17.3391 16.9041 18.1054 15.8373C18.8718 14.7705 19.4205 13.5633 19.7203 12.2844C20.0201 11.0056 20.0651 9.68026 19.8527 8.38404C19.6403 7.08783 19.1746 5.84615 18.4823 4.72989C17.7901 3.61363 16.8847 2.64466 15.8179 1.8783C14.7512 1.11194 13.5439 0.563195 12.2651 0.2634C10.9863 -0.036395 9.6609 -0.0813698 8.36469 0.131043C6.29393 0.480412 4.38482 1.47025 2.90599 2.96128C1.42716 4.45231 0.453034 6.36948 0.120688 8.44304C-0.23506 10.6803 0.188583 12.9719 1.32069 14.934L0.0816875 19.012C0.0438116 19.1371 0.0403539 19.2701 0.0716784 19.397C0.103003 19.5239 0.167951 19.64 0.259688 19.733C0.350922 19.8274 0.466253 19.895 0.593175 19.9285C0.720096 19.962 0.853765 19.9601 0.979688 19.923L5.14669 18.73C6.62484 19.5631 8.29297 20.0005 9.98969 20C10.5289 19.9997 11.0672 19.9569 11.5997 19.872ZM1.55469 18.458L2.67269 14.767L2.52769 14.527C1.44583 12.7661 1.03009 10.676 1.35569 8.63504C1.64592 6.82199 2.4972 5.14552 3.7898 3.84145C5.08239 2.53737 6.75127 1.6713 8.56169 1.36504C9.69964 1.16945 10.8651 1.20093 11.9908 1.45768C13.1165 1.71442 14.1803 2.19137 15.1209 2.86103C16.0616 3.53069 16.8604 4.37983 17.4714 5.35955C18.0824 6.33927 18.4936 7.4302 18.6812 8.5695C18.8688 9.70881 18.8291 10.874 18.5644 11.9979C18.2997 13.1218 17.8153 14.1822 17.1391 15.1181C16.4628 16.054 15.6081 16.8468 14.6241 17.4509C13.6401 18.055 12.5463 18.4585 11.4057 18.638C9.38257 18.9697 7.30738 18.5736 5.54869 17.52L5.31669 17.382L1.55469 18.458ZM5.99969 9.00004C5.80191 9.00004 5.60857 9.05869 5.44412 9.16857C5.27967 9.27846 5.1515 9.43463 5.07581 9.61736C5.00012 9.80009 4.98032 10.0012 5.0189 10.1951C5.05749 10.3891 5.15273 10.5673 5.29258 10.7072C5.43243 10.847 5.61062 10.9422 5.8046 10.9808C5.99858 11.0194 6.19965 10.9996 6.38237 10.9239C6.5651 10.8482 6.72128 10.7201 6.83116 10.5556C6.94104 10.3912 6.99969 10.1978 6.99969 10C6.99969 9.73483 6.89433 9.48047 6.70679 9.29294C6.51926 9.1054 6.2649 9.00004 5.99969 9.00004ZM9.99969 9.00004C9.80191 9.00004 9.60857 9.05869 9.44412 9.16857C9.27967 9.27846 9.15149 9.43463 9.07581 9.61736C9.00012 9.80009 8.98032 10.0012 9.0189 10.1951C9.05749 10.3891 9.15273 10.5673 9.29258 10.7072C9.43243 10.847 9.61062 10.9422 9.8046 10.9808C9.99858 11.0194 10.1996 10.9996 10.3824 10.9239C10.5651 10.8482 10.7213 10.7201 10.8312 10.5556C10.941 10.3912 10.9997 10.1978 10.9997 10C10.9997 9.73483 10.8943 9.48047 10.7068 9.29294C10.5193 9.1054 10.2649 9.00004 9.99969 9.00004ZM13.9997 9.00004C13.8019 9.00004 13.6086 9.05869 13.4441 9.16857C13.2797 9.27846 13.1515 9.43463 13.0758 9.61736C13.0001 9.80009 12.9803 10.0012 13.0189 10.1951C13.0575 10.3891 13.1527 10.5673 13.2926 10.7072C13.4324 10.847 13.6106 10.9422 13.8046 10.9808C13.9986 11.0194 14.1996 10.9996 14.3824 10.9239C14.5651 10.8482 14.7213 10.7201 14.8312 10.5556C14.941 10.3912 14.9997 10.1978 14.9997 10C14.9997 9.73483 14.8943 9.48047 14.7068 9.29294C14.5193 9.1054 14.2649 9.00004 13.9997 9.00004Z" fill="#0F1A1C"/>
</g>
<defs>
<clipPath id="clip0_423_3">
<rect width="20" height="20" fill="white"/>
</clipPath>
</defs>
</svg>
