<svg width="20" height="20" viewBox="0 0 20 20" fill="none" xmlns="http://www.w3.org/2000/svg">
<path d="M16.3749 2.12101L6.49948 2.12388L14.4568 0.83659L14.457 0.836568C14.6987 0.797391 14.9458 0.806233 15.1841 0.862589C15.4225 0.918946 15.6473 1.02171 15.8459 1.16501C16.0445 1.30832 16.2129 1.48935 16.3415 1.69776C16.424 1.83151 16.4891 1.97486 16.5355 2.12431C16.4826 2.12227 16.4296 2.12117 16.3766 2.12101L16.3749 2.12101ZM11.6836 8.17158C10.9334 8.92173 10.512 9.93914 10.512 11C10.512 12.0609 10.9334 13.0783 11.6836 13.8284C12.4337 14.5786 13.4511 15 14.512 15H18.5V15.3742C18.4991 15.9378 18.2749 16.478 17.8764 16.8764C17.478 17.2749 16.9378 17.4992 16.3742 17.5H2.62576C2.06224 17.4992 1.52204 17.2749 1.12357 16.8764C0.725178 16.4781 0.50095 15.938 0.5 15.3746V6.62541C0.50095 6.06202 0.725178 5.52196 1.12357 5.12357C1.52197 4.72517 2.06204 4.50094 2.62546 4.50001C2.62556 4.50001 2.62566 4.50001 2.62576 4.50001H16.3742C16.3743 4.50001 16.3744 4.50001 16.3745 4.50001C16.938 4.50094 17.478 4.72517 17.8764 5.12357C18.2749 5.52205 18.4991 6.06224 18.5 6.62577V7.00001H14.512C13.4511 7.00001 12.4337 7.42144 11.6836 8.17158ZM16.3729 10.0711L15.957 10.3486L16.3729 10.0711C16.2097 9.82646 15.9852 9.62973 15.7227 9.50001H19.5V12.5H15.7186C15.882 12.4198 16.0326 12.3128 16.1638 12.1818C16.4773 11.8685 16.6536 11.4436 16.654 11.0004C16.6543 10.6697 16.5565 10.3463 16.3729 10.0711ZM13.4513 9.93935C13.649 9.74172 13.8961 9.60494 14.1635 9.54105C14.0311 9.61536 13.9088 9.70776 13.8002 9.81622C13.5662 10.05 13.4069 10.3479 13.3422 10.6723C13.2776 10.9967 13.3106 11.3329 13.4371 11.6385C13.5636 11.9441 13.7779 12.2053 14.0529 12.3891C14.091 12.4145 14.1299 12.4383 14.1697 12.4604C13.8999 12.3972 13.6505 12.2598 13.4513 12.0607C13.17 11.7794 13.012 11.3978 13.012 11C13.012 10.6022 13.17 10.2207 13.4513 9.93935Z" fill="#0F1A1C" stroke="#0F1A1C"/>
</svg>
