<svg width="20" height="20" viewBox="0 0 20 20" fill="none" xmlns="http://www.w3.org/2000/svg">
<path d="M9.12501 16.667V17.167H9.62501H11.771V17.417H9.62501H9.12501V17.917V19.5H8.87501V17.917V17.417H8.37501H6.31201V17.167H8.37501H8.87501V16.667V15.217V14.7672L8.42769 14.7198C7.07612 14.5766 5.82521 13.9387 4.91555 12.9289C4.00589 11.919 3.50172 10.6085 3.50001 9.24937L3.50001 9.2489C3.49834 8.4923 3.65431 7.74366 3.95798 7.05068L3.95829 7.04995L4.00828 6.93537L4.23685 7.03519L4.18673 7.15005L4.18667 7.1502C3.76502 8.11749 3.64451 9.18936 3.84085 10.2261C4.03719 11.2629 4.54127 12.2165 5.28741 12.9626C6.03354 13.7087 6.98712 14.2128 8.02389 14.4092C9.06066 14.6055 10.1325 14.485 11.0998 14.0633L11.1 14.0633L11.2148 14.0132L11.3146 14.2417L11.2001 14.2917L11.1992 14.2921C10.683 14.5185 10.1347 14.663 9.57393 14.7206L9.12501 14.7667V15.218V16.667ZM16.8538 0.5C17.0251 0.500196 17.1894 0.568345 17.3105 0.689501C17.4317 0.8107 17.4999 0.975037 17.5 1.14644V4.917H17.25V2.134V0.927425L16.3966 1.78034L13.1886 4.98634L12.8596 5.31508L13.1637 5.66694C13.8403 6.44988 14.2817 7.40823 14.4369 8.43133C14.5921 9.45444 14.4548 10.5006 14.0408 11.449L14.0407 11.4491L13.9907 11.5636L13.7622 11.4638L13.8123 11.3489L13.8124 11.3486C14.2336 10.3815 14.3537 9.30997 14.1572 8.2736C13.9607 7.23723 13.4567 6.28404 12.7109 5.53816C11.965 4.79229 11.0118 4.28829 9.97542 4.0918C8.93905 3.89532 7.86753 4.01546 6.9004 4.43657L6.90007 4.43672L6.7852 4.48684L6.68539 4.25827L6.79996 4.20828L6.80023 4.20817C7.69747 3.81608 8.68343 3.67175 9.6554 3.79021C10.6274 3.90866 11.5498 4.28557 12.3266 4.88167L12.6745 5.14862L12.9846 4.83855L16.2196 1.60355L17.0731 0.75H15.866H13.083V0.5H16.8538Z" fill="#0F1A1C" stroke="#0F1A1C"/>
</svg>
