<svg width="20" height="20" viewBox="0 0 20 20" fill="none" xmlns="http://www.w3.org/2000/svg">
<path d="M17.381 6H7.619C7.18978 6.00053 6.77829 6.17127 6.47478 6.47478C6.17127 6.77829 6.00053 7.18978 6 7.619V17.381C6.00053 17.8102 6.17127 18.2217 6.47478 18.5252C6.77829 18.8287 7.18978 18.9995 7.619 19H17.381C17.8102 18.9995 18.2217 18.8287 18.5252 18.5252C18.8287 18.2217 18.9995 17.8102 19 17.381V7.619C18.9995 7.18978 18.8287 6.77829 18.5252 6.47478C18.2217 6.17127 17.8102 6.00053 17.381 6ZM17.75 17.381C17.7497 17.4788 17.7108 17.5725 17.6416 17.6416C17.5725 17.7108 17.4788 17.7497 17.381 17.75H7.619C7.52122 17.7497 7.42751 17.7108 7.35837 17.6416C7.28923 17.5725 7.25026 17.4788 7.25 17.381V7.619C7.25026 7.52122 7.28923 7.42751 7.35837 7.35837C7.42751 7.28923 7.52122 7.25026 7.619 7.25H17.381C17.4788 7.25026 17.5725 7.28923 17.6416 7.35837C17.7108 7.42751 17.7497 7.52122 17.75 7.619V17.381ZM2.631 11.75H4.031V13H2.631C2.19842 12.9995 1.78373 12.8273 1.47794 12.5214C1.17215 12.2154 1.00026 11.8006 1 11.368V2.632C1.00026 2.19942 1.17215 1.78462 1.47794 1.47865C1.78373 1.17267 2.19842 1.00053 2.631 1H11.369C11.8016 1.00053 12.2163 1.17267 12.5221 1.47865C12.8278 1.78462 12.9997 2.19942 13 2.632V4.032H11.75V2.632C11.75 2.53086 11.7099 2.43385 11.6385 2.36224C11.567 2.29063 11.4701 2.25026 11.369 2.25H2.631C2.52986 2.25026 2.43295 2.29063 2.36153 2.36224C2.29011 2.43385 2.25 2.53086 2.25 2.632V11.368C2.25 11.4691 2.29011 11.5662 2.36153 11.6378C2.43295 11.7094 2.52986 11.7497 2.631 11.75ZM13.763 12.5C13.763 12.7498 13.6889 12.994 13.5501 13.2017C13.4114 13.4094 13.2141 13.5713 12.9833 13.6669C12.7525 13.7625 12.4986 13.7875 12.2536 13.7387C12.0086 13.69 11.7836 13.5697 11.6069 13.3931C11.4303 13.2164 11.31 12.9914 11.2613 12.7464C11.2125 12.5014 11.2375 12.2475 11.3331 12.0167C11.4287 11.7859 11.5906 11.5886 11.7983 11.4499C12.006 11.3111 12.2502 11.237 12.5 11.237C12.8349 11.2373 13.156 11.3704 13.3928 11.6072C13.6296 11.844 13.7627 12.1651 13.763 12.5ZM10.855 9.592C10.855 9.8418 10.7809 10.086 10.6421 10.2937C10.5034 10.5014 10.3061 10.6633 10.0753 10.7589C9.84455 10.8545 9.5906 10.8795 9.3456 10.8307C9.1006 10.782 8.87556 10.6617 8.69892 10.4851C8.52229 10.3084 8.402 10.0834 8.35327 9.8384C8.30454 9.5934 8.32955 9.33945 8.42514 9.10867C8.52073 8.87789 8.68262 8.68063 8.89032 8.54185C9.09801 8.40307 9.3422 8.329 9.592 8.329C9.7579 8.32887 9.92219 8.36145 10.0755 8.42487C10.2288 8.4883 10.3681 8.58132 10.4854 8.69863C10.6027 8.81594 10.6957 8.95522 10.7591 9.10852C10.8226 9.26181 10.8551 9.4261 10.855 9.592ZM16.67 15.408C16.6702 15.6579 16.5963 15.9022 16.4576 16.1101C16.3189 16.3179 16.1216 16.48 15.8908 16.5757C15.66 16.6714 15.4059 16.6965 15.1608 16.6478C14.9158 16.5991 14.6906 16.4788 14.5139 16.3021C14.3372 16.1254 14.2169 15.9002 14.1682 15.6552C14.1195 15.4101 14.1446 15.156 14.2403 14.9252C14.336 14.6944 14.4981 14.4971 14.7059 14.3584C14.9138 14.2197 15.1581 14.1458 15.408 14.146C15.7427 14.146 16.0637 14.279 16.3004 14.5156C16.537 14.7523 16.67 15.0733 16.67 15.408ZM5.355 4.092C5.355 4.3418 5.28093 4.58599 5.14215 4.79369C5.00337 5.00138 4.80611 5.16327 4.57533 5.25886C4.34455 5.35445 4.0906 5.37947 3.8456 5.33073C3.6006 5.282 3.37556 5.16171 3.19892 4.98508C3.02229 4.80844 2.902 4.5834 2.85327 4.3384C2.80454 4.0934 2.82955 3.83945 2.92514 3.60867C3.02073 3.37789 3.18262 3.18063 3.39031 3.04185C3.59801 2.90307 3.8422 2.829 4.092 2.829C4.2579 2.82887 4.42219 2.86145 4.57548 2.92487C4.72878 2.9883 4.86806 3.08132 4.98537 3.19863C5.10268 3.31594 5.1957 3.45522 5.25913 3.60852C5.32255 3.76181 5.35513 3.9261 5.355 4.092ZM9.908 2.829C10.1578 2.829 10.402 2.90307 10.6097 3.04185C10.8174 3.18063 10.9793 3.37789 11.0749 3.60867C11.1705 3.83945 11.1955 4.0934 11.1467 4.3384C11.098 4.5834 10.9777 4.80844 10.8011 4.98508C10.6244 5.16171 10.3994 5.282 10.1544 5.33073C9.9094 5.37947 9.65545 5.35445 9.42467 5.25886C9.19389 5.16327 8.99663 5.00138 8.85785 4.79369C8.71907 4.58599 8.645 4.3418 8.645 4.092C8.64487 3.9261 8.67745 3.76181 8.74087 3.60852C8.8043 3.45522 8.89732 3.31594 9.01463 3.19863C9.13194 3.08132 9.27122 2.9883 9.42452 2.92487C9.57781 2.86145 9.7421 2.82887 9.908 2.829ZM5.355 9.908C5.3552 10.1578 5.28129 10.4021 5.14263 10.61C5.00397 10.8178 4.80679 10.9798 4.57602 11.0756C4.34526 11.1713 4.09128 11.1965 3.84621 11.1479C3.60115 11.0992 3.37601 10.979 3.19928 10.8024C3.02254 10.6258 2.90216 10.4008 2.85334 10.1558C2.80453 9.91074 2.82948 9.65674 2.92504 9.4259C3.02061 9.19506 3.18249 8.99775 3.39021 8.85892C3.59793 8.7201 3.84216 8.646 4.092 8.646C4.25781 8.64587 4.42203 8.67841 4.57525 8.74178C4.72848 8.80514 4.86772 8.89808 4.98502 9.01528C5.10231 9.13248 5.19536 9.27164 5.25884 9.42482C5.32232 9.578 5.355 9.74219 5.355 9.908Z" fill="#0F1A1C"/>
</svg>
