<svg width="20" height="20" viewBox="0 0 20 20" fill="none" xmlns="http://www.w3.org/2000/svg">
<path d="M16.5594 7.17516C17.5495 6.18701 18.3608 5.0366 18.959 3.77516H18.426L18.6042 3.35096M16.5594 7.17516L18.7215 3.08147C18.7213 3.08194 18.7211 3.08241 18.7209 3.08288C18.6831 3.17277 18.6442 3.26214 18.6042 3.35096M16.5594 7.17516C15.8504 7.88416 14.5744 9.07516 13.9914 9.61816L16.5594 7.17516ZM18.6042 3.35096C18.0226 4.64301 17.2103 5.81916 16.2062 6.82126L16.2059 6.8216C15.5045 7.52297 14.2358 8.70725 13.6507 9.25227L13.3983 9.48728L13.5283 9.80665L15.6499 15.0193C15.8287 15.5107 15.8645 16.0428 15.7531 16.5539C15.6411 17.0672 15.3852 17.5381 15.0153 17.9112C15.015 17.9115 15.0147 17.9117 15.0145 17.912L14.9272 17.9993L9.95373 13.0333L9.63251 12.7126L9.28232 13.0014L7.16032 14.7514L6.87513 14.9866L7.01638 15.3282C7.42326 16.3122 7.46505 17.4092 7.13434 18.4212C7.09892 18.519 7.03959 18.6063 6.96174 18.6753C6.88264 18.7453 6.78703 18.7941 6.68388 18.8171L6.68382 18.8171C6.63708 18.8275 6.58937 18.8329 6.5415 18.8332C6.45922 18.8334 6.37772 18.8173 6.30173 18.7857C6.22564 18.7542 6.1566 18.7078 6.09863 18.6492L6.0971 18.6477L1.3541 13.9017L1.35393 13.9015C1.27902 13.8267 1.22427 13.734 1.19477 13.6323C1.16527 13.5306 1.16198 13.4231 1.1852 13.3197C1.20843 13.2164 1.25741 13.1206 1.3276 13.0413C1.39651 12.9634 1.48366 12.9038 1.58121 12.868C2.59377 12.5378 3.69103 12.5801 4.67533 12.9872L5.01548 13.1279L5.25085 12.8449L8.25085 9.23788L8.25091 9.23782C9.77526 7.40442 11.403 5.61775 13.091 3.92971L13.262 3.75871L13.2622 3.75848C14.2942 2.72512 15.5111 1.89471 16.8495 1.31039L16.8496 1.31057L16.8623 1.30457L16.9062 1.28394C17.1565 1.17647 17.4332 1.14572 17.7012 1.19568C17.9713 1.24605 18.2202 1.37618 18.4158 1.56928C18.6113 1.76238 18.7446 2.00962 18.7983 2.27913C18.8521 2.54864 18.824 2.82809 18.7175 3.08145L18.6042 3.35096ZM9.60044 13.3872L7.47844 15.1372C7.93177 16.2335 7.97753 17.456 7.60744 18.5832C7.54397 18.7627 7.43586 18.9232 7.29329 19.0495C7.15072 19.1758 6.97837 19.2638 6.79244 19.3052L9.60044 13.3872ZM3.44537 4.27787C3.95597 4.16189 4.48891 4.19301 4.98243 4.36753L8.20512 5.67719L5.5091 8.5905L2.0187 5.10758L2.09582 5.02484C2.46584 4.65313 2.93383 4.39407 3.44537 4.27787Z" fill="#0F1A1C" stroke="#0F1A1C"/>
</svg>
