<svg width="20" height="20" viewBox="0 0 20 20" fill="none" xmlns="http://www.w3.org/2000/svg">
<path d="M19 11V16.378C18.9992 17.0732 18.7227 17.7396 18.2312 18.2312C17.7396 18.7227 17.0732 18.9992 16.378 19H3.622C2.92685 18.9992 2.26039 18.7227 1.76884 18.2312C1.27729 17.7396 1.00079 17.0732 1 16.378V11H2.25V16.378C2.25026 16.7418 2.3949 17.0906 2.65214 17.3479C2.90938 17.6051 3.2582 17.7497 3.622 17.75H16.378C16.7418 17.7497 17.0906 17.6051 17.3479 17.3479C17.6051 17.0906 17.7497 16.7418 17.75 16.378V11H19ZM9.375 3.009V14H10.625V3.009L13.558 5.942L14.442 5.058L10.442 1.058C10.384 0.999944 10.3151 0.953892 10.2392 0.922473C10.1634 0.891053 10.0821 0.874882 10 0.874882C9.91791 0.874882 9.83662 0.891053 9.76079 0.922473C9.68495 0.953892 9.61604 0.999944 9.558 1.058L5.558 5.058L6.442 5.942L9.375 3.009Z" fill="#0F1A1C"/>
</svg>
