<svg width="20" height="20" viewBox="0 0 20 20" fill="none" xmlns="http://www.w3.org/2000/svg">
<path d="M13.083 0C11.2659 0.00211727 9.52374 0.724913 8.23883 2.00983C6.95391 3.29474 6.23112 5.03686 6.229 6.854C6.22817 7.67886 6.37796 8.49694 6.671 9.268L0 15.939V19.939H5V17H8V14H13.083C14.9311 13.936 16.6812 13.1535 17.9612 11.8189C19.2412 10.4844 19.9501 8.70312 19.937 6.854C19.9349 5.03686 19.2121 3.29474 17.9272 2.00983C16.6423 0.724913 14.9001 0.00211727 13.083 0V0ZM13.083 12.75H6.75V15.75H3.75V18.688H1.25V16.457L8.156 9.551L7.978 9.156C7.64893 8.43386 7.47844 7.64958 7.478 6.856C7.478 5.36973 8.06842 3.94433 9.11937 2.89337C10.1703 1.84242 11.5957 1.252 13.082 1.252C14.5683 1.252 15.9937 1.84242 17.0446 2.89337C18.0956 3.94433 18.686 5.36973 18.686 6.856C18.7031 8.37449 18.1273 9.83977 17.081 10.9404C16.0347 12.041 14.6004 12.6902 13.083 12.75ZM15.783 5.816C15.783 6.14515 15.6854 6.46691 15.5025 6.74057C15.3196 7.01424 15.0597 7.22752 14.7556 7.35343C14.4514 7.47935 14.1168 7.51224 13.794 7.44795C13.4712 7.38367 13.1747 7.22509 12.942 6.99227C12.7093 6.75946 12.5509 6.46287 12.4869 6.14002C12.4228 5.81717 12.4559 5.48256 12.582 5.17852C12.708 4.87448 12.9215 4.61467 13.1953 4.43195C13.469 4.24923 13.7908 4.1518 14.12 4.152C14.5614 4.152 14.9848 4.32728 15.297 4.63931C15.6092 4.95135 15.7847 5.37459 15.785 5.816H15.783Z" fill="#0F1A1C"/>
</svg>
