<svg width="20" height="20" viewBox="0 0 20 20" fill="none" xmlns="http://www.w3.org/2000/svg">
<path d="M6.35387 7.20322L6.00032 6.85022L5.64704 7.2035L1.44259 11.4079L1.26608 11.2314L5.55902 6.94772C5.68 6.83432 5.83965 6.77115 6.00559 6.77115C6.17146 6.77115 6.33105 6.83426 6.452 6.94757L9.64704 10.1426L10.0007 10.4962L10.3542 10.1425L18.5587 1.93424L18.7355 2.11103L10.4421 10.4035L10.4419 10.4036C10.384 10.4616 10.3152 10.5076 10.2395 10.5389C10.1637 10.5703 10.0826 10.5865 10.0006 10.5865C9.91862 10.5865 9.83745 10.5703 9.76172 10.5389C9.68599 10.5076 9.61719 10.4616 9.55924 10.4036L9.55887 10.4032L6.35387 7.20322ZM1.75059 18.5001H1.50059V15.0001H1.75059V18.5001ZM5.50059 18.5001V12.5001H5.75059V18.5001H5.50059ZM13.5006 18.5001V12.5001H13.7506V18.5001H13.5006ZM17.5006 18.5001V7.50005H17.7506V18.5001H17.5006ZM9.50059 18.5001V15.0001H9.75059V18.5001H9.50059Z" fill="#0F1A1C" stroke="#0F1A1C"/>
</svg>
