<svg width="20" height="20" viewBox="0 0 20 20" fill="none" xmlns="http://www.w3.org/2000/svg">
<g clip-path="url(#clip0_3595_47)">
<path d="M8.60408 0.644997L8.60455 0.644896C9.56229 0.439204 10.5539 0.450448 11.5068 0.677803C12.4594 0.905123 13.3492 1.34272 14.1108 1.95854C14.8953 2.59529 15.5194 3.40735 15.9328 4.32935C16.3462 5.25147 16.5373 6.25778 16.4907 7.26727C16.4441 8.27675 16.1611 9.26118 15.6645 10.1413C15.1679 11.0214 14.4716 11.7726 13.6316 12.3344L13.6316 12.3344L13.6271 12.3374C12.9067 12.8306 12.3868 13.5655 12.1618 14.409C12.1616 14.4095 12.1615 14.4099 12.1614 14.4103L12.1373 14.499H7.46046L7.44156 14.4046C7.27357 13.499 6.78311 12.6849 6.06094 12.113L6.06101 12.113L6.05262 12.1066C5.06714 11.3595 4.31689 10.3451 3.89105 9.1841C3.46521 8.02307 3.38168 6.76417 3.6504 5.55705C3.91911 4.34993 4.52877 3.24535 5.40691 2.37459C6.28505 1.50383 7.39474 0.903516 8.60408 0.644997ZM8.81156 18.5H11.1876V18.75H8.81156V18.5ZM12.2496 16.75H7.74956V16.5H12.2496V16.75Z" fill="#0F1A1C" stroke="#0F1A1C"/>
</g>
<defs>
<clipPath id="clip0_3595_47">
<rect width="20" height="20" fill="white"/>
</clipPath>
</defs>
</svg>
