<svg width="20" height="20" viewBox="0 0 20 20" fill="none" xmlns="http://www.w3.org/2000/svg">
<path d="M1.25 6.925H0V3.125C0.000528736 2.82679 0.119225 2.54095 0.330089 2.33009C0.540953 2.11922 0.826794 2.00053 1.125 2H4.925V3.25H1.25V6.925ZM4.925 16.75H1.25V13.075H0V16.875C0.000528736 17.1732 0.119225 17.459 0.330089 17.6699C0.540953 17.8808 0.826794 17.9995 1.125 18H4.925V16.75ZM20 3.125C19.9995 2.82679 19.8808 2.54095 19.6699 2.33009C19.459 2.11922 19.1732 2.00053 18.875 2H15.075V3.25H18.75V6.925H20V3.125ZM20 16.875V13.075H18.75V16.75H15.075V18H18.875C19.1732 17.9995 19.459 17.8808 19.6699 17.6699C19.8808 17.459 19.9995 17.1732 20 16.875Z" fill="#0F1A1C"/>
</svg>
