<svg width="20" height="20" viewBox="0 0 20 20" fill="none" xmlns="http://www.w3.org/2000/svg">
<path d="M2.625 16C2.19419 15.9995 1.78117 15.8281 1.47654 15.5235C1.1719 15.2188 1.00053 14.8058 1 14.375V2.625C1.00053 2.19419 1.1719 1.78117 1.47654 1.47654C1.78117 1.1719 2.19419 1.00053 2.625 1H14.375C14.8058 1.00053 15.2188 1.1719 15.5235 1.47654C15.8281 1.78117 15.9995 2.19419 16 2.625H14.75C14.75 2.52554 14.7105 2.43016 14.6402 2.35983C14.5698 2.28951 14.4745 2.25 14.375 2.25H2.625C2.52554 2.25 2.43016 2.28951 2.35983 2.35983C2.28951 2.43016 2.25 2.52554 2.25 2.625V14.375C2.25 14.4745 2.28951 14.5698 2.35983 14.6402C2.43016 14.7105 2.52554 14.75 2.625 14.75V16ZM16.669 8.932C16.6692 9.44134 16.5183 9.9393 16.2353 10.3628C15.9524 10.7864 15.5502 11.1164 15.0796 11.3113C14.609 11.5061 14.0911 11.5569 13.5916 11.4573C13.0921 11.3577 12.6334 11.1121 12.2735 10.7517C11.9136 10.3912 11.6688 9.93212 11.5699 9.43246C11.4711 8.9328 11.5227 8.41504 11.7183 7.94473C11.9138 7.47443 12.2445 7.07271 12.6685 6.79043C13.0925 6.50816 13.5907 6.35801 14.1 6.359C14.7815 6.36085 15.4344 6.63266 15.9159 7.1149C16.3974 7.59715 16.6682 8.25053 16.669 8.932ZM15.64 8.932C15.6398 8.6265 15.549 8.32792 15.379 8.07406C15.2091 7.82019 14.9676 7.62246 14.6852 7.50587C14.4029 7.38928 14.0922 7.35908 13.7927 7.41909C13.4931 7.4791 13.2181 7.62663 13.0025 7.843C12.7868 8.05938 12.6402 8.33487 12.5811 8.63461C12.5221 8.93435 12.5533 9.24487 12.6708 9.52687C12.7883 9.80887 12.9868 10.0497 13.2412 10.2188C13.4956 10.3879 13.7945 10.4778 14.1 10.477C14.5088 10.4754 14.9004 10.312 15.189 10.0224C15.4776 9.73288 15.6397 9.34081 15.64 8.932ZM19 5.622V17.378C18.9995 17.808 18.8284 18.2203 18.5243 18.5243C18.2203 18.8284 17.808 18.9995 17.378 19H5.622C5.19198 18.9995 4.77973 18.8284 4.47566 18.5243C4.17159 18.2203 4.00053 17.808 4 17.378V5.622C4.00053 5.19198 4.17159 4.77973 4.47566 4.47566C4.77973 4.17159 5.19198 4.00053 5.622 4H17.378C17.808 4.00053 18.2203 4.17159 18.5243 4.47566C18.8284 4.77973 18.9995 5.19198 19 5.622ZM5.622 17.75H14.773L10.125 13.1C9.75797 12.734 9.26081 12.5285 8.7425 12.5285C8.22419 12.5285 7.72703 12.734 7.36 13.1L5.25 15.21V17.376C5.24987 17.425 5.25939 17.4735 5.27801 17.5188C5.29663 17.5641 5.324 17.6053 5.35854 17.64C5.39309 17.6748 5.43413 17.7024 5.47933 17.7212C5.52454 17.7401 5.57302 17.7499 5.622 17.75ZM17.75 5.622C17.7497 5.52342 17.7105 5.42895 17.6408 5.35925C17.571 5.28954 17.4766 5.25026 17.378 5.25H5.622C5.52342 5.25026 5.42895 5.28954 5.35925 5.35925C5.28954 5.42895 5.25026 5.52342 5.25 5.622V13.756L6.632 12.375C7.19221 11.8158 7.95143 11.5017 8.743 11.5017C9.53457 11.5017 10.2938 11.8158 10.854 12.375L16.229 17.75H17.378C17.4766 17.7497 17.571 17.7105 17.6408 17.6408C17.7105 17.571 17.7497 17.4766 17.75 17.378V5.622Z" fill="#0F1A1C"/>
</svg>
