<svg width="20" height="20" viewBox="0 0 20 20" fill="none" xmlns="http://www.w3.org/2000/svg">
<path d="M1 14.5H19V16.369C19.0005 17.0654 18.7247 17.7335 18.2332 18.2268C17.7416 18.7201 17.0744 18.9981 16.378 19H3.622C2.92561 18.9981 2.25841 18.7201 1.76683 18.2268C1.27526 17.7335 0.999469 17.0654 1 16.369V14.5ZM19 13H1V3.631C0.999469 2.93461 1.27526 2.26646 1.76683 1.77319C2.25841 1.27993 2.92561 1.00185 3.622 1H16.378C17.0744 1.00185 17.7416 1.27993 18.2332 1.77319C18.7247 2.26646 19.0005 2.93461 19 3.631V13ZM12.875 7.511C12.875 6.94238 12.7064 6.38653 12.3905 5.91374C12.0746 5.44094 11.6256 5.07245 11.1002 4.85485C10.5749 4.63724 9.99681 4.58031 9.43912 4.69124C8.88142 4.80217 8.36915 5.07599 7.96707 5.47807C7.56499 5.88014 7.29118 6.39242 7.18024 6.95012C7.06931 7.50781 7.12625 8.08588 7.34385 8.61121C7.56145 9.13655 7.92995 9.58557 8.40274 9.90147C8.87553 10.2174 9.43138 10.386 10 10.386C10.7625 10.386 11.4938 10.0831 12.0329 9.54393C12.5721 9.00476 12.875 8.2735 12.875 7.511ZM16.23 4.64C16.2305 4.50754 16.2041 4.37635 16.1526 4.25434C16.101 4.13232 16.0253 4.02199 15.93 3.93C15.7386 3.7516 15.4867 3.65239 15.225 3.65239C14.9633 3.65239 14.7114 3.7516 14.52 3.93C14.3338 4.11736 14.2292 4.37081 14.2292 4.635C14.2292 4.89919 14.3338 5.15264 14.52 5.34C14.6126 5.43449 14.7231 5.50966 14.8449 5.56115C14.9668 5.61265 15.0977 5.63945 15.23 5.64C15.4932 5.63365 15.7439 5.52626 15.9301 5.34008C16.1163 5.1539 16.2237 4.90322 16.23 4.64Z" fill="#0F1A1C"/>
</svg>
