<svg width="20" height="20" viewBox="0 0 20 20" fill="none" xmlns="http://www.w3.org/2000/svg">
<path d="M9.093 11.316L0.021 3.421C0.0696921 3.02936 0.259589 2.66893 0.555077 2.40732C0.850565 2.14571 1.23134 2.00088 1.626 2L18.363 2.013C18.7646 2.01453 19.1513 2.16499 19.4484 2.43524C19.7454 2.7055 19.9316 3.07634 19.971 3.476L10.871 11.351C10.7526 11.4666 10.6123 11.5575 10.4585 11.6184C10.3046 11.6793 10.1401 11.709 9.97467 11.7057C9.80921 11.7025 9.64606 11.6663 9.49469 11.5994C9.34333 11.5325 9.20678 11.4362 9.093 11.316ZM11.886 12.449C11.6389 12.6931 11.3461 12.886 11.0244 13.0167C10.7027 13.1475 10.3583 13.2135 10.011 13.211C9.28384 13.2121 8.58601 12.9244 8.071 12.411L0 5.391V16.375C0.000529257 16.8058 0.171904 17.2188 0.476536 17.5235C0.781168 17.8281 1.19419 17.9995 1.625 18H18.374C18.8052 17.9992 19.2184 17.8275 19.5232 17.5225C19.828 17.2175 19.9995 16.8042 20 16.373L19.99 5.444L11.886 12.449Z" fill="#0F1A1C"/>
</svg>
