<svg width="20" height="20" viewBox="0 0 20 20" fill="none" xmlns="http://www.w3.org/2000/svg">
<path d="M10 13.125C9.9179 13.1251 9.83659 13.109 9.76073 13.0776C9.68488 13.0462 9.61598 13.0001 9.558 12.942L5.558 8.942L6.442 8.058L10 11.616L13.558 8.058L14.442 8.942L10.442 12.942C10.384 13.0001 10.3151 13.0462 10.2393 13.0776C10.1634 13.109 10.0821 13.1251 10 13.125ZM10.3 19.957C11.753 19.557 19 17.277 19 12V3.187C18.9998 2.93742 18.9164 2.69502 18.763 2.49815C18.6096 2.30128 18.395 2.16117 18.153 2.1L10.271 0.108C10.093 0.0639907 9.90699 0.0639907 9.729 0.108L1.846 2.1C1.60422 2.16136 1.38978 2.30155 1.23657 2.4984C1.08336 2.69526 1.00012 2.93755 1 3.187V12C1 17.277 8.249 19.554 9.7 19.957C9.79765 19.9846 9.89853 19.999 10 20C10.1014 19.9988 10.2023 19.9844 10.3 19.957ZM10 1.33L17.75 3.283V12C17.75 16.465 10.761 18.531 10.036 18.751C9.236 18.531 2.25 16.465 2.25 12V3.283L10 1.33Z" fill="#0F1A1C"/>
</svg>
