<svg width="20" height="20" viewBox="0 0 20 20" fill="none" xmlns="http://www.w3.org/2000/svg">
<path d="M3 10.625H0V9.375H3V10.625ZM20 9.375H17V10.625H20V9.375ZM10.625 0H9.375V3H10.625V0ZM10.625 17H9.375V20H10.625V17ZM5.492 4.608L3.37 2.487L2.487 3.371L4.609 5.492L5.492 4.608ZM17.514 16.629L15.393 14.508L14.508 15.392L16.629 17.513L17.514 16.629ZM17.514 3.371L16.631 2.487L14.508 4.608L15.391 5.492L17.514 3.371ZM5.492 15.392L4.607 14.508L2.486 16.629L3.371 17.513L5.492 15.392ZM15 10C15 9.01109 14.7068 8.04439 14.1573 7.22215C13.6079 6.3999 12.827 5.75904 11.9134 5.3806C10.9998 5.00216 9.99445 4.90315 9.02455 5.09607C8.05464 5.289 7.16373 5.7652 6.46447 6.46447C5.7652 7.16373 5.289 8.05464 5.09607 9.02455C4.90315 9.99445 5.00216 10.9998 5.3806 11.9134C5.75904 12.827 6.3999 13.6079 7.22215 14.1573C8.04439 14.7068 9.01109 15 10 15C11.3256 14.9984 12.5964 14.4711 13.5338 13.5338C14.4711 12.5964 14.9984 11.3256 15 10ZM13.75 10C13.75 10.7417 13.5301 11.4667 13.118 12.0834C12.706 12.7001 12.1203 13.1807 11.4351 13.4645C10.7498 13.7484 9.99584 13.8226 9.26841 13.6779C8.54098 13.5333 7.8728 13.1761 7.34835 12.6517C6.8239 12.1272 6.46675 11.459 6.32206 10.7316C6.17736 10.0042 6.25162 9.25016 6.53545 8.56494C6.81928 7.87971 7.29993 7.29404 7.91661 6.88199C8.5333 6.46993 9.25832 6.25 10 6.25C10.9942 6.25132 11.9472 6.64684 12.6502 7.34981C13.3532 8.05279 13.7487 9.00584 13.75 10Z" fill="#0F1A1C"/>
</svg>
