<svg width="20" height="20" viewBox="0 0 20 20" fill="none" xmlns="http://www.w3.org/2000/svg">
<path d="M16.2398 7.76848L16.3807 7.80063C17.1585 8.00634 17.8635 8.42518 18.4161 9.01004C18.9578 9.58334 19.332 10.2938 19.4986 11.064C19.479 11.3738 19.2545 11.7072 18.6716 12.0479C18.0712 12.3988 17.2051 12.6842 16.1907 12.9052C14.1704 13.3454 11.7091 13.5 10 13.5C8.29095 13.5 5.82963 13.3454 3.80932 12.9052C2.7949 12.6842 1.92881 12.3988 1.32838 12.0479C0.744592 11.7067 0.520288 11.3727 0.501328 11.0626C0.625064 10.4715 0.874083 9.91364 1.23183 9.42664C1.54879 8.99515 1.94438 8.62847 2.397 8.34543C4.44193 9.38196 6.69425 9.94781 8.98866 9.99988L8.98865 9.99997L8.9978 10C10.0703 10.0047 11.1415 9.9231 12.2009 9.7559L12.2009 9.75592L12.2056 9.75514L12.9456 9.63114L13.4385 9.54855L13.3562 9.05565L13.1092 7.57665L13.0269 7.08375L12.5339 7.1658L11.797 7.28846C10.8745 7.43405 9.94171 7.50481 9.00781 7.50005C7.35906 7.45681 5.73341 7.1105 4.21181 6.4795C4.42402 5.13047 5.10215 3.89366 6.13431 2.98798C7.25707 2.0028 8.71386 1.4839 10.2066 1.53746C11.6994 1.59102 13.1152 2.21298 14.1645 3.27608C15.2125 4.33786 15.8156 5.75953 15.851 7.25081V7.28101V7.67977L16.2398 7.76848ZM3.08951 17.2113L3.91251 15.3689C4.25004 15.4334 4.5905 15.4904 4.93131 15.5403L4.00243 17.6187L3.08951 17.2113ZM16.9283 17.1569L16.0522 17.6372L14.9158 15.5635C15.2654 15.5147 15.6154 15.4584 15.9628 15.3942L16.9283 17.1569ZM10.5 18.625H9.5V15.8711C9.67517 15.8737 9.8429 15.875 10 15.875C10.1571 15.875 10.3248 15.8737 10.5 15.8711V18.625Z" fill="#0F1A1C" stroke="#0F1A1C"/>
</svg>
