<svg width="20" height="20" viewBox="0 0 20 20" fill="none" xmlns="http://www.w3.org/2000/svg">
<g clip-path="url(#clip0_1581_896)">
<path d="M13.4638 11.2366L13.4636 11.2364C13.3468 11.1196 13.2608 10.9756 13.2132 10.8174C13.1656 10.6592 13.1579 10.4916 13.1909 10.3297L13.1911 10.3298L13.193 10.3191C13.2038 10.2593 13.2202 10.2006 13.242 10.1439C13.2712 10.08 13.3047 10.0182 13.3425 9.95892C13.3693 9.9169 13.402 9.87889 13.4395 9.84603L13.446 9.84028L13.4524 9.83431C13.6467 9.65171 13.9033 9.55006 14.17 9.55006C14.4367 9.55006 14.6933 9.65171 14.8876 9.83431L14.8876 9.83438L14.8949 9.84105C14.9291 9.87192 14.9586 9.90768 14.9823 9.94718L14.9909 9.96162L15.0005 9.97544C15.0352 10.0253 15.0641 10.079 15.0867 10.1354L15.0865 10.1355L15.092 10.1483C15.1178 10.2079 15.1378 10.2697 15.1517 10.333C15.1807 10.4774 15.1775 10.6263 15.1422 10.7693C15.1067 10.9133 15.0396 11.0476 14.9458 11.1625C14.852 11.2773 14.7339 11.3699 14.5999 11.4334C14.4659 11.497 14.3194 11.53 14.1711 11.5299C14.0397 11.5299 13.9096 11.504 13.7883 11.4536C13.6669 11.4033 13.5566 11.3296 13.4638 11.2366ZM5.44652 9.60423L5.45697 9.60005L5.46723 9.59541C5.52078 9.57116 5.57687 9.55296 5.63445 9.54114C5.79606 9.51271 5.96216 9.5233 6.11889 9.57206C6.27685 9.6212 6.42064 9.70767 6.5381 9.82413C6.72473 10.0108 6.82998 10.2636 6.83099 10.5274C6.83008 10.5931 6.82322 10.6586 6.81048 10.723L6.80904 10.7303L6.80781 10.7377C6.79844 10.7939 6.78302 10.8489 6.76182 10.9018C6.73349 10.9635 6.70137 11.0234 6.66566 11.0811C6.62471 11.1374 6.58015 11.191 6.53226 11.2416C6.41811 11.3561 6.2774 11.4406 6.12266 11.4876C5.96652 11.535 5.80101 11.5427 5.64113 11.51L5.63879 11.5096C5.57969 11.4978 5.52213 11.4793 5.46723 11.4544L5.46055 11.4514L5.45379 11.4486C5.27174 11.3725 5.11602 11.2447 5.00594 11.0809L4.99694 11.0676L4.98711 11.0548C4.95975 11.0193 4.93836 10.9796 4.92378 10.9372L4.91641 10.9158L4.90714 10.8951C4.88205 10.8392 4.86293 10.7808 4.85012 10.7209C4.83801 10.6574 4.83161 10.5929 4.831 10.5283C4.83179 10.2639 4.93723 10.0106 5.12433 9.82369L5.12437 9.82373L5.12966 9.81829C5.1737 9.77295 5.22257 9.73258 5.27541 9.69789L5.27551 9.69804L5.28652 9.69038C5.3364 9.65568 5.39008 9.62678 5.44652 9.60423ZM19.501 2.66692V10.4828L19.4764 10.5636L19.4819 10.6536C19.4846 10.6967 19.4873 10.7353 19.4898 10.7711C19.496 10.8609 19.501 10.9326 19.501 11.0109V11.1788C19.5003 11.184 19.4993 11.189 19.4981 11.1941L19.4871 11.2377L19.4841 11.2826C19.418 12.2709 19.1364 13.2327 18.659 14.1006C18.1816 14.9685 17.52 15.7214 16.7207 16.3064L16.7207 16.3064L16.7149 16.3107C14.7852 17.766 12.4253 18.5364 10.0085 18.5L10.001 18.4999L9.99341 18.5C7.57678 18.5367 5.21689 17.7667 3.287 16.3117L3.28703 16.3116L3.28115 16.3073C2.48088 15.7221 1.81869 14.9684 1.34127 14.0995C0.863842 13.2306 0.582794 12.2675 0.51793 11.2782L0.514785 11.2302L0.502556 11.1837C0.501933 11.1814 0.501414 11.179 0.501001 11.1766V11.0129C0.501001 10.932 0.506221 10.8552 0.512695 10.7598C0.514718 10.73 0.516864 10.6984 0.519012 10.6644L0.524652 10.5748L0.500001 10.4929L0.500002 2.66692L0.500001 2.66623C0.499854 2.56098 0.527396 2.45754 0.579862 2.3663C0.622823 2.29159 0.681257 2.22721 0.751001 2.17733V2.86792V7.14892V8.74825L1.66197 7.43372C1.88759 7.10813 2.13848 6.80079 2.41231 6.51455L2.41286 6.51397L2.49745 6.42526L2.67523 6.59612L2.59275 6.68202C1.43619 7.82785 0.774295 9.38114 0.749061 11.0092L0.749001 11.0092V11.0169V11.0559V11.0744L0.750367 11.0929L0.757001 11.1824V11.1852L0.757817 11.1995C0.813413 12.1715 1.08527 13.1189 1.55357 13.9725C2.02108 14.8247 2.67261 15.562 3.46077 16.1307C5.34536 17.5433 7.64624 18.2888 10.001 18.25C12.3555 18.2886 14.6561 17.543 16.5404 16.1306C17.3268 15.5623 17.977 14.8262 18.4439 13.9756C18.9115 13.1237 19.1835 12.1783 19.2402 11.2081L19.241 11.1935V11.1887L19.2413 11.1842L19.2435 11.1488L19.2461 11.1107L19.2479 11.0852L19.249 11.0686V11.0519V11.0199H19.2491L19.2489 11.0122C19.2237 9.38414 18.5618 7.83085 17.4053 6.68503L17.3228 6.59912L17.5006 6.42826L17.5851 6.51697L17.586 6.51782C17.8598 6.80369 18.1106 7.11085 18.3358 7.43641L19.247 8.75336V7.15192V2.82392V2.17346C19.3185 2.2239 19.3782 2.28949 19.4219 2.36579C19.474 2.45702 19.5013 2.56034 19.501 2.66543V2.66692ZM14.592 4.26666L18.5383 2.13103C18.5384 2.13099 18.5384 2.13096 18.5385 2.13093C18.6407 2.07585 18.7555 2.04811 18.8716 2.05043C18.9351 2.05169 18.9979 2.06193 19.0581 2.08062L18.5051 2.38634L14.4524 4.62695C14.4332 4.63674 14.4118 4.64117 14.3903 4.63972C14.368 4.63822 14.3467 4.63052 14.3286 4.61748L14.2196 4.53877L14.0857 4.5254C14.0835 4.52518 14.0814 4.52491 14.0792 4.5246C11.4481 3.5409 8.55022 3.5404 5.91883 4.52309C5.91658 4.52341 5.91432 4.5237 5.91206 4.52395L5.77974 4.53858L5.67222 4.61706C5.65383 4.63048 5.63202 4.63845 5.60931 4.64003C5.58687 4.6416 5.56445 4.63688 5.54455 4.62641L1.48926 2.42834L0.887585 2.10221C0.964703 2.07059 1.04727 2.0534 1.13116 2.0518C1.24707 2.04959 1.3616 2.07722 1.46374 2.13204C1.46389 2.13213 1.46405 2.13221 1.4642 2.13229L5.41011 4.2667L5.61024 4.37496L5.82333 4.29517C8.51712 3.28654 11.4849 3.28654 14.1787 4.29517L14.3918 4.37498L14.592 4.26666ZM10.647 12.3629V12.6129H9.355V12.3629H10.647Z" fill="#0F1A1C" stroke="#0F1A1C"/>
</g>
<defs>
<clipPath id="clip0_1581_896">
<rect width="20" height="20" fill="white"/>
</clipPath>
</defs>
</svg>
