<svg width="20" height="20" viewBox="0 0 20 20" fill="none" xmlns="http://www.w3.org/2000/svg">
<path d="M11 18H12C12 18.5304 11.7893 19.0391 11.4142 19.4142C11.0392 19.7893 10.5305 20 10 20C9.4696 20 8.96089 19.7893 8.58582 19.4142C8.21074 19.0391 8.00003 18.5304 8.00003 18H11ZM19 14.208V14.881C19 15.1774 18.8824 15.4617 18.673 15.6715C18.4636 15.8813 18.1795 15.9995 17.883 16H2.11703C1.8206 15.9995 1.53649 15.8813 1.32707 15.6715C1.11765 15.4617 1.00003 15.1774 1.00003 14.881V14.208C0.999039 13.5612 1.15702 12.924 1.46009 12.3526C1.76315 11.7812 2.202 11.293 2.73803 10.931C3.10268 10.6839 3.40149 10.3515 3.60852 9.96272C3.81555 9.57393 3.92454 9.14047 3.92603 8.69999V7.08699C3.92603 5.47739 4.56544 3.93372 5.7036 2.79556C6.84176 1.6574 8.38543 1.01799 9.99503 1.01799C11.6046 1.01799 13.1483 1.6574 14.2865 2.79556C15.4246 3.93372 16.064 5.47739 16.064 7.08699L16.074 8.69999C16.0745 9.14134 16.1831 9.57585 16.3903 9.96548C16.5976 10.3551 16.8973 10.688 17.263 10.935C17.7982 11.2969 18.2364 11.7845 18.5392 12.3551C18.8421 12.9258 19.0003 13.562 19 14.208ZM17.75 14.208C17.7509 13.7656 17.643 13.3297 17.4358 12.9387C17.2286 12.5478 16.9286 12.2138 16.562 11.966C16.0281 11.6045 15.5906 11.1179 15.2877 10.5487C14.9848 9.97945 14.8256 9.3448 14.824 8.69999V7.08799C14.824 6.45515 14.6994 5.82851 14.4572 5.24384C14.215 4.65917 13.8601 4.12793 13.4126 3.68044C12.9651 3.23296 12.4338 2.87799 11.8492 2.63582C11.2645 2.39364 10.6379 2.26899 10.005 2.26899C9.37219 2.26899 8.74555 2.39364 8.16088 2.63582C7.57621 2.87799 7.04497 3.23296 6.59748 3.68044C6.15 4.12793 5.79503 4.65917 5.55285 5.24384C5.31068 5.82851 5.18603 6.45515 5.18603 7.08799V8.70299C5.18444 9.3478 5.02526 9.98245 4.72235 10.5517C4.41943 11.1209 3.98196 11.6075 3.44803 11.969C3.08004 12.2153 2.7783 12.5484 2.56938 12.9389C2.36047 13.3293 2.25079 13.7652 2.25003 14.208V14.75H17.75V14.208ZM1.62503 7.47299C1.62202 6.37273 1.83728 5.28279 2.25833 4.26628C2.67939 3.24977 3.29789 2.32686 4.07803 1.55099L3.19303 0.666992C2.00529 1.84773 1.14882 3.31996 0.709512 4.93609C0.270201 6.55222 0.263483 8.25545 0.69003 9.87499L1.90003 9.55999C1.72084 8.87868 1.62844 8.17746 1.62503 7.47299ZM16.807 0.666992L15.922 1.55099C16.9556 2.57765 17.701 3.85813 18.0833 5.2639C18.4656 6.66968 18.4713 8.15128 18.1 9.55999L19.309 9.87499C19.736 8.25571 19.7297 6.55264 19.2909 4.93653C18.8522 3.32041 17.9963 1.84803 16.809 0.666992H16.807Z" fill="#0F1A1C"/>
</svg>
