<svg width="20" height="20" viewBox="0 0 20 20" fill="none" xmlns="http://www.w3.org/2000/svg">
<g clip-path="url(#clip0_1580_221)">
<path d="M9.99971 5.5C9.1097 5.5 8.23967 5.76392 7.49965 6.25839C6.75963 6.75285 6.18285 7.45566 5.84226 8.27792C5.50166 9.10019 5.41255 10.005 5.58618 10.8779C5.75981 11.7508 6.1884 12.5526 6.81773 13.182C7.44707 13.8113 8.24889 14.2399 9.12181 14.4135C9.99472 14.5872 10.8995 14.4981 11.7218 14.1575C12.5441 13.8169 13.2469 13.2401 13.7413 12.5001C14.2358 11.76 14.4997 10.89 14.4997 10C14.4984 8.80693 14.0239 7.66311 13.1802 6.81948C12.3366 5.97585 11.1928 5.50132 9.99971 5.5ZM6.74971 10C6.74772 9.35459 6.9393 8.72341 7.29972 8.188L11.8117 12.7C11.3226 13.0293 10.7531 13.2193 10.1642 13.2495C9.57536 13.2797 8.98938 13.1491 8.46912 12.8716C7.94887 12.5941 7.51396 12.1802 7.21106 11.6743C6.90815 11.1684 6.74867 10.5896 6.74971 10ZM12.6997 11.812L8.18771 7.3C8.81284 6.87517 9.56656 6.68165 10.319 6.75278C11.0715 6.82391 11.7756 7.15524 12.31 7.68968C12.8445 8.22413 13.1758 8.92823 13.2469 9.68069C13.3181 10.4332 13.1245 11.1869 12.6997 11.812ZM19.8597 9.452L15.4087 1.567C15.3114 1.39493 15.1701 1.25177 14.9993 1.15216C14.8286 1.05254 14.6344 1.00004 14.4367 1H5.56171C5.36416 1.00011 5.17018 1.05266 4.99959 1.15227C4.82899 1.25189 4.6879 1.39501 4.59071 1.567L0.144715 9.45C0.0492337 9.61758 -0.000976562 9.80713 -0.000976562 10C-0.000976563 10.1929 0.0492337 10.3824 0.144715 10.55L4.58972 18.432C4.68701 18.6042 4.82824 18.7475 4.999 18.8473C5.16976 18.9471 5.36394 18.9998 5.56171 19H14.4367C14.6344 19.0001 14.8286 18.9476 14.9994 18.848C15.1702 18.7484 15.3115 18.6051 15.4087 18.433L19.8547 10.55C19.95 10.3827 20.0002 10.1936 20.0003 10.0011C20.0005 9.80865 19.9507 9.61942 19.8557 9.452H19.8597ZM14.3597 17.752H5.64071L1.26971 10L5.64071 2.25H14.3587L18.7297 10L14.3597 17.752Z" fill="#0F1A1C"/>
</g>
<defs>
<clipPath id="clip0_1580_221">
<rect width="20" height="20" fill="white"/>
</clipPath>
</defs>
</svg>
