<svg width="20" height="20" viewBox="0 0 20 20" fill="none" xmlns="http://www.w3.org/2000/svg">
<path d="M3 11H0V9H3V11ZM17 9V11H20V9H17ZM11 0H9V3H11V0ZM9 20H11V17H9V20ZM5.758 4.343L3.636 2.222L2.222 3.636L4.344 5.757L5.758 4.343ZM14.243 15.657L16.364 17.778L17.778 16.364L15.657 14.243L14.243 15.657ZM17.778 3.636L16.364 2.222L14.242 4.343L15.656 5.757L17.778 3.636ZM2.222 16.364L3.636 17.778L5.757 15.657L4.343 14.243L2.222 16.364ZM10 4.875C8.98637 4.875 7.9955 5.17558 7.1527 5.73872C6.3099 6.30186 5.65302 7.10228 5.26512 8.03875C4.87722 8.97522 4.77573 10.0057 4.97348 10.9998C5.17122 11.994 5.65933 12.9072 6.37608 13.6239C7.09282 14.3407 8.00601 14.8288 9.00016 15.0265C9.99432 15.2243 11.0248 15.1228 11.9613 14.7349C12.8977 14.347 13.6981 13.6901 14.2613 12.8473C14.8244 12.0045 15.125 11.0136 15.125 10C15.1234 8.64125 14.5829 7.33861 13.6222 6.37783C12.6614 5.41705 11.3587 4.87659 10 4.875Z" fill="#0F1A1C"/>
</svg>
