<svg width="20" height="20" viewBox="0 0 20 20" fill="none" xmlns="http://www.w3.org/2000/svg">
<mask id="path-1-inside-1_3596_259" fill="white">
<path d="M18.875 2H1.125C0.826794 2.00053 0.540953 2.11922 0.330089 2.33009C0.119225 2.54095 0.000528736 2.82679 0 3.125V15.375C0.00105795 16.0709 0.277959 16.7379 0.770013 17.23C1.26207 17.722 1.92913 17.9989 2.625 18H17.375C18.0709 17.9989 18.7379 17.722 19.23 17.23C19.722 16.7379 19.9989 16.0709 20 15.375V3.125C19.9995 2.82679 19.8808 2.54095 19.6699 2.33009C19.459 2.11922 19.1732 2.00053 18.875 2ZM11.08 6.24C11.1285 6.12066 11.1998 6.01196 11.29 5.92C11.431 5.78191 11.609 5.68764 11.8024 5.64859C11.9959 5.60955 12.1965 5.6274 12.38 5.7C12.5015 5.75436 12.6131 5.82872 12.71 5.92C12.8913 6.10851 12.9949 6.35848 13 6.62C13 6.88551 12.8959 7.14043 12.71 7.33C12.6131 7.42128 12.5015 7.49564 12.38 7.55C12.2598 7.60124 12.1307 7.62842 12 7.63C11.7336 7.62815 11.4788 7.52083 11.2914 7.33153C11.104 7.14223 10.9992 6.88638 11 6.62C11.0016 6.48932 11.0288 6.36022 11.08 6.24ZM11.29 8.92C11.4299 8.77897 11.6086 8.68279 11.8033 8.64372C11.9981 8.60465 12.2 8.62446 12.3835 8.70063C12.5669 8.7768 12.7235 8.90587 12.8333 9.07139C12.9431 9.23691 13.0012 9.43138 13 9.63C12.9983 9.69376 12.9916 9.75728 12.98 9.82C12.9692 9.88587 12.949 9.94985 12.92 10.01C12.9001 10.0715 12.8696 10.129 12.83 10.18C12.7956 10.2342 12.7554 10.2845 12.71 10.33C12.6174 10.4232 12.5074 10.4973 12.3862 10.548C12.2649 10.5988 12.1349 10.6251 12.0035 10.6256C11.8721 10.626 11.7419 10.6006 11.6204 10.5507C11.4988 10.5009 11.3882 10.4276 11.295 10.335C11.2018 10.2424 11.1277 10.1324 11.077 10.0112C11.0262 9.88995 10.9999 9.75993 10.9994 9.62854C10.999 9.49714 11.0244 9.36694 11.0743 9.24537C11.1241 9.1238 11.1974 9.01324 11.29 8.92ZM7.08 6.24C7.12847 6.12066 7.19981 6.01196 7.29 5.92C7.48228 5.73937 7.73618 5.63882 8 5.63882C8.26382 5.63882 8.51772 5.73937 8.71 5.92C8.80019 6.01196 8.87153 6.12066 8.92 6.24C8.97038 6.36049 8.99752 6.48942 9 6.62C8.9988 6.6871 8.99211 6.75399 8.98 6.82C8.96916 6.88587 8.94896 6.94985 8.92 7.01C8.9001 7.07147 8.86965 7.12899 8.83 7.18C8.79 7.23 8.75 7.29 8.71 7.33C8.61773 7.42495 8.50736 7.50043 8.3854 7.55197C8.26345 7.60352 8.1324 7.63007 8 7.63007C7.8676 7.63007 7.73655 7.60352 7.6146 7.55197C7.49264 7.50043 7.38227 7.42495 7.29 7.33C7.24463 7.28454 7.20439 7.23424 7.17 7.18C7.13035 7.12899 7.0999 7.07147 7.08 7.01C7.05104 6.94985 7.03084 6.88587 7.02 6.82C7.00789 6.75399 7.0012 6.6871 7 6.62C7.00248 6.48942 7.02962 6.36049 7.08 6.24ZM7.29 8.92C7.48228 8.73937 7.73618 8.63882 8 8.63882C8.26382 8.63882 8.51772 8.73937 8.71 8.92C8.84859 9.0608 8.94262 9.23932 8.98031 9.43326C9.01801 9.62719 8.99771 9.82794 8.92195 10.0104C8.84619 10.1929 8.71833 10.349 8.55436 10.4592C8.39038 10.5694 8.19756 10.6288 8 10.63C7.86932 10.6284 7.74022 10.6012 7.62 10.55C7.49847 10.4956 7.38692 10.4213 7.29 10.33C7.10375 10.1426 6.99921 9.88919 6.99921 9.625C6.99921 9.36081 7.10375 9.10736 7.29 8.92ZM4.98 9.82C4.96916 9.88587 4.94896 9.94985 4.92 10.01C4.9001 10.0715 4.86965 10.129 4.83 10.18C4.79561 10.2342 4.75537 10.2845 4.71 10.33C4.66252 10.3762 4.61244 10.4196 4.56 10.46L4.38 10.55L4.2 10.61C4.13392 10.6216 4.06707 10.6283 4 10.63C3.73314 10.627 3.47814 10.5193 3.29 10.33C3.24463 10.2845 3.20439 10.2342 3.17 10.18C3.13035 10.129 3.0999 10.0715 3.08 10.01C3.05104 9.94985 3.03084 9.88587 3.02 9.82C3.0084 9.75728 3.00171 9.69376 3 9.63C2.99999 9.36449 3.10411 9.10957 3.29 8.92C3.40898 8.80507 3.5534 8.71981 3.71151 8.67116C3.86963 8.62251 4.03698 8.61183 4.2 8.64L4.38 8.7L4.56 8.79C4.61244 8.83044 4.66252 8.87384 4.71 8.92C4.89589 9.10957 5.00001 9.36449 5 9.63C4.99829 9.69376 4.9916 9.75728 4.98 9.82ZM4.98 6.82C4.96916 6.88587 4.94896 6.94985 4.92 7.01C4.9001 7.07147 4.86965 7.12899 4.83 7.18C4.79 7.23 4.75 7.29 4.71 7.33C4.66252 7.37616 4.61244 7.41956 4.56 7.46L4.38 7.55L4.2 7.61C4.13386 7.62113 4.06704 7.62781 4 7.63C3.86932 7.62842 3.74022 7.60124 3.62 7.55C3.49847 7.49564 3.38692 7.42128 3.29 7.33C3.10411 7.14043 2.99999 6.88551 3 6.62C3.00511 6.35848 3.10867 6.10851 3.29 5.92C3.38692 5.82872 3.49847 5.75436 3.62 5.7C3.80351 5.6274 4.00413 5.60955 4.19758 5.64859C4.39103 5.68764 4.56901 5.78191 4.71 5.92C4.80019 6.01196 4.87153 6.12066 4.92 6.24C4.97506 6.35899 5.00241 6.48891 5 6.62C4.9988 6.6871 4.99211 6.75399 4.98 6.82ZM14.75 14.5H5.25V13H14.75V14.5ZM16.71 10.33C16.6625 10.3762 16.6124 10.4196 16.56 10.46L16.38 10.55L16.2 10.61C16.1339 10.6211 16.067 10.6278 16 10.63C15.8693 10.6284 15.7402 10.6012 15.62 10.55C15.4985 10.4956 15.3869 10.4213 15.29 10.33C15.1741 10.2133 15.0887 10.0699 15.0415 9.9123C14.9943 9.75476 14.9867 9.58799 15.0193 9.42679C15.0519 9.26559 15.1238 9.11493 15.2286 8.98816C15.3334 8.86138 15.4678 8.7624 15.62 8.7C15.8036 8.62494 16.0049 8.60412 16.2 8.64L16.38 8.7L16.56 8.79C16.6124 8.83044 16.6625 8.87384 16.71 8.92C16.8962 9.10736 17.0008 9.36081 17.0008 9.625C17.0008 9.88919 16.8962 10.1426 16.71 10.33ZM16.98 6.82C16.9692 6.88587 16.949 6.94985 16.92 7.01C16.9001 7.07147 16.8696 7.12899 16.83 7.18C16.7956 7.23424 16.7554 7.28454 16.71 7.33C16.5219 7.51928 16.2669 7.62703 16 7.63C15.8693 7.62842 15.7402 7.60124 15.62 7.55C15.4985 7.49564 15.3869 7.42128 15.29 7.33C15.1041 7.14043 15 6.88551 15 6.62C15.0051 6.35848 15.1087 6.10851 15.29 5.92C15.3869 5.82872 15.4985 5.75436 15.62 5.7C15.8035 5.6274 16.0041 5.60955 16.1976 5.64859C16.391 5.68764 16.569 5.78191 16.71 5.92C16.8002 6.01196 16.8715 6.12066 16.92 6.24C16.9704 6.36049 16.9975 6.48942 17 6.62C16.9988 6.6871 16.9921 6.75399 16.98 6.82Z"/>
</mask>
<path d="M18.875 2H1.125C0.826794 2.00053 0.540953 2.11922 0.330089 2.33009C0.119225 2.54095 0.000528736 2.82679 0 3.125V15.375C0.00105795 16.0709 0.277959 16.7379 0.770013 17.23C1.26207 17.722 1.92913 17.9989 2.625 18H17.375C18.0709 17.9989 18.7379 17.722 19.23 17.23C19.722 16.7379 19.9989 16.0709 20 15.375V3.125C19.9995 2.82679 19.8808 2.54095 19.6699 2.33009C19.459 2.11922 19.1732 2.00053 18.875 2ZM11.08 6.24C11.1285 6.12066 11.1998 6.01196 11.29 5.92C11.431 5.78191 11.609 5.68764 11.8024 5.64859C11.9959 5.60955 12.1965 5.6274 12.38 5.7C12.5015 5.75436 12.6131 5.82872 12.71 5.92C12.8913 6.10851 12.9949 6.35848 13 6.62C13 6.88551 12.8959 7.14043 12.71 7.33C12.6131 7.42128 12.5015 7.49564 12.38 7.55C12.2598 7.60124 12.1307 7.62842 12 7.63C11.7336 7.62815 11.4788 7.52083 11.2914 7.33153C11.104 7.14223 10.9992 6.88638 11 6.62C11.0016 6.48932 11.0288 6.36022 11.08 6.24ZM11.29 8.92C11.4299 8.77897 11.6086 8.68279 11.8033 8.64372C11.9981 8.60465 12.2 8.62446 12.3835 8.70063C12.5669 8.7768 12.7235 8.90587 12.8333 9.07139C12.9431 9.23691 13.0012 9.43138 13 9.63C12.9983 9.69376 12.9916 9.75728 12.98 9.82C12.9692 9.88587 12.949 9.94985 12.92 10.01C12.9001 10.0715 12.8696 10.129 12.83 10.18C12.7956 10.2342 12.7554 10.2845 12.71 10.33C12.6174 10.4232 12.5074 10.4973 12.3862 10.548C12.2649 10.5988 12.1349 10.6251 12.0035 10.6256C11.8721 10.626 11.7419 10.6006 11.6204 10.5507C11.4988 10.5009 11.3882 10.4276 11.295 10.335C11.2018 10.2424 11.1277 10.1324 11.077 10.0112C11.0262 9.88995 10.9999 9.75993 10.9994 9.62854C10.999 9.49714 11.0244 9.36694 11.0743 9.24537C11.1241 9.1238 11.1974 9.01324 11.29 8.92ZM7.08 6.24C7.12847 6.12066 7.19981 6.01196 7.29 5.92C7.48228 5.73937 7.73618 5.63882 8 5.63882C8.26382 5.63882 8.51772 5.73937 8.71 5.92C8.80019 6.01196 8.87153 6.12066 8.92 6.24C8.97038 6.36049 8.99752 6.48942 9 6.62C8.9988 6.6871 8.99211 6.75399 8.98 6.82C8.96916 6.88587 8.94896 6.94985 8.92 7.01C8.9001 7.07147 8.86965 7.12899 8.83 7.18C8.79 7.23 8.75 7.29 8.71 7.33C8.61773 7.42495 8.50736 7.50043 8.3854 7.55197C8.26345 7.60352 8.1324 7.63007 8 7.63007C7.8676 7.63007 7.73655 7.60352 7.6146 7.55197C7.49264 7.50043 7.38227 7.42495 7.29 7.33C7.24463 7.28454 7.20439 7.23424 7.17 7.18C7.13035 7.12899 7.0999 7.07147 7.08 7.01C7.05104 6.94985 7.03084 6.88587 7.02 6.82C7.00789 6.75399 7.0012 6.6871 7 6.62C7.00248 6.48942 7.02962 6.36049 7.08 6.24ZM7.29 8.92C7.48228 8.73937 7.73618 8.63882 8 8.63882C8.26382 8.63882 8.51772 8.73937 8.71 8.92C8.84859 9.0608 8.94262 9.23932 8.98031 9.43326C9.01801 9.62719 8.99771 9.82794 8.92195 10.0104C8.84619 10.1929 8.71833 10.349 8.55436 10.4592C8.39038 10.5694 8.19756 10.6288 8 10.63C7.86932 10.6284 7.74022 10.6012 7.62 10.55C7.49847 10.4956 7.38692 10.4213 7.29 10.33C7.10375 10.1426 6.99921 9.88919 6.99921 9.625C6.99921 9.36081 7.10375 9.10736 7.29 8.92ZM4.98 9.82C4.96916 9.88587 4.94896 9.94985 4.92 10.01C4.9001 10.0715 4.86965 10.129 4.83 10.18C4.79561 10.2342 4.75537 10.2845 4.71 10.33C4.66252 10.3762 4.61244 10.4196 4.56 10.46L4.38 10.55L4.2 10.61C4.13392 10.6216 4.06707 10.6283 4 10.63C3.73314 10.627 3.47814 10.5193 3.29 10.33C3.24463 10.2845 3.20439 10.2342 3.17 10.18C3.13035 10.129 3.0999 10.0715 3.08 10.01C3.05104 9.94985 3.03084 9.88587 3.02 9.82C3.0084 9.75728 3.00171 9.69376 3 9.63C2.99999 9.36449 3.10411 9.10957 3.29 8.92C3.40898 8.80507 3.5534 8.71981 3.71151 8.67116C3.86963 8.62251 4.03698 8.61183 4.2 8.64L4.38 8.7L4.56 8.79C4.61244 8.83044 4.66252 8.87384 4.71 8.92C4.89589 9.10957 5.00001 9.36449 5 9.63C4.99829 9.69376 4.9916 9.75728 4.98 9.82ZM4.98 6.82C4.96916 6.88587 4.94896 6.94985 4.92 7.01C4.9001 7.07147 4.86965 7.12899 4.83 7.18C4.79 7.23 4.75 7.29 4.71 7.33C4.66252 7.37616 4.61244 7.41956 4.56 7.46L4.38 7.55L4.2 7.61C4.13386 7.62113 4.06704 7.62781 4 7.63C3.86932 7.62842 3.74022 7.60124 3.62 7.55C3.49847 7.49564 3.38692 7.42128 3.29 7.33C3.10411 7.14043 2.99999 6.88551 3 6.62C3.00511 6.35848 3.10867 6.10851 3.29 5.92C3.38692 5.82872 3.49847 5.75436 3.62 5.7C3.80351 5.6274 4.00413 5.60955 4.19758 5.64859C4.39103 5.68764 4.56901 5.78191 4.71 5.92C4.80019 6.01196 4.87153 6.12066 4.92 6.24C4.97506 6.35899 5.00241 6.48891 5 6.62C4.9988 6.6871 4.99211 6.75399 4.98 6.82ZM14.75 14.5H5.25V13H14.75V14.5ZM16.71 10.33C16.6625 10.3762 16.6124 10.4196 16.56 10.46L16.38 10.55L16.2 10.61C16.1339 10.6211 16.067 10.6278 16 10.63C15.8693 10.6284 15.7402 10.6012 15.62 10.55C15.4985 10.4956 15.3869 10.4213 15.29 10.33C15.1741 10.2133 15.0887 10.0699 15.0415 9.9123C14.9943 9.75476 14.9867 9.58799 15.0193 9.42679C15.0519 9.26559 15.1238 9.11493 15.2286 8.98816C15.3334 8.86138 15.4678 8.7624 15.62 8.7C15.8036 8.62494 16.0049 8.60412 16.2 8.64L16.38 8.7L16.56 8.79C16.6124 8.83044 16.6625 8.87384 16.71 8.92C16.8962 9.10736 17.0008 9.36081 17.0008 9.625C17.0008 9.88919 16.8962 10.1426 16.71 10.33ZM16.98 6.82C16.9692 6.88587 16.949 6.94985 16.92 7.01C16.9001 7.07147 16.8696 7.12899 16.83 7.18C16.7956 7.23424 16.7554 7.28454 16.71 7.33C16.5219 7.51928 16.2669 7.62703 16 7.63C15.8693 7.62842 15.7402 7.60124 15.62 7.55C15.4985 7.49564 15.3869 7.42128 15.29 7.33C15.1041 7.14043 15 6.88551 15 6.62C15.0051 6.35848 15.1087 6.10851 15.29 5.92C15.3869 5.82872 15.4985 5.75436 15.62 5.7C15.8035 5.6274 16.0041 5.60955 16.1976 5.64859C16.391 5.68764 16.569 5.78191 16.71 5.92C16.8002 6.01196 16.8715 6.12066 16.92 6.24C16.9704 6.36049 16.9975 6.48942 17 6.62C16.9988 6.6871 16.9921 6.75399 16.98 6.82Z" fill="#0F1A1C" stroke="#0F1A1C" stroke-width="2" mask="url(#path-1-inside-1_3596_259)"/>
</svg>
