<svg width="20" height="20" viewBox="0 0 20 20" fill="none" xmlns="http://www.w3.org/2000/svg">
<path d="M6.30815 19.776C6.18247 19.7757 6.05845 19.7474 5.94515 19.693C5.7816 19.6162 5.64786 19.4878 5.56455 19.3275C5.48123 19.1672 5.45298 18.984 5.48415 18.806L6.64614 11.924H3.83115C3.70467 11.9239 3.5799 11.8949 3.4663 11.8393C3.3527 11.7837 3.25327 11.703 3.17557 11.6032C3.09786 11.5034 3.04393 11.3872 3.01786 11.2635C2.9918 11.1397 2.99429 11.0117 3.02515 10.889L5.33815 1.63C5.3825 1.44988 5.48606 1.28988 5.63221 1.17564C5.77837 1.0614 5.95864 0.99955 6.14415 1H14.4441C14.5865 1.00003 14.7265 1.03659 14.8507 1.10619C14.9749 1.17578 15.0791 1.27608 15.1535 1.39749C15.2278 1.5189 15.2698 1.65736 15.2753 1.79962C15.2809 1.94188 15.2498 2.08318 15.1851 2.21L12.7931 7.051H16.3531C16.5134 7.0511 16.6702 7.09748 16.8048 7.18458C16.9393 7.27167 17.0458 7.39576 17.1115 7.54194C17.1772 7.68812 17.1993 7.85017 17.1751 8.00859C17.1509 8.16702 17.0815 8.31509 16.9751 8.435L6.92114 19.5C6.84443 19.5869 6.75009 19.6565 6.64439 19.7041C6.53869 19.7517 6.42406 19.7762 6.30815 19.776ZM5.99915 18.658L5.99215 18.665L5.99915 18.658ZM4.36915 10.674H8.12515L6.95514 17.6L15.4081 8.3H10.7791L13.7721 2.25H6.47215L4.36915 10.674ZM14.0691 1.648V1.657V1.648Z" fill="#0F1A1C"/>
</svg>
