<svg width="20" height="20" viewBox="0 0 20 20" fill="none" xmlns="http://www.w3.org/2000/svg">
<path d="M3.58709 19.914H16.4121C16.9086 19.9156 17.3948 19.7725 17.8112 19.5022C18.2277 19.2319 18.5564 18.8461 18.7571 18.392L3.58709 19.914ZM3.58709 19.914C3.09053 19.9154 2.60432 19.7721 2.18787 19.5016C1.77142 19.2311 1.44278 18.8452 1.24209 18.391L3.58709 19.914ZM18.3043 18.1799L18.3042 18.1798L18.2998 18.1898C18.1383 18.5551 17.874 18.8654 17.539 19.0828C17.2041 19.3002 16.813 19.4153 16.4137 19.414H16.4121L3.58709 19.414L3.58572 19.414C3.18629 19.4151 2.79519 19.2998 2.46021 19.0823C2.12522 18.8647 1.86087 18.5543 1.69944 18.1889L1.69952 18.1889L1.69566 18.1806C1.52191 17.8061 1.46087 17.3891 1.51996 16.9805C1.57905 16.5719 1.75573 16.1893 2.02847 15.8793L2.03821 15.8682L2.04728 15.8566L6.3366 10.36L6.38885 10.2954L6.50009 10.1579V9.981V4.624H13.4501V10.1V10.2766L13.561 10.414L17.976 15.884L17.9815 15.8909L17.9873 15.8975C18.2551 16.2065 18.4276 16.5866 18.4839 16.9917C18.5402 17.3968 18.4778 17.8095 18.3043 18.1799ZM6.50009 1.75V1.5H13.4741V1.75H6.50009Z" fill="#0F1A1C" stroke="#0F1A1C"/>
</svg>
