<svg width="20" height="20" viewBox="0 0 20 20" fill="none" xmlns="http://www.w3.org/2000/svg">
<path d="M2.625 15.374V16C2.19419 15.9995 1.78117 15.8281 1.47654 15.5235C1.1719 15.2188 1.00053 14.8058 1 14.375V2.625C1.00053 2.19419 1.1719 1.78117 1.47654 1.47654C1.78117 1.1719 2.19419 1.00053 2.625 1H14.375C14.8058 1.00053 15.2188 1.1719 15.5235 1.47654C15.8281 1.78117 15.9995 2.19419 16 2.625H5.629C4.834 2.62711 4.07216 2.94386 3.51001 3.50601C2.94786 4.06816 2.63111 4.83 2.629 5.625L2.625 15.374ZM7.562 13.3L4 16.865V17.378C4.00053 17.808 4.17159 18.2203 4.47566 18.5243C4.77973 18.8284 5.19198 18.9995 5.622 19H15.622L9.922 13.3C9.6042 12.9963 9.18156 12.8269 8.742 12.8269C8.30244 12.8269 7.8798 12.9963 7.562 13.3ZM19 5.622V17.378C18.999 17.7307 18.8827 18.0733 18.669 18.3539C18.4553 18.6344 18.1557 18.8374 17.816 18.932L11.055 12.172C10.4411 11.5601 9.60974 11.2165 8.743 11.2165C7.87626 11.2165 7.04487 11.5601 6.431 12.172L4 14.6V5.622C4.00053 5.19198 4.17159 4.77973 4.47566 4.47566C4.77973 4.17159 5.19198 4.00053 5.622 4H17.378C17.808 4.00053 18.2203 4.17159 18.5243 4.47566C18.8284 4.77973 18.9995 5.19198 19 5.622ZM16.669 8.932C16.669 8.4227 16.5179 7.92484 16.2349 7.50144C15.9518 7.07804 15.5495 6.74813 15.0789 6.55346C14.6082 6.35879 14.0904 6.30811 13.591 6.40783C13.0916 6.50756 12.6329 6.7532 12.2731 7.11368C11.9134 7.47416 11.6686 7.93327 11.5699 8.43291C11.4711 8.93255 11.5228 9.45025 11.7184 9.9205C11.914 10.3907 12.2447 10.7924 12.6686 11.0746C13.0926 11.3569 13.5907 11.507 14.1 11.506C14.7816 11.5041 15.4348 11.2322 15.9163 10.7497C16.3978 10.2673 16.6685 9.61364 16.669 8.932Z" fill="#0F1A1C"/>
</svg>
