<svg width="20" height="20" viewBox="0 0 20 20" fill="none" xmlns="http://www.w3.org/2000/svg">
<path d="M19 9H1V2.119C1 1.8224 1.11776 1.53793 1.32739 1.3281C1.53703 1.11828 1.8214 1.00027 2.118 1H17.882C18.1786 1.00027 18.463 1.11828 18.6726 1.3281C18.8822 1.53793 19 1.8224 19 2.119V9ZM1 17.881C1 18.1776 1.11776 18.4621 1.32739 18.6719C1.53703 18.8817 1.8214 18.9997 2.118 19H17.882C18.1786 18.9997 18.463 18.8817 18.6726 18.6719C18.8822 18.4621 19 18.1776 19 17.881V11H1V17.881Z" fill="#0F1A1C"/>
</svg>
