<svg width="20" height="20" viewBox="0 0 20 20" fill="none" xmlns="http://www.w3.org/2000/svg">
<path d="M9.484 5.42401L9.48683 5.42399C10.2677 5.41957 11.0399 5.58678 11.749 5.91377C12.4374 6.23294 13.0199 6.74243 13.428 7.38204C13.8867 8.1308 14.1149 8.99797 14.0843 9.87557L14.0837 9.89159L14.0842 9.90761C14.11 10.7889 13.8911 11.6601 13.4518 12.4245C13.0642 13.082 12.5004 13.6181 11.8242 13.972L11.8241 13.9721C11.1575 14.3211 10.4159 14.5023 9.66353 14.5H9.662H6.531V5.424L9.484 5.42401ZM9.723 13.5V13.5001L9.73068 13.4999C10.236 13.4922 10.7311 13.3569 11.1702 13.1066C11.6765 12.8193 12.093 12.397 12.3733 11.8867L12.3733 11.8867L12.3753 11.883C12.7023 11.2754 12.8633 10.5925 12.8423 9.90305C12.8659 9.21993 12.7036 8.54308 12.3725 7.94485L12.3725 7.94483L12.3691 7.93893C12.0852 7.44213 11.6644 7.03754 11.1568 6.77344L11.1566 6.77336C10.7161 6.54436 10.2278 6.42229 9.7313 6.41703V6.417H9.726H8.273H7.773V6.917V13V13.5H8.273H9.723ZM5.625 1.75L5.62441 1.75C4.59722 1.75122 3.61246 2.1598 2.88613 2.88613C2.1598 3.61246 1.75122 4.59722 1.75 5.62441V5.625L1.75 14.375L1.75 14.3756C1.75122 15.4028 2.1598 16.3875 2.88613 17.1139C3.61246 17.8402 4.59722 18.2488 5.62441 18.25H5.625H14.375H14.3756C15.4028 18.2488 16.3875 17.8402 17.1139 17.1139C17.8402 16.3875 18.2488 15.4028 18.25 14.3756V14.375V5.625V5.62441C18.2488 4.59722 17.8402 3.61246 17.1139 2.88613C16.3875 2.1598 15.4028 1.75122 14.3756 1.75H14.375L5.625 1.75ZM14.3744 18.5H5.62565C4.53189 18.4986 3.48334 18.0635 2.70994 17.2901C1.93661 16.5167 1.5015 15.4683 1.5 14.3747V5.62533C1.5015 4.53169 1.93661 3.48327 2.70994 2.70994C3.48327 1.93661 4.53169 1.5015 5.62533 1.5H14.3747C15.4683 1.5015 16.5167 1.93661 17.2901 2.70994C18.0635 3.48334 18.4986 4.53189 18.5 5.62565V14.3744C18.4986 15.4681 18.0635 16.5167 17.2901 17.2901C16.5167 18.0635 15.4681 18.4986 14.3744 18.5Z" fill="#0F1A1C" stroke="#0F1A1C"/>
</svg>
