<svg width="20" height="20" viewBox="0 0 20 20" fill="none" xmlns="http://www.w3.org/2000/svg">
<path d="M10.1889 11.532C10.1835 11.7005 10.2024 11.8689 10.2449 12.032C10.2799 12.1498 10.3496 12.2544 10.4449 12.332C10.5736 12.4287 10.7176 12.503 10.8709 12.552L9.98892 14.631C9.59365 14.5412 9.21501 14.3897 8.86692 14.182C8.61423 14.0292 8.41269 13.8047 8.28792 13.537H8.22192C7.88643 13.875 7.4915 14.1482 7.05692 14.343C6.61261 14.5377 6.13201 14.6359 5.64692 14.631C5.10144 14.6371 4.56253 14.5116 4.07592 14.265C3.59666 14.0158 3.20126 13.6312 2.93892 13.159C2.64106 12.607 2.49444 11.986 2.51392 11.359V6.029H4.99992V11.02C4.97597 11.4215 5.11023 11.8163 5.37392 12.12C5.49548 12.2511 5.6437 12.3546 5.8086 12.4236C5.97349 12.4926 6.15126 12.5254 6.32992 12.52C6.57532 12.524 6.81721 12.4614 7.02992 12.339C7.23956 12.2154 7.41009 12.0352 7.52192 11.819C7.64727 11.5718 7.70847 11.297 7.69992 11.02V6.029H10.1869L10.1889 11.532ZM16.4799 1.416H18.5429L12.1189 16.862H10.0999L16.4799 1.416Z" fill="#0F1A1C"/>
</svg>
