<svg width="20" height="20" viewBox="0 0 20 20" fill="none" xmlns="http://www.w3.org/2000/svg">
<g clip-path="url(#clip0_457_91)">
<path d="M16.75 11.5C16.75 12.9339 16.3248 14.3356 15.5282 15.5279C14.7315 16.7201 13.5992 17.6494 12.2745 18.1981C10.9497 18.7469 9.49196 18.8904 8.0856 18.6107C6.67924 18.3309 5.38741 17.6405 4.37348 16.6265C3.35955 15.6126 2.66905 14.3208 2.38931 12.9144C2.10957 11.508 2.25314 10.0503 2.80188 8.72554C3.35061 7.40078 4.27986 6.26848 5.47212 5.47184C6.66438 4.6752 8.06609 4.25 9.5 4.25H13.569L11.31 6.133L12.11 7.093L15.7 4.105C15.7703 4.04634 15.8269 3.97294 15.8658 3.89C15.9046 3.80705 15.9247 3.71658 15.9247 3.625C15.9247 3.53341 15.9046 3.44294 15.8658 3.36C15.8269 3.27705 15.7703 3.20365 15.7 3.145L12.109 0.156998L11.309 1.117L13.569 3H9.5C7.81886 3 6.17548 3.49851 4.77766 4.43251C3.37984 5.3665 2.29037 6.69402 1.64703 8.24719C1.00368 9.80036 0.835355 11.5094 1.16333 13.1583C1.4913 14.8071 2.30085 16.3217 3.4896 17.5104C4.67834 18.6992 6.1929 19.5087 7.84174 19.8367C9.49057 20.1646 11.1996 19.9963 12.7528 19.353C14.306 18.7096 15.6335 17.6202 16.5675 16.2223C17.5015 14.8245 18 13.1811 18 11.5H16.75Z" fill="#0F1A1C"/>
</g>
<defs>
<clipPath id="clip0_457_91">
<rect width="20" height="20" fill="white"/>
</clipPath>
</defs>
</svg>
