<svg width="20" height="20" viewBox="0 0 20 20" fill="none" xmlns="http://www.w3.org/2000/svg">
<g clip-path="url(#clip0_1581_880)">
<path d="M8.86885 6.14461C8.87863 6.15407 8.89024 6.16143 8.90297 6.16625L8.91209 6.1697L8.91206 6.16979L17.3924 9.56914C17.3927 9.56924 17.393 9.56935 17.3932 9.56945C17.9425 9.78756 18.4133 10.166 18.7445 10.6554C19.0757 11.145 19.2519 11.7229 19.25 12.314V12.3129H18.75L19.25 12.3146L8.86885 6.14461ZM8.86885 6.14461C8.86861 6.14438 8.86837 6.14415 8.86813 6.14391L8.74457 6.02034L8.3586 5.63436L8.00788 6.05264C7.67232 6.45284 7.31417 6.83354 6.9352 7.19289L8.86885 6.14461ZM1.25002 8.18889H1.75002V8.40325C1.58052 8.33991 1.41366 8.26843 1.25002 8.18889ZM1.25002 8.18889L1.03144 8.63858C1.10374 8.67372 1.17661 8.70742 1.25002 8.73966V8.18889ZM19.25 12.4379H18.75V12.9379H19.25V12.4379ZM20 12.9379H19.5V12.4379H20V12.9379ZM6.87495 3.79507L7.2285 3.44152L6.87502 3.08789L6.52147 3.44144L6.87495 3.79507ZM5.99107 3.97185L5.99102 3.97189L6.34457 4.32544L6.69801 3.97201L6.34469 3.61845L5.99107 3.97185ZM0.854374 7.44065L0.761582 7.39555L0.758452 7.39403L0.75002 7.38993V7.50511C0.767215 7.49213 0.78511 7.48001 0.803647 7.46881L0.80365 7.46881L0.805593 7.46762C0.821496 7.45791 0.837772 7.44892 0.854374 7.44065ZM0.75002 12.4369H0.50002H0.75002ZM9.13525 9.18482L5.83369 12.4889L5.65711 12.3125L8.95804 9.00742L9.13525 9.18482ZM12.2603 10.2272L10.0003 12.4918L9.82235 12.3133L12.0832 10.0502L12.2603 10.2272ZM19.5 15.2499V15.4999H0.50002V15.2499H19.5Z" fill="#0F1A1C" stroke="#0F1A1C"/>
</g>
<defs>
<clipPath id="clip0_1581_880">
<rect width="20" height="20" fill="white"/>
</clipPath>
</defs>
</svg>
