<svg width="21" height="20" viewBox="0 0 21 20" fill="none" xmlns="http://www.w3.org/2000/svg">
<path d="M20.3006 10.432C19.6596 11.9613 18.66 13.3207 17.3831 14.4C17.3586 14.421 17.3311 14.438 17.3066 14.459L14.0445 11.259C14.1897 10.8543 14.2664 10.429 14.2718 10C14.2718 8.93913 13.8422 7.92172 13.0775 7.17157C12.3128 6.42143 11.2756 6 10.1941 6C9.75753 6.00524 9.32473 6.08022 8.91272 6.222L6.32034 3.68C7.56023 3.22959 8.87196 2.99933 10.1941 3C12.3548 2.98172 14.4717 3.59761 16.2728 4.76852C18.0739 5.93944 19.4769 7.61189 20.3017 9.571C20.417 9.84691 20.4167 10.1564 20.3006 10.432ZM3.79728 3.548L16.7714 16.275L15.8692 17.159L14.7173 16.029C13.2966 16.6631 11.7549 16.9941 10.1941 17C7.35493 17.0114 4.62242 15.9395 2.57398 14.011C1.49678 13.0017 0.64884 11.7808 0.0855852 10.428C-0.0275518 10.1535 -0.0275518 9.84654 0.0855852 9.572C0.823179 7.80338 2.04102 6.26701 3.60665 5.13L2.89306 4.43L3.79728 3.548ZM12.131 13.492L6.63432 8.1C6.29907 8.67953 6.12078 9.33367 6.11646 10C6.11646 11.0609 6.54607 12.0783 7.31078 12.8284C8.07549 13.5786 9.11266 14 10.1941 14C10.8734 13.9958 11.5402 13.8209 12.131 13.492Z" fill="#0F1A1C"/>
</svg>
