<svg width="20" height="20" viewBox="0 0 20 20" fill="none" xmlns="http://www.w3.org/2000/svg">
<path d="M6.1 10.352L5.97 10.235L6.07 10.095C7.10752 8.74218 7.79827 7.15605 8.082 5.47498L8.107 5.31498H10.238V4.03598H5.762V2.26398H4.484V4.03598H0V5.31498H2.186L2.212 5.47598C2.47014 7.15576 3.14235 8.74486 4.168 10.1L4.274 10.24L4.144 10.357C2.98689 11.4148 1.54706 12.1131 0 12.367V13.648C1.86919 13.3988 3.61435 12.5736 4.993 11.287L5.123 11.167L5.253 11.287C6.38143 12.3263 7.7543 13.0635 9.244 13.43L9.7 12.224C8.36275 11.9097 7.12525 11.2662 6.1 10.352ZM5.117 9.20498L4.968 8.99198C4.25388 7.95263 3.75476 6.78101 3.5 5.54598L3.449 5.31498H6.788L6.75 5.53898C6.54203 6.79413 6.03585 7.98103 5.274 8.99998L5.117 9.20498ZM15.882 6.03298H13.962L9.844 16.945H11.144L12.21 14.228H17.637L18.7 16.945H20L15.882 6.03298ZM12.65 13.012L14.893 6.94998L17.193 13.012H12.65Z" fill="#0F1A1C"/>
</svg>
