<svg width="20" height="20" viewBox="0 0 20 20" fill="none" xmlns="http://www.w3.org/2000/svg">
<path d="M5.014 7.5V7.50001L5.0175 7.49999C5.6775 7.49537 6.3089 7.22994 6.77396 6.7616C7.23902 6.29326 7.50001 5.66002 7.5 5C7.5 5 7.5 4.99999 7.5 4.99999V0.5H8.5V4.99904C8.49712 5.7726 8.23805 6.52342 7.76326 7.13416C7.28831 7.7451 6.62427 8.18142 5.875 8.37488L5.5 8.4717V8.859V19.5H4.5V8.859V8.4717L4.125 8.37488C3.37573 8.18142 2.71169 7.7451 2.23674 7.13416C1.76196 6.52344 1.50289 5.77264 1.5 4.9991V0.5H2.5V4.99999C2.5 4.99999 2.5 5 2.5 5C2.49999 5.66002 2.76097 6.29326 3.22604 6.7616C3.6911 7.22994 4.3225 7.49537 4.9825 7.49999L4.9825 7.5H4.986H5.014ZM14.6377 12.5249L14.3044 13.467L13.8336 13.3006L13.8336 13.3006C13.1511 13.0593 12.5601 12.6124 12.1422 12.0213C11.7242 11.4302 11.4999 10.724 11.5 10.0001V10V6.00058C11.5017 4.54226 12.0818 3.14415 13.113 2.11296C14.1441 1.08184 15.5421 0.501784 17.0003 0.5C17.1328 0.500067 17.2598 0.552738 17.3536 0.646446C17.4473 0.740214 17.5 0.867391 17.5 1V19.5H16.5V2.127V1.48073L15.8744 1.64302C14.9092 1.89344 14.0543 2.45695 13.4437 3.24529C12.833 4.03362 12.5012 5.00225 12.5 5.99942V6V9.99963V10L14.6377 12.5249ZM5.5 4.5H4.5V0.5H5.5V4.5Z" fill="#0F1A1C" stroke="#0F1A1C"/>
</svg>
