<svg width="20" height="20" viewBox="0 0 20 20" fill="none" xmlns="http://www.w3.org/2000/svg">
<path d="M7.35579 16.164L2.43079 10L7.35579 3.83604L5.79379 2.58704L0.368789 9.37504C0.226786 9.5524 0.149414 9.77283 0.149414 10C0.149414 10.2272 0.226786 10.4477 0.368789 10.625L5.79379 17.413L7.35579 16.164ZM12.6938 3.83604L17.6188 10L12.6938 16.164L14.2558 17.413L19.6798 10.625C19.8218 10.4477 19.8992 10.2272 19.8992 10C19.8992 9.77283 19.8218 9.5524 19.6798 9.37504L14.2558 2.58704L12.6938 3.83604ZM13.4138 12.828L11.9998 11.414C11.6189 11.7779 11.1125 11.9809 10.5858 11.9809C10.0591 11.9809 9.55264 11.7779 9.17179 11.414C8.79685 11.039 8.58622 10.5304 8.58622 10C8.58622 9.46971 8.79685 8.96109 9.17179 8.58604C9.55264 8.2222 10.0591 8.01918 10.5858 8.01918C11.1125 8.01918 11.6189 8.2222 11.9998 8.58604L13.4138 7.17204C12.6522 6.44414 11.6393 6.03793 10.5858 6.03793C9.5323 6.03793 8.51937 6.44414 7.75779 7.17204C7.37575 7.54102 7.07102 7.9824 6.86138 8.47042C6.65175 8.95843 6.5414 9.48331 6.53679 10.0144C6.53217 10.5455 6.63338 11.0723 6.8345 11.5639C7.03563 12.0554 7.33264 12.502 7.70821 12.8776C8.08378 13.2532 8.53039 13.5502 9.02197 13.7513C9.51356 13.9524 10.0403 14.0537 10.5714 14.049C11.1025 14.0444 11.6274 13.9341 12.1154 13.7244C12.6034 13.5148 13.0448 13.2101 13.4138 12.828Z" fill="#0F1A1C"/>
</svg>
