<svg width="20" height="20" viewBox="0 0 20 20" fill="none" xmlns="http://www.w3.org/2000/svg">
<g clip-path="url(#clip0_1771_7)">
<path d="M10 11.75C10.9665 11.75 11.75 10.9665 11.75 10C11.75 9.0335 10.9665 8.25 10 8.25C9.0335 8.25 8.25 9.0335 8.25 10C8.25 10.9665 9.0335 11.75 10 11.75Z" fill="#0F1A1C"/>
<path d="M10 5.25C9.06054 5.25 8.14218 5.52858 7.36104 6.05052C6.57991 6.57246 5.97109 7.3143 5.61157 8.18225C5.25206 9.0502 5.15799 10.0053 5.34127 10.9267C5.52455 11.8481 5.97694 12.6945 6.64124 13.3588C7.30554 14.0231 8.15191 14.4755 9.07332 14.6587C9.99473 14.842 10.9498 14.7479 11.8177 14.3884C12.6857 14.0289 13.4275 13.4201 13.9495 12.639C14.4714 11.8578 14.75 10.9395 14.75 10C14.7484 8.74071 14.2475 7.53345 13.357 6.643C12.4665 5.75254 11.2593 5.25159 10 5.25ZM10 13C9.40666 13 8.82664 12.8241 8.33329 12.4944C7.83994 12.1648 7.45542 11.6962 7.22836 11.1481C7.0013 10.5999 6.94189 9.99667 7.05764 9.41473C7.1734 8.83279 7.45912 8.29824 7.87868 7.87868C8.29824 7.45912 8.83279 7.1734 9.41473 7.05764C9.99667 6.94189 10.5999 7.0013 11.1481 7.22836C11.6962 7.45542 12.1648 7.83994 12.4944 8.33329C12.8241 8.82664 13 9.40666 13 10C13 10.7956 12.6839 11.5587 12.1213 12.1213C11.5587 12.6839 10.7956 13 10 13Z" fill="#0F1A1C"/>
<path d="M18.838 3.63101C18.6259 3.06731 18.2958 2.55543 17.8698 2.12963C17.4438 1.70383 16.9318 1.37393 16.368 1.16201C12.2627 -0.380012 7.73734 -0.380012 3.63203 1.16201C3.06815 1.37376 2.55605 1.7036 2.13005 2.12942C1.70406 2.55524 1.37401 3.06721 1.16203 3.63101C-0.387344 7.73566 -0.387344 12.2643 1.16203 16.369C1.37401 16.9328 1.70406 17.4448 2.13005 17.8706C2.55605 18.2964 3.06815 18.6263 3.63203 18.838C7.73601 20.3873 12.2641 20.3873 16.368 18.838C16.9318 18.6261 17.4438 18.2962 17.8698 17.8704C18.2958 17.4446 18.6259 16.9327 18.838 16.369C20.3874 12.2643 20.3874 7.73566 18.838 3.63101ZM10 16C8.81334 16 7.65331 15.6481 6.66661 14.9888C5.67992 14.3295 4.91088 13.3925 4.45675 12.2961C4.00263 11.1998 3.88381 9.99335 4.11532 8.82947C4.34683 7.66558 4.91828 6.59648 5.75739 5.75737C6.59651 4.91825 7.6656 4.34681 8.82949 4.1153C9.99338 3.88378 11.1998 4.0026 12.2961 4.45673C13.3925 4.91086 14.3296 5.67989 14.9888 6.66659C15.6481 7.65328 16 8.81332 16 10C15.9984 11.5908 15.3658 13.116 14.2409 14.2409C13.116 15.3658 11.5908 15.9984 10 16Z" fill="#0F1A1C"/>
</g>
<defs>
<clipPath id="clip0_1771_7">
<rect width="20" height="20" fill="white"/>
</clipPath>
</defs>
</svg>
