<svg width="20" height="20" viewBox="0 0 20 20" fill="none" xmlns="http://www.w3.org/2000/svg">
<g clip-path="url(#clip0_616_16)">
<path d="M18.6996 3.22299C16.5742 2.57721 14.365 2.24933 12.1436 2.24999V0.999992C14.4879 0.999368 16.8194 1.3451 19.0626 2.02599L18.6996 3.22299ZM9.84263 20H12.4556C14.217 19.9658 15.8934 19.2366 17.1193 17.9714C18.3452 16.7062 19.0211 15.0076 18.9996 13.246V10.223C19.0007 9.66186 18.7792 9.12322 18.3836 8.72522C17.988 8.32723 17.4508 8.10237 16.8896 8.09999C16.5231 8.0993 16.1629 8.19555 15.8456 8.37899C15.6804 8.00566 15.4106 7.68817 15.0688 7.46492C14.727 7.24166 14.3279 7.12221 13.9196 7.12099C13.5622 7.12053 13.2107 7.21177 12.8986 7.38599C12.74 6.99942 12.4702 6.6686 12.1234 6.43541C11.7766 6.20222 11.3685 6.07714 10.9506 6.07599C10.7115 6.07486 10.4742 6.11792 10.2506 6.20299V2.24499C10.2163 1.66758 9.96172 1.12535 9.53935 0.730146C9.11698 0.334941 8.55905 0.116899 7.98063 0.120992C7.705 0.118006 7.432 0.17484 7.18046 0.287576C6.92892 0.400311 6.70483 0.566265 6.52363 0.773992C6.17756 1.18564 5.99151 1.70826 5.99963 2.24599V11.016L4.84763 9.47099C4.53242 9.04456 4.0691 8.75147 3.54875 8.64932C3.0284 8.54718 2.48866 8.64337 2.03563 8.91899C1.54727 9.21689 1.1968 9.69612 1.06093 10.2518C0.925056 10.8075 1.01484 11.3944 1.31063 11.884L4.21863 16.7C4.79286 17.6835 5.60976 18.5034 6.59125 19.0811C7.57273 19.6589 8.68599 19.9753 9.82463 20H9.84263ZM3.84263 10.218L5.81463 12.862C5.92276 12.9926 6.06887 13.0862 6.23267 13.13C6.39646 13.1737 6.56981 13.1653 6.72863 13.106C6.87589 13.0631 7.00559 12.9743 7.09878 12.8525C7.19198 12.7307 7.24378 12.5823 7.24663 12.429V2.24499C7.24053 2.01061 7.31858 1.78179 7.46663 1.59999C7.53002 1.52642 7.6091 1.46802 7.69806 1.42908C7.78702 1.39013 7.88358 1.37165 7.98063 1.37499C8.22699 1.3728 8.46582 1.45976 8.6531 1.61984C8.84037 1.77991 8.96345 2.0023 8.99963 2.24599V8.19999H10.2496C10.2406 7.96348 10.3141 7.73119 10.4576 7.54299C10.518 7.47184 10.5938 7.41534 10.6792 7.37775C10.7646 7.34016 10.8574 7.32246 10.9506 7.32599C11.0679 7.32854 11.1836 7.35452 11.2907 7.40241C11.3978 7.4503 11.4943 7.51913 11.5744 7.60485C11.6545 7.69057 11.7167 7.79145 11.7573 7.90156C11.7979 8.01166 11.816 8.12877 11.8106 8.24599V9.24599H13.0606C13.0567 9.13065 13.076 9.0157 13.1174 8.90799C13.1589 8.80027 13.2215 8.702 13.3017 8.61902C13.3819 8.53603 13.478 8.47004 13.5843 8.42497C13.6905 8.3799 13.8047 8.35667 13.9201 8.35667C14.0355 8.35667 14.1498 8.3799 14.256 8.42497C14.3622 8.47004 14.4583 8.53603 14.5385 8.61902C14.6187 8.702 14.6814 8.80027 14.7228 8.90799C14.7642 9.0157 14.7836 9.13065 14.7796 9.24599V10.223H16.0296C16.0296 10.1101 16.0519 9.99822 16.0951 9.89388C16.1383 9.78955 16.2017 9.69474 16.2815 9.61488C16.3614 9.53502 16.4562 9.47167 16.5605 9.42846C16.6649 9.38524 16.7767 9.36299 16.8896 9.36299C17.0026 9.36299 17.1144 9.38524 17.2187 9.42846C17.3231 9.47167 17.4179 9.53502 17.4977 9.61488C17.5776 9.69474 17.641 9.78955 17.6842 9.89388C17.7274 9.99822 17.7496 10.1101 17.7496 10.223V13.246C17.7536 14.6716 17.2027 16.0428 16.2134 17.0693C15.2242 18.0958 13.8744 18.6972 12.4496 18.746H9.82663C8.90339 18.7229 8.00151 18.4633 7.20719 17.9922C6.41287 17.5211 5.75265 16.8541 5.28963 16.055L2.38063 11.237C2.25551 11.0314 2.21683 10.7846 2.27304 10.5506C2.32925 10.3166 2.47578 10.1143 2.68063 9.98799C2.86795 9.8739 3.09125 9.83423 3.3064 9.87682C3.52155 9.9194 3.7129 10.0411 3.84263 10.218Z" fill="#0F1A1C"/>
</g>
<defs>
<clipPath id="clip0_616_16">
<rect width="20" height="20" fill="white"/>
</clipPath>
</defs>
</svg>
