<svg width="20" height="20" viewBox="0 0 20 20" fill="none" xmlns="http://www.w3.org/2000/svg">
<path d="M10.2061 19.618C8.30241 19.618 6.44152 19.0535 4.8587 17.9959C3.27587 16.9383 2.04221 15.4351 1.31372 13.6763C0.585225 11.9176 0.394618 9.98232 0.766001 8.11526C1.13738 6.24819 2.05408 4.53318 3.40016 3.1871C4.74624 1.84102 6.46125 0.924325 8.32831 0.552942C10.1954 0.181559 12.1306 0.372167 13.8894 1.10066C15.6481 1.82915 17.1513 3.06281 18.209 4.64564C19.2666 6.22846 19.8311 8.08936 19.8311 9.993C19.8284 12.5449 18.8135 14.9915 17.009 16.796C15.2046 18.6004 12.758 19.6154 10.2061 19.618ZM10.2061 1.618C8.54964 1.618 6.93042 2.10919 5.55316 3.02944C4.1759 3.9497 3.10245 5.2577 2.46857 6.78803C1.83468 8.31836 1.66883 10.0023 1.99198 11.6269C2.31513 13.2515 3.11277 14.7438 4.28404 15.915C5.4553 17.0863 6.94759 17.8839 8.57218 18.2071C10.1968 18.5302 11.8807 18.3644 13.411 17.7305C14.9414 17.0966 16.2494 16.0232 17.1696 14.6459C18.0899 13.2686 18.5811 11.6494 18.5811 9.993C18.5787 7.77254 17.6955 5.64371 16.1254 4.07361C14.5553 2.50351 12.4265 1.62038 10.2061 1.618Z" fill="#0F1A1C"/>
<path d="M6.68406 14.125C6.57678 14.1253 6.47122 14.098 6.37758 14.0456C6.28395 13.9933 6.20539 13.9177 6.1495 13.8261C6.09361 13.7345 6.06228 13.6301 6.05852 13.5229C6.05477 13.4156 6.07871 13.3093 6.12806 13.214L8.50706 8.593C8.5668 8.47746 8.66074 8.38317 8.77606 8.323L13.4001 5.944C13.5178 5.88323 13.6519 5.86148 13.7828 5.88188C13.9138 5.90228 14.0349 5.96378 14.1286 6.05749C14.2223 6.1512 14.2838 6.27228 14.3042 6.40323C14.3246 6.53418 14.3028 6.66822 14.2421 6.786L11.8601 11.407C11.8003 11.5225 11.7064 11.6168 11.5911 11.677L6.97006 14.056C6.88163 14.1016 6.78354 14.1252 6.68406 14.125ZM9.52606 9.343L8.13306 12.051L10.8411 10.657L12.2341 7.949L9.52606 9.343Z" fill="#0F1A1C"/>
</svg>
