<svg width="20" height="20" viewBox="0 0 20 20" fill="none" xmlns="http://www.w3.org/2000/svg">
<path d="M19.6202 9.149L16.9062 6.9V4.216C16.906 3.91842 16.7877 3.63308 16.5774 3.42256C16.367 3.21205 16.0818 3.09353 15.7842 3.093H13.0992L10.8092 0.335001C10.6984 0.226894 10.567 0.142106 10.4229 0.0856531C10.2787 0.0291998 10.1247 0.00222674 9.96994 0.00632892C9.81517 0.0104311 9.6628 0.0455253 9.52184 0.109536C9.38087 0.173547 9.25417 0.265175 9.14923 0.379001L6.89923 3.093H4.21423C3.91665 3.09353 3.63142 3.21205 3.42109 3.42256C3.21076 3.63308 3.0925 3.91842 3.09223 4.216V6.9L0.334233 9.189C0.226319 9.30013 0.141714 9.43171 0.0853917 9.57601C0.0290693 9.72031 0.00216692 9.87442 0.0062664 10.0293C0.0103659 10.1841 0.0453845 10.3366 0.109263 10.4777C0.173142 10.6188 0.264591 10.7457 0.378233 10.851L3.09223 13.1V15.786C3.0925 16.0836 3.21076 16.3689 3.42109 16.5794C3.63142 16.79 3.91665 16.9085 4.21423 16.909H6.89923L9.18923 19.665C9.29327 19.7696 9.417 19.8525 9.55329 19.909C9.68958 19.9655 9.83571 19.9944 9.98323 19.994C10.1451 19.9924 10.3051 19.9587 10.4538 19.8946C10.6024 19.8306 10.7369 19.7376 10.8492 19.621L13.0992 16.907H15.7862C16.0838 16.9065 16.369 16.788 16.5794 16.5774C16.7897 16.3669 16.908 16.0816 16.9082 15.784V13.1L19.6662 10.812C19.7742 10.7007 19.8588 10.569 19.915 10.4245C19.9712 10.28 19.998 10.1258 19.9937 9.97081C19.9894 9.81584 19.9542 9.66329 19.89 9.52215C19.8259 9.38102 19.7342 9.25414 19.6202 9.149ZM9.02923 13.53C8.95973 13.5998 8.87714 13.6552 8.78619 13.6929C8.69524 13.7307 8.59772 13.7502 8.49923 13.7502C8.40075 13.7502 8.30323 13.7307 8.21228 13.6929C8.12133 13.6552 8.03873 13.5998 7.96923 13.53L5.96923 11.53L7.02923 10.47L8.49923 11.939L12.9692 7.47L14.0292 8.53L9.02923 13.53Z" fill="#0F1A1C"/>
</svg>
