<svg width="20" height="20" viewBox="0 0 20 20" fill="none" xmlns="http://www.w3.org/2000/svg">
<g clip-path="url(#clip0_474_57)">
<path d="M17.3995 10L19.2495 8.053C19.3917 7.90354 19.4908 7.71846 19.5364 7.51732C19.582 7.31618 19.5725 7.10645 19.5088 6.91028C19.4451 6.71412 19.3296 6.53881 19.1744 6.40287C19.0193 6.26694 18.8304 6.17542 18.6275 6.138L15.9865 5.649L16.3385 2.987C16.3662 2.78252 16.338 2.57437 16.2571 2.38458C16.1761 2.19478 16.0454 2.03038 15.8787 1.90877C15.712 1.78716 15.5155 1.71285 15.3101 1.6937C15.1046 1.67456 14.8978 1.71128 14.7115 1.8L12.2875 2.96L11.0065 0.6C10.8994 0.429779 10.7508 0.289505 10.5747 0.192286C10.3986 0.0950668 10.2007 0.044075 9.99955 0.044075C9.79839 0.044075 9.60052 0.0950668 9.42442 0.192286C9.24831 0.289505 9.09973 0.429779 8.99255 0.6L7.71155 2.96L5.28755 1.8C5.10118 1.71077 4.89414 1.67364 4.68838 1.69254C4.48261 1.71144 4.2858 1.78567 4.11881 1.90735C3.95181 2.02904 3.82086 2.19364 3.73982 2.38372C3.65879 2.5738 3.63071 2.78226 3.65855 2.987L4.01055 5.649L1.37055 6.137C1.16744 6.17416 0.978169 6.26556 0.822763 6.4015C0.667357 6.53745 0.551603 6.71289 0.487757 6.90924C0.42391 7.1056 0.414348 7.31556 0.460081 7.51691C0.505814 7.71826 0.605141 7.90349 0.747546 8.053L2.59955 10L0.747546 11.947C0.605421 12.0965 0.506307 12.2815 0.460676 12.4827C0.415045 12.6838 0.424591 12.8936 0.488305 13.0897C0.55202 13.2859 0.667537 13.4612 0.822652 13.5971C0.977766 13.7331 1.16672 13.8246 1.36955 13.862L4.01055 14.351L3.65855 17.013C3.63071 17.2177 3.65879 17.4262 3.73982 17.6163C3.82086 17.8064 3.95181 17.971 4.11881 18.0926C4.2858 18.2143 4.48261 18.2886 4.68838 18.3075C4.89414 18.3264 5.10118 18.2892 5.28755 18.2L7.71155 17.04L8.99255 19.4C9.09075 19.5815 9.23618 19.733 9.41343 19.8387C9.59069 19.9443 9.7932 20 9.99955 20C10.2059 20 10.4084 19.9443 10.5857 19.8387C10.7629 19.733 10.9083 19.5815 11.0065 19.4L12.2875 17.04L14.7115 18.2C14.8977 18.289 15.1044 18.3261 15.3098 18.3073C15.5153 18.2885 15.7119 18.2146 15.8787 18.0933C16.0456 17.972 16.1766 17.8078 16.2579 17.6182C16.3392 17.4286 16.3678 17.2205 16.3405 17.016L15.9885 14.354L18.6285 13.866C18.8316 13.8288 19.0209 13.7374 19.1763 13.6015C19.3317 13.4656 19.4475 13.2901 19.5113 13.0938C19.5752 12.8974 19.5847 12.6874 19.539 12.4861C19.4933 12.2847 19.394 12.0995 19.2515 11.95L17.3995 10Z" fill="#0F1A1C"/>
</g>
<defs>
<clipPath id="clip0_474_57">
<rect width="20" height="20" fill="white"/>
</clipPath>
</defs>
</svg>
