<svg width="20" height="20" viewBox="0 0 20 20" fill="none" xmlns="http://www.w3.org/2000/svg">
<g clip-path="url(#clip0_784_291)">
<path d="M19.707 18.293L15.168 13.754C16.5148 12.0465 17.1584 9.8888 16.9669 7.72244C16.7755 5.55607 15.7635 3.54473 14.138 2.09988C12.5125 0.655024 10.3964 -0.114131 8.22255 -0.0502406C6.04868 0.0136501 3.98137 0.905757 2.44355 2.44358C0.905727 3.9814 0.0136195 6.04871 -0.0502711 8.22258C-0.114162 10.3964 0.654993 12.5126 2.09985 14.1381C3.5447 15.7635 5.55604 16.7755 7.72241 16.967C9.88877 17.1584 12.0464 16.5149 13.754 15.168L18.293 19.707L19.707 18.293ZM8.49995 15C7.21438 15 5.95767 14.6188 4.88875 13.9045C3.81983 13.1903 2.98671 12.1751 2.49474 10.9874C2.00277 9.79971 1.87405 8.49277 2.12485 7.2319C2.37565 5.97102 2.99472 4.81283 3.90376 3.90379C4.8128 2.99475 5.97099 2.37568 7.23187 2.12488C8.49274 1.87408 9.79968 2.0028 10.9874 2.49477C12.1751 2.98674 13.1903 3.81986 13.9045 4.88878C14.6187 5.9577 15 7.21441 15 8.49998C14.9978 10.2232 14.3123 11.8753 13.0938 13.0938C11.8753 14.3124 10.2232 14.9979 8.49995 15Z" fill="#0F1A1C"/>
</g>
<defs>
<clipPath id="clip0_784_291">
<rect width="20" height="20" fill="white"/>
</clipPath>
</defs>
</svg>
