<svg width="20" height="20" viewBox="0 0 20 20" fill="none" xmlns="http://www.w3.org/2000/svg">
<path d="M8.74922 3.12323V18.53C8.7029 18.4095 8.64407 18.2937 8.57331 18.1844C8.37769 17.8821 8.09917 17.6425 7.77104 17.4943L7.6729 17.45H7.56522H0.699219C0.666069 17.45 0.634274 17.4368 0.610831 17.4134C0.587387 17.3899 0.574219 17.3582 0.574219 17.325V2.625C0.574219 2.59185 0.587388 2.56005 0.61083 2.53661C0.634272 2.51317 0.666067 2.5 0.699219 2.5H7.99698C8.15653 2.50151 8.31527 2.52163 8.46999 2.55988C8.54669 2.62008 8.61074 2.69518 8.65814 2.7809C8.71615 2.88581 8.74743 3.00338 8.74922 3.12323ZM11.674 17.9998C11.4864 18.1873 11.3426 18.4105 11.2492 18.6535V3.12323C11.251 3.00338 11.2823 2.88581 11.3403 2.7809C11.3877 2.69518 11.4518 2.62008 11.5284 2.55988C11.6832 2.52163 11.8419 2.50151 12.0015 2.5H19.2992C19.3324 2.5 19.3642 2.51317 19.3876 2.53661C19.411 2.56005 19.4242 2.59185 19.4242 2.625V17.325C19.4242 17.3582 19.411 17.3899 19.3876 17.4134C19.3642 17.4368 19.3324 17.45 19.2992 17.45L12.9992 17.45L12.9985 17.45C12.5016 17.4507 12.0253 17.6484 11.674 17.9998Z" fill="#0F1A1C" stroke="#0F1A1C"/>
</svg>
