<svg width="20" height="20" viewBox="0 0 20 20" fill="none" xmlns="http://www.w3.org/2000/svg">
<g clip-path="url(#clip0_473_28)">
<path d="M9.875 7.614C9.53702 7.60676 9.20247 7.68301 8.901 7.836C8.63169 7.97428 8.40651 8.18525 8.25101 8.445C8.09855 8.7025 8.01937 8.99677 8.02201 9.296V13.496H6.409V6.2H7.961V7.13H8C8.27469 6.8106 8.61603 6.55528 9 6.382C9.45305 6.17482 9.94693 6.07229 10.445 6.082C10.6885 6.07907 10.9317 6.10288 11.17 6.153C11.3279 6.18255 11.4801 6.23689 11.621 6.314L10.972 7.873C10.8097 7.77839 10.633 7.71084 10.449 7.673C10.2603 7.6333 10.0679 7.61353 9.875 7.614ZM20 10C20 11.9778 19.4135 13.9112 18.3147 15.5557C17.2159 17.2002 15.6541 18.4819 13.8268 19.2388C11.9996 19.9957 9.98891 20.1937 8.0491 19.8079C6.10929 19.422 4.32746 18.4696 2.92894 17.0711C1.53041 15.6725 0.578004 13.8907 0.192152 11.9509C-0.193701 10.0111 0.00433284 8.00043 0.761209 6.17317C1.51809 4.3459 2.79981 2.78412 4.4443 1.6853C6.08879 0.58649 8.02219 0 10 0C12.6513 0.0029116 15.1931 1.05742 17.0679 2.93215C18.9426 4.80688 19.9971 7.34873 20 10ZM18.75 10C18.7492 8.78893 18.4961 7.5913 18.007 6.4834C17.5179 5.37549 16.8034 4.38159 15.909 3.565L10.935 15.551H9.58101L14.881 2.742C13.2613 1.65368 11.3243 1.13813 9.37791 1.27734C7.43153 1.41656 5.58757 2.20254 4.13928 3.51029C2.69098 4.81805 1.72151 6.57249 1.38504 8.49462C1.04856 10.4167 1.3644 12.3962 2.28233 14.1182C3.20025 15.8401 4.66756 17.2058 6.45091 17.9979C8.23426 18.79 10.2312 18.9631 12.1243 18.4897C14.0174 18.0163 15.6978 16.9235 16.8984 15.3852C18.0989 13.8469 18.7507 11.9514 18.75 10Z" fill="#0F1A1C"/>
</g>
<defs>
<clipPath id="clip0_473_28">
<rect width="20" height="20" fill="white"/>
</clipPath>
</defs>
</svg>
