<svg width="20" height="20" viewBox="0 0 20 20" fill="none" xmlns="http://www.w3.org/2000/svg">
<path fill-rule="evenodd" clip-rule="evenodd" d="M17.8356 7.65973C18.6898 8.13056 19.4027 8.82103 19.9006 9.65973C19.9575 9.75495 19.9876 9.8638 19.9876 9.97473C19.9876 10.0857 19.9575 10.1945 19.9006 10.2897C19.4038 11.1331 18.6896 11.8277 17.8326 12.3007C17.7156 12.3647 17.5946 12.4187 17.4726 12.4717C18.0075 13.8658 18.0979 15.3912 17.7316 16.8387C17.6758 17.0555 17.5628 17.2533 17.4045 17.4116C17.2462 17.5699 17.0484 17.6829 16.8316 17.7387C16.2356 17.891 15.6229 17.9686 15.0076 17.9697C14.1339 17.968 13.2679 17.806 12.4526 17.4917C12.434 17.5323 12.4178 17.5728 12.4016 17.6133C12.3779 17.6728 12.3541 17.7323 12.3226 17.7917C11.8481 18.6455 11.1538 19.3568 10.3116 19.8517C10.2166 19.908 10.1081 19.9378 9.99763 19.9378C9.88714 19.9378 9.77869 19.908 9.68363 19.8517C8.84178 19.3568 8.14777 18.6455 7.67363 17.7917C7.64062 17.7349 7.61658 17.6728 7.59237 17.6103C7.57698 17.5705 7.56151 17.5306 7.54363 17.4917C6.72838 17.806 5.86237 17.968 4.98863 17.9697C4.3734 17.9687 3.76069 17.8911 3.16463 17.7387C2.94772 17.6832 2.74973 17.5703 2.59139 17.412C2.43305 17.2536 2.3202 17.0556 2.26463 16.8387C1.89801 15.3913 1.98813 13.8659 2.52263 12.4717C2.40163 12.4187 2.27963 12.3647 2.16363 12.3007C1.30808 11.8257 0.595642 11.1299 0.100632 10.2857C0.043723 10.1905 0.0136719 10.0817 0.0136719 9.97073C0.0136719 9.8598 0.043723 9.75095 0.100632 9.65573C0.599188 8.8172 1.31236 8.12681 2.16663 7.65573C2.26631 7.59826 2.37082 7.55288 2.47583 7.50729C2.48776 7.50211 2.4997 7.49693 2.51163 7.49173C1.99025 6.10921 1.90509 4.60012 2.26763 3.16773C2.3232 2.95081 2.43605 2.75282 2.59439 2.59449C2.75273 2.43615 2.95072 2.32329 3.16763 2.26773C3.76369 2.11536 4.3764 2.03776 4.99163 2.03673C5.85322 2.03849 6.70735 2.19637 7.51263 2.50273L7.51799 2.49064C7.56722 2.37961 7.61677 2.26784 7.67563 2.16073C8.15071 1.30735 8.84493 0.59621 9.68663 0.100729C9.78128 0.0437685 9.88966 0.0136719 10.0001 0.0136719C10.1106 0.0136719 10.219 0.0437685 10.3136 0.100729C11.1564 0.596977 11.851 1.3096 12.3256 2.16473C12.3804 2.2612 12.4246 2.36145 12.4687 2.46154C12.4753 2.47661 12.482 2.49168 12.4886 2.50673C13.2943 2.20047 14.1487 2.04259 15.0106 2.04073C15.6259 2.04182 16.2386 2.11942 16.8346 2.27173C17.0514 2.32759 17.2492 2.44054 17.4075 2.59883C17.5658 2.75712 17.6788 2.95495 17.7346 3.17173C18.0967 4.60417 18.0115 6.11311 17.4906 7.49573C17.6076 7.54673 17.7236 7.59873 17.8356 7.65973ZM10.0006 1.35773C9.48461 1.72138 9.05816 2.19775 8.75363 2.75073C8.72218 2.80473 8.702 2.86296 8.6818 2.92124C8.66796 2.96116 8.65411 3.00111 8.63663 3.03973C9.1305 3.32977 9.58835 3.67718 10.0006 4.07473C10.4129 3.67741 10.8707 3.33033 11.3646 3.04073C11.3478 3.00236 11.3338 2.96287 11.3197 2.92347C11.2987 2.86431 11.2776 2.80536 11.2476 2.75073C10.9434 2.19755 10.5169 1.72112 10.0006 1.35773ZM1.35963 9.97573C1.72412 10.4901 2.2008 10.9148 2.75363 11.2177C2.83296 11.2606 2.9149 11.2963 2.99734 11.3322C3.01675 11.3407 3.03619 11.3492 3.05563 11.3577C3.34205 10.8665 3.68579 10.4109 4.07963 10.0007C3.67658 9.57935 3.32572 9.11098 3.03463 8.60573C3.01581 8.61411 2.99691 8.62242 2.97799 8.63073C2.90439 8.66306 2.83043 8.69555 2.75963 8.73373C2.20451 9.03576 1.72567 9.46056 1.35963 9.97573ZM10.0006 18.5937C10.5167 18.2298 10.9434 17.7535 11.2486 17.2007C11.2735 17.1556 11.291 17.1067 11.3086 17.0579C11.3213 17.0224 11.3341 16.9868 11.3496 16.9527C10.8615 16.6645 10.4088 16.3202 10.0006 15.9267C9.59341 16.3201 9.1413 16.6641 8.65363 16.9517C8.6682 16.9849 8.68032 17.0191 8.69242 17.0532C8.71023 17.1035 8.72804 17.1537 8.75363 17.2007C9.05816 17.7537 9.48461 18.2301 10.0006 18.5937ZM15.0106 16.7187C15.5217 16.7179 16.0307 16.653 16.5256 16.5257C16.8426 15.3071 16.7657 14.0195 16.3058 12.8473C15.8459 11.6751 15.0267 10.6787 13.9656 10.0007C15.0267 9.32279 15.8459 8.32632 16.3058 7.15416C16.7657 5.982 16.8426 4.69433 16.5256 3.47573C16.0307 3.34837 15.5217 3.28353 15.0106 3.28273C14.0122 3.2872 13.0307 3.54144 12.1556 4.02229C11.2806 4.50314 10.5397 5.1953 10.0006 6.03573C9.46182 5.19525 8.72119 4.50303 7.84627 4.02216C6.97135 3.5413 5.98998 3.28709 4.99163 3.28273C4.48022 3.28353 3.97093 3.34837 3.47563 3.47573C3.15912 4.69433 3.23631 5.98184 3.69615 7.1539C4.15599 8.32596 4.97491 9.32246 6.03563 10.0007C4.97491 10.679 4.15599 11.6755 3.69615 12.8476C3.23631 14.0196 3.15912 15.3071 3.47563 16.5257C3.97094 16.653 4.48023 16.7179 4.99163 16.7187C5.98998 16.7144 6.97135 16.4602 7.84627 15.9793C8.72119 15.4984 9.46182 14.8062 10.0006 13.9657C10.5397 14.8062 11.2806 15.4983 12.1556 15.9792C13.0307 16.46 14.0122 16.7143 15.0106 16.7187ZM17.0119 11.3291C17.0905 11.2942 17.1691 11.2594 17.2476 11.2177C17.8004 10.9147 18.2771 10.49 18.6416 9.97573C18.2774 9.46117 17.8006 9.03642 17.2476 8.73373C17.1746 8.69431 17.0981 8.66097 17.0216 8.6276C17.0049 8.62033 16.9883 8.61306 16.9716 8.60573C16.6793 9.11147 16.3267 9.57989 15.9216 10.0007C16.3159 10.4111 16.6603 10.8665 16.9476 11.3577C16.9691 11.3481 16.9905 11.3386 17.0119 11.3291ZM6.62987 8.61452C6.81847 8.17268 7.093 7.77274 7.43752 7.43793C8.12771 6.77795 9.04597 6.40978 10.0009 6.41016C10.9559 6.41053 11.8738 6.77942 12.5635 7.43993C12.9002 7.77623 13.1673 8.1756 13.3496 8.61521C13.5318 9.05482 13.6257 9.52604 13.6257 10.0019C13.6257 10.4778 13.5318 10.949 13.3496 11.3887C13.1673 11.8283 12.9002 12.2276 12.5635 12.5639C12.2287 12.9085 11.8288 13.183 11.3869 13.3716C10.9451 13.5602 10.4702 13.6591 9.98979 13.6625C9.50939 13.6659 9.03311 13.5738 8.58862 13.3916C8.14413 13.2093 7.7403 12.9405 7.4006 12.6008C7.06091 12.2612 6.79212 11.8573 6.60987 11.4128C6.42761 10.9683 6.33553 10.4921 6.33896 10.0117C6.34239 9.53128 6.44128 9.05636 6.62987 8.61452ZM10.001 12.3522C10.6264 12.3522 11.2278 12.1115 11.6805 11.6799C12.0126 11.3478 12.2388 10.9246 12.3304 10.4639C12.422 10.0032 12.375 9.52568 12.1952 9.09172C12.0154 8.65777 11.711 8.28687 11.3205 8.02591C10.9299 7.76496 10.4707 7.62568 10.001 7.62568C9.5313 7.62568 9.07214 7.76496 8.68158 8.02591C8.29102 8.28687 7.98661 8.65777 7.80684 9.09172C7.62707 9.52568 7.58002 10.0032 7.67163 10.4639C7.76324 10.9246 7.98941 11.3478 8.32152 11.6799C8.77419 12.1115 9.37561 12.3522 10.001 12.3522Z" fill="#0F1A1C"/>
</svg>
