<svg width="20" height="20" viewBox="0 0 20 20" fill="none" xmlns="http://www.w3.org/2000/svg">
<path d="M4.4692 7.12324L7.1232 5.86324H7.5922V14.5002H6.1502V7.66824L4.4692 8.46824V7.12324ZM14.3692 10.8122C14.6172 11.1902 14.7476 11.6332 14.744 12.0853C14.7405 12.5373 14.6031 12.9782 14.3492 13.3522C14.0753 13.7469 13.7011 14.0614 13.2652 14.2632C12.7836 14.4827 12.2605 14.5962 11.7312 14.5962C11.2019 14.5962 10.6788 14.4827 10.1972 14.2632C9.75804 14.0595 9.37985 13.7444 9.1002 13.3492C8.83671 12.9743 8.69687 12.5265 8.7002 12.0682C8.70072 11.6227 8.83331 11.1874 9.0812 10.8172C9.33827 10.4345 9.69186 10.1265 10.1062 9.92424C9.81142 9.71037 9.56985 9.4315 9.4002 9.10924C9.22929 8.78649 9.141 8.42644 9.1432 8.06124C9.13802 7.64431 9.25708 7.23527 9.4852 6.88624C9.71799 6.53289 10.0421 6.24919 10.4232 6.06524C10.832 5.86374 11.2824 5.76099 11.7382 5.76524C12.1892 5.7609 12.6347 5.86372 13.0382 6.06524C13.4151 6.25064 13.735 6.53427 13.9642 6.88624C14.1911 7.23757 14.3094 7.64803 14.3042 8.06624C14.3076 8.43166 14.22 8.79218 14.0492 9.11524C13.8798 9.43356 13.638 9.7076 13.3432 9.91524C13.7583 10.1185 14.1123 10.428 14.3692 10.8122ZM12.5412 13.2002C12.7763 13.0904 12.9777 12.9194 13.1242 12.7052C13.2657 12.4975 13.3403 12.2515 13.3382 12.0002C13.34 11.7519 13.2687 11.5084 13.1332 11.3002C12.9913 11.0827 12.7943 10.9067 12.5622 10.7902C12.305 10.6605 12.0202 10.5953 11.7322 10.6002C11.4427 10.5959 11.1563 10.661 10.8972 10.7902C10.6612 10.9071 10.4601 11.084 10.3142 11.3032C10.1767 11.5108 10.1036 11.7543 10.1042 12.0032C10.102 12.2529 10.1763 12.4972 10.3172 12.7032C10.4639 12.9185 10.6651 13.0911 10.9002 13.2032C11.1561 13.3266 11.4371 13.3889 11.7212 13.3852C12.0051 13.3869 12.2856 13.3236 12.5412 13.2002ZM11.0672 7.11724C10.8762 7.21346 10.7146 7.3592 10.5992 7.53924C10.4825 7.72286 10.4223 7.93672 10.4262 8.15424C10.424 8.37816 10.4838 8.59831 10.5992 8.79024C10.7124 8.98178 10.8737 9.14037 11.0672 9.25024C11.2683 9.36432 11.496 9.42299 11.7272 9.42024C11.9566 9.42231 12.1827 9.36477 12.3832 9.25324C12.5779 9.14596 12.7399 8.98806 12.8522 8.79624C12.9655 8.60144 13.0239 8.37958 13.0212 8.15424C13.025 7.93728 12.9663 7.7238 12.8522 7.53924C12.7378 7.35909 12.5768 7.21326 12.3862 7.11724C12.1807 7.01724 11.9552 6.96527 11.7267 6.96527C11.4982 6.96527 11.2727 7.01724 11.0672 7.11724ZM10.0002 19.9882C9.39285 19.9891 8.79129 19.8701 8.23 19.6381C7.6687 19.4061 7.1587 19.0657 6.7292 18.6362L1.3642 13.2712C0.496948 12.4036 0.00976563 11.227 0.00976562 10.0002C0.00976562 8.77347 0.496948 7.59691 1.3642 6.72924L6.7292 1.36424C7.59777 0.498698 8.77399 0.0126953 10.0002 0.0126953C11.2264 0.0126953 12.4026 0.498698 13.2712 1.36424L18.6372 6.72924C19.5027 7.59781 19.9887 8.77403 19.9887 10.0002C19.9887 11.2264 19.5027 12.4027 18.6372 13.2712L13.2712 18.6362C12.8418 19.0658 12.3318 19.4063 11.7705 19.6384C11.2092 19.8704 10.6076 19.9893 10.0002 19.9882ZM10.0002 1.26224C9.55707 1.26139 9.11815 1.34816 8.70867 1.51755C8.29919 1.68693 7.92724 1.9356 7.6142 2.24924L2.2492 7.61424C1.93583 7.92755 1.68725 8.29953 1.51765 8.70892C1.34805 9.11831 1.26076 9.55711 1.26076 10.0002C1.26076 10.4434 1.34805 10.8822 1.51765 11.2916C1.68725 11.701 1.93583 12.0729 2.2492 12.3862L7.6152 17.7512C8.24878 18.383 9.10699 18.7377 10.0017 18.7377C10.8964 18.7377 11.7546 18.383 12.3882 17.7512L17.7532 12.3862C18.3858 11.7533 18.7412 10.8951 18.7412 10.0002C18.7412 9.10537 18.3858 8.24714 17.7532 7.61424L12.3872 2.24924C12.074 1.93557 11.7018 1.68689 11.2922 1.51751C10.8826 1.34812 10.4435 1.26137 10.0002 1.26224Z" fill="#0F1A1C"/>
</svg>
