<svg width="20" height="20" viewBox="0 0 20 20" fill="none" xmlns="http://www.w3.org/2000/svg">
<path d="M2.25 5.925H1V2.125C1.00053 1.82679 1.11922 1.54095 1.33009 1.33009C1.54095 1.11922 1.82679 1.00053 2.125 1H5.925V2.25H2.25V5.925ZM5.925 17.75H2.25V14.075H1V17.875C1.00053 18.1732 1.11922 18.459 1.33009 18.6699C1.54095 18.8808 1.82679 18.9995 2.125 19H5.925V17.75ZM19 17.875V14.075H17.75V17.75H14.075V19H17.875C18.1732 18.9995 18.459 18.8808 18.6699 18.6699C18.8808 18.459 18.9995 18.1732 19 17.875ZM19 2.125C18.9995 1.82679 18.8808 1.54095 18.6699 1.33009C18.459 1.11922 18.1732 1.00053 17.875 1H14.075V2.25H17.75V5.925H19V2.125Z" fill="#0F1A1C"/>
</svg>
