<svg width="20" height="20" viewBox="0 0 20 20" fill="none" xmlns="http://www.w3.org/2000/svg">
<path d="M10.046 20L9.58104 19.732C8.80904 19.18 2.00004 14.142 2.00004 8.39C1.95223 6.21765 2.76733 4.1149 4.2668 2.54233C5.76627 0.969759 7.82787 0.0555687 10 0C12.1722 0.0555687 14.2338 0.969759 15.7333 2.54233C17.2327 4.1149 18.0478 6.21765 18 8.39C18 14.142 11.191 19.18 10.415 19.735L10.046 20ZM10 1.242C8.1583 1.29848 6.41397 2.08236 5.14889 3.42204C3.8838 4.76172 3.20103 6.54805 3.25004 8.39C3.25004 13.034 8.61104 17.432 10 18.49C11.4 17.423 16.75 13.029 16.75 8.39C16.799 6.54805 16.1163 4.76172 14.8512 3.42204C13.5861 2.08236 11.8418 1.29848 10 1.242ZM10 12C9.20891 12 8.43555 11.7654 7.77776 11.3259C7.11996 10.8864 6.60727 10.2616 6.30452 9.53073C6.00177 8.79983 5.92256 7.99556 6.0769 7.21964C6.23124 6.44371 6.6122 5.73098 7.17161 5.17157C7.73102 4.61216 8.44375 4.2312 9.21968 4.07686C9.9956 3.92252 10.7999 4.00173 11.5308 4.30448C12.2617 4.60723 12.8864 5.11992 13.3259 5.77772C13.7654 6.43552 14 7.20887 14 8C14 9.06087 13.5786 10.0783 12.8285 10.8284C12.0783 11.5786 11.0609 12 10 12ZM10 5.25C9.45614 5.25 8.92445 5.41128 8.47222 5.71346C8.01998 6.01563 7.66751 6.44512 7.45937 6.94762C7.25123 7.45012 7.19677 8.00305 7.30288 8.5365C7.40899 9.06995 7.6709 9.55995 8.05549 9.94454C8.44009 10.3291 8.93009 10.5911 9.46354 10.6972C9.99699 10.8033 10.5499 10.7488 11.0524 10.5407C11.5549 10.3325 11.9844 9.98005 12.2866 9.52782C12.5888 9.07558 12.75 8.5439 12.75 8C12.7495 7.27082 12.4596 6.57165 11.944 6.05604C11.4284 5.54043 10.7292 5.25053 10 5.25Z" fill="#0F1A1C"/>
</svg>
