<svg width="20" height="20" viewBox="0 0 20 20" fill="none" xmlns="http://www.w3.org/2000/svg">
<g clip-path="url(#clip0_3596_324)">
<path d="M16 14.4401H6.812V14.3491L6.933 14.1871C7.93144 12.8455 8.55447 11.2622 8.738 9.60006L7.012 10.4701C6.52262 10.7173 5.96747 10.8031 5.42629 10.7151C4.88511 10.627 4.38576 10.3697 4 9.98006L3.331 9.30706C3.14296 9.11417 3.02964 8.8607 3.01132 8.59194C2.993 8.32319 3.07087 8.05668 3.231 7.84006L7.431 2.18506H5.818V0.935059H8.428C10.4426 0.944058 12.3714 1.75198 13.791 3.18152C15.2106 4.61105 16.0051 6.54541 16 8.56006V14.4401ZM16.393 16.0001H4.607C4.18096 16.0006 3.77252 16.1701 3.47126 16.4713C3.17001 16.7726 3.00053 17.181 3 17.6071V20.0001H18V17.6071C17.9995 17.181 17.83 16.7726 17.5287 16.4713C17.2275 16.1701 16.819 16.0006 16.393 16.0001Z" fill="#0F1A1C"/>
</g>
<defs>
<clipPath id="clip0_3596_324">
<rect width="20" height="20" fill="white"/>
</clipPath>
</defs>
</svg>
