<svg width="20" height="20" viewBox="0 0 20 20" fill="none" xmlns="http://www.w3.org/2000/svg">
<g clip-path="url(#clip0_799_1)">
<path d="M10 0C8.02219 0 6.08879 0.58649 4.4443 1.6853C2.79981 2.78412 1.51809 4.3459 0.761209 6.17317C0.00433284 8.00043 -0.193701 10.0111 0.192152 11.9509C0.578004 13.8907 1.53041 15.6725 2.92894 17.0711C4.32746 18.4696 6.10929 19.422 8.0491 19.8079C9.98891 20.1937 11.9996 19.9957 13.8268 19.2388C15.6541 18.4819 17.2159 17.2002 18.3147 15.5557C19.4135 13.9112 20 11.9778 20 10C19.9971 7.34873 18.9426 4.80688 17.0679 2.93215C15.1931 1.05742 12.6513 0.0029116 10 0V0ZM7 18.209C6.47809 18.018 5.97577 17.7773 5.5 17.49V14H7V18.209ZM11 18.688C10.6681 18.7279 10.3343 18.7486 10 18.75C9.83101 18.75 9.66601 18.734 9.5 18.725V10H11V18.688ZM15 17.171C14.5291 17.5008 14.0266 17.7832 13.5 18.014V6H15V17.171Z" fill="#0F1A1C"/>
</g>
<defs>
<clipPath id="clip0_799_1">
<rect width="20" height="20" fill="white"/>
</clipPath>
</defs>
</svg>
