<svg width="20" height="20" viewBox="0 0 20 20" fill="none" xmlns="http://www.w3.org/2000/svg">
<path d="M11.8747 4H3.72572L5.58472 2.451L4.78472 1.491L1.59972 4.145C1.52938 4.20366 1.47279 4.27705 1.43396 4.36C1.39513 4.44295 1.375 4.53341 1.375 4.625C1.375 4.71659 1.39513 4.80705 1.43396 4.89C1.47279 4.97294 1.52938 5.04634 1.59972 5.105L4.78472 7.759L5.58472 6.799L3.72572 5.25H11.8747C13.4156 5.23559 14.8994 5.83279 16.0007 6.91066C17.102 7.98853 17.731 9.45911 17.7497 11C17.731 12.5409 17.102 14.0115 16.0007 15.0893C14.8994 16.1672 13.4156 16.7644 11.8747 16.75H2.07472V18H11.8747C13.7472 18.0144 15.5489 17.2855 16.8846 15.9732C18.2203 14.6609 18.981 12.8724 18.9997 11C18.981 9.12759 18.2203 7.33908 16.8846 6.02679C15.5489 4.7145 13.7472 3.98561 11.8747 4Z" fill="#0F1A1C"/>
</svg>
