<svg width="20" height="20" viewBox="0 0 20 20" fill="none" xmlns="http://www.w3.org/2000/svg">
<path d="M17.293 14.707L13.293 10.707C13.1055 10.5195 13.0002 10.2652 13.0002 10C13.0002 9.73484 13.1055 9.48053 13.293 9.293L17.293 5.293L18.707 6.707L15.414 10L18.707 13.293L17.293 14.707ZM11 2.124V17.876C10.9997 18.174 10.8812 18.4598 10.6705 18.6705C10.4598 18.8812 10.174 18.9997 9.876 19H2.124C1.82598 18.9997 1.54024 18.8812 1.3295 18.6705C1.11877 18.4598 1.00026 18.174 1 17.876V2.124C1.00026 1.82598 1.11877 1.54024 1.3295 1.3295C1.54024 1.11877 1.82598 1.00026 2.124 1H9.876C10.174 1.00026 10.4598 1.11877 10.6705 1.3295C10.8812 1.54024 10.9997 1.82598 11 2.124ZM8.5 13.875H3.5V15.125H8.5V13.875ZM8.5 10.875H3.5V12.125H8.5V10.875ZM8.5 7.875H3.5V9.125H8.5V7.875ZM8.5 4.875H3.5V6.125H8.5V4.875Z" fill="#0F1A1C"/>
</svg>
