<svg width="20" height="20" viewBox="0 0 20 20" fill="none" xmlns="http://www.w3.org/2000/svg">
<path d="M10 6.362L13.5 7.237V11.175C13.5 13.362 10 14.237 10 14.237C10 14.237 6.5 13.362 6.5 11.175V7.237L10 6.362ZM19.989 5.444L15 9.757V11.175C15 14.439 10.838 15.575 10.364 15.693C10.125 15.753 9.87496 15.753 9.636 15.693C9.162 15.574 5 14.439 5 11.175V9.741L0 5.391V16.375C0.000529257 16.8058 0.171904 17.2188 0.476536 17.5235C0.781168 17.8281 1.19419 17.9995 1.625 18H18.374C18.8052 17.9992 19.2184 17.8275 19.5232 17.5225C19.828 17.2175 19.9995 16.8042 20 16.373L19.989 5.444ZM6.136 5.782L9.636 4.907C9.87512 4.84835 10.1249 4.84835 10.364 4.907L13.864 5.782C14.1886 5.8632 14.4768 6.05063 14.6826 6.31446C14.8885 6.57828 15.0002 6.90337 15 7.238V7.775L19.971 3.475C19.9316 3.07534 19.7454 2.7045 19.4484 2.43424C19.1513 2.16399 18.7646 2.01353 18.363 2.012L1.626 2C1.23221 2.00209 0.852642 2.14747 0.558201 2.40897C0.26376 2.67047 0.0745816 3.03021 0.026 3.421L5 7.754V7.238C4.99981 6.90337 5.11153 6.57828 5.31737 6.31446C5.52322 6.05063 5.81137 5.8632 6.136 5.782Z" fill="#0F1A1C"/>
</svg>
