<svg width="20" height="20" viewBox="0 0 20 20" fill="none" xmlns="http://www.w3.org/2000/svg">
<path d="M18.6004 14.359L17.0004 16.274V8.125C17.0148 6.25256 16.2859 4.45086 14.9736 3.11513C13.6614 1.77941 11.8728 1.01875 10.0004 1C8.12803 1.01875 6.33951 1.77941 5.02722 3.11513C3.71493 4.45086 2.98604 6.25256 3.00043 8.125V16.274L1.40043 14.359L0.44043 15.159L3.14043 18.4C3.19899 18.4705 3.27235 18.5272 3.35531 18.5662C3.43827 18.6051 3.52879 18.6253 3.62043 18.6253C3.71207 18.6253 3.80259 18.6051 3.88555 18.5662C3.96851 18.5272 4.04187 18.4705 4.10043 18.4L6.80043 15.159L5.84043 14.359L4.24043 16.274V8.125C4.22603 6.58236 4.8246 5.09709 5.90463 3.9955C6.98465 2.89391 8.4578 2.2661 10.0004 2.25C11.5413 2.26873 13.0119 2.89769 14.0898 3.999C15.1676 5.1003 15.7648 6.58407 15.7504 8.125V16.274L14.1504 14.359L13.1904 15.159L15.9004 18.4C15.959 18.4705 16.0324 18.5272 16.1153 18.5662C16.1983 18.6051 16.2888 18.6253 16.3804 18.6253C16.4721 18.6253 16.5626 18.6051 16.6455 18.5662C16.7285 18.5272 16.8019 18.4705 16.8604 18.4L19.5604 15.159L18.6004 14.359Z" fill="#0F1A1C"/>
</svg>
