<svg width="20" height="20" viewBox="0 0 20 20" fill="none" xmlns="http://www.w3.org/2000/svg">
<g clip-path="url(#clip0_3595_201)">
<path d="M2.02778e-05 8.0141V11.8751V8.0141ZM2.02778e-05 8.0141C-0.00115124 7.81861 0.0484583 7.62616 0.143993 7.45561C0.239527 7.28505 0.377712 7.14222 0.54502 7.0411C0.71478 6.93744 0.908579 6.87971 1.10739 6.87357C1.3062 6.86743 1.50319 6.9131 1.67902 7.0061L2.02778e-05 8.0141ZM19.4716 11.8751H19.25V11.8131H18.75H12.2667L13.4977 10.5816L13.851 10.228L13.4976 9.87454L12.4366 8.81354L12.0829 8.45982L11.7293 8.81371L8.73277 11.8131H8.10031L10.3727 9.53848L10.7261 9.18476L10.3724 8.83138L9.31141 7.77138L8.95768 7.41799L8.6043 7.77171L4.56677 11.8131H1.25002H0.75002V11.8751H0.50002V8.0141H0.500029L0.500011 8.0111C0.499359 7.90219 0.526998 7.79497 0.580223 7.69995C0.633448 7.60492 0.710434 7.52535 0.803647 7.46901L0.80365 7.46902L0.805593 7.46783C0.901351 7.40936 1.01067 7.37679 1.12281 7.37333C1.23496 7.36987 1.34608 7.39563 1.44526 7.44809L1.44679 7.44889C2.27996 7.88587 3.2198 8.0781 4.15764 8.00335C5.09548 7.92861 5.99301 7.58994 6.74646 7.02652L6.77123 7.00799L6.79354 6.98655C7.14775 6.64603 7.48364 6.28694 7.79978 5.91081L8.06962 5.58976L7.80043 5.26817L6.78343 4.05317L6.78345 4.05315L6.78027 4.04943C6.75924 4.02479 6.74859 3.99296 6.75057 3.96062C6.75255 3.92829 6.767 3.89799 6.79088 3.87611C6.81476 3.85422 6.84621 3.84246 6.87859 3.8433C6.91097 3.84415 6.94176 3.85753 6.96447 3.88063L6.96446 3.88064L6.96702 3.88321L8.95602 5.87721L9.02864 5.95001L9.1241 5.98824L17.4871 9.33825L17.4888 9.33891C18.0839 9.57483 18.5941 9.98462 18.9529 10.5148C19.2296 10.9238 19.4063 11.3897 19.4716 11.8751ZM0.50002 15.5001V14.5001H19.5V15.5001H0.50002Z" fill="#0F1A1C" stroke="#0F1A1C"/>
</g>
<defs>
<clipPath id="clip0_3595_201">
<rect width="20" height="20" fill="white"/>
</clipPath>
</defs>
</svg>
