<svg width="20" height="20" viewBox="0 0 20 20" fill="none" xmlns="http://www.w3.org/2000/svg">
<g clip-path="url(#clip0_1578_259)">
<path d="M14.8902 19.0001H5.19017C4.88389 19.0033 4.58842 18.8871 4.36631 18.6762C4.1442 18.4652 4.01289 18.1762 4.00017 17.8701V8.91415L3.87017 9.02915C3.65298 9.21948 3.37193 9.32079 3.08324 9.31282C2.79456 9.30485 2.51953 9.18818 2.31317 8.98615L0.340173 7.06115C0.233648 6.95781 0.148722 6.83434 0.0903304 6.6979C0.031939 6.56146 0.00124677 6.41477 3.72022e-05 6.26637C-0.00117237 6.11796 0.0271249 5.97079 0.0832845 5.83342C0.139444 5.69605 0.222346 5.5712 0.327173 5.46615L4.41217 1.34015C4.62876 1.12312 4.92257 1.00085 5.22917 1.00015H6.86617C7.13327 0.995836 7.3931 1.08722 7.5987 1.25779C7.80429 1.42835 7.94209 1.66684 7.98717 1.93015C8.07621 2.39884 8.32601 2.82178 8.69349 3.12602C9.06097 3.43027 9.52309 3.59674 10.0002 3.59674C10.4773 3.59674 10.9394 3.43027 11.3069 3.12602C11.6743 2.82178 11.9241 2.39884 12.0132 1.93015C12.0583 1.66684 12.1961 1.42835 12.4016 1.25779C12.6072 1.08722 12.8671 0.995836 13.1342 1.00015H14.7712C15.0778 1.00085 15.3716 1.12312 15.5882 1.34015L19.6742 5.46715C19.7788 5.57225 19.8615 5.69708 19.9175 5.8344C19.9734 5.97172 20.0016 6.11879 20.0003 6.26707C19.999 6.41536 19.9683 6.56191 19.9099 6.69822C19.8515 6.83453 19.7666 6.95789 19.6602 7.06115L17.6602 9.01315C17.4667 9.20076 17.2138 9.31478 16.9451 9.33541C16.6764 9.35605 16.409 9.28202 16.1892 9.12615L16.0002 8.95115V17.8701C16.0031 18.0177 15.9765 18.1643 15.922 18.3014C15.8676 18.4385 15.7862 18.5633 15.6828 18.6686C15.5794 18.7738 15.4561 18.8574 15.3199 18.9143C15.1838 18.9713 15.0377 19.0004 14.8902 19.0001ZM5.25017 6.12915V17.7521H14.7502V6.08615L16.8572 8.04815L18.7002 6.25515L14.7002 2.21915L13.2272 2.24815C13.0683 2.98574 12.6614 3.64661 12.0744 4.12064C11.4874 4.59466 10.7557 4.85322 10.0012 4.85322C9.24666 4.85322 8.51494 4.59466 7.92792 4.12064C7.34091 3.64661 6.93406 2.98574 6.77517 2.24815H5.22917L1.30017 6.25515L3.11417 8.02515L5.25017 6.12915Z" fill="#0F1A1C"/>
</g>
<defs>
<clipPath id="clip0_1578_259">
<rect width="20" height="20" fill="white"/>
</clipPath>
</defs>
</svg>
