<svg width="20" height="20" viewBox="0 0 20 20" fill="none" xmlns="http://www.w3.org/2000/svg">
<mask id="path-1-inside-1_1581_872" fill="white">
<path d="M3.625 6.25C3.86216 6.24688 4.09774 6.21087 4.325 6.143C4.11282 6.60837 4.00204 7.11355 4 7.625V8.25H5.25V7.625C5.24964 7.31272 5.31133 7.00348 5.4315 6.71525C5.55167 6.42702 5.72791 6.16554 5.95 5.946C6.40443 5.50667 7.01293 5.26292 7.64499 5.26704C8.27705 5.27115 8.88233 5.52279 9.331 5.968L10.848 7.335L11.685 6.406L10.188 5.062C9.65803 4.55708 8.99067 4.22002 8.26975 4.09316C7.54883 3.96631 6.8065 4.05531 6.136 4.349C6.20812 4.11429 6.2465 3.87052 6.25 3.625C6.25 3.10583 6.09605 2.59831 5.80761 2.16663C5.51917 1.73495 5.1092 1.3985 4.62954 1.19982C4.14989 1.00114 3.62209 0.949154 3.11289 1.05044C2.60369 1.15173 2.13596 1.40173 1.76885 1.76885C1.40173 2.13596 1.15173 2.60369 1.05044 3.11289C0.949154 3.62209 1.00114 4.14989 1.19982 4.62954C1.3985 5.1092 1.73495 5.51917 2.16663 5.80761C2.59831 6.09605 3.10583 6.25 3.625 6.25ZM3.625 2.25C3.89695 2.25 4.16279 2.33064 4.38891 2.48173C4.61503 2.63282 4.79127 2.84756 4.89534 3.09881C4.99941 3.35006 5.02664 3.62653 4.97358 3.89325C4.92053 4.15997 4.78957 4.40498 4.59727 4.59727C4.40498 4.78957 4.15997 4.92053 3.89325 4.97358C3.62653 5.02664 3.35006 4.99941 3.09881 4.89534C2.84756 4.79127 2.63282 4.61503 2.48173 4.38891C2.33064 4.16279 2.25 3.89695 2.25 3.625C2.25053 3.26049 2.39557 2.91106 2.65331 2.65331C2.91106 2.39557 3.26049 2.25053 3.625 2.25ZM14.055 5.95C14.277 6.16964 14.4531 6.43114 14.5733 6.71935C14.6934 7.00756 14.7552 7.31675 14.755 7.629C14.7543 7.94586 14.6904 8.2594 14.5672 8.55129C14.4439 8.84318 14.2636 9.10757 14.037 9.329L12.67 10.845L13.599 11.682L14.942 10.189C15.4634 9.67086 15.8137 9.00551 15.9458 8.28239C16.078 7.55927 15.9855 6.81304 15.681 6.144C15.9083 6.21187 16.1438 6.24788 16.381 6.251C16.8999 6.24981 17.4068 6.09488 17.8376 5.80576C18.2685 5.51665 18.604 5.10633 18.8018 4.62663C18.9996 4.14692 19.0508 3.61937 18.9489 3.11059C18.847 2.60181 18.5966 2.13464 18.2294 1.76809C17.8621 1.40154 17.3945 1.15204 16.8855 1.05113C16.3766 0.950217 15.8491 1.00241 15.3698 1.20111C14.8904 1.39981 14.4808 1.73611 14.1925 2.16753C13.9042 2.59894 13.7502 3.10612 13.75 3.625C13.7531 3.86216 13.7891 4.09774 13.857 4.325C13.3916 4.11294 12.8864 4.00216 12.375 4H11.75V5.25H12.375C12.6871 5.24931 12.9963 5.31046 13.2846 5.42992C13.573 5.54938 13.8348 5.72479 14.055 5.946V5.95ZM16.375 2.25C16.647 2.25 16.9128 2.33064 17.1389 2.48173C17.365 2.63282 17.5413 2.84756 17.6453 3.09881C17.7494 3.35006 17.7766 3.62653 17.7236 3.89325C17.6705 4.15997 17.5396 4.40498 17.3473 4.59727C17.155 4.78957 16.91 4.92053 16.6433 4.97358C16.3765 5.02664 16.1001 4.99941 15.8488 4.89534C15.5976 4.79127 15.3828 4.61503 15.2317 4.38891C15.0806 4.16279 15 3.89695 15 3.625C15.0005 3.26049 15.1456 2.91106 15.4033 2.65331C15.6611 2.39557 16.0105 2.25053 16.375 2.25ZM16.375 13.75C16.1378 13.7531 15.9023 13.7891 15.675 13.857C15.8872 13.3916 15.998 12.8865 16 12.375V11.75H14.75V12.375C14.7504 12.6873 14.6887 12.9965 14.5685 13.2848C14.4483 13.573 14.2721 13.8345 14.05 14.054C13.5956 14.4933 12.9871 14.7371 12.355 14.733C11.723 14.7289 11.1177 14.4772 10.669 14.032L9.156 12.665L8.319 13.594L9.812 14.938C10.3304 15.4591 10.9958 15.809 11.7189 15.9408C12.442 16.0725 13.1882 15.9798 13.857 15.675C13.7893 15.9023 13.7533 16.1379 13.75 16.375C13.75 16.8942 13.904 17.4017 14.1924 17.8334C14.4808 18.2651 14.8908 18.6015 15.3705 18.8002C15.8501 18.9989 16.3779 19.0508 16.8871 18.9496C17.3963 18.8483 17.864 18.5983 18.2312 18.2312C18.5983 17.864 18.8483 17.3963 18.9496 16.8871C19.0508 16.3779 18.9989 15.8501 18.8002 15.3705C18.6015 14.8908 18.2651 14.4808 17.8334 14.1924C17.4017 13.904 16.8942 13.75 16.375 13.75ZM16.375 17.75C16.1031 17.75 15.8372 17.6694 15.6111 17.5183C15.385 17.3672 15.2087 17.1524 15.1047 16.9012C15.0006 16.6499 14.9734 16.3735 15.0264 16.1068C15.0795 15.84 15.2104 15.595 15.4027 15.4027C15.595 15.2104 15.84 15.0795 16.1068 15.0264C16.3735 14.9734 16.6499 15.0006 16.9012 15.1047C17.1524 15.2087 17.3672 15.385 17.5183 15.6111C17.6694 15.8372 17.75 16.1031 17.75 16.375C17.7495 16.7395 17.6044 17.0889 17.3467 17.3467C17.0889 17.6044 16.7395 17.7495 16.375 17.75ZM5.945 14.05C5.72305 13.8304 5.54689 13.5689 5.42673 13.2807C5.30657 12.9924 5.2448 12.6833 5.245 12.371C5.2457 12.0541 5.30956 11.7406 5.43284 11.4487C5.55612 11.1568 5.73635 10.8924 5.963 10.671L7.335 9.156L6.406 8.319L5.062 9.812C4.54074 10.3303 4.19062 10.9957 4.05869 11.7188C3.92676 12.4419 4.01935 13.1881 4.324 13.857C4.09674 13.7891 3.86116 13.7531 3.624 13.75C3.10487 13.7502 2.59745 13.9043 2.1659 14.1929C1.73435 14.4814 1.39806 14.8915 1.19953 15.3712C1.001 15.8508 0.949163 16.3786 1.05056 16.8877C1.15196 17.3969 1.40205 17.8645 1.7692 18.2315C2.13635 18.5985 2.60408 18.8484 3.11326 18.9496C3.62243 19.0508 4.15018 18.9988 4.62978 18.8001C5.10937 18.6014 5.51928 18.2649 5.80768 17.8333C6.09607 17.4016 6.25 16.8941 6.25 16.375C6.24688 16.1378 6.21087 15.9023 6.143 15.675C6.60841 15.8871 7.11356 15.9978 7.625 16H8.25V14.75H7.625C7.31288 14.7507 7.00372 14.6895 6.71537 14.5701C6.42702 14.4506 6.16519 14.2752 5.945 14.054V14.05ZM3.625 17.75C3.35305 17.75 3.08721 17.6694 2.86109 17.5183C2.63497 17.3672 2.45874 17.1524 2.35467 16.9012C2.2506 16.6499 2.22337 16.3735 2.27642 16.1068C2.32948 15.84 2.46043 15.595 2.65273 15.4027C2.84503 15.2104 3.09003 15.0795 3.35675 15.0264C3.62348 14.9734 3.89994 15.0006 4.15119 15.1047C4.40244 15.2087 4.61718 15.385 4.76827 15.6111C4.91936 15.8372 5 16.1031 5 16.375C4.99947 16.7395 4.85444 17.0889 4.59669 17.3467C4.33894 17.6044 3.98951 17.7495 3.625 17.75Z"/>
</mask>
<path d="M3.625 6.25C3.86216 6.24688 4.09774 6.21087 4.325 6.143C4.11282 6.60837 4.00204 7.11355 4 7.625V8.25H5.25V7.625C5.24964 7.31272 5.31133 7.00348 5.4315 6.71525C5.55167 6.42702 5.72791 6.16554 5.95 5.946C6.40443 5.50667 7.01293 5.26292 7.64499 5.26704C8.27705 5.27115 8.88233 5.52279 9.331 5.968L10.848 7.335L11.685 6.406L10.188 5.062C9.65803 4.55708 8.99067 4.22002 8.26975 4.09316C7.54883 3.96631 6.8065 4.05531 6.136 4.349C6.20812 4.11429 6.2465 3.87052 6.25 3.625C6.25 3.10583 6.09605 2.59831 5.80761 2.16663C5.51917 1.73495 5.1092 1.3985 4.62954 1.19982C4.14989 1.00114 3.62209 0.949154 3.11289 1.05044C2.60369 1.15173 2.13596 1.40173 1.76885 1.76885C1.40173 2.13596 1.15173 2.60369 1.05044 3.11289C0.949154 3.62209 1.00114 4.14989 1.19982 4.62954C1.3985 5.1092 1.73495 5.51917 2.16663 5.80761C2.59831 6.09605 3.10583 6.25 3.625 6.25ZM3.625 2.25C3.89695 2.25 4.16279 2.33064 4.38891 2.48173C4.61503 2.63282 4.79127 2.84756 4.89534 3.09881C4.99941 3.35006 5.02664 3.62653 4.97358 3.89325C4.92053 4.15997 4.78957 4.40498 4.59727 4.59727C4.40498 4.78957 4.15997 4.92053 3.89325 4.97358C3.62653 5.02664 3.35006 4.99941 3.09881 4.89534C2.84756 4.79127 2.63282 4.61503 2.48173 4.38891C2.33064 4.16279 2.25 3.89695 2.25 3.625C2.25053 3.26049 2.39557 2.91106 2.65331 2.65331C2.91106 2.39557 3.26049 2.25053 3.625 2.25ZM14.055 5.95C14.277 6.16964 14.4531 6.43114 14.5733 6.71935C14.6934 7.00756 14.7552 7.31675 14.755 7.629C14.7543 7.94586 14.6904 8.2594 14.5672 8.55129C14.4439 8.84318 14.2636 9.10757 14.037 9.329L12.67 10.845L13.599 11.682L14.942 10.189C15.4634 9.67086 15.8137 9.00551 15.9458 8.28239C16.078 7.55927 15.9855 6.81304 15.681 6.144C15.9083 6.21187 16.1438 6.24788 16.381 6.251C16.8999 6.24981 17.4068 6.09488 17.8376 5.80576C18.2685 5.51665 18.604 5.10633 18.8018 4.62663C18.9996 4.14692 19.0508 3.61937 18.9489 3.11059C18.847 2.60181 18.5966 2.13464 18.2294 1.76809C17.8621 1.40154 17.3945 1.15204 16.8855 1.05113C16.3766 0.950217 15.8491 1.00241 15.3698 1.20111C14.8904 1.39981 14.4808 1.73611 14.1925 2.16753C13.9042 2.59894 13.7502 3.10612 13.75 3.625C13.7531 3.86216 13.7891 4.09774 13.857 4.325C13.3916 4.11294 12.8864 4.00216 12.375 4H11.75V5.25H12.375C12.6871 5.24931 12.9963 5.31046 13.2846 5.42992C13.573 5.54938 13.8348 5.72479 14.055 5.946V5.95ZM16.375 2.25C16.647 2.25 16.9128 2.33064 17.1389 2.48173C17.365 2.63282 17.5413 2.84756 17.6453 3.09881C17.7494 3.35006 17.7766 3.62653 17.7236 3.89325C17.6705 4.15997 17.5396 4.40498 17.3473 4.59727C17.155 4.78957 16.91 4.92053 16.6433 4.97358C16.3765 5.02664 16.1001 4.99941 15.8488 4.89534C15.5976 4.79127 15.3828 4.61503 15.2317 4.38891C15.0806 4.16279 15 3.89695 15 3.625C15.0005 3.26049 15.1456 2.91106 15.4033 2.65331C15.6611 2.39557 16.0105 2.25053 16.375 2.25ZM16.375 13.75C16.1378 13.7531 15.9023 13.7891 15.675 13.857C15.8872 13.3916 15.998 12.8865 16 12.375V11.75H14.75V12.375C14.7504 12.6873 14.6887 12.9965 14.5685 13.2848C14.4483 13.573 14.2721 13.8345 14.05 14.054C13.5956 14.4933 12.9871 14.7371 12.355 14.733C11.723 14.7289 11.1177 14.4772 10.669 14.032L9.156 12.665L8.319 13.594L9.812 14.938C10.3304 15.4591 10.9958 15.809 11.7189 15.9408C12.442 16.0725 13.1882 15.9798 13.857 15.675C13.7893 15.9023 13.7533 16.1379 13.75 16.375C13.75 16.8942 13.904 17.4017 14.1924 17.8334C14.4808 18.2651 14.8908 18.6015 15.3705 18.8002C15.8501 18.9989 16.3779 19.0508 16.8871 18.9496C17.3963 18.8483 17.864 18.5983 18.2312 18.2312C18.5983 17.864 18.8483 17.3963 18.9496 16.8871C19.0508 16.3779 18.9989 15.8501 18.8002 15.3705C18.6015 14.8908 18.2651 14.4808 17.8334 14.1924C17.4017 13.904 16.8942 13.75 16.375 13.75ZM16.375 17.75C16.1031 17.75 15.8372 17.6694 15.6111 17.5183C15.385 17.3672 15.2087 17.1524 15.1047 16.9012C15.0006 16.6499 14.9734 16.3735 15.0264 16.1068C15.0795 15.84 15.2104 15.595 15.4027 15.4027C15.595 15.2104 15.84 15.0795 16.1068 15.0264C16.3735 14.9734 16.6499 15.0006 16.9012 15.1047C17.1524 15.2087 17.3672 15.385 17.5183 15.6111C17.6694 15.8372 17.75 16.1031 17.75 16.375C17.7495 16.7395 17.6044 17.0889 17.3467 17.3467C17.0889 17.6044 16.7395 17.7495 16.375 17.75ZM5.945 14.05C5.72305 13.8304 5.54689 13.5689 5.42673 13.2807C5.30657 12.9924 5.2448 12.6833 5.245 12.371C5.2457 12.0541 5.30956 11.7406 5.43284 11.4487C5.55612 11.1568 5.73635 10.8924 5.963 10.671L7.335 9.156L6.406 8.319L5.062 9.812C4.54074 10.3303 4.19062 10.9957 4.05869 11.7188C3.92676 12.4419 4.01935 13.1881 4.324 13.857C4.09674 13.7891 3.86116 13.7531 3.624 13.75C3.10487 13.7502 2.59745 13.9043 2.1659 14.1929C1.73435 14.4814 1.39806 14.8915 1.19953 15.3712C1.001 15.8508 0.949163 16.3786 1.05056 16.8877C1.15196 17.3969 1.40205 17.8645 1.7692 18.2315C2.13635 18.5985 2.60408 18.8484 3.11326 18.9496C3.62243 19.0508 4.15018 18.9988 4.62978 18.8001C5.10937 18.6014 5.51928 18.2649 5.80768 17.8333C6.09607 17.4016 6.25 16.8941 6.25 16.375C6.24688 16.1378 6.21087 15.9023 6.143 15.675C6.60841 15.8871 7.11356 15.9978 7.625 16H8.25V14.75H7.625C7.31288 14.7507 7.00372 14.6895 6.71537 14.5701C6.42702 14.4506 6.16519 14.2752 5.945 14.054V14.05ZM3.625 17.75C3.35305 17.75 3.08721 17.6694 2.86109 17.5183C2.63497 17.3672 2.45874 17.1524 2.35467 16.9012C2.2506 16.6499 2.22337 16.3735 2.27642 16.1068C2.32948 15.84 2.46043 15.595 2.65273 15.4027C2.84503 15.2104 3.09003 15.0795 3.35675 15.0264C3.62348 14.9734 3.89994 15.0006 4.15119 15.1047C4.40244 15.2087 4.61718 15.385 4.76827 15.6111C4.91936 15.8372 5 16.1031 5 16.375C4.99947 16.7395 4.85444 17.0889 4.59669 17.3467C4.33894 17.6044 3.98951 17.7495 3.625 17.75Z" fill="#0F1A1C" stroke="#0F1A1C" stroke-width="2" mask="url(#path-1-inside-1_1581_872)"/>
</svg>
