<svg width="20" height="20" viewBox="0 0 20 20" fill="none" xmlns="http://www.w3.org/2000/svg">
<path d="M12.1625 6.5H0.999513V4.5H12.1625C12.4027 3.69434 12.9249 3.00205 13.6336 2.54973C14.3422 2.09742 15.19 1.91529 16.0219 2.03667C16.8538 2.15804 17.6142 2.5748 18.1641 3.21074C18.714 3.84667 19.0166 4.65929 19.0166 5.5C19.0166 6.34071 18.714 7.15333 18.1641 7.78927C17.6142 8.4252 16.8538 8.84196 16.0219 8.96333C15.19 9.08471 14.3422 8.90258 13.6336 8.45027C12.9249 7.99795 12.4027 7.30566 12.1625 6.5ZM4.49951 11C3.84969 10.9968 3.21182 11.1746 2.65733 11.5135C2.10284 11.8523 1.65364 12.3389 1.36004 12.9186C1.06643 13.4983 0.940018 14.1483 0.994952 14.7958C1.04989 15.4433 1.284 16.0628 1.67107 16.5847C2.05814 17.1067 2.58289 17.5106 3.18653 17.7512C3.79018 17.9918 4.44889 18.0596 5.08889 17.947C5.72889 17.8344 6.32491 17.5459 6.81018 17.1137C7.29546 16.6815 7.65084 16.1227 7.83651 15.5H18.9595V13.5H7.83651C7.62285 12.78 7.18288 12.148 6.5818 11.6977C5.98073 11.2474 5.25055 11.0027 4.49951 11Z" fill="#0F1A1C"/>
</svg>
