<svg width="20" height="20" viewBox="0 0 20 20" fill="none" xmlns="http://www.w3.org/2000/svg">
<path d="M19.6742 5.46714L15.5882 1.34014C15.3716 1.12312 15.0778 1.00085 14.7712 1.00014H13.1342C12.8669 0.995872 12.607 1.0874 12.4014 1.25817C12.1957 1.42893 12.058 1.66766 12.0132 1.93114C11.9241 2.39984 11.6743 2.82278 11.3069 3.12702C10.9394 3.43126 10.4773 3.59774 10.0002 3.59774C9.5231 3.59774 9.06097 3.43126 8.69349 3.12702C8.32601 2.82278 8.07621 2.39984 7.98717 1.93114C7.9423 1.66766 7.8046 1.42893 7.59899 1.25817C7.39337 1.0874 7.13342 0.995872 6.86617 1.00014H5.22917C4.92257 1.00085 4.62876 1.12312 4.41217 1.34014L0.326175 5.46714C0.221564 5.57225 0.138868 5.69708 0.0828834 5.8344C0.0268988 5.97171 -0.00125918 6.11878 4.31995e-05 6.26707C0.00134558 6.41535 0.0320824 6.56191 0.0904702 6.69822C0.148858 6.83453 0.233734 6.95789 0.340175 7.06114L2.31317 8.98614C2.5198 9.18796 2.79486 9.30455 3.08357 9.3127C3.37229 9.32086 3.65349 9.21997 3.87117 9.03014L4.00017 8.91514V17.8701C4.0129 18.1767 4.14463 18.4662 4.36739 18.6772C4.59015 18.8882 4.88638 19.0041 5.19317 19.0001H14.8932C15.0405 19 15.1863 18.9706 15.322 18.9135C15.4578 18.8563 15.5808 18.7727 15.6839 18.6675C15.787 18.5623 15.868 18.4376 15.9223 18.3007C15.9766 18.1638 16.0031 18.0174 16.0002 17.8701V8.95114L16.1872 9.12414C16.4063 9.28206 16.6741 9.35752 16.9434 9.33722C17.2127 9.31691 17.4662 9.20213 17.6592 9.01314L19.6592 7.06114C19.7656 6.95789 19.8505 6.83453 19.9089 6.69822C19.9673 6.56191 19.998 6.41535 19.9993 6.26707C20.0006 6.11878 19.9725 5.97171 19.9165 5.8344C19.8605 5.69708 19.7778 5.57225 19.6732 5.46714H19.6742Z" fill="#0F1A1C"/>
</svg>
