<svg width="20" height="20" viewBox="0 0 20 20" fill="none" xmlns="http://www.w3.org/2000/svg">
<path d="M9.99316 4.12495L9.99315 4.12514L10.0068 4.12495C12.1945 4.09501 14.3702 4.45165 16.4337 5.17842L16.8955 5.35473L16.5385 6.28924L16.0727 6.11102L16.0659 6.10841L16.059 6.10601C14.1126 5.4256 12.0616 5.0935 10 5.12494C7.93841 5.0935 5.88738 5.4256 3.941 6.10601L3.93412 6.10841L3.92732 6.11102L3.46155 6.28924L3.10454 5.35473L3.56629 5.17842C5.62984 4.45165 7.80554 4.09501 9.99316 4.12495ZM19.485 5.767V6.75373L19.5 6.74273V8.588C19.5 9.26105 19.0841 9.94933 18.1699 10.5821C17.3099 11.1775 16.0686 11.6767 14.5391 12.0129C14.1751 11.6529 13.7482 11.3614 13.2786 11.1535C12.7192 10.9057 12.1126 10.7824 11.5008 10.792C11.4171 10.7921 11.3335 10.7945 11.25 10.7993V10.234V9.7198L10.736 9.7342C10.6889 9.73551 10.6423 9.73688 10.5962 9.73824C10.3921 9.74425 10.1965 9.75 10 9.75C9.80157 9.75 9.60252 9.74413 9.3969 9.73806C9.35296 9.73676 9.30871 9.73546 9.26411 9.7342L8.75 9.71969V10.234V10.7993C8.66653 10.7945 8.5829 10.7921 8.49922 10.792C7.88744 10.7824 7.28084 10.9057 6.72136 11.1535C6.25181 11.3614 5.82488 11.6529 5.46094 12.0129C3.9314 11.6767 2.69015 11.1775 1.83008 10.5821C0.915928 9.94933 0.5 9.26105 0.5 8.588V6.881L0.570474 6.94605L0.512434 5.72722C0.511103 5.69927 0.508452 5.67499 0.506207 5.65717C0.504497 5.64359 0.502376 5.62902 0.501213 5.62103C0.500993 5.61951 0.500807 5.61824 0.500665 5.61725C0.500423 5.61556 0.500216 5.61409 0.50004 5.61281C0.506714 4.60031 1.34462 3.57644 3.07237 2.77745C4.77684 1.98922 7.20071 1.5 10 1.5C12.7993 1.5 15.2232 1.98922 16.9276 2.77745C18.6536 3.57561 19.4915 4.59816 19.4999 5.60963L19.4987 5.61721C19.4971 5.62732 19.4936 5.64888 19.4909 5.67221C19.4879 5.69673 19.485 5.72934 19.485 5.767ZM11.502 13.167L11.502 13.1672L11.5149 13.1669C11.7861 13.1615 12.0555 13.2133 12.3054 13.3188C12.5553 13.4244 12.7803 13.5813 12.9656 13.7794C13.1509 13.9776 13.2925 14.2125 13.3811 14.4689C13.4697 14.7253 13.5033 14.9975 13.4799 15.2678L13.478 15.2893V15.311C13.478 16.523 12.749 17.5008 11.9208 18.2167C11.1012 18.9252 10.2607 19.3092 10.205 19.3341C10.1411 19.3625 10.0719 19.3771 10.002 19.3771C9.93219 19.3771 9.86316 19.3625 9.79935 19.3342C9.73941 19.3074 8.8988 18.9229 8.07969 18.215C7.25096 17.4987 6.522 16.521 6.522 15.309V15.2875L6.52016 15.2662C6.49694 14.996 6.53078 14.724 6.61949 14.4678C6.7082 14.2116 6.8498 13.9768 7.0351 13.7789C7.22039 13.5809 7.44524 13.4241 7.69505 13.3187C7.94487 13.2133 8.21406 13.1616 8.48515 13.1669L8.48515 13.1671L8.498 13.167C8.93135 13.1644 9.35376 13.303 9.70128 13.562L10 13.7845L10.2987 13.562C10.6462 13.303 11.0686 13.1644 11.502 13.167ZM10 1.75C7.36967 1.75 5.11451 2.20204 3.49898 2.87605C2.69287 3.21237 2.02504 3.61268 1.55015 4.05789C1.08073 4.49797 0.75 5.03164 0.75 5.625C0.75 6.21766 1.08106 6.75086 1.55024 7.19051C2.02504 7.63542 2.69277 8.03583 3.49885 8.3724C5.11433 9.04691 7.36951 9.5 10 9.5C12.6305 9.5 14.8857 9.04691 16.5011 8.3724C17.3072 8.03583 17.975 7.63542 18.4498 7.19051C18.9189 6.75086 19.25 6.21766 19.25 5.625C19.25 5.03234 18.9189 4.49914 18.4498 4.05949C17.975 3.61458 17.3072 3.21417 16.5011 2.8776C14.8857 2.20309 12.6305 1.75 10 1.75Z" fill="#0F1A1C" stroke="#0F1A1C"/>
</svg>
