<svg width="20" height="20" viewBox="0 0 20 20" fill="none" xmlns="http://www.w3.org/2000/svg">
<g clip-path="url(#clip0_3596_150)">
<path d="M3.50009 3.87381V8.0002V8.5002H4.00009H5.50009H6.00009V8.0002V3.20385L7.50009 2.80185V7.20146L6.32077 7.51722L6.45009 8.5002H18.3751C18.4082 8.5002 18.44 8.51337 18.4635 8.53681C18.4869 8.56026 18.5001 8.59205 18.5001 8.6252V17.3744C18.4992 17.938 18.275 18.4782 17.8765 18.8766C17.478 19.2751 16.9378 19.4993 16.3743 19.5002H3.62585C3.06232 19.4993 2.52212 19.2751 2.12365 18.8766C1.72525 18.4782 1.50102 17.9382 1.50009 17.3747V8.67091L1.53426 8.54722L1.49905 8.41582L0.530057 4.79881L0.529674 4.7974C0.525436 4.78177 0.524329 4.76545 0.526415 4.74939C0.528501 4.73332 0.533739 4.71783 0.541829 4.7038C0.549919 4.68976 0.560701 4.67746 0.573556 4.66761C0.586412 4.65775 0.601088 4.65054 0.616742 4.64637L0.617491 4.64617L3.50009 3.87381ZM17.2601 4.45657L17.2604 4.45761C17.2646 4.47327 17.2657 4.48961 17.2636 4.50569C17.2615 4.52179 17.2562 4.53729 17.2481 4.55132C17.24 4.56536 17.2291 4.57766 17.2162 4.58749C17.2033 4.59733 17.1886 4.60452 17.1729 4.60864L17.1706 4.60927L14.0001 5.45946V1.05977L16.0711 0.504269C16.0712 0.504256 16.0712 0.504244 16.0713 0.504231C16.1035 0.495671 16.1377 0.500212 16.1666 0.516868C16.1955 0.53352 16.2165 0.560923 16.2252 0.59308C16.2253 0.593131 16.2253 0.593181 16.2253 0.593232L17.2601 4.45657ZM10.0001 6.53156V2.13185L11.5001 1.72985V6.12956L10.0001 6.53156Z" fill="#0F1A1C" stroke="#0F1A1C"/>
</g>
<defs>
<clipPath id="clip0_3596_150">
<rect width="20" height="20" fill="white"/>
</clipPath>
</defs>
</svg>
