<svg width="20" height="20" viewBox="0 0 20 20" fill="none" xmlns="http://www.w3.org/2000/svg">
<path d="M18.2758 1H14.4198L14.0688 1.033L4.47882 11.594L2.44282 9.558L1.55882 10.442L9.55882 18.442L10.4428 17.558L8.40682 15.522L18.7568 6.122L19.0008 5.863V1.725C19.0006 1.5328 18.9241 1.34855 18.7882 1.21264C18.6523 1.07673 18.468 1.00026 18.2758 1ZM17.7508 5.348L7.52182 14.636L5.36382 12.479L14.6528 2.25H17.7528L17.7508 5.348ZM5.05882 16.058L5.94282 16.942L3.94282 18.942C3.55953 19.3197 3.04247 19.5306 2.50435 19.5287C1.96623 19.5267 1.45069 19.3121 1.07012 18.9317C0.68954 18.5513 0.474787 18.0358 0.472672 17.4977C0.470557 16.9596 0.681251 16.4424 1.05882 16.059L3.05882 14.059L3.94282 14.943L1.94282 16.943C1.79523 17.0914 1.71238 17.2922 1.71238 17.5015C1.71238 17.7108 1.79523 17.9116 1.94282 18.06C2.0936 18.2026 2.29327 18.2821 2.50082 18.2821C2.70837 18.2821 2.90804 18.2026 3.05882 18.06L5.05882 16.058Z" fill="#0F1A1C"/>
</svg>
