<svg width="20" height="20" viewBox="0 0 20 20" fill="none" xmlns="http://www.w3.org/2000/svg">
<path d="M18.6285 6.72909L13.2635 1.36509C12.396 0.497899 11.2196 0.0107422 9.99295 0.0107422C8.76634 0.0107422 7.58995 0.497899 6.72245 1.36509L1.35545 6.72909C0.489909 7.59766 0.00390625 8.77388 0.00390625 10.0001C0.00390625 11.2263 0.489909 12.4025 1.35545 13.2711L6.72245 18.6361C7.59008 19.503 8.76642 19.99 9.99295 19.99C11.2195 19.99 12.3958 19.503 13.2635 18.6361L18.6275 13.2711C19.4947 12.4034 19.9819 11.2269 19.9819 10.0001C19.9819 8.77332 19.4947 7.59676 18.6275 6.72909H18.6285ZM11.1615 5.00009L10.8815 11.7471H9.11745L8.83745 5.00009H11.1615ZM11.1245 14.5361C11.014 14.7309 10.8548 14.8935 10.6625 15.0081C10.4646 15.1274 10.2374 15.189 10.0065 15.1861C9.781 15.1861 9.55949 15.1269 9.36415 15.0143C9.16881 14.9018 9.00649 14.7398 8.89347 14.5447C8.78046 14.3497 8.72071 14.1283 8.72023 13.9028C8.71975 13.6774 8.77855 13.4558 8.89073 13.2602C9.00292 13.0646 9.16454 12.902 9.3594 12.7886C9.55427 12.6752 9.77551 12.615 10.001 12.6141C10.2264 12.6132 10.4482 12.6715 10.6439 12.7833C10.8397 12.8951 11.0027 13.0565 11.1165 13.2511C11.2332 13.4473 11.2938 13.6718 11.2915 13.9001C11.2929 14.1231 11.2353 14.3425 11.1245 14.5361Z" fill="#0F1A1C"/>
</svg>
