<svg width="20" height="20" viewBox="0 0 20 20" fill="none" xmlns="http://www.w3.org/2000/svg">
<g clip-path="url(#clip0_473_67)">
<path d="M19.613 3.82501C19.5452 3.64713 19.4339 3.48906 19.2893 3.36519C19.1447 3.24133 18.9715 3.15561 18.7853 3.11585C18.5991 3.07609 18.4059 3.08355 18.2234 3.13755C18.0408 3.19154 17.8746 3.29037 17.74 3.42501L14.807 6.35901C14.6501 6.50924 14.4413 6.59311 14.224 6.59311C14.0068 6.59311 13.7979 6.50924 13.641 6.35901C13.5644 6.28272 13.5035 6.19203 13.462 6.09215C13.4205 5.99227 13.3991 5.88517 13.3991 5.77701C13.3991 5.66884 13.4205 5.56174 13.462 5.46187C13.5035 5.36199 13.5644 5.2713 13.641 5.19501L16.575 2.26001C16.7107 2.12452 16.81 1.95697 16.8636 1.7729C16.9173 1.58882 16.9236 1.39418 16.882 1.20701C16.8426 1.02204 16.7572 0.850005 16.6336 0.706843C16.51 0.563681 16.3523 0.454017 16.175 0.388007C15.0166 -0.0545237 13.7424 -0.0918845 12.56 0.282007C11.502 0.611243 10.5598 1.23533 9.84389 2.08107C9.12797 2.92681 8.66804 3.95914 8.51804 5.05701C8.42403 5.8215 8.48594 6.59711 8.70004 7.33701L0.847037 15.194C0.576055 15.4514 0.359342 15.7604 0.209673 16.1029C0.060004 16.4453 -0.0195924 16.8143 -0.0244242 17.188C-0.0292559 17.5617 0.0407749 17.9326 0.18154 18.2788C0.322305 18.625 0.530956 18.9395 0.795193 19.2038C1.05943 19.4681 1.3739 19.6769 1.72008 19.8177C2.06626 19.9586 2.43713 20.0287 2.81083 20.024C3.18454 20.0192 3.55351 19.9397 3.89601 19.7901C4.2385 19.6406 4.54759 19.4239 4.80504 19.153L12.663 11.3C13.4029 11.5161 14.179 11.5791 14.944 11.485C16.0416 11.3352 17.0736 10.8756 17.9192 10.16C18.7648 9.44447 19.3888 8.50264 19.718 7.44501C20.0941 6.26129 20.0571 4.98494 19.613 3.82501Z" fill="#0F1A1C"/>
</g>
<defs>
<clipPath id="clip0_473_67">
<rect width="20" height="20" fill="white"/>
</clipPath>
</defs>
</svg>
