<svg width="20" height="20" viewBox="0 0 20 20" fill="none" xmlns="http://www.w3.org/2000/svg">
<path d="M2.50006 8.391H2.50018L2.49994 8.37994C2.45479 6.33969 3.22015 4.36473 4.62835 2.88771C6.0336 1.41377 7.96468 0.555611 10.0001 0.500174C12.0354 0.555611 13.9665 1.41377 15.3718 2.88771C16.78 4.36473 17.5453 6.33969 17.5002 8.37994L17.5001 8.37994V8.391C17.5001 11.0733 15.8996 13.6536 14.1233 15.6776C12.3599 17.6868 10.4981 19.0636 10.1245 19.3318L10.018 19.408L9.85453 19.3159C9.43484 19.0134 7.6084 17.6503 5.87697 15.6776C4.10056 13.6536 2.50006 11.0733 2.50006 8.391ZM10.0154 0.742235L10.0001 0.741765L9.98473 0.742235C8.01061 0.80277 6.14091 1.64306 4.78499 3.07913C3.4306 4.51358 2.69907 6.42572 2.75006 8.3977C2.75263 10.8913 4.18631 13.2633 5.71997 15.1005C7.26734 16.9542 8.98729 18.347 9.69668 18.8884L10.0006 19.1204L10.3041 18.8879C11.0124 18.3453 12.7323 16.9516 14.2798 15.0979C15.8134 13.2607 17.2475 10.8894 17.2501 8.39772C17.3011 6.42573 16.5695 4.51359 15.2151 3.07913C13.8592 1.64306 11.9895 0.80277 10.0154 0.742235ZM9.99878 4.717L9.99695 4.71701C9.35834 4.72098 8.73522 4.914 8.20618 5.2717C7.67714 5.62941 7.26589 6.13578 7.02431 6.72694C6.78273 7.3181 6.72164 7.96757 6.84874 8.59341C6.97584 9.21925 7.28545 9.79343 7.7385 10.2435C8.19155 10.6936 8.76775 10.9994 9.39442 11.1224C10.0211 11.2454 10.6701 11.1801 11.2597 10.9346C11.8493 10.6891 12.3529 10.2746 12.7071 9.7432C13.0614 9.21183 13.2503 8.58745 13.2501 7.94883L13.2501 7.947C13.2466 7.08772 12.9023 6.26493 12.2927 5.65933C11.6831 5.05372 10.8581 4.7148 9.99878 4.717ZM10.0022 11.424C9.3162 11.4195 8.64689 11.212 8.07859 10.8278C7.51001 10.4433 7.06801 9.8991 6.80835 9.26376C6.54868 8.62842 6.48298 7.93041 6.61952 7.25777C6.75606 6.58514 7.08873 5.968 7.57558 5.48419C8.06242 5.00039 8.68164 4.67159 9.35512 4.53927C10.0286 4.40695 10.7262 4.47703 11.3599 4.74067C11.9936 5.00432 12.535 5.44972 12.9159 6.02069C13.2966 6.59139 13.4998 7.26199 13.5001 7.94799C13.4958 8.87236 13.1253 9.75735 12.4696 10.409C11.8139 11.0606 10.9266 11.4256 10.0022 11.424Z" fill="#0F1A1C" stroke="#0F1A1C"/>
</svg>
