<svg width="20" height="20" viewBox="0 0 20 20" fill="none" xmlns="http://www.w3.org/2000/svg">
<path d="M11.0008 2.5H10.9996L8.9996 2.5L8.99889 2.5C8.97698 2.50003 8.95545 2.49426 8.9365 2.48326C8.91754 2.47226 8.90184 2.45644 8.89099 2.43741L8.89072 2.43693L7.89099 0.687406C7.89095 0.687347 7.89092 0.687288 7.89089 0.68723C7.87455 0.658463 7.87029 0.62439 7.87903 0.592477C7.88778 0.560499 7.90889 0.533311 7.93769 0.516893C7.9665 0.500475 8.00064 0.496172 8.03262 0.504931C8.0646 0.513689 8.09179 0.534792 8.1082 0.563596L8.10835 0.563843L8.92735 1.99884L9.07126 2.251H9.3616H10.6376H10.9279L11.0718 1.99884L11.8908 0.563899C11.8908 0.56388 11.8908 0.563861 11.8908 0.563843C11.9073 0.535021 11.9346 0.513917 11.9666 0.505169C11.9986 0.496415 12.0328 0.500751 12.0617 0.517221C12.0905 0.533691 12.1117 0.560948 12.1204 0.592995C12.1292 0.625043 12.1248 0.659255 12.1084 0.688104L11.1087 2.4376C11.1086 2.43763 11.1086 2.43766 11.1086 2.43769C11.0977 2.45666 11.082 2.4724 11.0631 2.48335C11.0442 2.49431 11.0227 2.50005 11.0008 2.5ZM10.9996 3H8.9996H10.9996ZM10.0929 18.7078L10.0737 18.7294C10.0676 18.7336 10.0612 18.7372 10.0545 18.7402C10.0385 18.7474 10.0211 18.7511 10.0036 18.7511C9.98606 18.7511 9.96871 18.7474 9.95271 18.7402C9.93672 18.733 9.92243 18.7225 9.91079 18.7094L9.9103 18.7088L5.9103 14.2088L5.91024 14.2088C5.89665 14.1935 5.88704 14.175 5.88229 14.1551C5.87754 14.1352 5.87779 14.1145 5.88302 14.0947L5.88314 14.0942L8.12014 5.59324L8.12015 5.59319C8.12714 5.56663 8.14267 5.54311 8.16436 5.52626C8.18577 5.50964 8.21199 5.50043 8.23907 5.5H11.7641C11.7912 5.50043 11.8174 5.50964 11.8388 5.52626C11.8605 5.54311 11.8761 5.56663 11.883 5.59319L11.8831 5.59326L14.1201 14.0933L14.1202 14.0937C14.1254 14.1135 14.1256 14.1342 14.1209 14.1541C14.1161 14.174 14.1065 14.1925 14.093 14.2078L14.0929 14.2078L10.0929 18.7078ZM8.7186 5.751H8.3332L8.23508 6.12369L6.20508 13.8337L6.13683 14.0929L6.31493 14.2932L9.62593 18.0172L9.9996 18.4375L10.3733 18.0172L13.6843 14.2932L13.8624 14.0929L13.7941 13.8337L11.7641 6.12369L11.666 5.751H11.2806H8.7186Z" fill="#0F1A1C" stroke="#0F1A1C"/>
</svg>
