<svg width="20" height="20" viewBox="0 0 20 20" fill="none" xmlns="http://www.w3.org/2000/svg">
<g clip-path="url(#clip0_920_52)">
<path d="M10 13.229C9.91791 13.2291 9.83659 13.213 9.76074 13.1816C9.68489 13.1502 9.61599 13.1041 9.558 13.046L5.391 8.879L6.275 8L10 11.72L13.725 8L14.609 8.883L10.442 13.05C10.3837 13.1074 10.3146 13.1527 10.2388 13.1835C10.163 13.2142 10.0818 13.2296 10 13.229ZM20 10C20 8.02218 19.4135 6.08879 18.3147 4.44429C17.2159 2.7998 15.6541 1.51808 13.8268 0.761202C11.9996 0.00432521 9.98891 -0.193708 8.0491 0.192144C6.10929 0.577996 4.32746 1.5304 2.92894 2.92893C1.53041 4.32745 0.578004 6.10928 0.192152 8.04909C-0.193701 9.9889 0.00433284 11.9996 0.761209 13.8268C1.51809 15.6541 2.79981 17.2159 4.4443 18.3147C6.08879 19.4135 8.02219 20 10 20C12.6513 19.9971 15.1931 18.9426 17.0679 17.0678C18.9426 15.1931 19.9971 12.6513 20 10ZM18.75 10C18.75 11.7306 18.2368 13.4223 17.2754 14.8612C16.3139 16.3002 14.9473 17.4217 13.3485 18.0839C11.7496 18.7462 9.9903 18.9195 8.29296 18.5819C6.59563 18.2442 5.03653 17.4109 3.81282 16.1872C2.58911 14.9635 1.75575 13.4044 1.41813 11.707C1.08051 10.0097 1.25379 8.25037 1.91606 6.65152C2.57833 5.05266 3.69983 3.6861 5.13876 2.72464C6.57769 1.76318 8.26942 1.25 10 1.25C12.3198 1.25264 14.5439 2.17537 16.1843 3.81574C17.8246 5.45611 18.7474 7.68017 18.75 10Z" fill="#0F1A1C"/>
</g>
<defs>
<clipPath id="clip0_920_52">
<rect width="20" height="20" fill="white"/>
</clipPath>
</defs>
</svg>
