<svg width="20" height="20" viewBox="0 0 20 20" fill="none" xmlns="http://www.w3.org/2000/svg">
<g clip-path="url(#clip0_472_1129)">
<path d="M10.513 5.629L14.442 9.558L13.558 10.442L10.625 7.509V19H9.375V7.509L6.442 10.442L5.558 9.558L9.67 5.446L10.259 5.417L10.513 5.629ZM16.372 4.148C15.8355 2.9066 14.9449 1.85097 13.8115 1.11317C12.6781 0.375366 11.3523 -0.0118357 10 4.23592e-06C8.64768 -0.0118357 7.3219 0.375366 6.18852 1.11317C5.05514 1.85097 4.16449 2.9066 3.628 4.148C2.60708 4.37591 1.69315 4.94218 1.03457 5.75488C0.375982 6.56758 0.0113997 7.57902 0 8.625C0.0239237 9.87319 0.541791 11.061 1.44007 11.9279C2.33835 12.7949 3.54375 13.2704 4.792 13.25V12C3.87516 12.0207 2.98751 11.6771 2.32358 11.0444C1.65965 10.4118 1.27359 9.54177 1.25 8.625C1.26526 7.8131 1.5696 7.03326 2.10831 6.42563C2.64701 5.81801 3.38478 5.42243 4.189 5.31L4.553 5.25L4.676 4.9C5.0792 3.81718 5.80707 2.88537 6.76007 2.23202C7.71307 1.57867 8.84464 1.23569 10 1.25C11.1554 1.23569 12.2869 1.57867 13.2399 2.23202C14.1929 2.88537 14.9208 3.81718 15.324 4.9L15.447 5.248L15.811 5.308C16.6156 5.42049 17.3536 5.81635 17.8923 6.42439C18.4311 7.03244 18.7352 7.81275 18.75 8.625C18.7264 9.54177 18.3404 10.4118 17.6764 11.0444C17.0125 11.6771 16.1248 12.0207 15.208 12V13.25C16.4563 13.2704 17.6616 12.7949 18.5599 11.9279C19.4582 11.061 19.9761 9.87319 20 8.625C19.9886 7.57902 19.624 6.56758 18.9654 5.75488C18.3068 4.94218 17.3929 4.37591 16.372 4.148Z" fill="#0F1A1C"/>
</g>
<defs>
<clipPath id="clip0_472_1129">
<rect width="20" height="20" fill="white"/>
</clipPath>
</defs>
</svg>
