<svg width="20" height="20" viewBox="0 0 20 20" fill="none" xmlns="http://www.w3.org/2000/svg">
<path d="M18.4851 9.42922H17.4832C17.3593 7.61401 16.5732 5.90147 15.2661 4.622C13.8604 3.24604 11.9668 2.48314 10 2.50021C8.03317 2.48314 6.13961 3.24604 4.73392 4.622C3.42682 5.90147 2.64068 7.61401 2.51677 9.42922H1.51488C1.64005 7.35195 2.52956 5.38821 4.0204 3.92189C5.61321 2.35527 7.76237 1.48436 9.99645 1.50021L9.99645 1.50026L10.0035 1.50021C12.2376 1.48436 14.3868 2.35527 15.9796 3.92189C17.4704 5.38821 18.36 7.35195 18.4851 9.42922ZM4.615 10.5942V10.5943L4.62399 10.5941C4.87038 10.5897 5.11516 10.6347 5.34384 10.7266C5.57252 10.8184 5.78047 10.9551 5.95538 11.1287C6.13029 11.3023 6.26861 11.5092 6.36216 11.7372C6.45571 11.9652 6.50259 12.2096 6.50003 12.456H6.5V12.4612V15.5272H6.49994L6.50006 15.5351C6.50814 16.0459 6.31325 16.5391 5.95817 16.9064C5.60405 17.2727 5.11946 17.484 4.6102 17.4942H4.50863C4.2383 17.4899 3.98057 17.379 3.79162 17.1855C3.60198 16.9914 3.4971 16.7299 3.49997 16.4585L3.5 16.4585V16.4532L3.5 11.5442L3.5 11.5421C3.49944 11.4143 3.5248 11.2878 3.57453 11.1701C3.62425 11.0524 3.69732 10.9461 3.78932 10.8574C3.88132 10.7688 3.99033 10.6997 4.10977 10.6544C4.22921 10.6091 4.3566 10.5885 4.48423 10.5938L4.49461 10.5942H4.505H4.615ZM15.376 10.5941L15.376 10.5942H15.385H15.5H15.5095L15.519 10.5939C15.6464 10.589 15.7734 10.61 15.8925 10.6555C16.0116 10.701 16.1202 10.7701 16.2118 10.8587C16.3035 10.9473 16.3762 11.0535 16.4258 11.171C16.4753 11.2884 16.5005 11.4147 16.5 11.5421V11.5442L16.5 16.4532L16.5 16.4585C16.5029 16.7299 16.398 16.9914 16.2084 17.1855C16.0194 17.379 15.7617 17.4899 15.4914 17.4942H15.3898C14.8805 17.484 14.3959 17.2727 14.0418 16.9064C13.6867 16.5391 13.4919 16.0459 13.4999 15.5351L13.5 15.5351V15.5272V12.4612H13.5L13.5 12.456C13.4974 12.2096 13.5443 11.9652 13.6378 11.7372C13.7314 11.5092 13.8697 11.3023 14.0446 11.1287C14.2195 10.9551 14.4275 10.8184 14.6562 10.7266C14.8848 10.6347 15.1296 10.5897 15.376 10.5941ZM1.5 11.5002V16.2562H0.5V11.5002H1.5ZM19.5 16.2562H18.5V11.5002H19.5V16.2562Z" fill="#0F1A1C" stroke="#0F1A1C"/>
</svg>
