<svg width="20" height="20" viewBox="0 0 20 20" fill="none" xmlns="http://www.w3.org/2000/svg">
<path d="M4.741 10.594V10.5942L4.754 10.5938C5.29453 10.5798 5.8186 10.7805 6.21148 11.152C6.60265 11.5218 6.83203 12.031 6.85 12.5689V15.4192C6.83226 15.9571 6.60296 16.4664 6.21177 16.8363C5.81888 17.2078 5.29473 17.4084 4.75419 17.3942L4.7542 17.394H4.741H4.617V17.3939L4.60577 17.3941C4.31948 17.4006 4.04232 17.2932 3.83502 17.0957C3.62912 16.8995 3.50882 16.6301 3.5 16.346V11.6512C3.50777 11.3654 3.62778 11.0942 3.83415 10.8962C4.04175 10.6971 4.31981 10.5884 4.60742 10.5939L4.60742 10.594H4.617H4.741ZM6.59902 15.4584L6.6 15.4427V15.427V12.561V12.5451L6.59899 12.5293C6.569 12.0578 6.3549 11.6171 6.00288 11.3021C5.65405 10.99 5.19748 10.8261 4.7301 10.845H4.63157C4.42352 10.8351 4.21881 10.9024 4.05714 11.0346C3.88955 11.1716 3.78101 11.3677 3.75393 11.5824L3.75 11.6136V11.645V16.353V16.3853L3.75417 16.4174C3.78221 16.6332 3.89328 16.8296 4.06379 16.9648C4.22623 17.0936 4.43041 17.1572 4.63656 17.144H4.73011C5.19772 17.1628 5.65449 16.9988 6.00337 16.6864C6.35543 16.3711 6.56937 15.93 6.59902 15.4584ZM18.25 9.477V9.46767L18.2497 9.45836C18.1707 7.3418 17.2567 5.34265 15.7077 3.89815C14.1627 2.45736 12.1112 1.68535 10 1.74975C7.88881 1.68535 5.83735 2.45736 4.29229 3.89815C2.74326 5.34265 1.82931 7.3418 1.75035 9.45836L1.75 9.46767V9.477V9.6H1.5V9.4851C1.57172 7.30416 2.50355 5.24008 4.09215 3.74379C5.68267 2.24571 7.80195 1.43883 9.98605 1.4998L10 1.50019L10.014 1.4998C12.1981 1.43883 14.3173 2.24571 15.9078 3.74379C17.4964 5.24008 18.4283 7.30415 18.5 9.48507V9.6H18.25V9.477ZM13.7885 11.15C14.1178 10.8386 14.5392 10.6473 14.9851 10.6017L15.3926 10.5939C15.6802 10.5884 15.9583 10.6971 16.1658 10.8962C16.3722 11.0942 16.4922 11.3655 16.5 11.6512V16.3456C16.4908 16.6294 16.3703 16.8983 16.1645 17.0942C15.9573 17.2914 15.6803 17.3986 15.3942 17.3921L15.3942 17.392H15.383H15.259V17.3918L15.2458 17.3922C14.7053 17.4064 14.1811 17.2058 13.7882 16.8343C13.397 16.4644 13.1677 15.9551 13.15 15.4172V12.5669C13.168 12.029 13.3973 11.5198 13.7885 11.15ZM16.2458 16.4154L16.25 16.3833V16.351V11.644V11.6126L16.2461 11.5814C16.219 11.3667 16.1104 11.1706 15.9429 11.0336C15.7812 10.9014 15.5765 10.8341 15.3684 10.844H15.2699C14.8023 10.8252 14.3455 10.9892 13.9966 11.3016C13.6446 11.6169 13.4306 12.058 13.401 12.5296L13.4 12.5453V12.561V15.427V15.4431L13.401 15.4591C13.4314 15.9303 13.6456 16.3707 13.9976 16.6854C14.3464 16.9972 14.8028 17.1609 15.2699 17.142H15.3634C15.5696 17.1552 15.7738 17.0916 15.9362 16.9628C16.1067 16.8276 16.2178 16.6312 16.2458 16.4154ZM0.5 11.441H0.75V16.315H0.5V11.441ZM19.5 11.441V16.315H19.25V11.441H19.5Z" fill="#0F1A1C" stroke="#0F1A1C"/>
</svg>
