<svg width="20" height="20" viewBox="0 0 20 20" fill="none" xmlns="http://www.w3.org/2000/svg">
<path d="M19.832 18.418L17.566 16.152C17.8469 15.6464 17.9961 15.0783 18 14.5C18 13.8078 17.7947 13.1311 17.4101 12.5555C17.0256 11.9799 16.4789 11.5313 15.8394 11.2664C15.1999 11.0015 14.4961 10.9322 13.8172 11.0673C13.1383 11.2023 12.5146 11.5356 12.0251 12.0251C11.5356 12.5146 11.2023 13.1383 11.0673 13.8172C10.9322 14.4961 11.0015 15.1999 11.2664 15.8394C11.5313 16.4789 11.9799 17.0256 12.5555 17.4101C13.1311 17.7947 13.8078 18 14.5 18C15.0783 17.9961 15.6464 17.8469 16.152 17.566L18.418 19.832L19.832 18.418ZM14.5 12.725C14.8511 12.725 15.1942 12.8291 15.4861 13.0241C15.778 13.2192 16.0055 13.4964 16.1399 13.8207C16.2742 14.1451 16.3094 14.502 16.2409 14.8463C16.1724 15.1906 16.0034 15.5069 15.7551 15.7551C15.5069 16.0034 15.1906 16.1724 14.8463 16.2409C14.502 16.3094 14.1451 16.2742 13.8207 16.1399C13.4964 16.0055 13.2192 15.778 13.0241 15.4861C12.8291 15.1942 12.725 14.8511 12.725 14.5C12.7255 14.0294 12.9127 13.5782 13.2455 13.2455C13.5782 12.9127 14.0294 12.7255 14.5 12.725ZM9 5.5C9 6.19223 8.79473 6.86892 8.41015 7.4445C8.02556 8.02007 7.47894 8.46867 6.83939 8.73358C6.19985 8.99849 5.49612 9.0678 4.81719 8.93275C4.13825 8.7977 3.51461 8.46436 3.02513 7.97487C2.53564 7.48539 2.2023 6.86175 2.06725 6.18282C1.9322 5.50388 2.00152 4.80015 2.26642 4.16061C2.53133 3.52107 2.97993 2.97444 3.55551 2.58986C4.13108 2.20527 4.80777 2 5.5 2C6.42826 2 7.3185 2.36875 7.97487 3.02513C8.63125 3.6815 9 4.57174 9 5.5ZM11 7.875V3.125C11.0005 2.82679 11.1192 2.54095 11.3301 2.33009C11.541 2.11922 11.8268 2.00053 12.125 2H16.875C17.1732 2.00053 17.459 2.11922 17.6699 2.33009C17.8808 2.54095 17.9995 2.82679 18 3.125V7.875C17.9995 8.17321 17.8808 8.45905 17.6699 8.66991C17.459 8.88078 17.1732 8.99947 16.875 9H12.125C11.8268 8.99947 11.541 8.88078 11.3301 8.66991C11.1192 8.45905 11.0005 8.17321 11 7.875ZM9 12.125V16.875C8.99947 17.1732 8.88078 17.459 8.66991 17.6699C8.45905 17.8808 8.17321 17.9995 7.875 18H3.125C2.8268 17.9995 2.54095 17.8808 2.33009 17.6699C2.11923 17.459 2.00053 17.1732 2 16.875V12.125C2.00053 11.8268 2.11923 11.541 2.33009 11.3301C2.54095 11.1192 2.8268 11.0005 3.125 11H7.875C8.17321 11.0005 8.45905 11.1192 8.66991 11.3301C8.88078 11.541 8.99947 11.8268 9 12.125Z" fill="#0F1A1C"/>
</svg>
