<svg width="20" height="20" viewBox="0 0 20 20" fill="none" xmlns="http://www.w3.org/2000/svg">
<path d="M16.7841 9.5L19.3421 12.058L18.4581 12.942L15.9001 10.384L13.3421 12.942L12.4581 12.058L15.0161 9.5L12.4581 6.942L13.3421 6.058L15.9001 8.616L18.4581 6.058L19.3421 6.942L16.7841 9.5ZM10.3571 19.748C10.5518 19.6553 10.7159 19.5087 10.8298 19.3256C10.9438 19.1426 11.0029 18.9306 11.0001 18.715V1.286C11.0027 1.07027 10.9435 0.858295 10.8296 0.675085C10.7157 0.491875 10.5517 0.345073 10.3571 0.252C10.1682 0.163057 9.9577 0.130195 9.75066 0.157315C9.54363 0.184436 9.34872 0.2704 9.18909 0.405L3.81509 5.056H2.10809C1.81033 5.06022 1.52641 5.18242 1.31867 5.39578C1.11093 5.60915 0.99635 5.89623 1.00009 6.194V13.807C0.99635 14.1048 1.11093 14.3919 1.31867 14.6052C1.52641 14.8186 1.81033 14.9408 2.10809 14.945H3.81509L9.20009 19.608C9.39378 19.7669 9.63654 19.8539 9.88709 19.854C10.0498 19.8548 10.2105 19.8186 10.3571 19.748ZM2.25009 6.306H4.28109L9.75009 1.573V18.428L4.28109 13.7H2.25009V6.306Z" fill="#0F1A1C"/>
</svg>
