<svg width="20" height="20" viewBox="0 0 20 20" fill="none" xmlns="http://www.w3.org/2000/svg">
<g clip-path="url(#clip0_1581_854)">
<path d="M3.6628 16.2719L3.527 16.5962L3.7863 16.8337C5.4826 18.3873 7.69947 19.2502 10 19.2502C12.3004 19.2502 14.5173 18.3884 16.2137 16.8347L16.473 16.5972L16.3372 16.2729L15.0782 13.2659L15.0781 13.2657C14.2622 11.319 14.1265 9.15919 14.6842 7.13338L14.9228 7.21382C14.3826 9.18324 14.5155 11.2823 15.3089 13.1744L16.3547 15.674L16.6789 16.4487L17.2055 15.7945C18.2996 14.4354 18.9869 12.7946 19.1882 11.0614C19.3895 9.32831 19.0966 7.57359 18.3431 5.99988C17.5897 4.42616 16.4065 3.09763 14.9303 2.16766C13.454 1.2377 11.7448 0.74423 10 0.74423C8.25523 0.74423 6.54603 1.2377 5.06975 2.16766C3.59348 3.09763 2.41032 4.42616 1.65689 5.99988C0.903454 7.57359 0.610474 9.32831 0.811774 11.0614C1.01307 12.7946 1.70044 14.4354 2.79452 15.7945L3.32112 16.4487L3.64526 15.674L4.69112 13.1743C5.48451 11.2819 5.61741 9.18257 5.07721 7.21283L5.31577 7.13238C5.87347 9.15819 5.73783 11.318 4.92187 13.2647L4.9218 13.2649L3.6628 16.2719ZM4.72209 2.10104C6.28428 1.05722 8.1209 0.500055 9.99973 0.5C12.5185 0.502837 14.9333 1.50467 16.7143 3.2857C18.4954 5.0668 19.4972 7.4817 19.5 10.0005C19.4999 11.8793 18.9427 13.7158 17.899 15.2779C16.8551 16.8402 15.3714 18.0578 13.6355 18.7769C11.8996 19.4959 9.98947 19.684 8.14665 19.3175C6.30383 18.9509 4.61109 18.0461 3.28249 16.7175C1.95389 15.3889 1.0491 13.6962 0.682544 11.8534C0.315985 10.0105 0.504116 8.10041 1.22315 6.36451C1.94218 4.62861 3.15982 3.14491 4.72209 2.10104Z" fill="#0F1A1C" stroke="#0F1A1C"/>
</g>
<defs>
<clipPath id="clip0_1581_854">
<rect width="20" height="20" fill="white"/>
</clipPath>
</defs>
</svg>
