<svg width="20" height="20" viewBox="0 0 20 20" fill="none" xmlns="http://www.w3.org/2000/svg">
<path d="M10.0002 8.74989H9.99967C9.55466 8.74989 9.11964 8.88185 8.74963 9.12909C8.37962 9.37632 8.09123 9.72772 7.92094 10.1389C7.75064 10.55 7.70608 11.0024 7.7929 11.4388C7.87972 11.8753 8.09401 12.2762 8.40868 12.5909C8.72334 12.9056 9.12426 13.1198 9.56071 13.2067C9.99717 13.2935 10.4496 13.2489 10.8607 13.0786C11.2718 12.9083 11.6232 12.6199 11.8705 12.2499C12.1177 11.8799 12.2497 11.4449 12.2497 10.9999V10.9993C12.249 10.4029 12.0118 9.83119 11.5901 9.40949C11.1684 8.98779 10.5966 8.75057 10.0002 8.74989ZM15.4979 19.0179L15.4101 19.0175C15.3584 19.0099 15.3079 18.9956 15.2598 18.9748L15.259 18.9745L10.197 16.8005L9.99967 16.7157L9.80236 16.8005L4.74036 18.9745L4.74035 18.9745L4.73619 18.9763C4.64032 19.0185 4.53507 19.0349 4.43091 19.0238C4.3434 19.0145 4.25923 18.986 4.18426 18.9408L4.86786 18.6474L9.75819 16.5485C9.75861 16.5483 9.75902 16.5482 9.75943 16.548C9.83528 16.5161 9.91675 16.4998 9.99903 16.4999L10.0003 16.4999C10.0826 16.4998 10.164 16.5161 10.2399 16.548C10.2403 16.5482 10.2407 16.5483 10.2411 16.5485L15.1315 18.6474L15.8036 18.9358C15.7836 18.9475 15.7629 18.9581 15.7416 18.9674C15.6648 19.0011 15.5818 19.0183 15.4979 19.0179ZM4.17284 18.1413L4.10345 18.8823C4.0369 18.8251 3.98353 18.7539 3.94734 18.6735C3.90433 18.578 3.88707 18.4729 3.89729 18.3686L3.89749 18.3665L4.40849 12.9045L4.42863 12.6892L4.28556 12.5271L0.651251 8.40884C0.651139 8.40871 0.651026 8.40858 0.650913 8.40845C0.582277 8.33021 0.535171 8.23547 0.514227 8.13351C0.496817 8.04876 0.497982 7.96147 0.517383 7.87758L1.00585 8.43082L4.51969 12.4106C4.57404 12.4723 4.61516 12.5444 4.64049 12.6225C4.66582 12.7007 4.67483 12.7832 4.66696 12.865L4.66684 12.8663L4.17284 18.1413ZM10.5293 1.28293L13.33 5.98861L13.4403 6.17392L13.6508 6.22089L19.0278 7.42089L19.028 7.42094C19.1297 7.44359 19.2238 7.49236 19.3009 7.56244C19.3657 7.62122 19.4166 7.69331 19.4504 7.77351L18.7278 7.61194L13.5348 6.45094L13.5341 6.45078C13.4538 6.43296 13.378 6.39882 13.3115 6.3505C13.245 6.30218 13.1891 6.2407 13.1473 6.16987L13.1462 6.16792L10.4292 1.60892L10.0721 1.00974C10.1532 1.0187 10.2321 1.04311 10.3044 1.08186C10.3944 1.13006 10.4715 1.19901 10.5293 1.28293ZM18.9935 8.43082L19.4832 7.87616C19.5016 7.95866 19.5023 8.04433 19.4852 8.12754C19.4643 8.22938 19.4172 8.32401 19.3487 8.40218C19.3485 8.40237 19.3483 8.40256 19.3482 8.40275L15.71 12.5208L15.5667 12.683L15.5868 12.8985L16.0978 18.3595L16.0979 18.3606C16.106 18.4441 16.0964 18.5283 16.0698 18.6079C16.0433 18.6874 16.0004 18.7605 15.9438 18.8224C15.9284 18.8394 15.912 18.8554 15.8947 18.8704L15.8265 18.1413L15.3325 12.8633L15.3325 12.8632C15.3248 12.7817 15.334 12.6995 15.3593 12.6216C15.3846 12.5438 15.4256 12.4719 15.4798 12.4105L18.9935 8.43082ZM1.27157 7.61194L0.552029 7.77281C0.585874 7.69525 0.63584 7.62551 0.698842 7.56836C0.776061 7.49832 0.870199 7.4496 0.971979 7.42702L0.972593 7.42688L6.34859 6.22688L6.55902 6.17991L6.66931 5.99464L9.47398 1.28295C9.53187 1.19902 9.60897 1.13006 9.69892 1.08186C9.76998 1.04379 9.84737 1.01956 9.92699 1.01022L9.57017 1.60891L6.85117 6.17091L6.85079 6.17154C6.80897 6.24194 6.75318 6.30304 6.68686 6.35106C6.62054 6.39909 6.54509 6.43304 6.46515 6.45081L6.46457 6.45094L1.27157 7.61194ZM9.99967 13.4999C9.50521 13.4999 9.02186 13.3533 8.61074 13.0786C8.19962 12.8039 7.87919 12.4134 7.68997 11.9566C7.50075 11.4998 7.45124 10.9971 7.5477 10.5122C7.64417 10.0272 7.88227 9.58176 8.2319 9.23213C8.58153 8.88249 9.02699 8.64439 9.51194 8.54793C9.99689 8.45147 10.4996 8.50098 10.9564 8.69019C11.4132 8.87941 11.8036 9.19984 12.0783 9.61097C12.353 10.0221 12.4997 10.5054 12.4997 10.9999C12.4997 11.6629 12.2363 12.2988 11.7674 12.7677C11.2986 13.2365 10.6627 13.4999 9.99967 13.4999Z" fill="#0F1A1C" stroke="#0F1A1C"/>
</svg>
