<svg width="20" height="20" viewBox="0 0 20 20" fill="none" xmlns="http://www.w3.org/2000/svg">
<path d="M5.80009 9.25H0.0380859C0.218811 6.87201 1.24344 4.6369 2.92712 2.9479C4.61081 1.2589 6.84268 0.227224 9.22009 0.0390015C7.11409 0.879001 5.93009 5.068 5.80009 9.25ZM14.1931 9.25H19.9591C19.7784 6.87233 18.7541 4.63747 17.0708 2.94851C15.3875 1.25955 13.1561 0.227679 10.7791 0.0390015C12.8851 0.879001 14.0691 5.068 14.2001 9.25H14.1931ZM10.0001 1.375C8.94809 1.375 7.44709 4.42 7.30009 9.25H12.7001C12.5521 4.42 11.0511 1.375 10.0001 1.375ZM10.0001 18.625C11.0511 18.625 12.5521 15.58 12.7001 10.75H7.30009C7.44709 15.58 8.94809 18.625 10.0001 18.625ZM5.80009 10.75H0.0380859C0.218811 13.128 1.24344 15.3631 2.92712 17.0521C4.61081 18.7411 6.84268 19.7728 9.22009 19.961C7.11409 19.121 5.93009 14.932 5.80009 10.75ZM10.7761 19.961C13.1537 19.773 15.3858 18.7414 17.0697 17.0524C18.7536 15.3634 19.7783 13.1282 19.9591 10.75H14.2001C14.0691 14.932 12.8851 19.121 10.7791 19.961H10.7761Z" fill="#0F1A1C"/>
</svg>
