<svg width="20" height="20" viewBox="0 0 20 20" fill="none" xmlns="http://www.w3.org/2000/svg">
<path d="M18.6352 6.72918L13.2702 1.36518C12.4025 0.497924 11.226 0.0107422 9.9992 0.0107422C8.77243 0.0107422 7.59587 0.497924 6.7282 1.36518L1.3642 6.72918C0.496948 7.59684 0.00976563 8.7734 0.00976562 10.0002C0.00976563 11.2269 0.496948 12.4035 1.3642 13.2712L6.7292 18.6362C7.597 19.5032 8.77351 19.9902 10.0002 19.9902C11.2269 19.9902 12.4034 19.5032 13.2712 18.6362L18.6352 13.2712C19.5025 12.4035 19.9896 11.2269 19.9896 10.0002C19.9896 8.7734 19.5025 7.59684 18.6352 6.72918ZM12.2202 10.3932C12.6801 10.5349 13.1301 10.7069 13.5672 10.9082C13.7309 11.0016 13.8685 11.1347 13.9672 11.2952C14.0568 11.4432 14.1051 11.6125 14.1072 11.7855C14.1094 11.9586 14.0651 12.129 13.9792 12.2792C13.8928 12.4355 13.7674 12.5667 13.6152 12.6602C13.471 12.7491 13.3047 12.7959 13.1352 12.7952C12.9366 12.7897 12.7427 12.7332 12.5722 12.6312C12.345 12.484 12.1315 12.3166 11.9342 12.1312L11.4342 11.6912L10.5342 10.9062C10.6675 11.5728 10.7419 11.9395 10.7572 12.0062C10.7722 12.0922 10.8152 12.3142 10.8862 12.6742C10.9448 12.9399 10.9799 13.2103 10.9912 13.4822C11.0084 13.7717 10.9164 14.0572 10.7332 14.2822C10.6404 14.38 10.5273 14.4563 10.4019 14.5059C10.2765 14.5555 10.1418 14.5771 10.0072 14.5692C9.87431 14.5763 9.74145 14.5544 9.61794 14.5048C9.49444 14.4552 9.38326 14.3792 9.2922 14.2822C9.10903 14.0572 9.01696 13.7717 9.0342 13.4822C9.07262 13.0125 9.14717 12.5464 9.2572 12.0882C9.28853 11.9548 9.36287 11.5602 9.4802 10.9042L8.5802 11.6892C8.52553 11.7365 8.35887 11.8832 8.0802 12.1292C7.88284 12.3149 7.66896 12.4823 7.4412 12.6292C7.2711 12.7313 7.07752 12.7878 6.8792 12.7932C6.71597 12.7933 6.55582 12.7487 6.4162 12.6642C6.26862 12.5751 6.14585 12.4502 6.0592 12.3012C5.95824 12.1481 5.90499 11.9685 5.9062 11.7852C5.90482 11.6077 5.95596 11.4337 6.0532 11.2852C6.15469 11.1285 6.29174 10.9979 6.4532 10.9042C6.62823 10.8041 6.81281 10.7216 7.0042 10.6582C7.2622 10.5642 7.5432 10.4712 7.8482 10.3772C8.13753 10.2832 8.5042 10.1582 8.9482 10.0022L7.9312 9.65418C7.6032 9.54551 7.3032 9.44218 7.0312 9.34418C6.83104 9.27685 6.637 9.19255 6.4512 9.09218C6.28974 8.99843 6.15269 8.86789 6.0512 8.71118C5.95396 8.56266 5.90282 8.38869 5.9042 8.21118C5.90769 8.03023 5.96023 7.85362 6.0562 7.70018C6.14285 7.55113 6.26562 7.42629 6.4132 7.33718C6.55282 7.25262 6.71297 7.208 6.8762 7.20818C7.07452 7.21358 7.2681 7.27007 7.4382 7.37218C7.63146 7.4927 7.81383 7.62989 7.9832 7.78218C8.2222 7.98218 8.4832 8.21218 8.7632 8.46218C9.0432 8.71218 9.2782 8.90718 9.4632 9.07118L9.2872 8.19218C9.16243 7.64422 9.07622 7.08819 9.0292 6.52818C9.01228 6.23718 9.10185 5.94996 9.2812 5.72018C9.37179 5.6205 9.48361 5.54242 9.60839 5.49171C9.73318 5.441 9.86775 5.41895 10.0022 5.42718C10.1368 5.41927 10.2715 5.44086 10.3969 5.49043C10.5223 5.54 10.6354 5.61636 10.7282 5.71418C10.9132 5.9436 11.0052 6.2341 10.9862 6.52818C10.9409 7.06134 10.8546 7.59024 10.7282 8.11018L10.5412 9.07118C10.7279 8.90718 10.9612 8.70418 11.2412 8.46218C11.5212 8.22018 11.7809 7.99351 12.0202 7.78218C12.1898 7.63013 12.3721 7.49295 12.5652 7.37218C12.7339 7.26615 12.9289 7.20935 13.1282 7.20818C13.2977 7.20745 13.464 7.25422 13.6082 7.34318C13.7604 7.43665 13.8858 7.5679 13.9722 7.72418C14.0616 7.87581 14.1099 8.04816 14.1122 8.22418C14.1117 8.3969 14.0609 8.56575 13.9662 8.71018C13.8629 8.86713 13.7242 8.99764 13.5612 9.09118C13.3203 9.21699 13.0695 9.32268 12.8112 9.40718C12.4602 9.53218 12.2332 9.60718 12.1322 9.64218C11.5935 9.82084 11.2379 9.94184 11.0652 10.0052C11.4685 10.1458 11.8535 10.2752 12.2202 10.3932Z" fill="#0F1A1C"/>
</svg>
