<svg width="20" height="20" viewBox="0 0 20 20" fill="none" xmlns="http://www.w3.org/2000/svg">
<mask id="path-1-inside-1_1581_888" fill="white">
<path d="M17.3008 7.44104C17.1071 7.44233 16.9142 7.46581 16.7258 7.51104C16.4227 6.69701 15.9737 5.94505 15.4008 5.29204C15.7715 4.84088 15.9756 4.27591 15.9788 3.69204C15.977 3.08292 15.7583 2.49437 15.362 2.03181C14.9657 1.56924 14.4176 1.26287 13.816 1.16757C13.2144 1.07228 12.5985 1.19428 12.0786 1.51172C11.5588 1.82917 11.1689 2.32132 10.9788 2.90004C10.3347 2.80953 9.68101 2.80953 9.03684 2.90004C8.92118 2.54267 8.72835 2.2151 8.47201 1.94055C8.21567 1.66599 7.90209 1.45115 7.55349 1.31126C7.2049 1.17137 6.8298 1.10984 6.45477 1.13103C6.07975 1.15223 5.71398 1.25563 5.38336 1.43391C5.05274 1.61218 4.76536 1.86098 4.54159 2.16267C4.31782 2.46436 4.16312 2.81157 4.08846 3.17969C4.01379 3.54782 4.02099 3.92786 4.10954 4.2929C4.19808 4.65793 4.36581 4.99904 4.60084 5.29204C4.0298 5.94545 3.5825 6.69738 3.28084 7.51104C3.09248 7.46581 2.89956 7.44233 2.70584 7.44104C2.03288 7.45431 1.39197 7.73097 0.920737 8.21158C0.449506 8.6922 0.185547 9.33845 0.185547 10.0115C0.185547 10.6846 0.449506 11.3309 0.920737 11.8115C1.39197 12.2921 2.03288 12.5688 2.70584 12.582C2.89959 12.5804 3.09251 12.5565 3.28084 12.511C3.5825 13.3247 4.0298 14.0766 4.60084 14.73C4.23021 15.1812 4.02611 15.7462 4.02284 16.33C4.02325 16.94 4.24118 17.5298 4.63747 17.9935C5.03376 18.4572 5.58242 18.7643 6.18486 18.8598C6.78731 18.9552 7.40404 18.8326 7.92422 18.5141C8.44441 18.1956 8.83395 17.702 9.02284 17.122C9.34661 17.1709 9.67342 17.197 10.0008 17.2C10.3259 17.197 10.6504 17.1713 10.9718 17.123C11.086 17.4823 11.2781 17.8118 11.5343 18.0883C11.7905 18.3648 12.1046 18.5813 12.4541 18.7224C12.8036 18.8636 13.1799 18.9259 13.5563 18.9049C13.9326 18.8838 14.2997 18.78 14.6313 18.6009C14.9629 18.4217 15.2509 18.1716 15.4748 17.8683C15.6986 17.565 15.8528 17.2161 15.9263 16.8464C15.9998 16.4767 15.9908 16.0954 15.9 15.7295C15.8091 15.3637 15.6387 15.0224 15.4008 14.73C15.973 14.0769 16.4213 13.3249 16.7238 12.511C16.9122 12.5565 17.1051 12.5804 17.2988 12.582C17.9718 12.5688 18.6127 12.2921 19.084 11.8115C19.5552 11.3309 19.8191 10.6846 19.8191 10.0115C19.8191 9.33845 19.5552 8.6922 19.084 8.21158C18.6127 7.73097 17.9718 7.45431 17.2988 7.44104H17.3008ZM13.4008 2.36904C13.6619 2.36904 13.9171 2.44646 14.1342 2.5915C14.3513 2.73654 14.5205 2.9427 14.6204 3.1839C14.7203 3.4251 14.7464 3.6905 14.6955 3.94656C14.6445 4.20261 14.5188 4.43781 14.3342 4.62242C14.1496 4.80703 13.9144 4.93274 13.6584 4.98368C13.4023 5.03461 13.1369 5.00847 12.8957 4.90856C12.6545 4.80865 12.4483 4.63947 12.3033 4.42239C12.1583 4.20532 12.0808 3.95011 12.0808 3.68904C12.0814 3.33912 12.2206 3.00368 12.468 2.75624C12.7155 2.50881 13.0509 2.36957 13.4008 2.36904ZM6.59284 2.36904C6.85387 2.36924 7.10898 2.44682 7.32592 2.59199C7.54287 2.73715 7.7119 2.94337 7.81165 3.18459C7.91141 3.42581 7.9374 3.69118 7.88636 3.94717C7.83531 4.20316 7.70952 4.43827 7.52487 4.62277C7.34023 4.80728 7.10502 4.9329 6.849 4.98375C6.59297 5.0346 6.32761 5.0084 6.08647 4.90846C5.84533 4.80853 5.63924 4.63934 5.49424 4.42229C5.34924 4.20524 5.27184 3.95007 5.27184 3.68904C5.27197 3.51497 5.3065 3.34265 5.37345 3.18197C5.44039 3.02129 5.53843 2.87542 5.66193 2.75276C5.78544 2.63009 5.93196 2.53305 6.09309 2.46719C6.25422 2.40134 6.42678 2.36799 6.60084 2.36904H6.59284ZM1.38584 10.011C1.38604 9.75001 1.46363 9.4949 1.60879 9.27796C1.75395 9.06102 1.96018 8.89199 2.20139 8.79223C2.44261 8.69248 2.70799 8.66648 2.96398 8.71753C3.21996 8.76857 3.45507 8.89437 3.63958 9.07901C3.82408 9.26366 3.9497 9.49886 4.00055 9.75489C4.05141 10.0109 4.02521 10.2763 3.92527 10.5174C3.82533 10.7586 3.65614 10.9646 3.43909 11.1096C3.22204 11.2546 2.96687 11.332 2.70584 11.332C2.35567 11.3318 2.01992 11.1925 1.7724 10.9448C1.52488 10.6971 1.38584 10.3612 1.38584 10.011ZM6.60084 17.654C6.33953 17.6542 6.08403 17.5769 5.86666 17.4319C5.64929 17.2869 5.47982 17.0806 5.37969 16.8393C5.27955 16.5979 5.25325 16.3323 5.30411 16.0759C5.35496 15.8196 5.4807 15.5842 5.6654 15.3993C5.85011 15.2145 6.08549 15.0885 6.34176 15.0375C6.59804 14.9864 6.8637 15.0125 7.10514 15.1125C7.34658 15.2125 7.55295 15.3818 7.69815 15.599C7.84334 15.8163 7.92084 16.0717 7.92084 16.333C7.92058 16.6831 7.78146 17.0188 7.53399 17.2665C7.28653 17.5141 6.95094 17.6535 6.60084 17.654ZM13.4088 17.654C13.1476 17.654 12.8922 17.5766 12.6749 17.4314C12.4577 17.2863 12.2884 17.0799 12.1884 16.8386C12.0884 16.5972 12.0623 16.3316 12.1132 16.0753C12.1642 15.8191 12.29 15.5837 12.4748 15.399C12.6595 15.2142 12.8949 15.0884 13.1511 15.0374C13.4074 14.9865 13.673 15.0126 13.9144 15.1126C14.1558 15.2126 14.3621 15.3819 14.5072 15.5991C14.6524 15.8164 14.7298 16.0718 14.7298 16.333C14.7297 16.5072 14.6952 16.6795 14.6283 16.8403C14.5613 17.001 14.4633 17.1469 14.3398 17.2697C14.2163 17.3924 14.0698 17.4896 13.9087 17.5555C13.7475 17.6215 13.575 17.655 13.4008 17.654H13.4088ZM14.4088 13.967C14.0554 13.8171 13.6729 13.7483 13.2894 13.7659C12.9058 13.7835 12.5312 13.8869 12.1929 14.0686C11.8547 14.2502 11.5616 14.5055 11.3352 14.8156C11.1088 15.1256 10.9549 15.4826 10.8848 15.86C10.3012 15.9545 9.70642 15.9575 9.12184 15.869C9.05288 15.4907 8.89969 15.1328 8.67365 14.8217C8.4476 14.5106 8.15447 14.2543 7.81597 14.0719C7.47746 13.8894 7.10225 13.7855 6.71812 13.7676C6.33399 13.7498 5.95077 13.8187 5.59684 13.969C5.06339 13.3777 4.65519 12.6844 4.39684 11.931C4.67177 11.6928 4.89226 11.3982 5.04338 11.0673C5.19449 10.7364 5.2727 10.3768 5.2727 10.013C5.2727 9.64924 5.19449 9.2897 5.04338 8.95878C4.89226 8.62786 4.67177 8.33329 4.39684 8.09504C4.65556 7.34215 5.06373 6.64929 5.59684 6.05804C5.95039 6.20726 6.3329 6.27532 6.71622 6.25721C7.09955 6.23909 7.47393 6.13526 7.81183 5.95336C8.14973 5.77146 8.44255 5.51611 8.66874 5.20611C8.89493 4.89611 9.04874 4.53933 9.11884 4.16204C9.70252 4.06804 10.2972 4.06501 10.8818 4.15304C10.9512 4.53116 11.1045 4.88888 11.3307 5.19976C11.5568 5.51064 11.8499 5.76674 12.1883 5.94914C12.5267 6.13154 12.9017 6.23557 13.2857 6.25355C13.6697 6.27154 14.0529 6.20301 14.4068 6.05304C14.94 6.64429 15.3481 7.33715 15.6068 8.09004C15.3319 8.32829 15.1114 8.62286 14.9603 8.95378C14.8092 9.2847 14.731 9.64425 14.731 10.008C14.731 10.3718 14.8092 10.7314 14.9603 11.0623C15.1114 11.3932 15.3319 11.6878 15.6068 11.926C15.3489 12.6805 14.9406 13.3748 14.4068 13.967H14.4088ZM17.3008 11.332C17.0395 11.3322 16.784 11.2549 16.5667 11.1099C16.3493 10.9649 16.1798 10.7586 16.0797 10.5173C15.9795 10.2759 15.9532 10.0103 16.0041 9.75394C16.055 9.49762 16.1807 9.26215 16.3654 9.07731C16.5501 8.89246 16.7855 8.76655 17.0418 8.7155C17.298 8.66444 17.5637 8.69055 17.8051 8.7905C18.0466 8.89045 18.253 9.05977 18.3981 9.27703C18.5433 9.49429 18.6208 9.74973 18.6208 10.011C18.6206 10.3611 18.4815 10.6968 18.234 10.9445C17.9865 11.1921 17.6509 11.3315 17.3008 11.332Z"/>
</mask>
<path d="M17.3008 7.44104C17.1071 7.44233 16.9142 7.46581 16.7258 7.51104C16.4227 6.69701 15.9737 5.94505 15.4008 5.29204C15.7715 4.84088 15.9756 4.27591 15.9788 3.69204C15.977 3.08292 15.7583 2.49437 15.362 2.03181C14.9657 1.56924 14.4176 1.26287 13.816 1.16757C13.2144 1.07228 12.5985 1.19428 12.0786 1.51172C11.5588 1.82917 11.1689 2.32132 10.9788 2.90004C10.3347 2.80953 9.68101 2.80953 9.03684 2.90004C8.92118 2.54267 8.72835 2.2151 8.47201 1.94055C8.21567 1.66599 7.90209 1.45115 7.55349 1.31126C7.2049 1.17137 6.8298 1.10984 6.45477 1.13103C6.07975 1.15223 5.71398 1.25563 5.38336 1.43391C5.05274 1.61218 4.76536 1.86098 4.54159 2.16267C4.31782 2.46436 4.16312 2.81157 4.08846 3.17969C4.01379 3.54782 4.02099 3.92786 4.10954 4.2929C4.19808 4.65793 4.36581 4.99904 4.60084 5.29204C4.0298 5.94545 3.5825 6.69738 3.28084 7.51104C3.09248 7.46581 2.89956 7.44233 2.70584 7.44104C2.03288 7.45431 1.39197 7.73097 0.920737 8.21158C0.449506 8.6922 0.185547 9.33845 0.185547 10.0115C0.185547 10.6846 0.449506 11.3309 0.920737 11.8115C1.39197 12.2921 2.03288 12.5688 2.70584 12.582C2.89959 12.5804 3.09251 12.5565 3.28084 12.511C3.5825 13.3247 4.0298 14.0766 4.60084 14.73C4.23021 15.1812 4.02611 15.7462 4.02284 16.33C4.02325 16.94 4.24118 17.5298 4.63747 17.9935C5.03376 18.4572 5.58242 18.7643 6.18486 18.8598C6.78731 18.9552 7.40404 18.8326 7.92422 18.5141C8.44441 18.1956 8.83395 17.702 9.02284 17.122C9.34661 17.1709 9.67342 17.197 10.0008 17.2C10.3259 17.197 10.6504 17.1713 10.9718 17.123C11.086 17.4823 11.2781 17.8118 11.5343 18.0883C11.7905 18.3648 12.1046 18.5813 12.4541 18.7224C12.8036 18.8636 13.1799 18.9259 13.5563 18.9049C13.9326 18.8838 14.2997 18.78 14.6313 18.6009C14.9629 18.4217 15.2509 18.1716 15.4748 17.8683C15.6986 17.565 15.8528 17.2161 15.9263 16.8464C15.9998 16.4767 15.9908 16.0954 15.9 15.7295C15.8091 15.3637 15.6387 15.0224 15.4008 14.73C15.973 14.0769 16.4213 13.3249 16.7238 12.511C16.9122 12.5565 17.1051 12.5804 17.2988 12.582C17.9718 12.5688 18.6127 12.2921 19.084 11.8115C19.5552 11.3309 19.8191 10.6846 19.8191 10.0115C19.8191 9.33845 19.5552 8.6922 19.084 8.21158C18.6127 7.73097 17.9718 7.45431 17.2988 7.44104H17.3008ZM13.4008 2.36904C13.6619 2.36904 13.9171 2.44646 14.1342 2.5915C14.3513 2.73654 14.5205 2.9427 14.6204 3.1839C14.7203 3.4251 14.7464 3.6905 14.6955 3.94656C14.6445 4.20261 14.5188 4.43781 14.3342 4.62242C14.1496 4.80703 13.9144 4.93274 13.6584 4.98368C13.4023 5.03461 13.1369 5.00847 12.8957 4.90856C12.6545 4.80865 12.4483 4.63947 12.3033 4.42239C12.1583 4.20532 12.0808 3.95011 12.0808 3.68904C12.0814 3.33912 12.2206 3.00368 12.468 2.75624C12.7155 2.50881 13.0509 2.36957 13.4008 2.36904ZM6.59284 2.36904C6.85387 2.36924 7.10898 2.44682 7.32592 2.59199C7.54287 2.73715 7.7119 2.94337 7.81165 3.18459C7.91141 3.42581 7.9374 3.69118 7.88636 3.94717C7.83531 4.20316 7.70952 4.43827 7.52487 4.62277C7.34023 4.80728 7.10502 4.9329 6.849 4.98375C6.59297 5.0346 6.32761 5.0084 6.08647 4.90846C5.84533 4.80853 5.63924 4.63934 5.49424 4.42229C5.34924 4.20524 5.27184 3.95007 5.27184 3.68904C5.27197 3.51497 5.3065 3.34265 5.37345 3.18197C5.44039 3.02129 5.53843 2.87542 5.66193 2.75276C5.78544 2.63009 5.93196 2.53305 6.09309 2.46719C6.25422 2.40134 6.42678 2.36799 6.60084 2.36904H6.59284ZM1.38584 10.011C1.38604 9.75001 1.46363 9.4949 1.60879 9.27796C1.75395 9.06102 1.96018 8.89199 2.20139 8.79223C2.44261 8.69248 2.70799 8.66648 2.96398 8.71753C3.21996 8.76857 3.45507 8.89437 3.63958 9.07901C3.82408 9.26366 3.9497 9.49886 4.00055 9.75489C4.05141 10.0109 4.02521 10.2763 3.92527 10.5174C3.82533 10.7586 3.65614 10.9646 3.43909 11.1096C3.22204 11.2546 2.96687 11.332 2.70584 11.332C2.35567 11.3318 2.01992 11.1925 1.7724 10.9448C1.52488 10.6971 1.38584 10.3612 1.38584 10.011ZM6.60084 17.654C6.33953 17.6542 6.08403 17.5769 5.86666 17.4319C5.64929 17.2869 5.47982 17.0806 5.37969 16.8393C5.27955 16.5979 5.25325 16.3323 5.30411 16.0759C5.35496 15.8196 5.4807 15.5842 5.6654 15.3993C5.85011 15.2145 6.08549 15.0885 6.34176 15.0375C6.59804 14.9864 6.8637 15.0125 7.10514 15.1125C7.34658 15.2125 7.55295 15.3818 7.69815 15.599C7.84334 15.8163 7.92084 16.0717 7.92084 16.333C7.92058 16.6831 7.78146 17.0188 7.53399 17.2665C7.28653 17.5141 6.95094 17.6535 6.60084 17.654ZM13.4088 17.654C13.1476 17.654 12.8922 17.5766 12.6749 17.4314C12.4577 17.2863 12.2884 17.0799 12.1884 16.8386C12.0884 16.5972 12.0623 16.3316 12.1132 16.0753C12.1642 15.8191 12.29 15.5837 12.4748 15.399C12.6595 15.2142 12.8949 15.0884 13.1511 15.0374C13.4074 14.9865 13.673 15.0126 13.9144 15.1126C14.1558 15.2126 14.3621 15.3819 14.5072 15.5991C14.6524 15.8164 14.7298 16.0718 14.7298 16.333C14.7297 16.5072 14.6952 16.6795 14.6283 16.8403C14.5613 17.001 14.4633 17.1469 14.3398 17.2697C14.2163 17.3924 14.0698 17.4896 13.9087 17.5555C13.7475 17.6215 13.575 17.655 13.4008 17.654H13.4088ZM14.4088 13.967C14.0554 13.8171 13.6729 13.7483 13.2894 13.7659C12.9058 13.7835 12.5312 13.8869 12.1929 14.0686C11.8547 14.2502 11.5616 14.5055 11.3352 14.8156C11.1088 15.1256 10.9549 15.4826 10.8848 15.86C10.3012 15.9545 9.70642 15.9575 9.12184 15.869C9.05288 15.4907 8.89969 15.1328 8.67365 14.8217C8.4476 14.5106 8.15447 14.2543 7.81597 14.0719C7.47746 13.8894 7.10225 13.7855 6.71812 13.7676C6.33399 13.7498 5.95077 13.8187 5.59684 13.969C5.06339 13.3777 4.65519 12.6844 4.39684 11.931C4.67177 11.6928 4.89226 11.3982 5.04338 11.0673C5.19449 10.7364 5.2727 10.3768 5.2727 10.013C5.2727 9.64924 5.19449 9.2897 5.04338 8.95878C4.89226 8.62786 4.67177 8.33329 4.39684 8.09504C4.65556 7.34215 5.06373 6.64929 5.59684 6.05804C5.95039 6.20726 6.3329 6.27532 6.71622 6.25721C7.09955 6.23909 7.47393 6.13526 7.81183 5.95336C8.14973 5.77146 8.44255 5.51611 8.66874 5.20611C8.89493 4.89611 9.04874 4.53933 9.11884 4.16204C9.70252 4.06804 10.2972 4.06501 10.8818 4.15304C10.9512 4.53116 11.1045 4.88888 11.3307 5.19976C11.5568 5.51064 11.8499 5.76674 12.1883 5.94914C12.5267 6.13154 12.9017 6.23557 13.2857 6.25355C13.6697 6.27154 14.0529 6.20301 14.4068 6.05304C14.94 6.64429 15.3481 7.33715 15.6068 8.09004C15.3319 8.32829 15.1114 8.62286 14.9603 8.95378C14.8092 9.2847 14.731 9.64425 14.731 10.008C14.731 10.3718 14.8092 10.7314 14.9603 11.0623C15.1114 11.3932 15.3319 11.6878 15.6068 11.926C15.3489 12.6805 14.9406 13.3748 14.4068 13.967H14.4088ZM17.3008 11.332C17.0395 11.3322 16.784 11.2549 16.5667 11.1099C16.3493 10.9649 16.1798 10.7586 16.0797 10.5173C15.9795 10.2759 15.9532 10.0103 16.0041 9.75394C16.055 9.49762 16.1807 9.26215 16.3654 9.07731C16.5501 8.89246 16.7855 8.76655 17.0418 8.7155C17.298 8.66444 17.5637 8.69055 17.8051 8.7905C18.0466 8.89045 18.253 9.05977 18.3981 9.27703C18.5433 9.49429 18.6208 9.74973 18.6208 10.011C18.6206 10.3611 18.4815 10.6968 18.234 10.9445C17.9865 11.1921 17.6509 11.3315 17.3008 11.332Z" fill="#0F1A1C" stroke="#0F1A1C" stroke-width="2" mask="url(#path-1-inside-1_1581_888)"/>
</svg>
