<svg width="20" height="20" viewBox="0 0 20 20" fill="none" xmlns="http://www.w3.org/2000/svg">
<path d="M4.5 13.625C3.58118 13.6289 2.6942 13.9621 2 14.564V2.625C2.00106 1.92913 2.27796 1.26207 2.77001 0.770013C3.26207 0.277959 3.92913 0.00105795 4.625 0L16.875 0C17.1732 0.000528736 17.459 0.119225 17.6699 0.330089C17.8808 0.540953 17.9995 0.826794 18 1.125V13.625H4.5ZM4.5 15C3.83696 15 3.20107 15.2634 2.73223 15.7322C2.26339 16.2011 2 16.837 2 17.5C2 18.163 2.26339 18.7989 2.73223 19.2678C3.20107 19.7366 3.83696 20 4.5 20H16.875C17.1733 19.9997 17.4593 19.8811 17.6702 19.6702C17.8811 19.4593 17.9997 19.1733 18 18.875V15H4.5Z" fill="#0F1A1C"/>
</svg>
