<svg width="20" height="20" viewBox="0 0 20 20" fill="none" xmlns="http://www.w3.org/2000/svg">
<g clip-path="url(#clip0_3596_245)">
<path d="M19.2245 18.2042L19.2243 18.2038L18.105 16.6607C18.052 16.6132 17.9912 16.575 17.9252 16.5478C17.8487 16.5162 17.7668 16.5001 17.684 16.5002L17.683 16.5002H2.31676C2.22519 16.5023 2.13505 16.5236 2.05218 16.5626C1.97358 16.5997 1.9032 16.652 1.84509 16.7164L0.771121 18.2099C0.595018 18.4551 0.500201 18.7493 0.5 19.0512C0.5 19.1703 0.547305 19.2845 0.63151 19.3687C0.715713 19.4529 0.829917 19.5002 0.949 19.5002H19.049H19.0501C19.1091 19.5004 19.1676 19.4888 19.2222 19.4663C19.2767 19.4438 19.3264 19.4108 19.3682 19.3691C19.4099 19.3274 19.4431 19.2778 19.4657 19.2233C19.4883 19.1688 19.5 19.1104 19.5 19.0514L19.2245 18.2042ZM19.2245 18.2042C19.4034 18.4504 19.4999 18.7469 19.5 19.0512L19.2245 18.2042ZM2.32248 5.03862L2.3225 5.03861L2.32138 5.03424C2.28836 4.90527 2.30001 4.76892 2.35443 4.64742C2.40884 4.52592 2.50281 4.42644 2.62102 4.36519L2.62104 4.36523L2.62701 4.36204L9.69732 0.576406C9.69742 0.57635 9.69753 0.576294 9.69763 0.576238C9.7904 0.526823 9.89389 0.500977 9.999 0.500977C10.1042 0.500977 10.2077 0.526847 10.3005 0.576304C10.3006 0.576338 10.3006 0.576372 10.3007 0.576406L17.3709 4.36301L17.3709 4.36306L17.3774 4.3664C17.4957 4.42756 17.5898 4.52701 17.6443 4.64852C17.6988 4.77002 17.7105 4.90642 17.6776 5.03545L17.6766 5.03916C17.6437 5.1724 17.5665 5.29054 17.4578 5.37429C17.349 5.45804 17.2151 5.50246 17.0779 5.50031L17.0779 5.50024H17.07H2.93V5.50018L2.9218 5.50031C2.78439 5.50256 2.65029 5.45812 2.54142 5.37425C2.43255 5.29038 2.35536 5.17205 2.32248 5.03862ZM5 8.50024H4.5V9.00024V14.1472H3.5V9.00024V8.50024H3H2.5V7.50024H17.5V8.50024H17H16.5V9.00024V14.1472H15.5V9.00024V8.50024H15H13H12.5V9.00024V14.1472H11.5V9.00024V8.50024H11H9H8.5V9.00024V14.1472H7.5V9.00024V8.50024H7H5Z" fill="#0F1A1C" stroke="#0F1A1C"/>
</g>
<defs>
<clipPath id="clip0_3596_245">
<rect width="20" height="20" fill="white"/>
</clipPath>
</defs>
</svg>
