<svg width="20" height="20" viewBox="0 0 20 20" fill="none" xmlns="http://www.w3.org/2000/svg">
<g clip-path="url(#clip0_483_55)">
<path d="M15.1263 0C13.8607 0.0015877 12.6473 0.505071 11.7524 1.40003C10.8574 2.29498 10.3539 3.50834 10.3523 4.774C10.3593 4.98791 10.381 5.20109 10.4173 5.412L10.2803 5.274C10.1643 5.15903 10.025 5.07025 9.87183 5.01365C9.71862 4.95704 9.55507 4.93394 9.39217 4.94588C9.22928 4.95781 9.07084 5.00453 8.92752 5.08286C8.78421 5.1612 8.65934 5.26934 8.56134 5.4L0.459343 16.2C0.125795 16.6459 -0.0358692 17.197 0.00398817 17.7524C0.0438455 18.3078 0.282553 18.8303 0.67635 19.2239C1.07015 19.6176 1.59265 19.8561 2.14806 19.8958C2.70347 19.9355 3.25457 19.7737 3.70034 19.44L14.5003 11.34C14.631 11.242 14.739 11.1171 14.8172 10.9737C14.8954 10.8303 14.9418 10.6717 14.9534 10.5088C14.9649 10.3459 14.9414 10.1824 14.8843 10.0294C14.8271 9.87643 14.7378 9.73748 14.6223 9.622L14.4843 9.484C14.6959 9.52035 14.9098 9.54206 15.1243 9.549C15.757 9.55816 16.3852 9.44145 16.9724 9.20567C17.5596 8.96989 18.094 8.61974 18.5446 8.17557C18.9953 7.7314 19.3531 7.20208 19.5974 6.61838C19.8417 6.03468 19.9674 5.40824 19.9674 4.7755C19.9674 4.14276 19.8417 3.51632 19.5974 2.93262C19.3531 2.34892 18.9953 1.8196 18.5446 1.37543C18.094 0.931263 17.5596 0.58111 16.9724 0.345328C16.3852 0.109547 15.757 -0.00715748 15.1243 0.002L15.1263 0ZM2.95334 18.445C2.74738 18.6026 2.49118 18.68 2.2324 18.6629C1.97362 18.6458 1.72987 18.5352 1.54649 18.3519C1.3631 18.1685 1.25256 17.9247 1.23543 17.6659C1.2183 17.4072 1.29573 17.151 1.45334 16.945L9.48534 6.239L13.6603 10.415L2.95334 18.445ZM15.1263 8.3C14.4281 8.3 13.7456 8.09294 13.1651 7.70502C12.5845 7.31709 12.1321 6.76572 11.865 6.12064C11.5978 5.47556 11.528 4.76574 11.6642 4.08096C11.8005 3.39618 12.1368 2.7672 12.6306 2.27356C13.1244 1.77992 13.7535 1.4438 14.4383 1.30771C15.1231 1.17161 15.8329 1.24166 16.4779 1.50899C17.1229 1.77632 17.6742 2.22893 18.0619 2.80956C18.4497 3.3902 18.6565 4.07279 18.6563 4.771C18.655 5.70672 18.2827 6.60371 17.6209 7.26527C16.9592 7.92683 16.0621 8.29894 15.1263 8.3ZM7.94034 11.08L10.0163 9L10.8953 9.88L8.81934 11.96L7.94034 11.08Z" fill="#0F1A1C"/>
</g>
<defs>
<clipPath id="clip0_483_55">
<rect width="20" height="20" fill="white"/>
</clipPath>
</defs>
</svg>
