<svg width="20" height="20" viewBox="0 0 20 20" fill="none" xmlns="http://www.w3.org/2000/svg">
<path d="M15 15.5H15.5V15V5V4.5H15H13.389H13.1282L12.979 4.71383L10 8.98207L7.02101 4.71383L6.87177 4.5H6.611H5H4.5V5V15V15.5H5H7.175H7.675V15V11.689H7.6751L7.6749 11.6789L7.6545 10.6662L9.37308 13.222L9.52168 13.443H9.788H10.212H10.4783L10.6269 13.222L12.3499 10.6596L12.3321 11.6803L12.332 11.6803V11.689V15V15.5H12.832H15ZM2.70994 2.70994C3.48327 1.93661 4.53169 1.5015 5.62533 1.5H14.3747C15.4683 1.5015 16.5167 1.93661 17.2901 2.70994C18.0635 3.48334 18.4986 4.53189 18.5 5.62565V14.3744C18.4986 15.4681 18.0635 16.5167 17.2901 17.2901C16.5167 18.0635 15.4681 18.4986 14.3744 18.5H5.62565C4.53189 18.4986 3.48334 18.0635 2.70994 17.2901C1.93661 16.5167 1.5015 15.4683 1.5 14.3747V5.62533C1.5015 4.53169 1.93661 3.48327 2.70994 2.70994Z" fill="#0F1A1C" stroke="#0F1A1C"/>
</svg>
