<svg width="20" height="20" viewBox="0 0 20 20" fill="none" xmlns="http://www.w3.org/2000/svg">
<path d="M4.5 15H18V18.875C17.9995 19.1732 17.8808 19.459 17.6699 19.6699C17.459 19.8808 17.1732 19.9995 16.875 20H4.5C3.83696 20 3.20107 19.7366 2.73223 19.2678C2.26339 18.7989 2 18.163 2 17.5C2 16.837 2.26339 16.2011 2.73223 15.7322C3.20107 15.2634 3.83696 15 4.5 15ZM18 1.125V13.625H4.5C3.58118 13.6289 2.6942 13.9621 2 14.564V2.625C2.00079 1.92905 2.27761 1.26183 2.76972 0.769722C3.26183 0.277611 3.92905 0.000794011 4.625 0L16.875 0C17.1732 0.000528736 17.459 0.119225 17.6699 0.330089C17.8808 0.540953 17.9995 0.826794 18 1.125ZM14.13 4.5L13.07 3.439L8.6 7.909L7.13 6.439L6.07 7.5L8.07 9.5C8.21075 9.64021 8.40133 9.71893 8.6 9.71893C8.79867 9.71893 8.98925 9.64021 9.13 9.5L14.13 4.5Z" fill="#0F1A1C"/>
</svg>
