<svg width="20" height="20" viewBox="0 0 20 20" fill="none" xmlns="http://www.w3.org/2000/svg">
<path d="M9.87481 18.9997C8.0432 19.0049 6.25288 18.4557 4.7393 17.4242C3.22573 16.3927 2.05979 14.9273 1.39482 13.2207C1.31328 13.0199 1.29324 12.7994 1.33721 12.5871C1.38119 12.3749 1.4872 12.1805 1.64182 12.0287C1.79992 11.8706 2.00079 11.7623 2.21969 11.717C2.4386 11.6717 2.66597 11.6914 2.87382 11.7737C4.00475 12.223 5.23541 12.3611 6.43782 12.1737C7.8767 11.9469 9.20666 11.2698 10.2366 10.2398C11.2665 9.20966 11.9433 7.87959 12.1698 6.44066C12.3594 5.2388 12.2233 4.0081 11.7758 2.87666C11.6939 2.66893 11.6744 2.44179 11.7196 2.22312C11.7649 2.00445 11.8731 1.80375 12.0308 1.64566C12.1831 1.49137 12.3776 1.38551 12.5898 1.34138C12.8021 1.29726 13.0227 1.31684 13.2238 1.39766C15.0534 2.11153 16.6022 3.3992 17.6382 5.06761C18.6741 6.73603 19.1413 8.69529 18.9698 10.6517C18.7765 12.7931 17.838 14.7988 16.3178 16.3193C14.7977 17.8399 12.7922 18.7789 10.6508 18.9727C10.3898 18.9897 10.1318 18.9997 9.87481 18.9997ZM2.66882 13.0327C3.18211 14.2069 3.97435 15.238 4.9767 16.0365C5.97906 16.8349 7.16121 17.3766 8.42046 17.6143C9.67971 17.8521 10.978 17.7788 12.2025 17.4008C13.427 17.0228 14.5406 16.3516 15.4467 15.4454C16.3529 14.5392 17.024 13.4254 17.4019 12.2009C17.7798 10.9764 17.8529 9.6781 17.615 8.41887C17.3771 7.15964 16.8354 5.97754 16.0368 4.97526C15.2383 3.97298 14.2071 3.18085 13.0328 2.66766C13.4325 3.79306 13.5789 4.9928 13.4616 6.18129C13.3443 7.36979 12.9661 8.51774 12.354 9.54326C11.742 10.5688 10.9112 11.4466 9.92084 12.114C8.9305 12.7815 7.80507 13.2222 6.62482 13.4047C5.29563 13.608 3.9368 13.4802 2.66882 13.0327Z" fill="#0F1A1C"/>
</svg>
