<svg width="20" height="20" viewBox="0 0 20 20" fill="none" xmlns="http://www.w3.org/2000/svg">
<path d="M16.5 6.375V6.875H17H18.5V7.125H17H16.5V7.625V9.375V9.875H17H18.5V10.125H17H16.5V10.625V12.375V12.875H17H18.5V13.125H17H16.5V13.625V15.3744C16.4996 15.6728 16.3809 15.9589 16.1699 16.1699C15.9589 16.3809 15.6728 16.4996 15.3744 16.5H13.625H13.125V17V18.5H12.875V17V16.5H12.375H10.625H10.125V17V18.5H9.875V17V16.5H9.375H7.625H7.125V17V18.5H6.875V17V16.5H6.375H4.62561C4.32719 16.4996 4.0411 16.3809 3.83009 16.1699C3.61916 15.959 3.50046 15.673 3.5 15.3747V13.625V13.125H3H1.5V12.875H3H3.5V12.375V10.625V10.125H3H1.5V9.875H3H3.5V9.375V7.625V7.125H3H1.5V6.875H3H3.5V6.375V4.62527C3.50046 4.32697 3.61916 4.04102 3.83009 3.83009C4.04102 3.61916 4.32697 3.50046 4.62527 3.5H6.375H6.875V3V1.5H7.125V3V3.5H7.625H9.375H9.875V3V1.5H10.125V3V3.5H10.625H12.375H12.875V3V1.5H13.125V3V3.5H13.625H15.3747C15.673 3.50046 15.959 3.61916 16.1699 3.83009C16.3809 4.0411 16.4996 4.32719 16.5 4.62561V6.375ZM8.1242 13.625H8.125L11.875 13.625L11.8758 13.625C12.3395 13.6243 12.784 13.4397 13.1119 13.1119C13.4397 12.784 13.6243 12.3395 13.625 11.8758V11.875L13.625 8.125L13.625 8.1242C13.6243 7.66051 13.4397 7.21603 13.1119 6.88815C12.784 6.56027 12.3395 6.37574 11.8758 6.375H11.875L8.125 6.375L8.1242 6.375C7.66051 6.37574 7.21603 6.56027 6.88815 6.88815C6.56027 7.21603 6.37574 7.66051 6.375 8.1242V8.125L6.375 11.875L6.375 11.8758C6.37574 12.3395 6.56027 12.784 6.88815 13.1119C7.21603 13.4397 7.66051 13.6243 8.1242 13.625ZM8.875 8.875H11.125V11.125H8.875V8.875Z" fill="#0F1A1C" stroke="#0F1A1C"/>
</svg>
