<svg width="20" height="20" viewBox="0 0 20 20" fill="none" xmlns="http://www.w3.org/2000/svg">
<path d="M17.371 19H2.629C2.19712 18.9995 1.78309 18.8277 1.47771 18.5223C1.17233 18.2169 1.00053 17.8029 1 17.371V10.028H2.25V17.371C2.25 17.4208 2.2598 17.4701 2.27885 17.516C2.2979 17.562 2.32581 17.6038 2.36101 17.639C2.3962 17.6742 2.43798 17.7021 2.48396 17.7211C2.52995 17.7402 2.57923 17.75 2.629 17.75H17.371C17.4208 17.75 17.4701 17.7402 17.516 17.7211C17.562 17.7021 17.6038 17.6742 17.639 17.639C17.6742 17.6038 17.7021 17.562 17.7211 17.516C17.7402 17.4701 17.75 17.4208 17.75 17.371V2.629C17.75 2.52848 17.7101 2.43208 17.639 2.36101C17.5679 2.28993 17.4715 2.25 17.371 2.25H10.042V1H17.371C17.8029 1.00053 18.2169 1.17233 18.5223 1.47771C18.8277 1.78309 18.9995 2.19712 19 2.629V17.371C18.9995 17.8029 18.8277 18.2169 18.5223 18.5223C18.2169 18.8277 17.8029 18.9995 17.371 19ZM7.563 7.563L6.679 6.679C6.22668 7.11123 5.62513 7.35243 4.9995 7.35243C4.37387 7.35243 3.77232 7.11123 3.32 6.679C2.87581 6.23311 2.62641 5.62938 2.62641 5C2.62641 4.37062 2.87581 3.76689 3.32 3.321C3.77232 2.88877 4.37387 2.64757 4.9995 2.64757C5.62513 2.64757 6.22668 2.88877 6.679 3.321L7.563 2.437C6.87272 1.77744 5.95473 1.40937 5 1.40937C4.04527 1.40937 3.12728 1.77744 2.437 2.437C2.09248 2.7718 1.81795 3.17175 1.62935 3.61359C1.44076 4.05543 1.34187 4.53034 1.33844 5.01074C1.335 5.49113 1.42709 5.96741 1.60934 6.4119C1.7916 6.85639 2.06039 7.26022 2.40008 7.59992C2.73978 7.93961 3.14361 8.2084 3.5881 8.39066C4.03259 8.57291 4.50887 8.665 4.98926 8.66156C5.46966 8.65813 5.94457 8.55924 6.38641 8.37065C6.82825 8.18205 7.2282 7.90752 7.563 7.563Z" fill="#0F1A1C"/>
</svg>
