<svg width="20" height="20" viewBox="0 0 20 20" fill="none" xmlns="http://www.w3.org/2000/svg">
<path d="M17.75 1V1.5H18.25H19.375C19.4082 1.5 19.4399 1.51317 19.4634 1.53661C19.4868 1.56005 19.5 1.59185 19.5 1.625V18.375C19.5 18.4082 19.4868 18.4399 19.4634 18.4634C19.4399 18.4868 19.4082 18.5 19.375 18.5H18.25H17.75V19V19.5H17.5V19V18.5H17H15.625C15.5918 18.5 15.5601 18.4868 15.5366 18.4634C15.5132 18.4399 15.5 18.4082 15.5 18.375V17V16.5H15H5H4.5V17V18.375C4.5 18.4082 4.48683 18.4399 4.46339 18.4634C4.43995 18.4868 4.40815 18.5 4.375 18.5H3.25H2.75V19V19.5H2.5V19V18.5H2H0.625C0.591847 18.5 0.560053 18.4868 0.536612 18.4634C0.51317 18.4399 0.5 18.4082 0.5 18.375V1.625C0.5 1.59185 0.51317 1.56005 0.536612 1.53661C0.560054 1.51317 0.591848 1.5 0.625 1.5H2H2.5V1V0.5H2.75V1V1.5H3.25H4.375C4.40815 1.5 4.43995 1.51317 4.46339 1.53661C4.48683 1.56005 4.5 1.59185 4.5 1.625V3V3.5H5H15H15.5V3V1.625C15.5 1.59185 15.5132 1.56005 15.5366 1.53661C15.5601 1.51317 15.5918 1.5 15.625 1.5H17H17.5V1V0.5H17.75V1ZM3.75 18.25H4.25V17.75V2.25V1.75H3.75H1.25H0.75V2.25V17.75V18.25H1.25H3.75ZM4.5 15.75V16.25H5H15H15.5V15.75V4.25V3.75H15H5H4.5V4.25V15.75ZM18.75 18.25H19.25V17.75V2.25V1.75H18.75H16.25H15.75V2.25V17.75V18.25H16.25H18.75ZM8.282 7.525H11.718V7.775H8.282V7.525ZM8.282 11.525H11.718V11.775H8.282V11.525Z" fill="#0F1A1C" stroke="#0F1A1C"/>
</svg>
