<svg width="20" height="20" viewBox="0 0 20 20" fill="none" xmlns="http://www.w3.org/2000/svg">
<path d="M4.50033 9.25098C4.50199 10.2852 4.85917 11.2873 5.51198 12.0894C6.16484 12.8916 7.07367 13.4448 8.08604 13.6564L8.13664 13.667H8.18833H9.81933H9.87108L9.92173 13.6564C10.2236 13.5932 10.5181 13.499 10.8006 13.3752C10.8008 13.3751 10.801 13.375 10.8012 13.3749L11.2581 13.1754L11.658 14.0917L11.201 14.291C11.2007 14.2912 11.2004 14.2913 11.2001 14.2914C10.79 14.4685 10.3596 14.5945 9.91873 14.6665L9.49883 14.7351L9.49933 15.1606L9.50033 16.0006L9.50093 16.5H10.0003H12.1463V17.5H10.0003H9.50033V18V19.5H8.50033V18V17.5H8.00033H5.93733V16.5H8.00033H8.50033V16V15.16V14.7375L8.0838 14.667C7.26073 14.5277 6.48019 14.2028 5.80131 13.717C5.12244 13.2312 4.56305 12.5973 4.16554 11.8632C3.76804 11.1291 3.54284 10.3142 3.50702 9.4802C3.4712 8.64623 3.62568 7.81506 3.95874 7.04965C3.95876 7.04961 3.95878 7.04956 3.9588 7.04952L4.15868 6.5913L5.07498 6.99121L4.87533 7.44842C4.87529 7.44852 4.87525 7.44861 4.87521 7.4487C4.62642 8.0169 4.49875 8.6307 4.50033 9.25098ZM4.50033 9.25098C4.50033 9.25091 4.50033 9.25084 4.50033 9.25078L5.00033 9.25L4.50033 9.25132C4.50033 9.2512 4.50033 9.25109 4.50033 9.25098ZM14.041 11.4491L13.841 11.9077L12.9247 11.5078L13.1245 11.0502C13.1245 11.0502 13.1245 11.0501 13.1245 11.0501C13.4868 10.221 13.5907 9.30202 13.4228 8.413C13.2548 7.52393 12.8228 6.70614 12.183 6.06635C11.5432 5.42657 10.7254 4.9945 9.83634 4.82654C8.94727 4.65859 8.02822 4.76254 7.19912 5.12483L6.74155 5.32465L6.34163 4.40835L6.80024 4.2083L6.80027 4.20828C7.64416 3.84012 8.56705 3.68997 9.48412 3.77166C10.4012 3.85334 11.283 4.16422 12.0485 4.67573L12.3897 4.90371L12.6799 4.61355L14.9399 2.35355L15.7934 1.5H14.5863H12.3333V0.5H16.4792C16.7499 0.500221 17.0095 0.607877 17.201 0.799337C17.3925 0.990834 17.5002 1.25051 17.5003 1.52133V5.667H16.5003V3.414V2.20766L15.6469 3.06029L13.4239 5.28129L13.1147 5.59024L13.3796 5.93797C13.9709 6.71426 14.344 7.63446 14.4603 8.60335C14.5766 9.57223 14.4319 10.5546 14.0412 11.4488L14.041 11.4491Z" fill="#0F1A1C" stroke="#0F1A1C"/>
</svg>
