<svg width="20" height="20" viewBox="0 0 20 20" fill="none" xmlns="http://www.w3.org/2000/svg">
<path d="M17.375 2H2.625C1.92913 2.00106 1.26207 2.27796 0.770013 2.77001C0.277959 3.26207 0.00105795 3.92913 0 4.625L0 15.375C0.00105795 16.0709 0.277959 16.7379 0.770013 17.23C1.26207 17.722 1.92913 17.9989 2.625 18H17.375C18.0709 17.9989 18.7379 17.722 19.23 17.23C19.722 16.7379 19.9989 16.0709 20 15.375V4.625C19.9989 3.92913 19.722 3.26207 19.23 2.77001C18.7379 2.27796 18.0709 2.00106 17.375 2ZM7.707 12.293L6.293 13.707L3.071 10.485L3.042 9.585L3.364 9.221L6.293 6.293L7.707 7.707L5.414 10L7.707 12.293ZM11 14H9V6H11V14ZM16.636 10.778L13.707 13.707L12.293 12.293L14.586 10L12.293 7.707L13.707 6.293L16.929 9.515L16.958 10.415L16.636 10.778Z" fill="#0F1A1C"/>
</svg>
