<svg width="20" height="20" viewBox="0 0 20 20" fill="none" xmlns="http://www.w3.org/2000/svg">
<g clip-path="url(#clip0_474_38)">
<path d="M19.0694 5.81195C20.0973 8.02764 20.2824 10.5421 19.59 12.8844C18.8975 15.2268 17.375 17.2364 15.3075 18.537C13.2401 19.8376 10.7694 20.34 8.35816 19.9501C5.94693 19.5602 3.76049 18.3048 2.20825 16.4189C0.656015 14.533 -0.155575 12.146 -0.0745474 9.70475C0.00647973 7.26355 0.974567 4.93558 2.64844 3.15677C4.32232 1.37795 6.58719 0.270264 9.01897 0.0411261C11.4507 -0.188012 13.8827 0.477109 15.8594 1.91195L15.0124 2.83695C13.2875 1.62687 11.185 1.07735 9.08862 1.28868C6.99223 1.50001 5.04173 2.45809 3.59307 3.98808C2.14441 5.51807 1.29418 7.51795 1.19757 9.62274C1.10095 11.7275 1.76438 13.7969 3.06677 15.4532C4.36917 17.1094 6.2237 18.2422 8.29191 18.6447C10.3601 19.0472 12.5041 18.6926 14.3326 17.6456C16.1611 16.5987 17.5521 14.9291 18.2519 12.9417C18.9517 10.9543 18.9135 8.78155 18.1444 6.81995L19.0694 5.81195ZM10.0094 12.6429C10.0935 12.6414 10.1764 12.6229 10.2533 12.5885C10.3301 12.5542 10.3991 12.5047 10.4564 12.4429L19.9354 2.09095L19.0134 1.24695L9.97536 11.1139L6.43135 7.56995L5.54735 8.45395L9.55336 12.4599C9.67071 12.577 9.82963 12.6428 9.99535 12.6429H10.0094Z" fill="#0F1A1C"/>
</g>
<defs>
<clipPath id="clip0_474_38">
<rect width="20" height="20" fill="white"/>
</clipPath>
</defs>
</svg>
