<svg width="20" height="20" viewBox="0 0 20 20" fill="none" xmlns="http://www.w3.org/2000/svg">
<path d="M11.0001 18H12.0001C12.0001 18.5304 11.7894 19.0392 11.4143 19.4142C11.0392 19.7893 10.5305 20 10.0001 20C9.46967 20 8.96097 19.7893 8.58589 19.4142C8.21082 19.0392 8.00011 18.5304 8.00011 18H11.0001ZM10.0001 2.25001C11.2802 2.25346 12.5067 2.76475 13.4102 3.67163C14.3137 4.57852 14.8204 5.80687 14.8191 7.08701V8.69901C14.8207 9.34382 14.9799 9.97847 15.2828 10.5477C15.5857 11.1169 16.0232 11.6035 16.5571 11.965C16.9234 12.2117 17.2236 12.5444 17.4315 12.9341C17.6393 13.3237 17.7483 13.7584 17.7491 14.2L18.8921 15.343C18.9614 15.1984 18.9983 15.0404 19.0001 14.88V14.208C19.001 13.5612 18.8431 12.924 18.5403 12.3525C18.2374 11.7809 17.7988 11.2925 17.2631 10.93C16.898 10.6835 16.5988 10.3514 16.3916 9.96271C16.1843 9.57401 16.0753 9.14051 16.0741 8.70001L16.0691 7.09001C16.0752 5.92499 15.7452 4.78294 15.1186 3.80075C14.492 2.81856 13.5954 2.03792 12.5364 1.55241C11.4773 1.0669 10.3007 0.897115 9.1476 1.06341C7.99449 1.22971 6.91381 1.72504 6.03511 2.49001L6.93511 3.39001C7.79022 2.66021 8.87592 2.25639 10.0001 2.25001ZM18.5581 19.442L15.1151 16H2.11511C1.81885 15.999 1.5351 15.8805 1.32608 15.6705C1.11707 15.4605 0.999839 15.1763 1.00011 14.88V14.208C0.999125 13.5611 1.15711 12.9238 1.46016 12.3522C1.76322 11.7806 2.20206 11.2922 2.73811 10.93C3.10298 10.6834 3.40199 10.3512 3.60906 9.96256C3.81613 9.57386 3.92497 9.14042 3.92611 8.70001V7.08701C3.92967 6.42782 4.04184 5.77373 4.25811 5.15101L0.558105 1.45101L1.44211 0.558014L19.4421 18.558L18.5581 19.442ZM13.8651 14.75L5.28211 6.16601C5.21775 6.46817 5.18424 6.77609 5.18211 7.08501V8.69901C5.18052 9.34382 5.02134 9.97847 4.71842 10.5477C4.4155 11.1169 3.97804 11.6035 3.44411 11.965C3.0763 12.2122 2.77498 12.5461 2.56675 12.9373C2.35852 13.3285 2.24977 13.7649 2.25011 14.208V14.75H13.8651Z" fill="#0F1A1C"/>
</svg>
