<svg width="20" height="20" viewBox="0 0 20 20" fill="none" xmlns="http://www.w3.org/2000/svg">
<g clip-path="url(#clip0_616_25)">
<path d="M18.838 3.631C18.626 3.06737 18.2961 2.55552 17.8703 2.12972C17.4445 1.70392 16.9326 1.37398 16.369 1.162C12.263 -0.379974 7.73699 -0.379974 3.63098 1.162C3.06735 1.37398 2.5555 1.70392 2.1297 2.12972C1.7039 2.55552 1.37396 3.06737 1.16198 3.631C-0.387327 7.73533 -0.387327 12.2637 1.16198 16.368C1.37373 16.9319 1.70357 17.444 2.12939 17.87C2.55522 18.296 3.06719 18.626 3.63098 18.838C7.73564 20.3874 12.2643 20.3874 16.369 18.838C16.9327 18.6262 17.4446 18.2963 17.8705 17.8705C18.2963 17.4447 18.6262 16.9327 18.838 16.369C20.3874 12.2643 20.3874 7.73566 18.838 3.631ZM13.877 10.608L7.99298 14.408C7.88365 14.4789 7.7572 14.519 7.62697 14.5241C7.49675 14.5291 7.36758 14.4989 7.25309 14.4366C7.1386 14.3744 7.04304 14.2824 6.97649 14.1703C6.90994 14.0583 6.87487 13.9303 6.87498 13.8V6.2C6.87651 6.07033 6.91279 5.94345 6.98004 5.83258C7.04729 5.7217 7.14305 5.6309 7.25733 5.56962C7.37161 5.50834 7.50024 5.47884 7.62981 5.48418C7.75937 5.48952 7.88513 5.52952 7.99398 5.6L13.876 9.4C13.9719 9.47136 14.0511 9.56268 14.1082 9.66765C14.1654 9.77262 14.1991 9.88874 14.207 10.008C14.1981 10.1258 14.164 10.2403 14.1071 10.3438C14.0502 10.4473 13.9717 10.5374 13.877 10.608Z" fill="#0F1A1C"/>
</g>
<defs>
<clipPath id="clip0_616_25">
<rect width="20" height="20" fill="white"/>
</clipPath>
</defs>
</svg>
