<svg width="20" height="20" viewBox="0 0 20 20" fill="none" xmlns="http://www.w3.org/2000/svg">
<path d="M9.98323 19.994C9.83571 19.9944 9.68958 19.9655 9.55329 19.909C9.417 19.8525 9.29327 19.7696 9.18923 19.665L6.89923 16.907H4.21423C3.91665 16.9065 3.63142 16.788 3.42109 16.5774C3.21076 16.3669 3.0925 16.0816 3.09223 15.784V13.1L0.378233 10.851C0.264591 10.7457 0.173142 10.6188 0.109263 10.4777C0.0453845 10.3366 0.0103659 10.1841 0.0062664 10.0293C0.00216692 9.87442 0.0290693 9.72031 0.0853917 9.57601C0.141714 9.43171 0.226319 9.30013 0.334233 9.189L3.09223 6.9V4.216C3.0925 3.91842 3.21076 3.63308 3.42109 3.42256C3.63142 3.21205 3.91665 3.09353 4.21423 3.093H6.89923L9.14923 0.379001C9.25417 0.265175 9.38087 0.173547 9.52184 0.109536C9.6628 0.0455253 9.81517 0.0104311 9.96994 0.00632892C10.1247 0.00222674 10.2787 0.0291998 10.4229 0.0856531C10.567 0.142106 10.6984 0.226894 10.8092 0.335001L13.0992 3.093H15.7862C16.0838 3.09353 16.369 3.21205 16.5794 3.42256C16.7897 3.63308 16.908 3.91842 16.9082 4.216V6.9L19.6222 9.148C19.7359 9.25326 19.8273 9.38019 19.8912 9.5213C19.9551 9.66242 19.9901 9.81489 19.9942 9.96974C19.9983 10.1246 19.9714 10.2787 19.9151 10.423C19.8588 10.5673 19.7741 10.6989 19.6662 10.81L16.9062 13.1V15.785C16.906 16.0826 16.7877 16.3679 16.5774 16.5784C16.367 16.789 16.0818 16.9075 15.7842 16.908H13.0992L10.8492 19.621C10.7369 19.7376 10.6024 19.8306 10.4538 19.8946C10.3051 19.9587 10.1451 19.9924 9.98323 19.994ZM4.34223 15.657H7.29923L7.55223 15.775L7.70723 15.914L9.99923 18.69L12.3822 15.808L12.6342 15.688L12.8412 15.657H15.6542V12.71L15.7742 12.459L15.9182 12.292L18.6892 10L15.8142 7.62L15.6932 7.368L15.6562 7.147V4.347H12.7042L12.4512 4.229L12.2992 4.086L9.99923 1.31L7.61423 4.192L7.36223 4.312L7.15523 4.343H4.34223V7.29L4.22223 7.541L4.07823 7.708L1.30923 10L4.19923 12.388L4.31523 12.642L4.34623 12.842L4.34223 15.657ZM16.4832 12.857L16.3182 12.777L16.4832 12.857ZM8.94123 13.446L13.9412 8.446L13.0572 7.562L8.49923 12.116L6.94123 10.558L6.05723 11.442L8.05723 13.442C8.11527 13.5001 8.18418 13.5461 8.26002 13.5775C8.33586 13.6089 8.41714 13.6251 8.49923 13.6251C8.58132 13.6251 8.66261 13.6089 8.73845 13.5775C8.81429 13.5461 8.88319 13.5001 8.94123 13.442V13.446Z" fill="#0F1A1C"/>
</svg>
