<svg width="20" height="20" viewBox="0 0 20 20" fill="none" xmlns="http://www.w3.org/2000/svg">
<g clip-path="url(#clip0_3596_435)">
<path d="M16.5 10.5H17V10V7.5H18.375C18.4082 7.5 18.4399 7.51317 18.4634 7.53661C18.4868 7.56005 18.5 7.59185 18.5 7.625V17.4028C18.4975 17.684 18.4391 17.9618 18.328 18.2201C18.2168 18.479 18.0549 18.713 17.852 18.9085C17.6491 19.104 17.4093 19.2571 17.1464 19.3587C16.8836 19.4603 16.6032 19.5084 16.3215 19.5002L16.3143 19.5H16.307H3.745V19.4999L3.73668 19.5001C3.16119 19.5097 2.60537 19.2907 2.19098 18.8913C1.77759 18.4928 1.53858 17.947 1.52599 17.3731L1.5 7.62679C1.5 7.62657 1.5 7.62636 1.5 7.62614C1.50023 7.5928 1.51356 7.56087 1.53712 7.53727C1.56074 7.51362 1.59272 7.50023 1.62612 7.5H5H5.5V7V5C5.5 3.80653 5.97411 2.66193 6.81802 1.81802C7.66193 0.974106 8.80653 0.5 10 0.5C11.1935 0.5 12.3381 0.974106 13.182 1.81802C14.0259 2.66193 14.5 3.80653 14.5 5V10V10.5H15H16.5ZM8.5 10.5H9V10V7.5H13H13.5V7V5C13.5 4.07174 13.1313 3.1815 12.4749 2.52513C11.8185 1.86875 10.9283 1.5 10 1.5C9.07174 1.5 8.1815 1.86875 7.52513 2.52513C6.86875 3.1815 6.5 4.07174 6.5 5V10V10.5H7H8.5Z" fill="#0F1A1C" stroke="#0F1A1C"/>
</g>
<defs>
<clipPath id="clip0_3596_435">
<rect width="20" height="20" fill="white"/>
</clipPath>
</defs>
</svg>
