<svg width="20" height="20" viewBox="0 0 20 20" fill="none" xmlns="http://www.w3.org/2000/svg">
<path d="M6.157 12.683C6.64624 12.9546 7.19747 13.0948 7.757 13.09C8.08389 13.09 8.40925 13.0453 8.724 12.957C9.03085 12.8754 9.32234 12.7444 9.587 12.569L9.146 11.534C8.97622 11.7025 8.76887 11.8283 8.541 11.901C8.29543 11.9869 8.03716 12.0308 7.777 12.031C7.50999 12.0334 7.24518 11.9825 6.99812 11.8812C6.75106 11.7799 6.52673 11.6302 6.33829 11.441C6.14984 11.2518 6.00109 11.0269 5.90076 10.7795C5.80042 10.532 5.75053 10.267 5.754 10C5.7487 9.64657 5.83995 9.2984 6.01794 8.99301C6.19592 8.68762 6.45388 8.4366 6.764 8.267C7.06989 8.09749 7.41429 8.00966 7.764 8.012C8.02516 8.01139 8.28429 8.0578 8.529 8.149C8.75095 8.2279 8.95493 8.35029 9.129 8.509L9.569 7.466C9.02237 7.1304 8.39343 6.95283 7.752 6.953C7.1969 6.9487 6.64991 7.08639 6.163 7.353C5.68547 7.61046 5.28483 7.99005 5.002 8.453C4.71247 8.9235 4.56265 9.4666 4.57 10.019C4.56703 10.5661 4.71589 11.1034 5 11.571C5.28078 12.0373 5.67996 12.4209 6.157 12.683Z" fill="#0F1A1C"/>
<path d="M11.9 12.683C12.3892 12.9546 12.9405 13.0948 13.5 13.09C13.8272 13.09 14.1529 13.0452 14.468 12.957C14.7745 12.8753 15.0656 12.7442 15.33 12.569L14.9 11.534C14.7302 11.7025 14.5229 11.8283 14.295 11.901C14.0494 11.9869 13.7912 12.0308 13.531 12.031C13.2633 12.0345 12.9976 11.9843 12.7497 11.8835C12.5017 11.7827 12.2764 11.6332 12.0871 11.4439C11.8978 11.2546 11.7483 11.0293 11.6475 10.7813C11.5467 10.5334 11.4965 10.2677 11.5 10C11.4947 9.64657 11.586 9.2984 11.7639 8.99301C11.9419 8.68762 12.1999 8.4366 12.51 8.267C12.8159 8.09749 13.1603 8.00966 13.51 8.012C13.7712 8.01139 14.0303 8.0578 14.275 8.149C14.497 8.2279 14.7009 8.35029 14.875 8.509L15.315 7.466C14.7688 7.1311 14.1407 6.9539 13.5 6.954C12.9449 6.9497 12.3979 7.08739 11.911 7.354C11.4335 7.61145 11.0328 7.99105 10.75 8.454C10.4605 8.9245 10.3106 9.4676 10.318 10.02C10.3129 10.5685 10.4604 11.1075 10.744 11.577C11.0253 12.0409 11.4241 12.4224 11.9 12.683Z" fill="#0F1A1C"/>
<path d="M17.875 2H2.125C1.82679 2.00053 1.54095 2.11922 1.33009 2.33009C1.11922 2.54095 1.00053 2.82679 1 3.125V16.875C1.00053 17.1732 1.11922 17.459 1.33009 17.6699C1.54095 17.8808 1.82679 17.9995 2.125 18H17.875C18.1732 17.9995 18.459 17.8808 18.6699 17.6699C18.8808 17.459 18.9995 17.1732 19 16.875V3.125C18.9995 2.82679 18.8808 2.54095 18.6699 2.33009C18.459 2.11922 18.1732 2.00053 17.875 2ZM17.75 16.75H2.25V3.25H17.75V16.75Z" fill="#0F1A1C"/>
</svg>
