<svg width="20" height="20" viewBox="0 0 20 20" fill="none" xmlns="http://www.w3.org/2000/svg">
<g clip-path="url(#clip0_630_41)">
<path d="M17.376 3.032H15.021L13.8 1.446C13.6924 1.30764 13.5547 1.19558 13.3974 1.1183C13.2401 1.04103 13.0673 1.00057 12.892 1H7.152C6.97372 1.00028 6.79786 1.04134 6.63788 1.12003C6.4779 1.19872 6.33804 1.31295 6.229 1.454L5.014 3.031H2.625C1.92913 3.03206 1.26207 3.30896 0.770013 3.80101C0.277959 4.29307 0.00105795 4.96013 0 5.656V15.375C0.00105795 16.0709 0.277959 16.7379 0.770013 17.23C1.26207 17.722 1.92913 17.9989 2.625 18H17.375C18.0709 17.9989 18.7379 17.722 19.23 17.23C19.722 16.7379 19.9989 16.0709 20 15.375V5.657C19.9995 4.96114 19.7229 4.29392 19.2309 3.80178C18.739 3.30964 18.0719 3.03279 17.376 3.032ZM10.007 13.992C9.21587 13.992 8.44252 13.7574 7.78472 13.3179C7.12692 12.8784 6.61423 12.2536 6.31148 11.5227C6.00873 10.7918 5.92952 9.98756 6.08386 9.21164C6.2382 8.43571 6.61916 7.72298 7.17857 7.16357C7.73798 6.60416 8.45072 6.2232 9.22664 6.06886C10.0026 5.91452 10.8068 5.99373 11.5377 6.29648C12.2686 6.59923 12.8934 7.11192 13.3329 7.76972C13.7724 8.42752 14.007 9.20087 14.007 9.992C14.007 10.5173 13.9035 11.0374 13.7025 11.5227C13.5015 12.008 13.2069 12.449 12.8354 12.8204C12.464 13.1919 12.023 13.4865 11.5377 13.6875C11.0524 13.8885 10.5323 13.992 10.007 13.992Z" fill="#0F1A1C"/>
</g>
<defs>
<clipPath id="clip0_630_41">
<rect width="20" height="20" fill="white"/>
</clipPath>
</defs>
</svg>
