<svg width="20" height="20" viewBox="0 0 20 20" fill="none" xmlns="http://www.w3.org/2000/svg">
<path d="M10 0C7.82787 0.0555687 5.76627 0.969759 4.2668 2.54233C2.76733 4.1149 1.95223 6.21765 2.00004 8.39C2.00004 14.142 8.80904 19.18 9.58104 19.732L10.046 20L10.415 19.735C11.191 19.18 18 14.142 18 8.39C18.0478 6.21765 17.2327 4.1149 15.7333 2.54233C14.2338 0.969759 12.1722 0.0555687 10 0ZM10 11.3C9.33759 11.2959 8.6912 11.0956 8.14241 10.7246C7.59362 10.3535 7.167 9.82825 6.91636 9.21504C6.66572 8.60182 6.60229 7.92811 6.73406 7.27889C6.86584 6.62967 7.18692 6.03401 7.65681 5.56704C8.1267 5.10007 8.72436 4.78271 9.37439 4.65499C10.0244 4.52727 10.6977 4.59491 11.3094 4.84937C11.921 5.10383 12.4436 5.53372 12.8112 6.08482C13.1788 6.63592 13.375 7.28354 13.375 7.946C13.3721 8.83828 13.0149 9.69287 12.382 10.3218C11.7491 10.9508 10.8923 11.3027 10 11.3Z" fill="#0F1A1C"/>
</svg>
