<svg width="20" height="20" viewBox="0 0 20 20" fill="none" xmlns="http://www.w3.org/2000/svg">
<path d="M4.74485 7.6458C4.59067 7.30125 4.50751 6.92923 4.50027 6.55196C4.56144 5.69413 4.95595 4.89399 5.59979 4.32307C6.2485 3.74782 7.09796 3.45172 7.9637 3.49907L7.99159 3.5006L8.01949 3.49901C8.88653 3.44953 9.738 3.74466 10.3884 4.32013C11.034 4.89127 11.4296 5.69262 11.4907 6.55185C11.4834 6.92918 11.4001 7.30122 11.2458 7.64577C11.0888 7.99619 10.8617 8.31074 10.5784 8.56998L10.0879 9.01896L10.6554 9.36555C11.2032 9.70003 11.658 10.167 11.9779 10.7234C12.2944 11.2739 12.4689 11.8944 12.4856 12.529C12.4126 13.6424 11.9052 14.683 11.0721 15.4263C10.234 16.1741 9.13423 16.5602 8.01257 16.5005L7.98674 16.4991L7.9609 16.5004C6.84134 16.5567 5.74479 16.1691 4.90939 15.4216C4.07913 14.6788 3.57344 13.6402 3.50038 12.5291C3.51755 11.8942 3.69253 11.2735 4.00966 10.7231C4.33022 10.1667 4.7857 9.69989 5.33411 9.36583L5.90246 9.01962L5.41173 8.57012C5.12863 8.3108 4.90167 7.99623 4.74485 7.6458ZM5.5003 6.45968L5.48762 6.53878L5.50029 6.61788C5.59464 7.20703 5.91067 7.73781 6.38364 8.10153C6.84327 8.45498 7.41732 8.62467 7.99413 8.57881C8.5708 8.62437 9.14463 8.45459 9.60413 8.10123C10.077 7.73761 10.393 7.20708 10.4877 6.61814L10.5004 6.539L10.4877 6.45984C10.3934 5.86995 10.0769 5.33851 9.60317 4.97454C9.14276 4.62078 8.56775 4.45128 7.99019 4.49783C7.41391 4.45325 6.84081 4.62365 6.38205 4.9772C5.91 5.34098 5.59462 5.87124 5.5003 6.45968ZM11.4851 12.593L11.4909 12.5389L11.4851 12.4848C11.3926 11.6334 10.97 10.8521 10.3079 10.3087C9.65723 9.77474 8.82627 9.51241 7.988 9.57516C7.14973 9.51241 6.31877 9.77474 5.66809 10.3087C5.00601 10.8521 4.58337 11.6334 4.49092 12.4848L4.48505 12.5389L4.49094 12.593C4.58368 13.4442 5.00644 14.2252 5.66848 14.7683C6.31913 15.3021 7.14992 15.5642 7.988 15.5015C8.82608 15.5642 9.65687 15.3021 10.3075 14.7683C10.9696 14.2252 11.3923 13.4442 11.4851 12.593ZM17.5 7.99982V8.49982H18H19.5V9.49982H18H17.5V9.99982V11.4998H16.5V9.99982V9.49982H16H14.5V8.49982H16H16.5V7.99982V6.49982H17.5V7.99982ZM0.5 3.49982H1.5V16.4998H0.5V3.49982Z" fill="#0F1A1C" stroke="#0F1A1C"/>
</svg>
