<svg width="20" height="20" viewBox="0 0 20 20" fill="none" xmlns="http://www.w3.org/2000/svg">
<path d="M13.857 15.861C13.9151 15.919 13.9611 15.9879 13.9925 16.0638C14.0239 16.1396 14.0401 16.2209 14.0401 16.303C14.0401 16.3851 14.0239 16.4664 13.9925 16.5422C13.9611 16.6181 13.9151 16.687 13.857 16.745L10.857 19.745L9.974 18.861L11.904 16.931H7.42C5.9824 16.9291 4.60428 16.357 3.58812 15.3401C2.57195 14.3231 2.00079 12.9446 2 11.507V9.107H3.25V11.507C3.25106 12.6127 3.6907 13.6729 4.47247 14.4548C5.25424 15.2368 6.31428 15.6767 7.42 15.678H11.906L9.976 13.748L10.859 12.864L13.857 15.861ZM12.58 3.072H8.094L10.024 1.142L9.141 0.258003L6.141 3.258C6.08295 3.31604 6.03689 3.38495 6.00547 3.46079C5.97406 3.53663 5.95788 3.61791 5.95788 3.7C5.95788 3.78209 5.97406 3.86338 6.00547 3.93922C6.03689 4.01506 6.08295 4.08396 6.141 4.142L9.141 7.142L10.024 6.258L8.094 4.328H12.58C13.6857 4.32933 14.7458 4.76923 15.5275 5.55118C16.3093 6.33314 16.7489 7.39328 16.75 8.499V10.899H18V8.499C18 7.06088 17.4292 5.68157 16.4129 4.66401C15.3967 3.64645 14.0181 3.07386 12.58 3.072Z" fill="#0F1A1C"/>
</svg>
