<svg width="20" height="20" viewBox="0 0 20 20" fill="none" xmlns="http://www.w3.org/2000/svg">
<path d="M15.372 1H4.628C4.19631 1.00026 3.78238 1.17187 3.47712 1.47712C3.17187 1.78237 3.00027 2.19631 3 2.628V18.884C2.99982 19.0834 3.05319 19.2791 3.15455 19.4508C3.2559 19.6225 3.40151 19.7638 3.57616 19.86C3.75082 19.9562 3.94809 20.0037 4.14737 19.9975C4.34665 19.9913 4.54062 19.9318 4.709 19.825L10 16.479L15.282 19.819C15.4513 19.9263 15.6463 19.9861 15.8466 19.9923C16.0469 19.9985 16.2452 19.9507 16.4207 19.854C16.5963 19.7574 16.7427 19.6153 16.8446 19.4428C16.9465 19.2702 17.0001 19.0734 17 18.873V2.628C16.9997 2.19631 16.8281 1.78237 16.5229 1.47712C16.2176 1.17187 15.8037 1.00026 15.372 1Z" fill="#0F1A1C"/>
</svg>
