<svg width="20" height="20" viewBox="0 0 20 20" fill="none" xmlns="http://www.w3.org/2000/svg">
<path d="M7.625 7.125V12.855L6 12.112L1.885 13.993C1.78981 14.0365 1.68521 14.0555 1.5808 14.0481C1.47639 14.0407 1.37551 14.0072 1.28742 13.9506C1.19933 13.8941 1.12684 13.8163 1.07663 13.7245C1.02641 13.6327 1.00006 13.5297 1 13.425V2.125C1.00683 1.82059 1.13399 1.53129 1.35365 1.32044C1.57331 1.10959 1.86757 0.994367 2.172 0.999999H9.828C10.1324 0.994367 10.4267 1.10959 10.6463 1.32044C10.866 1.53129 10.9932 1.82059 11 2.125V4.625H10.172C9.50299 4.61967 8.85917 4.87985 8.38171 5.3485C7.90426 5.81715 7.63213 6.45601 7.625 7.125ZM17.828 6H10.172C9.86757 5.99437 9.57331 6.10959 9.35365 6.32044C9.13399 6.53129 9.00683 6.82059 9 7.125V18.425C9.00006 18.5297 9.02641 18.6327 9.07663 18.7245C9.12684 18.8163 9.19933 18.8941 9.28742 18.9506C9.37551 19.0072 9.47639 19.0407 9.5808 19.0481C9.68521 19.0555 9.78981 19.0365 9.885 18.993L14 17.112L18.115 18.993C18.1966 19.0304 18.2852 19.0499 18.375 19.05C18.5406 19.0495 18.6993 18.9835 18.8164 18.8664C18.9335 18.7493 18.9995 18.5906 19 18.425V7.125C18.9932 6.82059 18.866 6.53129 18.6463 6.32044C18.4267 6.10959 18.1324 5.99437 17.828 6Z" fill="#0F1A1C"/>
</svg>
