<svg width="20" height="20" viewBox="0 0 20 20" fill="none" xmlns="http://www.w3.org/2000/svg">
<path d="M11.75 12.25H12.25V11.75V8.25V7.75H11.75H8.25H7.75V8.25V11.75V12.25H8.25H11.75ZM16.5 6.375V6.875H17H18.5V7.125H17H16.5V7.625V9.375V9.875H17H18.5V10.125H17H16.5V10.625V12.375V12.875H17H18.5V13.125H17H16.5V13.625V15.3744C16.4996 15.6728 16.3809 15.9589 16.1699 16.1699C15.9589 16.3809 15.6728 16.4996 15.3744 16.5H13.625H13.125V17V18.5H12.875V17V16.5H12.375H10.625H10.125V17V18.5H9.875V17V16.5H9.375H7.625H7.125V17V18.5H6.875V17V16.5H6.375H4.62561C4.32719 16.4996 4.0411 16.3809 3.83009 16.1699C3.61916 15.959 3.50046 15.673 3.5 15.3747V13.625V13.125H3H1.5V12.875H3H3.5V12.375V10.625V10.125H3H1.5V9.875H3H3.5V9.375V7.625V7.125H3H1.5V6.875H3H3.5V6.375V4.62527C3.50046 4.32697 3.61916 4.04102 3.83009 3.83009C4.04102 3.61916 4.32697 3.50046 4.62527 3.5H6.375H6.875V3V1.5H7.125V3V3.5H7.625H9.375H9.875V3V1.5H10.125V3V3.5H10.625H12.375H12.875V3V1.5H13.125V3V3.5H13.625H15.3747C15.673 3.50046 15.959 3.61916 16.1699 3.83009C16.3809 4.0411 16.4996 4.32719 16.5 4.62561V6.375ZM7.68364 7.68364C7.80085 7.56643 7.9597 7.50041 8.12544 7.5H11.8746C12.0403 7.50041 12.1992 7.56643 12.3164 7.68364C12.4336 7.80085 12.4996 7.95969 12.5 8.12544C12.5 8.12559 12.5 8.12574 12.5 8.12589V11.8741C12.5 11.8743 12.5 11.8744 12.5 11.8746C12.4996 12.0403 12.4336 12.1992 12.3164 12.3164C12.1992 12.4336 12.0403 12.4996 11.8746 12.5C11.8744 12.5 11.8743 12.5 11.8741 12.5H8.12589C8.12574 12.5 8.12559 12.5 8.12544 12.5C7.95969 12.4996 7.80085 12.4336 7.68364 12.3164C7.56643 12.1992 7.50041 12.0403 7.5 11.8746V8.12544C7.50041 7.9597 7.56643 7.80085 7.68364 7.68364ZM15.9937 15.9937C16.1578 15.8296 16.25 15.6071 16.25 15.375V4.625C16.25 4.39294 16.1578 4.17038 15.9937 4.00628C15.8296 3.84219 15.6071 3.75 15.375 3.75H4.625C4.39293 3.75 4.17038 3.84219 4.00628 4.00628C3.84219 4.17038 3.75 4.39293 3.75 4.625V15.375C3.75 15.6071 3.84219 15.8296 4.00628 15.9937C4.17038 16.1578 4.39294 16.25 4.625 16.25H15.375C15.6071 16.25 15.8296 16.1578 15.9937 15.9937Z" fill="#0F1A1C" stroke="#0F1A1C"/>
</svg>
