<svg width="20" height="20" viewBox="0 0 20 20" fill="none" xmlns="http://www.w3.org/2000/svg">
<g clip-path="url(#clip0_616_19)">
<path d="M5.00005 2.25001C3.43377 2.25061 1.87177 2.41348 0.339055 2.73601L0.0810547 1.51301C1.69852 1.17205 3.34704 1.00013 5.00005 1.00001V2.25001ZM19.0001 10.223V13.246C19.0218 15.0077 18.3459 16.7064 17.12 17.9717C15.8941 19.237 14.2175 19.9661 12.4561 20H9.82505C8.68738 19.9745 7.57523 19.6578 6.59484 19.0801C5.61444 18.5023 4.79854 17.6829 4.22505 16.7L1.31205 11.884C1.01617 11.3945 0.926235 10.8077 1.06192 10.252C1.1976 9.69638 1.54786 9.21708 2.03605 8.91901C2.48914 8.64362 3.02882 8.54756 3.5491 8.64969C4.06939 8.75183 4.5327 9.04478 4.84805 9.47101L6.00005 11.016V2.24601C5.98478 1.97495 6.02453 1.7036 6.1169 1.4483C6.20927 1.19301 6.35235 0.959044 6.53753 0.760505C6.7227 0.561966 6.94615 0.402958 7.1944 0.293057C7.44266 0.183155 7.71059 0.124633 7.98205 0.121015C8.56029 0.11745 9.11786 0.33586 9.53983 0.731224C9.9618 1.12659 10.216 1.66877 10.2501 2.24601V6.20001C10.4737 6.11561 10.711 6.07291 10.9501 6.07401C11.3686 6.07501 11.7774 6.20035 12.1246 6.43413C12.4718 6.6679 12.7417 6.99957 12.9001 7.38701C13.2119 7.21203 13.5635 7.12041 13.9211 7.12101C14.3289 7.12213 14.7278 7.24133 15.0694 7.46421C15.411 7.6871 15.6807 8.00413 15.8461 8.37701C16.1636 8.19427 16.5237 8.09871 16.8901 8.10002C17.4512 8.1024 17.9885 8.32725 18.384 8.72524C18.7796 9.12324 19.0011 9.66188 19.0001 10.223Z" fill="#0F1A1C"/>
</g>
<defs>
<clipPath id="clip0_616_19">
<rect width="20" height="20" fill="white"/>
</clipPath>
</defs>
</svg>
