<svg width="20" height="20" viewBox="0 0 20 20" fill="none" xmlns="http://www.w3.org/2000/svg">
<path d="M18.386 19H1.614C1.18628 18.9995 0.776207 18.8294 0.473667 18.527C0.171126 18.2247 0.000793716 17.8147 0 17.387L0 8.614C0.000529249 8.1861 0.170745 7.77588 0.473314 7.47331C0.775883 7.17075 1.1861 7.00053 1.614 7H18.386C18.8139 7.00053 19.2241 7.17075 19.5267 7.47331C19.8293 7.77588 19.9995 8.1861 20 8.614V17.387C19.9992 17.8147 19.8289 18.2247 19.5263 18.527C19.2238 18.8294 18.8137 18.9995 18.386 19ZM1.614 8.25C1.51746 8.25 1.42488 8.28835 1.35661 8.35661C1.28835 8.42488 1.25 8.51746 1.25 8.614V17.387C1.25026 17.4834 1.28873 17.5757 1.35697 17.6437C1.4252 17.7118 1.51763 17.75 1.614 17.75H18.386C18.4824 17.75 18.5748 17.7118 18.643 17.6437C18.7113 17.5757 18.7497 17.4834 18.75 17.387V8.614C18.75 8.51746 18.7117 8.42488 18.6434 8.35661C18.5751 8.28835 18.4825 8.25 18.386 8.25H1.614ZM17 4H3V5.25H17V4ZM14 1H6V2.25H14V1Z" fill="#0F1A1C"/>
</svg>
