<svg width="20" height="20" viewBox="0 0 20 20" fill="none" xmlns="http://www.w3.org/2000/svg">
<path d="M2.624 16C2.19336 15.9992 1.7806 15.8277 1.47618 15.5231C1.17177 15.2185 1.00053 14.8056 1 14.375V2.625C1.00053 2.19436 1.17177 1.78149 1.47618 1.47689C1.7806 1.17229 2.19336 1.00079 2.624 1H14.375C14.8058 1.00053 15.2188 1.1719 15.5235 1.47654C15.8281 1.78117 15.9995 2.19419 16 2.625H14.75C14.75 2.52554 14.7105 2.43016 14.6402 2.35983C14.5698 2.28951 14.4745 2.25 14.375 2.25H2.624C2.52472 2.25026 2.42959 2.28989 2.35948 2.36019C2.28937 2.43049 2.25 2.52572 2.25 2.625V14.375C2.25 14.4743 2.28937 14.5695 2.35948 14.6398C2.42959 14.7101 2.52472 14.7497 2.624 14.75V16ZM19 17.377V5.622C18.9995 5.19198 18.8284 4.77973 18.5243 4.47566C18.2203 4.17159 17.808 4.00053 17.378 4H5.622C5.19198 4.00053 4.77973 4.17159 4.47566 4.47566C4.17159 4.77973 4.00053 5.19198 4 5.622V17.377C4.00053 17.8071 4.17156 18.2195 4.4756 18.5237C4.77964 18.8279 5.19189 18.9992 5.622 19H17.378C17.8081 18.9992 18.2204 18.8279 18.5244 18.5237C18.8284 18.2195 18.9995 17.8071 19 17.377ZM17.378 5.25C17.4766 5.25026 17.571 5.28954 17.6408 5.35925C17.7105 5.42895 17.7497 5.52342 17.75 5.622V17.377C17.75 17.4758 17.7108 17.5705 17.6411 17.6404C17.5714 17.7103 17.4768 17.7497 17.378 17.75H5.622C5.52325 17.7497 5.42863 17.7103 5.3589 17.6404C5.28916 17.5705 5.25 17.4758 5.25 17.377V5.622C5.25026 5.52342 5.28954 5.42895 5.35925 5.35925C5.42895 5.28954 5.52342 5.25026 5.622 5.25H17.378ZM8.493 10.875H6.088V12.125H8.493V10.875ZM16.911 10.875H14.506V12.125H16.911V10.875ZM12.125 6.088H10.875V8.493H12.125V6.088ZM12.125 14.506H10.875V16.911H12.125V14.506ZM9.815 8.932L8.115 7.232L7.232 8.116L8.932 9.816L9.815 8.932ZM15.769 14.884L14.069 13.184L13.185 14.067L14.885 15.767L15.769 14.884ZM15.769 8.115L14.884 7.231L13.184 8.931L14.068 9.815L15.769 8.115ZM9.815 14.067L8.933 13.184L7.233 14.884L8.116 15.768L9.815 14.067Z" fill="#0F1A1C"/>
</svg>
