<svg width="20" height="20" viewBox="0 0 20 20" fill="none" xmlns="http://www.w3.org/2000/svg">
<g clip-path="url(#clip0_1205_25)">
<path d="M17.8476 9.02028C17.7188 8.73993 17.5118 8.5028 17.2513 8.33745C16.9908 8.17209 16.6881 8.08556 16.3796 8.08828H11.9176V1.11828C11.9167 0.888175 11.8452 0.663896 11.7129 0.475631C11.5806 0.287367 11.3938 0.144156 11.1776 0.0652766C10.9615 -0.00924289 10.7279 -0.0171511 10.5072 0.0425757C10.2865 0.102303 10.0887 0.226914 9.93964 0.400277L2.38464 9.25928C2.18535 9.49401 2.05755 9.78096 2.0164 10.0861C1.97524 10.3913 2.02246 10.7018 2.15245 10.981C2.28244 11.2601 2.48975 11.4961 2.7498 11.661C3.00985 11.8259 3.31173 11.9127 3.61964 11.9113H8.08164V18.8823C8.08233 19.1118 8.15338 19.3356 8.28521 19.5234C8.41705 19.7113 8.60332 19.8542 8.81892 19.9329C9.03451 20.0116 9.26905 20.0223 9.49091 19.9635C9.71277 19.9048 9.91127 19.7794 10.0596 19.6043L17.6156 10.7403C17.8164 10.5066 17.9451 10.2199 17.9863 9.91462C18.0274 9.60938 17.9793 9.29874 17.8476 9.02028Z" fill="#0F1A1C"/>
</g>
<defs>
<clipPath id="clip0_1205_25">
<rect width="20" height="20" fill="white"/>
</clipPath>
</defs>
</svg>
