<svg width="20" height="20" viewBox="0 0 20 20" fill="none" xmlns="http://www.w3.org/2000/svg">
<g clip-path="url(#clip0_3595_56)">
<path d="M19.5 2.66617V2.66687V10.4828L19.4755 10.5643L19.4809 10.6533C19.4835 10.6953 19.4861 10.7333 19.4885 10.7688C19.4947 10.8592 19.4998 10.9328 19.5 11.0115C19.5 11.013 19.4999 11.0144 19.4999 11.0159H19.375H18.875C18.875 11.0155 18.875 11.0155 18.875 11.0158C18.875 11.0165 18.8749 11.0187 18.8746 11.0231C18.8741 11.0303 18.8733 11.0384 18.8718 11.0535L18.8714 11.0582C18.8689 11.0841 18.864 11.1336 18.864 11.1869V11.37L18.9823 11.5098L18.9933 11.5228L19.4025 12.0064C19.2832 12.6936 19.0575 13.3601 18.7318 13.9814C18.2497 14.9009 17.5617 15.6965 16.7214 16.3062L16.7213 16.3061L16.714 16.3116C14.7841 17.7666 12.4242 18.5366 10.0076 18.4999L10 18.4998L9.99241 18.4999C7.57579 18.5366 5.21589 17.7666 3.28601 16.3116L3.28604 16.3116L3.28016 16.3073C2.47988 15.722 1.8177 14.9684 1.34027 14.0995C0.862847 13.2305 0.5818 12.2675 0.516936 11.2782L0.51379 11.2302L0.501561 11.1837C0.500939 11.1813 0.50042 11.1789 0.500007 11.1765V10.9999C0.500007 10.9257 0.505043 10.8557 0.511365 10.7679C0.513782 10.7343 0.516387 10.6981 0.518969 10.6581L0.52477 10.5682L0.500007 10.4858V2.66687H0.50001L0.500004 2.66512C0.499635 2.56008 0.526848 2.45679 0.57892 2.36557C0.630992 2.27434 0.706098 2.19839 0.796731 2.1453L0.796732 2.1453L0.79804 2.14453C0.898334 2.08537 1.01221 2.05312 1.12863 2.0509C1.24499 2.04869 1.35996 2.07656 1.46239 2.1318C1.46244 2.13183 1.46249 2.13186 1.46254 2.13188L5.40711 4.26565L5.60751 4.37406L5.82081 4.29395C8.51506 3.28202 11.485 3.28202 14.1792 4.29395L14.3926 4.37408L14.593 4.2656L18.5366 2.13134C18.5368 2.13122 18.5371 2.1311 18.5373 2.13099C18.6392 2.07638 18.7534 2.04892 18.869 2.05122C18.9849 2.05354 19.0982 2.08568 19.198 2.14455L19.2011 2.14636C19.2921 2.19917 19.3677 2.27501 19.4201 2.36625C19.4726 2.45749 19.5002 2.56093 19.5 2.66617ZM4.41513 11.9421L4.4151 11.9421L4.41957 11.9465C4.51268 12.038 4.61545 12.1191 4.72607 12.1883C4.83194 12.2607 4.94524 12.3216 5.06405 12.37C5.18491 12.4238 5.31138 12.464 5.44114 12.49C5.76361 12.5557 6.09737 12.54 6.41227 12.4444C6.72751 12.3486 7.0139 12.1758 7.2455 11.9415C7.61735 11.5665 7.82723 11.0606 7.83 10.5325H7.83003L7.83 10.527C7.82926 10.3962 7.81632 10.2656 7.79135 10.1372C7.76809 10.0101 7.73241 9.88571 7.68484 9.76566L7.68043 9.75454L7.6755 9.74364C7.62539 9.63297 7.56772 9.52588 7.50291 9.42312L7.49715 9.41399L7.491 9.40511C7.41688 9.29814 7.33179 9.19921 7.23711 9.10993C7.00635 8.88242 6.72445 8.71344 6.41496 8.61716C6.10314 8.52014 5.77251 8.49979 5.45115 8.55783L5.45113 8.55775L5.44222 8.55953C5.31209 8.58548 5.18525 8.62581 5.06404 8.67977C4.94296 8.72903 4.8276 8.79134 4.72 8.86559C4.6125 8.93672 4.51267 9.01881 4.4221 9.11052C4.3272 9.19856 4.24441 9.2988 4.17591 9.40862C4.09552 9.51768 4.03122 9.63776 3.985 9.76515C3.87951 10.0077 3.82666 10.27 3.83003 10.5346C3.83336 11.0623 4.04341 11.5676 4.41513 11.9421ZM11.271 13.9999H11.771V13.4999V11.9999V11.4999H11.271H8.72901H8.22901V11.9999V13.4999V13.9999H8.72901H11.271ZM16.128 10.9288L16.1281 10.9289L16.1301 10.9191C16.1957 10.5951 16.18 10.2599 16.0844 9.94348C15.9887 9.62704 15.8161 9.33923 15.5821 9.10581L15.5747 9.09846L15.567 9.09143C15.1855 8.74147 14.6867 8.5473 14.169 8.5473C13.6513 8.5473 13.1525 8.74147 12.771 9.09143L12.763 9.09873L12.7554 9.10637C12.5218 9.34005 12.3497 9.62797 12.2545 9.9444C12.1602 10.258 12.1444 10.5899 12.2083 10.911C12.2307 11.0412 12.2674 11.1685 12.3178 11.2906L12.3206 11.2974L12.3236 11.3041C12.3738 11.4163 12.4322 11.5248 12.4983 11.6285L12.4983 11.6285L12.5023 11.6347C12.5761 11.7468 12.6615 11.8508 12.757 11.945C13.1319 12.3187 13.6396 12.5286 14.169 12.5286C14.699 12.5286 15.2073 12.3182 15.5823 11.9436L15.5849 11.9411C15.6781 11.8467 15.7606 11.7423 15.8309 11.6298C15.9715 11.4161 16.0722 11.1786 16.128 10.9288Z" fill="#0F1A1C" stroke="#0F1A1C"/>
</g>
<defs>
<clipPath id="clip0_3595_56">
<rect width="20" height="20" fill="white"/>
</clipPath>
</defs>
</svg>
