<svg width="20" height="20" viewBox="0 0 20 20" fill="none" xmlns="http://www.w3.org/2000/svg">
<path d="M15.368 0H4.625C4.19419 0.000529257 3.78117 0.171904 3.47654 0.476536C3.1719 0.781168 3.00053 1.19419 3 1.625V18.368C3.00053 18.8007 3.17264 19.2155 3.47859 19.5214C3.78453 19.8274 4.19933 19.9995 4.632 20H15.368C15.8007 19.9995 16.2155 19.8274 16.5214 19.5214C16.8274 19.2155 16.9995 18.8007 17 18.368V1.632C16.9995 1.19933 16.8274 0.784531 16.5214 0.478586C16.2155 0.172642 15.8007 0.000529262 15.368 0ZM4.625 1.25H15.368C15.4693 1.25 15.5665 1.29025 15.6381 1.36189C15.7098 1.43352 15.75 1.53069 15.75 1.632V15.75H4.25V1.625C4.25 1.52554 4.28951 1.43016 4.35984 1.35983C4.43016 1.28951 4.52554 1.25 4.625 1.25ZM15.368 18.75H4.632C4.53069 18.75 4.43352 18.7098 4.36189 18.6381C4.29025 18.5665 4.25 18.4693 4.25 18.368V17H15.75V18.368C15.75 18.4693 15.7098 18.5665 15.6381 18.6381C15.5665 18.7098 15.4693 18.75 15.368 18.75ZM11.955 4.25H8V3H11.955V4.25Z" fill="#0F1A1C"/>
</svg>
