<svg width="20" height="20" viewBox="0 0 20 20" fill="none" xmlns="http://www.w3.org/2000/svg">
<path d="M13.3001 6.99999H3.06512L8.08912 1.97699L7.20012 1.09299L1.05812 7.23999C1.00006 7.29803 0.954011 7.36693 0.922591 7.44277C0.891172 7.51861 0.875 7.5999 0.875 7.68199C0.875 7.76408 0.891172 7.84536 0.922591 7.9212C0.954011 7.99704 1.00006 8.06595 1.05812 8.12399L7.20012 14.27L8.08512 13.386L2.95212 8.24999H13.3001C14.47 8.24119 15.5957 8.69692 16.43 9.51714C17.2642 10.3374 17.739 11.4551 17.7501 12.625V17H19.0001V12.625C18.9885 11.1237 18.3818 9.68838 17.3132 8.63385C16.2447 7.57933 14.8014 6.99173 13.3001 6.99999Z" fill="#0F1A1C"/>
</svg>
