<svg width="20" height="20" viewBox="0 0 20 20" fill="none" xmlns="http://www.w3.org/2000/svg">
<path d="M16.5 15.1539V15.875H16.253L16.253 15.153L16.253 15.1503C16.2477 14.1517 15.9498 13.1765 15.3962 12.3453C14.8427 11.5142 14.0576 10.8634 13.1382 10.4736L13.1347 10.4722L12.081 10.0347C12.0808 10.0347 12.0807 10.0346 12.0806 10.0346C12.0578 10.025 12.0384 10.0089 12.0247 9.98832C12.0109 9.96763 12.0036 9.94334 12.0036 9.9185C12.0036 9.89366 12.0109 9.86937 12.0247 9.84868C12.0384 9.82806 12.0579 9.81194 12.0808 9.80234C12.0808 9.80231 12.0809 9.80229 12.081 9.80226L13.1421 9.36062L13.1421 9.36063L13.1456 9.35913C14.0633 8.96896 14.8464 8.31835 15.3981 7.48777C15.9499 6.6572 16.246 5.6831 16.25 4.68598V4.684V4.125H16.5V4.68303C16.4963 5.68102 16.2135 6.65809 15.6836 7.50377C15.1535 8.34967 14.3972 9.03035 13.5004 9.46881L12.5821 9.91776L13.5002 10.3671C14.397 10.806 15.1531 11.4869 15.6832 12.333C16.2131 13.1788 16.496 14.1559 16.5 15.1539ZM3.75 15.153V15.875H3.5V15.1539C3.50383 14.1559 3.7867 13.1787 4.31664 12.3329C4.84674 11.4868 5.60294 10.8059 6.49975 10.3671L7.41778 9.91794L6.4997 9.46886C5.60297 9.03021 4.84683 8.34947 4.31673 7.50358C3.7868 6.65795 3.5039 5.68098 3.5 4.68303V4.125H3.75V4.684H3.74999L3.75001 4.68698C3.75595 5.68505 4.05411 6.65953 4.60766 7.49006C5.16122 8.32058 5.94592 8.97078 6.86485 9.36034L6.86568 9.36069L7.92068 9.8057L7.92203 9.80626C7.94495 9.81585 7.96453 9.832 7.97829 9.85268C7.99206 9.87337 7.9994 9.89766 7.9994 9.9225C7.9994 9.94734 7.99206 9.97163 7.97829 9.99232C7.96469 10.0128 7.94541 10.0288 7.92283 10.0384C7.92256 10.0385 7.9223 10.0386 7.92203 10.0387L6.85982 10.4756L6.85981 10.4755L6.85435 10.4779C5.93673 10.868 5.15361 11.5187 4.60186 12.3492C4.05012 13.1798 3.75395 14.1539 3.75 15.151V15.153ZM6.97797 15.875L9.9124 12.9707C9.91254 12.9705 9.91268 12.9704 9.91282 12.9703C9.93615 12.9476 9.96743 12.9348 10 12.9348C10.0327 12.9348 10.0641 12.9477 10.0874 12.9705C10.0875 12.9706 10.0875 12.9706 10.0876 12.9707L13.0375 15.875H12.6799L10.3509 13.5808L10 13.2352L9.64912 13.5808L7.3201 15.875H6.97797ZM2.875 18.5V18.25H17.125V18.5H2.875ZM2.875 1.5H17.125V1.75H2.875V1.5Z" fill="#0F1A1C" stroke="#0F1A1C"/>
</svg>
