<svg width="20" height="20" viewBox="0 0 20 20" fill="none" xmlns="http://www.w3.org/2000/svg">
<g clip-path="url(#clip0_474_48)">
<path d="M10 0C8.02219 0 6.08879 0.58649 4.4443 1.6853C2.79981 2.78412 1.51809 4.3459 0.761209 6.17317C0.00433284 8.00043 -0.193701 10.0111 0.192152 11.9509C0.578004 13.8907 1.53041 15.6725 2.92894 17.0711C4.32746 18.4696 6.10929 19.422 8.0491 19.8079C9.98891 20.1937 11.9996 19.9957 13.8268 19.2388C15.6541 18.4819 17.2159 17.2002 18.3147 15.5557C19.4135 13.9112 20 11.9778 20 10C19.9971 7.34873 18.9426 4.80688 17.0679 2.93215C15.1931 1.05742 12.6513 0.0029116 10 0V0ZM10 18.75C7.89639 18.7502 5.86397 17.9881 4.279 16.605L12.75 8.134V12.282H14V6.638C13.9977 6.46952 13.9297 6.30859 13.8106 6.18944C13.6914 6.07029 13.5305 6.00233 13.362 6H7.718V7.25H11.866L3.4 15.721C2.0965 14.2108 1.34896 12.3 1.28159 10.3061C1.21422 8.31229 1.83107 6.35541 3.02966 4.76062C4.22824 3.16583 5.93641 2.02915 7.87035 1.53941C9.80429 1.04968 11.8476 1.23639 13.6607 2.06852C15.4739 2.90065 16.9477 4.3281 17.8374 6.11371C18.7271 7.89932 18.9791 9.93559 18.5515 11.8842C18.1239 13.8328 17.0424 15.5765 15.4868 16.8254C13.9311 18.0744 11.995 18.7536 10 18.75Z" fill="#0F1A1C"/>
</g>
<defs>
<clipPath id="clip0_474_48">
<rect width="20" height="20" fill="white"/>
</clipPath>
</defs>
</svg>
