<svg width="20" height="20" viewBox="0 0 20 20" fill="none" xmlns="http://www.w3.org/2000/svg">
<path d="M16.9998 19H2.99984C2.4694 19 1.9607 18.7893 1.58562 18.4142C1.21055 18.0391 0.999836 17.5304 0.999836 17V11H2.99984V17H16.9998V3H9.99984V1H16.9998C17.5303 1 18.039 1.21071 18.414 1.58579C18.7891 1.96086 18.9998 2.46957 18.9998 3V17C18.9998 17.5304 18.7891 18.0391 18.414 18.4142C18.039 18.7893 17.5303 19 16.9998 19ZM7.82784 7.828L6.41384 6.414C6.03299 6.77783 5.52655 6.98086 4.99984 6.98086C4.47313 6.98086 3.96669 6.77783 3.58584 6.414C3.21089 6.03894 3.00026 5.53033 3.00026 5C3.00026 4.46967 3.21089 3.96106 3.58584 3.586C3.96669 3.22217 4.47313 3.01914 4.99984 3.01914C5.52655 3.01914 6.03299 3.22217 6.41384 3.586L7.82784 2.172C7.06625 1.44411 6.05333 1.0379 4.99984 1.0379C3.94635 1.0379 2.93342 1.44411 2.17184 2.172C1.7898 2.54099 1.48507 2.98237 1.27543 3.47038C1.06579 3.9584 0.95545 4.48328 0.950835 5.0144C0.946219 5.54551 1.04743 6.07223 1.24855 6.56382C1.44967 7.0554 1.74669 7.50201 2.12226 7.87758C2.49783 8.25315 2.94444 8.55016 3.43602 8.75129C3.92761 8.95241 4.45432 9.05362 4.98544 9.049C5.51656 9.04439 6.04144 8.93404 6.52945 8.72441C7.01747 8.51477 7.45885 8.21004 7.82784 7.828Z" fill="#0F1A1C"/>
</svg>
