<svg width="20" height="20" viewBox="0 0 20 20" fill="none" xmlns="http://www.w3.org/2000/svg">
<path d="M6.96711 15.6504L6.82203 15.5112H6.621H4.62154C3.52896 15.5101 2.48145 15.0756 1.70879 14.3031C0.936205 13.5307 0.501499 12.4834 0.5 11.3909V5.6325C0.501251 4.53986 0.935855 3.49232 1.70847 2.71971C2.48109 1.94709 3.52863 1.51248 4.62127 1.51123H15.3787C16.4714 1.51248 17.5189 1.94709 18.2915 2.71971C19.0642 3.49239 19.4988 4.54003 19.5 5.63277V11.3906C19.4986 12.4836 19.0635 13.5314 18.2903 14.304C17.5171 15.0765 16.469 15.5107 15.376 15.5112C15.3759 15.5112 15.3759 15.5112 15.3758 15.5112H13.376H13.1748L13.0297 15.6505L9.99985 18.5593L6.96711 15.6504ZM10.4276 13.2549L10.4276 13.2549L10.4306 13.2531C10.7886 13.031 11.8407 12.3498 12.8366 11.3813C13.8148 10.43 14.8252 9.11904 14.9526 7.62937C15.0266 6.96733 14.8641 6.30037 14.494 5.74635C14.1223 5.19018 13.5654 4.78393 12.9223 4.5999C12.2792 4.41587 11.5917 4.466 10.9821 4.74137C10.6233 4.90347 10.3051 5.13742 10.0456 5.4257C9.78603 5.13663 9.46765 4.90199 9.10837 4.73939C8.49841 4.46334 7.81023 4.4129 7.16654 4.59707C6.52285 4.78123 5.96548 5.18802 5.59383 5.74491C5.22366 6.29957 5.06169 6.96721 5.1364 7.62967C5.26391 9.11917 6.27422 10.4305 7.25236 11.382C8.24821 12.3507 9.30031 13.032 9.65933 13.2537L9.66136 13.2549C9.77674 13.3254 9.90932 13.3627 10.0445 13.3627C10.1797 13.3627 10.3123 13.3254 10.4276 13.2549Z" fill="#0F1A1C" stroke="#0F1A1C"/>
</svg>
