<svg width="20" height="20" viewBox="0 0 20 20" fill="none" xmlns="http://www.w3.org/2000/svg">
<path d="M8.117 11.685C7.46473 12.677 6.70441 13.5936 5.85 14.418L3.617 16.545L2 14.788L4.039 12.888C4.121 12.8213 4.31733 12.6457 4.628 12.361C4.92791 12.0902 5.21236 11.8027 5.48 11.5C5.72306 11.2272 5.94095 10.933 6.131 10.621C5.91938 10.6816 5.70011 10.7112 5.48 10.709C4.92398 10.7077 4.37819 10.5593 3.898 10.279C3.39653 9.99381 2.97624 9.58522 2.677 9.092C2.36219 8.57352 2.20062 7.97649 2.211 7.37C2.20226 6.76752 2.36716 6.17527 2.686 5.664C2.99774 5.16477 3.4377 4.75831 3.96 4.487C4.48759 4.20663 5.07654 4.06162 5.674 4.065C6.28169 4.05813 6.87989 4.21606 7.405 4.522C7.94551 4.8466 8.38171 5.31924 8.662 5.884C8.99611 6.56414 9.15916 7.31555 9.137 8.073C9.1666 9.35201 8.81124 10.6104 8.117 11.685ZM16.98 11.685C16.328 12.6773 15.5677 13.5939 14.713 14.418L12.48 16.545L10.863 14.788L12.902 12.888C12.984 12.818 13.181 12.642 13.491 12.361C13.7913 12.0899 14.076 11.8021 14.344 11.499C14.5868 11.2262 14.8043 10.932 14.994 10.62C14.7827 10.6805 14.5638 10.7101 14.344 10.708C13.788 10.7068 13.2422 10.5584 12.762 10.278C12.2604 9.99312 11.8398 9.5849 11.54 9.092C11.2252 8.57352 11.0636 7.97649 11.074 7.37C11.0653 6.76752 11.2302 6.17527 11.549 5.664C11.8607 5.16477 12.3007 4.75831 12.823 4.487C13.3506 4.20674 13.9396 4.06175 14.537 4.065C15.145 4.05825 15.7435 4.21616 16.269 4.522C16.8089 4.84705 17.2447 5.3196 17.525 5.884C17.8591 6.56414 18.0222 7.31555 18 8.073C18.0296 9.35201 17.6742 10.6104 16.98 11.685Z" fill="#0F1A1C"/>
</svg>
