<svg width="20" height="20" viewBox="0 0 20 20" fill="none" xmlns="http://www.w3.org/2000/svg">
<path d="M7.725 19.872C7.62521 19.8724 7.52645 19.8519 7.435 19.812C7.30563 19.7555 7.19555 19.6625 7.11828 19.5444C7.041 19.4263 6.9999 19.2882 7 19.147V16H3.625C2.92913 15.9989 2.26207 15.722 1.77001 15.23C1.27796 14.7379 1.00106 14.0709 1 13.375V3.625C1.00106 2.92913 1.27796 2.26207 1.77001 1.77001C2.26207 1.27796 2.92913 1.00106 3.625 1H16.375C17.0709 1.00106 17.7379 1.27796 18.23 1.77001C18.722 2.26207 18.9989 2.92913 19 3.625V13.375C18.9989 14.0709 18.722 14.7379 18.23 15.23C17.7379 15.722 17.0709 15.9989 16.375 16H12.214L8.214 19.681C8.08058 19.8035 7.90614 19.8717 7.725 19.872ZM3.625 2.25C3.26049 2.25053 2.91106 2.39556 2.65331 2.65331C2.39556 2.91106 2.25053 3.26049 2.25 3.625V13.375C2.25053 13.7395 2.39556 14.0889 2.65331 14.3467C2.91106 14.6044 3.26049 14.7495 3.625 14.75H7.625C7.79076 14.75 7.94973 14.8158 8.06694 14.9331C8.18415 15.0503 8.25 15.2092 8.25 15.375V17.95L11.55 14.915C11.6657 14.8089 11.817 14.7501 11.974 14.75H16.374C16.7385 14.7495 17.0879 14.6044 17.3457 14.3467C17.6034 14.0889 17.7485 13.7395 17.749 13.375V3.625C17.7485 3.26066 17.6036 2.91138 17.346 2.65367C17.0885 2.39595 16.7393 2.25079 16.375 2.25H3.625Z" fill="#0F1A1C"/>
</svg>
