<svg width="20" height="20" viewBox="0 0 20 20" fill="none" xmlns="http://www.w3.org/2000/svg">
<g clip-path="url(#clip0_457_118)">
<path d="M10.5 3H9V1.012C9.00003 0.819132 8.94429 0.630373 8.83949 0.468464C8.73469 0.306555 8.58531 0.178407 8.40934 0.0994591C8.23337 0.0205116 8.03833 -0.00586586 7.84771 0.0235051C7.6571 0.0528761 7.47904 0.136742 7.335 0.264998L4.017 3.215C3.91059 3.30884 3.82537 3.42425 3.767 3.55356C3.70863 3.68287 3.67844 3.82312 3.67844 3.965C3.67844 4.10687 3.70863 4.24713 3.767 4.37644C3.82537 4.50575 3.91059 4.62116 4.017 4.715L7.335 7.661C7.47904 7.78925 7.6571 7.87312 7.84771 7.90249C8.03833 7.93186 8.23337 7.90548 8.40934 7.82654C8.58531 7.74759 8.73469 7.61944 8.83949 7.45753C8.94429 7.29562 9.00003 7.10686 9 6.914V5H10.5C11.7856 5 13.0423 5.38122 14.1112 6.09545C15.1801 6.80967 16.0132 7.82484 16.5052 9.01256C16.9972 10.2003 17.1259 11.5072 16.8751 12.7681C16.6243 14.029 16.0052 15.1872 15.0962 16.0962C14.1872 17.0052 13.029 17.6243 11.7681 17.8751C10.5072 18.1259 9.20028 17.9972 8.01256 17.5052C6.82484 17.0132 5.80968 16.1801 5.09545 15.1112C4.38122 14.0423 4 12.7856 4 11.5H2C2 13.1811 2.49852 14.8245 3.43251 16.2223C4.3665 17.6202 5.69402 18.7096 7.24719 19.353C8.80036 19.9963 10.5094 20.1646 12.1583 19.8367C13.8071 19.5087 15.3217 18.6992 16.5104 17.5104C17.6992 16.3217 18.5087 14.8071 18.8367 13.1583C19.1646 11.5094 18.9963 9.80036 18.353 8.24719C17.7096 6.69402 16.6202 5.3665 15.2223 4.43251C13.8245 3.49851 12.1811 3 10.5 3ZM6.214 3.938V3.988L6.186 3.963L6.214 3.938Z" fill="#0F1A1C"/>
</g>
<defs>
<clipPath id="clip0_457_118">
<rect width="20" height="20" fill="white"/>
</clipPath>
</defs>
</svg>
