<svg width="20" height="20" viewBox="0 0 20 20" fill="none" xmlns="http://www.w3.org/2000/svg">
<path d="M2.625 16C2.19419 15.9995 1.78117 15.8281 1.47654 15.5235C1.1719 15.2188 1.00053 14.8058 1 14.375V2.625C1.00053 2.19419 1.1719 1.78117 1.47654 1.47654C1.78117 1.1719 2.19419 1.00053 2.625 1H14.375C14.8058 1.00053 15.2188 1.1719 15.5235 1.47654C15.8281 1.78117 15.9995 2.19419 16 2.625H14.75C14.75 2.52554 14.7105 2.43016 14.6402 2.35983C14.5698 2.28951 14.4745 2.25 14.375 2.25H2.625C2.52554 2.25 2.43016 2.28951 2.35983 2.35983C2.28951 2.43016 2.25 2.52554 2.25 2.625V14.375C2.25 14.4745 2.28951 14.5698 2.35983 14.6402C2.43016 14.7105 2.52554 14.75 2.625 14.75V16ZM10.754 17.75H5.629C5.52848 17.75 5.43208 17.7101 5.36101 17.639C5.28993 17.5679 5.25 17.4715 5.25 17.371V5.629C5.25 5.52848 5.28993 5.43208 5.36101 5.36101C5.43208 5.28993 5.52848 5.25 5.629 5.25H17.371C17.4715 5.25 17.5679 5.28993 17.639 5.36101C17.7101 5.43208 17.75 5.52848 17.75 5.629V10.754C18.2614 11.1668 18.6862 11.6766 19 12.254V5.629C18.9995 5.19712 18.8277 4.78309 18.5223 4.47771C18.2169 4.17233 17.8029 4.00053 17.371 4H5.629C5.19712 4.00053 4.78309 4.17233 4.47771 4.47771C4.17233 4.78309 4.00053 5.19712 4 5.629V17.371C4.00053 17.8029 4.17233 18.2169 4.47771 18.5223C4.78309 18.8277 5.19712 18.9995 5.629 19H12.255C11.6772 18.6863 11.1671 18.2615 10.754 17.75ZM18.254 14.625C18.254 13.908 18.0414 13.2072 17.6431 12.6111C17.2448 12.0149 16.6786 11.5503 16.0162 11.2759C15.3538 11.0016 14.625 10.9298 13.9218 11.0697C13.2186 11.2095 12.5727 11.5548 12.0657 12.0617C11.5588 12.5687 11.2135 13.2146 11.0737 13.9178C10.9338 14.621 11.0056 15.3498 11.2799 16.0122C11.5543 16.6746 12.0189 17.2408 12.6151 17.6391C13.2112 18.0374 13.912 18.25 14.629 18.25C15.5894 18.2479 16.5098 17.8652 17.1885 17.1857C17.8672 16.5062 18.2489 15.5854 18.25 14.625H18.254ZM17.004 14.625C17.004 15.0947 16.8647 15.5539 16.6037 15.9445C16.3428 16.335 15.9718 16.6395 15.5379 16.8192C15.1039 16.999 14.6264 17.046 14.1657 16.9544C13.705 16.8627 13.2818 16.6365 12.9496 16.3044C12.6175 15.9722 12.3913 15.549 12.2996 15.0883C12.208 14.6276 12.255 14.1501 12.4348 13.7161C12.6145 13.2822 12.919 12.9112 13.3095 12.6503C13.7001 12.3893 14.1593 12.25 14.629 12.25C15.258 12.2516 15.8608 12.5024 16.3052 12.9476C16.7496 13.3928 16.9995 13.996 17 14.625H17.004ZM19.571 18.683L17.188 16.3L16.304 17.184L18.683 19.563L19.571 18.683Z" fill="#0F1A1C"/>
</svg>
