<svg width="20" height="20" viewBox="0 0 20 20" fill="none" xmlns="http://www.w3.org/2000/svg">
<path d="M3.62504 7.959V13.319C2.89944 13.2319 2.23112 12.8813 1.74715 12.3337C1.26317 11.7861 0.997287 11.0798 1.00004 10.349V4C0.996038 3.21039 1.30506 2.45136 1.85946 1.8891C2.41386 1.32683 3.16845 1.00713 3.95804 1H12.042C12.7649 1.00707 13.4603 1.27761 13.9979 1.76089C14.5355 2.24417 14.8783 2.90698 14.962 3.625H7.96204C6.8124 3.62526 5.70987 4.08187 4.89667 4.89451C4.08347 5.70715 3.6261 6.80936 3.62504 7.959ZM16.042 5H7.95804C7.17368 5.00106 6.42176 5.31318 5.86723 5.8679C5.3127 6.42262 5.00083 7.17464 5.00004 7.959V14C5.00083 14.7844 5.3127 15.5364 5.86723 16.0911C6.42176 16.6458 7.17368 16.9579 7.95804 16.959H10.452L10.424 18.437C10.4217 18.5749 10.4591 18.7106 10.5318 18.8278C10.6045 18.9451 10.7094 19.0388 10.834 19.098L11.294 19.256L14.021 16.956H16.042C16.8259 16.9549 17.5773 16.6432 18.1318 16.0892C18.6862 15.5351 18.9985 14.7838 19 14V7.959C18.9992 7.17464 18.6874 6.42262 18.1328 5.8679C17.5783 5.31318 16.8264 5.00106 16.042 5Z" fill="#0F1A1C"/>
</svg>
