<svg width="20" height="20" viewBox="0 0 20 20" fill="none" xmlns="http://www.w3.org/2000/svg">
<path d="M4.125 19.543C3.82671 19.5427 3.54072 19.4241 3.3298 19.2132C3.11888 19.0023 3.00027 18.7163 3 18.418V1.582C2.99987 1.37974 3.05427 1.18118 3.15747 1.00723C3.26068 0.83328 3.40887 0.69037 3.58645 0.593545C3.76403 0.49672 3.96443 0.449561 4.16656 0.457032C4.36868 0.464504 4.56505 0.526329 4.735 0.636L17.783 9.054C17.9411 9.15594 18.0711 9.29591 18.1612 9.46108C18.2512 9.62626 18.2984 9.81138 18.2984 9.9995C18.2984 10.1876 18.2512 10.3727 18.1612 10.5379C18.0711 10.7031 17.9411 10.8431 17.783 10.945L4.735 19.363C4.55309 19.4802 4.34137 19.5426 4.125 19.543Z" fill="#0F1A1C"/>
</svg>
