<svg width="20" height="20" viewBox="0 0 20 20" fill="none" xmlns="http://www.w3.org/2000/svg">
<path d="M0.911623 4.91172L0.91167 4.91167L4.91167 0.91167L4.91172 0.911623C4.92332 0.900012 4.93711 0.890802 4.95227 0.884518C4.96744 0.878234 4.9837 0.875 5.00012 0.875C5.01653 0.875 5.03279 0.878234 5.04796 0.884518C5.06313 0.890802 5.07691 0.900012 5.08852 0.911623L5.08856 0.91167L8.60298 4.42608L8.40527 4.58217L5.35367 1.53056L5.00012 1.17701L4.64656 1.53056L1.53056 4.64656L1.17701 5.00012L1.53056 5.35367L4.13426 7.95737L3.93815 8.11323L0.911623 5.08852C0.911603 5.0885 0.911584 5.08848 0.911564 5.08846C0.899981 5.07686 0.890791 5.0631 0.884518 5.04796C0.878234 5.03279 0.875 5.01653 0.875 5.00012C0.875 4.9837 0.878234 4.96744 0.884518 4.95227C0.890802 4.93711 0.900012 4.92332 0.911623 4.91172ZM12.0118 15.8349L14.6466 18.4697L15.0001 18.8232L15.3537 18.4697L18.4697 15.3537L18.8232 15.0001L18.4697 14.6466L15.4001 11.577L15.5569 11.3798L18.2366 14.0581H18.2348L19.0886 14.9117C19.1002 14.9233 19.1094 14.9371 19.1157 14.9523C19.122 14.9674 19.1252 14.9837 19.1252 15.0001C19.1252 15.0165 19.122 15.0328 19.1157 15.048C19.1094 15.0631 19.1002 15.0769 19.0886 15.0885L19.0886 15.0886L15.0886 19.0886L15.0885 19.0886C15.0769 19.1002 15.0631 19.1094 15.048 19.1157C15.0328 19.122 15.0165 19.1252 15.0001 19.1252C14.9837 19.1252 14.9674 19.122 14.9523 19.1157C14.9371 19.1094 14.9233 19.1002 14.9117 19.0886L14.9117 19.0886L11.8551 16.032L12.0118 15.8349ZM8.62084 16.2818L8.60293 16.3043L8.58771 16.3288C8.45837 16.5364 8.30825 16.7304 8.13967 16.9076C7.77733 17.2844 7.34419 17.586 6.86506 17.7951C6.38553 18.0044 5.86939 18.1169 5.34626 18.1262L5.34124 18.1263C4.06136 18.1618 2.79699 18.416 1.60279 18.8778L1.60218 18.878C1.53517 18.904 1.46205 18.91 1.39171 18.8952C1.32137 18.8805 1.25683 18.8456 1.20593 18.7948C1.15504 18.7441 1.11999 18.6796 1.10504 18.6093C1.09011 18.5391 1.09586 18.4661 1.12158 18.3992C1.58394 17.2048 1.8384 15.9402 1.87392 14.66L1.87395 14.66L1.87404 14.655C1.88331 14.1318 1.99581 13.6157 2.20509 13.1362C2.41278 12.6603 2.71172 12.2298 3.08498 11.8689C3.17985 11.7866 3.27878 11.7091 3.38142 11.6366L3.47124 11.5732L3.52619 11.478C3.53295 11.4663 3.54161 11.4558 3.55181 11.4469L15.7986 1.76643C16.1317 1.51063 16.5464 1.38429 16.9657 1.41089C17.3859 1.43756 17.7821 1.61605 18.0805 1.91313C18.379 2.21022 18.5592 2.60564 18.5878 3.02575C18.6162 3.4443 18.4921 3.85894 18.2385 4.19301L8.62084 16.2818ZM8.8729 14.3855L8.87291 14.3855L8.87279 14.382C8.84193 13.5286 8.48918 12.7186 7.88545 12.1146C7.28172 11.5107 6.47176 11.1576 5.61837 11.1264L5.60924 11.1261H5.60012L5.50812 11.1261L5.50466 11.1261C4.66598 11.1319 3.86195 11.4614 3.2604 12.0458C2.9086 12.3851 2.62716 12.7904 2.4322 13.2386C2.23736 13.6865 2.13271 14.1684 2.12422 14.6567C2.09834 15.7129 1.92367 16.7601 1.60535 17.7675L1.31589 18.6835L2.23226 18.395C3.24069 18.0776 4.28868 17.9032 5.34557 17.877C5.83462 17.8689 6.31725 17.7642 6.76573 17.5689C7.21464 17.3735 7.62046 17.0913 7.95985 16.7384C8.26135 16.4272 8.49748 16.0588 8.6543 15.6548C8.81125 15.2506 8.88558 14.819 8.8729 14.3855ZM17.9116 2.08845L17.911 2.08789C17.6554 1.8333 17.3161 1.68014 16.9561 1.65688C16.5962 1.63362 16.24 1.74184 15.9538 1.96142L15.9537 1.96138L15.948 1.96588L5.73604 10.0389L4.81166 10.7696L5.97949 10.9267C6.75419 11.0308 7.47413 11.3837 8.03105 11.9322C8.58796 12.4807 8.95173 13.1952 9.06765 13.9683L9.23802 15.1044L9.95337 14.2054L18.0394 4.04344L18.0395 4.04354L18.0472 4.03328C18.263 3.74727 18.3682 3.39289 18.3432 3.03548C18.3183 2.67807 18.165 2.34172 17.9116 2.08845Z" fill="#0F1A1C" stroke="#0F1A1C"/>
</svg>
