<svg width="20" height="20" viewBox="0 0 20 20" fill="none" xmlns="http://www.w3.org/2000/svg">
<path d="M17.374 2H16V0.25H14.75V2H5.25V0.251H4V2H2.626C2.19484 2.00026 1.78141 2.17166 1.47654 2.47654C1.17166 2.78141 1.00026 3.19484 1 3.626V17.374C1.00026 17.8052 1.17166 18.2186 1.47654 18.5235C1.78141 18.8283 2.19484 18.9997 2.626 19H17.374C17.8052 18.9997 18.2186 18.8283 18.5235 18.5235C18.8283 18.2186 18.9997 17.8052 19 17.374V3.626C18.9997 3.19484 18.8283 2.78141 18.5235 2.47654C18.2186 2.17166 17.8052 2.00026 17.374 2ZM2.626 3.25H4V4.25H5.25V3.25H14.75V4.25H16V3.25H17.374C17.4736 3.25026 17.5691 3.28996 17.6396 3.36042C17.71 3.43088 17.7497 3.52636 17.75 3.626V7H2.25V3.626C2.25026 3.52636 2.28996 3.43088 2.36042 3.36042C2.43088 3.28996 2.52636 3.25026 2.626 3.25ZM17.374 17.75H2.626C2.52636 17.7497 2.43088 17.71 2.36042 17.6396C2.28996 17.5691 2.25026 17.4736 2.25 17.374V8.25H17.75V17.374C17.7497 17.4736 17.71 17.5691 17.6396 17.6396C17.5691 17.71 17.4736 17.7497 17.374 17.75Z" fill="#0F1A1C"/>
</svg>
