<svg width="20" height="20" viewBox="0 0 20 20" fill="none" xmlns="http://www.w3.org/2000/svg">
<g clip-path="url(#clip0_473_83)">
<path d="M14.2 15.3751C14.342 15.5524 14.4194 15.7729 14.4194 16.0001C14.4194 16.2273 14.342 16.4477 14.2 16.6251L11.8 19.6251C11.7063 19.7421 11.5874 19.8366 11.4522 19.9015C11.317 19.9664 11.169 20.0001 11.019 20.0001C10.9062 20.0004 10.7942 19.9811 10.688 19.9431C10.4918 19.8752 10.3216 19.7479 10.201 19.579C10.0804 19.41 10.0154 19.2077 10.015 19.0001V17.0001H7.8C6.26261 17.0001 4.78811 16.3897 3.70055 15.3031C2.61298 14.2164 2.00133 12.7425 2 11.2051V9.00007H4V11.2051C4.00132 12.212 4.40227 13.1773 5.11476 13.8888C5.82726 14.6004 6.79304 15.0001 7.8 15.0001H10.02V13.0001C10.0199 12.7928 10.0842 12.5906 10.204 12.4215C10.3239 12.2524 10.4933 12.1246 10.6889 12.056C10.8845 11.9874 11.0965 11.9812 11.2958 12.0384C11.495 12.0955 11.6716 12.2132 11.801 12.3751L14.2 15.3751ZM12.205 3.00007H9.985V1.00007C9.98552 0.792071 9.92117 0.589088 9.80091 0.419381C9.68065 0.249674 9.51047 0.12169 9.31406 0.0532476C9.11764 -0.0151946 8.90478 -0.020688 8.70509 0.0375322C8.50541 0.0957525 8.32885 0.214789 8.2 0.378067L5.8 3.37807C5.658 3.55543 5.58062 3.77586 5.58062 4.00307C5.58062 4.23027 5.658 4.4507 5.8 4.62807L8.2 7.62807C8.29445 7.74511 8.41408 7.83935 8.55 7.90376C8.68591 7.96816 8.8346 8.00108 8.985 8.00007C9.0978 8.0004 9.20981 7.98111 9.316 7.94307C9.51143 7.87451 9.68076 7.74697 9.8006 7.57805C9.92044 7.40913 9.98487 7.20718 9.985 7.00007V5.00007H12.205C13.212 5.00139 14.1772 5.40233 14.8888 6.11483C15.6003 6.82732 16 7.79311 16 8.80007V11.0001H18V8.80007C18 7.26268 17.3896 5.78818 16.303 4.70061C15.2164 3.61305 13.7424 3.00139 12.205 3.00007Z" fill="#0F1A1C"/>
</g>
<defs>
<clipPath id="clip0_473_83">
<rect width="20" height="20" fill="white"/>
</clipPath>
</defs>
</svg>
