<svg width="20" height="20" viewBox="0 0 20 20" fill="none" xmlns="http://www.w3.org/2000/svg">
<g clip-path="url(#clip0_474_91)">
<path d="M17.883 19H2.119C1.82389 19.0013 1.54032 18.8855 1.33052 18.678C1.12072 18.4704 1.00185 18.1881 1 17.893V17.411C1.01874 15.6945 1.71762 14.0554 2.94332 12.8536C4.16902 11.6517 5.82142 10.9851 7.538 11H12.464C14.1802 10.9856 15.8321 11.6524 17.0574 12.8543C18.2827 14.0561 18.9813 15.6948 19 17.411V17.893C18.9981 18.1878 18.8796 18.4698 18.6702 18.6773C18.4608 18.8847 18.1778 19.0008 17.883 19ZM2.251 17.75H17.751V17.411C17.7325 16.0261 17.1656 14.705 16.1745 13.7375C15.1833 12.77 13.849 12.235 12.464 12.25H7.538C6.15303 12.235 4.81865 12.77 3.82753 13.7375C2.83641 14.705 2.26945 16.0261 2.251 17.411V17.75ZM10 10C9.01109 10 8.04439 9.70675 7.22215 9.15735C6.3999 8.60794 5.75904 7.82705 5.3806 6.91342C5.00216 5.99979 4.90315 4.99445 5.09607 4.02455C5.289 3.05464 5.7652 2.16373 6.46447 1.46447C7.16373 0.765204 8.05464 0.289 9.02455 0.0960739C9.99445 -0.0968522 10.9998 0.00216451 11.9134 0.380603C12.827 0.759041 13.6079 1.3999 14.1573 2.22215C14.7068 3.04439 15 4.01109 15 5C14.9984 6.3256 14.4711 7.59644 13.5338 8.53378C12.5964 9.47112 11.3256 9.99841 10 10ZM10 1.25C9.25832 1.25 8.5333 1.46993 7.91661 1.88199C7.29993 2.29404 6.81928 2.87971 6.53545 3.56494C6.25162 4.25016 6.17736 5.00416 6.32206 5.73159C6.46675 6.45902 6.8239 7.1272 7.34835 7.65165C7.8728 8.1761 8.54098 8.53325 9.26841 8.67795C9.99584 8.82264 10.7498 8.74838 11.4351 8.46455C12.1203 8.18072 12.706 7.70007 13.118 7.08339C13.5301 6.4667 13.75 5.74168 13.75 5C13.7487 4.00584 13.3532 3.05279 12.6502 2.34981C11.9472 1.64684 10.9942 1.25132 10 1.25Z" fill="#0F1A1C"/>
</g>
<defs>
<clipPath id="clip0_474_91">
<rect width="20" height="20" fill="white"/>
</clipPath>
</defs>
</svg>
