<svg width="20" height="20" viewBox="0 0 20 20" fill="none" xmlns="http://www.w3.org/2000/svg">
<path d="M10 8.586L7.566 6.152C7.84689 5.64643 7.99613 5.07835 8 4.5C8 3.80777 7.79473 3.13108 7.41015 2.55551C7.02556 1.97993 6.47894 1.53133 5.83939 1.26642C5.19985 1.00152 4.49612 0.932205 3.81719 1.06725C3.13825 1.2023 2.51461 1.53564 2.02513 2.02513C1.53564 2.51461 1.2023 3.13825 1.06725 3.81719C0.932205 4.49612 1.00152 5.19985 1.26642 5.83939C1.53133 6.47894 1.97993 7.02556 2.55551 7.41015C3.13108 7.79473 3.80777 8 4.5 8C5.07835 7.99613 5.64643 7.84689 6.152 7.566L8.586 10L6.152 12.434C5.64643 12.1531 5.07835 12.0039 4.5 12C3.80777 12 3.13108 12.2053 2.55551 12.5899C1.97993 12.9744 1.53133 13.5211 1.26642 14.1606C1.00152 14.8002 0.932205 15.5039 1.06725 16.1828C1.2023 16.8618 1.53564 17.4854 2.02513 17.9749C2.51461 18.4644 3.13825 18.7977 3.81719 18.9328C4.49612 19.0678 5.19985 18.9985 5.83939 18.7336C6.47894 18.4687 7.02556 18.0201 7.41015 17.4445C7.79473 16.8689 8 16.1922 8 15.5C7.99613 14.9217 7.84689 14.3536 7.566 13.848L19.415 2.005L16.591 2L10 8.586ZM4.5 6C4.20333 6 3.91332 5.91203 3.66665 5.74721C3.41997 5.58238 3.22771 5.34812 3.11418 5.07403C3.00065 4.79994 2.97095 4.49834 3.02882 4.20737C3.0867 3.91639 3.22956 3.64912 3.43934 3.43934C3.64912 3.22956 3.91639 3.0867 4.20737 3.02882C4.49834 2.97095 4.79994 3.00065 5.07403 3.11418C5.34812 3.22771 5.58238 3.41997 5.74721 3.66665C5.91203 3.91332 6 4.20333 6 4.5C6 4.89783 5.84197 5.27936 5.56066 5.56066C5.27936 5.84197 4.89783 6 4.5 6ZM4.5 17C4.20333 17 3.91332 16.912 3.66665 16.7472C3.41997 16.5824 3.22771 16.3481 3.11418 16.074C3.00065 15.7999 2.97095 15.4983 3.02882 15.2074C3.0867 14.9164 3.22956 14.6491 3.43934 14.4393C3.64912 14.2296 3.91639 14.0867 4.20737 14.0288C4.49834 13.9709 4.79994 14.0007 5.07403 14.1142C5.34812 14.2277 5.58238 14.42 5.74721 14.6666C5.91203 14.9133 6 15.2033 6 15.5C6 15.8978 5.84197 16.2794 5.56066 16.5607C5.27936 16.842 4.89783 17 4.5 17Z" fill="#0F1A1C"/>
<path d="M12.707 11.293L11.293 12.707L16.587 17.995L19.419 18L12.707 11.293Z" fill="#0F1A1C"/>
</svg>
