<svg width="20" height="20" viewBox="0 0 20 20" fill="none" xmlns="http://www.w3.org/2000/svg">
<path d="M4.89935 4.6046L4.8888 4.60031L4.87806 4.5965C4.55944 4.48361 4.22108 4.43715 3.88382 4.45999C3.54656 4.48284 3.21755 4.5745 2.91706 4.72932L2.30792 5.04319L2.79268 5.52751L5.77103 8.50315L5.75391 8.52377L5.75346 8.52431L5.62369 8.68008L2.10393 5.19454C2.10372 5.19433 2.10351 5.19412 2.1033 5.1939C2.08063 5.17088 2.06767 5.14002 2.06711 5.10769C2.06658 5.0767 2.07749 5.04666 2.09765 5.02326C2.46712 4.65232 2.93427 4.39372 3.44491 4.27758C3.95519 4.16152 4.48784 4.1925 4.98111 4.36682L8.19007 5.68625C8.16548 5.71482 8.14097 5.74332 8.11655 5.77171C8.08652 5.80663 8.05663 5.84138 8.02692 5.87588L4.89935 4.6046ZM7.15904 14.751L6.87373 14.9862L7.01502 15.3278C7.4219 16.3119 7.46368 17.4088 7.13298 18.4209C7.09755 18.5186 7.03823 18.6059 6.96037 18.6749C6.9107 18.7189 6.8545 18.7545 6.79401 18.7806L6.97256 18.1032C7.20555 17.2193 7.14126 16.2832 6.7896 15.4394L6.77975 15.4158L6.76755 15.3933C6.69961 15.2681 6.6774 15.1232 6.70474 14.9834C6.73208 14.8435 6.80726 14.7176 6.91736 14.6272L6.91852 14.6263L9.20752 12.7353L9.20786 12.735C9.32745 12.636 9.47967 12.5853 9.63472 12.5927C9.78977 12.6 9.93648 12.665 10.0461 12.7749L10.0469 12.7757L14.5029 17.2227L14.9918 17.7107L15.3026 17.0937C15.4556 16.7901 15.545 16.4585 15.5654 16.1191C15.5858 15.7797 15.5368 15.4398 15.4214 15.12L15.4179 15.1105L15.4141 15.1012L13.2641 9.8222L13.2642 9.82219L13.2627 9.81866C13.2145 9.70287 13.2031 9.57505 13.2301 9.45255C13.257 9.33006 13.321 9.21883 13.4134 9.13397L13.4134 9.13398L13.4159 9.13166C13.9531 8.6312 15.2986 7.37738 16.0285 6.64644C17.0786 5.59891 17.9142 4.3567 18.4888 2.98935C18.579 2.78122 18.6035 2.55049 18.559 2.32801C18.5148 2.10678 18.4044 1.90427 18.2426 1.74721C18.0841 1.58756 17.8806 1.48001 17.6592 1.43903C17.4381 1.39809 17.2098 1.42554 17.0048 1.5176L16.954 1.53898L16.954 1.53893L16.9478 1.54167C15.6404 2.11333 14.452 2.92533 13.4443 3.93548C13.4439 3.93589 13.4435 3.93631 13.443 3.93672L13.2736 4.10418L13.2719 4.10582C11.5849 5.78887 9.96043 7.56932 8.44062 9.39712L8.4406 9.39714L5.3736 13.0861L5.37359 13.0861L5.37186 13.0882C5.28179 13.1978 5.15637 13.2725 5.01716 13.2996C4.87795 13.3267 4.73365 13.3044 4.60909 13.2366L4.58675 13.2245L4.5633 13.2146C3.71935 12.861 2.78227 12.7959 1.89751 13.0293L1.21857 13.2085C1.24459 13.1477 1.28016 13.0911 1.32415 13.041C1.39254 12.9631 1.47911 12.9035 1.57613 12.8672C2.58807 12.5366 3.68501 12.5789 4.66859 12.9867L5.00891 13.1278L5.24449 12.8445L8.24429 9.23776C9.76885 7.4071 11.3976 5.61833 13.0866 3.92935L13.2576 3.75835L13.2579 3.75811C14.2898 2.72478 15.5066 1.89438 16.8451 1.31006C16.8451 1.31005 16.8451 1.31004 16.8451 1.31003L16.9001 1.28606L16.9014 1.28546C17.1539 1.1744 17.4338 1.14175 17.705 1.19175C17.9763 1.24175 18.2262 1.3721 18.4224 1.56587C18.6186 1.75965 18.7521 2.00792 18.8055 2.27848C18.8589 2.54904 18.8298 2.8294 18.7219 3.0832L18.7211 3.0851C18.1336 4.48327 17.2793 5.75355 16.2059 6.8249L16.2055 6.82524C15.5042 7.52659 14.2352 8.71214 13.6506 9.2556L13.3978 9.49064L13.528 9.81036L15.6506 15.023C15.8294 15.5144 15.8651 16.0465 15.7537 16.5575C15.6417 17.0708 15.3859 17.5416 15.016 17.9147C15.0157 17.915 15.0154 17.9153 15.0151 17.9157L14.9279 18.0029L9.95346 13.0331L9.63232 12.7122L9.28204 13.001L7.15904 14.751ZM6.13556 18.3294L6.6319 18.8256C6.60293 18.8296 6.57371 18.8316 6.54443 18.8318C6.46206 18.8321 6.38045 18.8159 6.30437 18.7844C6.22828 18.7528 6.15924 18.7064 6.10126 18.6479L6.09959 18.6462L1.35359 13.9012L1.35287 13.9005C1.27789 13.8258 1.22299 13.7334 1.19326 13.6319C1.16824 13.5464 1.16174 13.4568 1.17396 13.3689L1.67156 13.8664L6.13556 18.3294Z" fill="#0F1A1C" stroke="#0F1A1C"/>
</svg>
