<svg width="20" height="20" viewBox="0 0 20 20" fill="none" xmlns="http://www.w3.org/2000/svg">
<g clip-path="url(#clip0_1581_857)">
<path d="M9.84206 6.07926C9.84683 6.07962 9.8516 6.07996 9.85637 6.08029L9.82212 6.57912C9.85225 6.57912 9.88238 6.58063 9.91238 6.58213C9.94213 6.58363 9.97175 6.58512 10.0011 6.58512C10.6672 6.58706 11.3087 6.33327 11.7931 5.87612C12.0549 5.63028 12.2637 5.33349 12.4066 5.00399C12.5495 4.6745 12.6236 4.31926 12.6241 3.96012M9.84206 6.07926C9.87747 6.07974 9.91024 6.08139 9.93375 6.08258L9.93707 6.08275C9.96925 6.08436 9.98633 6.08512 10.0011 6.08512H10.0026C10.5406 6.08669 11.0587 5.88171 11.45 5.51246L11.4509 5.51161C11.663 5.31244 11.8321 5.07199 11.9479 4.80504C12.0621 4.54183 12.122 4.25833 12.1241 3.97152M9.84206 6.07926C9.55459 6.05747 9.27507 5.97423 9.02243 5.83511C8.76559 5.69369 8.54272 5.49792 8.36935 5.26147L8.36936 5.26147L8.36751 5.25897C8.16332 4.98408 8.01977 4.669 7.94633 4.33453C7.87368 4.00366 7.87129 3.66126 7.93926 3.32947C8.18846 2.37099 8.79822 1.54559 9.64151 1.02574L9.64159 1.02589L9.65256 1.01873C9.75516 0.951706 9.87507 0.916016 9.99763 0.916016C10.1202 0.916016 10.2401 0.951706 10.3427 1.01873L10.3504 1.02378L10.3583 1.02854C10.8729 1.33817 11.3033 1.76983 11.6114 2.28534C11.9173 2.79722 12.0933 3.37612 12.1241 3.97152M9.84206 6.07926L10.6161 0.600116C11.2011 0.9521 11.6903 1.44281 12.0406 2.02885C12.3908 2.61488 12.5912 3.27819 12.6241 3.96012M12.1241 3.97152C12.1243 3.97575 12.1245 3.97998 12.1247 3.98421L12.6241 3.96012M12.1241 3.97152C12.1241 3.96745 12.1241 3.96339 12.1241 3.95932L12.6241 3.96012M8.19354 3.34566L8.18949 3.36018L8.18632 3.37491C8.12227 3.67249 8.12214 3.98027 8.18593 4.27791C8.24956 4.57478 8.37535 4.8548 8.555 5.09954C8.70628 5.30865 8.90125 5.48236 9.1264 5.60858C9.35222 5.73519 9.60296 5.81098 9.8611 5.83067L9.86315 5.83082C10.1202 5.84936 10.3782 5.81475 10.6213 5.72916C10.8643 5.64356 11.0872 5.50881 11.2758 5.33331C11.4645 5.15781 11.615 4.94532 11.7179 4.70909C11.8209 4.47285 11.874 4.21795 11.8741 3.96028L11.8741 3.94285L11.8729 3.92547C11.8354 3.38558 11.6696 2.86244 11.3892 2.39955C11.1088 1.93665 10.722 1.54738 10.2609 1.26409L9.99368 1.09995L9.72958 1.26899C8.97975 1.74891 8.43294 2.48819 8.19354 3.34566ZM7.7319 8.49982L7.74051 8.50012H7.74913H12.2491H12.2577L12.2663 8.49982C12.5815 8.48896 12.8881 8.60331 13.1192 8.81789C13.3481 9.03041 13.4844 9.32413 13.4991 9.63587V16.4601H13.2491V9.62512C13.2491 9.32545 13.0796 9.09756 12.9019 8.96347C12.7205 8.82659 12.4888 8.75012 12.2491 8.75012H7.74913C7.51155 8.75012 7.27989 8.82464 7.09741 8.96156C6.91738 9.09664 6.74913 9.3252 6.74913 9.62512V16.4601H6.49913V9.63588C6.51383 9.32413 6.65015 9.03042 6.87902 8.81789C7.1101 8.60331 7.41674 8.48896 7.7319 8.49982ZM1.465 16.2984L1.70089 16.216L1.74207 16.3339L1.742 16.334L1.74506 16.3423C2.06419 17.2068 2.64391 17.9509 3.40413 18.4718C4.16323 18.9919 5.0649 19.2638 5.98491 19.2501H14.0133C14.9334 19.2638 15.835 18.9919 16.5941 18.4718C17.3543 17.9509 17.9341 17.2068 18.2532 16.3423L18.2533 16.3423L18.2562 16.3339L18.2974 16.216L18.5333 16.2984L18.4932 16.4129C18.1596 17.3264 17.5508 18.114 16.7507 18.6669C15.9497 19.2205 14.9966 19.5116 14.023 19.5002L14.023 19.5001H14.0171H5.98112V19.5001L5.97522 19.5002C5.00164 19.5116 4.04852 19.2205 3.24755 18.6669C2.4475 18.114 1.83869 17.3265 1.50504 16.413L1.465 16.2984Z" fill="#0F1A1C" stroke="#0F1A1C"/>
</g>
<defs>
<clipPath id="clip0_1581_857">
<rect width="20" height="20" fill="white"/>
</clipPath>
</defs>
</svg>
