<svg width="20" height="20" viewBox="0 0 20 20" fill="none" xmlns="http://www.w3.org/2000/svg">
<path d="M10.0002 19.9902C9.39257 19.9917 8.79066 19.8729 8.22923 19.6405C7.6678 19.4081 7.15797 19.0667 6.7292 18.6362L1.3642 13.2712C0.496948 12.4035 0.00976563 11.227 0.00976562 10.0002C0.00976562 8.77343 0.496948 7.59687 1.3642 6.7292L6.7292 1.3642C7.59687 0.496948 8.77343 0.00976563 10.0002 0.00976562C11.227 0.00976563 12.4035 0.496948 13.2712 1.3642L18.6362 6.7282C19.5035 7.59587 19.9906 8.77243 19.9906 9.9992C19.9906 11.226 19.5035 12.4025 18.6362 13.2702L13.2722 18.6352C12.8434 19.066 12.3334 19.4076 11.7718 19.6402C11.2102 19.8728 10.6081 19.9917 10.0002 19.9902ZM10.0002 1.2602C9.55693 1.25899 9.11782 1.34569 8.70827 1.51528C8.29871 1.68486 7.92686 1.93397 7.6142 2.2482L2.2492 7.6142C1.93583 7.92751 1.68725 8.29949 1.51765 8.70888C1.34805 9.11827 1.26076 9.55707 1.26076 10.0002C1.26076 10.4433 1.34805 10.8821 1.51765 11.2915C1.68725 11.7009 1.93583 12.0729 2.2492 12.3862L7.6152 17.7522C8.25842 18.365 9.11278 18.7069 10.0012 18.7069C10.8896 18.7069 11.744 18.365 12.3872 17.7522L17.7522 12.3862C18.0656 12.0729 18.3142 11.7009 18.4838 11.2915C18.6534 10.8821 18.7406 10.4433 18.7406 10.0002C18.7406 9.55707 18.6534 9.11827 18.4838 8.70888C18.3142 8.29949 18.0656 7.92751 17.7522 7.6142L12.3862 2.2492C12.0737 1.93466 11.7019 1.68528 11.2923 1.5155C10.8828 1.34573 10.4436 1.25896 10.0002 1.2602ZM13.9202 11.5182C13.9862 11.6299 14.0207 11.7574 14.0202 11.8872C14.0162 12.0099 13.984 12.13 13.9262 12.2382C13.8659 12.3533 13.7747 12.4493 13.6629 12.5156C13.5511 12.5818 13.4231 12.6156 13.2932 12.6132C13.1576 12.6104 13.0247 12.5743 12.9062 12.5082C12.7062 12.3915 11.8729 11.7742 10.4062 10.6562C10.6249 12.4062 10.7342 13.3905 10.7342 13.6092C10.7535 13.8473 10.6915 14.0849 10.5582 14.2832C10.4913 14.3587 10.4078 14.4176 10.3143 14.4553C10.2207 14.4929 10.1197 14.5083 10.0192 14.5002C9.5432 14.5002 9.3052 14.2112 9.3052 13.6332C9.3052 13.3912 9.41453 12.4069 9.6332 10.6802L9.2692 10.9492C8.07653 11.8552 7.3672 12.3749 7.1412 12.5082C7.01854 12.5756 6.88114 12.6117 6.7412 12.6132C6.61717 12.6132 6.49561 12.5786 6.3902 12.5132C6.28077 12.4488 6.18979 12.3572 6.12603 12.2474C6.06227 12.1376 6.02789 12.0132 6.0262 11.8862C6.02567 11.7564 6.06022 11.6289 6.1262 11.5172C6.19517 11.401 6.29435 11.3056 6.4132 11.2412C6.6472 11.1079 7.6002 10.6939 9.2722 9.9992C7.6022 9.3052 6.64953 8.89153 6.4142 8.7582C6.29767 8.68853 6.19932 8.59223 6.1272 8.4772C6.062 8.37135 6.02738 8.24952 6.0272 8.1252C6.02395 7.99779 6.05651 7.87202 6.1212 7.7622C6.18425 7.64435 6.27741 7.54532 6.3912 7.4752C6.49643 7.40944 6.61811 7.37477 6.7422 7.3752C6.88332 7.3795 7.02101 7.41977 7.1422 7.4922C7.3682 7.62553 8.07887 8.1452 9.2742 9.0512L9.6382 9.3202C9.41887 7.5942 9.30953 6.61387 9.3102 6.3792C9.29205 6.1451 9.35374 5.91175 9.4852 5.7172C9.5522 5.64188 9.63572 5.58309 9.72923 5.54545C9.82275 5.5078 9.9237 5.49231 10.0242 5.5002C10.1257 5.49104 10.2279 5.50591 10.3226 5.54361C10.4173 5.58131 10.5018 5.64078 10.5692 5.7172C10.6992 5.92084 10.7589 6.16143 10.7392 6.4022C10.7392 6.62153 10.6299 7.6022 10.4112 9.3442C11.8725 8.22753 12.7059 7.6102 12.9112 7.4922C13.0324 7.41977 13.1701 7.3795 13.3112 7.3752C13.4353 7.37477 13.557 7.40944 13.6622 7.4752C13.7757 7.54561 13.8688 7.64457 13.9322 7.7622C13.9969 7.87202 14.0295 7.99779 14.0262 8.1252C14.026 8.24952 13.9914 8.37135 13.9262 8.4772C13.8541 8.59223 13.7557 8.68853 13.6392 8.7582C13.4392 8.87553 12.4939 9.28953 10.8032 10.0002L11.6472 10.3632C12.6945 10.8012 13.3585 11.0942 13.6392 11.2422C13.7558 11.3074 13.8529 11.4027 13.9202 11.5182Z" fill="#0F1A1C"/>
</svg>
