<svg width="20" height="20" viewBox="0 0 20 20" fill="none" xmlns="http://www.w3.org/2000/svg">
<path d="M17.9713 1.26051L17.4568 1.63289L10.0728 6.97747C10.0726 6.97762 10.0724 6.97777 10.0722 6.97791C10.0511 6.99284 10.0259 7.00086 10 7.00086C9.97389 7.00086 9.94844 6.99268 9.92721 6.97748C9.92721 6.97748 9.92721 6.97747 9.9272 6.97747L2.54121 1.68548L1.96813 1.27487C2.04207 1.25398 2.11942 1.24598 2.19673 1.25159C2.31884 1.26045 2.43613 1.3029 2.53563 1.37425L2.5358 1.37438L9.7088 6.51338L10 6.722L10.2912 6.51338L17.4642 1.37438L17.4648 1.37394C17.5641 1.30257 17.6813 1.2601 17.8032 1.25125C17.8597 1.24715 17.9162 1.25033 17.9713 1.26051ZM18.25 2.03792V1.38139C18.3129 1.42801 18.3666 1.48637 18.4081 1.55357C18.468 1.65075 18.4998 1.76263 18.5 1.8768L18.5 12.8759L18.5 12.8787C18.5001 12.8988 18.4954 12.9186 18.4863 12.9366C18.4772 12.9544 18.464 12.9698 18.4478 12.9815C18.4477 12.9816 18.4476 12.9816 18.4475 12.9817L10.3888 18.7558C10.3887 18.7558 10.3886 18.7559 10.3885 18.756C10.2752 18.8366 10.1396 18.88 10.0005 18.88C9.86142 18.88 9.72581 18.8366 9.61252 18.756C9.61242 18.7559 9.61231 18.7558 9.61221 18.7558L1.55254 12.9817C1.55244 12.9816 1.55235 12.9816 1.55225 12.9815C1.53614 12.9699 1.52301 12.9546 1.51393 12.9369C1.50481 12.9192 1.50004 12.8995 1.5 12.8796L1.5 1.87992L1.5 1.87901C1.49979 1.76447 1.53142 1.65212 1.59135 1.55451C1.63285 1.48692 1.6868 1.42823 1.75 1.38139V2.09192V6.68392V6.94419L1.96319 7.09348L9.69719 12.5095L9.99681 12.7193L10.2875 12.4973L15.258 8.70086L15.4094 8.89913L10.0771 12.9751C10.077 12.9752 10.077 12.9752 10.0769 12.9753C10.0557 12.9914 10.0299 13.0003 10.0033 13.0009C9.9767 13.0014 9.95062 12.9935 9.92879 12.9783C9.9287 12.9783 9.92861 12.9782 9.92852 12.9782L2.53687 7.8004L1.75 7.24921V8.20992V12.5549V12.8118L1.95881 12.9614L9.75881 18.5494L10.0518 18.7593L10.3436 18.5476L18.0436 12.9616L18.25 12.8119V12.5569V2.03792Z" fill="#0F1A1C" stroke="#0F1A1C"/>
</svg>
