<svg width="20" height="20" viewBox="0 0 20 20" fill="none" xmlns="http://www.w3.org/2000/svg">
<g clip-path="url(#clip0_473_19)">
<path d="M10 0C8.02219 0 6.08879 0.58649 4.4443 1.6853C2.79981 2.78412 1.51809 4.3459 0.761209 6.17317C0.00433284 8.00043 -0.193701 10.0111 0.192152 11.9509C0.578004 13.8907 1.53041 15.6725 2.92894 17.0711C4.32746 18.4696 6.10929 19.422 8.0491 19.8079C9.98891 20.1937 11.9996 19.9957 13.8268 19.2388C15.6541 18.4819 17.2159 17.2002 18.3147 15.5557C19.4135 13.9112 20 11.9778 20 10C19.9971 7.34873 18.9426 4.80688 17.0679 2.93215C15.1931 1.05742 12.6513 0.0029116 10 0V0ZM8.016 8.633C7.88027 8.87966 7.81132 9.1575 7.816 9.439V13.5H5.931V6.172H7.731V7.072H7.77C8.05417 6.75922 8.40103 6.50981 8.788 6.34C9.24485 6.14187 9.73917 6.04499 10.237 6.056C10.4827 6.053 10.7281 6.0758 10.969 6.124C11.1266 6.14815 11.2776 6.20393 11.413 6.288L10.654 8.12C10.3202 7.93524 9.94223 7.84533 9.561 7.86C9.2308 7.85048 8.90328 7.92189 8.60701 8.068C8.35894 8.19442 8.15345 8.39087 8.016 8.633ZM10.916 15.551H9.355L14.7 2.633C15.126 2.9049 15.5275 3.2134 15.9 3.555L10.916 15.551Z" fill="#0F1A1C"/>
</g>
<defs>
<clipPath id="clip0_473_19">
<rect width="20" height="20" fill="white"/>
</clipPath>
</defs>
</svg>
