<svg width="20" height="20" viewBox="0 0 20 20" fill="none" xmlns="http://www.w3.org/2000/svg">
<path d="M15.9999 13C15.2138 12.9999 14.4593 13.3096 13.8999 13.862L6.95293 10.468C6.98082 10.3135 6.99654 10.157 6.99993 10C6.99523 9.87801 6.98288 9.75644 6.96293 9.636L13.9229 6.156C14.4214 6.63341 15.0694 6.92395 15.7574 6.97847C16.4455 7.03298 17.1312 6.84812 17.6986 6.45517C18.266 6.06222 18.6802 5.4853 18.8711 4.82206C19.062 4.15882 19.0179 3.44998 18.7463 2.81551C18.4747 2.18103 17.9922 1.65988 17.3805 1.34025C16.7688 1.02061 16.0654 0.922134 15.3895 1.06147C14.7135 1.20081 14.1064 1.5694 13.671 2.10488C13.2356 2.64035 12.9985 3.30983 12.9999 4C13.0046 4.12166 13.017 4.2429 13.0369 4.363L6.07593 7.843C5.65613 7.43388 5.12583 7.15647 4.55034 7.04495C3.97486 6.93342 3.37932 6.99265 2.83708 7.21534C2.29483 7.43802 1.82956 7.81444 1.49855 8.29823C1.16755 8.78203 0.985273 9.35207 0.974172 9.93815C0.963071 10.5242 1.12363 11.1008 1.43607 11.5968C1.74852 12.0927 2.19921 12.4865 2.73263 12.7296C3.26605 12.9726 3.85892 13.0544 4.43822 12.9647C5.01751 12.8751 5.55793 12.6179 5.99293 12.225L13.0339 15.664C13.016 15.7752 13.0047 15.8874 12.9999 16C12.9999 16.5933 13.1759 17.1734 13.5055 17.6667C13.8352 18.1601 14.3037 18.5446 14.8519 18.7716C15.4001 18.9987 16.0033 19.0581 16.5852 18.9424C17.1671 18.8266 17.7017 18.5409 18.1213 18.1213C18.5408 17.7018 18.8265 17.1672 18.9423 16.5853C19.058 16.0033 18.9986 15.4001 18.7716 14.852C18.5445 14.3038 18.16 13.8352 17.6666 13.5056C17.1733 13.1759 16.5933 13 15.9999 13Z" fill="#0F1A1C"/>
</svg>
