<svg width="20" height="20" viewBox="0 0 20 20" fill="none" xmlns="http://www.w3.org/2000/svg">
<path d="M16.379 1H3.621C2.92611 1.00079 2.25991 1.27719 1.76855 1.76855C1.27719 2.25991 1.00079 2.92611 1 3.621V16.379C1.00079 17.0739 1.27719 17.7401 1.76855 18.2314C2.25991 18.7228 2.92611 18.9992 3.621 19H11.273C11.5697 18.9999 11.8542 18.8819 12.064 18.672L18.671 12.065C18.8809 11.8552 18.9992 11.5708 19 11.274V3.621C18.9992 2.92611 18.7228 2.25991 18.2314 1.76855C17.7401 1.27719 17.0739 1.00079 16.379 1ZM2.25 16.379V3.621C2.25053 3.25755 2.39514 2.90914 2.65214 2.65214C2.90914 2.39514 3.25755 2.25053 3.621 2.25H16.379C16.7424 2.25053 17.0909 2.39514 17.3479 2.65214C17.6049 2.90914 17.7495 3.25755 17.75 3.621V11H13.458C12.8063 11.0008 12.1816 11.26 11.7208 11.7208C11.26 12.1816 11.0008 12.8063 11 13.458V13.607C10.677 13.713 10.3399 13.7697 10 13.775C9.52095 13.7868 9.0459 13.6852 8.61354 13.4786C8.18118 13.272 7.80375 12.9661 7.512 12.586L6.488 13.305C6.89316 13.8517 7.42355 14.2932 8.03465 14.5925C8.64574 14.8918 9.31972 15.0401 10 15.025C10.3364 15.0233 10.6717 14.9854 11 14.912V17.75H3.621C3.25755 17.7495 2.90914 17.6049 2.65214 17.3479C2.39514 17.0909 2.25053 16.7424 2.25 16.379ZM16.719 12.25L12.25 16.719V13.458C12.2503 13.1377 12.3776 12.8306 12.6041 12.6041C12.8306 12.3776 13.1377 12.2503 13.458 12.25H16.719ZM6 9.5C5.70333 9.5 5.41332 9.41203 5.16664 9.2472C4.91997 9.08238 4.72771 8.84811 4.61418 8.57403C4.50065 8.29994 4.47094 7.99834 4.52882 7.70736C4.5867 7.41639 4.72956 7.14912 4.93934 6.93934C5.14912 6.72956 5.41639 6.5867 5.70736 6.52882C5.99834 6.47094 6.29994 6.50065 6.57403 6.61418C6.84811 6.72771 7.08238 6.91997 7.2472 7.16664C7.41203 7.41332 7.5 7.70333 7.5 8C7.5 8.39782 7.34196 8.77936 7.06066 9.06066C6.77936 9.34196 6.39782 9.5 6 9.5ZM12.5 8C12.5 7.70333 12.588 7.41332 12.7528 7.16664C12.9176 6.91997 13.1519 6.72771 13.426 6.61418C13.7001 6.50065 14.0017 6.47094 14.2926 6.52882C14.5836 6.5867 14.8509 6.72956 15.0607 6.93934C15.2704 7.14912 15.4133 7.41639 15.4712 7.70736C15.5291 7.99834 15.4994 8.29994 15.3858 8.57403C15.2723 8.84811 15.08 9.08238 14.8334 9.2472C14.5867 9.41203 14.2967 9.5 14 9.5C13.6022 9.5 13.2206 9.34196 12.9393 9.06066C12.658 8.77936 12.5 8.39782 12.5 8Z" fill="#0F1A1C"/>
</svg>
