<svg width="20" height="20" viewBox="0 0 20 20" fill="none" xmlns="http://www.w3.org/2000/svg">
<path d="M8.99987 3.375V8.375C8.99987 8.54076 8.93402 8.69973 8.81681 8.81694C8.6996 8.93415 8.54063 9 8.37487 9H3.37487C3.25124 9.00002 3.13038 8.96338 3.02757 8.8947C2.92477 8.82603 2.84465 8.72841 2.79733 8.61419C2.75002 8.49997 2.73764 8.37429 2.76177 8.25303C2.78589 8.13178 2.84544 8.02041 2.93287 7.933L4.72587 6.14L0.713867 2.127L2.12787 0.712997L6.13987 4.726L7.93287 2.933C8.02028 2.84557 8.13165 2.78602 8.2529 2.7619C8.37416 2.73777 8.49984 2.75015 8.61406 2.79746C8.72828 2.84478 8.8259 2.9249 8.89457 3.0277C8.96325 3.13051 8.99989 3.25137 8.99987 3.375ZM19.3319 17.918L15.2739 13.86L17.0669 12.067C17.1543 11.9796 17.2138 11.8682 17.238 11.747C17.2621 11.6257 17.2497 11.5 17.2024 11.3858C17.1551 11.2716 17.075 11.174 16.9722 11.1053C16.8694 11.0366 16.7485 11 16.6249 11H11.6249C11.4591 11 11.3001 11.0658 11.1829 11.1831C11.0657 11.3003 10.9999 11.4592 10.9999 11.625V16.625C10.9999 16.7487 11.0366 16.8696 11.1053 16.9725C11.174 17.0754 11.2716 17.1556 11.3859 17.203C11.4618 17.2338 11.5429 17.2498 11.6249 17.25C11.7069 17.25 11.7882 17.2339 11.8641 17.2025C11.9399 17.1711 12.0088 17.125 12.0669 17.067L13.8599 15.274L17.9179 19.332L19.3319 17.918Z" fill="#0F1A1C"/>
</svg>
