<svg width="20" height="20" viewBox="0 0 20 20" fill="none" xmlns="http://www.w3.org/2000/svg">
<g clip-path="url(#clip0_1118_258)">
<path d="M10 2.74392C8.56633 2.74412 7.16491 3.16943 5.97295 3.96608C4.78099 4.76273 3.85202 5.89494 3.30351 7.21954C2.75501 8.54414 2.6116 10.0016 2.89141 11.4077C3.17123 12.8138 3.86171 14.1054 4.87554 15.1191C5.88937 16.1328 7.18102 16.8231 8.58716 17.1027C9.9933 17.3823 11.4508 17.2387 12.7753 16.69C14.0998 16.1413 15.2319 15.2122 16.0284 14.0201C16.8249 12.8281 17.25 11.4266 17.25 9.99292C17.2479 8.07084 16.4833 6.22811 15.1241 4.86909C13.7649 3.51007 11.9221 2.74577 10 2.74392ZM10.957 10.9609C11.784 11.2979 12.6857 11.4087 13.5697 11.282C14.4537 11.1553 15.288 10.7956 15.987 10.2399C15.931 11.6301 15.3909 12.9569 14.46 13.9909C13.6231 13.945 12.8252 13.6226 12.1914 13.0742C11.5576 12.5258 11.1238 11.7825 10.958 10.9609H10.957ZM15.846 8.66092C15.3063 9.33095 14.5569 9.79993 13.7183 9.99238C12.8798 10.1848 12.0009 10.0896 11.223 9.72192C11.9577 9.18132 12.5326 8.45214 12.8867 7.61156C13.2409 6.77099 13.3613 5.85029 13.235 4.94692C14.5583 5.79614 15.4961 7.13022 15.847 8.66292L15.846 8.66092ZM11.791 4.26092C12.0944 5.05819 12.1228 5.93397 11.8717 6.74922C11.6206 7.56448 11.1044 8.27251 10.405 8.76092C10.1365 7.87851 9.65694 7.07484 9.00788 6.4195C8.35881 5.76416 7.55979 5.27691 6.68 4.99992C7.42321 4.50364 8.2681 4.18004 9.15268 4.05286C10.0373 3.92567 10.9391 3.99813 11.792 4.26492L11.791 4.26092ZM9.13301 8.93292C8.26935 8.66359 7.3538 8.60475 6.46278 8.76131C5.57176 8.91788 4.73111 9.2853 4.011 9.83292C4.04797 8.4018 4.59848 7.03173 5.562 5.97292C6.37043 6.09411 7.13038 6.43391 7.75975 6.95558C8.38911 7.47726 8.86396 8.161 9.13301 8.93292ZM4.153 11.3119C4.7259 10.7102 5.45465 10.2793 6.25804 10.0675C7.06142 9.85557 7.90786 9.87097 8.703 10.1119C8.00436 10.714 7.46288 11.4771 7.12538 12.3354C6.78789 13.1937 6.66454 14.1213 6.766 15.0379C5.44049 14.1862 4.50221 12.8483 4.153 11.3119ZM8.113 15.6829C7.87382 14.8268 7.89244 13.9191 8.16654 13.0735C8.44064 12.2279 8.95805 11.4819 9.65401 10.9289C9.81494 11.8792 10.2378 12.7657 10.875 13.4888C11.5122 14.2118 12.3385 14.7428 13.261 15.0219C12.5086 15.5139 11.6545 15.829 10.7629 15.9434C9.87126 16.0579 8.96527 15.9689 8.113 15.6829ZM10 -0.00708008C8.02219 -0.00708008 6.08879 0.57941 4.4443 1.67822C2.79981 2.77704 1.51809 4.33882 0.761209 6.16609C0.00433284 7.99335 -0.193701 10.004 0.192152 11.9438C0.578004 13.8836 1.53041 15.6655 2.92894 17.064C4.32746 18.4625 6.10929 19.4149 8.0491 19.8008C9.98891 20.1866 11.9996 19.9886 13.8268 19.2317C15.6541 18.4748 17.2159 17.1931 18.3147 15.5486C19.4135 13.9041 20 11.9707 20 9.99292C19.9971 7.34165 18.9426 4.7998 17.0679 2.92507C15.1931 1.05033 12.6513 -0.00416848 10 -0.00708008ZM10 18.7429C8.26942 18.7429 6.57769 18.2297 5.13876 17.2683C3.69983 16.3068 2.57833 14.9403 1.91606 13.3414C1.25379 11.7425 1.08051 9.98321 1.41813 8.28588C1.75575 6.58855 2.58911 5.02945 3.81282 3.80574C5.03653 2.58203 6.59563 1.74867 8.29296 1.41105C9.9903 1.07343 11.7496 1.24671 13.3485 1.90897C14.9473 2.57124 16.3139 3.69275 17.2754 5.13168C18.2368 6.57061 18.75 8.26233 18.75 9.99292C18.7474 12.3128 17.8246 14.5368 16.1843 16.1772C14.5439 17.8176 12.3198 18.7403 10 18.7429Z" fill="#0F1A1C"/>
</g>
<defs>
<clipPath id="clip0_1118_258">
<rect width="20" height="20" fill="white"/>
</clipPath>
</defs>
</svg>
