<svg width="20" height="20" viewBox="0 0 20 20" fill="none" xmlns="http://www.w3.org/2000/svg">
<path d="M15.944 11.9258L15.056 12.8048L16.981 14.7498H12C10.7305 14.7473 9.51214 14.2496 8.6041 13.3625C7.69605 12.4753 7.17004 11.2689 7.138 9.9998C7.17004 8.73074 7.69605 7.52428 8.6041 6.63715C9.51214 5.75002 10.7305 5.25227 12 5.2498H16.971L15.056 7.1858L15.944 8.0638L18.875 5.0998C19.0095 4.96267 19.0842 4.77791 19.0829 4.58586C19.0816 4.39381 19.0043 4.21009 18.868 4.0748L15.939 1.1748L15.061 2.0628L17.011 3.9998H12C10.5284 4.00191 9.10667 4.53353 7.99472 5.49749C6.88277 6.46145 6.15485 7.79337 5.944 9.2498H1V10.8748H5.981C6.21573 12.3031 6.94933 13.6019 8.05139 14.5402C9.15345 15.4786 10.5526 15.9958 12 15.9998H17L15.06 17.9208L15.938 18.8098L18.867 15.9098C19.0034 15.7745 19.0807 15.5907 19.0818 15.3985C19.0829 15.2064 19.0078 15.0217 18.873 14.8848L15.944 11.9258Z" fill="#0F1A1C"/>
</svg>
