<svg width="20" height="20" viewBox="0 0 20 20" fill="none" xmlns="http://www.w3.org/2000/svg">
<path d="M17.377 1H2.623C2.19272 1.00053 1.78021 1.17169 1.47595 1.47595C1.17169 1.78021 1.00053 2.19272 1 2.623V17.377C1.00053 17.8073 1.17169 18.2198 1.47595 18.524C1.78021 18.8283 2.19272 18.9995 2.623 19H17.377C17.8073 18.9995 18.2198 18.8283 18.524 18.524C18.8283 18.2198 18.9995 17.8073 19 17.377V2.623C18.9995 2.19272 18.8283 1.78021 18.524 1.47595C18.2198 1.17169 17.8073 1.00053 17.377 1ZM3 14H9V17H3V14ZM9 8V12H3V8H9ZM3 6V3H9V6H3ZM11 14H17V17H11V14ZM11 12V8H17V12H11ZM11 6V3H17V6H11Z" fill="#0F1A1C"/>
</svg>
