<svg width="20" height="20" viewBox="0 0 20 20" fill="none" xmlns="http://www.w3.org/2000/svg">
<g clip-path="url(#clip0_472_1122)">
<path d="M10.777 5.364L14.707 9.293L13.293 10.707L11 8.414V19H8.99997V8.414L6.70697 10.707L5.29297 9.293L9.51497 5.071L10.415 5.042L10.777 5.364ZM16.417 4.215C15.875 2.96305 14.9787 1.89695 13.8384 1.14804C12.6981 0.399118 11.3637 8.39233e-05 9.99947 8.39233e-05C8.63524 8.39233e-05 7.30081 0.399118 6.16053 1.14804C5.02025 1.89695 4.12393 2.96305 3.58197 4.215C2.42894 4.55419 1.43691 5.29782 0.787932 6.30943C0.138958 7.32105 -0.123418 8.53277 0.0489531 9.72224C0.221325 10.9117 0.816881 11.9991 1.72632 12.7849C2.63577 13.5706 3.79809 14.0021 4.99997 14V12C4.2486 12.0021 3.5239 11.7216 2.96974 11.2142C2.41558 10.7068 2.07246 10.0095 2.0085 9.26088C1.94454 8.51223 2.16441 7.7669 2.62447 7.17283C3.08452 6.57876 3.75113 6.1794 4.49197 6.054L5.07897 5.954L5.27097 5.391C5.60588 4.40242 6.24218 3.54364 7.09042 2.93541C7.93867 2.32717 8.9562 2.00006 9.99997 2.00006C11.0437 2.00006 12.0613 2.32717 12.9095 2.93541C13.7578 3.54364 14.3941 4.40242 14.729 5.391L14.921 5.954L15.507 6.054C16.2477 6.17939 16.9143 6.57868 17.3743 7.17264C17.8344 7.7666 18.0543 8.51181 17.9905 9.26038C17.9266 10.0089 17.5837 10.7062 17.0297 11.2137C16.4758 11.7212 15.7513 12.0018 15 12V14C16.2018 14.0018 17.3639 13.5702 18.2732 12.7844C19.1824 11.9985 19.7778 10.9111 19.9501 9.72174C20.1223 8.53235 19.8598 7.32073 19.2109 6.30923C18.5619 5.29772 17.5699 4.55416 16.417 4.215Z" fill="#0F1A1C"/>
</g>
<defs>
<clipPath id="clip0_472_1122">
<rect width="20" height="20" fill="white"/>
</clipPath>
</defs>
</svg>
