<svg width="20" height="20" viewBox="0 0 20 20" fill="none" xmlns="http://www.w3.org/2000/svg">
<path d="M18.153 2.1L10.271 0.108C10.093 0.0639907 9.90699 0.0639907 9.729 0.108L1.846 2.1C1.60422 2.16136 1.38978 2.30155 1.23657 2.4984C1.08336 2.69526 1.00012 2.93755 1 3.187V12C1 17.277 8.249 19.554 9.7 19.957C9.79765 19.9846 9.89853 19.999 10 20C10.1013 19.9998 10.2022 19.9864 10.3 19.96C11.753 19.56 19 17.28 19 12.003V3.187C18.9998 2.93742 18.9164 2.69502 18.763 2.49815C18.6096 2.30128 18.395 2.16117 18.153 2.1ZM15.018 12.622C14.9555 12.7364 14.8634 12.8318 14.7513 12.8983C14.6393 12.9649 14.5113 13 14.381 13H5.619C5.48852 13.0002 5.36041 12.9652 5.24821 12.8986C5.136 12.832 5.04389 12.7363 4.98159 12.6217C4.9193 12.507 4.88915 12.3777 4.89432 12.2473C4.8995 12.1169 4.93981 11.9903 5.011 11.881L9.574 4.806L10.342 4.76L10.61 5.094L14.99 11.882C15.0607 11.9914 15.1007 12.1179 15.1056 12.2482C15.1105 12.3784 15.0803 12.5075 15.018 12.622Z" fill="#0F1A1C"/>
</svg>
