<svg width="20" height="20" viewBox="0 0 20 20" fill="none" xmlns="http://www.w3.org/2000/svg">
<path d="M8.64708 8.55654C8.64617 8.19094 8.75373 7.83327 8.95615 7.5288C9.15873 7.22409 9.44721 6.98638 9.78503 6.84579C10.1228 6.70519 10.4948 6.66806 10.8538 6.73907C10.9348 6.75512 11.0144 6.77652 11.0921 6.80301L10.8719 6.58281L10.95 6.5047C10.9366 6.50176 10.9232 6.49896 10.9098 6.49628C10.5024 6.41525 10.0802 6.45684 9.69645 6.61578C9.31272 6.77473 8.98475 7.04389 8.754 7.38923C8.52324 7.73457 8.40008 8.14059 8.40008 8.55593V8.68093H8.64708M8.64708 8.55654V8.55593H9.14708L8.64708 8.55741C8.64708 8.55712 8.64708 8.55683 8.64708 8.55654ZM8.64708 8.55654V8.68093M8.64708 8.68093V9.18093L9.14708 8.68093H8.64708ZM7.66208 18.2529H4.25008H3.75008V17.7529V14.4314C3.75001 14.408 3.7434 14.385 3.73098 14.3651C3.71853 14.3452 3.70075 14.3291 3.67963 14.3187L3.67935 14.3186L2.11435 13.5486L1.76696 13.3776L1.84547 12.9985L2.74547 8.65254L2.74577 8.65107C2.74723 8.64414 2.748 8.63708 2.74808 8.63C2.74808 8.6295 2.74809 8.62901 2.74808 8.62852L3.24808 8.62693L7.66208 18.2529ZM7.66208 18.2529V18.4999H3.62508C3.59193 18.4999 3.56013 18.4868 3.53669 18.4633C3.51325 18.4399 3.50008 18.4081 3.50008 18.3749V14.8189V14.508L3.22119 14.3705L1.57019 13.5565L1.56982 13.5563C1.54494 13.5441 1.52484 13.5239 1.51268 13.499C1.50051 13.4741 1.49698 13.4458 1.50262 13.4187L1.50266 13.4185L2.48966 8.66151L2.50035 8.60998L2.50008 8.55735C2.49188 6.96971 2.95543 5.41541 3.83194 4.09163C4.70845 2.76785 5.9584 1.73424 7.42324 1.12193C8.88807 0.509627 10.5018 0.346214 12.0596 0.652425C13.6175 0.958635 15.0493 1.72067 16.1734 2.84186C17.2975 3.96305 18.0632 5.39286 18.3735 6.94991C18.6837 8.50696 18.5245 10.1211 17.916 11.5875C17.3075 13.0539 16.2771 14.3065 14.9556 15.1865C13.6341 16.0664 12.081 16.534 10.4934 16.5299H10.4921H10.3671V16.2799L10.4896 16.2799L10.4901 16.2799L7.66208 18.2529ZM11.6668 10.302C11.3453 10.5168 10.9713 10.6384 10.5861 10.6542L10.5828 10.6529H10.4921H10.3671V10.3999L10.491 10.3999L10.4921 9.89993V10.3999H10.4914C10.8572 10.4007 11.2149 10.2928 11.5194 10.0901C11.8239 9.88729 12.0614 9.59864 12.2018 9.26071C12.3421 8.92278 12.379 8.5508 12.3077 8.19191C12.2917 8.11129 12.2703 8.03214 12.244 7.95495L12.4631 8.17404L12.5476 8.08949C12.5519 8.10833 12.556 8.12725 12.5597 8.14624C12.6408 8.5536 12.5992 8.97584 12.4402 9.35956C12.2813 9.74329 12.0121 10.0713 11.6668 10.302ZM14.0645 5.15846L12.774 6.44893C12.7473 6.42011 12.72 6.39176 12.6921 6.3639C12.661 6.33277 12.6292 6.30235 12.5969 6.27266L13.4155 5.4546L13.8248 5.04557L13.3607 4.69993C12.4359 4.01109 11.2939 3.67826 10.1438 3.7623C8.99365 3.84634 7.91221 4.34164 7.0973 5.1576L7.09713 5.15778L7.00928 5.24582L6.83179 5.06873L6.91976 4.98036C6.9199 4.98022 6.92003 4.98008 6.92017 4.97995C7.38916 4.51074 7.94598 4.13852 8.55885 3.88455C9.17189 3.63049 9.82898 3.49973 10.4926 3.49973C11.1562 3.49973 11.8133 3.63049 12.4263 3.88455C13.0391 4.13848 13.5958 4.51062 14.0648 4.97972C14.0882 5.00348 14.1014 5.03553 14.1014 5.06893C14.1014 5.1023 14.0882 5.13433 14.0648 5.15808C14.0647 5.15821 14.0646 5.15833 14.0645 5.15846ZM14.0662 12.0187L14.0654 12.0195C13.3588 12.7267 12.4584 13.2084 11.478 13.4035C10.4976 13.5986 9.48129 13.4984 8.55785 13.1156C7.63441 12.7328 6.84532 12.0846 6.2905 11.2531C5.73567 10.4215 5.44005 9.44408 5.44108 8.44444V8.44393V8.31893H5.69408V8.44393C5.69408 9.71697 6.19979 10.9379 7.09997 11.838C8.00014 12.7382 9.22104 13.2439 10.4941 13.2439C11.7671 13.2439 12.988 12.7382 13.8882 11.838C14.7884 10.9379 15.2941 9.71697 15.2941 8.44393V8.31893H15.5441L15.5441 8.44393L15.5441 8.44544C15.5461 9.10915 15.4165 9.76668 15.1629 10.38C14.9092 10.9933 14.5365 11.5503 14.0662 12.0187Z" fill="#0F1A1C" stroke="#0F1A1C"/>
</svg>
