<svg width="20" height="20" viewBox="0 0 20 20" fill="none" xmlns="http://www.w3.org/2000/svg">
<g clip-path="url(#clip0_473_76)">
<path d="M19.921 8.79997C19.8837 8.52508 19.7479 8.27308 19.5387 8.09081C19.3296 7.90854 19.0614 7.80839 18.784 7.80897H17.711C17.5152 7.80184 17.3261 7.7362 17.168 7.62052C17.0098 7.50483 16.89 7.34441 16.824 7.15997C16.7454 6.98566 16.7201 6.79196 16.7514 6.60331C16.7827 6.41466 16.8692 6.23951 17 6.09997L17.754 5.34597C17.9538 5.14831 18.0742 4.88435 18.0926 4.60393C18.1111 4.32352 18.0262 4.04607 17.854 3.82397C17.3639 3.20387 16.8031 2.64307 16.183 2.15297C15.9607 1.98122 15.6834 1.89659 15.4031 1.915C15.1228 1.93342 14.8589 2.05361 14.661 2.25297L13.905 2.99997C13.7614 3.13457 13.5804 3.22256 13.3859 3.25237C13.1913 3.28217 12.9923 3.2524 12.815 3.16697C12.6352 3.09918 12.4795 2.97957 12.3678 2.82328C12.256 2.66698 12.1931 2.48103 12.187 2.28897V1.21597C12.1879 0.939101 12.0884 0.671292 11.9069 0.462211C11.7254 0.25313 11.4743 0.116964 11.2 0.0789691C10.4035 -0.0266485 9.59652 -0.0266485 8.8 0.0789691C8.52511 0.11628 8.27312 0.25212 8.09084 0.461246C7.90857 0.670371 7.80842 0.938559 7.809 1.21597V2.28897C7.80188 2.48475 7.73624 2.6739 7.62055 2.83201C7.50487 2.99012 7.34445 3.10993 7.16 3.17597C6.98575 3.25488 6.79198 3.28028 6.60327 3.24895C6.41457 3.21762 6.23941 3.13096 6.1 2.99997L5.346 2.24597C5.14812 2.04661 4.88421 1.92642 4.60392 1.908C4.32363 1.88959 4.04627 1.97421 3.824 2.14597C3.20203 2.6364 2.63955 3.19788 2.148 3.81897C1.97583 4.04107 1.89094 4.31852 1.90937 4.59893C1.92779 4.87935 2.04825 5.14331 2.248 5.34097L3 6.09997C3.13411 6.24385 3.22178 6.4248 3.25156 6.61922C3.28135 6.81364 3.25189 7.01253 3.167 7.18997C3.09917 7.36966 2.97952 7.52518 2.82322 7.6368C2.66691 7.74842 2.48098 7.81113 2.289 7.81697H1.216C0.939792 7.81612 0.672584 7.91515 0.463635 8.0958C0.254686 8.27644 0.118082 8.52654 0.079003 8.79997C-0.0263343 9.59416 -0.0263343 10.3988 0.079003 11.193C0.116313 11.4679 0.252154 11.7199 0.461279 11.9021C0.670405 12.0844 0.938593 12.1846 1.216 12.184H2.289C2.48479 12.1911 2.67394 12.2567 2.83205 12.3724C2.99016 12.4881 3.10996 12.6485 3.176 12.833C3.25722 13.0089 3.28385 13.2052 3.25248 13.3964C3.22111 13.5877 3.13317 13.7652 3 13.906L2.249 14.658C2.04879 14.8556 1.92802 15.1198 1.90959 15.4005C1.89116 15.6812 1.97634 15.9589 2.149 16.181C2.63911 16.8011 3.1999 17.3619 3.82 17.852C4.04186 18.0243 4.31919 18.1093 4.59949 18.0908C4.8798 18.0724 5.14362 17.9518 5.341 17.752L6.1 17C6.24389 16.8659 6.42483 16.7782 6.61925 16.7484C6.81368 16.7186 7.01257 16.7481 7.19 16.833C7.3697 16.9008 7.52521 17.0204 7.63683 17.1768C7.74846 17.3331 7.81116 17.519 7.817 17.711V18.784C7.81615 19.0602 7.91518 19.3274 8.09583 19.5363C8.27648 19.7453 8.52657 19.8819 8.8 19.921C9.59419 20.0263 10.3988 20.0263 11.193 19.921C11.4678 19.8836 11.7197 19.7478 11.9018 19.5386C12.0839 19.3295 12.1838 19.0613 12.183 18.784V17.711C12.1903 17.5151 12.2562 17.3259 12.372 17.1678C12.4879 17.0097 12.6484 16.89 12.833 16.824C13.0089 16.7425 13.2052 16.7157 13.3965 16.7471C13.5879 16.7785 13.7653 16.8666 13.906 17L14.659 17.753C14.8564 17.9531 15.1205 18.0738 15.401 18.0923C15.6815 18.1107 15.9591 18.0256 16.181 17.853C16.8011 17.3629 17.3619 16.8021 17.852 16.182C18.0241 15.96 18.109 15.6827 18.0905 15.4025C18.0721 15.1223 17.9517 14.8585 17.752 14.661L17 13.905C16.8744 13.759 16.7917 13.581 16.7613 13.3908C16.7308 13.2006 16.7536 13.0057 16.8273 12.8278C16.901 12.6498 17.0226 12.4958 17.1786 12.3828C17.3347 12.2699 17.5189 12.2024 17.711 12.188H18.784C19.0616 12.1885 19.3299 12.0882 19.539 11.9058C19.7482 11.7233 19.8839 11.471 19.921 11.196C20.0263 10.4021 20.0263 9.59782 19.921 8.80397V8.79997ZM11.979 9.99997C11.979 10.3914 11.8629 10.774 11.6455 11.0994C11.428 11.4249 11.1189 11.6785 10.7573 11.8283C10.3957 11.9781 9.99781 12.0173 9.61392 11.9409C9.23003 11.8646 8.87741 11.6761 8.60064 11.3993C8.32387 11.1226 8.13539 10.7699 8.05903 10.3861C7.98267 10.0022 8.02186 9.60425 8.17165 9.24264C8.32143 8.88102 8.57508 8.57195 8.90053 8.35449C9.22597 8.13704 9.60859 8.02097 10 8.02097C10.5248 8.02123 11.028 8.22982 11.3991 8.6009C11.7702 8.97198 11.9787 9.47519 11.979 9.99997Z" fill="#0F1A1C"/>
</g>
<defs>
<clipPath id="clip0_473_76">
<rect width="20" height="20" fill="white"/>
</clipPath>
</defs>
</svg>
