<svg width="20" height="20" viewBox="0 0 20 20" fill="none" xmlns="http://www.w3.org/2000/svg">
<path d="M19 17.411V17.893C18.9981 18.1878 18.8796 18.4698 18.6702 18.6773C18.4608 18.8847 18.1778 19.0008 17.883 19H2.118C1.82299 19.0013 1.53951 18.8855 1.32987 18.6779C1.12024 18.4703 1.00159 18.188 1 17.893V17.411C1.01874 15.6946 1.71749 14.0558 2.94297 12.8539C4.16845 11.6521 5.82059 10.9853 7.537 11H12.464C14.1802 10.9859 15.8319 11.6528 17.0571 12.8546C18.2823 14.0563 18.981 15.6949 19 17.411ZM13 6H11.576C11.5004 6 11.4255 5.9851 11.3556 5.95615C11.2857 5.92721 11.2222 5.88478 11.1687 5.83129C11.1152 5.77781 11.0728 5.71431 11.0438 5.64443C11.0149 5.57454 11 5.49964 11 5.424V2.576C11 2.50036 11.0149 2.42546 11.0438 2.35557C11.0728 2.28569 11.1152 2.22219 11.1687 2.16871C11.2222 2.11522 11.2857 2.07279 11.3556 2.04385C11.4255 2.0149 11.5004 2 11.576 2H13.976C13.4634 1.32166 12.786 0.78551 12.0081 0.442412C11.2301 0.099313 10.3774 -0.0393614 9.53088 0.0395412C8.68431 0.118444 7.87193 0.412307 7.17079 0.89326C6.46966 1.37421 5.90302 2.02631 5.52461 2.78769C5.1462 3.54908 4.96857 4.39452 5.00857 5.24381C5.04857 6.09311 5.30487 6.91811 5.75317 7.64056C6.20147 8.36301 6.82689 8.95896 7.57013 9.37188C8.31336 9.78481 9.14976 10.001 10 10C10.7904 9.99824 11.5682 9.8028 12.2656 9.43078C12.9629 9.05875 13.5584 8.52149 14 7.866V6H13ZM19.83 3H17V0H15V3H12V5H15V8H17V5H19.83V3Z" fill="#0F1A1C"/>
</svg>
