<svg width="20" height="20" viewBox="0 0 20 20" fill="none" xmlns="http://www.w3.org/2000/svg">
<path d="M19.5893 9.705L18.5283 8.644C18.2852 8.39944 17.996 8.20554 17.6774 8.07354C17.3588 7.94154 17.0172 7.87406 16.6723 7.875H15.7593L12.1253 4.241V3.329C12.1267 2.98409 12.0594 2.64237 11.9273 2.32373C11.7953 2.00509 11.6012 1.7159 11.3563 1.473L10.3003 0.411002C10.1954 0.305607 10.0707 0.221993 9.93339 0.164968C9.79606 0.107944 9.64881 0.078635 9.50011 0.0787279C9.35141 0.0788209 9.2042 0.108314 9.06694 0.16551C8.92968 0.222706 8.80509 0.306476 8.70032 0.412002L3.41132 5.705C3.20064 5.91594 3.08231 6.20188 3.08231 6.5C3.08231 6.79813 3.20064 7.08406 3.41132 7.295L4.47232 8.356C4.71545 8.60057 5.00468 8.79446 5.32327 8.92647C5.64186 9.05847 5.98347 9.12595 6.32832 9.125H7.24132L7.61632 9.5L1.05932 16.058C0.681614 16.4413 0.470741 16.9584 0.472669 17.4965C0.474598 18.0346 0.689172 18.5501 1.06962 18.9307C1.45006 19.3113 1.96552 19.526 2.50364 19.5282C3.04176 19.5303 3.5589 19.3196 3.94232 18.942L10.5003 12.384L10.8753 12.759V13.672C10.8744 14.0169 10.9419 14.3585 11.0739 14.6771C11.2059 14.9956 11.3998 15.2849 11.6443 15.528L12.7043 16.588C12.9156 16.7988 13.2019 16.9172 13.5003 16.9172C13.7988 16.9172 14.085 16.7988 14.2963 16.588L19.5883 11.3C19.6928 11.1955 19.7757 11.0715 19.8322 10.935C19.8887 10.7985 19.9178 10.6522 19.9178 10.5045C19.9178 10.3568 19.8887 10.2105 19.8322 10.074C19.7757 9.93749 19.6928 9.81347 19.5883 9.709L19.5893 9.705ZM3.05932 18.058C2.94903 18.1687 2.80834 18.2442 2.65509 18.2749C2.50185 18.3055 2.34295 18.29 2.19855 18.2302C2.05415 18.1704 1.93075 18.0691 1.84401 17.9391C1.75727 17.8091 1.71108 17.6563 1.71132 17.5C1.71102 17.3963 1.73128 17.2936 1.77094 17.1979C1.81059 17.1021 1.86884 17.0151 1.94232 16.942L8.50032 10.384L9.61632 11.5L3.05932 18.058ZM13.5003 15.616L12.5283 14.644C12.272 14.3855 12.1282 14.0361 12.1283 13.672V12.241L7.75932 7.875H6.32832C6.14792 7.87576 5.96916 7.84081 5.80234 7.77216C5.63552 7.70351 5.48393 7.60251 5.35632 7.475L4.38432 6.5L9.50032 1.384L10.4723 2.356C10.7287 2.61492 10.8725 2.96462 10.8723 3.329V4.759L15.2383 9.125H16.6693C17.0333 9.12554 17.3824 9.26922 17.6413 9.525L18.6133 10.497L13.5003 15.616Z" fill="#0F1A1C"/>
</svg>
