<svg width="20" height="20" viewBox="0 0 20 20" fill="none" xmlns="http://www.w3.org/2000/svg">
<g clip-path="url(#clip0_3596_170)">
<path d="M18.875 2H3.1V15.533C3.08802 15.6675 3.02362 15.7918 2.92071 15.8792C2.8178 15.9666 2.68464 16.01 2.55 16C2.41536 16.01 2.2822 15.9666 2.17929 15.8792C2.07638 15.7918 2.01197 15.6675 2 15.533V3.6H0V15.533C0.0086427 16.1163 0.221652 16.6781 0.60192 17.1205C0.982188 17.5629 1.50561 17.8579 2.081 17.954V18H18.875C19.1734 18 19.4595 17.8815 19.6705 17.6705C19.8815 17.4595 20 17.1734 20 16.875V3.128C20.0003 2.98005 19.9714 2.83349 19.915 2.69672C19.8586 2.55994 19.7757 2.43562 19.6713 2.33086C19.5668 2.2261 19.4427 2.14296 19.3061 2.08619C19.1694 2.02942 19.023 2.00013 18.875 2ZM6 6H17V7.5H6V6ZM10 13.5H6V12H10V13.5ZM10 10.5H6V9H10V10.5ZM17 13.5H13V12H17V13.5ZM17 10.5H13V9H17V10.5Z" fill="#0F1A1C"/>
</g>
<defs>
<clipPath id="clip0_3596_170">
<rect width="20" height="20" fill="white"/>
</clipPath>
</defs>
</svg>
