<svg width="20" height="20" viewBox="0 0 20 20" fill="none" xmlns="http://www.w3.org/2000/svg">
<path d="M14.1106 1.77417L13.7577 2.12842C14.2521 2.62088 14.6439 3.2065 14.9104 3.85139C15.175 4.49148 15.311 5.17735 15.3106 5.86986C15.2222 7.15954 14.7476 8.39075 13.9515 9.40447L11.6263 6.96801C11.6835 6.88256 11.734 6.79254 11.7774 6.6987C11.8948 6.44434 11.9566 6.16781 11.9586 5.88764L11.9586 5.8851C11.9592 5.54343 11.8694 5.20767 11.6984 4.91188L11.2656 5.16217M14.1106 1.77417L13.7596 2.13033C13.7458 2.11672 13.7292 2.10627 13.711 2.0997C13.6927 2.09314 13.6733 2.0906 13.6539 2.09229L13.6528 2.09239C13.6345 2.09394 13.6168 2.09946 13.6009 2.10857C13.585 2.11764 13.5713 2.13005 13.5607 2.14494C13.5607 2.145 13.5607 2.14506 13.5606 2.14512L11.7049 4.77524C11.7048 4.77537 11.7048 4.77551 11.7047 4.77564C11.6908 4.7955 11.6829 4.81887 11.6819 4.84304C11.6808 4.86737 11.6867 4.89151 11.6988 4.91262L11.2656 5.16217M14.1106 1.77417C14.6518 2.31329 15.0807 2.9544 15.3725 3.6604C15.6643 4.36639 15.8132 5.12325 15.8106 5.88717L14.1106 1.77417ZM11.2656 5.16217C11.3924 5.38161 11.459 5.6307 11.4586 5.88417L13.6106 1.59417C13.5197 1.60187 13.4317 1.62931 13.3526 1.67456C13.2735 1.71982 13.2052 1.7818 13.1526 1.85617L11.2956 4.48817C11.2269 4.58602 11.1877 4.70142 11.1824 4.8208C11.177 4.94019 11.2059 5.05862 11.2656 5.16217ZM8.08076 15.7612L5.88892 13.0112L3.01272 16.0288C3.01255 16.029 3.01238 16.0292 3.01221 16.0294C2.95386 16.0912 2.90829 16.1639 2.87809 16.2433C2.8478 16.323 2.83358 16.4079 2.83626 16.4931C2.83893 16.5783 2.85844 16.6621 2.89366 16.7398C2.92888 16.8174 2.97912 16.8873 3.04147 16.9454L3.04183 16.9458L5.34077 19.0928C5.34091 19.0929 5.34105 19.093 5.34119 19.0932C5.46092 19.2041 5.61808 19.2659 5.78135 19.2662H5.78141H5.78158H5.78175H5.78192H5.78208H5.78225H5.78242H5.78259H5.78276H5.78293H5.7831H5.78327H5.78344H5.78361H5.78378H5.78395H5.78412H5.78428H5.78445H5.78462H5.78479H5.78496H5.78513H5.7853H5.78547H5.78563H5.7858H5.78597H5.78614H5.78631H5.78648H5.78665H5.78681H5.78698H5.78715H5.78732H5.78749H5.78766H5.78782H5.78799H5.78816H5.78833H5.7885H5.78866H5.78883H5.789H5.78917H5.78934H5.7895H5.78967H5.78984H5.79001H5.79017H5.79034H5.79051H5.79068H5.79084H5.79101H5.79118H5.79135H5.79151H5.79168H5.79185H5.79202H5.79218H5.79235H5.79252H5.79268H5.79285H5.79302H5.79318H5.79335H5.79352H5.79369H5.79385H5.79402H5.79419H5.79435H5.79452H5.79469H5.79485H5.79502H5.79519H5.79535H5.79552H5.79569H5.79585H5.79602H5.79619H5.79635H5.79652H5.79668H5.79685H5.79702H5.79718H5.79735H5.79752H5.79768H5.79785H5.79801H5.79818H5.79835H5.79851H5.79868H5.79885H5.79901H5.79918H5.79934H5.79951H5.79967H5.79984H5.80001H5.80017H5.80034H5.8005H5.80067H5.80084H5.801H5.80117H5.80133H5.8015H5.80166H5.80183H5.80199H5.80216H5.80233H5.80249H5.80266H5.80282H5.80299H5.80315H5.80332H5.80348H5.80365H5.80381H5.80398H5.80414H5.80431H5.80448H5.80464H5.80481H5.80497H5.80514H5.8053H5.80547H5.80563H5.8058H5.80596H5.80613H5.80629H5.80646H5.80662H5.80679H5.80695H5.80712H5.80728H5.80745H5.80761H5.80778H5.80794H5.8081H5.80827H5.80843H5.8086H5.80876H5.80893H5.80909H5.80926H5.80942H5.80959H5.80975H5.80992H5.81008H5.81025H5.81041H5.81058H5.81074H5.8109H5.81107H5.81123H5.8114H5.81156H5.81173H5.81189H5.81206H5.81222H5.81238H5.81255H5.81271H5.81288H5.81304H5.81321H5.81337H5.81354H5.8137H5.81386H5.81403H5.81419H5.81436H5.81452H5.81469H5.81485H5.81501H5.81518H5.81534H5.81551H5.81567H5.81584H5.816H5.81616H5.81633H5.81649H5.81666H5.81682H5.81699H5.81715H5.81731H5.81748H5.81764H5.81781H5.81797H5.81813H5.8183H5.81846H5.81863H5.81879H5.81895H5.81912H5.81928H5.81945H5.81961H5.81978H5.81994H5.8201H5.82027H5.82043H5.8206H5.82076H5.82092H5.82109H5.82125H5.82142H5.82158H5.82174H5.82191H5.82207H5.82224H5.8224H5.82256H5.82273H5.82289H5.82306H5.82322H5.82339H5.82355H5.82371H5.82388H5.82404H5.82421H5.82437H5.82453H5.8247H5.82486H5.82503H5.82519H5.82535H5.82552H5.82568H5.82585H5.82601H5.82617H5.82634H5.8265H5.82667H5.82683H5.82699H5.82716H5.82732H5.82749H5.82765H5.82782H5.82798H5.82814H5.82831H5.82847H5.82864H5.8288H5.82896H5.82913H5.82929H5.82946H5.82962H5.82979H5.82995H5.83011H5.83028H5.83044H5.83061H5.83077H5.83094H5.8311H5.83126H5.83143H5.83159H5.83176H5.83192H5.83209H5.83225H5.83241H5.83258H5.83274H5.83291H5.83307H5.83324H5.8334H5.83356H5.83373H5.83389H5.83406H5.83422H5.83439H5.83455H5.83472H5.83488H5.83505H5.83521H5.83537H5.83554H5.8357H5.83587H5.83603H5.8362H5.83636H5.83653H5.83669H5.83686H5.83702H5.83719H5.83735H5.83751H5.83768H5.83784H5.83801H5.83817H5.83834H5.8385H5.83867H5.83883H5.839H5.83916H5.83933H5.83949H5.83966H5.83982H5.83999H5.84015H5.84032H5.84048H5.84065H5.84081H5.84098H5.84114H5.84131H5.84147H5.84164H5.8418H5.84197H5.84213H5.8423H5.84247H5.84263H5.8428H5.84296H5.84313H5.84329H5.84346H5.84362H5.84372C5.92673 19.2577 6.00738 19.2333 6.08121 19.1942C6.15978 19.1526 6.22895 19.0952 6.28441 19.0257L8.08076 15.7612ZM8.08076 15.7612L8.01876 15.8375L8.37875 16.1551L8.41363 16.1859L8.47962 16.2689L6.2846 19.0255L8.08076 15.7612ZM8.57686 7.18806L8.60844 7.24581L8.65388 7.29341L16.746 15.771L16.7444 15.7744L16.9862 16.0287C17.045 16.0905 17.091 16.1634 17.1214 16.2431C17.1519 16.3227 17.1663 16.4077 17.1638 16.4929C17.1613 16.5782 17.1419 16.6621 17.1068 16.7399C17.0717 16.8175 17.0216 16.8875 16.9594 16.9457C16.9594 16.9457 16.9593 16.9457 16.9593 16.9457C16.9593 16.9458 16.9592 16.9458 16.9592 16.9459L14.6612 19.091C14.6609 19.0913 14.6606 19.0915 14.6603 19.0918C14.5401 19.2025 14.3826 19.2637 14.2192 19.2632H14.2176H14.2174H14.2172H14.217H14.2169H14.2167H14.2165H14.2164H14.2162H14.216H14.2159H14.2157H14.2155H14.2154H14.2152H14.215H14.2148H14.2147H14.2145H14.2143H14.2142H14.214H14.2138H14.2137H14.2135H14.2133H14.2132H14.213H14.2128H14.2126H14.2125H14.2123H14.2121H14.212H14.2118H14.2116H14.2115H14.2113H14.2111H14.211H14.2108H14.2106H14.2105H14.2103H14.2101H14.21H14.2098H14.2096H14.2094H14.2093H14.2091H14.2089H14.2088H14.2086H14.2084H14.2083H14.2081H14.2079H14.2078H14.2076H14.2074H14.2073H14.2071H14.2069H14.2068H14.2066H14.2064H14.2063H14.2061H14.2059H14.2058H14.2056H14.2054H14.2053H14.2051H14.2049H14.2048H14.2046H14.2044H14.2043H14.2041H14.2039H14.2038H14.2036H14.2034H14.2033H14.2031H14.2029H14.2028H14.2026H14.2024H14.2023H14.2021H14.2019H14.2018H14.2016H14.2014H14.2013H14.2011H14.2009H14.2008H14.2006H14.2004H14.2003H14.2001H14.1999H14.1998H14.1996H14.1994H14.1993H14.1991H14.1989H14.1988H14.1986H14.1984H14.1983H14.1981H14.1979H14.1978H14.1976H14.1974H14.1973H14.1971H14.1969H14.1968H14.1966H14.1965H14.1963H14.1961H14.196H14.1958H14.1956H14.1955H14.1953H14.1951H14.195H14.1948H14.1946H14.1945H14.1943H14.1941H14.194H14.1938H14.1936H14.1935H14.1933H14.1931H14.193H14.1928H14.1926H14.1925H14.1923H14.1922H14.192H14.1918H14.1917H14.1915H14.1913H14.1912H14.191H14.1908H14.1907H14.1905H14.1903H14.1902H14.19H14.1898H14.1897H14.1895H14.1894H14.1892H14.189H14.1889H14.1887H14.1885H14.1884H14.1882H14.188H14.1879H14.1877H14.1875H14.1874H14.1872H14.187H14.1869H14.1867H14.1866H14.1864H14.1862H14.1861H14.1859H14.1857H14.1856H14.1854H14.1852H14.1851H14.1849H14.1847H14.1846H14.1844H14.1842H14.1841H14.1839H14.1838H14.1836H14.1834H14.1833H14.1831H14.1829H14.1828H14.1826H14.1824H14.1823H14.1821H14.1819H14.1818H14.1816H14.1815H14.1813H14.1811H14.181H14.1808H14.1806H14.1805H14.1803H14.1801H14.18H14.1798H14.1797H14.1795H14.1793H14.1792H14.179H14.1788H14.1787H14.1785H14.1783H14.1782H14.178H14.1778H14.1777H14.1775H14.1774H14.1772H14.177H14.1769H14.1767H14.1765H14.1764H14.1762H14.176H14.1759H14.1757H14.1755H14.1754H14.1752H14.1751H14.1749H14.1747H14.1746H14.1744H14.1742H14.1741H14.1739H14.1737H14.1736H14.1734H14.1733H14.1731H14.1729H14.1728H14.1726H14.1724H14.1723H14.1721H14.1719H14.1718H14.1716H14.1714H14.1713H14.1711H14.171H14.1708H14.1706H14.1705H14.1703H14.1701H14.17H14.1698H14.1696H14.1695H14.1693H14.1691H14.169H14.1688H14.1687H14.1685H14.1683H14.1682H14.168H14.1678H14.1677H14.1675H14.1673H14.1672H14.167H14.1669H14.1667H14.1665H14.1664H14.1662H14.166H14.1659H14.1657H14.1655H14.1654H14.1652H14.165H14.1649H14.1647H14.1645H14.1644H14.1642H14.1641H14.1639H14.1637H14.1636H14.1634H14.1632H14.1631H14.1629H14.1627H14.1626H14.1624H14.1622H14.1621H14.1619H14.1618H14.1616H14.1614H14.1613H14.1611H14.1609H14.1608H14.1606H14.1604H14.1603H14.1601H14.1599H14.1598H14.1596H14.1594H14.1593H14.1591H14.159H14.1588H14.1586H14.1585H14.1583H14.1581H14.158H14.1578H14.1576H14.1575H14.1573H14.1571H14.157H14.1568H14.1566H14.1565H14.1563H14.1561H14.156H14.1558H14.1556H14.1555H14.1553H14.1552H14.155H14.1548H14.1547H14.1545H14.1544C14.0714 19.2547 13.9907 19.2303 13.9169 19.1912C13.8382 19.1495 13.769 19.0921 13.7135 19.0225L6.23971 9.63573L6.23414 9.62873L6.22832 9.62194C5.32646 8.56889 4.78772 7.25357 4.6916 5.87075C4.69725 4.46758 5.25748 3.12327 6.25052 2.13126C7.24752 1.13527 8.59921 0.575931 10.0085 0.576174L10.0335 0.576178L10.0584 0.573688C10.1367 0.565847 10.2155 0.582269 10.2842 0.620729C10.3509 0.658077 10.4049 0.714454 10.4393 0.782587C10.4855 0.890297 10.4929 1.04548 10.2947 1.37403C10.0875 1.71738 9.73383 2.12091 9.25191 2.66679L9.06012 2.87836L9.06008 2.87832L9.05524 2.88381C8.54332 3.4654 8.22281 4.19044 8.13722 4.96049C8.05164 5.73054 8.20513 6.50827 8.57686 7.18806Z" fill="#0F1A1C" stroke="#0F1A1C"/>
</svg>
