<svg width="20" height="20" viewBox="0 0 20 20" fill="none" xmlns="http://www.w3.org/2000/svg">
<g clip-path="url(#clip0_3052_717)">
<path d="M10 0C8.02219 0 6.08879 0.58649 4.4443 1.6853C2.79981 2.78412 1.51809 4.3459 0.761209 6.17317C0.00433284 8.00043 -0.193701 10.0111 0.192152 11.9509C0.578004 13.8907 1.53041 15.6725 2.92894 17.0711C4.32746 18.4696 6.10929 19.422 8.0491 19.8079C9.98891 20.1937 11.9996 19.9957 13.8268 19.2388C15.6541 18.4819 17.2159 17.2002 18.3147 15.5557C19.4135 13.9112 20 11.9778 20 10C19.9971 7.34873 18.9426 4.80688 17.0679 2.93215C15.1931 1.05742 12.6513 0.0029116 10 0V0ZM14.056 6.786L11.677 11.407C11.6166 11.5224 11.5224 11.6166 11.407 11.677L6.786 14.056C6.69762 14.1017 6.5995 14.1254 6.5 14.125C6.39283 14.125 6.28744 14.0975 6.19397 14.0451C6.10049 13.9927 6.02207 13.9171 5.96624 13.8256C5.91041 13.7341 5.87903 13.6298 5.87514 13.5227C5.87125 13.4156 5.89496 13.3093 5.944 13.214L8.32401 8.593C8.38412 8.47739 8.4784 8.38312 8.594 8.323L13.214 5.944C13.3318 5.88323 13.4658 5.86148 13.5968 5.88188C13.7277 5.90228 13.8488 5.96378 13.9425 6.05749C14.0362 6.1512 14.0977 6.27228 14.1181 6.40323C14.1385 6.53418 14.1168 6.66822 14.056 6.786Z" fill="#0F1A1C"/>
</g>
<defs>
<clipPath id="clip0_3052_717">
<rect width="20" height="20" fill="white"/>
</clipPath>
</defs>
</svg>
