<svg width="20" height="20" viewBox="0 0 20 20" fill="none" xmlns="http://www.w3.org/2000/svg">
<path d="M7.99925 0.5H7.99949L11.9995 0.5L11.9997 0.5C12.0216 0.49999 12.0431 0.505732 12.0621 0.516653C12.0811 0.527573 12.0969 0.543288 12.1079 0.562225C12.1189 0.58116 12.1247 0.602653 12.1248 0.624553C12.1249 0.646425 12.1192 0.667933 12.1084 0.686931C12.1084 0.686953 12.1083 0.686976 12.1083 0.686999L11.1084 2.43693L11.1081 2.4374C11.0973 2.45644 11.0815 2.47226 11.0626 2.48326C11.0436 2.49425 11.0221 2.50003 11.0002 2.5H10.9995L8.99949 2.5L8.99879 2.5C8.97688 2.50003 8.95535 2.49425 8.93639 2.48326C8.91744 2.47226 8.90174 2.45644 8.89089 2.4374L8.89061 2.43693L7.89065 0.687C7.89064 0.686977 7.89063 0.686954 7.89061 0.686931C7.87978 0.667933 7.87412 0.646424 7.8742 0.624553C7.87427 0.602655 7.8801 0.581162 7.8911 0.562224C7.9021 0.543288 7.91788 0.527573 7.93686 0.516652C7.95584 0.505732 7.97736 0.49999 7.99925 0.5ZM14.116 14.0933L14.1159 14.0933L14.1175 14.0989C14.1229 14.1187 14.1234 14.1395 14.1189 14.1595C14.1146 14.1787 14.1058 14.1967 14.0932 14.2118L10.0968 18.7078L10.0963 18.7084C10.0847 18.7215 10.0704 18.732 10.0544 18.7392C10.0384 18.7464 10.021 18.7501 10.0035 18.7501C9.98595 18.7501 9.96861 18.7464 9.95261 18.7392C9.93661 18.732 9.92233 18.7215 9.91069 18.7084L9.9102 18.7078L5.91042 14.2081C5.91037 14.208 5.91032 14.208 5.91027 14.2079C5.89668 14.1925 5.88708 14.1741 5.88232 14.1541C5.87754 14.1341 5.87778 14.1132 5.88302 14.0933L5.88303 14.0933L8.12003 5.59326L8.1202 5.59259C8.12711 5.56619 8.14254 5.5428 8.1641 5.52606C8.18542 5.5095 8.21155 5.50035 8.23853 5.5H11.7605C11.7874 5.50035 11.8136 5.5095 11.8349 5.52606C11.8564 5.5428 11.8719 5.56619 11.8788 5.59259L11.879 5.59326L14.116 14.0933ZM5.39957 13.966L5.3996 13.966L5.39957 13.966Z" fill="#0F1A1C" stroke="#0F1A1C"/>
</svg>
