<svg width="20" height="20" viewBox="0 0 20 20" fill="none" xmlns="http://www.w3.org/2000/svg">
<path d="M9.99965 9.116L7.37265 6.49C7.87295 5.76916 8.08537 4.88719 7.96814 4.01761C7.8509 3.14803 7.41249 2.35381 6.73916 1.79119C6.06583 1.22858 5.20633 0.938308 4.32976 0.977491C3.45319 1.01667 2.62302 1.38247 2.00257 2.00292C1.38212 2.62337 1.01632 3.45354 0.97714 4.33011C0.937957 5.20668 1.22823 6.06618 1.79084 6.73951C2.35346 7.41284 3.14768 7.85125 4.01726 7.96849C4.88684 8.08572 5.76881 7.8733 6.48965 7.373L9.11565 10L6.48965 12.627C5.76881 12.1267 4.88684 11.9143 4.01726 12.0315C3.14768 12.1488 2.35346 12.5872 1.79084 13.2605C1.22823 13.9338 0.937957 14.7933 0.97714 15.6699C1.01632 16.5465 1.38212 17.3766 2.00257 17.9971C2.62302 18.6175 3.45319 18.9833 4.32976 19.0225C5.20633 19.0617 6.06583 18.7714 6.73916 18.2088C7.41249 17.6462 7.8509 16.852 7.96814 15.9824C8.08537 15.1128 7.87295 14.2308 7.37265 13.51L18.8917 2H17.1267L9.99965 9.116ZM4.49965 6.75C4.05464 6.75 3.61963 6.61804 3.24962 6.37081C2.87961 6.12358 2.59122 5.77217 2.42092 5.36104C2.25063 4.94991 2.20607 4.49751 2.29289 4.06105C2.3797 3.62459 2.59399 3.22368 2.90866 2.90901C3.22333 2.59434 3.62424 2.38005 4.0607 2.29324C4.49716 2.20642 4.94956 2.25098 5.36069 2.42127C5.77182 2.59157 6.12323 2.87996 6.37046 3.24997C6.61769 3.61998 6.74965 4.055 6.74965 4.5C6.74912 5.09658 6.5119 5.66857 6.09006 6.09041C5.66822 6.51225 5.09623 6.74947 4.49965 6.75ZM4.49965 17.75C4.05464 17.75 3.61963 17.618 3.24962 17.3708C2.87961 17.1236 2.59122 16.7722 2.42092 16.361C2.25063 15.9499 2.20607 15.4975 2.29289 15.061C2.3797 14.6246 2.59399 14.2237 2.90866 13.909C3.22333 13.5943 3.62424 13.3801 4.0607 13.2932C4.49716 13.2064 4.94956 13.251 5.36069 13.4213C5.77182 13.5916 6.12323 13.88 6.37046 14.25C6.61769 14.62 6.74965 15.055 6.74965 15.5C6.74912 16.0966 6.5119 16.6686 6.09006 17.0904C5.66822 17.5123 5.09623 17.7495 4.49965 17.75ZM18.8687 17.992H17.0987L11.0577 11.951L11.9417 11.067L18.8687 17.992Z" fill="#0F1A1C"/>
</svg>
