<svg width="20" height="20" viewBox="0 0 20 20" fill="none" xmlns="http://www.w3.org/2000/svg">
<g clip-path="url(#clip0_616_13)">
<path d="M2.18262 6.73799L0.182617 4.73799L1.06562 3.85399L1.99962 4.78699V0.799992H3.24962V4.78699L4.18262 3.85399L5.06562 4.73799L3.06562 6.73799C3.00766 6.79602 2.93884 6.84205 2.86309 6.87345C2.78733 6.90486 2.70613 6.92102 2.62412 6.92102C2.54211 6.92102 2.46091 6.90486 2.38515 6.87345C2.30939 6.84205 2.24057 6.79602 2.18262 6.73799ZM18.9996 10.223V13.246C19.0211 15.0076 18.3452 16.7062 17.1193 17.9714C15.8934 19.2366 14.217 19.9658 12.4556 20H9.82462C8.68598 19.9753 7.57271 19.6589 6.59123 19.0811C5.60975 18.5034 4.79285 17.6835 4.21862 16.7L1.31062 11.884C1.01482 11.3944 0.92504 10.8075 1.06091 10.2518C1.19679 9.69612 1.54726 9.21689 2.03562 8.91899C2.48864 8.64337 3.02838 8.54718 3.54873 8.64932C4.06908 8.75147 4.53241 9.04456 4.84762 9.47099L5.99962 11.016V2.24599C5.9915 1.70826 6.17754 1.18564 6.52362 0.773992C6.70481 0.566265 6.92891 0.400311 7.18045 0.287576C7.43199 0.17484 7.70499 0.118006 7.98062 0.120992C8.55886 0.117157 9.11654 0.335313 9.5387 0.730492C9.96086 1.12567 10.2153 1.66775 10.2496 2.24499V6.19999C10.4731 6.11492 10.7105 6.07186 10.9496 6.07299C11.3682 6.07399 11.777 6.19933 12.1242 6.4331C12.4714 6.66688 12.7413 6.99854 12.8996 7.38599C13.2117 7.21177 13.5632 7.12053 13.9206 7.12099C14.3286 7.12204 14.7276 7.2412 15.0694 7.46408C15.4112 7.68696 15.6811 8.00403 15.8466 8.37699C16.1638 8.19442 16.5236 8.09886 16.8896 8.09999C17.4507 8.10237 17.988 8.32723 18.3836 8.72522C18.7791 9.12322 19.0007 9.66186 18.9996 10.223ZM17.7496 10.223C17.7496 10.1101 17.7274 9.99822 17.6842 9.89388C17.6409 9.78955 17.5776 9.69474 17.4977 9.61488C17.4179 9.53502 17.3231 9.47167 17.2187 9.42846C17.1144 9.38524 17.0026 9.36299 16.8896 9.36299C16.7767 9.36299 16.6648 9.38524 16.5605 9.42846C16.4562 9.47167 16.3614 9.53502 16.2815 9.61488C16.2016 9.69474 16.1383 9.78955 16.0951 9.89388C16.0519 9.99822 16.0296 10.1101 16.0296 10.223H14.7796V9.24599C14.7836 9.13065 14.7642 9.0157 14.7228 8.90799C14.6814 8.80027 14.6187 8.702 14.5385 8.61902C14.4583 8.53603 14.3622 8.47004 14.256 8.42497C14.1497 8.3799 14.0355 8.35667 13.9201 8.35667C13.8047 8.35667 13.6905 8.3799 13.5842 8.42497C13.478 8.47004 13.3819 8.53603 13.3017 8.61902C13.2215 8.702 13.1588 8.80027 13.1174 8.90799C13.076 9.0157 13.0567 9.13065 13.0606 9.24599H11.8106V8.24599C11.816 8.12877 11.7978 8.01166 11.7573 7.90156C11.7167 7.79145 11.6545 7.69057 11.5744 7.60485C11.4943 7.51913 11.3978 7.4503 11.2907 7.40241C11.1836 7.35452 11.0679 7.32854 10.9506 7.32599C10.8574 7.32246 10.7645 7.34016 10.6791 7.37775C10.5937 7.41534 10.518 7.47184 10.4576 7.54299C10.3141 7.73119 10.2405 7.96348 10.2496 8.19999H8.99962V2.24599C8.96431 2.00157 8.84161 1.77823 8.65425 1.61735C8.46689 1.45646 8.22757 1.36894 7.98062 1.37099C7.88357 1.36765 7.787 1.38613 7.69805 1.42508C7.60909 1.46402 7.53 1.52242 7.46662 1.59599C7.31873 1.77927 7.24171 2.00962 7.24962 2.24499V12.429C7.24677 12.5823 7.19496 12.7307 7.10177 12.8525C7.00857 12.9743 6.87887 13.0631 6.73162 13.106C6.5728 13.1653 6.39945 13.1737 6.23565 13.13C6.07185 13.0862 5.92574 12.9926 5.81762 12.862L3.84562 10.218C3.71589 10.0411 3.52454 9.9194 3.30938 9.87682C3.09423 9.83423 2.87093 9.8739 2.68362 9.98799C2.47877 10.1143 2.33223 10.3166 2.27602 10.5506C2.21981 10.7846 2.25849 11.0314 2.38362 11.237L5.28962 16.055C5.75152 16.8557 6.41125 17.5245 7.20565 17.9973C8.00005 18.47 8.90251 18.7309 9.82662 18.755H12.4536C13.8784 18.7062 15.2282 18.1048 16.2174 17.0783C17.2066 16.0518 17.7576 14.6806 17.7536 13.255L17.7496 10.223Z" fill="#0F1A1C"/>
</g>
<defs>
<clipPath id="clip0_616_13">
<rect width="20" height="20" fill="white"/>
</clipPath>
</defs>
</svg>
