<svg width="20" height="20" viewBox="0 0 20 20" fill="none" xmlns="http://www.w3.org/2000/svg">
<path d="M1 3.625C1 2.92881 1.27656 2.26113 1.76885 1.76884C2.26113 1.27656 2.92881 1 3.625 1C4.32119 1 4.98887 1.27656 5.48116 1.76884C5.97344 2.26113 6.25 2.92881 6.25 3.625C6.24594 3.72181 6.23626 3.81831 6.221 3.914C6.9385 3.65141 7.71519 3.59495 8.46313 3.75101C9.21106 3.90706 9.90037 4.2694 10.453 4.797L12.21 6.379L10.871 7.864L9.076 6.247C8.89032 6.0564 8.66888 5.90426 8.42437 5.79929C8.17985 5.69431 7.91704 5.63856 7.65096 5.63522C7.38488 5.63187 7.12076 5.681 6.87368 5.7798C6.6266 5.8786 6.40142 6.02512 6.211 6.211C5.95444 6.46643 5.77226 6.78689 5.684 7.138L5.441 8.108L3.5 7.624L3.743 6.654C3.78118 6.50816 3.82758 6.36459 3.882 6.224C3.796 6.232 3.712 6.25 3.624 6.25C2.92831 6.24868 2.2615 5.97166 1.76966 5.47963C1.27782 4.98761 1.00106 4.3207 1 3.625ZM13.789 6.211C13.9754 6.39621 14.1231 6.61656 14.2237 6.85928C14.3243 7.102 14.3757 7.36226 14.375 7.625C14.3738 7.89634 14.3181 8.16467 14.2113 8.41408C14.1044 8.6635 13.9486 8.88893 13.753 9.077L12.136 10.871L13.621 12.21L15.2 10.454C15.7458 9.91306 16.1223 9.22498 16.2838 8.47369C16.4452 7.7224 16.3844 6.94037 16.109 6.223C16.1961 6.23655 16.2839 6.24556 16.372 6.25C16.8913 6.25059 17.3991 6.09714 17.8312 5.80907C18.2633 5.52099 18.6002 5.11123 18.7993 4.63162C18.9985 4.15202 19.0509 3.62413 18.9499 3.11473C18.849 2.60533 18.5992 2.13732 18.2322 1.76991C17.8652 1.40249 17.3975 1.15219 16.8882 1.05066C16.3789 0.949131 15.851 1.00094 15.3712 1.19953C14.8913 1.39812 14.4812 1.73457 14.1926 2.16632C13.904 2.59806 13.75 3.1057 13.75 3.625C13.7541 3.7114 13.7628 3.79752 13.776 3.883C13.6351 3.82858 13.4912 3.78217 13.345 3.744L12.374 3.5L11.892 5.441L12.862 5.683C13.2134 5.77121 13.5339 5.95379 13.789 6.211ZM16.375 13.75C16.287 13.75 16.203 13.768 16.117 13.776C16.1714 13.6354 16.2178 13.4918 16.256 13.346L16.499 12.376L14.559 11.892L14.316 12.862C14.2277 13.2131 14.0456 13.5336 13.789 13.789C13.5986 13.9749 13.3734 14.1214 13.1263 14.2202C12.8792 14.319 12.6151 14.3681 12.349 14.3648C12.083 14.3614 11.8202 14.3057 11.5756 14.2007C11.3311 14.0957 11.1097 13.9436 10.924 13.753L9.129 12.136L7.79 13.621L9.547 15.2C10.0878 15.7457 10.7757 16.1222 11.5268 16.2836C12.2779 16.445 13.0598 16.3844 13.777 16.109C13.7635 16.1961 13.7544 16.2839 13.75 16.372C13.75 16.8912 13.904 17.3987 14.1924 17.8304C14.4808 18.2621 14.8908 18.5985 15.3705 18.7972C15.8501 18.9959 16.3779 19.0478 16.8871 18.9466C17.3963 18.8453 17.864 18.5953 18.2312 18.2282C18.5983 17.861 18.8483 17.3933 18.9496 16.8841C19.0509 16.3749 18.9989 15.8471 18.8002 15.3675C18.6015 14.8878 18.2651 14.4778 17.8334 14.1894C17.4017 13.901 16.8942 13.747 16.375 13.747V13.75ZM6.211 13.789C6.02465 13.6038 5.8769 13.3834 5.77631 13.1407C5.67572 12.898 5.62429 12.6377 5.625 12.375C5.62622 12.1037 5.6819 11.8353 5.78874 11.5859C5.89559 11.3365 6.05142 11.1111 6.247 10.923L7.864 9.129L6.379 7.79L4.8 9.546C4.25422 10.0869 3.87765 10.775 3.71624 11.5263C3.55483 12.2776 3.61556 13.0596 3.891 13.777C3.80386 13.7635 3.71608 13.7544 3.628 13.75C3.1087 13.7494 2.60089 13.9029 2.16881 14.1909C1.73674 14.479 1.39982 14.8888 1.20068 15.3684C1.00154 15.848 0.949127 16.3759 1.05007 16.8853C1.15102 17.3947 1.40079 17.8627 1.76778 18.2301C2.13478 18.5975 2.6025 18.8478 3.11178 18.9493C3.62107 19.0509 4.14902 18.9991 4.62885 18.8005C5.10868 18.6019 5.51883 18.2654 5.8074 17.8337C6.09597 17.4019 6.25 16.8943 6.25 16.375C6.24589 16.2886 6.23722 16.2025 6.224 16.117C6.36493 16.1714 6.50883 16.2178 6.655 16.256L7.626 16.498L8.108 14.557L7.138 14.315C6.78686 14.2274 6.46633 14.0455 6.211 13.789Z" fill="#0F1A1C"/>
</svg>
