<svg width="20" height="20" viewBox="0 0 20 20" fill="none" xmlns="http://www.w3.org/2000/svg">
<g clip-path="url(#clip0_483_54)">
<path d="M16.1153 9.44072C15.9933 9.14659 15.8157 8.87871 15.5923 8.65172L11.2453 4.30472C11.0186 4.08301 10.7519 3.90623 10.4593 3.78372C10.6373 2.94312 11.0389 2.16616 11.6218 1.53487C12.2046 0.903568 12.9471 0.441353 13.7709 0.197015C14.5946 -0.0473234 15.4691 -0.0647189 16.3019 0.146665C17.1347 0.358048 17.895 0.790368 18.5025 1.39798C19.11 2.0056 19.5422 2.76597 19.7534 3.59883C19.9647 4.43168 19.9471 5.30612 19.7026 6.12982C19.4581 6.95353 18.9958 7.69595 18.3644 8.2787C17.733 8.86145 16.956 9.26292 16.1153 9.44072ZM14.9553 10.5047C14.9441 10.668 14.8978 10.8269 14.8196 10.9706C14.7415 11.1143 14.6333 11.2396 14.5023 11.3377L3.70034 19.4397C3.25457 19.7734 2.70347 19.9352 2.14806 19.8955C1.59265 19.8559 1.07015 19.6173 0.67635 19.2236C0.282553 18.83 0.0438455 18.3075 0.00398817 17.7521C-0.0358692 17.1967 0.125795 16.6456 0.459343 16.1997L8.55934 5.39972C8.65749 5.26919 8.78248 5.16122 8.92587 5.08306C9.06927 5.00491 9.22775 4.95839 9.39063 4.94664C9.55352 4.93489 9.71703 4.95818 9.87016 5.01495C10.0233 5.07171 10.1625 5.16063 10.2783 5.27572L14.6243 9.61972C14.7401 9.7346 14.8296 9.87319 14.8868 10.026C14.9439 10.1787 14.9673 10.3421 14.9553 10.5047ZM10.9833 9.97172L9.92834 8.91572L7.85234 10.9917L8.90734 12.0477L10.9833 9.97172Z" fill="#0F1A1C"/>
</g>
<defs>
<clipPath id="clip0_483_54">
<rect width="20" height="20" fill="white"/>
</clipPath>
</defs>
</svg>
