<svg width="20" height="20" viewBox="0 0 20 20" fill="none" xmlns="http://www.w3.org/2000/svg">
<g clip-path="url(#clip0_474_85)">
<path d="M19 17.411V17.893C18.9981 18.1878 18.8796 18.4698 18.6702 18.6773C18.4608 18.8847 18.1778 19.0008 17.883 19H2.119C1.82389 19.0013 1.54032 18.8855 1.33052 18.678C1.12072 18.4704 1.00185 18.1881 1 17.893V17.411C1.01874 15.6945 1.71762 14.0554 2.94332 12.8536C4.16902 11.6517 5.82142 10.9851 7.538 11H12.464C14.1802 10.9856 15.8321 11.6524 17.0574 12.8543C18.2827 14.0561 18.9813 15.6948 19 17.411ZM10 10C10.9889 10 11.9556 9.70675 12.7779 9.15735C13.6001 8.60794 14.241 7.82705 14.6194 6.91342C14.9978 5.99979 15.0969 4.99445 14.9039 4.02455C14.711 3.05464 14.2348 2.16373 13.5355 1.46447C12.8363 0.765204 11.9454 0.289 10.9755 0.0960739C10.0055 -0.0968522 9.00021 0.00216451 8.08658 0.380603C7.17295 0.759041 6.39206 1.3999 5.84265 2.22215C5.29324 3.04439 5 4.01109 5 5C5.00159 6.3256 5.52888 7.59644 6.46622 8.53378C7.40356 9.47112 8.67441 9.99841 10 10Z" fill="#0F1A1C"/>
</g>
<defs>
<clipPath id="clip0_474_85">
<rect width="20" height="20" fill="white"/>
</clipPath>
</defs>
</svg>
