<svg width="20" height="20" viewBox="0 0 20 20" fill="none" xmlns="http://www.w3.org/2000/svg">
<path d="M8.55785 12.558L9.44185 13.442L3.94185 18.942C3.55855 19.3197 3.04149 19.5306 2.50337 19.5287C1.96525 19.5267 1.44971 19.3122 1.06914 18.9317C0.688563 18.5513 0.473811 18.0358 0.471695 17.4977C0.46958 16.9596 0.680274 16.4425 1.05785 16.059L6.55785 10.559L6.99985 11L8.55785 12.558ZM19.5878 11.3C19.7986 11.0887 19.917 10.8025 19.917 10.504C19.917 10.2056 19.7986 9.91931 19.5878 9.70803L18.5278 8.64803C18.2846 8.40339 17.9952 8.20945 17.6764 8.07745C17.3576 7.94545 17.0159 7.878 16.6708 7.87903H15.7588L12.1248 4.24103V3.32803C12.1258 2.98318 12.0583 2.64157 11.9263 2.32298C11.7943 2.00439 11.6004 1.71516 11.3558 1.47203L10.2998 0.411028C10.0885 0.201083 9.80273 0.083252 9.50485 0.083252C9.20696 0.083252 8.92117 0.201083 8.70985 0.411028L7.45985 1.66103L18.3388 12.545L19.5878 11.3ZM2.93985 1.14903L5.45285 3.66303L3.41185 5.70003C3.20105 5.91131 3.08267 6.19757 3.08267 6.49603C3.08267 6.79448 3.20105 7.08075 3.41185 7.29203L4.47185 8.35203C4.71513 8.59667 5.00453 8.7906 5.32329 8.92261C5.64205 9.05461 5.98384 9.12205 6.32885 9.12103H7.24085L10.8748 12.755V13.668C10.8739 14.0129 10.9414 14.3545 11.0734 14.6731C11.2054 14.9917 11.3993 15.2809 11.6438 15.524L12.7048 16.585C12.916 16.7952 13.2019 16.9132 13.4998 16.9132C13.7978 16.9132 14.0837 16.7952 14.2948 16.585L16.3368 14.543L18.8508 17.057L19.7348 16.172L3.82385 0.265028L2.93985 1.14903Z" fill="#0F1A1C"/>
</svg>
