<svg width="20" height="20" viewBox="0 0 20 20" fill="none" xmlns="http://www.w3.org/2000/svg">
<path d="M16.375 2H3.625C3.19419 2.00053 2.78117 2.1719 2.47654 2.47654C2.1719 2.78117 2.00053 3.19419 2 3.625V16.375C2.00053 16.8058 2.1719 17.2188 2.47654 17.5235C2.78117 17.8281 3.19419 17.9995 3.625 18H16.375C16.8058 17.9995 17.2188 17.8281 17.5235 17.5235C17.8281 17.2188 17.9995 16.8058 18 16.375V3.625C17.9995 3.19419 17.8281 2.78117 17.5235 2.47654C17.2188 2.1719 16.8058 2.00053 16.375 2ZM13.536 10.5H6.464V9H13.536V10.5Z" fill="#0F1A1C"/>
</svg>
