<svg width="20" height="20" viewBox="0 0 20 20" fill="none" xmlns="http://www.w3.org/2000/svg">
<g clip-path="url(#clip0_472_1153)">
<path d="M11 18H12C12 18.5304 11.7893 19.0391 11.4142 19.4142C11.0391 19.7893 10.5304 20 10 20C9.46957 20 8.96086 19.7893 8.58579 19.4142C8.21072 19.0391 8 18.5304 8 18H11ZM17.263 10.93C16.8979 10.6835 16.5987 10.3514 16.3915 9.96269C16.1842 9.574 16.0752 9.14049 16.074 8.7L16.069 7.09C16.069 5.4804 15.4296 3.93672 14.2914 2.79857C13.1533 1.66041 11.6096 1.021 10 1.021C8.39041 1.021 6.84673 1.66041 5.70857 2.79857C4.57042 3.93672 3.931 5.4804 3.931 7.09V8.703C3.92883 9.14334 3.81899 9.57648 3.61105 9.96464C3.40311 10.3528 3.10339 10.6842 2.738 10.93C2.20196 11.2922 1.76312 11.7806 1.46006 12.3522C1.15701 12.9238 0.999024 13.561 1 14.208V14.88C0.999739 15.1766 1.11724 15.4612 1.32669 15.6712C1.53614 15.8812 1.8204 15.9995 2.117 16H17.883C18.1796 15.9995 18.4639 15.8812 18.6733 15.6712C18.8828 15.4612 19.0003 15.1766 19 14.88V14.208C19.0009 13.5612 18.843 12.924 18.5402 12.3525C18.2373 11.7809 17.7987 11.2925 17.263 10.93Z" fill="#0F1A1C"/>
</g>
<defs>
<clipPath id="clip0_472_1153">
<rect width="20" height="20" fill="white"/>
</clipPath>
</defs>
</svg>
