<svg width="20" height="20" viewBox="0 0 20 20" fill="none" xmlns="http://www.w3.org/2000/svg">
<path d="M7.4991 13.2048H8.9241V14.8178C8.92357 15.116 8.80487 15.4018 8.59401 15.6127C8.38315 15.8235 8.0973 15.9422 7.7991 15.9428H5.1991C4.90089 15.9422 4.61505 15.8235 4.40419 15.6127C4.19332 15.4018 4.07463 15.116 4.0741 14.8178V9.91077H1.0431C0.875683 9.9108 0.711775 9.86279 0.570824 9.77246C0.429873 9.68212 0.317797 9.55324 0.247894 9.40112C0.177991 9.249 0.153197 9.08002 0.176453 8.91422C0.199709 8.74843 0.270039 8.59279 0.379098 8.46577L5.6451 2.32277C5.75376 2.20442 5.88582 2.10992 6.03291 2.04528C6.18001 1.98064 6.33893 1.94727 6.4996 1.94727C6.66027 1.94727 6.81919 1.98064 6.96628 2.04528C7.11338 2.10992 7.24544 2.20442 7.3541 2.32277L9.9481 5.34877L5.9911 9.89177C5.73918 10.1812 5.57586 10.537 5.5206 10.9168C5.46534 11.2965 5.52048 11.6841 5.67945 12.0333C5.83842 12.3826 6.0945 12.6787 6.41714 12.8864C6.73979 13.0941 7.11538 13.2046 7.4991 13.2048ZM19.6201 10.5238L14.3541 4.37977C14.2454 4.26142 14.1134 4.16692 13.9663 4.10228C13.8192 4.03764 13.6603 4.00427 13.4996 4.00427C13.3389 4.00427 13.18 4.03764 13.0329 4.10228C12.8858 4.16692 12.7538 4.26142 12.6451 4.37977L7.3791 10.5228C7.27004 10.6498 7.19971 10.8054 7.17645 10.9712C7.1532 11.137 7.17799 11.306 7.24789 11.4581C7.3178 11.6102 7.42987 11.7391 7.57082 11.8295C7.71177 11.9198 7.87568 11.9678 8.0431 11.9678H11.0741V16.8748C11.0746 17.173 11.1933 17.4588 11.4042 17.6697C11.6151 17.8805 11.9009 17.9992 12.1991 17.9998H14.7991C15.0973 17.9992 15.3831 17.8805 15.594 17.6697C15.8049 17.4588 15.9236 17.173 15.9241 16.8748V11.9678H18.9561C19.1233 11.9676 19.287 11.9196 19.4278 11.8293C19.5685 11.739 19.6805 11.6103 19.7503 11.4583C19.8202 11.3064 19.8451 11.1376 19.822 10.972C19.7989 10.8064 19.7288 10.6508 19.6201 10.5238Z" fill="#0F1A1C"/>
</svg>
