<svg width="20" height="20" viewBox="0 0 20 20" fill="none" xmlns="http://www.w3.org/2000/svg">
<path d="M17.375 1H2.625C2.19419 1.00053 1.78117 1.1719 1.47654 1.47654C1.1719 1.78117 1.00053 2.19419 1 2.625V17.375C1.00053 17.8058 1.1719 18.2188 1.47654 18.5235C1.78117 18.8281 2.19419 18.9995 2.625 19H17.375C17.8058 18.9995 18.2188 18.8281 18.5235 18.5235C18.8281 18.2188 18.9995 17.8058 19 17.375V2.625C18.9995 2.19419 18.8281 1.78117 18.5235 1.47654C18.2188 1.1719 17.8058 1.00053 17.375 1ZM14 15H6V13H14V15ZM14 11H6V9H14V11ZM14 7H6V5H14V7Z" fill="#0F1A1C"/>
</svg>
