<svg width="20" height="20" viewBox="0 0 20 20" fill="none" xmlns="http://www.w3.org/2000/svg">
<path d="M17 14H19V17.875C18.9995 18.1732 18.8808 18.459 18.6699 18.6699C18.459 18.8808 18.1732 18.9995 17.875 19H14V17H17V14ZM3 14H1V17.875C1.00053 18.1732 1.11922 18.459 1.33009 18.6699C1.54095 18.8808 1.82679 18.9995 2.125 19H6V17H3V14ZM2.5 1H2.125C1.82679 1.00053 1.54095 1.11922 1.33009 1.33009C1.11922 1.54095 1.00053 1.82679 1 2.125V6H3V3H6V1H2.5ZM17.875 1H14V3H17V6H19V2.125C18.9995 1.82679 18.8808 1.54095 18.6699 1.33009C18.459 1.11922 18.1732 1.00053 17.875 1Z" fill="#0F1A1C"/>
</svg>
