<svg width="20" height="20" viewBox="0 0 20 20" fill="none" xmlns="http://www.w3.org/2000/svg">
<g clip-path="url(#clip0_616_24)">
<path d="M18.838 3.631C18.626 3.06737 18.2961 2.55552 17.8703 2.12972C17.4445 1.70392 16.9326 1.37398 16.369 1.162C12.263 -0.379974 7.73699 -0.379974 3.63098 1.162C3.06735 1.37398 2.5555 1.70392 2.1297 2.12972C1.7039 2.55552 1.37396 3.06737 1.16198 3.631C-0.387327 7.73533 -0.387327 12.2637 1.16198 16.368C1.37373 16.9319 1.70357 17.444 2.12939 17.87C2.55522 18.296 3.06719 18.626 3.63098 18.838C7.73564 20.3874 12.2643 20.3874 16.369 18.838C16.9327 18.6262 17.4446 18.2963 17.8705 17.8705C18.2963 17.4447 18.6262 16.9327 18.838 16.369C20.3874 12.2643 20.3874 7.73566 18.838 3.631ZM17.668 15.931C17.5187 16.328 17.2863 16.6885 16.9864 16.9884C16.6865 17.2883 16.326 17.5207 15.929 17.67C12.1067 19.106 7.89322 19.106 4.07098 17.67C3.67396 17.5205 3.31345 17.2879 3.01355 16.9878C2.71366 16.6877 2.48128 16.3271 2.33198 15.93C0.889338 12.1093 0.889338 7.89369 2.33198 4.073C2.48105 3.67565 2.71333 3.31475 3.01325 3.01448C3.31317 2.71422 3.6738 2.48153 4.07098 2.332C7.892 0.889291 12.108 0.889291 15.929 2.332C16.326 2.48131 16.6865 2.7137 16.9864 3.0136C17.2863 3.31351 17.5187 3.67402 17.668 4.071C19.1107 7.89202 19.1107 12.108 17.668 15.929V15.931Z" fill="#0F1A1C"/>
<path d="M14 9.392L8.11898 5.6C8.01013 5.52952 7.88437 5.48952 7.75481 5.48418C7.62524 5.47884 7.49661 5.50834 7.38233 5.56962C7.26805 5.6309 7.17229 5.7217 7.10504 5.83258C7.03779 5.94345 7.00151 6.07033 6.99998 6.2V13.8C7.00002 13.9303 7.03517 14.0581 7.10172 14.1701C7.16827 14.2821 7.26377 14.3741 7.37817 14.4364C7.49257 14.4987 7.62166 14.5291 7.75184 14.5243C7.88203 14.5194 8.00851 14.4796 8.11798 14.409L14 10.608C14.0962 10.5368 14.1759 10.4456 14.2333 10.3406C14.2908 10.2356 14.3248 10.1194 14.333 10C14.3248 9.88058 14.2908 9.76436 14.2333 9.65938C14.1759 9.5544 14.0962 9.46317 14 9.392ZM8.24998 12.833V7.167L12.64 10L8.24998 12.833Z" fill="#0F1A1C"/>
</g>
<defs>
<clipPath id="clip0_616_24">
<rect width="20" height="20" fill="white"/>
</clipPath>
</defs>
</svg>
