<svg width="20" height="20" viewBox="0 0 20 20" fill="none" xmlns="http://www.w3.org/2000/svg">
<path d="M12.942 10.942L10.884 13L12.942 15.058L12.058 15.942L10 13.884L7.942 15.942L7.058 15.058L9.116 13L7.058 10.942L7.942 10.058L10 12.116L12.058 10.058L12.942 10.942ZM19 3.625V16.405C18.9987 17.0937 18.7242 17.7537 18.2367 18.2402C17.7493 18.7268 17.0887 19 16.4 19H3.6C2.9113 19 2.25074 18.7268 1.76329 18.2402C1.27584 17.7537 1.00132 17.0937 1 16.405V3.625C1.00106 2.92913 1.27796 2.26207 1.77001 1.77001C2.26207 1.27796 2.92913 1.00106 3.625 1H16.375C17.0709 1.00106 17.7379 1.27796 18.23 1.77001C18.722 2.26207 18.9989 2.92913 19 3.625ZM17.75 16.405V7.851C17.3381 8.11041 16.8617 8.249 16.375 8.251H3.625C3.13826 8.249 2.66186 8.11041 2.25 7.851V16.405C2.25079 16.7623 2.39344 17.1047 2.64659 17.3569C2.89973 17.6092 3.24266 17.7505 3.6 17.75H16.4C16.7573 17.7505 17.1003 17.6092 17.3534 17.3569C17.6066 17.1047 17.7492 16.7623 17.75 16.405ZM17.75 5.074V3.625C17.7495 3.26049 17.6044 2.91106 17.3467 2.65331C17.0889 2.39556 16.7395 2.25053 16.375 2.25H3.625C3.26049 2.25053 2.91106 2.39556 2.65331 2.65331C2.39556 2.91106 2.25053 3.26049 2.25 3.625V5.625C2.25053 5.98951 2.39556 6.33894 2.65331 6.59669C2.91106 6.85444 3.26049 6.99947 3.625 7H16.375C16.7395 6.99947 17.0889 6.85444 17.3467 6.59669C17.6044 6.33894 17.7495 5.98951 17.75 5.625V5.074Z" fill="#0F1A1C"/>
</svg>
