<svg width="20" height="20" viewBox="0 0 20 20" fill="none" xmlns="http://www.w3.org/2000/svg">
<path d="M5.013 13.8779L9.913 15.2119V16.7869C9.91274 17.0844 9.79444 17.3697 9.58408 17.58C9.37372 17.7904 9.08849 17.9087 8.791 17.9089H6.134C5.83668 17.9084 5.55171 17.79 5.34156 17.5797C5.13142 17.3693 5.01326 17.0842 5.013 16.7869V13.8779ZM15.175 13.1109C14.906 13.6349 14.687 13.7499 14.625 13.7499C14.225 13.7499 13.25 11.9099 13.25 8.49993C13.25 5.08993 14.226 3.24993 14.625 3.24993C14.687 3.24993 14.906 3.36493 15.175 3.88893L15.459 4.44493L16.572 3.87493L16.287 3.31893C15.746 2.26293 15.118 2.01893 14.669 2.00293H14.625C14.3568 2.00579 14.0951 2.08563 13.871 2.23293L3.7 5.85193C2.787 5.29993 1.855 4.86193 1.092 5.27293C0.237 5.73393 0.044 6.97993 0 8.99993C0.047 10.9999 0.24 12.2449 1.093 12.6999C1.876 13.1229 2.847 12.6399 3.793 12.0629C4.551 12.3229 6.042 12.7209 8.968 13.5019L14.042 14.8569C14.2253 14.9446 14.4258 14.9907 14.629 14.9919C15.079 14.9919 15.729 14.7619 16.29 13.6729L16.575 13.1169L15.462 12.5469L15.175 13.1109ZM16 7.99993V9.24993H19.25V7.99993H16ZM16.389 6.41393L19.208 4.81993L18.593 3.73193L15.773 5.32593L16.389 6.41393ZM15.773 11.6739L18.593 13.2679L19.208 12.1799L16.389 10.5859L15.773 11.6739Z" fill="#0F1A1C"/>
</svg>
