<svg width="20" height="20" viewBox="0 0 20 20" fill="none" xmlns="http://www.w3.org/2000/svg">
<path d="M17.626 1.744C17.4517 1.5014 17.2309 1.29586 16.9765 1.13929C16.7221 0.982733 16.4391 0.878281 16.144 0.832005C15.5794 0.730258 14.9973 0.850208 14.519 1.16688C14.0406 1.48355 13.7029 1.97253 13.576 2.53201L12.752 6.038L11.613 1.848C11.4958 1.42805 11.2605 1.05058 10.9351 0.760484C10.6096 0.470392 10.2076 0.279888 9.77703 0.21163C9.34641 0.143373 8.90525 0.200233 8.50602 0.375449C8.10679 0.550666 7.76628 0.836864 7.525 1.2C7.37607 1.42925 7.27503 1.68623 7.22794 1.95552C7.18086 2.2248 7.1887 2.50083 7.251 2.767L8 5.987C7.85668 5.95646 7.71054 5.94104 7.564 5.941H7.343C6.9409 5.94215 6.54739 6.0574 6.20822 6.27337C5.86904 6.48934 5.59814 6.79714 5.427 7.161C5.10015 6.96236 4.72547 6.85625 4.343 6.854H4.125C3.56166 6.8548 3.02162 7.07894 2.62327 7.47728C2.22493 7.87562 2.00079 8.41566 2 8.979V13.226C2.06217 15.0346 2.83615 16.7454 4.1535 17.9862C5.47084 19.2269 7.22493 19.8972 9.034 19.851L9.719 19.859H9.726C9.745 19.859 9.762 19.849 9.782 19.848C11.5666 19.86 13.2854 19.1751 14.5728 17.9391C15.8601 16.7031 16.6143 15.0136 16.675 13.23V10.28L17.97 3.3C18.0201 3.03084 18.0155 2.75433 17.9564 2.48699C17.8973 2.21965 17.7849 1.96696 17.626 1.744ZM6.469 8.979V8.066C6.469 7.83421 6.56108 7.6119 6.72499 7.44799C6.8889 7.28409 7.1112 7.192 7.343 7.192H7.562C7.79372 7.19227 8.01587 7.28444 8.17972 7.44829C8.34357 7.61213 8.43574 7.83429 8.436 8.066V9.342C8.10037 9.5763 7.83211 9.89456 7.658 10.265C7.44865 10.7237 7.40105 11.2398 7.523 11.729H7.343C7.11111 11.7287 6.88881 11.6364 6.72493 11.4724C6.56105 11.3083 6.469 11.0859 6.469 10.854V8.979ZM3.251 8.979C3.25153 8.74737 3.34378 8.52537 3.50757 8.36158C3.67136 8.19778 3.89336 8.10553 4.125 8.105H4.343C4.57464 8.10553 4.79664 8.19778 4.96043 8.36158C5.12422 8.52537 5.21647 8.74737 5.217 8.979V11.767C5.21674 11.9988 5.1246 12.2211 4.96078 12.3851C4.79696 12.5491 4.57481 12.6415 4.343 12.642H4.125C3.89319 12.6415 3.67104 12.5491 3.50722 12.3851C3.3434 12.2211 3.25126 11.9988 3.251 11.767V8.979ZM9.632 18.605H9.619L9.043 18.6C7.64856 18.6387 6.28894 18.1612 5.22486 17.2591C4.16078 16.3571 3.46716 15.094 3.277 13.712C3.54412 13.8302 3.83291 13.8915 4.125 13.892H4.343C4.74518 13.8907 5.13871 13.7752 5.47788 13.5591C5.81704 13.3429 6.08791 13.035 6.259 12.671C6.58563 12.8702 6.96045 12.9763 7.343 12.978H7.562C7.77556 12.9772 7.98773 12.9435 8.191 12.878C8.41831 13.0923 8.68393 13.262 8.974 13.378L11.647 14.442C11.7209 14.471 11.7996 14.4859 11.879 14.486C12.0219 14.4829 12.1594 14.4309 12.2686 14.3387C12.3778 14.2465 12.4521 14.1196 12.4791 13.9793C12.5061 13.8389 12.4842 13.6936 12.4171 13.5674C12.3499 13.4413 12.2415 13.3419 12.11 13.286L9.436 12.217C9.28806 12.1613 9.15304 12.076 9.03922 11.9663C8.92539 11.8566 8.83514 11.7248 8.774 11.579C8.72322 11.4524 8.69889 11.3167 8.7025 11.1803C8.70611 11.044 8.73759 10.9098 8.795 10.786C8.94294 10.4991 9.19375 10.2786 9.49727 10.1686C9.80079 10.0587 10.1346 10.0674 10.432 10.193L14.689 11.887C14.8575 11.9498 15.0088 12.0516 15.1304 12.184C15.2521 12.3164 15.3407 12.4758 15.389 12.649C15.3982 12.6713 15.4089 12.6931 15.421 12.714V13.23C15.3588 14.7079 14.7158 16.1015 13.6318 17.108C12.5478 18.1144 11.1104 18.6524 9.632 18.605ZM15.306 10.805C15.253 10.779 15.206 10.744 15.152 10.722L10.9 9.032C10.5972 8.91233 10.2746 8.85059 9.949 8.85001L8.468 2.481C8.44423 2.37755 8.44163 2.27035 8.46036 2.16586C8.47909 2.06138 8.51877 1.96176 8.577 1.873C8.64934 1.76342 8.7432 1.66969 8.85287 1.59749C8.96254 1.52529 9.08575 1.47613 9.215 1.453C9.46485 1.39109 9.72902 1.42976 9.95065 1.56068C10.1723 1.69159 10.3336 1.9043 10.4 2.15301L12.154 8.60001L12.334 9.08601L13.334 9.032L14.8 2.78501C14.8607 2.54026 15.0139 2.32857 15.2274 2.19448C15.441 2.06038 15.6982 2.01433 15.945 2.066C16.076 2.08563 16.2018 2.1311 16.3151 2.19977C16.4284 2.26844 16.527 2.35894 16.605 2.46601C16.6663 2.55202 16.71 2.64932 16.7335 2.7523C16.757 2.85528 16.7599 2.9619 16.742 3.066L15.306 10.805Z" fill="#0F1A1C"/>
</svg>
