<svg width="20" height="20" viewBox="0 0 20 20" fill="none" xmlns="http://www.w3.org/2000/svg">
<path d="M16.8899 8.09999C16.5234 8.09929 16.1632 8.19555 15.8459 8.37899C15.6806 8.00611 15.4108 7.68907 15.0692 7.46619C14.7276 7.2433 14.3288 7.1241 13.9209 7.12299C13.5633 7.12239 13.2117 7.214 12.8999 7.38899C12.7413 7.00207 12.4714 6.67094 12.1244 6.43755C11.7775 6.20416 11.369 6.07902 10.9509 6.07799C10.7118 6.07688 10.4746 6.11959 10.2509 6.20399V2.24599C10.2168 1.66857 9.96247 1.12624 9.54029 0.730854C9.11811 0.335464 8.56029 0.117169 7.98188 0.12099C7.71041 0.124609 7.44248 0.183131 7.19423 0.293033C6.94597 0.402934 6.72253 0.561942 6.53735 0.760481C6.35217 0.95902 6.20909 1.19298 6.11672 1.44828C6.02435 1.70358 5.98461 1.97493 5.99988 2.24599V11.016L4.84788 9.47099C4.53238 9.04494 4.06908 8.75214 3.54886 8.65002C3.02864 8.5479 2.48903 8.64383 2.03588 8.91899C1.54768 9.21705 1.19743 9.69635 1.06174 10.252C0.92606 10.8077 1.016 11.3945 1.31188 11.884L4.21988 16.7C4.7938 17.6836 5.61049 18.5035 6.59183 19.0813C7.57318 19.659 8.68635 19.9754 9.82488 20H12.4559C14.2173 19.9661 15.8939 19.2369 17.1198 17.9717C18.3458 16.7064 19.0216 15.0076 18.9999 13.246V10.223C19.0009 9.66186 18.7794 9.12322 18.3838 8.72522C17.9883 8.32722 17.451 8.10237 16.8899 8.09999ZM3.24388 4.69999C2.9162 4.01302 2.74736 3.2611 2.74988 2.49999C2.74736 1.73888 2.9162 0.986958 3.24388 0.299991L4.37288 0.83999C4.12547 1.35829 3.99798 1.92567 3.99988 2.49999C3.99798 3.07431 4.12547 3.64169 4.37288 4.15999L3.24388 4.69999ZM11.6269 4.16299C11.8747 3.64378 12.0022 3.07533 11.9999 2.49999C12.0018 1.92567 11.8743 1.35829 11.6269 0.83999L12.7559 0.299991C13.0836 0.986958 13.2524 1.73888 13.2499 2.49999C13.2524 3.2611 13.0836 4.01302 12.7559 4.69999L11.6269 4.16299Z" fill="#0F1A1C"/>
</svg>
