<svg width="21" height="20" viewBox="0 0 21 20" fill="none" xmlns="http://www.w3.org/2000/svg">
<path d="M17.1153 9.4412C16.9933 9.14708 16.8157 8.8792 16.5923 8.6522L12.2453 4.3052C12.0186 4.0835 11.7519 3.90672 11.4593 3.7842C11.6373 2.94361 12.0389 2.16665 12.6218 1.53535C13.2046 0.904056 13.9471 0.441841 14.7709 0.197503C15.5946 -0.0468351 16.4691 -0.0642306 17.3019 0.147153C18.1347 0.358536 18.895 0.790856 19.5025 1.39847C20.11 2.00609 20.5422 2.76646 20.7534 3.59931C20.9647 4.43217 20.9471 5.30661 20.7026 6.13031C20.4581 6.95402 19.9958 7.69644 19.3644 8.27919C18.733 8.86194 17.956 9.26341 17.1153 9.4412ZM15.9553 10.5052C15.9441 10.6684 15.8978 10.8273 15.8196 10.9711C15.7415 11.1148 15.6333 11.24 15.5023 11.3382L4.70034 19.4402C4.25457 19.7739 3.70347 19.9357 3.14806 19.896C2.59265 19.8564 2.07015 19.6178 1.67635 19.2241C1.28255 18.8305 1.04385 18.308 1.00399 17.7526C0.964131 17.1972 1.12579 16.6461 1.45934 16.2002L9.55934 5.4002C9.65749 5.26968 9.78248 5.16171 9.92587 5.08355C10.0693 5.0054 10.2277 4.95888 10.3906 4.94713C10.5535 4.93538 10.717 4.95867 10.8702 5.01544C11.0233 5.0722 11.1625 5.16112 11.2783 5.2762L15.6243 9.6202C15.7401 9.73509 15.8296 9.87368 15.8868 10.0264C15.9439 10.1792 15.9673 10.3425 15.9553 10.5052ZM11.9833 9.9722L10.9283 8.9162L8.85234 10.9922L9.90734 12.0482L11.9833 9.9722Z" fill="#0F1A1C"/>
</svg>
