<svg width="20" height="20" viewBox="0 0 20 20" fill="none" xmlns="http://www.w3.org/2000/svg">
<path d="M16.375 18H3.625C3.19419 17.9995 2.78117 17.8281 2.47654 17.5235C2.1719 17.2188 2.00053 16.8058 2 16.375V3.625C2.00053 3.19419 2.1719 2.78117 2.47654 2.47654C2.78117 2.1719 3.19419 2.00053 3.625 2H16.375C16.8058 2.00053 17.2188 2.1719 17.5235 2.47654C17.8281 2.78117 17.9995 3.19419 18 3.625V16.375C17.9995 16.8058 17.8281 17.2188 17.5235 17.5235C17.2188 17.8281 16.8058 17.9995 16.375 18ZM3.625 3.25C3.52554 3.25 3.43016 3.28951 3.35983 3.35983C3.28951 3.43016 3.25 3.52554 3.25 3.625V16.375C3.25 16.4745 3.28951 16.5698 3.35983 16.6402C3.43016 16.7105 3.52554 16.75 3.625 16.75H16.375C16.4745 16.75 16.5698 16.7105 16.6402 16.6402C16.7105 16.5698 16.75 16.4745 16.75 16.375V3.625C16.75 3.52554 16.7105 3.43016 16.6402 3.35983C16.5698 3.28951 16.4745 3.25 16.375 3.25H3.625Z" fill="#0F1A1C"/>
</svg>
