<svg width="20" height="20" viewBox="0 0 20 20" fill="none" xmlns="http://www.w3.org/2000/svg">
<path d="M18.154 2.1L10.27 0.108C10.0927 0.0639984 9.90731 0.0639984 9.73 0.108L1.846 2.1C1.60422 2.16136 1.38978 2.30155 1.23657 2.4984C1.08336 2.69525 1.00012 2.93755 1 3.187V12C1 17.277 8.249 19.554 9.7 19.957C9.79766 19.9845 9.89854 19.999 10 20C10.1013 19.9998 10.2022 19.9864 10.3 19.96C11.753 19.56 19 17.28 19 12.003V3.187C18.9999 2.93755 18.9166 2.69525 18.7634 2.4984C18.6102 2.30155 18.3958 2.16136 18.154 2.1Z" fill="#0F1A1C"/>
</svg>
