<svg width="20" height="20" viewBox="0 0 20 20" fill="none" xmlns="http://www.w3.org/2000/svg">
<g clip-path="url(#clip0_474_28)">
<path d="M6.75 10C6.75106 10.8616 7.09381 11.6877 7.70307 12.2969C8.31234 12.9062 9.13837 13.2489 10 13.25C10.6016 13.2484 11.1906 13.0779 11.7 12.758L7.242 8.3C6.92209 8.80944 6.75163 9.39845 6.75 10Z" fill="#0F1A1C"/>
<path d="M18.154 2.1L10.271 0.109C10.0935 0.0639627 9.90752 0.0639627 9.73 0.109L1.846 2.1C1.60422 2.16136 1.38978 2.30155 1.23657 2.4984C1.08336 2.69525 1.00012 2.93755 1 3.187V12C1 17.277 8.249 19.554 9.7 19.957C9.79766 19.9845 9.89854 19.999 10 20C10.1013 19.9998 10.2022 19.9864 10.3 19.96C11.753 19.56 19 17.28 19 12.003V3.187C18.9999 2.93755 18.9166 2.69525 18.7634 2.4984C18.6102 2.30155 18.3958 2.16136 18.154 2.1ZM10 14.75C9.06054 14.75 8.14218 14.4714 7.36104 13.9495C6.57991 13.4275 5.97109 12.6857 5.61157 11.8177C5.25206 10.9498 5.15799 9.99473 5.34127 9.07332C5.52455 8.15191 5.97694 7.30554 6.64124 6.64124C7.30554 5.97694 8.15191 5.52455 9.07332 5.34127C9.99473 5.15799 10.9498 5.25206 11.8177 5.61157C12.6857 5.97109 13.4275 6.57991 13.9495 7.36104C14.4714 8.14217 14.75 9.06054 14.75 10C14.7484 11.2593 14.2475 12.4665 13.357 13.357C12.4665 14.2475 11.2593 14.7484 10 14.75Z" fill="#0F1A1C"/>
<path d="M10 6.75C9.39845 6.75163 8.80944 6.92209 8.3 7.242L12.758 11.7C13.0779 11.1906 13.2484 10.6016 13.25 10C13.2489 9.13837 12.9062 8.31234 12.2969 7.70307C11.6877 7.09381 10.8616 6.75106 10 6.75Z" fill="#0F1A1C"/>
</g>
<defs>
<clipPath id="clip0_474_28">
<rect width="20" height="20" fill="white"/>
</clipPath>
</defs>
</svg>
