<svg width="20" height="20" viewBox="0 0 20 20" fill="none" xmlns="http://www.w3.org/2000/svg">
<path d="M19.7809 14.606C19.7037 14.426 19.5754 14.2726 19.4118 14.1649C19.2483 14.0572 19.0567 13.9998 18.8609 14H16.9999V8.5C17.0617 6.57838 16.36 4.71049 15.0481 3.30495C13.7363 1.89942 11.9212 1.07066 9.99986 1C8.07855 1.07066 6.26343 1.89942 4.9516 3.30495C3.63976 4.71049 2.93801 6.57838 2.99986 8.5V14H1.13886C0.943101 14 0.751634 14.0574 0.588201 14.1651C0.424769 14.2729 0.29656 14.4263 0.219471 14.6062C0.142382 14.7862 0.119805 14.9848 0.154538 15.1774C0.189271 15.3701 0.279787 15.5483 0.414863 15.69L3.27586 18.69C3.36926 18.788 3.48158 18.8661 3.60604 18.9194C3.73049 18.9727 3.86447 19.0002 3.99986 19.0002C4.13526 19.0002 4.26924 18.9727 4.39369 18.9194C4.51814 18.8661 4.63047 18.788 4.72386 18.69L7.58486 15.69C7.71994 15.5483 7.81045 15.3701 7.84519 15.1774C7.87992 14.9848 7.85734 14.7862 7.78026 14.6062C7.70317 14.4263 7.57496 14.2729 7.41152 14.1651C7.24809 14.0574 7.05662 14 6.86086 14H4.99986V8.5C4.93838 7.10885 5.42957 5.74984 6.36628 4.71947C7.30298 3.68909 8.60917 3.07099 9.99986 3C11.3906 3.07099 12.6967 3.68909 13.6334 4.71947C14.5702 5.74984 15.0613 7.10885 14.9999 8.5V14H13.1389C12.9431 14 12.7516 14.0574 12.5882 14.1651C12.4248 14.2729 12.2966 14.4263 12.2195 14.6062C12.1424 14.7862 12.1198 14.9848 12.1545 15.1774C12.1893 15.3701 12.2798 15.5483 12.4149 15.69L15.2759 18.69C15.3693 18.788 15.4816 18.8661 15.606 18.9194C15.7305 18.9727 15.8645 19.0002 15.9999 19.0002C16.1353 19.0002 16.2692 18.9727 16.3937 18.9194C16.5181 18.8661 16.6305 18.788 16.7239 18.69L19.5849 15.69C19.7201 15.5484 19.8107 15.3701 19.8456 15.1774C19.8804 14.9847 19.8579 14.786 19.7809 14.606Z" fill="#0F1A1C"/>
</svg>
