<svg width="20" height="20" viewBox="0 0 20 20" fill="none" xmlns="http://www.w3.org/2000/svg">
<g clip-path="url(#clip0_473_85)">
<path d="M10.625 16.9701V18.7501H12.425V20.0001H7.58V18.7501H9.38V16.9701C7.68411 16.8688 6.08787 16.1352 4.90663 14.9141C3.72538 13.6931 3.04504 12.0734 3 10.3751H4.25C4.30295 11.8493 4.93767 13.2424 6.01528 14.2497C7.09288 15.2571 8.52562 15.7965 10 15.7501C11.4744 15.7965 12.9071 15.2571 13.9847 14.2497C15.0623 13.2424 15.697 11.8493 15.75 10.3751H17C16.9551 12.0726 16.2754 13.6916 15.0952 14.9125C13.915 16.1334 12.32 16.8676 10.625 16.9701ZM6 9.9481V5.0481C6 3.98723 6.42143 2.96981 7.17157 2.21967C7.92172 1.46952 8.93913 1.0481 10 1.0481C11.0609 1.0481 12.0783 1.46952 12.8284 2.21967C13.5786 2.96981 14 3.98723 14 5.0481V9.9481C14 11.009 13.5786 12.0264 12.8284 12.7765C12.0783 13.5267 11.0609 13.9481 10 13.9481C8.93913 13.9481 7.92172 13.5267 7.17157 12.7765C6.42143 12.0264 6 11.009 6 9.9481ZM7.25 9.9481C7.25 10.6774 7.53973 11.3769 8.05546 11.8926C8.57118 12.4084 9.27065 12.6981 10 12.6981C10.7293 12.6981 11.4288 12.4084 11.9445 11.8926C12.4603 11.3769 12.75 10.6774 12.75 9.9481V5.0481C12.75 4.31875 12.4603 3.61928 11.9445 3.10355C11.4288 2.58783 10.7293 2.2981 10 2.2981C9.27065 2.2981 8.57118 2.58783 8.05546 3.10355C7.53973 3.61928 7.25 4.31875 7.25 5.0481V9.9481Z" fill="#0F1A1C"/>
</g>
<defs>
<clipPath id="clip0_473_85">
<rect width="20" height="20" fill="white"/>
</clipPath>
</defs>
</svg>
