<svg width="20" height="20" viewBox="0 0 20 20" fill="none" xmlns="http://www.w3.org/2000/svg">
<path d="M19.331 9.39199H17.259C16.9745 8.3724 16.4255 7.44611 15.6678 6.70696C14.91 5.96782 13.9704 5.44208 12.944 5.18299V6.28299C12.9439 6.39703 12.9113 6.50867 12.85 6.60484C12.7887 6.701 12.7013 6.77772 12.598 6.82599C12.5185 6.86329 12.4318 6.88242 12.344 6.88199C12.2034 6.8818 12.0673 6.83265 11.959 6.74299L9.036 4.31099L9 3.99999C8.99998 3.91177 9.01941 3.82462 9.05692 3.74477C9.09443 3.66491 9.14909 3.59431 9.217 3.53799L11.959 1.25199C12.0466 1.17871 12.1533 1.13195 12.2665 1.1172C12.3798 1.10246 12.4949 1.12034 12.5983 1.16876C12.7018 1.21717 12.7892 1.29409 12.8505 1.3905C12.9117 1.48691 12.9442 1.59879 12.944 1.71299V3.13699C14.5094 3.42755 15.9528 4.17762 17.0903 5.2916C18.2278 6.40558 19.0078 7.83302 19.331 9.39199ZM6.959 6.74699C7.06729 6.83665 7.20341 6.8858 7.344 6.88599C7.43245 6.88672 7.51993 6.86758 7.6 6.82999C7.70331 6.78172 7.79073 6.705 7.85201 6.60884C7.91328 6.51267 7.94589 6.40103 7.946 6.28699V1.71299C7.94615 1.59879 7.91371 1.48691 7.85248 1.3905C7.79125 1.29409 7.70377 1.21717 7.60034 1.16876C7.4969 1.12034 7.38179 1.10246 7.26854 1.1172C7.15529 1.13195 7.04859 1.17871 6.961 1.25199L4.217 3.53799C4.14909 3.59431 4.09443 3.66491 4.05692 3.74477C4.01941 3.82462 3.99998 3.91177 4 3.99999L4.036 4.31099L6.959 6.74699ZM4.182 13.41L5.822 12.684V18.906H7.738V10.27H7.17L4.182 11.635V13.41ZM12.625 19C13.2249 19.0161 13.816 18.8525 14.3224 18.5304C14.8287 18.2083 15.2273 17.7422 15.467 17.192C15.7583 16.5353 15.9004 15.8222 15.883 15.104V14.125C15.9004 13.399 15.7584 12.6781 15.467 12.013C15.2222 11.4556 14.821 10.9811 14.312 10.647C13.8054 10.3288 13.2171 10.1651 12.619 10.176C12.0208 10.1622 11.4318 10.3253 10.926 10.645C10.4133 10.9801 10.0084 11.4562 9.76 12.016C9.46513 12.6791 9.32101 13.3994 9.338 14.125V15.1C9.32121 15.8149 9.46436 16.5245 9.757 17.177C10.0007 17.7308 10.4034 18.1997 10.914 18.5243C11.4246 18.8488 12.0201 19.0144 12.625 19ZM12.631 17.342C12.427 17.3524 12.2237 17.3095 12.0414 17.2175C11.859 17.1254 11.7037 16.9874 11.591 16.817C11.3335 16.3894 11.2098 15.8945 11.236 15.396V13.785C11.2004 13.272 11.3289 12.761 11.603 12.326C11.7215 12.1651 11.8778 12.036 12.0582 11.9502C12.2386 11.8643 12.4375 11.8244 12.637 11.834C12.8311 11.8243 13.0245 11.8638 13.1993 11.9487C13.3741 12.0337 13.5247 12.1614 13.637 12.32C13.8973 12.7623 14.0176 13.273 13.982 13.785V15.4C14.0161 15.9091 13.8936 16.4165 13.631 16.854C13.5186 17.0127 13.3681 17.1406 13.1934 17.2258C13.0186 17.3111 12.8252 17.3511 12.631 17.342Z" fill="#0F1A1C"/>
</svg>
