<svg width="20" height="20" viewBox="0 0 20 20" fill="none" xmlns="http://www.w3.org/2000/svg">
<g clip-path="url(#clip0_473_119)">
<path d="M17.547 5.239C17.5491 5.92743 17.4145 6.60943 17.151 7.24543C16.8875 7.88144 16.5004 8.45879 16.012 8.944C15.57 9.385 15.154 9.81 14.738 10.233C14.3 10.68 13.862 11.126 13.396 11.592C12.6301 12.3655 11.6399 12.8778 10.5661 13.0561C9.49234 13.2344 8.38968 13.0695 7.41498 12.585L8.98498 11.015C9.51535 11.1337 10.0669 11.1194 10.5903 10.9731C11.1138 10.8269 11.5929 10.5534 11.985 10.177C12.446 9.716 12.885 9.277 13.314 8.833C13.743 8.389 14.154 7.976 14.601 7.533C14.9019 7.23238 15.1406 6.87539 15.3035 6.48246C15.4663 6.08953 15.5502 5.66835 15.5502 5.243C15.5502 4.81765 15.4663 4.39647 15.3035 4.00354C15.1406 3.61061 14.9019 3.25362 14.601 2.953C14.3004 2.65209 13.9434 2.41338 13.5504 2.25051C13.1575 2.08764 12.7363 2.00381 12.311 2.00381C11.8856 2.00381 11.4645 2.08764 11.0715 2.25051C10.6786 2.41338 10.3216 2.65209 10.021 2.953C9.56498 3.407 9.13798 3.843 8.70998 4.279C8.28198 4.715 7.85398 5.144 7.39998 5.6C7.37198 5.629 7.35298 5.663 7.32498 5.692L7.36298 5.556L4.50698 8.432C4.42034 7.65817 4.50832 6.87476 4.76445 6.13943C5.02058 5.40409 5.43834 4.73555 5.98698 4.183C6.43698 3.734 6.85798 3.304 7.27998 2.874C7.70198 2.444 8.14498 1.993 8.60398 1.534C9.58644 0.551823 10.9188 6.48499e-05 12.308 6.48499e-05C13.6972 6.48499e-05 15.0295 0.551823 16.012 1.534C16.5004 2.01921 16.8875 2.59656 17.151 3.23257C17.4145 3.86857 17.5491 4.55057 17.547 5.239ZM12.783 14.181C12.721 14.255 12.668 14.336 12.599 14.405C12.152 14.852 11.731 15.281 11.312 15.705C10.893 16.129 10.444 16.588 9.98298 17.049C9.36592 17.6381 8.5456 17.9668 7.69248 17.9668C6.83936 17.9668 6.01904 17.6381 5.40198 17.049C4.79597 16.4409 4.45568 15.6175 4.45568 14.759C4.45568 13.9005 4.79597 13.0771 5.40198 12.469C5.85498 12.016 6.28198 11.581 6.70798 11.147C7.13398 10.713 7.56298 10.275 8.01898 9.821C8.40486 9.42914 8.88574 9.14403 9.41469 8.99347C9.94364 8.84292 10.5026 8.83208 11.037 8.962L12.573 7.407C11.5992 6.92608 10.4987 6.76386 9.42751 6.94335C8.35635 7.12283 7.36885 7.63491 6.60498 8.407C6.14598 8.866 5.71298 9.307 5.28098 9.747C4.84898 10.187 4.43798 10.607 3.98798 11.056C3.00535 12.0389 2.45343 13.3719 2.45361 14.7617C2.4538 16.1515 3.00609 17.4844 3.98898 18.467C4.97187 19.4496 6.30486 20.0016 7.69469 20.0014C9.08452 20.0012 10.4174 19.4489 11.4 18.466C11.866 18 12.3 17.554 12.742 17.107C13.158 16.684 13.574 16.259 14.016 15.818C14.5038 15.3334 14.8906 14.7568 15.1541 14.1217C15.4175 13.4866 15.5525 12.8056 15.551 12.118C15.5433 11.8985 15.5219 11.6798 15.487 11.463L12.783 14.181Z" fill="#0F1A1C"/>
</g>
<defs>
<clipPath id="clip0_473_119">
<rect width="20" height="20" fill="white"/>
</clipPath>
</defs>
</svg>
