<svg width="20" height="20" viewBox="0 0 20 20" fill="none" xmlns="http://www.w3.org/2000/svg">
<g clip-path="url(#clip0_472_1155)">
<path d="M7.11815 3.53801L5.58815 2.00801C6.43553 2.00633 7.27236 2.19591 8.03628 2.56263C8.8002 2.92936 9.4715 3.46376 10.0001 4.12601C10.626 3.34622 11.4461 2.745 12.3781 2.38285C13.3101 2.0207 14.321 1.91038 15.3091 2.06301C16.6878 2.23501 17.9455 2.93626 18.8166 4.01858C19.6877 5.1009 20.1038 6.47949 19.9771 7.86301C19.6573 10.0153 18.6687 12.0126 17.1511 13.572L16.2751 12.696C17.5883 11.3438 18.4474 9.6161 18.7331 7.75301C18.8275 6.6884 18.5044 5.62881 17.8321 4.79794C17.1598 3.96707 16.191 3.42996 15.1301 3.30001C14.2265 3.15118 13.2989 3.28994 12.4784 3.69671C11.6579 4.10348 10.9858 4.7577 10.5571 5.56701C10.5049 5.67004 10.4252 5.75658 10.3268 5.81703C10.2284 5.87749 10.1151 5.90949 9.99965 5.90949C9.88415 5.90949 9.77092 5.87749 9.6725 5.81703C9.57409 5.75658 9.49436 5.67004 9.44215 5.56701C8.95381 4.61966 8.12273 3.89407 7.11815 3.53801ZM1.44215 0.558014L19.4421 18.558L18.5571 19.442L14.8902 15.774C13.5416 16.919 12.0977 17.9468 10.5742 18.846C10.3997 18.9469 10.2017 19 10.0001 19C9.79861 19 9.60063 18.9469 9.42615 18.846C7.94215 17.983 0.513149 13.4 0.0211494 7.86301C-0.0632737 6.9466 0.0948193 6.0241 0.479563 5.18809C0.864308 4.35208 1.46217 3.63196 2.21315 3.10001L0.558149 1.44201L1.44215 0.558014ZM14.0101 14.9L3.10015 3.98701C2.47914 4.3868 1.97981 4.9494 1.65659 5.61348C1.33337 6.27756 1.19866 7.01763 1.26715 7.75301C1.69715 12.611 8.49115 16.853 10.0001 17.733C11.4111 16.8984 12.7521 15.951 14.0101 14.9Z" fill="#0F1A1C"/>
</g>
<defs>
<clipPath id="clip0_472_1155">
<rect width="20" height="20" fill="white"/>
</clipPath>
</defs>
</svg>
