<svg width="20" height="20" viewBox="0 0 20 20" fill="none" xmlns="http://www.w3.org/2000/svg">
<path d="M18.6352 6.72918L13.2702 1.36518C12.4025 0.497924 11.226 0.0107422 9.9992 0.0107422C8.77243 0.0107422 7.59587 0.497924 6.7282 1.36518L1.3642 6.72918C0.496948 7.59684 0.00976563 8.7734 0.00976562 10.0002C0.00976563 11.2269 0.496948 12.4035 1.3642 13.2712L6.7292 18.6362C7.597 19.5032 8.77351 19.9902 10.0002 19.9902C11.2269 19.9902 12.4034 19.5032 13.2712 18.6362L18.6352 13.2712C19.5025 12.4035 19.9896 11.2269 19.9896 10.0002C19.9896 8.7734 19.5025 7.59684 18.6352 6.72918ZM12.7422 12.0002H8.9992V13.0002H7.7492V12.0002H4.8832C4.65095 12.002 4.42744 11.9117 4.26171 11.749C4.09598 11.5862 4.00158 11.3644 3.9992 11.1322V8.86818C4.00158 8.63593 4.09598 8.4141 4.26171 8.25138C4.42744 8.08865 4.65095 7.99831 4.8832 8.00018H7.7492V7.00018H8.9992V8.00018H16.1992L16.2512 8.67418C16.2255 9.58009 15.8418 10.4389 15.184 11.0623C14.5263 11.6858 13.6482 12.023 12.7422 12.0002Z" fill="#0F1A1C"/>
<path d="M9.0242 10.7502H12.7422C13.2158 10.7615 13.6807 10.6224 14.0702 10.3529C14.4598 10.0834 14.7538 9.69732 14.9102 9.25018H9.0242V10.7502Z" fill="#0F1A1C"/>
</svg>
