<svg width="20" height="20" viewBox="0 0 20 20" fill="none" xmlns="http://www.w3.org/2000/svg">
<path d="M15.4729 19.566C15.3054 19.5662 15.1398 19.5296 14.9879 19.459L9.99991 17.127L5.01191 19.459C4.82655 19.5454 4.62143 19.5806 4.41788 19.5609C4.21432 19.5412 4.01976 19.4673 3.8544 19.347C3.68905 19.2266 3.55895 19.0642 3.47761 18.8766C3.39628 18.6889 3.36669 18.483 3.39191 18.28L4.06591 12.817L0.308907 8.793C0.170798 8.64344 0.0750641 8.45975 0.0315674 8.26087C-0.0119293 8.062 -0.00161561 7.85512 0.061446 7.66155C0.124508 7.46799 0.238036 7.29473 0.390336 7.15964C0.542636 7.02455 0.728199 6.93251 0.927907 6.893L6.33291 5.842L8.99991 1.024C9.10808 0.857257 9.25624 0.720209 9.43089 0.625327C9.60554 0.530445 9.80115 0.480743 9.99991 0.480743C10.1987 0.480743 10.3943 0.530445 10.5689 0.625327C10.7436 0.720209 10.8917 0.857257 10.9999 1.024L13.6649 5.842L19.0649 6.888C19.2646 6.92751 19.4502 7.01955 19.6025 7.15464C19.7548 7.28973 19.8683 7.46299 19.9314 7.65655C19.9944 7.85012 20.0047 8.05699 19.9612 8.25587C19.9177 8.45475 19.822 8.63844 19.6839 8.788L15.9269 12.812L16.6009 18.276C16.6209 18.4369 16.6064 18.6002 16.5585 18.755C16.5106 18.9099 16.4304 19.0528 16.3231 19.1743C16.2157 19.2958 16.0838 19.3931 15.936 19.4598C15.7883 19.5265 15.628 19.561 15.4659 19.561L15.4729 19.566ZM9.99991 15.748L15.3449 18.248L14.6209 12.393L18.6469 8.08L12.8559 6.958L9.99991 1.8L7.14391 6.958L1.35291 8.08L5.37891 12.391L4.65491 18.246L9.99991 15.748Z" fill="#0F1A1C"/>
</svg>
