<svg width="20" height="20" viewBox="0 0 20 20" fill="none" xmlns="http://www.w3.org/2000/svg">
<path d="M10.328 0.454001L9.956 0.311001L9.673 0.454001C8.785 0.900001 1 5.056 1 12.225C1 16.468 4.957 19.925 9.849 19.993C9.9 20 9.943 20 9.99 20H10C14.962 20 19 16.512 19 12.225C19 5.056 11.215 0.900001 10.328 0.454001ZM12.5 17.789C12.1169 18.1375 11.6649 18.4017 11.1733 18.5644C10.6817 18.7272 10.1614 18.785 9.646 18.734C9.16365 18.6893 8.69595 18.5443 8.27285 18.3084C7.84976 18.0725 7.48059 17.7508 7.189 17.364C6.85905 16.9349 6.62094 16.4425 6.4895 15.9175C6.35806 15.3924 6.33611 14.8459 6.425 14.312C6.866 11.673 9.175 9.932 10.001 9.386C10.929 9.997 13.651 12.06 13.651 15.204C13.6516 15.6916 13.5494 16.1738 13.3511 16.6192C13.1527 17.0646 12.8627 17.4632 12.5 17.789ZM14.14 17.732C14.6292 16.9776 14.8929 16.0991 14.9 15.2C14.9 10.932 10.831 8.41 10.363 8.134L9.948 7.95L9.633 8.137C8.995 8.514 5.781 10.573 5.191 14.101C4.98421 15.3919 5.2732 16.7133 6 17.8C4.9196 17.3097 3.99678 16.5286 3.33458 15.5442C2.67238 14.5597 2.29688 13.4105 2.25 12.225C2.25 6.256 8.65 2.437 10 1.695C11.352 2.436 17.75 6.255 17.75 12.225C17.7073 13.3849 17.3484 14.5111 16.7119 15.4817C16.0754 16.4523 15.1857 17.2305 14.139 17.732H14.14Z" fill="#0F1A1C"/>
</svg>
