<svg width="20" height="20" viewBox="0 0 20 20" fill="none" xmlns="http://www.w3.org/2000/svg">
<path d="M17.7502 8.565L19.0002 9.4V17.951C18.9998 18.0893 18.9721 18.2262 18.9188 18.3538C18.8654 18.4814 18.7874 18.5973 18.6892 18.6947C18.5911 18.7921 18.4746 18.8693 18.3466 18.9216C18.2186 18.974 18.0815 19.0007 17.9432 19H12.7432C12.5548 19.0003 12.374 18.9258 12.2405 18.7928C12.107 18.6599 12.0317 18.4794 12.0312 18.291V13.769C12.0312 13.007 10.8842 12.29 9.9952 12.29C9.1062 12.29 7.9592 13.007 7.9592 13.769V18.291C7.95867 18.4785 7.88408 18.6583 7.75166 18.7911C7.61924 18.9238 7.43972 18.9989 7.2522 19H2.0572C1.77836 19.0013 1.5104 18.8919 1.3122 18.6958C1.11401 18.4996 1.00178 18.2328 1.0002 17.954V9.4L2.2502 8.562V17.75H6.7142V13.769C6.7142 12.231 8.4802 11.04 10.0002 11.04C11.5202 11.04 13.2862 12.231 13.2862 13.769V17.75H17.7502V8.565ZM19.8002 6.776L10.6492 0.646001C10.4613 0.513544 10.2373 0.441779 10.0075 0.440348C9.77756 0.438918 9.55273 0.507892 9.3632 0.638001L0.200195 6.776L0.900195 7.815L10.0002 1.715L19.1002 7.815L19.8002 6.776Z" fill="#0F1A1C"/>
</svg>
