<svg width="20" height="20" viewBox="0 0 20 20" fill="none" xmlns="http://www.w3.org/2000/svg">
<path d="M11.0001 1.285V18.715C11.0026 18.9305 10.9435 19.1421 10.8298 19.3251C10.716 19.5081 10.5524 19.6549 10.3581 19.748C10.2118 19.8175 10.052 19.8537 9.89008 19.854C9.64017 19.8536 9.39811 19.7667 9.20508 19.608L3.81508 14.945H2.10808C1.8104 14.9405 1.52663 14.8182 1.31895 14.6049C1.11127 14.3916 0.996603 14.1047 1.00008 13.807V6.193C0.996603 5.89531 1.11127 5.60838 1.31895 5.39507C1.52663 5.18177 1.8104 5.05948 2.10808 5.055H3.81508L9.18908 0.405C9.34865 0.270289 9.54356 0.184254 9.75063 0.15713C9.95769 0.130006 10.1682 0.162935 10.3571 0.252C10.5517 0.344805 10.7157 0.491406 10.8296 0.674466C10.9436 0.857527 11.0027 1.06939 11.0001 1.285ZM19.6071 7.207L18.1931 5.793L15.9001 8.086L13.6071 5.793L12.1931 7.207L14.4861 9.5L12.1931 11.793L13.6071 13.207L15.9001 10.914L18.1931 13.207L19.6071 11.793L17.3141 9.5L19.6071 7.207Z" fill="#0F1A1C"/>
</svg>
