<svg width="20" height="20" viewBox="0 0 20 20" fill="none" xmlns="http://www.w3.org/2000/svg">
<g clip-path="url(#clip0_3596_380)">
<path d="M9.5 13.9225V13.4895L9.0714 13.4276C7.83789 13.2496 6.68159 12.721 5.74025 11.9046C4.79892 11.0882 4.11224 10.0186 3.76199 8.82314C3.41175 7.62769 3.41269 6.35679 3.76471 5.16186C4.11674 3.96692 4.80501 2.89831 5.74756 2.08334C6.6901 1.26837 7.84719 0.741411 9.08096 0.565275C10.3147 0.389139 11.5731 0.571255 12.7063 1.08991C13.8394 1.60857 14.7994 2.4419 15.472 3.49058C16.1446 4.53926 16.5015 5.75909 16.5 7.00475C16.4982 8.56571 15.9342 10.0739 14.9111 11.2533C13.8881 12.4327 12.4743 13.2046 10.9286 13.4276L10.5 13.4895V13.9225V16.0016V16.5016H11H13.5V17.5008H11H10.5V18.0008V19.5H9.5V18.0008V17.5008H9H6.5V16.5016H9H9.5V16.0016V13.9225ZM4.49999 7.00533L4.5 7.00593C4.50174 8.46345 5.08175 9.86073 6.11273 10.8913C7.14371 11.9218 8.54147 12.5015 9.9994 12.5033H10C11.0877 12.5033 12.1511 12.1809 13.0556 11.5768C13.96 10.9727 14.665 10.114 15.0813 9.10937C15.4976 8.10473 15.6065 6.99924 15.3943 5.9327C15.1821 4.86616 14.6582 3.88651 13.889 3.11762C13.1198 2.34874 12.1398 1.82514 11.073 1.61302C10.0061 1.40089 8.90027 1.50976 7.8953 1.92586C6.89033 2.34196 6.03134 3.04662 5.42696 3.95076C4.82259 4.8549 4.5 5.91789 4.49999 7.00533Z" fill="#0F1A1C" stroke="#0F1A1C"/>
</g>
<defs>
<clipPath id="clip0_3596_380">
<rect width="20" height="20" fill="white"/>
</clipPath>
</defs>
</svg>
