<svg width="20" height="20" viewBox="0 0 20 20" fill="none" xmlns="http://www.w3.org/2000/svg">
<path d="M10 5.5C9.70333 5.5 9.41332 5.41203 9.16664 5.24721C8.91997 5.08238 8.72771 4.84812 8.61418 4.57403C8.50065 4.29994 8.47094 3.99834 8.52882 3.70737C8.5867 3.41639 8.72956 3.14912 8.93934 2.93934C9.14912 2.72956 9.41639 2.5867 9.70736 2.52882C9.99834 2.47095 10.2999 2.50065 10.574 2.61418C10.8481 2.72771 11.0824 2.91997 11.2472 3.16665C11.412 3.41332 11.5 3.70333 11.5 4C11.5 4.39783 11.342 4.77936 11.0607 5.06066C10.7794 5.34197 10.3978 5.5 10 5.5ZM11.2472 9.16665C11.412 9.41332 11.5 9.70333 11.5 10C11.5 10.3978 11.342 10.7794 11.0607 11.0607C10.7794 11.342 10.3978 11.5 10 11.5C9.70333 11.5 9.41332 11.412 9.16664 11.2472C8.91997 11.0824 8.72771 10.8481 8.61418 10.574C8.50065 10.2999 8.47094 9.99834 8.52882 9.70737C8.5867 9.41639 8.72956 9.14912 8.93934 8.93934C9.14912 8.72956 9.41639 8.5867 9.70736 8.52882C9.99834 8.47094 10.2999 8.50065 10.574 8.61418C10.8481 8.72771 11.0824 8.91997 11.2472 9.16665ZM11.2472 15.1666C11.412 15.4133 11.5 15.7033 11.5 16C11.5 16.3978 11.342 16.7794 11.0607 17.0607C10.7794 17.342 10.3978 17.5 10 17.5C9.70333 17.5 9.41332 17.412 9.16664 17.2472C8.91997 17.0824 8.72771 16.8481 8.61418 16.574C8.50065 16.2999 8.47094 15.9983 8.52882 15.7074C8.5867 15.4164 8.72956 15.1491 8.93934 14.9393C9.14912 14.7296 9.41639 14.5867 9.70736 14.5288C9.99834 14.4709 10.2999 14.5007 10.574 14.6142C10.8481 14.7277 11.0824 14.92 11.2472 15.1666Z" fill="#0F1A1C" stroke="#0F1A1C"/>
</svg>
