<svg width="20" height="20" viewBox="0 0 20 20" fill="none" xmlns="http://www.w3.org/2000/svg">
<g clip-path="url(#clip0_480_0)">
<path d="M19.4421 18.558L14.9291 14.045C16.3709 12.3743 17.1087 10.2096 16.9873 8.00614C16.8659 5.80266 15.8947 3.73212 14.2781 2.22996C12.6614 0.727801 10.5252 -0.0889162 8.3188 -0.0484293C6.11235 -0.00794229 4.00757 0.886594 2.44711 2.44705C0.886655 4.00751 -0.00788125 6.11229 -0.0483682 8.31873C-0.0888552 10.5252 0.727862 12.6614 2.23002 14.278C3.73218 15.8947 5.80272 16.8658 8.0062 16.9872C10.2097 17.1086 12.3744 16.3708 14.0451 14.929L18.5581 19.442L19.4421 18.558ZM1.25106 8.5C1.25106 7.06604 1.67629 5.66428 2.47297 4.47201C3.26966 3.27973 4.40201 2.35048 5.72683 1.80177C7.05165 1.25307 8.50944 1.10955 9.91583 1.38937C11.3222 1.6692 12.614 2.35979 13.6279 3.37382C14.6418 4.38786 15.3322 5.67978 15.6119 7.0862C15.8915 8.49263 15.7478 9.9504 15.1989 11.2751C14.65 12.5999 13.7206 13.7321 12.5282 14.5286C11.3358 15.3252 9.93401 15.7502 8.50006 15.75C6.57806 15.7476 4.73548 14.983 3.37652 13.6238C2.01755 12.2647 1.25317 10.422 1.25106 8.5Z" fill="#0F1A1C"/>
</g>
<defs>
<clipPath id="clip0_480_0">
<rect width="20" height="20" fill="white"/>
</clipPath>
</defs>
</svg>
