<svg width="20" height="20" viewBox="0 0 20 20" fill="none" xmlns="http://www.w3.org/2000/svg">
<g clip-path="url(#clip0_472_1138)">
<path d="M11 18H12C12 18.5304 11.7893 19.0391 11.4142 19.4142C11.0391 19.7893 10.5304 20 10 20C9.46957 20 8.96086 19.7893 8.58579 19.4142C8.21072 19.0391 8 18.5304 8 18H11ZM19 14.208V14.881C19 15.1774 18.8824 15.4618 18.673 15.6716C18.4635 15.8813 18.1794 15.9995 17.883 16H2.117C1.82057 15.9995 1.53647 15.8813 1.32704 15.6716C1.11762 15.4618 1 15.1774 1 14.881V14.208C0.999014 13.5612 1.157 12.924 1.46006 12.3526C1.76312 11.7812 2.20197 11.293 2.738 10.931C3.10265 10.6839 3.40146 10.3515 3.6085 9.96274C3.81553 9.57394 3.92452 9.14048 3.926 8.70001V7.08701C3.926 5.47741 4.56542 3.93373 5.70357 2.79557C6.84173 1.65742 8.38541 1.01801 9.995 1.01801C11.6046 1.01801 13.1483 1.65742 14.2864 2.79557C15.4246 3.93373 16.064 5.47741 16.064 7.08701L16.074 8.70001C16.0744 9.14135 16.183 9.57586 16.3903 9.9655C16.5976 10.3551 16.8972 10.688 17.263 10.935C17.7982 11.2969 18.2364 11.7845 18.5392 12.3551C18.8421 12.9258 19.0003 13.562 19 14.208ZM17.75 14.208C17.7508 13.7656 17.6429 13.3297 17.4358 12.9388C17.2286 12.5478 16.9286 12.2138 16.562 11.966C16.0281 11.6045 15.5906 11.1179 15.2877 10.5487C14.9848 9.97946 14.8256 9.34481 14.824 8.70001V7.08801C14.824 6.45516 14.6994 5.82852 14.4572 5.24385C14.215 4.65919 13.86 4.12794 13.4126 3.68046C12.9651 3.23297 12.4338 2.87801 11.8492 2.63583C11.2645 2.39365 10.6378 2.26901 10.005 2.26901C9.37216 2.26901 8.74552 2.39365 8.16085 2.63583C7.57619 2.87801 7.04494 3.23297 6.59746 3.68046C6.14997 4.12794 5.79501 4.65919 5.55283 5.24385C5.31065 5.82852 5.186 6.45516 5.186 7.08801V8.70301C5.18442 9.34781 5.02524 9.98246 4.72232 10.5517C4.4194 11.1209 3.98194 11.6075 3.448 11.969C3.08002 12.2154 2.77827 12.5484 2.56936 12.9389C2.36044 13.3293 2.25077 13.7652 2.25 14.208V14.75H17.75V14.208Z" fill="#0F1A1C"/>
</g>
<defs>
<clipPath id="clip0_472_1138">
<rect width="20" height="20" fill="white"/>
</clipPath>
</defs>
</svg>
