<svg width="20" height="20" viewBox="0 0 20 20" fill="none" xmlns="http://www.w3.org/2000/svg">
<path d="M10.7 12.6331C10.7336 12.7573 10.7724 12.8797 10.8163 13.0001L11.1895 12.5276M10.7 12.6331L11.1929 12.5492C11.1916 12.5415 11.1906 12.5352 11.1895 12.5276M10.7 12.6331L11.1826 12.5025C11.1849 12.5109 11.1872 12.5192 11.1895 12.5276M10.7 12.6331C10.6971 12.616 10.6947 12.5995 10.6924 12.5833C10.6883 12.5552 10.6844 12.5281 10.678 12.5001H11.1855C11.1865 12.5069 11.1873 12.5125 11.188 12.5175C11.1886 12.5212 11.1891 12.5245 11.1895 12.5276M0.863686 13.0001H8.62992C8.2889 13.7748 7.72014 14.4333 6.99286 14.8838C6.09775 15.4382 5.02744 15.6373 3.99284 15.4418L3.99285 15.4417L3.98427 15.4403C3.19187 15.3048 2.45544 14.9434 1.86343 14.3996C1.43491 14.0059 1.09524 13.5287 0.863686 13.0001ZM18.854 5.5001V5.50015L18.8607 5.50006C19.0277 5.49782 19.1887 5.56186 19.3086 5.67815C19.4276 5.7936 19.4963 5.9512 19.5 6.11685V7.5001H0.5V6.11688C0.503706 5.95122 0.572437 5.79361 0.691426 5.67815C0.81127 5.56186 0.972324 5.49782 1.1393 5.50006L1.1393 5.5001H1.146H18.854ZM15.2903 15.5001L15.2886 15.5001C14.7864 15.4995 14.2872 15.4213 13.8088 15.2683C13.1762 15.0614 12.605 14.7005 12.1467 14.2179C11.8092 13.8626 11.5407 13.4496 11.353 13.0001H19.2014C18.9235 13.6621 18.4664 14.2387 17.8759 14.6616L17.8759 14.6616L17.8722 14.6643C17.1228 15.2114 16.2181 15.5043 15.2903 15.5001ZM0.5 10.0001H19.5V10.5001H0.5V10.0001Z" fill="#0F1A1C" stroke="#0F1A1C"/>
</svg>
