<svg width="20" height="20" viewBox="0 0 20 20" fill="none" xmlns="http://www.w3.org/2000/svg">
<path d="M7.6741 14.6928H5.3241V8.66077H1.8581L6.4991 3.24677L9.1181 6.29977L9.9481 5.34677L7.3541 2.32277C7.24544 2.20442 7.11338 2.10992 6.96628 2.04528C6.81919 1.98064 6.66027 1.94727 6.4996 1.94727C6.33893 1.94727 6.18001 1.98064 6.03291 2.04528C5.88582 2.10992 5.75376 2.20442 5.6451 2.32277L0.379098 8.46577C0.270039 8.59279 0.199709 8.74843 0.176453 8.91422C0.153197 9.08002 0.177991 9.249 0.247894 9.40112C0.317797 9.55324 0.429873 9.68212 0.570824 9.77246C0.711775 9.86279 0.875683 9.9108 1.0431 9.91077H4.0741V14.8178C4.07463 15.116 4.19332 15.4018 4.40419 15.6127C4.61505 15.8235 4.90089 15.9422 5.1991 15.9428H7.7991C8.0973 15.9422 8.38315 15.8235 8.59401 15.6127C8.80487 15.4018 8.92357 15.116 8.9241 14.8178V13.2048H7.6741V14.6928ZM14.7991 17.9998H12.1991C11.9009 17.9992 11.6151 17.8805 11.4042 17.6697C11.1933 17.4588 11.0746 17.173 11.0741 16.8748V11.9678H8.0431C7.87568 11.9678 7.71177 11.9198 7.57082 11.8295C7.42987 11.7391 7.3178 11.6102 7.24789 11.4581C7.17799 11.306 7.1532 11.137 7.17645 10.9712C7.19971 10.8054 7.27004 10.6498 7.3791 10.5228L12.6451 4.37977C12.7537 4.26128 12.8857 4.16667 13.0328 4.10194C13.1799 4.03721 13.3389 4.00379 13.4996 4.00379C13.6603 4.00379 13.8193 4.03721 13.9664 4.10194C14.1135 4.16667 14.2455 4.26128 14.3541 4.37977L19.6201 10.5238C19.7288 10.6508 19.7989 10.8064 19.822 10.972C19.8451 11.1376 19.8202 11.3064 19.7503 11.4583C19.6805 11.6103 19.5685 11.739 19.4278 11.8293C19.287 11.9196 19.1233 11.9676 18.9561 11.9678H15.9241V16.8748C15.9236 17.173 15.8049 17.4588 15.594 17.6697C15.3831 17.8805 15.0973 17.9992 14.7991 17.9998ZM12.3241 16.7498H14.6741V10.7178H18.1401L13.4991 5.29977L8.8591 10.7178H12.3241V16.7498Z" fill="#0F1A1C"/>
</svg>
