<svg width="20" height="20" viewBox="0 0 20 20" fill="none" xmlns="http://www.w3.org/2000/svg">
<path d="M16.3964 3.78045L11.817 8.35989L11.6401 8.183L16.2196 3.60355L17.0731 2.75H15.866H12.875V2.5H17.375C17.4082 2.5 17.4399 2.51317 17.4634 2.53661C17.4868 2.56005 17.5 2.59185 17.5 2.625V7.125H17.25V4.134V2.92689L16.3964 3.78045ZM4.134 17.25H7.125V17.5H2.625C2.59185 17.5 2.56005 17.4868 2.53661 17.4634C2.51317 17.4399 2.5 17.4082 2.5 17.375V12.875H2.75V15.866V17.0731L3.60355 16.2196L8.183 11.6401L8.35989 11.817L3.78045 16.3964L2.92689 17.25H4.134Z" fill="#0F1A1C" stroke="#0F1A1C"/>
</svg>
