<svg width="20" height="20" viewBox="0 0 20 20" fill="none" xmlns="http://www.w3.org/2000/svg">
<g clip-path="url(#clip0_3682_126)">
<path d="M17.564 12.614C16.8675 14.6259 15.4023 16.28 13.489 17.214C13.9224 16.3518 14.2536 15.442 14.476 14.503L13.846 14.492L13.334 14.14C13.188 14.04 12.947 13.866 12.655 13.64C12.067 16.39 10.89 18.025 10 18.025C8.853 18.025 7.225 15.319 7 11H9.894C9.37564 10.3815 8.92225 9.71128 8.54101 9H7C7.05669 7.71157 7.27301 6.43516 7.644 5.2C7.70447 4.18251 7.98896 3.19095 8.47714 2.29617C8.96532 1.4014 9.64514 0.625526 10.468 0.024C10.312 0.016 10.158 0 10 0C8.02219 0 6.08879 0.58649 4.4443 1.6853C2.79981 2.78412 1.51809 4.3459 0.761209 6.17317C0.00433284 8.00043 -0.193701 10.0111 0.192152 11.9509C0.578004 13.8907 1.53041 15.6725 2.92894 17.0711C4.32746 18.4696 6.10929 19.422 8.0491 19.8079C9.98891 20.1937 11.9996 19.9957 13.8268 19.2388C15.6541 18.4819 17.2159 17.2002 18.3147 15.5557C19.4135 13.9112 20 11.9778 20 10C20 9.932 19.991 9.867 19.99 9.8C19.3019 10.8355 18.4869 11.7809 17.564 12.614ZM2.044 11H5.024C5.07916 13.1532 5.58576 15.2709 6.511 17.216C5.30806 16.6333 4.26953 15.7597 3.48951 14.6743C2.7095 13.5889 2.21265 12.3259 2.044 11ZM5.024 9H2.044C2.21265 7.67406 2.7095 6.41115 3.48951 5.32573C4.26953 4.2403 5.30806 3.36667 6.511 2.784C5.58576 4.72909 5.07916 6.84676 5.024 9ZM14.5 0C13.0353 0.00846519 11.6337 0.597506 10.6026 1.63793C9.57155 2.67836 8.99521 4.08523 9 5.55C9 9.316 13.59 12.578 14.117 12.94L14.535 13.178L14.886 12.937C15.409 12.578 20 9.315 20 5.55C20.0048 4.08523 19.4285 2.67836 18.3974 1.63793C17.3664 0.597506 15.9648 0.00846519 14.5 0ZM14.5 8.02C14.0056 8.02 13.5222 7.87338 13.1111 7.59867C12.7 7.32397 12.3795 6.93352 12.1903 6.47671C12.0011 6.01989 11.9516 5.51723 12.048 5.03227C12.1445 4.54732 12.3826 4.10186 12.7322 3.75223C13.0819 3.4026 13.5273 3.1645 14.0123 3.06804C14.4972 2.97157 14.9999 3.02108 15.4567 3.2103C15.9135 3.39952 16.304 3.71995 16.5787 4.13107C16.8534 4.5422 17 5.02555 17 5.52C17 5.8483 16.9353 6.17339 16.8097 6.47671C16.6841 6.78002 16.4999 7.05562 16.2678 7.28777C16.0356 7.51991 15.76 7.70406 15.4567 7.8297C15.1534 7.95534 14.8283 8.02 14.5 8.02Z" fill="#0F1A1C"/>
</g>
<defs>
<clipPath id="clip0_3682_126">
<rect width="20" height="20" fill="white"/>
</clipPath>
</defs>
</svg>
