<svg width="20" height="20" viewBox="0 0 20 20" fill="none" xmlns="http://www.w3.org/2000/svg">
<g clip-path="url(#clip0_609_272)">
<path d="M16.9455 4.649L15.3605 3.064C15.2095 2.91294 15.0302 2.79311 14.8329 2.71135C14.6356 2.62959 14.4241 2.58751 14.2105 2.58751C13.9969 2.58751 13.7854 2.62959 13.5881 2.71135C13.3908 2.79311 13.2115 2.91294 13.0605 3.064L0.476489 15.643C0.325428 15.794 0.205595 15.9733 0.123838 16.1706C0.0420806 16.3679 0 16.5794 0 16.793C0 17.0066 0.0420806 17.2181 0.123838 17.4154C0.205595 17.6127 0.325428 17.792 0.476489 17.943L2.06149 19.528C2.36657 19.8328 2.78021 20.0041 3.21149 20.0041C3.64277 20.0041 4.05641 19.8328 4.36149 19.528L16.9465 6.946C17.2505 6.64104 17.4212 6.22792 17.421 5.79729C17.4208 5.36667 17.2498 4.9537 16.9455 4.649ZM3.47649 18.642C3.40588 18.712 3.31045 18.7513 3.21099 18.7513C3.11153 18.7513 3.0161 18.712 2.94549 18.642L1.36049 17.057C1.29026 16.9867 1.25082 16.8914 1.25082 16.792C1.25082 16.6926 1.29026 16.5973 1.36049 16.527L9.96049 7.927L12.0765 10.042L3.47649 18.642ZM16.0625 6.062L12.9625 9.162L10.8455 7.047L13.9455 3.947C13.9803 3.91226 14.0216 3.88474 14.0671 3.86604C14.1126 3.84733 14.1613 3.8378 14.2105 3.838C14.3101 3.83778 14.4057 3.87696 14.4765 3.947L16.0615 5.532C16.1318 5.60218 16.1715 5.69742 16.1717 5.79679C16.1718 5.89617 16.1326 5.99155 16.0625 6.062ZM6.87549 4.5V5H8.12549V4.5C8.12549 4.13514 8.27029 3.7852 8.5281 3.52702C8.7859 3.26884 9.13563 3.12353 9.50049 3.123H10.0005V1.874H9.50049C9.13607 1.87374 8.78664 1.72892 8.52886 1.47133C8.27109 1.21374 8.12602 0.864418 8.12549 0.5V0H6.87549V0.5C6.87496 0.864418 6.72989 1.21374 6.47212 1.47133C6.21434 1.72892 5.86491 1.87374 5.50049 1.874H5.00049V3.123H5.50049C5.86535 3.12353 6.21508 3.26884 6.47288 3.52702C6.73069 3.7852 6.87549 4.13514 6.87549 4.5ZM7.50049 2.2C7.59193 2.30821 7.69228 2.40856 7.80049 2.5C7.69248 2.59166 7.59215 2.69199 7.50049 2.8C7.40883 2.69199 7.30849 2.59166 7.20049 2.5C7.3087 2.40856 7.40905 2.30821 7.50049 2.2ZM20.0005 0.875V2.124H19.7005C19.5481 2.12426 19.402 2.18493 19.2942 2.29271C19.1864 2.40048 19.1258 2.54658 19.1255 2.699V3H17.8755V2.7C17.8752 2.54758 17.8146 2.40148 17.7068 2.29371C17.599 2.18593 17.4529 2.12526 17.3005 2.125H17.0005V0.875H17.3005C17.4529 0.874736 17.599 0.814071 17.7068 0.706294C17.8146 0.598518 17.8752 0.452418 17.8755 0.3V0H19.1255V0.3C19.1258 0.452418 19.1864 0.598518 19.2942 0.706294C19.402 0.814071 19.5481 0.874736 19.7005 0.875H20.0005ZM18.7005 10.87H19.0005V12.119H18.7005C18.5481 12.1193 18.402 12.1799 18.2942 12.2877C18.1864 12.3955 18.1258 12.5416 18.1255 12.694V12.994H16.8755V12.694C16.8752 12.5416 16.8146 12.3955 16.7068 12.2877C16.599 12.1799 16.4529 12.1193 16.3005 12.119H16.0005V10.87H16.3005C16.4529 10.8697 16.599 10.8091 16.7068 10.7013C16.8146 10.5935 16.8752 10.4474 16.8755 10.295V9.995H18.1255V10.295C18.1258 10.4474 18.1864 10.5935 18.2942 10.7013C18.402 10.8091 18.5481 10.8697 18.7005 10.87Z" fill="#0F1A1C"/>
</g>
<defs>
<clipPath id="clip0_609_272">
<rect width="20" height="20" fill="white"/>
</clipPath>
</defs>
</svg>
