<svg width="20" height="20" viewBox="0 0 20 20" fill="none" xmlns="http://www.w3.org/2000/svg">
<path d="M17.375 18H2.625C1.92913 17.9989 1.26207 17.722 0.770013 17.23C0.277959 16.7379 0.00105795 16.0709 0 15.375L0 3.625C0.000529257 3.19419 0.171904 2.78117 0.476536 2.47654C0.781168 2.1719 1.19419 2.00053 1.625 2H18.375C18.8058 2.00053 19.2188 2.1719 19.5235 2.47654C19.8281 2.78117 19.9995 3.19419 20 3.625V15.375C19.9989 16.0709 19.722 16.7379 19.23 17.23C18.7379 17.722 18.0709 17.9989 17.375 18ZM1.625 3.25C1.52554 3.25 1.43016 3.28951 1.35983 3.35983C1.28951 3.43016 1.25 3.52554 1.25 3.625V15.375C1.25053 15.7395 1.39556 16.0889 1.65331 16.3467C1.91106 16.6044 2.26049 16.7495 2.625 16.75H17.375C17.7395 16.7495 18.0889 16.6044 18.3467 16.3467C18.6044 16.0889 18.7495 15.7395 18.75 15.375V3.625C18.75 3.52554 18.7105 3.43016 18.6402 3.35983C18.5698 3.28951 18.4745 3.25 18.375 3.25H1.625ZM13 13H7C6.73478 13 6.48043 13.1054 6.29289 13.2929C6.10536 13.4804 6 13.7348 6 14C6 14.2652 6.10536 14.5196 6.29289 14.7071C6.48043 14.8946 6.73478 15 7 15H13C13.2652 15 13.5196 14.8946 13.7071 14.7071C13.8946 14.5196 14 14.2652 14 14C14 13.7348 13.8946 13.4804 13.7071 13.2929C13.5196 13.1054 13.2652 13 13 13ZM4.5 5C4.30222 5 4.10888 5.05865 3.94443 5.16853C3.77998 5.27841 3.65181 5.43459 3.57612 5.61732C3.50043 5.80004 3.48063 6.00111 3.51921 6.19509C3.5578 6.38907 3.65304 6.56725 3.79289 6.70711C3.93275 6.84696 4.11093 6.9422 4.30491 6.98079C4.49889 7.01937 4.69996 6.99957 4.88268 6.92388C5.06541 6.84819 5.22159 6.72002 5.33147 6.55557C5.44135 6.39112 5.5 6.19778 5.5 6C5.5 5.73478 5.39464 5.48043 5.20711 5.29289C5.01957 5.10536 4.76522 5 4.5 5ZM8.166 5C7.96822 5 7.77488 5.05865 7.61043 5.16853C7.44598 5.27841 7.31781 5.43459 7.24212 5.61732C7.16643 5.80004 7.14663 6.00111 7.18521 6.19509C7.2238 6.38907 7.31904 6.56725 7.45889 6.70711C7.59875 6.84696 7.77693 6.9422 7.97091 6.98079C8.16489 7.01937 8.36596 6.99957 8.54868 6.92388C8.73141 6.84819 8.88759 6.72002 8.99747 6.55557C9.10735 6.39112 9.166 6.19778 9.166 6C9.166 5.73478 9.06064 5.48043 8.87311 5.29289C8.68557 5.10536 8.43122 5 8.166 5ZM11.833 5C11.6352 5 11.4419 5.05865 11.2774 5.16853C11.113 5.27841 10.9848 5.43459 10.9091 5.61732C10.8334 5.80004 10.8136 6.00111 10.8522 6.19509C10.8908 6.38907 10.986 6.56725 11.1259 6.70711C11.2657 6.84696 11.4439 6.9422 11.6379 6.98079C11.8319 7.01937 12.033 6.99957 12.2157 6.92388C12.3984 6.84819 12.5546 6.72002 12.6645 6.55557C12.7744 6.39112 12.833 6.19778 12.833 6C12.833 5.73478 12.7276 5.48043 12.5401 5.29289C12.3526 5.10536 12.0982 5 11.833 5ZM15.5 5C15.3022 5 15.1089 5.05865 14.9444 5.16853C14.78 5.27841 14.6518 5.43459 14.5761 5.61732C14.5004 5.80004 14.4806 6.00111 14.5192 6.19509C14.5578 6.38907 14.653 6.56725 14.7929 6.70711C14.9327 6.84696 15.1109 6.9422 15.3049 6.98079C15.4989 7.01937 15.7 6.99957 15.8827 6.92388C16.0654 6.84819 16.2216 6.72002 16.3315 6.55557C16.4414 6.39112 16.5 6.19778 16.5 6C16.5 5.73478 16.3946 5.48043 16.2071 5.29289C16.0196 5.10536 15.7652 5 15.5 5ZM4.5 9C4.30222 9 4.10888 9.05865 3.94443 9.16853C3.77998 9.27841 3.65181 9.43459 3.57612 9.61732C3.50043 9.80004 3.48063 10.0011 3.51921 10.1951C3.5578 10.3891 3.65304 10.5673 3.79289 10.7071C3.93275 10.847 4.11093 10.9422 4.30491 10.9808C4.49889 11.0194 4.69996 10.9996 4.88268 10.9239C5.06541 10.8482 5.22159 10.72 5.33147 10.5556C5.44135 10.3911 5.5 10.1978 5.5 10C5.5 9.73478 5.39464 9.48043 5.20711 9.29289C5.01957 9.10536 4.76522 9 4.5 9ZM8.166 9C7.96822 9 7.77488 9.05865 7.61043 9.16853C7.44598 9.27841 7.31781 9.43459 7.24212 9.61732C7.16643 9.80004 7.14663 10.0011 7.18521 10.1951C7.2238 10.3891 7.31904 10.5673 7.45889 10.7071C7.59875 10.847 7.77693 10.9422 7.97091 10.9808C8.16489 11.0194 8.36596 10.9996 8.54868 10.9239C8.73141 10.8482 8.88759 10.72 8.99747 10.5556C9.10735 10.3911 9.166 10.1978 9.166 10C9.166 9.73478 9.06064 9.48043 8.87311 9.29289C8.68557 9.10536 8.43122 9 8.166 9ZM11.833 9C11.6352 9 11.4419 9.05865 11.2774 9.16853C11.113 9.27841 10.9848 9.43459 10.9091 9.61732C10.8334 9.80004 10.8136 10.0011 10.8522 10.1951C10.8908 10.3891 10.986 10.5673 11.1259 10.7071C11.2657 10.847 11.4439 10.9422 11.6379 10.9808C11.8319 11.0194 12.033 10.9996 12.2157 10.9239C12.3984 10.8482 12.5546 10.72 12.6645 10.5556C12.7744 10.3911 12.833 10.1978 12.833 10C12.833 9.73478 12.7276 9.48043 12.5401 9.29289C12.3526 9.10536 12.0982 9 11.833 9ZM15.5 9C15.3022 9 15.1089 9.05865 14.9444 9.16853C14.78 9.27841 14.6518 9.43459 14.5761 9.61732C14.5004 9.80004 14.4806 10.0011 14.5192 10.1951C14.5578 10.3891 14.653 10.5673 14.7929 10.7071C14.9327 10.847 15.1109 10.9422 15.3049 10.9808C15.4989 11.0194 15.7 10.9996 15.8827 10.9239C16.0654 10.8482 16.2216 10.72 16.3315 10.5556C16.4414 10.3911 16.5 10.1978 16.5 10C16.5 9.73478 16.3946 9.48043 16.2071 9.29289C16.0196 9.10536 15.7652 9 15.5 9Z" fill="#0F1A1C"/>
</svg>
