<svg width="20" height="20" viewBox="0 0 20 20" fill="none" xmlns="http://www.w3.org/2000/svg">
<path d="M12.729 10.208C12.734 10.138 12.75 10.071 12.75 10C12.7494 9.27082 12.4595 8.57165 11.9439 8.05604C11.4283 7.54043 10.7292 7.25053 9.99997 7.25C9.92897 7.25 9.86197 7.266 9.79197 7.271L8.74297 6.222C9.14713 6.08022 9.57169 6.00524 9.99997 6C11.0608 6 12.0782 6.42143 12.8284 7.17157C13.5785 7.92172 14 8.93914 14 10C13.9947 10.4283 13.9197 10.8528 13.778 11.257L12.729 10.208ZM19.916 9.57C19.1064 7.61116 17.7298 5.93904 15.9629 4.76835C14.1959 3.59766 12.1194 2.98185 9.99997 3C8.70298 2.99933 7.41624 3.22959 6.19997 3.68L7.18497 4.664C8.0979 4.3886 9.0464 4.2491 9.99997 4.25C11.8597 4.23298 13.6831 4.76539 15.2414 5.78046C16.7998 6.79554 18.0238 8.2481 18.76 9.956C18.2041 11.3026 17.3391 12.4996 16.235 13.45C16.188 13.491 16.135 13.526 16.087 13.566L16.977 14.456C17.001 14.435 17.028 14.418 17.052 14.397C18.3053 13.3173 19.2868 11.9576 19.917 10.428C20.0271 10.1525 20.0268 9.8452 19.916 9.57ZM3.72497 3.548L16.453 16.275L15.568 17.159L14.438 16.029C13.044 16.6631 11.5314 16.9941 9.99997 17C7.21495 17.0108 4.53468 15.9391 2.52497 14.011C1.46831 13.0017 0.636522 11.7808 0.083969 10.428C-0.0270131 10.1535 -0.0270131 9.84654 0.083969 9.572C0.807513 7.80338 2.00216 6.26702 3.53797 5.13L2.83797 4.43L3.72497 3.548ZM13.49 15.081L11.9 13.492C11.3204 13.8209 10.6663 13.9958 9.99997 14C8.9391 14 7.92169 13.5786 7.17154 12.8284C6.4214 12.0783 5.99997 11.0609 5.99997 10C6.00421 9.33367 6.1791 8.67954 6.50797 8.1L4.44697 6.039C3.0177 7.04106 1.90493 8.43108 1.23997 10.045C1.75221 11.196 2.48268 12.2369 3.39097 13.11C5.16828 14.8137 7.53798 15.7603 9.99997 15.75C11.1949 15.7468 12.3786 15.5199 13.49 15.081ZM7.24997 10C7.2505 10.7292 7.5404 11.4283 8.05601 11.944C8.57162 12.4596 9.27079 12.7495 9.99997 12.75C10.3333 12.7497 10.6637 12.6869 10.974 12.565L7.43497 9.027C7.31305 9.33693 7.2503 9.66696 7.24997 10Z" fill="#0F1A1C"/>
</svg>
