<svg width="20" height="20" viewBox="0 0 20 20" fill="none" xmlns="http://www.w3.org/2000/svg">
<g clip-path="url(#clip0_472_1137)">
<path d="M9.99989 20C9.84257 19.9999 9.68704 19.9667 9.54337 19.9026C9.3997 19.8385 9.27109 19.745 9.16589 19.628L1.29389 11.047C1.13793 10.8633 1.03835 10.6384 1.00713 10.3995C0.975904 10.1605 1.01437 9.91762 1.11789 9.7C1.1987 9.4979 1.33695 9.3239 1.51556 9.1995C1.69416 9.07509 1.9053 9.00574 2.12289 9H5.99989V2.123C6.00042 1.82532 6.1189 1.53999 6.32939 1.3295C6.53988 1.11901 6.82521 1.00053 7.12289 1H12.8769C13.1746 1.00053 13.4599 1.11901 13.6704 1.3295C13.8809 1.53999 13.9994 1.82532 13.9999 2.123V9H17.8739C18.0918 9.00535 18.3034 9.07453 18.4824 9.19895C18.6614 9.32338 18.7999 9.49759 18.8809 9.7C18.9849 9.91685 19.0241 10.1591 18.9938 10.3977C18.9634 10.6363 18.8649 10.8611 18.7099 11.045L10.8339 19.634C10.728 19.7496 10.5991 19.8419 10.4555 19.9049C10.3119 19.9679 10.1567 20.0003 9.99989 20ZM2.31589 10.25L9.99989 18.69L17.7409 10.25H12.7499V2.25H7.24989V10.25H2.31589ZM17.7849 10.2C17.7749 10.2 17.7709 10.207 17.7729 10.213L17.7849 10.2Z" fill="#0F1A1C"/>
</g>
<defs>
<clipPath id="clip0_472_1137">
<rect width="20" height="20" fill="white"/>
</clipPath>
</defs>
</svg>
