<svg width="20" height="20" viewBox="0 0 20 20" fill="none" xmlns="http://www.w3.org/2000/svg">
<path d="M11.5 15.521L11.342 15.479C11.206 15.444 8 14.581 8 12.25V8.393L11.5 7.479L15 8.393V12.25C15 14.581 11.794 15.444 11.658 15.479L11.5 15.521ZM9.25 9.357V12.25C9.25 13.397 10.963 14.05 11.499 14.222C12.035 14.045 13.75 13.392 13.75 12.25V9.357L11.5 8.771L9.25 9.357ZM17.375 19H5.625C5.19419 18.9995 4.78117 18.8281 4.47654 18.5235C4.1719 18.2188 4.00053 17.8058 4 17.375V5.625C4.00053 5.19419 4.1719 4.78117 4.47654 4.47654C4.78117 4.1719 5.19419 4.00053 5.625 4H17.375C17.8058 4.00053 18.2188 4.1719 18.5235 4.47654C18.8281 4.78117 18.9995 5.19419 19 5.625V17.375C18.9995 17.8058 18.8281 18.2188 18.5235 18.5235C18.2188 18.8281 17.8058 18.9995 17.375 19ZM5.625 5.25C5.52554 5.25 5.43016 5.28951 5.35984 5.35984C5.28951 5.43016 5.25 5.52554 5.25 5.625V17.375C5.25 17.4745 5.28951 17.5698 5.35984 17.6402C5.43016 17.7105 5.52554 17.75 5.625 17.75H17.375C17.4745 17.75 17.5698 17.7105 17.6402 17.6402C17.7105 17.5698 17.75 17.4745 17.75 17.375V5.625C17.75 5.52554 17.7105 5.43016 17.6402 5.35984C17.5698 5.28951 17.4745 5.25 17.375 5.25H5.625ZM2.625 14.75C2.52554 14.75 2.43016 14.7105 2.35983 14.6402C2.28951 14.5698 2.25 14.4745 2.25 14.375V2.624C2.25026 2.52472 2.28989 2.42959 2.36019 2.35948C2.43049 2.28937 2.52572 2.25 2.625 2.25H14.375C14.4743 2.25 14.5695 2.28937 14.6398 2.35948C14.7101 2.42959 14.7497 2.52472 14.75 2.624H16C15.9992 2.19336 15.8277 1.7806 15.5231 1.47618C15.2185 1.17177 14.8056 1.00053 14.375 1H2.625C2.19436 1.00053 1.78149 1.17177 1.47689 1.47618C1.17229 1.7806 1.00079 2.19336 1 2.624V14.375C1.00053 14.8058 1.1719 15.2188 1.47654 15.5235C1.78117 15.8281 2.19419 15.9995 2.625 16V14.75Z" fill="#0F1A1C"/>
</svg>
