<svg width="20" height="20" viewBox="0 0 20 20" fill="none" xmlns="http://www.w3.org/2000/svg">
<path d="M2.625 15.375V16C2.19419 15.9995 1.78117 15.8281 1.47654 15.5235C1.1719 15.2188 1.00053 14.8058 1 14.375V2.625C1.00053 2.19419 1.1719 1.78117 1.47654 1.47654C1.78117 1.1719 2.19419 1.00053 2.625 1H14.375C14.8058 1.00053 15.2188 1.1719 15.5235 1.47654C15.8281 1.78117 15.9995 2.19419 16 2.625H5.622C4.82635 2.625 4.06329 2.94107 3.50068 3.50368C2.93807 4.06629 2.622 4.82935 2.622 5.625L2.625 15.375ZM19 5.622V17.378C18.9995 17.808 18.8284 18.2203 18.5243 18.5243C18.2203 18.8284 17.808 18.9995 17.378 19H5.622C5.19198 18.9995 4.77973 18.8284 4.47566 18.5243C4.17159 18.2203 4.00053 17.808 4 17.378V5.622C4.00053 5.19198 4.17159 4.77973 4.47566 4.47566C4.77973 4.17159 5.19198 4.00053 5.622 4H17.378C17.808 4.00053 18.2203 4.17159 18.5243 4.47566C18.8284 4.77973 18.9995 5.19198 19 5.622ZM13.148 8.9L14.104 9.854L15.804 8.154L14.849 7.2L13.148 8.9ZM6.089 12.175H8.489V10.825H6.089V12.175ZM9.852 14.1L8.9 13.149L7.2 14.849L8.155 15.803L9.852 14.1ZM9.852 8.894L8.152 7.194L7.2 8.15L8.9 9.85L9.852 8.894ZM12.175 14.503H10.825V16.909H12.175V14.503ZM12.175 6.085H10.825V8.494H12.175V6.085ZM15.8 14.85L14.1 13.15L13.144 14.104L14.844 15.804L15.8 14.85ZM16.907 10.825H14.507V12.175H16.907V10.825Z" fill="#0F1A1C"/>
</svg>
