<svg width="20" height="20" viewBox="0 0 20 20" fill="none" xmlns="http://www.w3.org/2000/svg">
<g clip-path="url(#clip0_472_1136)">
<path d="M17.0651 2.92901C15.7615 1.62371 14.1219 0.704758 12.3281 0.273956C10.5343 -0.156846 8.65629 -0.0826852 6.90205 0.488224C5.1478 1.05913 3.58583 2.10451 2.38916 3.50854C1.1925 4.91257 0.407847 6.62046 0.122134 8.44301C-0.234884 10.6794 0.18698 12.9705 1.31713 14.933L0.0831337 19.009C0.0448055 19.1346 0.0411213 19.2682 0.0724703 19.3958C0.103819 19.5233 0.169037 19.64 0.261232 19.7335C0.353428 19.8271 0.469176 19.8939 0.596245 19.9271C0.723314 19.9603 0.856986 19.9585 0.983134 19.922L5.15013 18.728C6.62751 19.5614 8.29491 19.9995 9.99113 20C10.5301 19.999 11.0681 19.9556 11.6001 19.87C13.4185 19.577 15.1204 18.7871 16.518 17.5877C17.9157 16.3882 18.9546 14.8257 19.52 13.0729C20.0855 11.3201 20.1554 9.44507 19.7222 7.65497C19.289 5.86487 18.3695 4.22934 17.0651 2.92901ZM18.6351 11.429C18.3297 13.2322 17.4691 14.8951 16.1734 16.1857C14.8777 17.4764 13.2115 18.3306 11.4071 18.629C9.38485 18.963 7.30965 18.5693 5.55013 17.518L5.31813 17.379L1.55613 18.457L2.67413 14.765L2.52913 14.527C1.44738 12.7656 1.03165 10.6753 1.35713 8.63401C1.53257 7.49202 1.93239 6.39607 2.53352 5.40938C3.13466 4.42269 3.92521 3.56479 4.85958 2.88517C5.79394 2.20555 6.85363 1.71767 7.9775 1.44966C9.10137 1.18165 10.2672 1.13882 11.4077 1.32365C12.5482 1.50847 13.6408 1.91729 14.6225 2.52653C15.6043 3.13576 16.4556 3.93334 17.1275 4.87326C17.7994 5.81319 18.2786 6.87685 18.5373 8.00289C18.7961 9.12893 18.8293 10.2951 18.6351 11.434V11.429ZM10.6251 9.37101H14.0001V10.621H10.6251V14H9.37513V10.624H6.00013V9.37401H9.37513V6.00001H10.6251V9.37101Z" fill="#0F1A1C"/>
</g>
<defs>
<clipPath id="clip0_472_1136">
<rect width="20" height="20" fill="white"/>
</clipPath>
</defs>
</svg>
