<svg width="20" height="20" viewBox="0 0 20 20" fill="none" xmlns="http://www.w3.org/2000/svg">
<path d="M17.376 3.032H15.021L13.8 1.446C13.6924 1.30764 13.5547 1.19558 13.3974 1.1183C13.2401 1.04103 13.0673 1.00057 12.892 1H7.152C6.97373 1.00036 6.7979 1.04144 6.63793 1.12013C6.47797 1.19881 6.3381 1.31301 6.229 1.454L5.014 3.031H2.625C1.92913 3.03206 1.26207 3.30896 0.770013 3.80101C0.277959 4.29307 0.00105795 4.96013 0 5.656V15.375C0.00105795 16.0709 0.277959 16.7379 0.770013 17.23C1.26207 17.722 1.92913 17.9989 2.625 18H17.375C18.0709 17.9989 18.7379 17.722 19.23 17.23C19.722 16.7379 19.9989 16.0709 20 15.375V5.657C19.9995 4.96114 19.7229 4.29392 19.2309 3.80178C18.739 3.30964 18.0719 3.03279 17.376 3.032ZM18.75 15.375C18.7495 15.7395 18.6044 16.0889 18.3467 16.3467C18.0889 16.6044 17.7395 16.7495 17.375 16.75H2.625C2.26049 16.7495 1.91106 16.6044 1.65331 16.3467C1.39556 16.0889 1.25053 15.7395 1.25 15.375V5.656C1.25053 5.29149 1.39556 4.94206 1.65331 4.68431C1.91106 4.42656 2.26049 4.28153 2.625 4.281H5.625L7.152 2.25L12.809 2.209L14.409 4.281H17.38C17.744 4.28232 18.0926 4.42791 18.3494 4.68585C18.6062 4.94378 18.7503 5.29302 18.75 5.657V15.375ZM10.625 9.375H14V10.625H10.625V14H9.375V10.625H6V9.375H9.375V6H10.625V9.375Z" fill="#0F1A1C"/>
</svg>
