<svg width="20" height="20" viewBox="0 0 20 20" fill="none" xmlns="http://www.w3.org/2000/svg">
<g clip-path="url(#clip0_3464_24)">
<path d="M18.129 8.91299C17.6731 8.63568 17.1299 8.53906 16.6064 8.64214C16.0828 8.74523 15.6168 9.04055 15.3 9.46999L14.255 10.87V3.73599C14.2569 3.16999 14.0343 2.62634 13.6359 2.22425C13.2376 1.82216 12.696 1.59442 12.13 1.59099C11.8158 1.59257 11.5061 1.6654 11.224 1.80399C11.1495 1.30272 10.8973 0.844914 10.5135 0.513972C10.1297 0.183031 9.63982 0.000976562 9.13304 0.000976562C8.62626 0.000976562 8.13634 0.183031 7.75254 0.513972C7.36874 0.844914 7.11659 1.30272 7.04204 1.80399C6.75904 1.66507 6.4483 1.59192 6.13304 1.58999C5.85202 1.59064 5.57389 1.64669 5.31455 1.75493C5.05521 1.86317 4.81975 2.02147 4.62165 2.22079C4.42354 2.4201 4.26667 2.65651 4.16001 2.91651C4.05335 3.1765 3.99899 3.45497 4.00004 3.73599V4.61999C3.72528 4.49062 3.42573 4.42238 3.12204 4.41999C2.55597 4.42395 2.01459 4.65236 1.61675 5.05508C1.21891 5.45779 0.997113 6.0019 1.00004 6.56799V13.246C1.00004 13.254 1.00004 13.26 1.00004 13.267C1.00004 13.274 1.00004 13.281 1.00004 13.289C0.993856 15.0506 1.68406 16.7432 2.92028 17.9981C4.15651 19.2531 5.83858 19.9687 7.60004 19.989L10.242 20H10.262C11.4018 19.9945 12.5211 19.6958 13.512 19.1326C14.5029 18.5693 15.3322 17.7605 15.92 16.784L18.858 11.9C19.1548 11.4065 19.2448 10.8159 19.1082 10.2565C18.9717 9.69707 18.6198 9.21422 18.129 8.91299ZM17.788 11.259L14.85 16.139C14.3735 16.9312 13.7011 17.5875 12.8976 18.0447C12.0941 18.502 11.1865 18.7449 10.262 18.75H10.246L7.60804 18.742C6.17602 18.7243 4.80908 18.1411 3.80535 17.1196C2.80162 16.0981 2.24254 14.7211 2.25004 13.289C2.25004 13.281 2.25004 13.275 2.25004 13.267C2.25004 13.259 2.25004 13.254 2.25004 13.246V6.56799C2.25004 6.33592 2.34223 6.11336 2.50632 5.94927C2.67042 5.78517 2.89298 5.69299 3.12504 5.69299C3.35711 5.69299 3.57967 5.78517 3.74376 5.94927C3.90785 6.11336 4.00004 6.33592 4.00004 6.56799V9.91999C4.00004 10.0857 4.06589 10.2447 4.1831 10.3619C4.30031 10.4791 4.45928 10.545 4.62504 10.545C4.7908 10.545 4.94977 10.4791 5.06698 10.3619C5.18419 10.2447 5.25004 10.0857 5.25004 9.91999V9.31999V9.30499V3.73599C5.25004 3.50392 5.34223 3.28136 5.50632 3.11727C5.67042 2.95317 5.89298 2.86099 6.12504 2.86099C6.35711 2.86099 6.57967 2.95317 6.74376 3.11727C6.90785 3.28136 7.00004 3.50392 7.00004 3.73599V9.91999C7.00004 10.0857 7.06589 10.2447 7.1831 10.3619C7.30031 10.4791 7.45928 10.545 7.62504 10.545C7.7908 10.545 7.94977 10.4791 8.06698 10.3619C8.18419 10.2447 8.25004 10.0857 8.25004 9.91999V2.14499C8.25004 2.03008 8.27267 1.9163 8.31665 1.81014C8.36062 1.70398 8.42507 1.60752 8.50632 1.52627C8.58757 1.44502 8.68403 1.38056 8.79019 1.33659C8.89635 1.29262 9.01013 1.26999 9.12504 1.26999C9.23995 1.26999 9.35373 1.29262 9.45989 1.33659C9.56605 1.38056 9.66251 1.44502 9.74376 1.52627C9.82501 1.60752 9.88946 1.70398 9.93344 1.81014C9.97741 1.9163 10 2.03008 10 2.14499V3.70699C10 3.71699 10 3.72599 10 3.73599V7.71599V7.73099V9.91999C10 10.0857 10.0659 10.2447 10.1831 10.3619C10.3003 10.4791 10.4593 10.545 10.625 10.545C10.7908 10.545 10.9498 10.4791 11.067 10.3619C11.1842 10.2447 11.25 10.0857 11.25 9.91999V3.71999C11.2511 3.60508 11.2748 3.49151 11.3197 3.38575C11.3647 3.27999 11.43 3.18412 11.512 3.10361C11.594 3.0231 11.691 2.95953 11.7976 2.91653C11.9041 2.87353 12.0181 2.85194 12.133 2.85299C12.2479 2.85404 12.3615 2.87771 12.4673 2.92265C12.573 2.9676 12.6689 3.03293 12.7494 3.11492C12.8299 3.19692 12.8935 3.29397 12.9365 3.40053C12.9795 3.50709 13.0011 3.62108 13 3.73599V12.46C13.0001 12.6124 13.0481 12.7609 13.1373 12.8844C13.2264 13.008 13.3522 13.1004 13.4968 13.1485C13.6414 13.1966 13.7974 13.198 13.9428 13.1525C14.0883 13.107 14.2157 13.0169 14.307 12.895L16.3 10.216C16.4315 10.0358 16.6259 9.91162 16.8447 9.86809C17.0635 9.82456 17.2906 9.86485 17.481 9.98099C17.6905 10.1104 17.8403 10.3174 17.8978 10.5568C17.9553 10.7961 17.9158 11.0486 17.788 11.259Z" fill="#0F1A1C"/>
</g>
<defs>
<clipPath id="clip0_3464_24">
<rect width="20" height="20" fill="white"/>
</clipPath>
</defs>
</svg>
