<svg width="20" height="20" viewBox="0 0 20 20" fill="none" xmlns="http://www.w3.org/2000/svg">
<g clip-path="url(#clip0_473_47)">
<path d="M4.88595 13.444C4.36701 13.2885 3.86823 13.0723 3.39995 12.8L1.14695 13.362C1.04227 13.3879 0.932671 13.3863 0.828782 13.3574C0.724894 13.3285 0.630237 13.2732 0.553985 13.1969C0.477733 13.1207 0.422472 13.026 0.393557 12.9221C0.364642 12.8183 0.363055 12.7087 0.388949 12.604L0.949948 10.354C0.0362578 8.79992 -0.232941 6.94998 0.199949 5.19997C0.500428 3.96481 1.14111 2.83861 2.04929 1.94916C2.95748 1.05971 4.09679 0.442643 5.33795 0.167974C6.47394 -0.0883142 7.65628 -0.0533851 8.77516 0.269517C9.89404 0.59242 10.9132 1.19282 11.7379 2.01497C12.5377 2.81615 13.1259 3.80335 13.4499 4.88797C12.727 4.8582 12.0031 4.9207 11.2959 5.07397C9.80268 5.40459 8.43199 6.14717 7.33944 7.21745C6.24689 8.28772 5.47624 9.64283 5.11495 11.129C4.93328 11.8866 4.85623 12.6655 4.88595 13.444ZM17.9859 8.26497C17.1609 7.44322 16.1418 6.84307 15.023 6.5202C13.9042 6.19732 12.722 6.16216 11.5859 6.41797C10.3453 6.69314 9.20666 7.31044 8.29905 8.19985C7.39143 9.08926 6.75119 10.2152 6.45095 11.45C6.01885 13.1986 6.28766 15.0469 7.19995 16.6L6.63595 18.852C6.60975 18.9567 6.61112 19.0664 6.63993 19.1704C6.66873 19.2745 6.72399 19.3693 6.80032 19.4456C6.87665 19.5219 6.97145 19.5772 7.07548 19.606C7.17951 19.6348 7.28923 19.6362 7.39395 19.61L9.64695 19.047C10.7002 19.6709 11.9018 20.0001 13.1259 20C13.6895 19.9994 14.2511 19.9323 14.7989 19.8C16.0342 19.5 17.1607 18.8597 18.0505 17.9519C18.9403 17.0441 19.5578 15.905 19.8329 14.664C20.0882 13.5282 20.0529 12.3463 19.7302 11.2278C19.4076 10.1093 18.808 9.09026 17.9869 8.26497H17.9859Z" fill="#0F1A1C"/>
</g>
<defs>
<clipPath id="clip0_473_47">
<rect width="20" height="20" fill="white"/>
</clipPath>
</defs>
</svg>
