<svg xmlns="http://www.w3.org/2000/svg" width="20" height="20" viewBox="0 0 20 20" fill="currentColor"><g clip-path="url(#clip0_473_44)"><path d="M17.547 5.239a5.2 5.2 0 01-1.535 3.705c-.442.441-.858.866-1.274 1.289-.438.447-.876.893-1.342 1.359a5.175 5.175 0 01-5.981.993l1.57-1.57a3.292 3.292 0 003-.838c.461-.461.9-.9 1.329-1.344.429-.444.84-.857 1.287-1.3a3.238 3.238 0 10-4.58-4.58c-.456.454-.883.89-1.311 1.326-.428.436-.856.865-1.31 1.321-.028.029-.047.063-.075.092l.038-.136-2.856 2.876a5.208 5.208 0 011.48-4.249c.45-.449.871-.879 1.293-1.309.422-.43.865-.881 1.324-1.34a5.24 5.24 0 017.408 0 5.2 5.2 0 011.535 3.705zm-4.764 8.942c-.062.074-.115.155-.184.224-.447.447-.868.876-1.287 1.3-.419.424-.868.883-1.329 1.344a3.317 3.317 0 01-4.581 0 3.244 3.244 0 010-4.58c.453-.453.88-.888 1.306-1.322.426-.434.855-.872 1.311-1.326a3.181 3.181 0 013.018-.859l1.536-1.555a5.173 5.173 0 00-5.968 1c-.459.459-.892.9-1.324 1.34-.432.44-.843.86-1.293 1.309a5.24 5.24 0 007.412 7.41c.466-.466.9-.912 1.342-1.359.416-.423.832-.848 1.274-1.289a5.2 5.2 0 001.535-3.7 5.287 5.287 0 00-.064-.655l-2.704 2.718z"/></g><defs><clipPath id="clip0_473_44"><path d="M0 0h20v20H0z"/></clipPath></defs></svg>