<svg xmlns="http://www.w3.org/2000/svg" width="20" height="20" viewBox="0 0 20 20" fill="currentColor"><path d="M17.882 14h-1.926L11.9 1.386a2 2 0 00-3.8 0L4.044 14H2.118A1.099 1.099 0 001 15.083v2.834A1.1 1.1 0 002.118 19h15.764A1.101 1.101 0 0019 17.917v-2.834A1.1 1.1 0 0017.882 14zm-5.168-6H7.286l.562-1.75h4.3L12.714 8zm.4 1.25l.564 1.75H6.322l.562-1.75h6.23zM9.289 1.769a.747.747 0 011.422 0L11.75 5h-3.5l1.039-3.231zM5.92 12.25h8.16l.562 1.75H5.358l.562-1.75zm11.83 5.5H2.25v-2.5h15.5v2.5z"/></svg>