<svg xmlns="http://www.w3.org/2000/svg" width="20" height="20" viewBox="0 0 20 20" fill="currentColor"><path d="M3.6 15.88h0V2.5h15.275a.626.626 0 01.625.626v13.748a.626.626 0 01-.625.626H2.374l-.277-.009A1.649 1.649 0 01.5 15.867V3.5h.25v12.37h0v.01a1.4 1.4 0 001.425 1.37A1.4 1.4 0 003.6 15.88zm15.15 1.37h.5V2.75H3.85v13.12c0 .23-.053.457-.152.665l-.34.715H18.75zM13.529 9.5h2.849v.25h-2.849V9.5zm-6.911 3.25v-.25H9.5v.25H6.618zm6.911-.25h2.849v.25h-2.849v-.25zm2.847-5.75H6.618V6.5h9.758v.25zm-6.876 3H6.618V9.5H9.5v.25z"/></svg>