<svg xmlns="http://www.w3.org/2000/svg" width="20" height="20" viewBox="0 0 20 20" fill="currentColor"><path d="M18.485 9.43h-1.002A7.436 7.436 0 0010 2.5a7.436 7.436 0 00-7.483 6.93H1.515A8.437 8.437 0 019.996 1.5h.008a8.437 8.437 0 018.481 7.93zm-13.87 1.164v0h.009A1.842 1.842 0 016.5 12.456h0V15.527h0v.008a1.93 1.93 0 01-1.89 1.96H4.51A1.025 1.025 0 013.5 16.457h0V11.543a.945.945 0 01.984-.948h.131zm10.761 0H15.519a.945.945 0 01.981.948v4.917a1.025 1.025 0 01-1.009 1.035h-.101a1.929 1.929 0 01-1.89-1.959h0v-3.074h0v-.005a1.843 1.843 0 011.876-1.862zM1.5 11.5v4.756h-1V11.5h1zm18 4.756h-1V11.5h1v4.756z"/></svg>