<svg xmlns="http://www.w3.org/2000/svg" width="20" height="20" viewBox="0 0 20 20" fill="currentColor"><g clip-path="url(#clip0_472_1144)"><path d="M10 19c-.202 0-.4-.053-.574-.155C7.942 17.982.512 13.4.021 7.863a5.355 5.355 0 014.67-5.8A5.684 5.684 0 0110 4.125a5.674 5.674 0 015.308-2.062 5.355 5.355 0 014.67 5.8c-.492 5.533-7.92 10.119-9.406 10.982A1.14 1.14 0 0110 19zM5.546 3.251a4.7 4.7 0 00-.677.049 4.118 4.118 0 00-3.6 4.452C1.7 12.61 8.49 16.849 10 17.733c1.51-.885 8.3-5.124 8.733-9.981A4.12 4.12 0 0015.13 3.3a4.375 4.375 0 00-4.573 2.267.65.65 0 01-1.115 0 4.325 4.325 0 00-3.896-2.316z"/></g><defs><clipPath id="clip0_472_1144"><path d="M0 0h20v20H0z"/></clipPath></defs></svg>