<svg xmlns="http://www.w3.org/2000/svg" width="20" height="20" viewBox="0 0 20 20" fill="currentColor"><path d="M19 8.5h.5v5h-1v1.874a2.129 2.129 0 01-2.126 2.126H2.626A2.129 2.129 0 01.5 15.375V6.626a2.1 2.1 0 01.314-1.094l.075-.12v-.5l-.005-.034a1.864 1.864 0 011.55-2.096h0L14.457.837h0a1.864 1.864 0 012.138 1.543h0l.312 1.908.044.272.253.108A2.13 2.13 0 0118.5 6.625V8.5h.5zM1.42 3.681l-.013.018-.011.019c-.053.09-.097.186-.131.285L.922 5.006l.992-.373c.228-.086.47-.13.713-.133h14.061l-.095-.58-.244-1.5s0 0 0 0a1.612 1.612 0 00-1.852-1.337s0 0 0 0L2.475 3.029h-.002a1.6 1.6 0 00-1.054.653zm16.83 11.69v0V13.5H14a2.5 2.5 0 010-5h4.25V6.625v0a1.877 1.877 0 00-1.874-1.875H2.625h0A1.877 1.877 0 00.75 6.624v8.753a1.877 1.877 0 001.874 1.869h13.751a1.877 1.877 0 001.875-1.874zm1-2.125v-4.5H14a2.25 2.25 0 000 4.5h5.25z"/><path d="M15.255 11.036a.75.75 0 11-1.5 0 .75.75 0 011.5 0z"/></svg>