<svg xmlns="http://www.w3.org/2000/svg" width="20" height="20" viewBox="0 0 20 20" fill="currentColor"><path d="M4.47 7.123l2.653-1.26h.47V14.5H6.15V7.668l-1.68.8V7.123zm9.9 3.69a2.288 2.288 0 01-.02 2.54 2.7 2.7 0 01-1.085.91 3.699 3.699 0 01-3.068 0A2.774 2.774 0 019.1 13.35a2.253 2.253 0 01-.019-2.532c.257-.383.61-.69 1.025-.893A2.372 2.372 0 019.4 9.11a2.21 2.21 0 01-.257-1.048 2.1 2.1 0 01.342-1.175c.233-.353.557-.637.938-.82.409-.202.86-.305 1.315-.3.451-.005.897.098 1.3.3.377.185.697.468.926.82.227.352.345.762.34 1.18a2.2 2.2 0 01-.255 1.05 2.3 2.3 0 01-.706.8c.415.202.77.512 1.026.896zM12.54 13.2c.235-.11.437-.28.583-.495.142-.207.216-.454.214-.705a1.267 1.267 0 00-.205-.7 1.468 1.468 0 00-.57-.51 1.776 1.776 0 00-.83-.19c-.29-.004-.577.061-.836.19a1.5 1.5 0 00-.583.513 1.262 1.262 0 00.003 1.4c.147.216.348.388.583.5.256.124.537.186.821.182a1.86 1.86 0 00.82-.185zm-1.474-6.083a1.194 1.194 0 00-.468.422 1.11 1.11 0 00-.173.615c-.002.224.058.444.173.636.113.192.275.35.468.46.201.114.429.173.66.17.23.002.456-.055.656-.167a1.233 1.233 0 00.638-1.099 1.132 1.132 0 00-.635-1.037 1.507 1.507 0 00-1.319 0zM10 19.988a4.616 4.616 0 01-3.27-1.352l-5.366-5.365a4.627 4.627 0 010-6.542L6.73 1.364a4.634 4.634 0 016.542 0l5.366 5.365a4.634 4.634 0 010 6.542l-5.366 5.365a4.615 4.615 0 01-3.27 1.352zm0-18.726a3.362 3.362 0 00-2.386.987L2.25 7.614a3.374 3.374 0 000 4.772l5.366 5.365a3.38 3.38 0 004.773 0l5.365-5.365a3.375 3.375 0 000-4.772L12.387 2.25A3.364 3.364 0 0010 1.262z"/></svg>