<svg xmlns="http://www.w3.org/2000/svg" width="20" height="20" viewBox="0 0 20 20" fill="currentColor"><g clip-path="url(#clip0_616_14)"><path d="M.338 2.736L.081 1.513A23.813 23.813 0 015 1v1.25c-1.567 0-3.129.163-4.662.486zM9.843 20h2.613A6.674 6.674 0 0019 13.246v-3.023A2.12 2.12 0 0016.89 8.1c-.367 0-.727.096-1.044.279a2.113 2.113 0 00-1.926-1.258c-.357 0-.709.09-1.02.265a2.112 2.112 0 00-1.949-1.31 1.942 1.942 0 00-.7.127V2.245A2.258 2.258 0 007.981.121a1.906 1.906 0 00-1.457.653A2.235 2.235 0 006 2.246v8.77L4.848 9.471a2.124 2.124 0 00-2.812-.552 2.163 2.163 0 00-.725 2.965L4.22 16.7A6.659 6.659 0 009.825 20h.018zm-6-9.782l1.972 2.644a.816.816 0 00.914.244.72.72 0 00.518-.677V2.245a.981.981 0 01.22-.645.65.65 0 01.514-.225A1.021 1.021 0 019 2.246V8.2h1.25c-.009-.237.065-.469.208-.657a.615.615 0 01.493-.217.88.88 0 01.86.92v1h1.25a.857.857 0 01.86-.89.86.86 0 01.86.89v.977h1.25a.86.86 0 111.72 0v3.023a5.488 5.488 0 01-5.3 5.5H9.84a5.376 5.376 0 01-4.55-2.691l-2.91-4.818a.911.911 0 01.3-1.249.876.876 0 011.162.23z"/></g><defs><clipPath id="clip0_616_14"><path d="M0 0h20v20H0z"/></clipPath></defs></svg>