<svg xmlns="http://www.w3.org/2000/svg" width="20" height="20" viewBox="0 0 20 20" fill="currentColor"><g clip-path="url(#clip0_609_349)"><path d="M20 7h-1.016V1.271A1.127 1.127 0 0017.833.147c-.198.006-.391.064-.559.17l-3.9 2.458a11.016 11.016 0 00-6.7 0L2.771.317a1.107 1.107 0 00-1.55.381 1.128 1.128 0 00-.156.573v7.013a7.09 7.09 0 00-.489 2.591 7.545 7.545 0 002.804 5.779A10.231 10.231 0 0010.025 19c2.423.03 4.778-.802 6.645-2.346A7.7 7.7 0 0019.375 12H20V7zM6.518 4.154l.286-.1a9.711 9.711 0 016.442 0l.286.1 4.2-2.648V7H13v1h-2V7H4v1H2.272l.043-6.493 4.203 2.647zM15.861 15.7a8.99 8.99 0 01-5.836 2.048A8.987 8.987 0 014.19 15.7a6.32 6.32 0 01-2.364-4.827 5.82 5.82 0 01.26-1.623H4V12h7V9.25h2V12h5.107a6.516 6.516 0 01-2.246 3.7zm-4.522-1.125l.322 1.208a6.46 6.46 0 01-1.66.217 6.127 6.127 0 01-4.27-1.678l.873-.893a5.1 5.1 0 004.735 1.148v-.002z"/></g><defs><clipPath id="clip0_609_349"><path d="M0 0h20v20H0z"/></clipPath></defs></svg>