<svg xmlns="http://www.w3.org/2000/svg" width="20" height="20" viewBox="0 0 20 20" fill="currentColor"><g clip-path="url(#clip0_3595_201)"><path d="M0 8.014v3.861-3.86zm0 0a1.129 1.129 0 01.545-.973 1.147 1.147 0 011.134-.035L0 8.014zm19.472 3.861h-.222v-.062h-6.983l1.23-1.231.354-.354-.353-.353-1.061-1.061-.354-.354-.354.354-2.996 3H8.1l2.273-2.276.353-.353-.354-.354-1.06-1.06-.354-.353-.354.354-4.037 4.041H.75v.062H.5v-3.86h0V8.01a.629.629 0 01.304-.542h0l.002-.001a.647.647 0 01.64-.02h0a4.984 4.984 0 005.3-.421l.025-.019.023-.021c.354-.341.69-.7 1.006-1.076l.27-.321-.27-.322-1.017-1.215h0L6.78 4.05a.125.125 0 01.184-.168h0l.003.002 1.989 1.994.073.073.095.038 8.363 3.35h.002a3.185 3.185 0 011.983 2.537zM.5 15.5v-1h19v1H.5z"/></g><defs><clipPath id="clip0_3595_201"><path d="M0 0h20v20H0z"/></clipPath></defs></svg>