<svg xmlns="http://www.w3.org/2000/svg" width="20" height="20" viewBox="0 0 20 20" fill="currentColor"><path d="M10.7 12.633c.034.124.072.247.116.367l.373-.472m-.489.105l.493-.084a.876.876 0 01-.003-.021m-.49.105l.483-.13.007.025m-.49.105a1.85 1.85 0 01-.008-.05c-.004-.028-.008-.055-.014-.083h.507a2.5 2.5 0 01.005.028M.864 13H8.63a4.212 4.212 0 01-4.637 2.442h0l-.009-.002A4.176 4.176 0 01.864 13zm17.99-7.5v0h.007a.631.631 0 01.639.617V7.5H.5V6.117a.631.631 0 01.64-.617h17.714zm-3.564 10h-.001a4.877 4.877 0 01-1.48-.232A4.012 4.012 0 0111.353 13h7.848a3.9 3.9 0 01-1.325 1.662h0l-.004.002c-.75.547-1.654.84-2.582.836zM.5 10h19v.5H.5V10z"/></svg>