<svg xmlns="http://www.w3.org/2000/svg" width="20" height="20" viewBox="0 0 20 20" fill="currentColor"><path d="M6.75 8.5A3.254 3.254 0 0010 11.75a3.213 3.213 0 001.7-.492L7.242 6.8c-.32.51-.49 1.098-.492 1.7zM10 5.25a3.213 3.213 0 00-1.7.492l4.458 4.458c.32-.51.49-1.098.492-1.7A3.254 3.254 0 0010 5.25z"/><path d="M16.377 1H3.623A2.626 2.626 0 001 3.623v9.8A2.581 2.581 0 003.578 16h3.434v2.664a1.119 1.119 0 001.113 1.118c.288-.004.565-.115.776-.311L12.331 16h4.046A2.626 2.626 0 0019 13.377V3.623A2.626 2.626 0 0016.377 1zM10 13.25a4.75 4.75 0 114.75-4.75A4.756 4.756 0 0110 13.25z"/></svg>