<svg xmlns="http://www.w3.org/2000/svg" width="20" height="20" viewBox="0 0 20 20" fill="currentColor"><path d="M2.625 15.375V16A1.627 1.627 0 011 14.375V2.624A1.627 1.627 0 012.625 1h11.75A1.627 1.627 0 0116 2.624H5.629a3.008 3.008 0 00-3 3l-.004 9.751zM19 5.625v11.75A1.627 1.627 0 0117.375 19H5.625A1.627 1.627 0 014 17.375V5.625A1.627 1.627 0 015.625 4h11.75A1.627 1.627 0 0119 5.625zM15.418 11.5a.622.622 0 00-.286-.525L8.964 7A.626.626 0 008 7.521v7.958a.626.626 0 00.964.526l6.168-3.98a.623.623 0 00.286-.525z"/></svg>