<svg xmlns="http://www.w3.org/2000/svg" width="20" height="20" viewBox="0 0 20 20" fill="currentColor"><path d="M18.854 5.5v0h.007a.631.631 0 01.639.617v5.706l-.059.341a3.88 3.88 0 01-1.565 2.498h0l-.004.002c-.75.547-1.654.84-2.582.836h0c-.5-.002-.997-.08-1.473-.233a4.012 4.012 0 01-2.715-3.193v-.002c-.063-.397-.136-.747-.3-.989a.838.838 0 00-.395-.319 1.115 1.115 0 00-.407-.066.875.875 0 00-.785.41c-.156.239-.242.584-.318 1v.002a4.976 4.976 0 01-.07.341 4.21 4.21 0 01-4.834 2.99h0l-.01-.001A4.173 4.173 0 01.5 11.367v-5.25a.631.631 0 01.64-.617h17.714zM1.385 11.75H.727l.176.634a3.914 3.914 0 003.109 2.808 4 4 0 004.552-2.73l.004-.015.004-.015.012-.055.004-.016.138-.61H1.385zm16.338 2.72l.884-.63-.172-.043c.338-.414.584-.899.717-1.424l.157-.623H11.4v.573l.016.061a3.768 3.768 0 002.467 2.643 4.246 4.246 0 003.84-.558zm1.027-2.97h.5V8.75H.75v2.75h8.034l.12-.326a1.11 1.11 0 011.08-.724h.044a1.1 1.1 0 011.094.721l.12.33h7.508zM.75 8v.5h18.5V5.75H.75V8z"/></svg>