<svg xmlns="http://www.w3.org/2000/svg" width="20" height="20" viewBox="0 0 20 20" fill="currentColor"><path d="M4.741 10.594v0h.013a2.044 2.044 0 012.096 1.975v2.85a2.043 2.043 0 01-2.096 1.975h0-.137v0h-.011A1.082 1.082 0 013.5 16.346v-4.695a1.087 1.087 0 011.107-1.057h.134zm1.858 4.864l.001-.015v-2.898l-.001-.016a1.8 1.8 0 00-1.869-1.684h-.098a.844.844 0 00-.878.737l-.004.032v4.771l.004.032a.836.836 0 00.883.727h.093A1.8 1.8 0 006.6 15.458zM18.25 9.477v-.019A8.011 8.011 0 0010 1.75a8.011 8.011 0 00-8.25 7.708V9.6H1.5v-.115A8.26 8.26 0 019.986 1.5h.028A8.26 8.26 0 0118.5 9.485V9.6h-.25v-.123zm-4.461 1.673c.329-.311.75-.503 1.196-.548l.408-.008A1.087 1.087 0 0116.5 11.65v4.695a1.082 1.082 0 01-1.106 1.046h0-.135v0h-.013a2.044 2.044 0 01-2.096-1.975v-2.85a2.044 2.044 0 01.639-1.417zm2.457 5.265l.004-.032v-4.77l-.004-.032a.844.844 0 00-.878-.737h-.098A1.8 1.8 0 0013.4 12.53l-.001.015v2.898l.001.016a1.8 1.8 0 001.869 1.683h.093a.836.836 0 00.883-.727zM.5 11.441h.25v4.874H.5v-4.874zm19 0v4.874h-.25v-4.874h.25z"/></svg>