<svg xmlns="http://www.w3.org/2000/svg" width="20" height="20" viewBox="0 0 20 20" fill="currentColor"><g clip-path="url(#clip0_1581_896)"><path d="M13.464 11.237h0a1 1 0 01-.273-.907h0l.002-.01a.967.967 0 01.049-.176c.03-.064.063-.126.1-.185a.527.527 0 01.098-.113l.006-.006.006-.006a1.048 1.048 0 011.436 0h0l.007.007c.034.03.064.067.087.106l.009.015.01.013c.034.05.063.104.086.16h0l.005.013c.026.06.046.122.06.185a1 1 0 01-1.688.904zM5.447 9.604l.01-.004.01-.005a.79.79 0 01.167-.054 1.03 1.03 0 01.904.283 1 1 0 01.272.899l-.001.007-.001.008a.79.79 0 01-.046.164c-.029.062-.06.121-.096.18-.041.055-.086.109-.134.16a.98.98 0 01-.89.268h-.003a.79.79 0 01-.172-.056l-.006-.003-.007-.002a1.008 1.008 0 01-.448-.368l-.01-.013-.009-.013a.412.412 0 01-.063-.118l-.008-.021-.009-.02a.87.87 0 01-.076-.368 1 1 0 01.293-.704h0l.006-.006a.865.865 0 01.145-.12h0l.012-.008a.8.8 0 01.16-.086zM19.5 2.667v7.816l-.025.08.006.09.008.118c.006.09.011.162.011.24v.168l-.003.015-.01.044-.004.045a6.786 6.786 0 01-2.763 5.023h0l-.006.005a10.866 10.866 0 01-6.707 2.189h-.015a10.866 10.866 0 01-6.706-2.188h0l-.006-.005a6.78 6.78 0 01-2.763-5.029l-.003-.048-.012-.046a.078.078 0 01-.002-.007v-.164c0-.081.005-.158.012-.253l.006-.096.006-.09-.025-.081V2.667h0a.6.6 0 01.251-.49V8.75l.911-1.315c.226-.326.476-.633.75-.92h0l.085-.089.178.171-.082.086a6.227 6.227 0 00-1.844 4.327h0v.065l.001.019.007.09v.016a6.542 6.542 0 002.704 4.932A10.613 10.613 0 0010 18.25a10.613 10.613 0 006.54-2.12 6.544 6.544 0 002.7-4.922v-.024l.003-.035.002-.038.002-.026.001-.016v-.049h0v-.008a6.227 6.227 0 00-1.844-4.327l-.082-.086.178-.17.084.088h.001c.274.287.525.594.75.92l.911 1.316V2.174a.6.6 0 01.254.491v.002zm-4.909 1.6l3.946-2.136s0 0 0 0a.674.674 0 01.52-.05l-.553.305-4.053 2.24a.119.119 0 01-.123-.009l-.11-.078-.133-.014a11.657 11.657 0 00-8.174-.001l-.132.015-.108.078a.121.121 0 01-.127.01L1.489 2.427l-.601-.326a.676.676 0 01.576.03s0 0 0 0L5.41 4.267l.2.108.213-.08a11.914 11.914 0 018.356 0l.213.08.2-.108zm-3.945 8.096v.25H9.355v-.25h1.292z"/></g><defs><clipPath id="clip0_1581_896"><path d="M0 0h20v20H0z"/></clipPath></defs></svg>