<svg xmlns="http://www.w3.org/2000/svg" width="20" height="20" viewBox="0 0 20 20" fill="currentColor"><path d="M17.375 1h-3.83v1.25h3.83a.375.375 0 01.375.375v14.75a.371.371 0 01-.3.36L7.2 14.079v.611a3.053 3.053 0 01-2.7 3.023 2.608 2.608 0 01-2.25-2.576V2.625a.375.375 0 01.375-.375h3.6V1h-3.6A1.627 1.627 0 001 2.625v12.512a3.866 3.866 0 003.14 3.79s.608.073.723.073h12.512A1.627 1.627 0 0019 17.375V2.625A1.627 1.627 0 0017.375 1zM8.36 15.667l5.658 2.083H7.151a4 4 0 001.209-2.083zm3.684-13.248a2.044 2.044 0 11-4.088 0 2.044 2.044 0 014.088 0zm-.358 9.831H6V11h5.686v1.25zm2.314-3H6V8h8v1.25z"/></svg>