<svg xmlns="http://www.w3.org/2000/svg" width="20" height="20" viewBox="0 0 20 20" fill="currentColor"><g clip-path="url(#clip0_472_1129)"><path d="M10.513 5.629l3.929 3.929-.884.884-2.933-2.933V19h-1.25V7.509l-2.933 2.933-.884-.884L9.67 5.446l.589-.029.254.212zm5.859-1.481A6.876 6.876 0 0010 0a6.876 6.876 0 00-6.372 4.148A4.639 4.639 0 000 8.625a4.716 4.716 0 004.792 4.625V12A3.465 3.465 0 011.25 8.625 3.412 3.412 0 014.189 5.31l.364-.06.123-.35A5.607 5.607 0 0110 1.25a5.607 5.607 0 015.324 3.65l.123.348.364.06a3.412 3.412 0 012.939 3.317A3.465 3.465 0 0115.208 12v1.25A4.716 4.716 0 0020 8.625a4.639 4.639 0 00-3.628-4.477z"/></g><defs><clipPath id="clip0_472_1129"><path d="M0 0h20v20H0z"/></clipPath></defs></svg>