<svg xmlns="http://www.w3.org/2000/svg" width="20" height="20" viewBox="0 0 20 20" fill="currentColor"><g clip-path="url(#clip0_473_26)"><path d="M4.886 13.444A6.886 6.886 0 013.4 12.8l-2.253.562A.617.617 0 01.55 13.2a.625.625 0 01-.165-.593l.564-2.253A6.9 6.9 0 01.2 5.2 6.8 6.8 0 015.338.168a6.918 6.918 0 016.4 1.847c.8.8 1.388 1.788 1.712 2.873a8.538 8.538 0 00-1.3.056A5.585 5.585 0 0010.853 2.9 5.672 5.672 0 005.6 1.389a5.54 5.54 0 00-4.187 4.1 5.653 5.653 0 00.729 4.421.624.624 0 01.08.489l-.374 1.5 1.5-.374a.626.626 0 01.489.082c.346.222.715.405 1.1.546-.05.428-.068.86-.051 1.291zM14.8 19.8a6.8 6.8 0 005.034-5.136 6.888 6.888 0 00-8.245-8.245A6.8 6.8 0 006.45 11.45 6.9 6.9 0 007.2 16.6l-.564 2.252a.625.625 0 00.758.758l2.253-.563a6.824 6.824 0 003.479.953 7.15 7.15 0 001.674-.2zm-5.2-2.026l-1.5.374.374-1.5a.624.624 0 00-.08-.489 5.653 5.653 0 01-.729-4.421 5.541 5.541 0 014.187-4.1A5.64 5.64 0 0118.61 14.4a5.543 5.543 0 01-4.1 4.187 5.644 5.644 0 01-4.42-.729.654.654 0 00-.492-.084z"/></g><defs><clipPath id="clip0_473_26"><path d="M0 0h20v20H0z"/></clipPath></defs></svg>