<svg xmlns="http://www.w3.org/2000/svg" width="20" height="20" viewBox="0 0 20 20" fill="currentColor"><path d="M17.75 1v.5h1.625a.125.125 0 01.125.125v16.75a.125.125 0 01-.125.125H17.75v1h-.25v-1h-1.875a.125.125 0 01-.125-.125V16.5h-11v1.875a.125.125 0 01-.125.125H2.75v1H2.5v-1H.625a.125.125 0 01-.125-.125V1.625A.125.125 0 01.625 1.5H2.5v-1h.25v1h1.625a.125.125 0 01.125.125V3.5h11V1.625a.125.125 0 01.125-.125H17.5v-1h.25V1zm-14 17.25h.5V1.75H.75v16.5h3zm.75-2.5v.5h11V3.75h-11v12zm14.25 2.5h.5V1.75h-3.5v16.5h3zM8.282 7.525h3.436v.25H8.282v-.25zm0 4h3.436v.25H8.282v-.25z"/></svg>