<svg xmlns="http://www.w3.org/2000/svg" width="20" height="20" viewBox="0 0 20 20" fill="currentColor"><g clip-path="url(#clip0_1581_844)"><path d="M5.613 3.627v-1.25h-.5A1.377 1.377 0 013.738 1V.5h-1.25V1a1.377 1.377 0 01-1.375 1.377h-.5v1.25h.5A1.376 1.376 0 012.488 5v.5h1.25V5a1.376 1.376 0 011.375-1.373h.5zm-2.5-.327a2.6 2.6 0 00-.3-.3c.108-.092.208-.192.3-.3.092.108.193.208.3.3a2.682 2.682 0 00-.3.3zm15.748 1.576v1.25h-.3a.576.576 0 00-.575.575v.3h-1.25v-.3a.576.576 0 00-.575-.576h-.3V4.876h.3a.575.575 0 00.575-.575v-.3h1.25v.3a.575.575 0 00.575.574l.3.001zM13.374 8H13V1.4A1.391 1.391 0 0012.13.1a1.316 1.316 0 00-1.466.327L7.6 3.654a2.176 2.176 0 00-.6 1.51V8h-.375A1.627 1.627 0 005 9.626v8.75A1.627 1.627 0 006.624 20h6.75A1.627 1.627 0 0015 18.375V9.626A1.627 1.627 0 0013.374 8zM8.25 5.164a.945.945 0 01.25-.648l3.165-3.257a.14.14 0 01.082.144V8H8.25V5.164zm5.5 13.211a.375.375 0 01-.375.375h-6.75a.375.375 0 01-.375-.375V9.626a.375.375 0 01.375-.375h6.75a.375.375 0 01.375.375v8.75zM10.734 11.1h1.25v5.821h-1.25v-5.82z"/></g><defs><clipPath id="clip0_1581_844"><path d="M0 0h20v20H0z"/></clipPath></defs></svg>