<svg xmlns="http://www.w3.org/2000/svg" width="20" height="20" viewBox="0 0 20 20" fill="currentColor"><path d="M11.75 12.25h.5v-4.5h-4.5v4.5h4zm4.75-5.875v.5h2v.25h-2v2.75h2v.25h-2v2.75h2v.25h-2v2.25a1.127 1.127 0 01-1.126 1.125h-2.249v2h-.25v-2h-2.75v2h-.25v-2h-2.75v2h-.25v-2h-2.25A1.127 1.127 0 013.5 15.375v-2.25h-2v-.25h2v-2.75h-2v-.25h2v-2.75h-2v-.25h2v-2.25A1.127 1.127 0 014.625 3.5h2.25v-2h.25v2h2.75v-2h.25v2h2.75v-2h.25v2h2.25A1.127 1.127 0 0116.5 4.626v1.749zM7.684 7.684a.627.627 0 01.441-.184h3.75a.627.627 0 01.625.625s0 0 0 0v3.75s0 0 0 0a.627.627 0 01-.625.625s0 0 0 0h-3.75s0 0 0 0a.627.627 0 01-.625-.625v-3.75c0-.165.066-.324.184-.441zm8.31 8.31a.875.875 0 00.256-.619V4.625a.875.875 0 00-.875-.875H4.625a.875.875 0 00-.875.875v10.75a.875.875 0 00.875.875h10.75a.875.875 0 00.619-.256z"/></svg>