<svg xmlns="http://www.w3.org/2000/svg" width="20" height="20" viewBox="0 0 20 20" fill="currentColor"><path d="M14.268 6.335a4.621 4.621 0 10-8.54 3.534 4.621 4.621 0 008.54-3.534zM10 11.483A3.39 3.39 0 016.62 8.1a3.281 3.281 0 01.6-1.9l4.68 4.68a3.281 3.281 0 01-1.9.603zM12.78 10L8.1 5.323a3.281 3.281 0 011.9-.6A3.39 3.39 0 0113.38 8.1a3.281 3.281 0 01-.6 1.9zm4.1-10H4.625A2.624 2.624 0 002 2.618v14.708h.018c0 .061-.018.118-.018.18A2.5 2.5 0 004.5 20h12.375A1.125 1.125 0 0018 18.878V1.122A1.125 1.125 0 0016.875 0h.005zm-.13 18.753H4.5a1.247 1.247 0 010-2.494h12.25v2.494zM4.5 15.012c-.44.002-.872.122-1.25.347V2.618a1.375 1.375 0 011.375-1.371H16.75v13.765H4.5z"/></svg>