<svg xmlns="http://www.w3.org/2000/svg" width="20" height="20" viewBox="0 0 20 20" fill="currentColor"><g clip-path="url(#clip0_1581_857)"><path d="M9.842 6.08h.014l-.034.5c.03 0 .06 0 .09.002l.09.003a2.6 2.6 0 001.791-.709 2.634 2.634 0 00.831-1.916M9.842 6.08c.035 0 .068.001.092.003h.003l.064.002h.002a2.1 2.1 0 001.447-.573h0a2.134 2.134 0 00.674-1.54M9.842 6.079a2.015 2.015 0 01-1.473-.818h0l-.001-.002a2.421 2.421 0 01-.429-1.93 3.842 3.842 0 011.703-2.303h0l.01-.007a.631.631 0 01.69 0l.008.005.008.005a3.655 3.655 0 011.766 2.943M9.842 6.079L10.616.6a4.156 4.156 0 012.008 3.36m-.5.012v.012l.5-.024m-.5.012v-.013l.5.001m-4.43-.614l-.005.014-.003.015A2.15 2.15 0 008.555 5.1a1.779 1.779 0 001.306.73h.002a1.876 1.876 0 002.011-1.87v-.017l-.001-.018a3.4 3.4 0 00-1.612-2.66L9.994 1.1l-.264.169a3.622 3.622 0 00-1.536 2.077zM7.732 8.5H12.266A1.193 1.193 0 0113.5 9.636v6.824h-.25V9.625c0-.3-.17-.527-.347-.662a1.088 1.088 0 00-.653-.213h-4.5c-.237 0-.47.075-.652.212a.835.835 0 00-.348.663v6.835H6.5V9.636A1.193 1.193 0 017.732 8.5zm-6.267 7.798l.236-.082.041.118h0l.003.008a4.45 4.45 0 004.24 2.908h8.028a4.449 4.449 0 004.24-2.908h0l.003-.008.041-.118.236.082-.04.115a4.7 4.7 0 01-4.47 3.087h0-8.042v0h-.006a4.7 4.7 0 01-4.47-3.087l-.04-.115z"/></g><defs><clipPath id="clip0_1581_857"><path d="M0 0h20v20H0z"/></clipPath></defs></svg>