<svg xmlns="http://www.w3.org/2000/svg" width="20" height="20" viewBox="0 0 20 20" fill="currentColor"><g clip-path="url(#clip0_1118_398)"><path d="M12.857 18H1.126A1.121 1.121 0 010 16.886V7.114A1.121 1.121 0 011.126 6h11.731a1.122 1.122 0 011.127 1.114v1.3L15.9 7.2a1.13 1.13 0 01.61-.18L18.866 7a1.06 1.06 0 01.806.328 1.101 1.101 0 01.328.787v7.772a1.1 1.1 0 01-.328.785 1.121 1.121 0 01-.8.328h-.008l-2.355-.017a1.13 1.13 0 01-.609-.183l-1.919-1.214v1.3A1.122 1.122 0 0112.857 18zM1.25 16.75h11.484v-1.4a1.113 1.113 0 01.581-.975 1.135 1.135 0 011.159.041l2.107 1.335h2.169V8.218l-2.2.05-2.076 1.315a1.136 1.136 0 01-1.583-.367 1.113 1.113 0 01-.157-.567V7.25H1.25v9.5zm3.375-13.5h9.325V2H4.625A2.629 2.629 0 002 4.625V5h1.25v-.375A1.377 1.377 0 014.625 3.25z"/></g><defs><clipPath id="clip0_1118_398"><path d="M0 0h20v20H0z"/></clipPath></defs></svg>