<svg xmlns="http://www.w3.org/2000/svg" width="20" height="20" viewBox="0 0 20 20" fill="currentColor"><g clip-path="url(#clip0_472_1137)"><path d="M10 20a1.122 1.122 0 01-.834-.372l-7.872-8.581A1.251 1.251 0 011.118 9.7 1.114 1.114 0 012.123 9H6V2.123A1.125 1.125 0 017.123 1h5.754A1.125 1.125 0 0114 2.123V9h3.874a1.114 1.114 0 011.007.7 1.25 1.25 0 01-.171 1.345l-7.876 8.589A1.128 1.128 0 0110 20zm-7.684-9.75L10 18.69l7.74-8.44h-4.99v-8h-5.5v8H2.316zm15.469-.05c-.01 0-.014.007-.012.013l.012-.013z"/></g><defs><clipPath id="clip0_472_1137"><path d="M0 0h20v20H0z"/></clipPath></defs></svg>