<svg xmlns="http://www.w3.org/2000/svg" width="20" height="20" viewBox="0 0 20 20" fill="currentColor"><path d="M9 2.188v5.624A1.185 1.185 0 017.819 9H2.181A1.185 1.185 0 011 7.812V2.188A1.185 1.185 0 012.181 1h5.638A1.185 1.185 0 019 2.188zM17.819 1h-5.638A1.185 1.185 0 0011 2.188v5.624A1.185 1.185 0 0012.181 9h5.638A1.185 1.185 0 0019 7.812V2.188A1.185 1.185 0 0017.819 1zm-10 10H2.181A1.185 1.185 0 001 12.188v5.624A1.185 1.185 0 002.181 19h5.638A1.185 1.185 0 009 17.812v-5.624A1.185 1.185 0 007.819 11zm10 0h-5.638A1.185 1.185 0 0011 12.188v5.624A1.185 1.185 0 0012.181 19h5.638A1.185 1.185 0 0019 17.812v-5.624A1.185 1.185 0 0017.819 11z"/></svg>