<svg xmlns="http://www.w3.org/2000/svg" width="20" height="20" viewBox="0 0 20 20" fill="currentColor"><g clip-path="url(#clip0_616_24)"><path d="M18.838 3.631a4.228 4.228 0 00-2.469-2.469 18.116 18.116 0 00-12.738 0 4.228 4.228 0 00-2.469 2.469 18.033 18.033 0 000 12.737 4.226 4.226 0 002.469 2.47 18.035 18.035 0 0012.738 0 4.226 4.226 0 002.469-2.469 18.035 18.035 0 000-12.738zm-1.17 12.3a2.978 2.978 0 01-1.739 1.739 16.858 16.858 0 01-11.858 0 2.98 2.98 0 01-1.739-1.74 16.783 16.783 0 010-11.857 2.978 2.978 0 011.739-1.741 16.785 16.785 0 0111.858 0 2.978 2.978 0 011.739 1.739 16.785 16.785 0 010 11.858v.002z"/><path d="M14 9.392L8.119 5.6A.725.725 0 007 6.2v7.6a.725.725 0 001.118.609L14 10.608a.825.825 0 00.333-.608.827.827 0 00-.333-.608zm-5.75 3.441V7.167L12.64 10l-4.39 2.833z"/></g><defs><clipPath id="clip0_616_24"><path d="M0 0h20v20H0z"/></clipPath></defs></svg>