<svg xmlns="http://www.w3.org/2000/svg" width="20" height="20" viewBox="0 0 20 20" fill="currentColor"><g clip-path="url(#clip0_1581_886)"><path d="M17.372 4.362h0l.006.003a.589.589 0 01.3.669v.004a.607.607 0 01-.6.462h0H2.93v0h-.008a.607.607 0 01-.6-.462h0v-.004a.589.589 0 01.3-.67h0l.005-.002L9.698.575s0 0 0 0a.641.641 0 01.604 0s0 0 0 0l7.07 3.787zM3.375 7.75h-.7V7.5h14.65v.25h-1.2v6.675h-.25V7.75h-3.75v6.675h-.25V7.75h-3.75v6.675h-.25V7.75h-3.75v6.675h-.25V7.75h-.5zm-.12-3.441l.236.94H16.51l.236-.94L10.236.824 10 .698l-.236.126-6.509 3.485zm15.928 13.83l-.202.146-.96-1.328-.15-.207H2.129l-.15.207-.96 1.328-.202-.146 1.028-1.423a.654.654 0 01.472-.216h15.372a.629.629 0 01.421.16l1.073 1.48z"/></g><defs><clipPath id="clip0_1581_886"><path d="M0 0h20v20H0z"/></clipPath></defs></svg>