<svg xmlns="http://www.w3.org/2000/svg" width="20" height="20" viewBox="0 0 20 20" fill="currentColor"><path d="M11.261 13.02l-.685 1.606a3.168 3.168 0 01-.948-.5 1.524 1.524 0 01-.5-.665h-.04c-.309.361-.69.652-1.121.854a3.44 3.44 0 01-1.485.311 3.315 3.315 0 01-1.614-.386 2.722 2.722 0 01-1.109-1.13 3.689 3.689 0 01-.4-1.783V6.1h1.856v5.038c-.009.34.064.678.213.985.132.268.34.49.6.637.274.15.582.226.894.22.337.008.67-.078.961-.248a1.66 1.66 0 00.626-.669 2 2 0 00.217-.925V6.1h1.857v5.771c-.005.19.014.378.056.563a.69.69 0 00.2.342c.125.106.268.188.422.244zM17 1.416l-6.392 15.446h1.559l6.416-15.446H17z"/></svg>