<svg xmlns="http://www.w3.org/2000/svg" width="20" height="20" viewBox="0 0 20 20" fill="currentColor"><path d="M16.89 8.1c-.367 0-.727.096-1.044.279a2.112 2.112 0 00-1.925-1.256c-.358 0-.71.091-1.021.266a2.112 2.112 0 00-1.95-1.311 1.957 1.957 0 00-.7.126V2.246A2.258 2.258 0 007.983.121 2.012 2.012 0 006 2.246v8.77L4.848 9.471a2.126 2.126 0 00-2.812-.552 2.163 2.163 0 00-.724 2.965L4.22 16.7A6.656 6.656 0 009.825 20h2.63A6.673 6.673 0 0019 13.246v-3.023A2.12 2.12 0 0016.89 8.1zM3.244 4.7a5.071 5.071 0 01-.494-2.2A5.071 5.071 0 013.244.3l1.129.54A3.824 3.824 0 004 2.5a3.824 3.824 0 00.373 1.66l-1.13.54zm8.383-.537c.248-.52.375-1.088.373-1.663a3.824 3.824 0 00-.373-1.66L12.756.3c.328.687.496 1.439.494 2.2a5.071 5.071 0 01-.494 2.2l-1.13-.537z"/></svg>