<svg xmlns="http://www.w3.org/2000/svg" width="20" height="20" viewBox="0 0 20 20" fill="currentColor"><path d="M11.471 19.887a5.05 5.05 0 001.955-1.082 4.895 4.895 0 001.6-3.6c0-4.339-4.125-6.894-4.6-7.174l-.478-.22-.378.223c-.647.382-3.9 2.469-4.5 6.052A5.328 5.328 0 006.1 18.2a4.874 4.874 0 002.358 1.673C4.229 19.242 1 16.057 1 12.225 1 5.056 8.785.9 9.673.454l.283-.143.372.143C11.215.9 19 5.056 19 12.225c0 3.853-3.266 7.052-7.529 7.662zM10 9.536a7.882 7.882 0 00-3.453 4.8 3.82 3.82 0 00.74 2.954 3.352 3.352 0 002.369 1.322 3.566 3.566 0 002.759-.913 3.344 3.344 0 001.11-2.492c0-3.014-2.554-5.019-3.525-5.671z"/></svg>