<svg xmlns="http://www.w3.org/2000/svg" width="20" height="20" viewBox="0 0 20 20" fill="currentColor"><g clip-path="url(#clip0_3596_188)"><path d="M16.327 7.451l-.08.273.194.209a3.964 3.964 0 011.032 3.184 4.212 4.212 0 01-2.591 3.27l-.012.004-.012.005a3.858 3.858 0 01-2.445.266l-.607-.134v3.916a.125.125 0 01-.125.125H8.319a.125.125 0 01-.125-.125V14.48l-.621.155a3.611 3.611 0 01-2.438-.247l-.014-.006-.014-.006a4.212 4.212 0 01-2.578-3.272 3.962 3.962 0 011.03-3.172l.194-.208-.08-.273a2.952 2.952 0 01-.119-.822 3.183 3.183 0 012.773-3.091l.36-.047.067-.355A3.247 3.247 0 019.992.5h.016a3.247 3.247 0 013.238 2.636l.068.355.359.047a3.183 3.183 0 012.773 3.091c0 .279-.04.555-.119.822z"/></g><defs><clipPath id="clip0_3596_188"><path d="M0 0h20v20H0z"/></clipPath></defs></svg>