<svg xmlns="http://www.w3.org/2000/svg" width="20" height="20" viewBox="0 0 20 20" fill="currentColor"><g clip-path="url(#clip0_1118_260)"><path d="M10.406 8.77a3.828 3.828 0 001.386-4.5A5.987 5.987 0 006.68 5a5.675 5.675 0 013.726 3.77zM9.133 8.933a4.486 4.486 0 00-3.571-2.96 5.964 5.964 0 00-1.551 3.856 5.672 5.672 0 015.122-.896zM11.224 9.724a3.833 3.833 0 004.623-1.061 6.01 6.01 0 00-2.611-3.714 5.058 5.058 0 01-2.012 4.775zM8.7 10.11a4.486 4.486 0 00-4.55 1.2 6.013 6.013 0 002.613 3.726A5.678 5.678 0 018.7 10.11z"/><path d="M10-.007a10 10 0 1010 10 10.011 10.011 0 00-10-10zm0 17.249a7.25 7.25 0 117.25-7.25 7.257 7.257 0 01-7.25 7.25z"/><path d="M10.958 10.96a3.784 3.784 0 003.5 3.03 5.965 5.965 0 001.527-3.75 5.031 5.031 0 01-5.027.72zM9.654 10.929a4.519 4.519 0 00-1.541 4.754 5.948 5.948 0 005.148-.661 5.18 5.18 0 01-3.607-4.093z"/></g><defs><clipPath id="clip0_1118_260"><path d="M0 0h20v20H0z"/></clipPath></defs></svg>