<svg xmlns="http://www.w3.org/2000/svg" width="20" height="20" viewBox="0 0 20 20" fill="currentColor"><path d="M.912 4.912h0l4-4h0a.125.125 0 01.177 0h0l3.514 3.514-.198.156-3.051-3.051L5 1.177l-.353.354L1.53 4.647 1.177 5l.354.354 2.603 2.603-.196.156L.912 5.09s0 0 0 0a.125.125 0 010-.177zm11.1 10.923l2.635 2.635.353.353.354-.353 3.116-3.116.353-.354-.353-.353-3.07-3.07.157-.197 2.68 2.678h-.002l.854.854a.125.125 0 010 .176h0l-4 4h0a.126.126 0 01-.137.028.125.125 0 01-.04-.027h0l-3.057-3.057.157-.197zm-3.391.447l-.018.022-.015.025c-.13.207-.28.401-.448.579a3.973 3.973 0 01-2.794 1.218h-.005c-1.28.036-2.544.29-3.738.752h0a.37.37 0 01-.481-.479 11.22 11.22 0 00.752-3.739h0v-.005a3.973 3.973 0 011.211-2.786c.095-.082.194-.16.296-.232l.09-.064.055-.095a.123.123 0 01.026-.031l12.247-9.68a1.736 1.736 0 012.44 2.426L8.62 16.282zm.252-1.896h0v-.004a3.38 3.38 0 00-3.255-3.256h-.113a3.253 3.253 0 00-2.245.92 3.717 3.717 0 00-1.136 2.61 11.238 11.238 0 01-.519 3.111l-.29.916.917-.288a11.303 11.303 0 013.114-.518 3.71 3.71 0 002.614-1.139 3.245 3.245 0 00.913-2.352zm9.039-12.298h-.001a1.49 1.49 0 00-1.957-.127h0l-.006.005-10.212 8.073-.924.73 1.167.158a3.609 3.609 0 013.089 3.041l.17 1.136.715-.899L18.04 4.043h0l.008-.01a1.485 1.485 0 00-.135-1.945z"/></svg>