<svg xmlns="http://www.w3.org/2000/svg" width="21" height="20" viewBox="0 0 21 20" fill="currentColor"><path d="M16.126 0a4.78 4.78 0 00-4.774 4.774c.007.214.029.427.065.638l-.137-.138a1.143 1.143 0 00-1.719.126L1.46 16.2A2.315 2.315 0 004.7 19.44l10.8-8.1a1.14 1.14 0 00.122-1.718l-.138-.138c.212.036.426.058.64.065a4.774 4.774 0 100-9.547L16.126 0zM3.953 18.445a1.07 1.07 0 01-1.5-1.5l8.032-10.706 4.175 4.176-10.707 8.03zM16.126 8.3a3.53 3.53 0 110-7.06 3.53 3.53 0 010 7.06zM8.94 11.08L11.016 9l.88.88-2.077 2.08-.879-.88z"/></svg>