<svg xmlns="http://www.w3.org/2000/svg" width="20" height="20" viewBox="0 0 20 20" fill="currentColor"><path d="M16.56 7.175a12.172 12.172 0 002.399-3.4h-.533l.178-.424M16.56 7.175l2.162-4.094v.002c-.038.09-.077.18-.117.268M16.56 7.175c-.709.71-1.985 1.9-2.568 2.443l2.568-2.443zm2.045-3.824a11.67 11.67 0 01-2.398 3.47h0c-.701.702-1.97 1.886-2.555 2.431l-.253.235.13.32 2.122 5.212a2.766 2.766 0 01-.635 2.892v.001l-.088.087-4.973-4.966-.321-.32-.35.288-2.123 1.75-.285.236.141.341c.407.984.449 2.081.118 3.093a.623.623 0 01-.45.396h0a.62.62 0 01-.585-.168l-.002-.001-4.743-4.746h0a.628.628 0 01.227-1.034 4.47 4.47 0 013.094.12l.34.14.236-.283 3-3.607h0a78.631 78.631 0 014.84-5.308l.171-.171h0A11.668 11.668 0 0116.85 1.31h0l.013-.005.044-.021a1.376 1.376 0 011.812 1.797l-.114.27zM9.6 13.387l-2.122 1.75c.454 1.096.5 2.319.13 3.446a1.123 1.123 0 01-.816.722L9.6 13.387zm-6.155-9.11a2.77 2.77 0 011.537.09l3.223 1.31L5.51 8.591 2.02 5.107l.077-.083a2.77 2.77 0 011.35-.747z"/></svg>