<svg xmlns="http://www.w3.org/2000/svg" width="20" height="20" viewBox="0 0 20 20" fill="currentColor"><path d="M18.75 14H20v1.375a2.625 2.625 0 01-2 2.542v-1.324a1.372 1.372 0 00.75-1.218V14zm0-6v4H20V8h-1.25zM16 3.25V2h-4v1.25h4zm-4 13.5V18h4v-1.25h-4zm6.75-12.125V6H20V4.625a2.625 2.625 0 00-2-2.542v1.324a1.373 1.373 0 01.75 1.218zM2.625 16.75a1.377 1.377 0 01-1.375-1.375V4.625A1.377 1.377 0 012.625 3.25H10V2H2.625A2.629 2.629 0 000 4.625v10.75A2.63 2.63 0 002.625 18H10v-1.25H2.625zm6.512-2.937l5.319-3.207a.707.707 0 000-1.212L9.137 6.187a.717.717 0 00-.726-.01.79.79 0 00-.361.616v6.414a.708.708 0 00.361.616.73.73 0 00.351.081.74.74 0 00.375-.091zM13.042 10L9.3 12.256V7.744L13.042 10z"/></svg>