<svg xmlns="http://www.w3.org/2000/svg" width="20" height="20" viewBox="0 0 20 20" fill="currentColor"><path d="M2.624 16A1.627 1.627 0 011 14.375V2.625A1.627 1.627 0 012.624 1h11.751A1.627 1.627 0 0116 2.625h-1.25a.375.375 0 00-.375-.375H2.624a.375.375 0 00-.374.375v11.75a.375.375 0 00.374.375V16zM19 17.377V5.622A1.624 1.624 0 0017.378 4H5.622A1.624 1.624 0 004 5.622v11.755A1.625 1.625 0 005.622 19h11.756A1.625 1.625 0 0019 17.377zM17.378 5.25a.373.373 0 01.372.372v11.755a.373.373 0 01-.372.373H5.622a.373.373 0 01-.372-.373V5.622a.373.373 0 01.372-.372h11.756zm-8.885 5.625H6.088v1.25h2.405v-1.25zm8.418 0h-2.405v1.25h2.405v-1.25zm-4.786-4.787h-1.25v2.405h1.25V6.088zm0 8.418h-1.25v2.405h1.25v-2.405zm-2.31-5.574l-1.7-1.7-.883.884 1.7 1.7.883-.884zm5.954 5.952l-1.7-1.7-.884.883 1.7 1.7.884-.883zm0-6.769l-.885-.884-1.7 1.7.884.884 1.701-1.7zm-5.954 5.952l-.882-.883-1.7 1.7.883.884 1.699-1.701z"/></svg>