<svg xmlns="http://www.w3.org/2000/svg" width="20" height="20" viewBox="0 0 20 20" fill="currentColor"><g clip-path="url(#clip0_474_59)"><path d="M15.523 10.947A4.989 4.989 0 0020 6a2 2 0 00-2-2h-2V2.135A1.126 1.126 0 0014.886 1H5.114A1.126 1.126 0 004 2.135V4H2a2 2 0 00-2 2 4.989 4.989 0 004.477 4.947A6.167 6.167 0 009 14.9V17H6v2h8v-2h-3v-2.1a6.166 6.166 0 004.523-3.953zM18 6a2.994 2.994 0 01-2.021 2.822c.009-.156.021-.312.021-.47V6h2zM2 6h2v2.352c0 .158.012.314.021.47A2.994 2.994 0 012 6z"/></g><defs><clipPath id="clip0_474_59"><path d="M0 0h20v20H0z"/></clipPath></defs></svg>