<svg xmlns="http://www.w3.org/2000/svg" width="20" height="20" viewBox="0 0 20 20" fill="currentColor"><g clip-path="url(#clip0_483_54)"><path d="M16.115 9.44a2.479 2.479 0 00-.523-.788l-4.347-4.347a2.511 2.511 0 00-.786-.521 4.772 4.772 0 115.656 5.657zm-1.16 1.065a1.137 1.137 0 01-.453.833L3.7 19.44A2.315 2.315 0 01.46 16.2l8.1-10.8a1.143 1.143 0 011.718-.124l4.346 4.344a1.13 1.13 0 01.331.885zm-3.972-.533L9.928 8.916l-2.076 2.076 1.055 1.056 2.076-2.076z"/></g><defs><clipPath id="clip0_483_54"><path d="M0 0h20v20H0z"/></clipPath></defs></svg>