<svg xmlns="http://www.w3.org/2000/svg" width="20" height="20" viewBox="0 0 20 20" fill="currentColor"><path d="M3.25 18.5h-.5v1H2.5v-1H.625a.125.125 0 01-.125-.125V1.625A.125.125 0 01.625 1.5H2.5v-1h.25v1h1.625a.125.125 0 01.125.125v16.75a.125.125 0 01-.125.125H3.25zM17.75 1v.5h1.625a.125.125 0 01.125.125v16.75a.125.125 0 01-.125.125H17.75v1h-.25v-1h-1.875a.125.125 0 01-.125-.125V1.625a.125.125 0 01.125-.125H17.5v-1h.25V1zm-5.361 10v-.5H7.611v3H12.389V11zm0-4v-.5H7.611v3H12.389V7zm.736-3.5v13h-6.25v-13h6.25z"/></svg>