<svg xmlns="http://www.w3.org/2000/svg" width="20" height="20" viewBox="0 0 20 20" fill="currentColor"><path d="M6.157 12.683a3.24 3.24 0 001.6.407c.327 0 .652-.045.967-.133a2.92 2.92 0 00.863-.388l-.441-1.035a1.51 1.51 0 01-.605.367 2.32 2.32 0 01-.764.13A2.006 2.006 0 015.754 10a1.942 1.942 0 011.01-1.733c.306-.17.65-.257 1-.255.261 0 .52.046.765.137.222.079.426.201.6.36l.44-1.043a3.471 3.471 0 00-1.817-.513 3.256 3.256 0 00-1.589.4 3.065 3.065 0 00-1.161 1.1c-.29.47-.44 1.014-.432 1.566A2.958 2.958 0 005 11.571c.28.466.68.85 1.157 1.112zM11.9 12.683a3.24 3.24 0 001.6.407c.327 0 .653-.045.968-.133.306-.082.598-.213.862-.388l-.43-1.035a1.51 1.51 0 01-.605.367 2.32 2.32 0 01-.764.13A2.005 2.005 0 0111.5 10a1.943 1.943 0 011.01-1.733c.306-.17.65-.257 1-.255.261 0 .52.046.765.137.222.079.426.201.6.36l.44-1.043a3.471 3.471 0 00-1.815-.512 3.256 3.256 0 00-1.589.4 3.065 3.065 0 00-1.161 1.1c-.29.47-.44 1.014-.432 1.566a2.958 2.958 0 00.426 1.557c.281.464.68.845 1.156 1.106z"/><path d="M17.875 2H2.125A1.127 1.127 0 001 3.125v13.75A1.127 1.127 0 002.125 18h15.75A1.127 1.127 0 0019 16.875V3.125A1.127 1.127 0 0017.875 2zm-.125 14.75H2.25V3.25h15.5v13.5z"/></svg>