<svg xmlns="http://www.w3.org/2000/svg" width="20" height="20" viewBox="0 0 20 20" fill="currentColor"><path d="M10.5 3.9v.457l.456.04c4.835.432 8.544 4.1 8.544 8.455v.5h-1v-.52a7.534 7.534 0 00-5.072-6.837l-1.549-.534.987 1.308A8.119 8.119 0 0114.5 11.84h0v.01c0 1.873-.536 3.55-1.376 4.748-.84 1.199-1.954 1.878-3.124 1.878-1.17 0-2.284-.678-3.125-1.877-.84-1.196-1.375-2.874-1.375-4.747a9.551 9.551 0 01.205-1.925l.051-.241-.16-.187a2.784 2.784 0 01-.227-.305 2.606 2.606 0 01-.363-1.404l.03-1.07-.84.664A7.1 7.1 0 001.5 12.844h0v.508h-1v-.499a7.862 7.862 0 011.791-4.951l.288-.35-.32-.322L.713 5.684l.708-.706 1.547 1.547.32.32.35-.285c.169-.138.341-.27.518-.394l.4-.28-.27-.406-1.13-1.698.83-.554 1.215 1.824.233.35.385-.17.077-.034c.159-.07.302-.134.451-.19l.428-.16-.12-.44-.533-1.944.964-.264.532 1.953.119.438.447-.076c.293-.05.579-.092.86-.117l.456-.041V1.863h1V3.9zM8.27 5.57l-.118-.033-.12.025a9.16 9.16 0 00-2.093.707l-.1.048-.071.087c-.208.254-.359.55-.444.866h0l-.002.009A2.372 2.372 0 108.27 5.57z"/></svg>