<svg xmlns="http://www.w3.org/2000/svg" width="20" height="20" viewBox="0 0 20 20" fill="currentColor"><path d="M7.25 8.5A2.752 2.752 0 0010 11.25a2.72 2.72 0 001.33-.358L7.609 7.169A2.721 2.721 0 007.25 8.5zM10 5.75a2.721 2.721 0 00-1.331.358l3.723 3.723A2.72 2.72 0 0012.75 8.5 2.752 2.752 0 0010 5.75z"/><path d="M18.67 2.13a.819.819 0 00-.7-.047 8.832 8.832 0 01-7.6-.062 10.3 10.3 0 00-8.92 0 .626.626 0 00-.351.563v17.191h.24V20H3v-5.442a9.033 9.033 0 016.826.4 10.084 10.084 0 008.822 0A.626.626 0 0019 14.4V2.732a.712.712 0 00-.33-.602zM10 12.75a4.25 4.25 0 110-8.5 4.25 4.25 0 010 8.5z"/></svg>