<svg xmlns="http://www.w3.org/2000/svg" width="20" height="20" viewBox="0 0 20 20" fill="currentColor"><g clip-path="url(#clip0_609_272)"><path d="M16.945 4.649L15.36 3.064a1.626 1.626 0 00-2.3 0L.476 15.643a1.626 1.626 0 000 2.3l1.585 1.585a1.627 1.627 0 002.3 0L16.946 6.946a1.626 1.626 0 000-2.297zM3.476 18.642a.377.377 0 01-.53 0L1.36 17.057a.375.375 0 010-.53l8.6-8.6 2.116 2.115-8.6 8.6zm12.587-12.58l-3.1 3.1-2.117-2.115 3.1-3.1a.373.373 0 01.264-.109c.1 0 .196.039.266.109l1.585 1.585a.375.375 0 01.002.53zM6.874 4.5V5h1.25v-.5A1.377 1.377 0 019.5 3.123h.5V1.874h-.5A1.376 1.376 0 018.125.5V0h-1.25v.5A1.376 1.376 0 015.5 1.874H5v1.249h.5A1.377 1.377 0 016.875 4.5zM7.5 2.2c.092.108.192.209.3.3a2.6 2.6 0 00-.3.3 2.6 2.6 0 00-.3-.3c.109-.091.209-.192.3-.3zM20 .875v1.249h-.3a.576.576 0 00-.575.575V3h-1.25v-.3a.576.576 0 00-.575-.575H17V.875h.3A.576.576 0 0017.875.3V0h1.25v.3a.576.576 0 00.576.575h.3zm-1.3 9.995h.3v1.249h-.3a.576.576 0 00-.575.575v.3h-1.25v-.3a.576.576 0 00-.575-.575H16V10.87h.3a.576.576 0 00.575-.575v-.3h1.25v.3a.576.576 0 00.576.575z"/></g><defs><clipPath id="clip0_609_272"><path d="M0 0h20v20H0z"/></clipPath></defs></svg>