<svg xmlns="http://www.w3.org/2000/svg" width="20" height="20" viewBox="0 0 20 20" fill="currentColor"><g clip-path="url(#clip0_474_84)"><path d="M10 20a10 10 0 1110-10 10.011 10.011 0 01-10 10zm0-18.75A8.75 8.75 0 1018.75 10 8.76 8.76 0 0010 1.25zm-.543 5.705a1.058 1.058 0 01-.39-.393 1.11 1.11 0 010-1.09c.093-.161.228-.295.39-.386a1.1 1.1 0 011.484.39c.098.163.149.35.147.54a1.08 1.08 0 01-.54.936A1.05 1.05 0 0110 7.1a1.062 1.062 0 01-.543-.145zm1.354 8.463H9.2V8.124h1.614l-.003 7.294z"/></g><defs><clipPath id="clip0_474_84"><path d="M0 0h20v20H0z"/></clipPath></defs></svg>