<svg xmlns="http://www.w3.org/2000/svg" width="20" height="20" viewBox="0 0 20 20" fill="currentColor"><g clip-path="url(#clip0_1118_399)"><path d="M20 8.12v7.765a1.105 1.105 0 01-.328.786 1.007 1.007 0 01-.806.327l-2.355-.016a1.13 1.13 0 01-.611-.182l-1.919-1.213v1.3A1.122 1.122 0 0112.857 18H1.126A1.121 1.121 0 010 16.886V7.114A1.121 1.121 0 011.126 6h11.731a1.122 1.122 0 011.127 1.114v1.3L15.9 7.2c.182-.118.394-.18.61-.181l2.353-.017a1 1 0 01.806.328 1.1 1.1 0 01.331.79zM4.625 4H14V2H4.625a3 3 0 00-3 3h2a1 1 0 011-1z"/></g><defs><clipPath id="clip0_1118_399"><path d="M0 0h20v20H0z"/></clipPath></defs></svg>