<svg xmlns="http://www.w3.org/2000/svg" width="20" height="20" viewBox="0 0 20 20" fill="currentColor"><path d="M11.5 16.262l-.32-.193C11.009 15.968 7 13.536 7 10.48a2.7 2.7 0 012.664-2.73 2.629 2.629 0 011.836.761 2.629 2.629 0 011.836-.761A2.7 2.7 0 0116 10.48c0 3.056-4.009 5.488-4.18 5.589l-.32.193zM9.664 9a1.45 1.45 0 00-1.414 1.48c0 1.769 2.112 3.55 3.249 4.312 1.138-.764 3.251-2.548 3.251-4.312A1.45 1.45 0 0013.336 9a1.4 1.4 0 00-1.269.84l-.567 1.228-.567-1.228A1.4 1.4 0 009.664 9zm7.711 10H5.625A1.627 1.627 0 014 17.375V5.625A1.627 1.627 0 015.625 4h11.75A1.627 1.627 0 0119 5.625v11.75A1.627 1.627 0 0117.375 19zM5.625 5.25a.375.375 0 00-.375.375v11.75a.375.375 0 00.375.375h11.75a.375.375 0 00.375-.375V5.625a.375.375 0 00-.375-.375H5.625zm-3 9.5a.375.375 0 01-.375-.375V2.624a.375.375 0 01.375-.374h11.75a.375.375 0 01.375.374H16A1.627 1.627 0 0014.375 1H2.625A1.627 1.627 0 001 2.624v11.751A1.627 1.627 0 002.625 16v-1.25z"/></svg>