<svg xmlns="http://www.w3.org/2000/svg" width="20" height="20" viewBox="0 0 20 20" fill="currentColor"><path d="M18.5 7.9V4h1v3.891a2.574 2.574 0 01-2.13 2.444h0l-.012.003-6.503 1.297a1.578 1.578 0 00-1.353 1.42l-.002.022v.381l.308.128a1.126 1.126 0 01.692 1.039v2.75A1.127 1.127 0 019.374 18.5h-.748A1.127 1.127 0 017.5 17.372v0-2.75a1.125 1.125 0 01.692-1.038l.308-.129V13.108a2.574 2.574 0 012.13-2.443h0l.012-.003 6.503-1.297a1.578 1.578 0 001.353-1.42l.002-.022V7.9zm-2.625-.4H2.125a.627.627 0 01-.625-.626V2.126a.627.627 0 01.626-.626h13.748a.627.627 0 01.626.625s0 0 0 0v4.75s0 0 0 0a.627.627 0 01-.625.625z"/></svg>