<svg xmlns="http://www.w3.org/2000/svg" width="20" height="20" viewBox="0 0 20 20" fill="currentColor"><path d="M18 2.083a2.625 2.625 0 012 2.542V6h-2V2.083zM12 16v2h4v-2h-4zm4-12V2h-4v2h4zM2.625 16A.625.625 0 012 15.375V4.625A.625.625 0 012.625 4H10V2H2.625A2.629 2.629 0 000 4.625v10.75A2.63 2.63 0 002.625 18H10v-2H2.625zM18 17.917a2.625 2.625 0 002-2.542V14h-2v3.917zM18 8v4h2V8h-2zm-3.543 1.394l-5.32-3.207a.715.715 0 00-.726-.01.79.79 0 00-.361.616v6.414a.708.708 0 00.361.616.73.73 0 00.351.081.74.74 0 00.375-.091l5.319-3.207a.707.707 0 00.001-1.212z"/></svg>