<svg xmlns="http://www.w3.org/2000/svg" width="20" height="20" viewBox="0 0 20 20" fill="currentColor"><g clip-path="url(#clip0_473_76)"><path d="M19.921 8.8a1.145 1.145 0 00-1.137-.991h-1.073a.98.98 0 01-.887-.649A.969.969 0 0117 6.1l.754-.754a1.15 1.15 0 00.1-1.522 10.16 10.16 0 00-1.671-1.671 1.152 1.152 0 00-1.522.1L13.905 3a.975.975 0 01-1.09.167.97.97 0 01-.628-.878V1.216A1.144 1.144 0 0011.2.079a9.129 9.129 0 00-2.4 0 1.145 1.145 0 00-.991 1.137v1.073a.98.98 0 01-.649.887A.966.966 0 016.1 3l-.754-.754a1.152 1.152 0 00-1.522-.1 10.16 10.16 0 00-1.676 1.673 1.15 1.15 0 00.1 1.522L3 6.1a.979.979 0 01.167 1.09.97.97 0 01-.878.627H1.216A1.145 1.145 0 00.079 8.8a9.1 9.1 0 000 2.393 1.145 1.145 0 001.137.991h1.073a.98.98 0 01.887.649A.97.97 0 013 13.906l-.751.752a1.149 1.149 0 00-.1 1.523c.49.62 1.05 1.18 1.671 1.671a1.148 1.148 0 001.521-.1L6.1 17a.98.98 0 011.09-.167.97.97 0 01.627.878v1.073a1.145 1.145 0 00.983 1.137 9.103 9.103 0 002.393 0 1.144 1.144 0 00.99-1.137v-1.073a.981.981 0 01.65-.887.968.968 0 011.073.176l.753.753a1.149 1.149 0 001.522.1c.62-.49 1.18-1.05 1.671-1.671a1.149 1.149 0 00-.1-1.521L17 13.905a1.04 1.04 0 01.711-1.717h1.073a1.145 1.145 0 001.137-.992 9.096 9.096 0 000-2.392V8.8zM11.979 10a1.98 1.98 0 11-3.958 0 1.98 1.98 0 013.958 0z"/></g><defs><clipPath id="clip0_473_76"><path d="M0 0h20v20H0z"/></clipPath></defs></svg>