<svg xmlns="http://www.w3.org/2000/svg" width="20" height="20" viewBox="0 0 20 20" fill="currentColor"><path d="M16.375 8H15V5.312A5.17 5.17 0 0010 0a5.169 5.169 0 00-5 5.312V8H3.625A1.629 1.629 0 002 9.63v7.74A1.629 1.629 0 003.625 19h12.75A1.629 1.629 0 0018 17.37V9.63A1.629 1.629 0 0016.375 8zM6.25 5.312A3.92 3.92 0 0110 1.25a3.92 3.92 0 013.75 4.062V8h-7.5V5.312zm10.5 12.058a.378.378 0 01-.375.38H3.625a.378.378 0 01-.375-.38V9.63a.383.383 0 01.375-.38h12.75a.378.378 0 01.375.38v7.74z"/></svg>