<svg xmlns="http://www.w3.org/2000/svg" width="20" height="20" viewBox="0 0 20 20" fill="currentColor"><path d="M14.21 11.433V2.904a1.3 1.3 0 00-1.29-1.3h-.033a1.3 1.3 0 00-1.283 1.311c.006 1.691.012 5.137.018 6.482a.48.48 0 01-.83.355.483.483 0 01-.133-.355c.008-1.79.016-5.928.024-8.081v-.011A1.3 1.3 0 009.4 0h-.048a1.3 1.3 0 00-1.284 1.308c.005 2.109.01 6.273.016 8.014a.485.485 0 01-.484.488h-.006a.485.485 0 01-.478-.49c.006-1.162.02-4.846.03-6.424v-.008a1.3 1.3 0 00-1.29-1.3h-.042a1.3 1.3 0 00-1.282 1.306c.009 1.863.024 5.133.026 6.453a.484.484 0 01-.481.486h-.02a.483.483 0 01-.474-.493c.012-1.027.04-2.346.05-3.62v-.01a1.289 1.289 0 10-2.576 0v7.583a6.652 6.652 0 006.581 6.7l2.625.007h.019a6.619 6.619 0 005.638-3.2l2.928-4.862c.717-1.192.489-2.269-.783-2.416a2.56 2.56 0 00-2.284 1.068l-1.525 2.022-.046-1.179z"/></svg>