<svg xmlns="http://www.w3.org/2000/svg" width="20" height="20" viewBox="0 0 20 20" fill="currentColor"><g clip-path="url(#clip0_473_83)"><path d="M14.2 15.375a1 1 0 010 1.25l-2.4 3a1 1 0 01-1.599-.046 1 1 0 01-.186-.579v-2H7.8A5.8 5.8 0 012 11.205V9h2v2.205A3.8 3.8 0 007.8 15h2.22v-2a1 1 0 011.781-.625l2.399 3zM12.205 3h-2.22V1A1 1 0 008.2.378l-2.4 3a1 1 0 000 1.25l2.4 3a1 1 0 001.116.315A1 1 0 009.985 7V5h2.22A3.8 3.8 0 0116 8.8V11h2V8.8A5.8 5.8 0 0012.205 3z"/></g><defs><clipPath id="clip0_473_83"><path d="M0 0h20v20H0z"/></clipPath></defs></svg>