<svg xmlns="http://www.w3.org/2000/svg" width="20" height="20" viewBox="0 0 20 20" fill="currentColor"><path d="M11.492 9.356L12.946 5.5h1.37l-3.691 9H9.42l-3.734-9H7.03l1.444 3.852v.002l1.032 2.798.12.327H10.384l.118-.333.99-2.79zM5.625 1.75h0A3.879 3.879 0 001.75 5.624v8.751h0a3.88 3.88 0 003.874 3.875h8.751a3.88 3.88 0 003.875-3.874V5.625v0a3.879 3.879 0 00-3.874-3.875H5.625zm8.75 16.75h-8.75A4.13 4.13 0 011.5 14.375v-8.75A4.131 4.131 0 015.625 1.5h8.75A4.131 4.131 0 0118.5 5.626v8.748a4.131 4.131 0 01-4.126 4.126z"/></svg>