<svg xmlns="http://www.w3.org/2000/svg" width="20" height="20" viewBox="0 0 20 20" fill="currentColor"><path d="M19.987 3.636a1.627 1.627 0 00-1.624-1.623L1.626 2A1.627 1.627 0 000 3.625v12.75A1.627 1.627 0 001.625 18h16.749A1.629 1.629 0 0020 16.373l-.013-12.737zM1.625 3.25l16.738.013a.375.375 0 01.374.375v1l-7.8 6.8a1.366 1.366 0 01-1.941-.025L1.25 4.579v-.954a.375.375 0 01.375-.375zm17.014 13.39a.376.376 0 01-.265.11H1.625a.375.375 0 01-.375-.375V6.246l6.888 6.078a2.61 2.61 0 001.848.762 2.54 2.54 0 001.8-.732L18.739 6.3l.01 10.078a.376.376 0 01-.11.262z"/></svg>