<svg xmlns="http://www.w3.org/2000/svg" width="20" height="20" viewBox="0 0 20 20" fill="currentColor"><path d="M10.206 19.618a9.625 9.625 0 119.625-9.625 9.635 9.635 0 01-9.625 9.625zm0-18a8.375 8.375 0 108.375 8.375 8.384 8.384 0 00-8.375-8.375z"/><path d="M6.684 14.125a.624.624 0 01-.556-.911l2.38-4.621a.632.632 0 01.268-.27L13.4 5.944a.625.625 0 01.842.842l-2.382 4.621a.633.633 0 01-.269.27l-4.62 2.379a.621.621 0 01-.287.069zm2.842-4.782l-1.393 2.708 2.708-1.394 1.393-2.708-2.708 1.394z"/></svg>