<svg xmlns="http://www.w3.org/2000/svg" width="20" height="20" viewBox="0 0 20 20" fill="currentColor"><path d="M6.967 15.65l-.145-.139H4.621A4.126 4.126 0 01.5 11.391V5.633A4.126 4.126 0 014.621 1.51H15.38A4.126 4.126 0 0119.5 5.633v5.758a4.126 4.126 0 01-4.124 4.12s0 0 0 0h-2.201l-.145.14L10 18.558 6.967 15.65zm3.46-2.395h0l.004-.002c.358-.222 1.41-.903 2.406-1.872.978-.951 1.988-2.262 2.116-3.752a2.825 2.825 0 00-4.907-2.203 2.825 2.825 0 00-4.91 2.204c.128 1.49 1.138 2.8 2.116 3.752a14.76 14.76 0 002.407 1.872h.002a.735.735 0 00.767 0z"/></svg>