<svg xmlns="http://www.w3.org/2000/svg" width="20" height="20" viewBox="0 0 20 20" fill="currentColor"><g clip-path="url(#clip0_1136_30)"><path d="M7.17 19.5l.264.15A9.971 9.971 0 012.149 3.82l4.338 7.6A3.8 3.8 0 0010 13.793c.152-.006.303-.022.453-.046L7.17 19.5zm6.635-9.5a3.757 3.757 0 01-.8 2.3h.007l-4.341 7.594c.44.063.884.097 1.329.1a9.962 9.962 0 009.722-12.3h-6.714c.513.657.793 1.466.797 2.299V10zM10 6.192h9.241A9.975 9.975 0 003.218 2.666l3.311 5.8A3.8 3.8 0 0110 6.192zm0 1.5a2.282 2.282 0 00-2.15 3.1l.007.013A2.3 2.3 0 1010 7.692z"/></g><defs><clipPath id="clip0_1136_30"><path d="M0 0h20v20H0z"/></clipPath></defs></svg>