<svg xmlns="http://www.w3.org/2000/svg" width="20" height="20" viewBox="0 0 20 20" fill="currentColor"><g clip-path="url(#clip0_1580_221)"><path d="M10 5.5a4.5 4.5 0 100 9 4.5 4.5 0 000-9zM6.75 10a3.227 3.227 0 01.55-1.812l4.512 4.512A3.248 3.248 0 016.75 10zm5.95 1.812L8.188 7.3a3.248 3.248 0 014.512 4.512zm7.16-2.36l-4.451-7.885A1.116 1.116 0 0014.437 1H5.562a1.116 1.116 0 00-.971.567L.145 9.45a1.111 1.111 0 000 1.1l4.445 7.882a1.118 1.118 0 00.972.568h8.875a1.116 1.116 0 00.972-.567l4.446-7.883a1.11 1.11 0 000-1.098h.005zm-5.5 8.3H5.64L1.27 10l4.37-7.75h8.719l4.37 7.75-4.37 7.752z"/></g><defs><clipPath id="clip0_1580_221"><path d="M0 0h20v20H0z"/></clipPath></defs></svg>