<svg xmlns="http://www.w3.org/2000/svg" width="20" height="20" viewBox="0 0 20 20" fill="currentColor"><g clip-path="url(#clip0_1205_24)"><path d="M9.2 20a1.12 1.12 0 01-1.121-1.118v-6.971h-4.46a1.61 1.61 0 01-1.234-2.652L9.94.4a1.144 1.144 0 011.238-.33 1.126 1.126 0 01.74 1.053v6.97h4.462a1.6 1.6 0 011.468.932 1.594 1.594 0 01-.232 1.72L10.06 19.6a1.13 1.13 0 01-.86.4zm1.468-18.532l-7.332 8.6a.348.348 0 00-.051.381.36.36 0 00.335.211h5.712v7.87l7.332-8.6a.35.35 0 00.05-.382.36.36 0 00-.334-.21h-5.712v-7.87z"/></g><defs><clipPath id="clip0_1205_24"><path d="M0 0h20v20H0z"/></clipPath></defs></svg>