<svg xmlns="http://www.w3.org/2000/svg" width="20" height="20" viewBox="0 0 20 20" fill="currentColor"><g clip-path="url(#clip0_423_2)"><path d="M17.066 2.931A9.993 9.993 0 00.12 8.443a9.883 9.883 0 001.2 6.491L.08 19.012a.727.727 0 00.179.721.715.715 0 00.72.19l4.167-1.193A9.859 9.859 0 009.99 20a9.993 9.993 0 007.076-17.069zM6 11.5a1.5 1.5 0 110-2.999A1.5 1.5 0 016 11.5zm4 0a1.5 1.5 0 110-2.999 1.5 1.5 0 010 2.999zm4 0a1.5 1.5 0 110-2.999 1.5 1.5 0 010 2.999z"/></g><defs><clipPath id="clip0_423_2"><path d="M0 0h20v20H0z"/></clipPath></defs></svg>