<svg xmlns="http://www.w3.org/2000/svg" width="20" height="20" viewBox="0 0 20 20" fill="currentColor"><path d="M13.77 17.684a.126.126 0 01-.068.067l-3.4 1.41h0l-.003.001a.127.127 0 01-.048.01.124.124 0 01-.113-.075s0 0 0 0l-1.606-3.8-.29-.684-.524.524-2.88 2.874h0a.126.126 0 01-.136.028.124.124 0 01-.077-.116v0V.953v0a.125.125 0 01.213-.088h0l12 12h0a.125.125 0 01-.088.213h0-4.814l.28.689 1.554 3.822h0a.125.125 0 010 .095zM8.4 14.338v.002l1.726 4.087.194.457.458-.19 2.254-.934.46-.19-.188-.46-1.67-4.11h0a.124.124 0 01.115-.172h4.699l-.853-.853-9.866-9.867-.854-.854V17.622l.854-.853L8.197 14.3a.126.126 0 01.167-.01.122.122 0 01.036.048z"/></svg>