<svg xmlns="http://www.w3.org/2000/svg" width="20" height="20" viewBox="0 0 20 20" fill="currentColor"><g clip-path="url(#clip0_474_54)"><path d="M16 10.011v-.445A10.264 10.264 0 0010.273.221L10 .087l-.273.134A10.263 10.263 0 004 9.566v.445a3.727 3.727 0 00-3 3.7v3.141A1.14 1.14 0 002.125 18h15.75A1.14 1.14 0 0019 16.852v-3.141a3.727 3.727 0 00-3-3.7zM2.25 16.75v-3.039A2.493 2.493 0 014 11.3v5.45H2.25zm12.5 0h-9.5V9.566A9.037 9.037 0 0110 1.483a9.037 9.037 0 014.75 8.083v7.184zm3 0H16V11.3a2.493 2.493 0 011.75 2.416v3.034zM7 18.75h6V20H7v-1.25zM7 8a3 3 0 106 0 3 3 0 00-6 0zm4.75 0a1.75 1.75 0 11-3.5 0 1.75 1.75 0 013.5 0z"/></g><defs><clipPath id="clip0_474_54"><path d="M0 0h20v20H0z"/></clipPath></defs></svg>