<svg xmlns="http://www.w3.org/2000/svg" width="20" height="20" viewBox="0 0 20 20" fill="currentColor"><path d="M19.493 1.615a.629.629 0 00-.493-.24h-.877c-2.688 0-5.365-.33-7.972-.98a.594.594 0 00-.3 0c-2.608.65-5.285.98-7.972.98h-.88a.624.624 0 00-.605.776 32.91 32.91 0 01.98 7.972v3.851a4.089 4.089 0 004.085 4.084 6.764 6.764 0 014.155 1.434.627.627 0 00.772 0 6.764 6.764 0 014.155-1.434 4.09 4.09 0 004.084-4.084v-3.85c0-2.688.33-5.365.98-7.973a.625.625 0 00-.112-.536zm-2.118 12.36a2.837 2.837 0 01-2.834 2.833A8.022 8.022 0 0010 18.225V9.5H2.608a34.2 34.2 0 00-.817-6.875h.086c2.737 0 5.464-.33 8.123-.98V9.5h7.392c0 .208-.017.415-.017.623v3.851z"/></svg>