<svg xmlns="http://www.w3.org/2000/svg" width="20" height="20" viewBox="0 0 20 20" fill="currentColor"><g clip-path="url(#clip0_474_39)"><path d="M19.94 9.212a3.25 3.25 0 00-3.177-2.643 2.936 2.936 0 00-1.3.3 10.808 10.808 0 00-4.839-1.38l.811-3.741 2.444.519a1.493 1.493 0 10.2-1.235L11.573.5a1.128 1.128 0 00-1.333.862L9.344 5.5a10.781 10.781 0 00-4.793 1.357 3.207 3.207 0 00-1.314-.289A3.25 3.25 0 00.064 9.2c-.079.4-.085.812-.018 1.214a3.23 3.23 0 00.912 1.754l.066.071v.127c.076 3.69 4.014 6.582 8.976 6.582 4.962 0 8.892-2.889 8.966-6.566l.006-.139.044-.046a3.252 3.252 0 00.94-1.778c.067-.4.062-.809-.016-1.207z"/></g><defs><clipPath id="clip0_474_39"><path d="M0 0h20v20H0z"/></clipPath></defs></svg>