<svg xmlns="http://www.w3.org/2000/svg" width="20" height="20" viewBox="0 0 20 20" fill="currentColor"><path d="M14.052 12.5a3.726 3.726 0 01-1.075 2.409c-.471.471-.914.922-1.357 1.373-.443.451-.881.9-1.348 1.366a3.767 3.767 0 01-5.318 0 3.765 3.765 0 010-5.317c.472-.472.915-.923 1.358-1.374.443-.451.88-.9 1.348-1.365a3.858 3.858 0 014.192-.745l.8-.806.129-.131a4.95 4.95 0 00-6 .8c-.472.471-.915.922-1.357 1.373-.442.451-.881.9-1.35 1.365a5.02 5.02 0 000 7.086 5.017 5.017 0 007.086 0c.47-.471.913-.923 1.357-1.374.444-.451.88-.9 1.348-1.366a5.006 5.006 0 001.374-4.483L14.052 12.5z"/><path d="M15.93 1.467a5.01 5.01 0 00-7.085 0c-.471.471-.913.923-1.357 1.374-.444.451-.881.9-1.347 1.366a4.969 4.969 0 00-1.377 4.484L5.946 7.5a3.723 3.723 0 011.077-2.41c.47-.471.914-.922 1.357-1.373.443-.451.88-.9 1.348-1.366a3.76 3.76 0 115.317 5.318c-.471.471-.913.922-1.357 1.373-.444.451-.88.9-1.348 1.366a3.854 3.854 0 01-4.192.744c-.27.273-.543.548-.806.817l-.121.121a4.952 4.952 0 006-.8c.47-.471.913-.922 1.356-1.374.443-.452.88-.9 1.348-1.365a5.013 5.013 0 000-7.086l.005.002z"/></svg>