<svg xmlns="http://www.w3.org/2000/svg" width="20" height="20" viewBox="0 0 20 20" fill="currentColor"><path d="M11.5 15.521l-.158-.042C11.206 15.444 8 14.581 8 12.25V8.393l3.5-.914 3.5.914v3.857c0 2.331-3.206 3.194-3.342 3.229l-.158.042zM9.25 9.357v2.893c0 1.147 1.713 1.8 2.249 1.972.536-.177 2.251-.83 2.251-1.972V9.357l-2.25-.586-2.25.586zM17.375 19H5.625A1.627 1.627 0 014 17.375V5.625A1.627 1.627 0 015.625 4h11.75A1.627 1.627 0 0119 5.625v11.75A1.627 1.627 0 0117.375 19zM5.625 5.25a.375.375 0 00-.375.375v11.75a.375.375 0 00.375.375h11.75a.375.375 0 00.375-.375V5.625a.375.375 0 00-.375-.375H5.625zm-3 9.5a.375.375 0 01-.375-.375V2.624a.375.375 0 01.375-.374h11.75a.375.375 0 01.375.374H16A1.627 1.627 0 0014.375 1H2.625A1.627 1.627 0 001 2.624v11.751A1.627 1.627 0 002.625 16v-1.25z"/></svg>