<svg xmlns="http://www.w3.org/2000/svg" width="20" height="20" viewBox="0 0 20 20" fill="currentColor"><path d="M18 2.5h1.5v1h-2v2h-1v-2h-2v-1h2v-2h1v2h.5zm-3.584 10.677l.262-.393-.378-.284-1.2-.9-.423-.317-.293.44-.395.592c-.387.537-1.116.885-1.989.885s-1.602-.348-1.989-.884l-.395-.593-.293-.44-.423.317-1.2.9-.378.284.262.393.4.6.006.009.006.008C6.889 15.023 8.339 15.8 10 15.8c1.66 0 3.11-.777 4.004-2.006l.006-.008.006-.009.4-.6zM19.5 10c0 5.224-4.276 9.5-9.5 9.5S.5 15.224.5 10 4.776.5 10 .5a9.2 9.2 0 012.652.38C12.33 1.534 12.2 2.246 12.2 3c0 1.648.807 3.129 2.08 4.02A1.886 1.886 0 0014 7c-1.076 0-2 .924-2 2s.924 2 2 2 2-.924 2-2c0-.531-.225-1.025-.582-1.39.52.188 1.086.29 1.682.29a5 5 0 002.08-.474c.198.8.32 1.657.32 2.574zM6 11c1.076 0 2-.924 2-2s-.924-2-2-2-2 .924-2 2 .924 2 2 2z"/></svg>