<svg xmlns="http://www.w3.org/2000/svg" width="20" height="20" viewBox="0 0 20 20" fill="currentColor"><path d="M2.49 8.662l.01-.05V8.56A8.069 8.069 0 0110.495.5a8.014 8.014 0 01.178 16.026l-.145.003-.122.081-2.798 1.868s0 0 0 0a.13.13 0 01-.072.022s0 0 0 0h-3.91a.125.125 0 01-.126-.125v-3.866l-.279-.139-1.65-.813H1.57a.125.125 0 01-.067-.138h0l.987-4.757zm9.557-3.43l-.348.346a3.19 3.19 0 00-1.203-.245v0h-.005a3.225 3.225 0 00-3.219 3.223v1.25h1.97v1.972h1.25a3.225 3.225 0 003.221-3.221v-.004a3.19 3.19 0 00-.245-1.207l1.393-1.392s0 0 0 0a1.251 1.251 0 000-1.769 6.173 6.173 0 00-8.736 0l-.53.531-.354.354.354.354 1.062 1.06.354.353.353-.354.526-.526a3.77 3.77 0 014.157-.726zm-1.555 4.046h-.72v-.722 0a.723.723 0 11.721.722h0zM4.816 7.194h-.5V8.441a6.178 6.178 0 1012.353 0V7.194h-2.5v1.25h0v.008a3.676 3.676 0 01-6.296 2.636 3.677 3.677 0 01-1.057-2.636h0V7.194h-2z"/></svg>