<svg xmlns="http://www.w3.org/2000/svg" width="20" height="20" viewBox="0 0 20 20" fill="currentColor"><g clip-path="url(#clip0_472_1143)"><path d="M19.915 9.571A10.629 10.629 0 0010 3 10.629 10.629 0 00.084 9.572a1.142 1.142 0 000 .856 10.385 10.385 0 002.441 3.583c2.01 1.929 4.69 3 7.475 2.989a10.8 10.8 0 007.052-2.6 10.517 10.517 0 002.862-3.965c.115-.277.115-.587.001-.864zM10 14a4 4 0 110-8 4 4 0 010 8z"/></g><defs><clipPath id="clip0_472_1143"><path d="M0 0h20v20H0z"/></clipPath></defs></svg>