<svg xmlns="http://www.w3.org/2000/svg" width="20" height="20" viewBox="0 0 20 20" fill="currentColor"><g clip-path="url(#clip0_473_55)"><path d="M0 11.5h20V15H4.451v1.5H20v1.375a1.094 1.094 0 01-.327.778 1.208 1.208 0 01-.85.347l-17.648-.037A1.153 1.153 0 010 17.838V11.5zM7.746 1c-.493 0-2.962 1.5-2.962 3.5a2.963 2.963 0 105.925 0c0-2-2.469-3.5-2.963-3.5zm11.68 7.687L12.2 4.571a4.442 4.442 0 01-8.653 1.4L.375 8.8A1.1 1.1 0 000 9.624V10h20v-.348a1.117 1.117 0 00-.574-.965z"/></g><defs><clipPath id="clip0_473_55"><path d="M0 0h20v20H0z"/></clipPath></defs></svg>