<svg xmlns="http://www.w3.org/2000/svg" width="20" height="20" viewBox="0 0 20 20" fill="currentColor"><path d="M10.13 4.55h.009c.926 0 1.58.235 1.994.572.403.33.618.79.618 1.352v.001a1.953 1.953 0 01-1.243 1.823l-.025.01-.024.012c-.394.204-.713.396-.947.625-.254.251-.39.528-.454.856l-.01.048v.008l-.015.088-.016.091-.005.029a.424.424 0 01-.095.173.412.412 0 01-.293.114h0-.008a.567.567 0 01-.186-.032.39.39 0 01-.125-.085h0a.457.457 0 01-.132-.316.737.737 0 01.055-.254h0l.005-.012c.201-.526.59-.96 1.093-1.214l.01-.005.009-.006c.365-.206.701-.418.938-.698.261-.308.375-.663.375-1.088 0-.42-.184-.794-.522-1.048-.324-.244-.752-.352-1.223-.352h-.02c-.747.03-1.464.3-2.046.769h0l-.003.002a.332.332 0 01-.43-.008l-.058-.054a.353.353 0 01.043-.542h0l.006-.004a4.487 4.487 0 012.724-.855zm3.246 10.95h-.201l-.145.14-3.034 2.91-.172-.179 3.256-3.121h2.299a3.875 3.875 0 003.871-3.87V5.62v0a3.875 3.875 0 00-3.87-3.871H4.62h0A3.875 3.875 0 00.75 5.62v5.759h0a3.875 3.875 0 003.87 3.871H7v.25H4.622A4.126 4.126 0 01.5 11.379V5.62A4.126 4.126 0 014.621 1.5H15.38A4.126 4.126 0 0119.5 5.622v5.757a4.126 4.126 0 01-4.124 4.121s0 0 0 0h-2zm-3.652-2.135a.497.497 0 01-.774-.415c0-.13.05-.257.14-.352a.533.533 0 01.712.002.5.5 0 01-.078.765z"/></svg>