<svg xmlns="http://www.w3.org/2000/svg" width="20" height="20" viewBox="0 0 20 20" fill="currentColor"><path d="M19.832 18.418l-2.266-2.266A3.45 3.45 0 0018 14.5a3.5 3.5 0 10-3.5 3.5 3.45 3.45 0 001.652-.434l2.266 2.266 1.414-1.414zM14.5 12.725a1.775 1.775 0 110 3.55 1.775 1.775 0 010-3.55zM9 5.5a3.5 3.5 0 11-7 0 3.5 3.5 0 017 0zm2 2.375v-4.75A1.127 1.127 0 0112.125 2h4.75A1.127 1.127 0 0118 3.125v4.75A1.127 1.127 0 0116.875 9h-4.75A1.127 1.127 0 0111 7.875zm-2 4.25v4.75A1.127 1.127 0 017.875 18h-4.75A1.127 1.127 0 012 16.875v-4.75A1.127 1.127 0 013.125 11h4.75A1.127 1.127 0 019 12.125z"/></svg>