<svg xmlns="http://www.w3.org/2000/svg" width="20" height="20" viewBox="0 0 20 20" fill="currentColor"><path d="M13.25 6.579a3.213 3.213 0 01-.492 1.7L8.3 3.821a3.233 3.233 0 014.95 2.758zm-6.5 0a3.235 3.235 0 004.95 2.759L7.242 4.882a3.207 3.207 0 00-.492 1.697zM2 17.5A2.5 2.5 0 004.5 20h12.375A1.127 1.127 0 0018 18.875V15H4.5A2.5 2.5 0 002 17.5zM18 1.125v12.5H4.5a3.841 3.841 0 00-2.5.939V2.625A2.628 2.628 0 014.625 0h12.25A1.127 1.127 0 0118 1.125zm-3.25 5.454a4.75 4.75 0 10-4.75 4.75 4.756 4.756 0 004.75-4.75z"/></svg>