<svg xmlns="http://www.w3.org/2000/svg" width="20" height="20" viewBox="0 0 20 20" fill="currentColor"><g clip-path="url(#clip0_472_1132)"><path d="M15.751 6.059L17 6.142l-.761 11.441a2.579 2.579 0 01-2.439 2.542H6.2a2.578 2.578 0 01-2.437-2.536L3 6.142l1.248-.083.761 11.441A1.366 1.366 0 006.2 18.875h7.6a1.369 1.369 0 001.191-1.381l.76-11.435zM18 3v1.25H2V3h4v-.375A2.762 2.762 0 018.875 0h2.25A2.762 2.762 0 0114 2.625V3h4zM7.25 3h5.5v-.375a1.518 1.518 0 00-1.625-1.375h-2.25A1.518 1.518 0 007.25 2.625V3z"/></g><defs><clipPath id="clip0_472_1132"><path d="M0 0h20v20H0z"/></clipPath></defs></svg>