<svg xmlns="http://www.w3.org/2000/svg" width="20" height="20" viewBox="0 0 20 20" fill="currentColor"><g clip-path="url(#clip0_1581_840)"><path d="M19 7.625v9.78A2.618 2.618 0 0116.307 20H3.745a2.675 2.675 0 01-2.719-2.621L1 7.626A.627.627 0 011.625 7h2.187v1.25H2.251l.025 9.127a1.424 1.424 0 001.469 1.373h12.562a1.385 1.385 0 001.443-1.345V8.25h-1.563V7h2.188a.625.625 0 01.625.625zM8.013 7v1.25h3.974V7H8.013zM15 4.625A4.83 4.83 0 0010 0a4.829 4.829 0 00-5 4.625v5.3h1.25v-5.3A3.581 3.581 0 0110 1.25a3.58 3.58 0 013.75 3.375v5.3H15v-5.3z"/></g><defs><clipPath id="clip0_1581_840"><path d="M0 0h20v20H0z"/></clipPath></defs></svg>