<svg xmlns="http://www.w3.org/2000/svg" width="20" height="20" viewBox="0 0 20 20" fill="currentColor"><g clip-path="url(#clip0_3595_128)"><path d="M19.468 7.823h0l.003.007a.589.589 0 01-.118.578h0l-3.639 4.119-.143.162.02.216.51 5.46v.002a.598.598 0 01-.6.657H15.5a.598.598 0 01-.24-.05h0L10.197 16.8 10 16.716l-.198.084-5.066 2.174-.002.002a.601.601 0 01-.837-.608v-.001l.515-5.464.02-.216-.143-.162L.651 8.407s0 0 0 0a.6.6 0 01.321-.982h0L6.35 6.22l.21-.047.11-.185L9.47 1.283a.641.641 0 011.055 0l2.805 4.71.11.185.21.047 5.378 1.2h.003a.59.59 0 01.437.398zM8.055 13.91a3.5 3.5 0 103.89-5.82 3.5 3.5 0 00-3.89 5.82z"/></g><defs><clipPath id="clip0_3595_128"><path d="M0 0h20v20H0z"/></clipPath></defs></svg>