<svg xmlns="http://www.w3.org/2000/svg" width="20" height="20" viewBox="0 0 20 20" fill="currentColor"><g clip-path="url(#clip0_1581_854)"><path d="M3.663 16.272l-.136.324.26.238a9.2 9.2 0 0012.427 0l.259-.237-.136-.324-1.259-3.007h0a9.406 9.406 0 01-.394-6.133l.239.08a9.153 9.153 0 00.386 5.961l1.046 2.5.324.775.527-.655a9.25 9.25 0 10-14.411 0l.526.655.324-.775 1.046-2.5a9.156 9.156 0 00.386-5.961l.239-.08a9.406 9.406 0 01-.394 6.132h0l-1.26 3.007zM4.723 2.1A9.5 9.5 0 0110 .5a9.51 9.51 0 019.5 9.5A9.5 9.5 0 114.722 2.102z"/></g><defs><clipPath id="clip0_1581_854"><path d="M0 0h20v20H0z"/></clipPath></defs></svg>