<svg xmlns="http://www.w3.org/2000/svg" width="20" height="20" viewBox="0 0 20 20" fill="currentColor"><path d="M13.773 6.295h0c-.808 2.42-.71 5.05.276 7.403l1.636 3.913a9.475 9.475 0 01-11.354 0L5.965 13.7s0 0 0 0a10.536 10.536 0 00.273-7.404h0L6 5.584l-.159-.473-.473.157-1.423.474-.477.16.161.475.24.71s0 0 0 0a8.023 8.023 0 01-.213 5.647v.001l-1.238 2.966A9.44 9.44 0 01.5 10v0a9.487 9.487 0 014.11-7.821 9.504 9.504 0 0114.622 5.578 9.485 9.485 0 01-1.637 7.943l-1.237-2.964h0a8.026 8.026 0 01-.213-5.649h0l.238-.712.158-.475-.475-.158-1.423-.474-.473-.157-.159.473-.238.711z"/></svg>