<svg xmlns="http://www.w3.org/2000/svg" width="20" height="20" viewBox="0 0 20 20" fill="currentColor"><path d="M5.625 5.75h0A1.877 1.877 0 003.75 7.624v4.751h0a1.877 1.877 0 001.874 1.875h4.751a1.877 1.877 0 001.875-1.874V7.625h0a1.877 1.877 0 00-1.874-1.875H5.625zm10.45.75l.001.01.002.011c.007.034.01.068.012.103a.509.509 0 01-.504.496v0h-.01a.338.338 0 01-.152-.032l-.02-.01-.02-.007a.434.434 0 01-.15-.095.507.507 0 01-.144-.355v-.027c-.001-.012 0-.023.003-.035l.006-.023.004-.024a.552.552 0 01.02-.082.453.453 0 01.04-.063l.023-.032.018-.035a.11.11 0 01.021-.028h0l.006-.006a.433.433 0 01.153-.097h0l.01-.004a.52.52 0 01.546.103.51.51 0 01.062.076l.01.017.013.016.01.017.012.038.018.036c.005.01.008.02.01.031zm-.364 3.605l-.011.001-.011.002a.71.71 0 01-.102.012.551.551 0 01-.356-.147.507.507 0 01-.141-.352v-.027c-.001-.011 0-.023.003-.035l.006-.023.004-.024a.552.552 0 01.02-.082.453.453 0 01.04-.063l.023-.032.018-.035a.11.11 0 01.021-.028h0l.006-.006a.433.433 0 01.153-.097h0l.01-.004a.52.52 0 01.546.103.51.51 0 01.062.076l.01.017.013.016.01.017.012.038.018.036c.005.01.008.02.01.031l.001.011.002.011c.007.034.01.068.012.103a.517.517 0 01-.152.351l-.01.01-.008.009a.11.11 0 01-.027.021l-.031.018-.029.022a.055.055 0 01-.017.01l-.038.012-.036.018a.1.1 0 01-.031.01zm3.459 7.065c-.211.21-.497.33-.796.33H1.626A1.127 1.127 0 01.5 16.375V3.625A1.127 1.127 0 011.625 2.5h16.75A1.127 1.127 0 0119.5 3.626v12.748c0 .299-.12.585-.33.796zm-8.796-2.67H5.626s0 0 0 0A2.129 2.129 0 013.5 12.374V7.625A2.129 2.129 0 015.625 5.5h4.75A2.129 2.129 0 0112.5 7.625s0 0 0 0v4.75s0 0 0 0a2.129 2.129 0 01-2.125 2.125s0 0 0 0zM1.625 2.75a.875.875 0 00-.875.875v12.75a.875.875 0 00.875.875h16.75a.875.875 0 00.875-.875V3.625a.875.875 0 00-.875-.875H1.625z"/></svg>