<svg xmlns="http://www.w3.org/2000/svg" width="20" height="20" viewBox="0 0 20 20" fill="currentColor"><path d="M14.188 19.03a.625.625 0 01-.626.625l.626-.625zm0 0c0-.923-.315-1.819-.895-2.537m.895 2.537l-.895-2.537m0 0A4.03 4.03 0 0011 15.084l2.293 1.409zM7.5 8.5v1H5.796A4.17 4.17 0 011.5 5.49V2.116a.631.631 0 01.64-.615h3.672v0h.008a4.3 4.3 0 013.865 2.288A6.261 6.261 0 007.5 8.496h0V8.5zm10.352-4v0h.008a.63.63 0 01.64.615V8.49a4.17 4.17 0 01-4.296 4.01H10.5v2.987l.395.085a3.531 3.531 0 012.793 3.456v.001a.124.124 0 01-.125.125H6.812a.125.125 0 01-.124-.124v-.002a3.53 3.53 0 012.792-3.456l.395-.085V8.423l.045-.319A4.193 4.193 0 0114.176 4.5h3.676z"/></svg>