<svg xmlns="http://www.w3.org/2000/svg" width="20" height="20" viewBox="0 0 20 20" fill="currentColor"><path d="M4.9 4.605L4.888 4.6l-.01-.003a2.476 2.476 0 00-1.962.132l-.61.314.486.485L5.77 8.503l-.017.02v.001l-.13.156-3.52-3.485v-.001a.126.126 0 01-.006-.17 2.768 2.768 0 012.883-.657l3.21 1.32a200.702 200.702 0 01-.163.19L4.898 4.604zM7.158 14.75l-.285.235.141.342c.407.984.449 2.08.118 3.093a.623.623 0 01-.339.36l.179-.678a4.165 4.165 0 00-.183-2.664l-.01-.023-.012-.023a.613.613 0 01.15-.766h0l2.29-1.892h0a.623.623 0 01.838.04h0l4.457 4.448.489.488.31-.617a2.499 2.499 0 00.12-1.974l-.004-.01-.004-.009-2.15-5.279h0l-.001-.003a.61.61 0 01.15-.685h0l.003-.002c.537-.5 1.883-1.755 2.613-2.486a11.408 11.408 0 002.46-3.657 1.114 1.114 0 00-.246-1.242 1.106 1.106 0 00-1.238-.23l-.051.022h0l-.006.003a11.4 11.4 0 00-3.504 2.393l-.001.002-.17.167-.001.002A77.452 77.452 0 008.44 9.397h0l-3.067 3.69h0l-.002.001a.61.61 0 01-.763.149l-.022-.012-.024-.01a4.156 4.156 0 00-2.665-.186l-.68.18a.629.629 0 01.358-.342 4.459 4.459 0 013.093.12l.34.14.235-.283 3-3.606a79.356 79.356 0 014.843-5.309l.17-.17h0a11.665 11.665 0 013.588-2.449s0 0 0 0l.055-.024h.001a1.376 1.376 0 011.82 1.797v.002a11.672 11.672 0 01-2.515 3.74h0c-.702.702-1.97 1.887-2.555 2.43l-.253.236.13.32 2.123 5.212a2.765 2.765 0 01-.635 2.892s0 0 0 0l-.088.088-4.975-4.97-.32-.32-.351.288-2.123 1.75zm-1.023 3.578l.496.497a.622.622 0 01-.53-.178l-.002-.002-4.746-4.745h-.001a.629.629 0 01-.179-.532l.498.497 4.464 4.463z"/></svg>