<svg xmlns="http://www.w3.org/2000/svg" width="20" height="20" viewBox="0 0 20 20" fill="currentColor"><path d="M10 5.125a4.5 4.5 0 100 9 4.5 4.5 0 000-9zm3.25 4.5c0 .646-.193 1.277-.554 1.812L8.188 6.929a3.248 3.248 0 015.062 2.7v-.004zm-6.5 0a3.232 3.232 0 01.55-1.812l4.508 4.508a3.249 3.249 0 01-5.062-2.7l.004.004zM18.154 2.1L10.271.109a1.1 1.1 0 00-.541 0L1.846 2.1A1.122 1.122 0 001 3.187V12c0 5.277 7.249 7.554 8.7 7.957.098.027.199.042.3.043.101 0 .202-.014.3-.04 1.453-.4 8.7-2.68 8.7-7.957V3.187a1.122 1.122 0 00-.846-1.087zm-.4 9.9c0 4.465-6.989 6.531-7.714 6.751-.8-.22-7.786-2.286-7.786-6.751V3.283L10 1.33l7.75 1.953.004 8.717z"/></svg>