<svg xmlns="http://www.w3.org/2000/svg" width="20" height="20" viewBox="0 0 20 20" fill="currentColor"><g clip-path="url(#clip0_1661_29)"><path d="M17.884 19H2.118A1.113 1.113 0 011 17.893v-.482A6.483 6.483 0 017.538 11h4.926A6.483 6.483 0 0119 17.411v.482A1.113 1.113 0 0117.884 19zM2.251 17.75h15.5v-.339a5.231 5.231 0 00-5.287-5.161H7.538a5.231 5.231 0 00-5.287 5.161v.339zM13.522 6.243a3.75 3.75 0 11-1.365-4.3h1.43v-.412a5 5 0 100 6.938V6.243h-.065zm6.345-2.493H16.25V0H15v3.75h-3.617V5H15v4h1.25V5h3.617V3.75z"/></g><defs><clipPath id="clip0_1661_29"><path d="M0 0h20v20H0z"/></clipPath></defs></svg>