<svg xmlns="http://www.w3.org/2000/svg" width="20" height="20" viewBox="0 0 20 20" fill="currentColor"><path d="M15.44 8.638h0l.006.004a2.217 2.217 0 011.054 1.88v2.709s0 0 0 0a6.113 6.113 0 01-1.885 4.414l-.002.002a6.549 6.549 0 01-4.606 1.853h-.003 0-.001 0-.001 0H10h0H10h0-.001 0-.001 0-.001 0-.001 0-.001 0-.001 0-.001 0-.001 0-.001 0-.001 0-.001 0-.001 0-.001 0-.001 0-.001 0-.001 0-.001 0-.001 0-.001 0-.001 0-.001 0-.001 0-.001 0-.001 0-.001 0-.001 0-.001 0-.001 0-.001 0-.001 0-.001 0-.001 0-.001 0-.001 0-.001 0-.001 0-.001 0-.001 0-.001 0-.001 0-.001 0-.001 0-.001 0-.001 0-.001 0-.001 0-.001 0-.001 0-.001 0-.001 0-.001 0-.001 0-.001 0-.001 0-.001 0-.001 0-.001 0-.001 0-.001 0-.001 0-.001 0-.001 0-.001 0-.001 0-.001 0-.001 0-.001 0-.001 0-.001 0-.001 0-.001 0-.001 0-.001 0-.001 0-.001 0-.001 0-.001 0-.001 0-.001 0-.001 0-.001 0-.001 0-.001 0-.001 0-.001 0-.001 0-.001 0-.001 0-.001 0-.001 0-.001 0-.001 0-.001 0-.001 0-.001 0-.001 0-.001 0-.001 0H9.9h0H9.9h0-.001 0-.001 0-.001 0-.001 0-.001 0-.001 0-.001 0-.001 0-.001 0-.001 0-.001 0-.001 0-.001 0-.001 0-.001 0-.001 0-.001 0-.001 0-.001 0-.001 0-.001 0-.001 0-.001 0-.001 0-.001 0-.001 0-.001 0-.001 0-.001 0-.001 0-.001 0-.001 0-.001 0-.001 0-.001 0-.001 0-.001 0-.001 0-.001 0-.001 0-.001 0-.001 0-.001 0-.001 0-.001 0-.001 0-.001 0-.001 0-.001 0-.001 0-.001 0-.001 0-.001 0-.001 0-.001 0-.001 0-.001 0-.001 0-.001 0-.001 0-.001 0-.001 0-.001 0-.001 0-.001 0-.001 0-.001 0-.001 0-.001 0-.001 0-.001 0-.001 0-.001 0-.001 0-.001 0-.001 0-.001 0-.001 0-.001 0-.001 0-.001 0-.001 0-.001 0-.001 0-.001 0-.001 0-.001 0-.001 0-.001 0-.001 0-.001 0-.001 0-.001 0-.001 0-.001 0-.001 0-.001 0-.001 0H9.8h0H9.8h0-.001 0-.001 0-.001 0-.001A6.557 6.557 0 013.5 12.973v-2.45a2.217 2.217 0 011.056-1.881h0l.005-.003a2.375 2.375 0 012.294-.134l2.687 1.5.227.127.234-.113 3.13-1.508h.002a2.372 2.372 0 012.306.127zm-8.688.094l-.015-.008-.016-.008a2.07 2.07 0 00-.886-.196c-.403 0-.798.114-1.14.328a1.954 1.954 0 00-.945 1.674s0 0 0 0v2.511l.717-.346 4.158-2.005.866-.417-.839-.47-1.9-1.063zm9.215 2.532l.283-.137v-.605s0 0 0 0a1.954 1.954 0 00-.945-1.674 2.131 2.131 0 00-2.064-.111s0 0 0 0l-9.17 4.42-.321.155.043.355c.107.895.408 1.756.881 2.523l.237.383.405-.195 10.65-5.114zM5.65 16.497l-.613.295.465.497a6.187 6.187 0 004.3 1.958 6.316 6.316 0 004.635-1.777 5.877 5.877 0 001.812-4.239v0-1.826l-.716.344-9.883 4.748zm8.506-10.596a4.063 4.063 0 00-4.134-3.81A4.062 4.062 0 005.89 5.903c-.084-.001-.167 0-.25.003a4.313 4.313 0 014.373-4.061c.223.005.445.027.665.065l.249.043.182-.175.934-.896.172.179-.422.405-.535.514.676.303a4.2 4.2 0 012.475 3.622 4.751 4.751 0 00-.252-.003zM8.55 5.257h0l.003.003a.088.088 0 01.027.066v.022c0 .012 0 .024-.003.035a.401.401 0 01-.035.048.12.12 0 01-.08.029h-.016a.088.088 0 01-.066-.027l-.005-.005-.005-.006a.161.161 0 01-.03-.04.187.187 0 01-.01-.049.1.1 0 01.032-.068h0l.008-.008a.128.128 0 01.18 0zm3.191-.009l.006.006.006.006a.09.09 0 01.027.066v.022c0 .012 0 .024-.003.035a.398.398 0 01-.035.048.12.12 0 01-.08.029h-.016a.137.137 0 01-.039-.005.101.101 0 01-.023-.018l-.007-.007-.007-.008a.163.163 0 01-.033-.045.1.1 0 01.001-.077l.006-.013.003-.01.028-.022.023-.028.005-.002.009-.003a.118.118 0 01.13.026z"/></svg>