<svg xmlns="http://www.w3.org/2000/svg" width="20" height="20" viewBox="0 0 20 20" fill="currentColor"><g clip-path="url(#clip0_472_1131)"><path d="M2.263 9.465l-1.936.5A9.925 9.925 0 012.929.4l1.414 1.416a7.922 7.922 0 00-2.08 7.649zM17.07.4l-1.414 1.416a7.923 7.923 0 012.08 7.649l1.936.5A9.925 9.925 0 0017.07.4zM9 18H8a2 2 0 004 0H9zm8.263-7.07a2.699 2.699 0 01-1.19-2.23l-.004-1.61a6.069 6.069 0 10-12.138 0v1.613a2.7 2.7 0 01-1.193 2.227A3.949 3.949 0 001 14.208v.672A1.119 1.119 0 002.117 16h15.766A1.119 1.119 0 0019 14.88v-.672a3.95 3.95 0 00-1.737-3.278z"/></g><defs><clipPath id="clip0_472_1131"><path d="M0 0h20v20H0z"/></clipPath></defs></svg>