<svg xmlns="http://www.w3.org/2000/svg" width="20" height="20" viewBox="0 0 20 20" fill="currentColor"><path d="M18.376 4H1.624A1.618 1.618 0 000 5.607v11.786A1.618 1.618 0 001.624 19h16.752A1.618 1.618 0 0020 17.393V5.607A1.618 1.618 0 0018.376 4zm.374 13.393a.366.366 0 01-.374.357H1.624a.366.366 0 01-.374-.357V5.607a.366.366 0 01.374-.357h16.752a.366.366 0 01.374.357v11.786zM6 14.529h.014A2.049 2.049 0 008.07 16.3h3.858A1.854 1.854 0 0014 14.529V12H6v2.529zm1.249-1.279h5.5v1.279c0 .47-.574.521-.821.521H8.07a.79.79 0 01-.821-.75v-1.05zM8.624 3h-1.25a2.625 2.625 0 015.25 0h-1.25a1.375 1.375 0 00-2.75 0zM7 10H5V8h2v2zm6-2h2v2h-2V8z"/></svg>