<svg xmlns="http://www.w3.org/2000/svg" width="20" height="20" viewBox="0 0 20 20" fill="currentColor"><g clip-path="url(#clip0_474_99)"><path d="M10 0a10 10 0 1010 10A10.011 10.011 0 0010 0zm1.187 14.646c-.11.194-.27.356-.461.471a1.24 1.24 0 01-.657.178 1.287 1.287 0 01-.649-2.4c.195-.114.417-.173.642-.171a1.292 1.292 0 011.118.635 1.3 1.3 0 01.007 1.286v.001zm1.8-6.238c-.1.233-.235.45-.4.643a8.64 8.64 0 01-.629.625c-.223.2-.4.37-.53.512-.132.145-.243.31-.328.486a1.37 1.37 0 00-.133.608v.574H9.14v-.567c-.007-.33.056-.659.184-.964.108-.255.256-.491.438-.7A6.86 6.86 0 0110.425 9c.2-.173.348-.315.458-.427.108-.11.2-.234.273-.369a.91.91 0 00.11-.441.874.874 0 00-.151-.5 1 1 0 00-.407-.346 1.346 1.346 0 00-1.168.021c-.18.09-.333.226-.445.393a1.033 1.033 0 00-.174.57H7.027c.006-.51.144-1.009.4-1.449a2.815 2.815 0 011.1-1.055A3.373 3.373 0 0110.186 5a3.515 3.515 0 011.524.321c.43.196.796.508 1.06.9.257.39.39.848.382 1.315.006.3-.05.596-.167.872h.002z"/></g><defs><clipPath id="clip0_474_99"><path d="M0 0h20v20H0z"/></clipPath></defs></svg>