<svg xmlns="http://www.w3.org/2000/svg" width="20" height="20" viewBox="0 0 20 20" fill="currentColor"><path d="M16.375 8.5H3.625A3.478 3.478 0 011 7.291v9.114A2.6 2.6 0 003.6 19h12.8a2.6 2.6 0 002.6-2.595V7.291A3.478 3.478 0 0116.375 8.5zm-3.345 7.439l-.088.089-.884.884-.088.088L10 15.03 8.03 17l-.088-.088-.884-.884-.088-.089 1.969-1.969L6.97 12l.088-.088.884-.884.088-.089 1.97 1.97 1.97-1.97.088.089.884.884.088.088-1.969 1.97 1.969 1.969zM19 3.625v.75A2.63 2.63 0 0116.375 7H3.625A2.629 2.629 0 011 4.375v-.75A2.629 2.629 0 013.625 1h12.75A2.63 2.63 0 0119 3.625z"/></svg>