<svg xmlns="http://www.w3.org/2000/svg" width="20" height="20" viewBox="0 0 20 20" fill="currentColor"><g clip-path="url(#clip0_1136_29)"><path d="M10-.007a10 10 0 1010 10 10.011 10.011 0 00-10-10zm0 1.25a8.755 8.755 0 017.93 5.074H10a3.668 3.668 0 00-3.444 2.449l-2.8-4.9A8.724 8.724 0 0110 1.243zm2.43 8.75a2.421 2.421 0 01-4.682.873l-.012-.021a2.4 2.4 0 01-.162-.85 2.426 2.426 0 114.851 0l.005-.002zm-11.18 0c0-1.832.58-3.617 1.655-5.1l3.7 6.475a3.632 3.632 0 004.08 2.232L7.9 18.477a8.758 8.758 0 01-6.65-8.484zm8.75 8.75a8.64 8.64 0 01-.792-.04l3.7-6.465H12.9a3.6 3.6 0 00-.152-4.667H18.4A8.732 8.732 0 0110 18.743z"/></g><defs><clipPath id="clip0_1136_29"><path d="M0 0h20v20H0z"/></clipPath></defs></svg>