<svg xmlns="http://www.w3.org/2000/svg" width="20" height="20" viewBox="0 0 20 20" fill="currentColor"><path d="M15.209 10.95c.545.7.825 1.571.791 2.458a4.36 4.36 0 01-.668 2.394 4.448 4.448 0 01-1.855 1.623 6.155 6.155 0 01-2.715.575H5V2h4.511a6.981 6.981 0 012.817.521 4.183 4.183 0 011.828 1.443c.425.617.647 1.35.636 2.1a4.243 4.243 0 01-.476 1.96 4.33 4.33 0 01-1.256 1.509 4.5 4.5 0 012.149 1.417zm-7.59-6.215v3.951h2.127a2.016 2.016 0 001.513-.564 2.04 2.04 0 00.551-1.487 1.7 1.7 0 00-.61-1.422 2.619 2.619 0 00-1.657-.478H7.619zm3.057 10.53a2.372 2.372 0 001.657-.571 1.95 1.95 0 00.631-1.524 1.852 1.852 0 00-.674-1.531 2.792 2.792 0 00-1.806-.543H7.619v4.169h3.057z"/></svg>