<svg xmlns="http://www.w3.org/2000/svg" width="20" height="20" viewBox="0 0 20 20" fill="currentColor"><g clip-path="url(#clip0_474_95)"><path d="M9 3H7a3 3 0 116 0h-2a1 1 0 00-2 0zm11 2.607v11.786A1.618 1.618 0 0118.376 19H1.624A1.618 1.618 0 010 17.393V5.607A1.618 1.618 0 011.624 4h16.752A1.618 1.618 0 0120 5.607zM5 10h2V8H5v2zm8.375 2.625h-6.75V14.3a1.412 1.412 0 001.446 1.375h3.858c.8 0 1.446-.386 1.446-1.146v-1.904zM15 8h-2v2h2V8z"/></g><defs><clipPath id="clip0_474_95"><path d="M0 0h20v20H0z"/></clipPath></defs></svg>