<svg xmlns="http://www.w3.org/2000/svg" width="20" height="20" viewBox="0 0 20 20" fill="currentColor"><path d="M3.375 11.5h0a.125.125 0 00-.123.15.125.125 0 00.034.063h0l1.794 1.794.353.353-.353.354-3.705 3.704.707.707 3.704-3.704.354-.354.354.354 1.792 1.792s0 0 0 0a.127.127 0 00.138.027.126.126 0 00.076-.115L3.375 11.5zm0 0h5m-5 0h5m0 0a.125.125 0 01.125.125v5L8.375 11.5zm8.338-3.213h0a.125.125 0 01-.088.213h0-5a.125.125 0 01-.125-.125v-5 0a.125.125 0 01.213-.088h0l1.793 1.793.354.353.354-.353 3.658-3.66.707.707-3.659 3.66-.353.353.353.354 1.793 1.793z"/></svg>