<svg xmlns="http://www.w3.org/2000/svg" width="20" height="20" viewBox="0 0 20 20" fill="currentColor"><g clip-path="url(#clip0_1580_227)"><path d="M10 6.75a3.213 3.213 0 00-1.7.492l4.458 4.458c.32-.51.49-1.098.492-1.7A3.254 3.254 0 0010 6.75z"/><path d="M19.856 9.452l-4.447-7.885A1.116 1.116 0 0014.437 1H5.562a1.116 1.116 0 00-.971.567L.145 9.45a1.111 1.111 0 000 1.1l4.445 7.882a1.118 1.118 0 00.972.568h8.875a1.116 1.116 0 00.972-.567l4.446-7.883a1.11 1.11 0 000-1.098zM10 14.75A4.75 4.75 0 1114.75 10 4.756 4.756 0 0110 14.75z"/><path d="M6.75 10A3.254 3.254 0 0010 13.25a3.212 3.212 0 001.7-.492L7.242 8.3c-.32.51-.49 1.098-.492 1.7z"/></g><defs><clipPath id="clip0_1580_227"><path d="M0 0h20v20H0z"/></clipPath></defs></svg>