<svg xmlns="http://www.w3.org/2000/svg" width="20" height="20" viewBox="0 0 20 20" fill="currentColor"><path d="M16.5 4a.6.6 0 01-.216.462l-2.742 2.286a.6.6 0 01-.985-.461V1.713a.6.6 0 01.984-.46l2.924 2.436L16.5 4zM7.034 5.183v1.1a.6.6 0 00.984.461l2.742-2.282A.6.6 0 0010.978 4l-.036-.311-2.923-2.436a.6.6 0 00-.984.46v1.424A8.017 8.017 0 00.646 9.392h2.072a6.008 6.008 0 014.316-4.209zM4.182 13.41l1.641-.726v6.222H7.74V10.27H7.17l-2.988 1.365v1.775zM12.626 19a3.009 3.009 0 002.841-1.808c.292-.657.434-1.37.416-2.088v-.979a4.952 4.952 0 00-.415-2.112 3.146 3.146 0 00-1.155-1.366 3.08 3.08 0 00-1.693-.471 3.041 3.041 0 00-1.693.469 3.178 3.178 0 00-1.167 1.371 4.908 4.908 0 00-.422 2.109v.975a4.8 4.8 0 00.42 2.077A3.054 3.054 0 0012.625 19zm.006-1.658a1.175 1.175 0 01-1.04-.525 2.5 2.5 0 01-.354-1.421v-1.611a2.429 2.429 0 01.366-1.459 1.216 1.216 0 011.034-.492 1.153 1.153 0 011 .486c.26.442.381.953.345 1.465V15.4a2.492 2.492 0 01-.351 1.454 1.158 1.158 0 01-1 .488z"/></svg>