<svg xmlns="http://www.w3.org/2000/svg" width="20" height="20" viewBox="0 0 20 20" fill="currentColor"><g clip-path="url(#clip0_473_146)"><path d="M10 0a10 10 0 1010 10A10.011 10.011 0 0010 0zM4.5 9a1.5 1.5 0 113 0 1.5 1.5 0 01-3 0zm5.5 6.454a4.63 4.63 0 01-3.818-1.878l1.635-1.151A2.669 2.669 0 0010 13.454a2.666 2.666 0 002.182-1.029l1.636 1.15A4.626 4.626 0 0110 15.454zm4-4.954a1.5 1.5 0 110-3 1.5 1.5 0 010 3z"/></g><defs><clipPath id="clip0_473_146"><path d="M0 0h20v20H0z"/></clipPath></defs></svg>