<svg xmlns="http://www.w3.org/2000/svg" width="20" height="20" viewBox="0 0 20 20" fill="currentColor"><path d="M1.348 5.155h.72v-2.31c-.22.101-.458.158-.7.167v-.761c.265.013.525-.077.726-.251h1.054v3.155h.628V6H1.348v-.845zm-.263 6.631c0-.569.107-1.145 1.153-1.778.6-.37.773-.453.773-.783 0-.222-.141-.346-.387-.346a1.066 1.066 0 00-.831.593l-.716-.518A1.758 1.758 0 012.649 8c.929 0 1.374.469 1.374 1.2 0 .445-.181.882-.988 1.316-.5.282-.666.478-.724.636h1.736V12H1.085v-.214zM1 17.206l.631-.551a1.055 1.055 0 00.849.5c.43 0 .575-.176.575-.419 0-.332-.227-.461-.761-.461h-.307v-.723h.323c.518 0 .673-.145.673-.38 0-.2-.145-.316-.413-.316a1.241 1.241 0 00-.882.39l-.551-.641c.406-.392.949-.61 1.513-.605.884 0 1.35.4 1.35 1.052a.815.815 0 01-.575.817.873.873 0 01.7.892C4.124 17.57 3.509 18 2.57 18A1.832 1.832 0 011 17.206zm18-7.831H7v1.25h12v-1.25zm0 6H7v1.25h12v-1.25zm0-12H7v1.25h12v-1.25z"/></svg>