<svg xmlns="http://www.w3.org/2000/svg" width="20" height="20" viewBox="0 0 20 20" fill="currentColor"><path d="M3.76 7.773l.389-.089V7.25a5.855 5.855 0 0111.708 0V7.68l.389.089.14.032a4.32 4.32 0 013.113 3.263c-.02.31-.244.643-.827.984-.6.351-1.467.636-2.481.857-2.02.44-4.482.595-6.191.595-1.709 0-4.17-.154-6.19-.595-1.015-.22-1.881-.506-2.482-.857-.582-.34-.807-.674-.827-.984a4.32 4.32 0 013.118-3.26l.141-.031zm15.483 3.329l-.25-.043.257-.04v-.002l-.389-.033.366-.116a4.282 4.282 0 00-2.865-2.812l-.014-.004-.014-.004-.256-.06-.056-.013H15.6v-.73h0v-.01a5.605 5.605 0 00-11.208 0h0V7.974l.14.145c.16.165.418.292.682.394.286.11.657.218 1.105.313.896.191 2.13.337 3.672.337a19.573 19.573 0 003.1-.23l.004-.001.124-.02.04.247-.119.02h-.001c-1.038.16-2.087.239-3.137.234H10a22.28 22.28 0 01-2.791-.188c-.644-.088-1.286-.216-1.824-.397-.554-.187-.925-.407-1.106-.633l-.196-.244-.306.07-.109.025-.015.003-.015.005a4.281 4.281 0 00-2.865 2.815l-.036.116.02.12c.043.247.222.418.334.51.135.112.31.22.514.322.408.205.987.418 1.732.61 1.494.386 3.704.703 6.663.703s5.169-.317 6.663-.703c.745-.193 1.324-.405 1.733-.611a2.75 2.75 0 00.514-.323c.112-.093.29-.264.333-.511zM3.586 17.018l.705-1.577.254.041-.732 1.637-.227-.101zm12.835-.01l-.222.121-.89-1.625.265-.043.847 1.547zm-6.296 1.242h-.25v-2.375a26.421 26.421 0 00.25 0v2.375z"/></svg>