<svg xmlns="http://www.w3.org/2000/svg" width="20" height="20" viewBox="0 0 20 20" fill="currentColor"><path d="M3.625 12.069v1.25A2.98 2.98 0 011 10.349V4a2.985 2.985 0 012.958-3h8.084a2.969 2.969 0 012.92 2.625h-1.255a1.72 1.72 0 00-1.665-1.375H3.958A1.734 1.734 0 002.25 4v6.345a1.746 1.746 0 001.375 1.724zm10.4 4.89h2.021A2.962 2.962 0 0019 14V7.959A2.962 2.962 0 0016.042 5H7.958A2.962 2.962 0 005 7.959V14a2.962 2.962 0 002.958 2.959h2.494l-.028 1.478a.719.719 0 00.41.661l.46.158 2.731-2.297zM10.8 18.04h-.005.005zm5.242-11.79a1.711 1.711 0 011.708 1.709V14a1.711 1.711 0 01-1.708 1.709h-2.478L11.7 17.283l.031-1.574H7.958A1.71 1.71 0 016.25 14V7.959A1.711 1.711 0 017.958 6.25h8.084z"/></svg>