<svg xmlns="http://www.w3.org/2000/svg" width="20" height="20" viewBox="0 0 20 20" fill="currentColor"><g clip-path="url(#clip0_630_42)"><path d="M10 14a4 4 0 110-8 4 4 0 010 8zm0-6.75a2.75 2.75 0 100 5.5 2.75 2.75 0 000-5.5zM17.368 18H2.618a2.63 2.63 0 01-2.625-2.625V5.656a2.629 2.629 0 012.625-2.625h2.389l1.216-1.577A1.166 1.166 0 017.146 1h5.739a1.155 1.155 0 01.907.446l1.222 1.585h2.355a2.627 2.627 0 012.624 2.625v9.718A2.63 2.63 0 0117.368 18zM2.618 4.281a1.377 1.377 0 00-1.375 1.375v9.719a1.377 1.377 0 001.375 1.375h14.75a1.377 1.377 0 001.375-1.375V5.657a1.375 1.375 0 00-1.374-1.375h-2.97l-1.6-2.073-5.653.041-1.524 2.031H2.618z"/></g><defs><clipPath id="clip0_630_42"><path d="M0 0h20v20H0z"/></clipPath></defs></svg>