<svg xmlns="http://www.w3.org/2000/svg" width="20" height="20" viewBox="0 0 20 20" fill="currentColor"><path d="M13 4a3 3 0 100 6 3 3 0 000-6zm0 4.75a1.75 1.75 0 110-3.5 1.75 1.75 0 010 3.5z"/><path d="M17.375 1H2.625A1.627 1.627 0 001 2.625v14.75A1.627 1.627 0 002.625 19h14.75A1.627 1.627 0 0019 17.375V2.625A1.627 1.627 0 0017.375 1zM2.25 17.375v-2.683L4.9 12.04a2.332 2.332 0 013.3 0l5.71 5.71H2.625a.375.375 0 01-.375-.375zm15.5 0a.375.375 0 01-.375.375h-1.7l-6.6-6.594a3.582 3.582 0 00-5.063 0L2.25 12.925v-10.3a.375.375 0 01.375-.375h14.75a.375.375 0 01.375.375v14.75z"/></svg>