<svg xmlns="http://www.w3.org/2000/svg" width="20" height="20" viewBox="0 0 20 20" fill="currentColor"><path d="M19.918 10.5a1.114 1.114 0 01-.33.8L14.3 16.588a1.127 1.127 0 01-1.592 0l-1.06-1.06a2.608 2.608 0 01-.769-1.856v-.913L7.241 9.125h-.913a2.607 2.607 0 01-1.856-.769L3.412 7.3a1.125 1.125 0 010-1.59L8.7.412a1.128 1.128 0 011.591 0l1.061 1.062a2.601 2.601 0 01.77 1.856v.912l3.633 3.634h.913a2.607 2.607 0 011.856.769l1.061 1.061a1.12 1.12 0 01.333.794zM8.834 12.834l-1.392-1.392-.884-.884-5.5 5.5a2.04 2.04 0 002.883 2.884l5.5-5.5-.607-.608z"/></svg>