<svg xmlns="http://www.w3.org/2000/svg" width="20" height="20" viewBox="0 0 20 20" fill="currentColor"><path d="M13.5 12.376V7.625h0A3.129 3.129 0 0010.376 4.5H5.625h0A3.129 3.129 0 002.5 7.624v4.751h0A3.129 3.129 0 005.624 15.5h4.751a3.129 3.129 0 003.125-3.124zm2.083-1.256h.02c.087-.002.173-.011.258-.026.104-.016.206-.047.301-.091.091-.034.177-.08.256-.136a1.517 1.517 0 00.672-1.241v-.02a1.724 1.724 0 00-.026-.257 1.101 1.101 0 00-.091-.301 1.056 1.056 0 00-.145-.268 1.511 1.511 0 00-.184-.223h0l-.009-.009a1.52 1.52 0 00-2.103.003 1.11 1.11 0 00-.196.253c-.05.072-.094.148-.131.229l-.008.017-.007.018a1.56 1.56 0 00-.07.258 1.507 1.507 0 00.403 1.355l.007.006.005.005c.283.27.657.422 1.048.428zm1.058-3.434l.002-.001c.282-.281.442-.661.447-1.06v-.019a1.724 1.724 0 00-.026-.257 1.101 1.101 0 00-.091-.301 1.056 1.056 0 00-.145-.268 1.51 1.51 0 00-.184-.223h0l-.009-.009a1.52 1.52 0 00-2.103.003c-.078.075-.143.16-.196.253-.05.072-.094.148-.131.229l-.008.017-.007.018a1.56 1.56 0 00-.07.258 1.507 1.507 0 00.403 1.355h.001l.005.005c.14.137.305.245.487.315.183.083.382.124.582.119.39-.004.764-.16 1.043-.434zM1.625 2.5h16.75A1.127 1.127 0 0119.5 3.626v12.748a1.127 1.127 0 01-1.126 1.126H1.626A1.127 1.127 0 01.5 16.375V3.625A1.127 1.127 0 011.625 2.5z"/></svg>