<svg xmlns="http://www.w3.org/2000/svg" width="20" height="20" viewBox="0 0 20 20" fill="currentColor"><path d="M6.125 15.625h2.19l-.184.639a2.746 2.746 0 01-2.629 1.986l.623-2.625zm0 0v-.25h2.191l-.185-.639a2.75 2.75 0 10-2.629 3.514s0 0 0 0l.623-2.625zm10.325-8.64v.423l.419.07a3.084 3.084 0 012.581 3.013v4.884a.125.125 0 01-.125.125h-1.823L17.5 16a2.495 2.495 0 01-4.988.104l-.02-.478H8.517l-.073.413a2.987 2.987 0 01-5.899-.107l-.06-.43H.625a.125.125 0 01-.125-.126V7.657a.09.09 0 01.002-.006L.707 7H.5V2.2a.627.627 0 01.626-.626h7.499v.25H7.5V7.5h5V5.116a.621.621 0 01.623-.616H15.827a.621.621 0 01.623.616v1.868zM15.825 4h-2.7A1.121 1.121 0 0012 5.114V7l3.825-3zM7.25 2.325v-.5H.75V7.5h6.5V2.325zM15 18.25h0A2.252 2.252 0 0017.25 16v0A2.25 2.25 0 1015 18.25zm3.7-3h.5v-4.76h0v-.009a2.844 2.844 0 00-2.877-2.799.125.125 0 01-.123-.125V4.75h-3.45v2.318h0v.006a.67.67 0 01-.636.676H.75v7.5h1.738l.085-.393a2.994 2.994 0 015.872.107l.074.411h4.038l.126-.314a2.491 2.491 0 014.58-.104l.134.293H18.7z"/></svg>