<svg xmlns="http://www.w3.org/2000/svg" width="20" height="20" viewBox="0 0 20 20" fill="currentColor"><g clip-path="url(#clip0_3596_236)"><path d="M20 10a9.981 9.981 0 01-2.547 6.667l-.667.746-1.486-1.334.667-.746a8 8 0 10-11.926 0l.667.746-1.49 1.334-.667-.746A10 10 0 1120 10zm-3 .03A6.753 6.753 0 0010.209 3a7.27 7.27 0 00-7.2 6.96 6.8 6.8 0 001 3.832l.525.852 1.7-1.052-.525-.85A4.828 4.828 0 015 10.03 5.256 5.256 0 0110.209 5 4.751 4.751 0 0115 9.96a5.154 5.154 0 01-.909 2.74l-.567.825 1.649 1.133.566-.825A7.133 7.133 0 0017 10.03zm-7-2.985a3 3 0 100 6 3 3 0 000-6zM11.648 14h-3.3a1.362 1.362 0 00-1.062.5 1.274 1.274 0 00-.264 1.064l.691 3.37A1.367 1.367 0 009.064 20h1.872a1.367 1.367 0 001.347-1.07l.691-3.367a1.277 1.277 0 00-.264-1.063 1.363 1.363 0 00-1.062-.5z"/></g><defs><clipPath id="clip0_3596_236"><path d="M0 0h20v20H0z"/></clipPath></defs></svg>