<svg xmlns="http://www.w3.org/2000/svg" width="20" height="20" viewBox="0 0 20 20" fill="currentColor"><g clip-path="url(#clip0_474_60)"><path d="M10.273.221L10 .087l-.273.134A10.263 10.263 0 004 9.566V18h12V9.566A10.264 10.264 0 0010.273.221zM10 11a3 3 0 110-6 3 3 0 010 6zm-7.375-.425V18h-.5A1.14 1.14 0 011 16.852v-3.141a3.8 3.8 0 011.625-3.136zM19 13.711v3.141A1.14 1.14 0 0117.875 18h-.5v-7.425A3.8 3.8 0 0119 13.711zM7 18.75h6V20H7v-1.25z"/></g><defs><clipPath id="clip0_474_60"><path d="M0 0h20v20H0z"/></clipPath></defs></svg>