<svg xmlns="http://www.w3.org/2000/svg" width="20" height="20" viewBox="0 0 20 20" fill="currentColor"><path d="M16.5 6.375v.5h2v.25h-2v2.75h2v.25h-2v2.75h2v.25h-2v2.25a1.127 1.127 0 01-1.126 1.125h-2.249v2h-.25v-2h-2.75v2h-.25v-2h-2.75v2h-.25v-2h-2.25A1.127 1.127 0 013.5 15.375v-2.25h-2v-.25h2v-2.75h-2v-.25h2v-2.75h-2v-.25h2v-2.25A1.127 1.127 0 014.625 3.5h2.25v-2h.25v2h2.75v-2h.25v2h2.75v-2h.25v2h2.25A1.127 1.127 0 0116.5 4.626v1.749zm-8.376 7.25h3.751a1.752 1.752 0 001.75-1.75v0-3.75h0a1.752 1.752 0 00-1.75-1.75h0-3.75 0a1.752 1.752 0 00-1.75 1.75v3.75h0a1.752 1.752 0 001.75 1.75zm.751-4.75h2.25v2.25h-2.25v-2.25z"/></svg>