<svg xmlns="http://www.w3.org/2000/svg" width="20" height="20" viewBox="0 0 20 20" fill="currentColor"><g clip-path="url(#clip0_3596_380)"><path d="M9.5 13.922v-.433l-.429-.061a6.501 6.501 0 01-5.309-4.605A6.494 6.494 0 019.081.565a6.503 6.503 0 016.391 2.926 6.495 6.495 0 01-4.543 9.937l-.429.061v3.013h3v.999h-3V19.5h-1v-2h-3v-.998h3v-2.58zm-5-6.917h0a5.503 5.503 0 005.5 5.498h0a5.502 5.502 0 005.081-3.394 5.496 5.496 0 00-4.008-7.496A5.502 5.502 0 004.5 7.005z"/></g><defs><clipPath id="clip0_3596_380"><path d="M0 0h20v20H0z"/></clipPath></defs></svg>