<svg xmlns="http://www.w3.org/2000/svg" width="20" height="20" viewBox="0 0 20 20" fill="currentColor"><g clip-path="url(#clip0_3596_517)"><path d="M10.01 14.58l-.01-.001h-.011a3.754 3.754 0 01-2.765-1.126l.21-.147A3.541 3.541 0 0010 14.33a3.543 3.543 0 002.566-1.023l.21.147a3.754 3.754 0 01-2.765 1.126zm7.115-12.205v.5H19.5v.25h-2.375V5.5h-.25V3.125H14.5v-.25h2.375V.5h.25v1.875zm1.475 11.09c.676-1.706.83-3.57.45-5.355h.252c.13.622.196 1.255.198 1.891A9.495 9.495 0 1111.786.68V.93A9.293 9.293 0 1018.6 13.466zM7 9a1 1 0 11-2 0 1 1 0 012 0zm8 0a1 1 0 11-2 0 1 1 0 012 0z"/></g><defs><clipPath id="clip0_3596_517"><path d="M0 0h20v20H0z"/></clipPath></defs></svg>