<svg xmlns="http://www.w3.org/2000/svg" width="20" height="20" viewBox="0 0 20 20" fill="currentColor"><mask id="a"><path d="M17.3 7.441a2.535 2.535 0 00-.574.07A7.145 7.145 0 0015.4 5.292c.37-.451.575-1.016.578-1.6a2.563 2.563 0 00-5-.792 6.978 6.978 0 00-1.942 0A2.562 2.562 0 104.6 5.292a7.148 7.148 0 00-1.32 2.219 2.535 2.535 0 00-.575-.07 2.571 2.571 0 000 5.141c.194-.002.387-.026.575-.071A7.148 7.148 0 004.6 14.73a2.543 2.543 0 00-.578 1.6 2.563 2.563 0 005 .792c.324.049.65.075.978.078.325-.003.65-.029.97-.077a2.562 2.562 0 104.43-2.393 7.144 7.144 0 001.323-2.219c.188.046.381.07.575.071a2.571 2.571 0 000-5.141h.002zm-3.9-5.072a1.32 1.32 0 110 2.64 1.32 1.32 0 010-2.64zm-6.807 0a1.32 1.32 0 11-.5.098c.161-.066.334-.099.508-.098h-.008zm-5.207 7.642a1.32 1.32 0 112.64.002 1.32 1.32 0 01-2.64-.002zM6.6 17.654a1.321 1.321 0 11-.002-2.642 1.321 1.321 0 01.002 2.642zm6.808 0a1.32 1.32 0 11.5-.099 1.32 1.32 0 01-.508.099h.008zm1-3.687a2.565 2.565 0 00-3.524 1.893 5.696 5.696 0 01-1.763.009 2.564 2.564 0 00-3.525-1.9 5.899 5.899 0 01-1.2-2.038 2.538 2.538 0 000-3.836 5.91 5.91 0 011.2-2.037 2.567 2.567 0 003.522-1.896 5.726 5.726 0 011.763-.009 2.566 2.566 0 003.525 1.9 5.908 5.908 0 011.2 2.037 2.538 2.538 0 000 3.836 5.897 5.897 0 01-1.2 2.041h.002zm2.892-2.635a1.32 1.32 0 11-.002-2.642 1.32 1.32 0 01.002 2.642z"/></mask><path stroke-width="2" d="M17.3 7.441a2.535 2.535 0 00-.574.07A7.145 7.145 0 0015.4 5.292c.37-.451.575-1.016.578-1.6a2.563 2.563 0 00-5-.792 6.978 6.978 0 00-1.942 0A2.562 2.562 0 104.6 5.292a7.148 7.148 0 00-1.32 2.219 2.535 2.535 0 00-.575-.07 2.571 2.571 0 000 5.141c.194-.002.387-.026.575-.071A7.148 7.148 0 004.6 14.73a2.543 2.543 0 00-.578 1.6 2.563 2.563 0 005 .792c.324.049.65.075.978.078.325-.003.65-.029.97-.077a2.562 2.562 0 104.43-2.393 7.144 7.144 0 001.323-2.219c.188.046.381.07.575.071a2.571 2.571 0 000-5.141h.002zm-3.9-5.072a1.32 1.32 0 110 2.64 1.32 1.32 0 010-2.64zm-6.807 0a1.32 1.32 0 11-.5.098c.161-.066.334-.099.508-.098h-.008zm-5.207 7.642a1.32 1.32 0 112.64.002 1.32 1.32 0 01-2.64-.002zM6.6 17.654a1.321 1.321 0 11-.002-2.642 1.321 1.321 0 01.002 2.642zm6.808 0a1.32 1.32 0 11.5-.099 1.32 1.32 0 01-.508.099h.008zm1-3.687a2.565 2.565 0 00-3.524 1.893 5.696 5.696 0 01-1.763.009 2.564 2.564 0 00-3.525-1.9 5.899 5.899 0 01-1.2-2.038 2.538 2.538 0 000-3.836 5.91 5.91 0 011.2-2.037 2.567 2.567 0 003.522-1.896 5.726 5.726 0 011.763-.009 2.566 2.566 0 003.525 1.9 5.908 5.908 0 011.2 2.037 2.538 2.538 0 000 3.836 5.897 5.897 0 01-1.2 2.041h.002zm2.892-2.635a1.32 1.32 0 11-.002-2.642 1.32 1.32 0 01.002 2.642z" mask="url(#a)"/></svg>