<svg xmlns="http://www.w3.org/2000/svg" width="20" height="20" viewBox="0 0 20 20" fill="currentColor"><g clip-path="url(#clip0_474_91)"><path d="M17.883 19H2.119A1.114 1.114 0 011 17.893v-.482A6.482 6.482 0 017.538 11h4.926A6.482 6.482 0 0119 17.411v.482A1.114 1.114 0 0117.883 19zM2.251 17.75h15.5v-.339a5.231 5.231 0 00-5.287-5.161H7.538a5.23 5.23 0 00-5.287 5.161v.339zM10 10a5 5 0 110-10 5 5 0 010 10zm0-8.75a3.75 3.75 0 100 7.5 3.75 3.75 0 000-7.5z"/></g><defs><clipPath id="clip0_474_91"><path d="M0 0h20v20H0z"/></clipPath></defs></svg>