<svg xmlns="http://www.w3.org/2000/svg" width="20" height="20" viewBox="0 0 20 20" fill="currentColor"><path d="M17.375 2H2.625A2.629 2.629 0 000 4.625v10.75A2.63 2.63 0 002.625 18h14.75A2.63 2.63 0 0020 15.375V4.625A2.63 2.63 0 0017.375 2zm1.375 13.375a1.377 1.377 0 01-1.375 1.375H2.625a1.377 1.377 0 01-1.375-1.375V4.625A1.377 1.377 0 012.625 3.25h14.75a1.377 1.377 0 011.375 1.375v10.75zm-2.2-5.7l.029.589-.212.254-2.929 2.929-.884-.884L15.116 10l-2.558-2.558.884-.884 3.108 3.117zM7.442 7.442L4.884 10l2.558 2.558-.884.884-3.112-3.112-.029-.589.212-.254 2.929-2.929.884.884zM9.375 6h1.25v8h-1.25V6z"/></svg>