<svg xmlns="http://www.w3.org/2000/svg" width="20" height="20" viewBox="0 0 20 20" fill="currentColor"><g clip-path="url(#clip0_3596_150)"><path d="M3.5 3.874V8.5H6V3.204l1.5-.402v4.4l-1.18.315.13.983h11.925a.125.125 0 01.125.125v8.75a2.129 2.129 0 01-2.126 2.125H3.626A2.13 2.13 0 011.5 17.375V8.67l.034-.124-.035-.131L.53 4.799v-.002a.123.123 0 01.087-.15h0L3.5 3.873zm13.76.583h0a.124.124 0 01-.087.152h-.002L14 5.46v-4.4l2.07-.555s0 0 0 0a.126.126 0 01.154.09s0 0 0 0l1.035 3.863zM10 6.532v-4.4l1.5-.402v4.4l-1.5.402z"/></g><defs><clipPath id="clip0_3596_150"><path d="M0 0h20v20H0z"/></clipPath></defs></svg>