<svg xmlns="http://www.w3.org/2000/svg" width="20" height="20" viewBox="0 0 20 20" fill="currentColor"><path d="M17 6.875v-4.75A1.127 1.127 0 0015.875 1H2.125A1.127 1.127 0 001 2.125v4.75A1.127 1.127 0 002.125 8h13.75A1.127 1.127 0 0017 6.875zm-1.25-.125H2.25v-4.5h13.5v4.5zM18 3.875V7.9a1.4 1.4 0 01-1.177 1.34l-6.276 1.3a2.677 2.677 0 00-2.165 2.485A1.622 1.622 0 007 14.625v2.75A1.627 1.627 0 008.625 19h1a1.627 1.627 0 001.625-1.625v-2.75A1.626 1.626 0 009.644 13a1.406 1.406 0 011.156-1.236l6.276-1.3A2.677 2.677 0 0019.25 7.9V3.875H18zm-8 10.75v2.75a.375.375 0 01-.375.375h-1a.375.375 0 01-.375-.375v-2.75a.375.375 0 01.375-.375h1a.375.375 0 01.375.375z"/></svg>