<svg xmlns="http://www.w3.org/2000/svg" width="20" height="20" viewBox="0 0 20 20" fill="currentColor"><g clip-path="url(#clip0_473_67)"><path d="M19.613 3.825a1.14 1.14 0 00-1.873-.4l-2.933 2.934a.843.843 0 01-1.166 0 .822.822 0 010-1.164l2.934-2.935a1.138 1.138 0 00.307-1.053 1.123 1.123 0 00-.707-.819A5.491 5.491 0 0012.56.282a5.827 5.827 0 00-4.042 4.775 5.7 5.7 0 00.182 2.28L.847 15.194a2.8 2.8 0 103.958 3.959l7.858-7.853c.74.216 1.516.28 2.281.185a5.825 5.825 0 004.774-4.04 5.482 5.482 0 00-.105-3.62z"/></g><defs><clipPath id="clip0_473_67"><path d="M0 0h20v20H0z"/></clipPath></defs></svg>