<svg xmlns="http://www.w3.org/2000/svg" width="20" height="20" viewBox="0 0 20 20" fill="currentColor"><g clip-path="url(#clip0_474_44)"><path d="M15.757 10.211A4.615 4.615 0 0020 5.625 1.627 1.627 0 0018.375 4H16V2.135A1.126 1.126 0 0014.886 1H5.114A1.126 1.126 0 004 2.135V4H1.625A1.627 1.627 0 000 5.625a4.615 4.615 0 004.243 4.586 6.219 6.219 0 005.132 4.753v2.786H6V19h8v-1.25h-3.375v-2.786a6.22 6.22 0 005.132-4.753zm2.618-4.961a.375.375 0 01.375.375 3.374 3.374 0 01-2.777 3.314c.016-.194.027-.389.027-.587V5.25h2.375zM1.25 5.625a.375.375 0 01.375-.375H4v3.1c0 .2.011.393.027.587A3.374 3.374 0 011.25 5.625zm4 2.727V2.25h9.5v6.1c0 2.976-2.131 5.4-4.75 5.4s-4.75-2.422-4.75-5.398z"/></g><defs><clipPath id="clip0_474_44"><path d="M0 0h20v20H0z"/></clipPath></defs></svg>