<svg xmlns="http://www.w3.org/2000/svg" width="20" height="20" viewBox="0 0 20 20" fill="currentColor"><g clip-path="url(#clip0_3596_279)"><path d="M8.37 5.261h0l-.002-.002a2.421 2.421 0 01-.428-1.93 3.842 3.842 0 011.702-2.303h0l.011-.007a.631.631 0 01.69 0l.008.005.008.005a3.655 3.655 0 011.765 2.943 2.135 2.135 0 01-.673 1.54h0a2.1 2.1 0 01-1.45.573H10c-.063 0-.099 0-.13-.003l-.007-.001h-.008a2.015 2.015 0 01-1.485-.82zm3.88 3.24h.008l.009-.001A1.193 1.193 0 0113.5 9.636v6.45h-7v-6.45A1.193 1.193 0 017.732 8.5h4.518zm5.65 7.343h0l.003-.01.164-.47.944.329-.163.47a5.073 5.073 0 01-4.825 3.337h0-8.041v0h-.006a5.073 5.073 0 01-4.824-3.337l-.164-.47.944-.33.164.472h0l.004.01A4.074 4.074 0 005.986 18.5h8.027a4.074 4.074 0 003.886-2.656z"/></g><defs><clipPath id="clip0_3596_279"><path d="M0 0h20v20H0z"/></clipPath></defs></svg>