<svg xmlns="http://www.w3.org/2000/svg" width="20" height="20" viewBox="0 0 20 20" fill="currentColor"><path d="M6 10.8a.619.619 0 00-.26.056l-3.49 1.6V2.25h7.5v2.417c.14-.026.28-.04.422-.042H11v-2.5A1.15 1.15 0 009.828 1H2.172A1.151 1.151 0 001 2.125v11.3a.625.625 0 00.885.568L6 12.112l1.625.743v-1.374l-1.365-.625A.619.619 0 006 10.8z"/><path d="M17.828 6h-7.656A1.151 1.151 0 009 7.125v11.3a.625.625 0 00.885.568L14 17.112l4.115 1.881a.627.627 0 00.701-.127.627.627 0 00.184-.441v-11.3A1.15 1.15 0 0017.828 6zm-.078 11.452l-3.49-1.6a.632.632 0 00-.52 0l-3.49 1.6V7.25h7.5v10.202z"/></svg>