<svg xmlns="http://www.w3.org/2000/svg" width="20" height="20" viewBox="0 0 20 20" fill="currentColor"><g clip-path="url(#clip0_1581_879)"><path d="M6.321 7.517l.13.983h11.924a.125.125 0 01.125.125v8.75a2.13 2.13 0 01-2.126 2.125H3.626A2.129 2.129 0 011.5 17.375V8.672l.034-.122-.035-.133-.97-3.618v-.001a.124.124 0 01.088-.152s0 0 0 0L16.071.505h.003a.116.116 0 01.09.011h0l.004.003a.12.12 0 01.057.073v.001l1.033 3.864v.001a.125.125 0 01-.044.13.123.123 0 01-.044.022L6.321 7.517zm1.87-.76l.37-.098V2.78l-.63.169-2.777.744-.511.137.165.502a.11.11 0 01.003.011V7.664l.63-.17 2.75-.736zm.99-4.147l-.37.1v3.879l.63-.17 2.75-.736.37-.1V1.705l-.63.169-2.75.737zm7.322 1.92l.483-.13-.13-.483-.711-2.656-.13-.482-.483.129-2.35.63-.371.1V5.52l.63-.17 3.062-.82zM4.561 4.5v-.652l-.63.169-2.644.708-.484.13.13.482.712 2.657.13.483.482-.13 1.94-.52.401-.107-.032-.413a.56.56 0 00-.005-.047V4.5zm-.013 2.7s0 0 0 0h0zM18.25 17.376V8.75H1.75v8.625h0a1.877 1.877 0 001.874 1.875h12.752a1.877 1.877 0 001.874-1.874z"/></g><defs><clipPath id="clip0_1581_879"><path d="M0 0h20v20H0z"/></clipPath></defs></svg>