<svg xmlns="http://www.w3.org/2000/svg" width="20" height="20" viewBox="0 0 20 20" fill="currentColor"><path d="M16.379 1H3.621A2.624 2.624 0 001 3.621v12.758A2.624 2.624 0 003.621 19h7.652c.297 0 .581-.118.791-.328l6.607-6.607c.21-.21.328-.494.329-.791V3.621A2.624 2.624 0 0016.379 1zM2.25 16.379V3.621A1.373 1.373 0 013.621 2.25h12.758a1.373 1.373 0 011.371 1.371V11h-4.292A2.46 2.46 0 0011 13.458v.149c-.323.106-.66.163-1 .168a3.042 3.042 0 01-2.488-1.189l-1.024.719A4.254 4.254 0 0010 15.025c.336-.002.672-.04 1-.113v2.838H3.621a1.373 1.373 0 01-1.371-1.371zm14.469-4.129l-4.469 4.469v-3.261a1.21 1.21 0 011.208-1.208h3.261zM6 9.5a1.5 1.5 0 110-3 1.5 1.5 0 010 3zM12.5 8a1.5 1.5 0 113 0 1.5 1.5 0 01-3 0z"/></svg>