<svg xmlns="http://www.w3.org/2000/svg" width="20" height="20" viewBox="0 0 20 20" fill="currentColor"><g clip-path="url(#clip0_1771_6)"><path d="M10 4a6 6 0 100 12 6 6 0 000-12zm0 10.75A4.75 4.75 0 1114.75 10 4.756 4.756 0 0110 14.75z"/><path d="M10 7a3 3 0 100 6 3 3 0 000-6zm0 4.75a1.75 1.75 0 110-3.5 1.75 1.75 0 010 3.5z"/><path d="M18.838 3.631a4.228 4.228 0 00-2.47-2.469 18.11 18.11 0 00-12.736 0 4.226 4.226 0 00-2.47 2.469 18.035 18.035 0 000 12.738 4.226 4.226 0 002.47 2.469 18.03 18.03 0 0012.736 0 4.229 4.229 0 002.47-2.469 18.035 18.035 0 000-12.738zm-1.17 12.3a2.983 2.983 0 01-1.739 1.739 16.858 16.858 0 01-11.858 0 2.985 2.985 0 01-1.739-1.739 16.785 16.785 0 010-11.858 2.984 2.984 0 011.739-1.741 16.785 16.785 0 0111.858 0 2.983 2.983 0 011.739 1.739 16.785 16.785 0 010 11.858v.002z"/></g><defs><clipPath id="clip0_1771_6"><path d="M0 0h20v20H0z"/></clipPath></defs></svg>