<svg xmlns="http://www.w3.org/2000/svg" width="20" height="20" viewBox="0 0 20 20" fill="currentColor"><g clip-path="url(#clip0_472_1122)"><path d="M10.777 5.364l3.93 3.929-1.414 1.414L11 8.414V19H9V8.414l-2.293 2.293-1.414-1.414 4.222-4.222.9-.029.362.322zm5.64-1.149a6.993 6.993 0 00-12.835 0A4.994 4.994 0 005 14v-2a2.994 2.994 0 01-.508-5.946l.587-.1.192-.563a4.993 4.993 0 019.458 0l.192.563.586.1A2.994 2.994 0 0115 12v2a4.995 4.995 0 001.417-9.785z"/></g><defs><clipPath id="clip0_472_1122"><path d="M0 0h20v20H0z"/></clipPath></defs></svg>