<svg xmlns="http://www.w3.org/2000/svg" width="20" height="20" viewBox="0 0 20 20" fill="currentColor"><path d="M9.125 16.667v.5h2.646v.25H9.125V19.5h-.25v-2.083H6.312v-.25h2.563v-2.4l-.447-.047A5.508 5.508 0 013.5 9.25v-.001a5.447 5.447 0 01.458-2.198V7.05l.05-.115.229.1-.05.115h0a5.252 5.252 0 006.913 6.913h0l.115-.05.1.229-.115.05h0a5.427 5.427 0 01-1.626.429l-.449.046V16.667zM16.854.5a.647.647 0 01.646.646v3.771h-.25V.927l-.853.853-3.208 3.206-.33.33.305.35a5.486 5.486 0 01.877 5.783h0l-.05.115-.229-.1.05-.115h0A5.251 5.251 0 006.9 4.437h0l-.115.05-.1-.229.115-.05h0a5.476 5.476 0 015.527.674l.348.267.31-.31 3.235-3.235.853-.854h-3.99V.5h3.77z"/></svg>