<svg xmlns="http://www.w3.org/2000/svg" width="20" height="20" viewBox="0 0 20 20" fill="currentColor"><g clip-path="url(#clip0_473_125)"><path d="M10 20a10 10 0 1110-10 10.011 10.011 0 01-10 10zm0-18.75A8.75 8.75 0 1018.75 10 8.76 8.76 0 0010 1.25zm3.511 12.109l-1.022-.718A3.046 3.046 0 0110 13.829a3.045 3.045 0 01-2.489-1.188l-1.022.718A4.252 4.252 0 0010 15.079a4.252 4.252 0 003.511-1.72zM6 7.5a1.5 1.5 0 100 3 1.5 1.5 0 000-3zm8 0a1.5 1.5 0 100 3 1.5 1.5 0 000-3z"/></g><defs><clipPath id="clip0_473_125"><path d="M0 0h20v20H0z"/></clipPath></defs></svg>