<svg xmlns="http://www.w3.org/2000/svg" width="20" height="20" viewBox="0 0 20 20" fill="currentColor"><path d="M1.246 15.579h0l5.67-5.673c.04.078.082.155.126.232l-5.62 5.617-.001.001a2 2 0 000 2.822h0l.009.009a2.033 2.033 0 002.809 0h0l.008-.009 5.615-5.617c.075.043.15.084.227.124l-5.667 5.67s0 0 0 0 0 0 0 0a2.247 2.247 0 01-3.176-3.176zM18.46 7.918l-.001.002a5.2 5.2 0 01-4.258 3.606 5.262 5.262 0 01-.64.039h0A5.127 5.127 0 018.474 5.8a5.2 5.2 0 013.6-4.254h.002a4.863 4.863 0 013.21.09h0l.003.002a.613.613 0 01.365.374l-.652-.215a4.632 4.632 0 00-1.44-.232h-.002a4.929 4.929 0 00-4.836 4.254h0v.005a4.877 4.877 0 005.451 5.451h.006a4.932 4.932 0 004.037-3.426 4.638 4.638 0 00-.015-2.847l-.219-.664a.616.616 0 01.384.368l.001.003a4.872 4.872 0 01.09 3.209zm-3.261-5.292l.486-.486a.628.628 0 01-.176.528s0 0 0 0L12.646 5.53h0a1.29 1.29 0 000 1.823h0l.007.007a1.307 1.307 0 001.812 0h0l.007-.006 2.866-2.864h0a.627.627 0 01.53-.18l-.494.494-2.723 2.722a1.588 1.588 0 01-2.184 0 1.543 1.543 0 01.004-2.173s0 0 0 0L15.2 2.626z"/></svg>