<svg xmlns="http://www.w3.org/2000/svg" width="20" height="20" viewBox="0 0 20 20" fill="currentColor"><path d="M5.826 19.2l-.396-.368-2.142-2-.369-.345.349-.366 2.781-2.917-.165-.208-2.871 3.033s0 0 0 0a.646.646 0 00.028.916h0l2.3 2.148s0 0 0 0a.65.65 0 00.44.173H5.843a.649.649 0 00.441-.24l-.458.175zm0 0l.337-.422 2.156-2.707.16.199-2.194 2.756-.46.175zm6.93-7.608l3.618 3.793.612.644a.644.644 0 01-.027.917s0 0 0 0 0 0 0 0l-2.298 2.145s0 0 0 0a.648.648 0 01-.442.172h-.001 0-.001 0-.001 0-.001 0-.001 0-.001 0-.001 0-.001 0-.001 0-.001 0-.001 0-.001 0-.001 0-.001 0-.001 0-.001 0-.001 0-.001 0-.001 0-.001 0-.001 0-.001 0-.001 0-.001 0-.001 0-.001 0-.001 0-.001 0-.001 0-.001 0-.001 0-.001 0-.001 0-.001 0-.001 0-.001 0-.001 0-.001 0-.001 0-.001 0-.001 0-.001 0-.001 0-.001 0-.001 0-.001 0-.001 0-.001 0-.001 0-.001 0-.001 0-.001 0-.001 0-.001 0-.001 0-.001 0-.001 0-.001 0-.001 0-.001 0-.001 0-.001 0-.001 0-.001 0a.648.648 0 01-.441-.24L6.24 9.636l-.006-.007-.006-.007A6.455 6.455 0 014.692 5.87 5.316 5.316 0 0110.008.576h.026l.024-.002a.384.384 0 01.339.142L9.3.87A5.063 5.063 0 004.94 5.884v.022l.001.022a6.313 6.313 0 001.514 3.576l7.384 9.274.337.422.395-.368 2.142-1.995.37-.345-.349-.366-6.975-7.312-.008-.009-.007-.006-.245-.257-1.04-1.09-.023-.028c-.492-.64-.662-1.495-.56-2.376.1-.884.471-1.74.984-2.33l.198-.22h0l.002-.003.02-.021c.194-.22.464-.526.681-.797l.692-.86c.033.106.021.261-.157.557-.207.343-.561.747-1.043 1.293l-.192.211h0l-.005.006a3.774 3.774 0 00-.478 4.304l.03.056.045.047.98 1.04.362.383.364-.382.935-.984a1.967 1.967 0 00.662-1.457v-.002c0-.344-.09-.68-.262-.977 0 0 0 0 0 0l-.126-.218.183-.193.165.285h0a2.19 2.19 0 01-.426 2.72l-.014.013-.012.013-.961 1.01-.33.344.33.345 1.38 1.448.397.415.357-.448.922-1.159c.86-1 1.383-2.243 1.498-3.556l.002-.021v-.022a5.042 5.042 0 00-1.354-3.449l.179-.18a5.276 5.276 0 011.427 3.61 6.436 6.436 0 01-1.526 3.739l-.005.006-.006.007-1.047 1.315-.271.34.3.316z"/></svg>