<svg xmlns="http://www.w3.org/2000/svg" width="20" height="20" viewBox="0 0 20 20" fill="currentColor"><path d="M17.821 17.5h0H2.19v0h-.012a1.641 1.641 0 01-1.602-1.14 1.53 1.53 0 01.603-1.733h0l.01-.007 6.291-4.454.145.204-6.283 4.448a1.282 1.282 0 00-.521 1.467h0v.004a1.4 1.4 0 001.387.96h15.59a1.4 1.4 0 001.386-.96l.002-.004a1.283 1.283 0 00-.52-1.467l-7.491-5.309s0 0 0 0a13.429 13.429 0 01-2.263-2.024l-.002-.002a4.359 4.359 0 01-1.117-2.886A2.154 2.154 0 019.989 2.5h.02a2.154 2.154 0 012.198 2.098v.12h-.25V4.571A1.903 1.903 0 0010 2.75a1.9 1.9 0 00-1.957 1.822v.022A4.1 4.1 0 009.095 7.32c.66.745 1.403 1.412 2.215 1.989h0l7.506 5.315h0l.008.006a1.532 1.532 0 01.598 1.734 1.642 1.642 0 01-1.6 1.137z"/></svg>