<svg xmlns="http://www.w3.org/2000/svg" width="20" height="20" viewBox="0 0 20 20" fill="currentColor"><path d="M19 11H7V9h12v2zm-3-8H7v2h9V3zm-4 12H7v2h5v-2zm-7.776-4.337c0 .9-.882 1.235-1.62 1.235H.872V8H2.4c.911 0 1.655.264 1.655 1.032a.937.937 0 01-.474.749.96.96 0 01.643.882zm-1.74.365h-.509V8.87h.387c.33 0 .573.109.573.464a.481.481 0 01-.5.451v.109a.583.583 0 01.647.568.6.6 0 01-.598.566zm.216 6.936a2.019 2.019 0 110-4.036 1.8 1.8 0 011.643.966l-.942.431a.826.826 0 00-.773-.473.993.993 0 00-.9 1.1.989.989 0 00.894 1.092.885.885 0 00.809-.5l.99.354A1.829 1.829 0 012.7 17.964zm-.161-14.95h.023c.084.36.9 2.884.9 2.884H4.6L3.282 2H1.819L.5 5.9h1.127s.828-2.526.912-2.886z"/></svg>