<svg xmlns="http://www.w3.org/2000/svg" width="20" height="20" viewBox="0 0 20 20" fill="currentColor"><path d="M8.647 8.557a1.848 1.848 0 012.445-1.754l-.22-.22.078-.078A2.1 2.1 0 008.4 8.556v.125h.247m0-.124v-.001h.5l-.5.001s0 0 0 0zm0 0v.124m0 0v.5l.5-.5h-.5zm-.985 9.572H3.75V14.43a.126.126 0 00-.07-.112h0l-1.566-.77-.347-.171.078-.38.9-4.345V8.65a.108.108 0 00.003-.021v-.001l.5-.002 4.414 9.626zm0 0v.247H3.625a.125.125 0 01-.125-.125v-3.867l-.279-.137-1.65-.815H1.57a.125.125 0 01-.067-.137h0l.987-4.757.01-.052v-.053a8.014 8.014 0 117.993 7.973h0-.126v-.25h.123l-2.828 1.973zm4.005-7.951a2.1 2.1 0 01-1.08.352l-.004-.001h-.216V10.4h.124l.001-.5v.5h0a1.848 1.848 0 001.752-2.445l.22.219.084-.085.012.057a2.099 2.099 0 01-.893 2.156zm2.398-5.144l-1.291 1.29a3.036 3.036 0 00-.177-.175l.819-.818.409-.41-.464-.345a4.8 4.8 0 00-6.264.458h0l-.088.088-.177-.177.088-.089s0 0 0 0a5.05 5.05 0 017.145 0 .127.127 0 010 .178s0 0 0 0zm.001 6.86v.002A5.051 5.051 0 015.44 8.444v0-.125h.253v.125a4.8 4.8 0 109.6 0v-.125h.25v.126a5.023 5.023 0 01-1.478 3.574z"/></svg>