<svg xmlns="http://www.w3.org/2000/svg" width="20" height="20" viewBox="0 0 20 20" fill="currentColor"><path d="M17.381 6H7.619A1.621 1.621 0 006 7.619v9.762A1.621 1.621 0 007.619 19h9.762A1.62 1.62 0 0019 17.381V7.619A1.62 1.62 0 0017.381 6zM9.5 10.763a1.263 1.263 0 110-2.526 1.263 1.263 0 010 2.526zm3 3a1.263 1.263 0 110-2.526 1.263 1.263 0 010 2.526zm2.908 2.908a1.263 1.263 0 11-.002-2.526 1.263 1.263 0 01.002 2.526zM11.369 1H2.631A1.633 1.633 0 001 2.632v8.736A1.633 1.633 0 002.631 13H4.625v-2.95a1.263 1.263 0 110-1.1V7.619a3 3 0 012.994-2.994h1.333a1.263 1.263 0 111.1 0H13V2.632A1.633 1.633 0 0011.369 1zM3.5 4.763a1.263 1.263 0 110-2.526 1.263 1.263 0 010 2.526z"/></svg>