<svg xmlns="http://www.w3.org/2000/svg" width="20" height="20" viewBox="0 0 20 20" fill="currentColor"><path d="M15 9.25H8V8h7v1.25zM15 11H8v1.25h7V11zm0 3H8v1.25h7V14zm4 3.375V5.625A1.627 1.627 0 0017.375 4H5.625A1.627 1.627 0 004 5.625v11.75A1.627 1.627 0 005.625 19h11.75A1.627 1.627 0 0019 17.375zM17.375 5.25a.375.375 0 01.375.375v11.75a.375.375 0 01-.375.375H5.625a.375.375 0 01-.375-.375V5.625a.375.375 0 01.375-.375h11.75zm-14.75 9.5a.375.375 0 01-.375-.375V2.624a.375.375 0 01.375-.374h11.75a.375.375 0 01.375.374H16A1.627 1.627 0 0014.375 1H2.625A1.627 1.627 0 001 2.624v11.751A1.627 1.627 0 002.625 16v-1.25z"/></svg>