<svg xmlns="http://www.w3.org/2000/svg" width="20" height="20" viewBox="0 0 20 20" fill="currentColor"><g clip-path="url(#clip0_3595_56)"><path d="M19.5 2.666v7.817l-.024.081.005.09.007.115c.007.09.012.164.012.242v.005h-.625s0 0 0 0v.007l-.003.03v.005c-.003.026-.008.076-.008.129v.183l.118.14.011.013.41.483a6.735 6.735 0 01-2.682 4.3h0l-.007.006a10.866 10.866 0 01-6.706 2.188h-.016a10.866 10.866 0 01-6.706-2.188h0l-.006-.005a6.78 6.78 0 01-2.763-5.029l-.003-.048-.012-.046a.089.089 0 01-.002-.007V11c0-.074.005-.144.011-.232l.008-.11.006-.09-.025-.082v-7.82h0a.6.6 0 01.297-.52h0l.001-.001a.676.676 0 01.664-.013s0 0 0 0l3.945 2.134.2.108.214-.08a11.886 11.886 0 018.358 0l.214.08.2-.108 3.944-2.135s0 0 0 0a.674.674 0 01.661.014l.003.001a.6.6 0 01.299.52zM4.415 11.942h0l.005.005c.093.091.195.172.306.241.106.073.22.134.338.182.12.054.247.094.377.12a1.981 1.981 0 001.804-.549c.372-.375.582-.88.585-1.409h0v-.005a2.105 2.105 0 00-.145-.761l-.005-.011-.004-.011a2.65 2.65 0 00-.173-.32l-.006-.01-.006-.009a1.868 1.868 0 00-.254-.295 2.03 2.03 0 00-1.786-.552h0l-.009.002c-.13.025-.257.066-.378.12a1.8 1.8 0 00-.344.186 1.865 1.865 0 00-.298.245 1.462 1.462 0 00-.246.298c-.08.109-.145.229-.191.356a1.87 1.87 0 00-.155.77c.003.527.213 1.033.585 1.407zM11.271 14h.5v-2.5H8.229V14h3.042zm4.857-3.071h0l.002-.01a2 2 0 00-.548-1.813l-.007-.008-.008-.007a2.068 2.068 0 00-2.796 0l-.008.008-.008.007a2 2 0 00-.547 1.805c.023.13.06.258.11.38l.003.006.003.007c.05.112.108.22.174.325h0l.004.006a2 2 0 003.08.309l.003-.003c.093-.094.176-.199.246-.311.14-.214.241-.451.297-.701z"/></g><defs><clipPath id="clip0_3595_56"><path d="M0 0h20v20H0z"/></clipPath></defs></svg>