<svg xmlns="http://www.w3.org/2000/svg" width="20" height="20" viewBox="0 0 20 20" fill="currentColor"><g clip-path="url(#clip0_1771_7)"><path d="M10 11.75a1.75 1.75 0 100-3.5 1.75 1.75 0 000 3.5z"/><path d="M10 5.25a4.75 4.75 0 100 9.5 4.75 4.75 0 000-9.5zM10 13a3 3 0 110-6 3 3 0 010 6z"/><path d="M18.838 3.631a4.228 4.228 0 00-2.47-2.469 18.11 18.11 0 00-12.736 0 4.226 4.226 0 00-2.47 2.469 18.035 18.035 0 000 12.738 4.226 4.226 0 002.47 2.469 18.03 18.03 0 0012.736 0 4.229 4.229 0 002.47-2.469 18.035 18.035 0 000-12.738zM10 16a6 6 0 110-12 6 6 0 010 12z"/></g><defs><clipPath id="clip0_1771_7"><path d="M0 0h20v20H0z"/></clipPath></defs></svg>