<svg xmlns="http://www.w3.org/2000/svg" width="20" height="20" viewBox="0 0 20 20" fill="currentColor"><g clip-path="url(#clip0_3052_712)"><path d="M10 20a10 10 0 1110-10 10.011 10.011 0 01-10 10zm0-18.75A8.75 8.75 0 1018.75 10 8.76 8.76 0 0010 1.25zM6.5 14.132a.625.625 0 01-.556-.911L8.324 8.6a.629.629 0 01.27-.27l4.62-2.379a.625.625 0 01.842.842l-2.379 4.621a.64.64 0 01-.27.27l-4.621 2.378a.62.62 0 01-.286.07zM9.344 9.35l-1.395 2.708 2.708-1.394 1.394-2.708L9.344 9.35z"/></g><defs><clipPath id="clip0_3052_712"><path d="M0 0h20v20H0z"/></clipPath></defs></svg>