<svg xmlns="http://www.w3.org/2000/svg" width="20" height="20" viewBox="0 0 20 20" fill="currentColor"><path d="M18.972 8.5h0a.125.125 0 00.114-.177h0l-2.768-6h0a.125.125 0 00-.222-.011h0l-1.587 2.749s0 0 0 0a.633.633 0 000 .628l1.443 2.499 3.02.312zm0 0h-2.479a.626.626 0 01-.541-.312l3.02.312zm-7.31 5H8.341a.627.627 0 01-.541-.312L6 10.063v-.002a.121.121 0 010-.122v-.001l1.8-3.126s0 0 0 0A.626.626 0 018.34 6.5h3.32a.626.626 0 01.54.312h.001l1.8 3.126h0l.002.004a.121.121 0 01.001.121s0 0 0 0l-1.799 3.125s0 0 0 0a.626.626 0 01-.544.312zM1.03 8.5h0a.125.125 0 01-.114-.177h0l2.768-6s0 0 0 0a.127.127 0 01.109-.073h.006a.111.111 0 01.103.056h0l.004.006 1.587 2.749s0 0 0 0a.632.632 0 010 .628s0 0 0 0L4.05 8.188a.626.626 0 01-.541.312h-2.48zm3.02 3.313h0l1.446 2.498s0 0 0 0a.632.632 0 010 .628s0 0 0 0L3.91 17.687s0 0 0 0a.126.126 0 01-.109.063h-.014a.127.127 0 01-.102-.073s0 0 0 0l-2.768-6h0a.125.125 0 01.113-.177h2.48a.626.626 0 01.541.313zm14.922-.313h0a.124.124 0 01.106.058.125.125 0 01.008.12h0l-2.768 6a.127.127 0 01-.102.072h-.012a.127.127 0 01-.108-.063s0 0 0 0l-1.587-2.748s0 0 0 0a.631.631 0 010-.628s0 0 0 0l1.443-2.498s0 0 0 0a.625.625 0 01.541-.313h2.479z"/></svg>