<svg xmlns="http://www.w3.org/2000/svg" width="20" height="20" viewBox="0 0 20 20" fill="currentColor"><g clip-path="url(#clip0_474_23)"><path d="M18.384 18.8l.013-.013L2.486 2.874l-.886.885 7.244 7.24H7.538A6.482 6.482 0 001 17.412v.482A1.114 1.114 0 002.119 19h14.725l.67.67.761-.762c.052-.02.102-.043.151-.068l-.042-.04zM2.251 17.75v-.34a5.231 5.231 0 015.287-5.16h2.556l5.5 5.5H2.251zM13.5 11.089a6.477 6.477 0 015.427 5.427l-2.6-2.6a4.795 4.795 0 00-.247-.247l-2.58-2.58zm-7.1-7.1l-.98-.983a5 5 0 116.574 6.574l-.985-.98a3.74 3.74 0 10-4.6-4.6L6.4 3.989z"/></g><defs><clipPath id="clip0_474_23"><path d="M0 0h20v20H0z"/></clipPath></defs></svg>