<svg xmlns="http://www.w3.org/2000/svg" width="21" height="20" viewBox="0 0 21 20" fill="currentColor"><path d="M20.3 10.432a10.527 10.527 0 01-2.917 3.968c-.024.021-.052.038-.076.059l-3.262-3.2c.145-.405.221-.83.227-1.259 0-1.06-.43-2.078-1.194-2.828A4.118 4.118 0 0010.194 6a4.09 4.09 0 00-1.281.222L6.32 3.68C7.56 3.23 8.872 3 10.194 3c2.16-.018 4.278.598 6.079 1.769a10.676 10.676 0 014.029 4.802c.115.276.115.585-.001.861zM3.798 3.548l12.974 12.727-.902.884-1.152-1.13c-1.42.634-2.962.965-4.523.971a11.055 11.055 0 01-7.62-2.989 10.379 10.379 0 01-2.488-3.583 1.122 1.122 0 010-.856 10.48 10.48 0 013.52-4.442l-.713-.7.904-.882zm8.334 9.944L6.634 8.1a3.843 3.843 0 00-.518 1.9c0 1.06.43 2.078 1.195 2.828A4.118 4.118 0 0010.194 14a4.035 4.035 0 001.937-.508z"/></svg>