<svg xmlns="http://www.w3.org/2000/svg" width="20" height="20" viewBox="0 0 20 20" fill="currentColor"><path d="M11.348 19H5.629A1.63 1.63 0 014 17.371V5.629A1.631 1.631 0 015.629 4H17.37A1.631 1.631 0 0119 5.629v5.718A5.499 5.499 0 1011.348 19zM5.629 2.625H16A1.627 1.627 0 0014.375 1H2.625A1.627 1.627 0 001 2.625v11.75A1.627 1.627 0 002.625 16V5.629a3.008 3.008 0 013.004-3.004zm14.078 15.668l-1.774-1.774c.368-.61.564-1.307.567-2.019a4 4 0 10-4 4c.712-.003 1.41-.2 2.019-.567l1.774 1.774 1.414-1.414zM14.5 16.5a2 2 0 110-4 2 2 0 010 4z"/></svg>