<svg xmlns="http://www.w3.org/2000/svg" width="20" height="20" viewBox="0 0 20 20" fill="currentColor"><g clip-path="url(#clip0_3595_192)"><path d="M12.476 1.42l-.046.044-.484.462.58.333a4.523 4.523 0 012.263 3.744 4.752 4.752 0 00-1.003-.016 3.681 3.681 0 00-3.763-3.437 3.681 3.681 0 00-3.759 3.44 4.761 4.761 0 00-1.001.017 4.677 4.677 0 014.746-4.447c.18.007.359.025.536.053l.244.038.178-.17.818-.777.69.716zM8.379 5.5h0l-.01-.01a.157.157 0 01-.03-.04.182.182 0 01-.009-.048.094.094 0 01.03-.064h0l.01-.01a.13.13 0 01.18 0h0l.007.007a.1.1 0 01.016.02c.009.034.01.07.002.105a.2.2 0 01-.065.063.172.172 0 01-.042.004h-.022A.09.09 0 018.38 5.5zm3.204.004l-.007-.007-.007-.007a.157.157 0 01-.03-.04.182.182 0 01-.009-.048.092.092 0 01.03-.064h0l.01-.01a.13.13 0 01.18 0h0l.004.004a.084.084 0 01.026.064V5.417c0 .012 0 .023-.003.034a.399.399 0 01-.034.047.124.124 0 01-.081.029v0h-.01a.172.172 0 01-.047-.006.1.1 0 01-.022-.017zm-7.03 3.195h0l.005-.003a2.388 2.388 0 012.296-.134l.32.178L3.5 10.593v-.024a2.2 2.2 0 011.053-1.87zm10.89-.003l.002.001c.385.238.685.587.864.996L4.124 15.754a6.413 6.413 0 01-.613-2.376l7.543-3.805.275-.138v-.002l1.803-.864h.001a2.391 2.391 0 012.31.127zM10.007 19.5h-.003 0-.001 0-.001 0H10h0H10h0-.001 0-.001 0-.001 0-.001 0-.001 0-.001 0-.001 0-.001 0-.001 0-.001 0-.001 0-.001 0-.001 0-.001 0-.001 0-.001 0-.001 0-.001 0-.001 0-.001 0-.001 0-.001 0-.001 0-.001 0-.001 0-.001 0-.001 0-.001 0-.001 0-.001 0-.001 0-.001 0-.001 0-.001 0-.001 0-.001 0-.001 0-.001 0-.001 0-.001 0-.001 0-.001 0-.001 0-.001 0-.001 0-.001 0-.001 0-.001 0-.001 0-.001 0-.001 0-.001 0-.001 0-.001 0-.001 0-.001 0-.001 0-.001 0-.001 0-.001 0-.001 0-.001 0-.001 0-.001 0-.001 0-.001 0-.001 0-.001 0-.001 0-.001 0-.001 0-.001 0-.001 0-.001 0-.001 0-.001 0-.001 0-.001 0-.001 0-.001 0-.001 0-.001 0-.001 0-.001 0-.001 0-.001 0-.001 0-.001 0-.001 0-.001 0-.001 0-.001 0-.001 0-.001 0-.001 0-.001 0-.001 0-.001 0H9.9h0H9.9h0-.001 0-.001 0-.001 0-.001 0-.001 0-.001 0-.001 0-.001 0-.001 0-.001 0-.001 0-.001 0-.001 0-.001 0-.001 0-.001 0-.001 0-.001 0-.001 0-.001 0-.001 0-.001 0-.001 0-.001 0-.001 0-.001 0-.001 0-.001 0-.001 0-.001 0-.001 0-.001 0-.001 0-.001 0-.001 0-.001 0-.001 0-.001 0-.001 0-.001 0-.001 0-.001 0-.001 0-.001 0-.001 0-.001 0-.001 0-.001 0-.001 0-.001 0-.001 0-.001 0-.001 0-.001 0-.001 0-.001 0-.001 0-.001 0-.001 0-.001 0-.001 0-.001 0-.001 0-.001 0-.001 0-.001 0-.001 0-.001 0-.001 0-.001 0-.001 0-.001 0-.001 0-.001 0-.001 0-.001 0-.001 0-.001 0-.001 0-.001 0-.001 0-.001 0-.001 0-.001 0-.001 0-.001 0-.001 0-.001 0-.001 0-.001 0-.001 0-.001 0-.001 0-.001 0-.001 0-.001 0-.001 0-.001 0H9.8h0H9.8h0-.001 0-.001 0-.001 0-.001 0-.001 0a6.474 6.474 0 01-4.157-1.71L16.5 12.384v.88a6.067 6.067 0 01-1.884 4.39l-.002.003a6.57 6.57 0 01-4.607 1.844z"/></g><defs><clipPath id="clip0_3595_192"><path d="M0 0h20v20H0z"/></clipPath></defs></svg>