<svg xmlns="http://www.w3.org/2000/svg" width="20" height="20" viewBox="0 0 20 20" fill="currentColor"><path d="M13.074 16.478l-.826-.891c.3-.313.615-.628.935-.947 1.82-1.817 3.7-3.695 3.639-6.337a3.893 3.893 0 00-.341-1.727 2.262 2.262 0 00-3.251-1.015 2.3 2.3 0 00-.873.856 2.348 2.348 0 00-.318 1.227 2.414 2.414 0 001.155 2.117c.32.202.691.31 1.07.311v1.25a3.165 3.165 0 01-1.652-.475 3.62 3.62 0 01-1.261-1.3 3.739 3.739 0 01-.488-1.9 3.671 3.671 0 01.5-1.891A3.45 3.45 0 0117.522 6c.332.716.496 1.498.478 2.287.078 3.186-2.094 5.353-4.01 7.264-.315.313-.624.62-.916.927zm-8.863 0l-.826-.891c.3-.313.615-.628.935-.947 1.82-1.817 3.7-3.695 3.639-6.337a3.883 3.883 0 00-.342-1.727 2.329 2.329 0 00-.857-1 2.357 2.357 0 00-2.392-.019c-.363.2-.665.497-.873.856a2.349 2.349 0 00-.32 1.227 2.417 2.417 0 001.156 2.121c.32.202.691.31 1.07.311v1.25a3.159 3.159 0 01-1.652-.475 3.616 3.616 0 01-1.261-1.3A3.741 3.741 0 012 7.644a3.666 3.666 0 01.5-1.892A3.53 3.53 0 017.354 4.5 3.554 3.554 0 018.659 6c.332.717.495 1.5.476 2.291.078 3.186-2.093 5.352-4.01 7.264a34.4 34.4 0 00-.914.923z"/></svg>