<svg xmlns="http://www.w3.org/2000/svg" width="20" height="20" viewBox="0 0 20 20" fill="currentColor"><path d="M18.156 1.324h0a.662.662 0 00-.691.05h0l-7.174 5.14-.291.208-.291-.209-7.173-5.139h0a.664.664 0 00-.692-.05l-.005.002h0a.618.618 0 00-.339.553h0v3.516l8.467 5.933 5.11-3.9.397-.304.303.397.911 1.192.304.398-.397.303-5.831 4.455h0a1.25 1.25 0 01-1.477.03s0 0 0 0 0 0 0 0L1.5 8.447v4.429a.126.126 0 00.052.101s0 0 0 0l8.06 5.775s0 0 0 0a.67.67 0 00.777 0s0 0 0 0l8.059-5.774-.292-11.654zm0 0l.005.002m-.005-.002l.005.002m0 0a.618.618 0 01.339.55v11a.126.126 0 01-.052.101l-.287-11.65z"/></svg>