<svg xmlns="http://www.w3.org/2000/svg" width="20" height="20" viewBox="0 0 20 20" fill="currentColor"><path d="M16.375 2.121l-9.876.003L14.457.837h0a1.864 1.864 0 012.078 1.287 4.475 4.475 0 00-.158-.003h-.002zm-4.691 6.05A4 4 0 0014.512 15H18.5v.374a2.129 2.129 0 01-2.126 2.126H2.626A2.129 2.129 0 01.5 15.375v-8.75A2.129 2.129 0 012.625 4.5s0 0 0 0h13.75s0 0 0 0A2.129 2.129 0 0118.5 6.626V7h-3.988a4 4 0 00-2.828 1.172zm4.689 1.9l-.416.278.416-.278a1.672 1.672 0 00-.65-.571H19.5v3h-3.781a1.673 1.673 0 00.654-2.429zM13.45 9.94a1.5 1.5 0 01.713-.398 1.672 1.672 0 00.006 2.92 1.5 1.5 0 01-.719-2.522z"/></svg>