<svg xmlns="http://www.w3.org/2000/svg" width="20" height="20" viewBox="0 0 20 20" fill="currentColor"><path d="M1.067 3.388L.183 2.5l2-2a.625.625 0 01.884 0l2 2-.884.884-.933-.929v3.991H2V2.455l-.933.933zM19 10.223v3.023A6.674 6.674 0 0112.456 20H9.825a6.658 6.658 0 01-5.606-3.3L1.31 11.884a2.164 2.164 0 01.725-2.965 2.124 2.124 0 012.812.552L6 11.016v-8.77A2.01 2.01 0 017.98.121a2.258 2.258 0 012.27 2.125V6.2c.223-.084.46-.127.7-.126a2.114 2.114 0 011.95 1.312 2.085 2.085 0 011.02-.265 2.113 2.113 0 011.926 1.256A2.078 2.078 0 0116.89 8.1 2.12 2.12 0 0119 10.223zm-1.25 0a.86.86 0 10-1.72 0h-1.25v-.977a.86.86 0 10-1.72 0h-1.25v-1a.88.88 0 00-.86-.92c-.516 0-.7.471-.7.875H9V2.246a1.02 1.02 0 00-1.02-.875c-.5 0-.73.439-.73.875v10.183a.72.72 0 01-.518.677.816.816 0 01-.914-.244l-1.972-2.644a.876.876 0 00-1.162-.23.912.912 0 00-.3 1.25l2.906 4.817a5.32 5.32 0 004.55 2.7h2.614a5.488 5.488 0 005.3-5.5l-.004-3.032z"/></svg>