<svg xmlns="http://www.w3.org/2000/svg" width="20" height="20" viewBox="0 0 20 20" fill="currentColor"><path d="M3.587 19.914h12.825a2.555 2.555 0 002.345-1.522l-15.17 1.522zm0 0a2.555 2.555 0 01-2.345-1.523l2.345 1.523zm14.717-1.734h0l-.004.01a2.055 2.055 0 01-1.886 1.224H3.586a2.056 2.056 0 01-1.887-1.225h0l-.003-.008a2.128 2.128 0 01.332-2.302l.01-.01.01-.012 4.289-5.497.052-.065.111-.137V4.624h.25v5.46a.614.614 0 01-.182.391l-.024.023-.02.026-4.29 5.497a1.908 1.908 0 00-.31 2.052A1.8 1.8 0 003.59 19.16h12.821a1.8 1.8 0 001.667-1.087 1.893 1.893 0 00-.287-2.023l-4.425-5.541-.007-.008-.007-.009a.618.618 0 01-.152-.396V4.624h.25v5.653l.111.137 4.415 5.47.006.007.005.007a2.115 2.115 0 01.317 2.282zM6.5 1.75V1.5h6.974v.25H6.5z"/></svg>