<svg xmlns="http://www.w3.org/2000/svg" width="20" height="20" viewBox="0 0 20 20" fill="currentColor"><path d="M17.852 4.5v0h.008a.63.63 0 01.64.614v3.377a4.17 4.17 0 01-4.296 4.01l-.008-.001h-4.071v2.989l.42.068A3.516 3.516 0 0113.5 19.03v.125h-.25v-.125a3.25 3.25 0 00-6.5 0v.125H6.5v-.125 0a3.516 3.516 0 012.955-3.473l.42-.068V9.5H5.796A4.17 4.17 0 011.5 5.49V2.115a.631.631 0 01.64-.614h3.688a4.17 4.17 0 014.297 4.018l.043 1.173.816-.843A4.432 4.432 0 0114.186 4.5h3.666zM1.75 5.5v.024A3.921 3.921 0 005.823 9.25h4.053V5.475A3.921 3.921 0 005.801 1.75H1.75V5.5zm16.5 3.024V4.75h-4.052a3.92 3.92 0 00-4.072 3.725l-.001.013v3.762h4.053a3.92 3.92 0 004.071-3.726z"/></svg>