<svg xmlns="http://www.w3.org/2000/svg" width="20" height="20" viewBox="0 0 20 20" fill="currentColor"><path d="M17.376 3.032h-2.355L13.8 1.448A1.15 1.15 0 0012.892 1h-5.74a1.16 1.16 0 00-.923.454L5.014 3.031H2.625A2.629 2.629 0 000 5.656v9.719A2.63 2.63 0 002.625 18h14.75A2.63 2.63 0 0020 15.375V5.657a2.627 2.627 0 00-2.624-2.625zM8 9.029V7.548A2.57 2.57 0 006.468 10c0 .672.253 1.319.711 1.81l-.914.852A3.892 3.892 0 015.218 10 3.811 3.811 0 018 6.245v-1.84a.625.625 0 011.067-.442l2.376 2.271a.727.727 0 010 .961L9.066 9.471A.624.624 0 018 9.029zm4 4.726V15.6a.625.625 0 01-1.067.442l-2.376-2.276a.727.727 0 010-.961l2.381-2.276a.624.624 0 011.062.442v1.481A2.57 2.57 0 0013.532 10a2.65 2.65 0 00-.711-1.81l.914-.852A3.892 3.892 0 0114.782 10 3.811 3.811 0 0112 13.755z"/></svg>