<svg xmlns="http://www.w3.org/2000/svg" width="20" height="20" viewBox="0 0 20 20" fill="currentColor"><path d="M16.5 15.154v.721h-.247v-.725a5.11 5.11 0 00-3.115-4.676l-.003-.002-1.054-.437s0 0 0 0a.126.126 0 010-.233s0 0 0 0l1.061-.441h0l.004-.002a5.1 5.1 0 003.104-4.673v-.561h.25v.558a5.35 5.35 0 01-3 4.786l-.918.449.918.45a5.352 5.352 0 013 4.786zm-12.75-.001v.722H3.5v-.721a5.352 5.352 0 013-4.787l.918-.45L6.5 9.47a5.351 5.351 0 01-3-4.786v-.558h.25v.559h0v.003A5.109 5.109 0 006.865 9.36h0l1.056.446h.001a.126.126 0 010 .232s0 0 0 0l-1.062.438h0l-.006.002A5.1 5.1 0 003.75 15.15v.002zm3.228.722l2.934-2.904s0 0 0 0a.125.125 0 01.176 0l2.95 2.904h-.358l-2.33-2.294-.35-.346-.35.346-2.33 2.294h-.342zM2.875 18.5v-.25h14.25v.25H2.875zm0-17h14.25v.25H2.875V1.5z"/></svg>