<svg xmlns="http://www.w3.org/2000/svg" width="20" height="20" viewBox="0 0 20 20" fill="currentColor"><path d="M9.847.376l.021 1.25a8.48 8.48 0 00-1.844.233L7.731.645A9.656 9.656 0 019.847.376zM3.931 2.529l.789.97a8.364 8.364 0 011.56-1l-.554-1.12a9.581 9.581 0 00-1.795 1.15zm15.387 5.053a9.615 9.615 0 00-.761-1.994l-1.112.574c.285.553.508 1.136.664 1.738l1.209-.318zm-17.489.572L.61 7.88A9.667 9.667 0 00.375 10h1.25a8.4 8.4 0 01.204-1.846zm1.589-3.331l-.982-.774a9.62 9.62 0 00-1.128 1.813l1.129.538c.267-.56.596-1.09.981-1.577zM10.4 18.366l.059 1.249a9.644 9.644 0 002.108-.335l-.332-1.205a8.382 8.382 0 01-1.835.291zm6.348-3.4l1 .743a9.52 9.52 0 001.07-1.848l-1.144-.5a8.395 8.395 0 01-.929 1.604l.003.001zM15.83 2.341l-.758.993c.493.378.944.808 1.344 1.283l.957-.8a9.728 9.728 0 00-1.543-1.476zM11.971.577L11.717 1.8c.607.127 1.198.32 1.763.578L14 1.243a9.567 9.567 0 00-2.029-.666zM19.62 9.7l-1.25.039v.266c0 .532-.05 1.063-.15 1.586l1.228.235A9.749 9.749 0 0019.625 10l-.005-.3zm-5.665 7.689l.592 1.1a9.756 9.756 0 001.753-1.214l-.819-.944a8.44 8.44 0 01-1.526 1.053v.005zM1.371 11.112a.723.723 0 00-.5.688v4.561a.726.726 0 00.3.587l.35.2 3.038-1.012a.725.725 0 00.465-.471l.081-.4-2.925-3.9a.726.726 0 00-.809-.253z"/></svg>