<svg xmlns="http://www.w3.org/2000/svg" width="20" height="20" viewBox="0 0 20 20" fill="currentColor"><path d="M3 10.625H0v-1.25h3v1.25zm17-1.25h-3v1.25h3v-1.25zM10.625 0h-1.25v3h1.25V0zm0 17h-1.25v3h1.25v-3zM5.492 4.608L3.37 2.487l-.883.884 2.122 2.121.883-.884zm12.022 12.021l-2.121-2.121-.885.884 2.121 2.121.885-.884zm0-13.258l-.883-.884-2.123 2.121.883.884 2.123-2.121zM5.492 15.392l-.885-.884-2.121 2.121.885.884 2.121-2.121zM15 10a5 5 0 10-9.999 0A5 5 0 0015 10zm-1.25 0a3.75 3.75 0 11-7.5 0 3.75 3.75 0 017.5 0z"/></svg>