<svg xmlns="http://www.w3.org/2000/svg" width="20" height="20" viewBox="0 0 20 20" fill="currentColor"><path d="M7.819 9H2.181A1.185 1.185 0 011 7.812V2.188A1.185 1.185 0 012.181 1h5.638A1.185 1.185 0 019 2.188v5.624A1.185 1.185 0 017.819 9zm-5.57-1.25h5.57L7.75 2.188l-5.569.062.068 5.5zM17.819 9h-5.638A1.185 1.185 0 0111 7.812V2.188A1.185 1.185 0 0112.181 1h5.638A1.185 1.185 0 0119 2.188v5.624A1.185 1.185 0 0117.819 9zM12.25 2.249v5.563l5.569-.062-.069-5.562-5.5.061zM7.819 19H2.181A1.185 1.185 0 011 17.812v-5.624A1.185 1.185 0 012.181 11h5.638A1.185 1.185 0 019 12.188v5.624A1.185 1.185 0 017.819 19zm-5.57-1.25h5.57l-.069-5.562-5.569.062.068 5.5zM17.819 19h-5.638A1.185 1.185 0 0111 17.812v-5.624A1.185 1.185 0 0112.181 11h5.638A1.185 1.185 0 0119 12.188v5.624A1.185 1.185 0 0117.819 19zm-5.569-6.751v5.563l5.569-.062-.069-5.562-5.5.061z"/></svg>