<svg xmlns="http://www.w3.org/2000/svg" width="20" height="20" viewBox="0 0 20 20" fill="currentColor"><g clip-path="url(#clip0_3596_245)"><path d="M19.224 18.204h0l-1.119-1.543a.628.628 0 00-.421-.16H2.317a.657.657 0 00-.472.215L.771 18.21c-.176.245-.27.54-.271.841a.449.449 0 00.449.45H19.05a.448.448 0 00.45-.45l-.276-.847zm0 0c.18.246.276.543.276.847l-.276-.847zM2.322 5.04h0v-.005a.589.589 0 01.299-.669h0l.006-.003L9.697.576s0 0 0 0a.641.641 0 01.604 0s0 0 0 0l7.07 3.787h0l.006.003a.589.589 0 01.3.67v.003a.607.607 0 01-.6.461h0H2.93v0h-.008a.607.607 0 01-.6-.461zM5 8.5h-.5v5.647h-1V8.5h-1v-1h15v1h-1v5.647h-1V8.5h-3v5.647h-1V8.5h-3v5.647h-1V8.5H5z"/></g><defs><clipPath id="clip0_3596_245"><path d="M0 0h20v20H0z"/></clipPath></defs></svg>