<svg xmlns="http://www.w3.org/2000/svg" width="20" height="20" viewBox="0 0 20 20" fill="currentColor"><path d="M11.842 9.886v.038a2.924 2.924 0 01-.346 1.487 2.14 2.14 0 01-.82.83h0a2 2 0 01-.957.263h-.946V7.42h.947c.339.004.672.087.972.244h0c.338.175.618.443.807.772.245.443.363.945.343 1.45zM6.031 15.5h3.63a5.627 5.627 0 002.626-.642 5.091 5.091 0 002.027-1.928h0l.002-.005c.53-.92.796-1.969.768-3.03a5.475 5.475 0 00-.806-3.04h0l-.004-.006a4.975 4.975 0 00-2.105-1.843h0a6.33 6.33 0 00-2.686-.582H5.53V15.5h.5zM18.5 5.626v8.748a4.131 4.131 0 01-4.126 4.126H5.626A4.13 4.13 0 011.5 14.375v-8.75A4.131 4.131 0 015.625 1.5h8.75A4.131 4.131 0 0118.5 5.626z"/></svg>