<svg xmlns="http://www.w3.org/2000/svg" width="20" height="20" viewBox="0 0 20 20" fill="currentColor"><path d="M17.875 2H2.125A1.127 1.127 0 001 3.125v13.75A1.127 1.127 0 002.125 18h15.75A1.127 1.127 0 0019 16.875V3.125A1.127 1.127 0 0017.875 2zM9.759 12.817a3.26 3.26 0 01-.949.429 3.892 3.892 0 01-1.048.144 3.536 3.536 0 01-1.751-.446 3.4 3.4 0 01-1.266-1.218 3.27 3.27 0 01-.469-1.712 3.233 3.233 0 01.477-1.725c.31-.505.75-.92 1.272-1.2A3.7 3.7 0 018.789 6.8c.332.095.649.234.943.414l.22.135-.709 1.675-.314-.3a1.464 1.464 0 00-.5-.3 1.836 1.836 0 00-1.519.1A1.645 1.645 0 006.054 10a1.69 1.69 0 00.865 1.5 1.862 1.862 0 001.528.112c.184-.057.352-.158.489-.293L9.25 11l.715 1.68-.206.137zm5.746 0a3.26 3.26 0 01-.949.429 3.891 3.891 0 01-1.048.144 3.536 3.536 0 01-1.751-.446 3.4 3.4 0 01-1.266-1.218 3.27 3.27 0 01-.469-1.712 3.233 3.233 0 01.478-1.725c.31-.505.75-.92 1.272-1.2a3.7 3.7 0 012.763-.289c.332.095.65.234.944.414l.219.135-.709 1.678-.314-.3a1.464 1.464 0 00-.5-.3 1.836 1.836 0 00-1.519.1A1.645 1.645 0 0011.8 10a1.69 1.69 0 00.865 1.5 1.862 1.862 0 001.528.112c.184-.057.351-.158.489-.293L15 11l.715 1.68-.21.137z"/></svg>