<svg xmlns="http://www.w3.org/2000/svg" width="20" height="20" viewBox="0 0 20 20" fill="currentColor"><path d="M17.386 2H2.614A2.617 2.617 0 000 4.614v10.772A2.617 2.617 0 002.614 18h14.772A2.617 2.617 0 0020 15.386V4.614A2.617 2.617 0 0017.386 2zm1.364 13.386a1.366 1.366 0 01-1.364 1.364H2.614a1.366 1.366 0 01-1.364-1.364V4.614A1.366 1.366 0 012.614 3.25h14.772a1.366 1.366 0 011.364 1.364v10.772zM8 6H3v5h5V6zM6.75 9.75h-2.5v-2.5h2.5v2.5zM3 13h4v1.25H3V13zm5 0h4v1.25H8V13zm5 0h4v1.25h-4V13z"/></svg>