<svg xmlns="http://www.w3.org/2000/svg" width="20" height="20" viewBox="0 0 20 20" fill="currentColor"><path d="M14 9.948v-4.9A4.03 4.03 0 0010 1a3.978 3.978 0 00-3.5 2.132l7.438 7.438c.037-.206.057-.413.062-.622zM15 10v.4a4.232 4.232 0 01-.153 1.079l1.56 1.56A6.218 6.218 0 0017 10.4V10h-2zM2.656 4.47L6 7.814v2.134A4.03 4.03 0 0010 14a3.853 3.853 0 001.758-.428l.773.773a5.186 5.186 0 01-2.53.655 4.818 4.818 0 01-5-4.6V10H3v.4a6.745 6.745 0 006 6.525V18H7.58v2h4.84v-2H11v-1.075a7.19 7.19 0 002.977-1.134l1.406 1.409 1.416-1.416L4.07 3.056 2.656 4.47z"/></svg>