<svg xmlns="http://www.w3.org/2000/svg" width="20" height="20" viewBox="0 0 20 20" fill="currentColor"><g clip-path="url(#clip0_473_47)"><path d="M4.886 13.444A6.891 6.891 0 013.4 12.8l-2.253.562a.626.626 0 01-.758-.758l.56-2.25A6.9 6.9 0 01.2 5.2 6.8 6.8 0 015.339.168a6.911 6.911 0 016.4 1.847 6.836 6.836 0 011.712 2.873 8.181 8.181 0 00-8.335 6.241 8.532 8.532 0 00-.229 2.315zm13.1-5.179a6.916 6.916 0 00-6.4-1.847A6.8 6.8 0 006.45 11.45 6.9 6.9 0 007.2 16.6l-.564 2.252a.625.625 0 00.758.758l2.253-.563a6.825 6.825 0 003.479.953 7.16 7.16 0 001.673-.2 6.8 6.8 0 005.034-5.136 6.92 6.92 0 00-1.846-6.399h-.001z"/></g><defs><clipPath id="clip0_473_47"><path d="M0 0h20v20H0z"/></clipPath></defs></svg>