<svg xmlns="http://www.w3.org/2000/svg" width="20" height="20" viewBox="0 0 20 20" fill="currentColor"><g clip-path="url(#clip0_1581_843)"><path d="M11.688 19.25H8.312V18h3.376v1.25zM12.75 16h-5.5v1.25h5.5V16zm-.1-1.46a3.151 3.151 0 011.265-1.789 6.953 6.953 0 00.51-11.181A7.065 7.065 0 008.5.156a6.958 6.958 0 00-2.75 12.349 3.31 3.31 0 011.2 1.994l.1.5h5.47l.13-.459zm-6.141-3.029A5.708 5.708 0 018.752 1.38a5.819 5.819 0 014.885 1.16 5.7 5.7 0 01-.421 9.174A4.357 4.357 0 0011.6 13.75H8.05a4.49 4.49 0 00-1.541-2.239z"/></g><defs><clipPath id="clip0_1581_843"><path d="M0 0h20v20H0z"/></clipPath></defs></svg>