<svg xmlns="http://www.w3.org/2000/svg" width="20" height="20" viewBox="0 0 20 20" fill="currentColor"><path d="M10 4.326a4.125 4.125 0 100 8.25 4.125 4.125 0 000-8.25zM7.125 8.451a2.845 2.845 0 01.454-1.536l3.958 3.957a2.865 2.865 0 01-4.412-2.421zm5.3 1.537L8.462 6.031a2.864 2.864 0 013.959 3.957h.004zm6.25-7.858a.819.819 0 00-.7-.047 8.839 8.839 0 01-7.6-.062 10.3 10.3 0 00-8.92 0 .626.626 0 00-.352.563v17.191h1.25V14.8a9.04 9.04 0 017.477.162 10.084 10.084 0 008.821 0A.626.626 0 0019 14.4V2.732a.712.712 0 00-.33-.602h.004zM17.75 14a8.817 8.817 0 01-7.38-.162 10.308 10.308 0 00-8.022-.382V2.985a9.035 9.035 0 017.477.161 9.938 9.938 0 007.925.385V14z"/></svg>