<svg xmlns="http://www.w3.org/2000/svg" width="20" height="20" viewBox="0 0 20 20" fill="currentColor"><g clip-path="url(#clip0_1118_258)"><path d="M10 2.744a7.249 7.249 0 107.25 7.249A7.257 7.257 0 0010 2.743zm.957 8.217a5.032 5.032 0 005.03-.721 5.965 5.965 0 01-1.527 3.75 3.784 3.784 0 01-3.502-3.03h-.001zm4.889-2.3a3.833 3.833 0 01-4.623 1.06 5.058 5.058 0 002.012-4.774 6.009 6.009 0 012.612 3.716l-.001-.002zm-4.055-4.4a3.828 3.828 0 01-1.386 4.5A5.675 5.675 0 006.68 5a5.987 5.987 0 015.112-.735l-.001-.004zM9.133 8.933a5.672 5.672 0 00-5.122.9 5.964 5.964 0 011.551-3.86 4.486 4.486 0 013.571 2.96zm-4.98 2.379a4.486 4.486 0 014.55-1.2 5.679 5.679 0 00-1.937 4.926 6.013 6.013 0 01-2.613-3.726zm3.96 4.37a4.52 4.52 0 011.541-4.753 5.18 5.18 0 003.607 4.093 5.948 5.948 0 01-5.148.66zM10-.007a10 10 0 1010 10 10.011 10.011 0 00-10-10zm0 18.75a8.75 8.75 0 118.75-8.75 8.76 8.76 0 01-8.75 8.75z"/></g><defs><clipPath id="clip0_1118_258"><path d="M0 0h20v20H0z"/></clipPath></defs></svg>