<svg xmlns="http://www.w3.org/2000/svg" width="20" height="20" viewBox="0 0 20 20" fill="currentColor"><path d="M19.755 6.12A14.556 14.556 0 0013.77.133a1.16 1.16 0 00-1.357.205L6.436 6.317 4.349 8.4a2.1 2.1 0 000 2.963l.55.55-3.872 3.1a2.737 2.737 0 103.846 3.846l3.1-3.873.55.551a2.142 2.142 0 002.963 0l2.087-2.087 5.977-5.973a1.16 1.16 0 00.205-1.358zM10.6 14.657a.862.862 0 01-1.194 0L7.868 13.12 3.9 18.082a1.486 1.486 0 11-2.09-2.09l4.964-3.972-1.542-1.538a.847.847 0 010-1.194l1.646-1.645 5.369 5.368-1.647 1.646zm2.529-2.53L7.762 6.76l5.487-5.488a13.311 13.311 0 015.368 5.37l-5.488 5.487z"/></svg>