<svg xmlns="http://www.w3.org/2000/svg" width="20" height="20" viewBox="0 0 20 20" fill="currentColor"><path d="M3.238 4.999v0h-.25 0a1.876 1.876 0 00-1.874-1.872h0v-.25h0A1.877 1.877 0 002.988 1h.25a1.877 1.877 0 001.875 1.877h0v.25h0a1.876 1.876 0 00-1.875 1.872zm13.98-.5h.287a1.075 1.075 0 00.856.857v.289a1.076 1.076 0 00-.856.855h-.287a1.076 1.076 0 00-.857-.857v-.286a1.077 1.077 0 00.857-.857zm-9.719.665v-.002c-.002-.433.164-.85.462-1.163v-.001L11.028.769h0l.005-.005a.815.815 0 01.909-.202l.002.001a.892.892 0 01.556.833h0v4.648h-5v-.88zm4.5 12.36h.5V10.5h-2.465v7.025H12zM5.83 8.83c.211-.211.497-.33.796-.33h6.749a1.127 1.127 0 011.125 1.126v8.748a1.127 1.127 0 01-1.125 1.126h-6.75A1.127 1.127 0 015.5 18.375s0 0 0 0V9.625c0-.298.12-.585.33-.796z"/></svg>