<svg xmlns="http://www.w3.org/2000/svg" width="20" height="20" viewBox="0 0 20 20" fill="currentColor"><path d="M4.444 10.625H0v-1.25h4.444v1.25zM20 9.375h-4.444v1.25H20v-1.25zM10.625 0h-1.25v4.444h1.25V0zm0 15.556h-1.25V20h1.25v-4.444zM5.5 13.319l-.625-1.083-3.848 2.223.625 1.082L5.5 13.319zm13.473-7.778l-.625-1.082L14.5 6.681l.625 1.083 3.848-2.223zm-11.21-.665L5.541 1.027l-1.082.625L6.681 5.5l1.082-.624zm7.778 13.472L13.318 14.5l-1.082.625 2.223 3.849 1.082-.626zm3.432-3.889l-3.849-2.223-.624 1.083 3.849 2.222.624-1.082zM5.5 6.681L1.652 4.459l-.625 1.082 3.849 2.223.624-1.083zm2.263 8.443L6.682 14.5l-2.223 3.848 1.082.625 2.222-3.849zm7.778-13.472l-1.082-.625-2.223 3.849 1.082.625 2.223-3.849z"/></svg>