<svg xmlns="http://www.w3.org/2000/svg" width="20" height="20" viewBox="0 0 20 20" fill="currentColor"><path d="M4.745 7.646A2.81 2.81 0 014.5 6.552a3.292 3.292 0 013.464-3.053l.028.002.027-.002a3.292 3.292 0 013.472 3.053 2.81 2.81 0 01-.913 2.018l-.49.449.567.347a3.824 3.824 0 011.83 3.163A4.256 4.256 0 018.014 16.5H7.96a4.256 4.256 0 01-4.46-3.97 3.825 3.825 0 011.833-3.164l.568-.346-.49-.45a2.81 2.81 0 01-.667-.924zM5.5 6.46l-.012.079.012.079a2.338 2.338 0 002.494 1.96 2.339 2.339 0 002.494-1.96l.012-.079-.012-.08A2.339 2.339 0 007.99 4.499 2.339 2.339 0 005.5 6.46zm5.985 6.133l.006-.054-.006-.054a3.272 3.272 0 00-3.497-2.91 3.272 3.272 0 00-3.497 2.91l-.006.054.006.054a3.272 3.272 0 003.497 2.909 3.272 3.272 0 003.497-2.909zM17.5 8v.5h2v1h-2v2h-1v-2h-2v-1h2v-2h1V8zM.5 3.5h1v13h-1v-13z"/></svg>