<svg xmlns="http://www.w3.org/2000/svg" width="20" height="20" viewBox="0 0 20 20" fill="currentColor"><path d="M10 20a1.63 1.63 0 01-.8-.21l-7.376-4.2A1.628 1.628 0 011 14.18V5.819a1.628 1.628 0 01.821-1.412L9.2.21A1.642 1.642 0 0110.8.21l7.376 4.2A1.628 1.628 0 0119 5.818v8.364a1.627 1.627 0 01-.821 1.412l-7.375 4.2A1.628 1.628 0 0110 20zm0-18.751a.378.378 0 00-.187.048l-7.374 4.2a.376.376 0 00-.189.326v8.364a.376.376 0 00.189.325l7.375 4.2a.379.379 0 00.373 0l7.374-4.194a.376.376 0 00.189-.327V5.819a.375.375 0 00-.189-.326L10.186 1.3A.374.374 0 0010 1.249zm5.6 6.24l-.625-1.082L10 9.279 5.026 6.407 4.4 7.489l4.974 2.872v5.506h1.25V10.36L15.6 7.49z"/></svg>