<svg xmlns="http://www.w3.org/2000/svg" width="20" height="20" viewBox="0 0 20 20" fill="currentColor"><g clip-path="url(#clip0_423_1)"><path d="M19.8 6.776L10.65.646A1.127 1.127 0 009.362.638L.2 6.776a.625.625 0 00.352 1.145H1v10.033A1.052 1.052 0 002.057 19h5.2a.711.711 0 00.712-.709v-4.522c0-.762 1.147-1.479 2.036-1.479.89 0 2.036.717 2.036 1.479v4.522a.71.71 0 00.712.709h5.2A1.052 1.052 0 0019 17.954V7.921h.448a.625.625 0 00.352-1.145z"/></g><defs><clipPath id="clip0_423_1"><path d="M0 0h20v20H0z"/></clipPath></defs></svg>