<svg xmlns="http://www.w3.org/2000/svg" width="20" height="20" viewBox="0 0 20 20" fill="currentColor"><path d="M19.6 6.876L13.125.4a1.132 1.132 0 00-1.606 0l-.665.665a2.084 2.084 0 00-.378 2.435L6.68 7.292a2.086 2.086 0 00-2.432.374l-.665.665a1.14 1.14 0 000 1.612l2.8 2.8-5.82 5.82.884.884 5.82-5.82 2.8 2.8a1.132 1.132 0 001.607 0l.665-.665a2.084 2.084 0 00.374-2.432L16.5 9.528a2.129 2.129 0 002.433-.375l.666-.666a1.142 1.142 0 00.002-1.611zm-1.55 1.393a.849.849 0 01-1.174 0l-.442-.442-5.426 5.426.443.442a.832.832 0 010 1.174l-.588.587-6.319-6.319.587-.587a.833.833 0 011.175 0l.442.442 5.426-5.426-.442-.441a.832.832 0 010-1.175l.565-.609 6.34 6.341-.587.587z"/></svg>