<svg xmlns="http://www.w3.org/2000/svg" width="20" height="20" viewBox="0 0 20 20" fill="currentColor"><path d="M11.375 7.918l2.705-2.704.353-.354-.353-.354-1.793-1.793h0a.125.125 0 01.088-.213h5a.125.125 0 01.125.125v5l-6.125.293zm0 0l.707.707 2.704-2.705.354-.353.354.353 1.793 1.793s0 0 0 0a.124.124 0 00.087.037.14.14 0 00.05-.01.126.126 0 00.076-.115l-6.125.293zM5.214 14.08l2.704-2.705.707.707-2.705 2.704-.353.354.353.354 1.793 1.793h0a.125.125 0 01-.088.213h0-5a.125.125 0 01-.125-.125v-5 0a.125.125 0 01.213-.088h0l1.793 1.793.354.353.354-.353z"/></svg>