<svg xmlns="http://www.w3.org/2000/svg" width="20" height="20" viewBox="0 0 20 20" fill="currentColor"><path d="M10 8.75h0A2.25 2.25 0 1012.25 11v0A2.252 2.252 0 0010 8.75zm5.498 10.268h-.088a.597.597 0 01-.15-.043h-.001L10.197 16.8 10 16.716l-.198.084-5.062 2.174h0l-.004.002a.6.6 0 01-.552-.035l.684-.294 4.89-2.098.001-.001A.616.616 0 0110 16.5H10c.083 0 .164.016.24.048h.001l4.89 2.1.673.288a.592.592 0 01-.306.082zM4.173 18.14l-.07.741a.6.6 0 01-.206-.513v-.003l.511-5.461.02-.216-.142-.162L.65 8.41s0 0 0 0a.6.6 0 01-.134-.531l.489.553 3.514 3.98a.601.601 0 01.147.454v.001l-.494 5.275zm6.356-16.858l2.801 4.706.11.185.21.047 5.378 1.2h0a.6.6 0 01.422.353l-.722-.162-5.193-1.161h0a.6.6 0 01-.388-.281v-.002l-2.718-4.56-.357-.598a.64.64 0 01.457.273zm8.465 7.148l.49-.555a.6.6 0 01-.135.526s0 0 0 0l-3.639 4.119-.143.162.02.216.51 5.46v.002a.598.598 0 01-.202.51l-.069-.73-.494-5.278h0a.6.6 0 01.148-.452l3.514-3.98zM1.271 7.61l-.72.162a.6.6 0 01.42-.346h0l5.377-1.2.21-.047.11-.185 2.805-4.712a.641.641 0 01.453-.273l-.357.599L6.851 6.17h0a.6.6 0 01-.386.28h0L1.272 7.61zM10 13.5a2.5 2.5 0 110-5 2.5 2.5 0 010 5z"/></svg>