<svg xmlns="http://www.w3.org/2000/svg" width="20" height="20" viewBox="0 0 20 20" fill="currentColor"><g clip-path="url(#clip0_1578_259)"><path d="M14.89 19h-9.7A1.179 1.179 0 014 17.87V8.914l-.13.115a1.146 1.146 0 01-1.557-.043L.34 7.061a1.12 1.12 0 01-.013-1.595L4.412 1.34c.217-.217.51-.34.817-.34h1.637a1.119 1.119 0 011.121.93 2.049 2.049 0 004.026 0A1.12 1.12 0 0113.134 1h1.637c.307 0 .6.123.817.34l4.086 4.127a1.12 1.12 0 01-.014 1.594l-2 1.952a1.154 1.154 0 01-1.47.113L16 8.951v8.92A1.108 1.108 0 0114.89 19zM5.25 6.13v11.622h9.5V6.086l2.107 1.962L18.7 6.255l-4-4.036-1.473.03a3.3 3.3 0 01-6.452 0H5.23L1.3 6.254l1.814 1.77L5.25 6.13z"/></g><defs><clipPath id="clip0_1578_259"><path d="M0 0h20v20H0z"/></clipPath></defs></svg>