<svg xmlns="http://www.w3.org/2000/svg" width="20" height="20" viewBox="0 0 20 20" fill="currentColor"><path d="M9.484 5.424h.003a5.33 5.33 0 012.262.49c.688.319 1.27.828 1.679 1.468.459.749.687 1.616.656 2.494v.032a4.771 4.771 0 01-.632 2.517 4.092 4.092 0 01-1.628 1.547h0a4.628 4.628 0 01-2.16.528H6.53V5.424h2.953zm.239 8.076v0h.008c.505-.008 1-.143 1.44-.393.506-.288.922-.71 1.202-1.22h0l.002-.004c.327-.608.488-1.29.467-1.98a3.775 3.775 0 00-.47-1.958h0l-.003-.006a2.981 2.981 0 00-1.212-1.166h0a3.163 3.163 0 00-1.426-.356v0H7.773V13.5h1.95zM5.625 1.75h0A3.879 3.879 0 001.75 5.624v8.751h0a3.88 3.88 0 003.874 3.875h8.751a3.88 3.88 0 003.875-3.874V5.625v0a3.879 3.879 0 00-3.874-3.875H5.625zm8.75 16.75h-8.75A4.13 4.13 0 011.5 14.375v-8.75A4.131 4.131 0 015.625 1.5h8.75A4.131 4.131 0 0118.5 5.626v8.748a4.131 4.131 0 01-4.126 4.126z"/></svg>