<svg xmlns="http://www.w3.org/2000/svg" width="20" height="20" viewBox="0 0 20 20" fill="currentColor"><path d="M2.625 16A1.627 1.627 0 011 14.375V2.625A1.627 1.627 0 012.625 1h11.75A1.627 1.627 0 0116 2.625h-1.25a.375.375 0 00-.375-.375H2.625a.375.375 0 00-.375.375v11.75a.375.375 0 00.375.375V16zm8.129 1.75H5.629a.379.379 0 01-.379-.379V5.629a.379.379 0 01.379-.379h11.742a.38.38 0 01.379.379v5.125a4.99 4.99 0 011.25 1.5V5.629A1.63 1.63 0 0017.371 4H5.629A1.631 1.631 0 004 5.629v11.742A1.631 1.631 0 005.629 19h6.626a4.99 4.99 0 01-1.501-1.25zm7.5-3.125a3.625 3.625 0 10-3.625 3.625 3.629 3.629 0 003.621-3.625h.004zm-1.25 0a2.375 2.375 0 11-2.375-2.375A2.377 2.377 0 0117 14.625h.004zm2.567 4.058L17.188 16.3l-.884.884 2.379 2.379.888-.88z"/></svg>