<svg xmlns="http://www.w3.org/2000/svg" width="20" height="20" viewBox="0 0 20 20" fill="currentColor"><path d="M1.293 8.125L3.11 3.82l.028-.067.008-.072A2.452 2.452 0 015.612 1.5h8.77v0h.006a2.452 2.452 0 012.466 2.18l.008.072.028.067 1.817 4.305h-1.084l-.783-1.854-.461-1.091-.46 1.09-.784 1.855H14.05l1.76-4.168.06-.143-.031-.152A1.454 1.454 0 0014.374 2.5H5.626A1.454 1.454 0 004.16 3.662l-.03.152.06.143 1.76 4.168H4.864l-.783-1.854L3.62 5.18l-.46 1.09-.784 1.855H1.293zM9 17.5h.5v-12h1v12h2.9v1H6.6v-1H9zm-2.295-6.963a.125.125 0 01.037.088 3.12 3.12 0 11-6.242 0 .125.125 0 01.125-.125h5.992c.033 0 .065.013.088.037zm6.59 0a.125.125 0 01.088-.037h5.992a.125.125 0 01.125.125 3.12 3.12 0 11-6.242 0c0-.033.013-.065.037-.088z"/></svg>