<svg xmlns="http://www.w3.org/2000/svg" width="20" height="20" viewBox="0 0 20 20" fill="currentColor"><g clip-path="url(#clip0_1564_85)"><path d="M18.78 6.911a3.9 3.9 0 00-2.466-1.964 22.273 22.273 0 00-5.775-.884l.883-2.694 2.457.522a1.494 1.494 0 10.2-1.234L11.573.124a1.116 1.116 0 00-1.316.8l-1.01 3.07.218.071c-1.957.039-3.9.336-5.779.884A3.9 3.9 0 001.22 6.911a11.564 11.564 0 000 10.178 3.9 3.9 0 002.466 1.964c2.05.604 4.177.91 6.314.907a22.229 22.229 0 006.314-.907 3.9 3.9 0 002.466-1.964 11.563 11.563 0 000-10.178zm-5 5.127L7.9 15.833a.351.351 0 01-.54-.294V7.947a.35.35 0 01.54-.294l5.883 3.8a.35.35 0 010 .59l-.003-.005z"/></g><defs><clipPath id="clip0_1564_85"><path d="M0 0h20v20H0z"/></clipPath></defs></svg>