<svg xmlns="http://www.w3.org/2000/svg" width="20" height="20" viewBox="0 0 20 20" fill="currentColor"><path d="M16.24 7.768l.14.033a4.32 4.32 0 013.119 3.263c-.02.31-.244.643-.827.984-.6.35-1.467.636-2.481.857-2.02.44-4.482.595-6.191.595-1.709 0-4.17-.155-6.19-.595-1.015-.22-1.881-.506-2.482-.857-.583-.341-.808-.675-.827-.985a4.226 4.226 0 011.896-2.718A15.35 15.35 0 008.989 10h.009a19.985 19.985 0 003.203-.244h.005l.74-.125.492-.082-.082-.493-.247-1.48-.082-.492-.493.082-.737.122c-.923.146-1.855.217-2.79.212a13.44 13.44 0 01-4.795-1.02 5.856 5.856 0 0111.639.77V7.68l.389.088zM3.09 17.211l.823-1.842c.337.064.677.121 1.018.171l-.929 2.079-.912-.408zm13.838-.054l-.876.48-1.136-2.074c.35-.048.7-.105 1.047-.169l.965 1.763zM10.5 18.625h-1v-2.754a33.867 33.867 0 001 0v2.754z"/></svg>