<svg xmlns="http://www.w3.org/2000/svg" width="20" height="20" viewBox="0 0 20 20" fill="currentColor"><g clip-path="url(#clip0_473_52)"><path d="M12.465 11H7.538A6.482 6.482 0 001 17.411v.482A1.113 1.113 0 002.119 19h15.765A1.114 1.114 0 0019 17.893v-.482A6.484 6.484 0 0012.465 11zm5.287 6.75h-15.5v-.339a5.23 5.23 0 015.286-5.161h4.927a5.231 5.231 0 015.287 5.161v.339zM10 10a5 5 0 10-5-5 5.006 5.006 0 005 5zm0-8.75a3.75 3.75 0 110 7.5 3.75 3.75 0 010-7.5z"/></g><defs><clipPath id="clip0_473_52"><path d="M0 0h20v20H0z"/></clipPath></defs></svg>