<svg xmlns="http://www.w3.org/2000/svg" width="20" height="20" viewBox="0 0 20 20" fill="currentColor"><g clip-path="url(#clip0_3464_24)"><path d="M18.129 8.913a2.136 2.136 0 00-2.829.557l-1.045 1.4V3.736a2.138 2.138 0 00-2.125-2.145 2.078 2.078 0 00-.906.213 2.114 2.114 0 00-4.182 0 2.092 2.092 0 00-.909-.214A2.138 2.138 0 004 3.736v.884a2.1 2.1 0 00-.878-.2A2.137 2.137 0 001 6.568v6.721a6.677 6.677 0 006.6 6.7l2.642.011h.02a6.642 6.642 0 005.658-3.216l2.938-4.884a2.184 2.184 0 00-.729-2.987zm-.341 2.346l-2.938 4.88a5.388 5.388 0 01-4.588 2.611h-.016l-2.638-.008a5.425 5.425 0 01-5.358-5.453v-.022-6.699a.875.875 0 111.75 0V9.92a.625.625 0 001.25 0V3.736a.875.875 0 111.75 0V9.92a.625.625 0 001.25 0V2.145a.875.875 0 111.75 0V9.92a.625.625 0 001.25 0v-6.2a.877.877 0 011.217-.797.876.876 0 01.533.813v8.724a.726.726 0 001.307.435l1.993-2.679a.889.889 0 011.181-.235.933.933 0 01.307 1.278z"/></g><defs><clipPath id="clip0_3464_24"><path d="M0 0h20v20H0z"/></clipPath></defs></svg>