<svg xmlns="http://www.w3.org/2000/svg" width="20" height="20" viewBox="0 0 20 20" fill="currentColor"><path d="M17.971 1.26l-.514.373-7.384 5.344s0 0 0 0a.125.125 0 01-.146 0s0 0 0 0L2.541 1.685l-.573-.41a.664.664 0 01.568.1h0l7.173 5.138.291.209.291-.209 7.173-5.139h0a.662.662 0 01.507-.113zm.279.778V1.38a.62.62 0 01.25.496v11.002a.127.127 0 01-.052.103s0 0 0 0l-8.06 5.774s0 0 0 0a.67.67 0 01-.776 0l-8.06-5.774s0 0 0 0a.126.126 0 01-.052-.102V1.879a.618.618 0 01.25-.498v5.563l.213.15 7.734 5.415.3.21.29-.222 4.971-3.796.151.198-5.332 4.076s0 0 0 0a.126.126 0 01-.148.003s0 0 0 0L2.537 7.8l-.787-.55V12.811l.209.15 7.8 5.587.293.21.292-.211 7.7-5.586.206-.15V2.037z"/></svg>