<svg xmlns="http://www.w3.org/2000/svg" width="20" height="20" viewBox="0 0 20 20" fill="currentColor"><path d="M5.5 8.563v10.563h-.25V8.143l-.414-.073A3.124 3.124 0 012.25 5V.875h.25V5a2.875 2.875 0 005.75 0V.876h.25V5a3.124 3.124 0 01-2.586 3.07l-.414.073v.42zm12-7.562v18.125h-.25V1.071l-.594.114a4.809 4.809 0 00-3.906 4.82v3.991a2.873 2.873 0 001.808 2.712h0l.011.005.117.043-.087.235-.113-.042a3.129 3.129 0 01-1.986-2.944h0V6h0v-.01A5.011 5.011 0 0117.379.876.125.125 0 0117.5 1s0 0 0 0zM5.25 5.126V.876h.25v4.25h-.25z"/></svg>