<svg xmlns="http://www.w3.org/2000/svg" width="20" height="20" viewBox="0 0 20 20" fill="currentColor"><path d="M11.991 10.625H1v-1.25h10.991l-1.933-1.933.884-.884 3 3a.624.624 0 010 .884l-3 3-.884-.884 1.933-1.933zM15.375 1h-9.75A2.629 2.629 0 003 3.625v.792h1.25v-.792A1.377 1.377 0 015.625 2.25h9.75a1.377 1.377 0 011.375 1.375v12.75a1.377 1.377 0 01-1.375 1.375h-9.75a1.377 1.377 0 01-1.375-1.375v-.792H3v.792A2.63 2.63 0 005.625 19h9.75A2.63 2.63 0 0018 16.375V3.625A2.63 2.63 0 0015.375 1z"/></svg>