<svg xmlns="http://www.w3.org/2000/svg" width="20" height="20" viewBox="0 0 20 20" fill="currentColor"><path d="M10.125 19.5v-.129a1.887 1.887 0 011.97-1.871h7.28a.125.125 0 00.125-.125V2.625a.125.125 0 00-.125-.125h-7.291a2.188 2.188 0 00-1.695.814L10 3.796l-.39-.482A2.188 2.188 0 007.917 2.5H.625a.125.125 0 00-.125.125v14.75a.125.125 0 00.125.125h7.417v-.25H.75V2.75h7.169v0a1.965 1.965 0 011.956 1.97m.25 14.78l-.25-14.78s0 0 0 0m.25 14.78h-.25v-.124l.25.124zm-.25-14.78v10.592m0-10.592v10.592m0 0h.25V4.719l-.25 10.593z"/></svg>