<svg xmlns="http://www.w3.org/2000/svg" width="20" height="20" viewBox="0 0 20 20" fill="currentColor"><g clip-path="url(#clip0_616_16)"><path d="M18.7 3.223a22.528 22.528 0 00-6.556-.973V1a23.8 23.8 0 016.919 1.026L18.7 3.223zM9.843 20h2.613A6.674 6.674 0 0019 13.246v-3.023A2.119 2.119 0 0016.89 8.1c-.367 0-.727.096-1.044.279a2.113 2.113 0 00-1.926-1.258c-.358 0-.71.09-1.021.265a2.111 2.111 0 00-1.948-1.31 1.943 1.943 0 00-.7.127V2.245A2.258 2.258 0 007.98.121a1.906 1.906 0 00-1.457.653A2.235 2.235 0 006 2.246v8.77L4.848 9.471a2.124 2.124 0 00-2.812-.552 2.163 2.163 0 00-.725 2.965L4.219 16.7A6.659 6.659 0 009.825 20h.018zm-6-9.782l1.972 2.644a.816.816 0 00.914.244.72.72 0 00.518-.677V2.245a.981.981 0 01.22-.645.649.649 0 01.514-.225A1.021 1.021 0 019 2.246V8.2h1.25a1.02 1.02 0 01.208-.657.616.616 0 01.493-.217.88.88 0 01.86.92v1h1.25a.861.861 0 111.719 0v.977h1.25a.86.86 0 011.72 0v3.023a5.487 5.487 0 01-5.3 5.5H9.827a5.4 5.4 0 01-4.537-2.691l-2.91-4.818a.911.911 0 01.3-1.249.876.876 0 011.163.23z"/></g><defs><clipPath id="clip0_616_16"><path d="M0 0h20v20H0z"/></clipPath></defs></svg>