<svg xmlns="http://www.w3.org/2000/svg" width="20" height="20" viewBox="0 0 20 20" fill="currentColor"><g clip-path="url(#clip0_472_1155)"><path d="M7.118 3.538l-1.53-1.53A5.631 5.631 0 0110 4.126a5.693 5.693 0 015.31-2.063 5.353 5.353 0 014.667 5.8 10.371 10.371 0 01-2.826 5.709l-.876-.876a9.068 9.068 0 002.458-4.943A4.12 4.12 0 0015.13 3.3a4.37 4.37 0 00-4.573 2.267.625.625 0 01-1.115 0 4.189 4.189 0 00-2.324-2.029zM1.442.558l18 18-.885.884-3.667-3.668a31.067 31.067 0 01-4.316 3.072 1.147 1.147 0 01-1.148 0C7.942 17.983.513 13.4.021 7.863A5.247 5.247 0 012.213 3.1L.558 1.442l.884-.884zM14.01 14.9L3.1 3.987a4.034 4.034 0 00-1.833 3.766c.43 4.858 7.224 9.1 8.733 9.98a30.369 30.369 0 004.01-2.833z"/></g><defs><clipPath id="clip0_472_1155"><path d="M0 0h20v20H0z"/></clipPath></defs></svg>