<svg xmlns="http://www.w3.org/2000/svg" width="20" height="20" viewBox="0 0 20 20" fill="currentColor"><path d="M7.725 19.872a.718.718 0 01-.607-.328.725.725 0 01-.118-.397V16H3.625A2.63 2.63 0 011 13.375v-9.75A2.629 2.629 0 013.625 1h12.75A2.63 2.63 0 0119 3.625v9.75A2.63 2.63 0 0116.375 16h-4.161l-4 3.681a.725.725 0 01-.489.191zM3.625 2.25A1.377 1.377 0 002.25 3.625v9.75a1.377 1.377 0 001.375 1.375h4a.625.625 0 01.625.625v2.575l3.3-3.035a.628.628 0 01.424-.165h4.4a1.377 1.377 0 001.375-1.375v-9.75a1.377 1.377 0 00-1.374-1.375H3.625z"/></svg>