<svg xmlns="http://www.w3.org/2000/svg" width="20" height="20" viewBox="0 0 20 20" fill="currentColor"><path d="M9.1 7.015l3.885 3.885-8.336 8.335a1.627 1.627 0 01-2.3 0L.765 17.649a1.628 1.628 0 010-2.3L9.1 7.015zm8.134-2.664l-1.585-1.586a1.626 1.626 0 00-2.3 0L10.515 5.6 14.4 9.485l2.836-2.836a1.628 1.628 0 00-.001-2.298h-.001zM8.124.5V0h-1.25v.5A1.377 1.377 0 015.5 1.875H5v1.25h.5A1.377 1.377 0 016.875 4.5V5h1.25v-.5A1.377 1.377 0 019.5 3.125h.5v-1.25h-.5A1.377 1.377 0 018.125.5zM19.7.875A.576.576 0 0119.125.3V0h-1.25v.3a.576.576 0 01-.575.575H17v1.25h.3a.576.576 0 01.575.575V3h1.25v-.3a.576.576 0 01.575-.575h.3V.875h-.3zM18.125 10.3V10h-1.25v.3a.576.576 0 01-.575.575H16v1.25h.3a.576.576 0 01.575.575v.3h1.25v-.3a.577.577 0 01.575-.575h.3v-1.25h-.3a.576.576 0 01-.575-.575z"/></svg>