<svg xmlns="http://www.w3.org/2000/svg" width="20" height="20" viewBox="0 0 20 20" fill="currentColor"><path d="M16.2 8H9V7H7.75v1H4.884A.877.877 0 004 8.868v2.264a.877.877 0 00.884.868H7.75v1H9v-1h3.743a3.424 3.424 0 003.507-3.326L16.2 8zm-3.455 2.75h-3.72v-1.5h5.886a2.24 2.24 0 01-2.168 1.5h.002zM10 19.99a4.6 4.6 0 01-3.27-1.354l-5.366-5.365a4.627 4.627 0 010-6.542L6.73 1.364a4.627 4.627 0 016.542 0l5.365 5.364a4.627 4.627 0 010 6.542l-5.364 5.365A4.601 4.601 0 0110 19.99zm0-18.73a3.353 3.353 0 00-2.386.988L2.25 7.614a3.374 3.374 0 000 4.772l5.366 5.366a3.46 3.46 0 004.772 0l5.365-5.366a3.374 3.374 0 000-4.772L12.386 2.25A3.35 3.35 0 0010 1.26z"/></svg>