<svg xmlns="http://www.w3.org/2000/svg" width="20" height="20" viewBox="0 0 20 20" fill="currentColor"><path d="M2.625 16A1.627 1.627 0 011 14.375V2.625A1.627 1.627 0 012.625 1h11.75A1.627 1.627 0 0116 2.625h-1.25a.375.375 0 00-.375-.375H2.625a.375.375 0 00-.375.375v11.75a.375.375 0 00.375.375V16zm14.044-7.068a2.573 2.573 0 11-5.147.002 2.573 2.573 0 015.147-.002zm-1.029 0a1.544 1.544 0 10-3.087.002 1.544 1.544 0 003.087-.002zM19 5.622v11.756A1.624 1.624 0 0117.378 19H5.622A1.624 1.624 0 014 17.378V5.622A1.624 1.624 0 015.622 4h11.756A1.624 1.624 0 0119 5.622zM5.622 17.75h9.151l-4.648-4.65a1.958 1.958 0 00-2.765 0l-2.11 2.11v2.166a.373.373 0 00.372.374zM17.75 5.622a.373.373 0 00-.372-.372H5.622a.373.373 0 00-.372.372v8.134l1.382-1.381a2.988 2.988 0 014.222 0l5.375 5.375h1.149a.373.373 0 00.372-.372V5.622z"/></svg>