<svg xmlns="http://www.w3.org/2000/svg" width="20" height="20" viewBox="0 0 20 20" fill="currentColor"><g clip-path="url(#clip0_3018_184)"><path d="M19.978 7.863a5.355 5.355 0 00-4.668-5.8A5.693 5.693 0 0010 4.125a5.637 5.637 0 00-4.412-2.117l11.564 11.563a10.373 10.373 0 002.826-5.708zM.558 1.441L2.213 3.1A5.249 5.249 0 00.021 7.863c.492 5.534 7.921 10.119 9.4 10.982a1.144 1.144 0 001.148 0 31.161 31.161 0 004.316-3.072l3.667 3.667.885-.883-18-18-.879.884z"/></g><defs><clipPath id="clip0_3018_184"><path d="M0 0h20v20H0z"/></clipPath></defs></svg>