<svg xmlns="http://www.w3.org/2000/svg" width="20" height="20" viewBox="0 0 20 20" fill="currentColor"><path d="M11 2.5h0-2.001a.124.124 0 01-.108-.063h0l-1-1.75s0 0 0 0a.125.125 0 01.217-.123h0l.82 1.435.143.252h1.857l.144-.252.819-1.435s0 0 0 0a.126.126 0 01.217.124l-1 1.75s0 0 0 0a.124.124 0 01-.107.062zm0 .5H9h2zm-.907 15.708l-.02.021a.121.121 0 01-.07.022.124.124 0 01-.092-.042h0l-4-4.5h0a.124.124 0 01-.028-.114h0L8.12 5.592h0a.125.125 0 01.12-.093h3.524a.125.125 0 01.119.093h0l2.237 8.5h0a.125.125 0 01-.027.115h0l-4 4.5zM8.719 5.75h-.386l-.098.373-2.03 7.71-.068.259.178.2 3.31 3.724.375.42.373-.42 3.311-3.724.178-.2-.068-.26-2.03-7.71-.098-.372H8.719z"/></svg>