<svg xmlns="http://www.w3.org/2000/svg" width="20" height="20" viewBox="0 0 20 20" fill="currentColor"><path d="M4.828 7.566A2.72 2.72 0 014.5 6.329 2.987 2.987 0 017.605 3.5l.02.001h.02a2.987 2.987 0 013.105 2.83A2.72 2.72 0 019.55 8.523l-.724.489.788.377a3.758 3.758 0 012.135 3.305A3.978 3.978 0 017.642 16.5h-.034A3.978 3.978 0 013.5 12.695 3.758 3.758 0 015.635 9.39l.788-.377-.724-.489a2.72 2.72 0 01-.87-.958zm2.737 1.331l.029.002a2.74 2.74 0 002.905-2.542l.002-.036-.002-.036a2.742 2.742 0 00-2.874-2.536 2.742 2.742 0 00-2.874 2.536l-.002.037.002.037a2.741 2.741 0 002.814 2.538zm3.934 3.83l.002-.027-.002-.026a3.73 3.73 0 00-3.874-3.53 3.73 3.73 0 00-3.874 3.53l-.002.026.002.027a3.73 3.73 0 003.874 3.523 3.73 3.73 0 003.874-3.523zM16.5 9v.5h2.6v.25h-2.6V12.164h-.25V9.75h-2.4V9.5h2.4V6.914h.25V9zM.5 3.875h.25v12.25H.5V3.875z"/></svg>