<svg xmlns="http://www.w3.org/2000/svg" width="20" height="20" viewBox="0 0 20 20" fill="currentColor"><path d="M17.335 4.49h0l-2.863 2.863-.007.007h0a1.307 1.307 0 01-1.812 0l-.008-.007h0a1.29 1.29 0 010-1.822h0l2.864-2.862s0 0 0 0a.627.627 0 00.166-.579v-.005h0a.613.613 0 00-.386-.448h-.004 0a4.863 4.863 0 00-3.209-.092l-.002.001a5.2 5.2 0 00-3.6 4.254 5.127 5.127 0 005.723 5.726 5.2 5.2 0 004.258-3.606v-.002a4.872 4.872 0 00-.089-3.209l-1.03-.22zm0 0a.628.628 0 011.031.219l-1.03-.22zm-9.08 7.253h.002a7.5 7.5 0 001.832 1.345l-5.667 5.667s0 0 0 0a2.246 2.246 0 11-3.176-3.176h0l5.67-5.672c.35.675.802 1.294 1.34 1.836z"/></svg>