<svg xmlns="http://www.w3.org/2000/svg" width="20" height="20" viewBox="0 0 20 20" fill="currentColor"><path d="M4.5 9.251a4.508 4.508 0 003.586 4.405l.05.011h1.735l.05-.01c.303-.064.597-.158.88-.282 0 0 0 0 0 0l.457-.2.4.917-.457.199s0 0 0 0c-.411.178-.841.303-1.282.375l-.42.07v.425L9.5 16v.499h2.646v1H9.5v2h-1v-2H5.937v-1H8.5V14.738l-.416-.071A5.5 5.5 0 013.959 7.05s0 0 0 0l.2-.459.916.4-.2.457s0 0 0 0A4.465 4.465 0 004.5 9.252zm0 0s0 0 0 0L5 9.25l-.5.001s0 0 0 0zm9.541 2.198l-.2.459-.916-.4.2-.458s0 0 0 0a4.5 4.5 0 00-5.926-5.925l-.457.2-.4-.917.458-.2h0a5.493 5.493 0 015.249.468l.34.228.29-.29 2.26-2.26.854-.854h-3.46v-1h4.146A1.022 1.022 0 0117.5 1.521v4.146h-1V2.208l-.853.852-2.223 2.221-.31.31.266.347a5.476 5.476 0 01.661 5.51v.001z"/></svg>