<svg xmlns="http://www.w3.org/2000/svg" width="20" height="20" viewBox="0 0 20 20" fill="currentColor"><path d="M10.437 10.103L13.65 5.5h.85v9h-1.168v-2.807l.046-2.627.009-.509H12.559l-.149.221L10 12.362 7.59 8.778l-.149-.221h-.829l.01.51.053 2.627V14.5H5.5v-9h.85l3.213 4.603.15.214H10.286l.15-.214zM5.625 1.75h0A3.879 3.879 0 001.75 5.624v8.751h0a3.88 3.88 0 003.874 3.875h8.751a3.88 3.88 0 003.875-3.874V5.625v0a3.879 3.879 0 00-3.874-3.875H5.625zm0 16.75A4.13 4.13 0 011.5 14.375v-8.75A4.131 4.131 0 015.625 1.5h8.75A4.131 4.131 0 0118.5 5.626v8.748a4.131 4.131 0 01-4.126 4.126H5.626z"/></svg>