<svg xmlns="http://www.w3.org/2000/svg" width="20" height="20" viewBox="0 0 20 20" fill="currentColor"><path d="M18.635 6.73L13.27 1.364a4.627 4.627 0 00-6.542 0L1.364 6.73a4.627 4.627 0 000 6.542l5.365 5.365a4.628 4.628 0 006.542 0l5.364-5.365a4.627 4.627 0 000-6.542zM11.375 10a1.375 1.375 0 11-2.75 0 1.375 1.375 0 012.75 0zm-7 0a5.646 5.646 0 012.812-4.868l.542-.314L9.272 7.49a2.577 2.577 0 00-1.815 3.135H4.374V10zm8.435 4.868a5.6 5.6 0 01-5.622 0l-.54-.312 1.538-2.666a2.6 2.6 0 003.626 0l1.54 2.666-.542.312zm2.814-4.243h-3.083a2.577 2.577 0 00-1.815-3.135l1.543-2.672.542.314A5.645 5.645 0 0115.624 10v.625z"/></svg>