<svg xmlns="http://www.w3.org/2000/svg" width="20" height="20" viewBox="0 0 20 20" fill="currentColor"><path d="M17.266 7.945a.605.605 0 01.033-.004 2.071 2.071 0 01-.007 4.14.599.599 0 01-.028-.003l-.022-.003-.029-.004a1.317 1.317 0 00-.075-.008l-.38-.029-.129.359a7.019 7.019 0 01-1.385 2.319l-.245.273.187.316a2.059 2.059 0 11-3.621 1.958l-.164-.333-.367.06A6.973 6.973 0 0110 17.08a6.973 6.973 0 01-1.034-.093l-.366-.061-.164.332a2.063 2.063 0 01-3.913-.922 2.04 2.04 0 01.288-1.034L5 14.986l-.246-.274a7.019 7.019 0 01-1.383-2.319l-.129-.357-.378.027a1.94 1.94 0 00-.163.019 2.07 2.07 0 01-.004-4.141l.03.004.006.001c.029.005.095.015.167.015h.352l.119-.331a7.009 7.009 0 011.387-2.319l.246-.273-.188-.316a2.06 2.06 0 113.621-1.959l.162.33.363-.056a6.826 6.826 0 012.08 0l.363.056.162-.33a2.06 2.06 0 113.62 1.959l-.186.316.245.273a7.01 7.01 0 011.383 2.319l.128.357.38-.027a1.896 1.896 0 00.13-.015zM8.85 15.937l.073.041.083.014c.66.115 1.334.114 1.993-.002l.08-.014.07-.038a.453.453 0 01.04-.02l.206-.083.076-.209a2.068 2.068 0 011.929-1.363c.163.002.325.024.484.065l.283.073.203-.211a6.046 6.046 0 001.417-2.42l.08-.26-.174-.207a2.015 2.015 0 010-2.584l.173-.207-.079-.259a6.04 6.04 0 00-1.417-2.42l-.202-.211-.284.073a2.04 2.04 0 01-.484.064 2.067 2.067 0 01-1.929-1.363l-.078-.215-.212-.082a.408.408 0 01-.042-.019l-.069-.036-.077-.013a5.836 5.836 0 00-1.988 0l-.08.014-.073.039a.404.404 0 01-.04.019l-.205.084-.076.209A2.067 2.067 0 016.6 5.759a2.04 2.04 0 01-.484-.064l-.284-.073-.202.21a6.04 6.04 0 00-1.417 2.421l-.08.259.174.207a2.015 2.015 0 010 2.584l-.173.208.079.259a6.046 6.046 0 001.417 2.42l.203.211.283-.073c.159-.041.321-.063.484-.065a2.07 2.07 0 011.929 1.363l.075.207.203.084a.411.411 0 01.04.02z"/></svg>