<svg xmlns="http://www.w3.org/2000/svg" width="20" height="20" viewBox="0 0 20 20" fill="currentColor"><g clip-path="url(#clip0_616_15)"><path d="M2.625 6.921a.623.623 0 00.442-.183l2-2a.625.625 0 00-.442-1.067H3.25V.8H2v2.871H.625a.625.625 0 00-.442 1.067l2 2a.623.623 0 00.442.183z"/><path d="M16.89 8.1c-.366 0-.727.096-1.044.279a2.112 2.112 0 00-1.925-1.256c-.357 0-.71.091-1.02.266a2.112 2.112 0 00-1.95-1.311 1.957 1.957 0 00-.7.126V2.246A2.258 2.258 0 007.982.121 2.012 2.012 0 006 2.246v8.77L4.848 9.471a2.126 2.126 0 00-2.812-.552 2.163 2.163 0 00-.724 2.965L4.22 16.7A6.656 6.656 0 009.825 20h2.631A6.673 6.673 0 0019 13.246v-3.023A2.12 2.12 0 0016.89 8.1z"/></g><defs><clipPath id="clip0_616_15"><path d="M0 0h20v20H0z"/></clipPath></defs></svg>