<svg xmlns="http://www.w3.org/2000/svg" width="20" height="20" viewBox="0 0 20 20" fill="currentColor"><g clip-path="url(#clip0_1581_880)"><path d="M8.869 6.145a.1.1 0 00.034.021l.01.004h0l8.48 3.4s0 0 0 0a2.943 2.943 0 011.857 2.744v-.001h-.5l.5.002-10.381-6.17zm0 0v-.001l-.124-.124-.386-.386-.351.419c-.336.4-.694.78-1.073 1.14L8.87 6.145zM1.25 8.189h.5v.214a5.74 5.74 0 01-.5-.214zm0 0l-.219.45c.073.035.146.068.219.1v-.55zm18 4.249h-.5v.5h.5v-.5zm.75.5h-.5v-.5h.5v.5zM6.875 3.795l.354-.353-.354-.354-.354.353.354.354zm-.884.177h0l.354.353.353-.353-.353-.354-.354.354zM.854 7.44l-.092-.045-.004-.002L.75 7.39v.115a.628.628 0 01.054-.036h0l.002-.001a.648.648 0 01.048-.027zM.75 12.437H.5h.25zm8.385-3.252l-3.301 3.304-.177-.177 3.301-3.305.177.178zm3.125 1.042L10 12.492l-.178-.179 2.261-2.263.177.177zm7.24 5.023v.25H.5v-.25h19z"/></g><defs><clipPath id="clip0_1581_880"><path d="M0 0h20v20H0z"/></clipPath></defs></svg>