<svg xmlns="http://www.w3.org/2000/svg" width="20" height="20" viewBox="0 0 20 20" fill="currentColor"><path d="M10.413 4.266v.462l.46.037c4.894.384 8.627 3.92 8.627 8.087v.125h-.25v-.125c0-3.567-2.774-6.514-6.463-7.509l-1.782-.48L12.3 6.177a7.653 7.653 0 012.2 5.657l-.001.009v.01c0 1.871-.536 3.55-1.376 4.746-.84 1.2-1.954 1.878-3.124 1.878-1.17 0-2.284-.678-3.125-1.877-.84-1.196-1.375-2.874-1.375-4.747a9.539 9.539 0 01.207-1.927l.051-.242-.16-.187a2.48 2.48 0 01-.5-2.306l.358-1.235-1.098.67A7.523 7.523 0 00.75 12.837v.139H.5v-.122a7.338 7.338 0 011.91-4.866l.322-.353-.337-.337L.89 5.794l.177-.177L2.57 7.118l.327.327.352-.301a9.416 9.416 0 011.322-.95l.453-.269-.292-.438-1.18-1.775.209-.14 1.26 1.893.234.352.385-.172c.448-.2.91-.367 1.382-.5l.476-.136-.13-.478-.592-2.165.236-.064.606 2.217.118.434.444-.072c.495-.08.995-.127 1.496-.14l.487-.012V1.866h.25v2.4zm.535 5.275l-.012-.014-.014-.013a1.458 1.458 0 00-.624-.345l-.336-.09-.2.285a2.64 2.64 0 01-1.135.912l-.232.098-.06.245-.009.037-.003.013-.003.013a6.77 6.77 0 00-.114 1.164h0v.006c0 .74.192 1.39.494 1.871.29.46.746.855 1.3.855s1.01-.396 1.3-.854c.3-.479.492-1.126.494-1.86a3.225 3.225 0 00-.846-2.323zM5.25 7.852h0a2.377 2.377 0 002.374 2.375h.001A2.375 2.375 0 105.25 7.852zm.5 3.998v.002c0 1.7.44 3.266 1.178 4.421.734 1.15 1.808 1.954 3.072 1.954s2.338-.804 3.072-1.954c.737-1.155 1.178-2.72 1.178-4.42 0-1.67-.425-3.206-1.137-4.353-.708-1.14-1.744-1.955-2.97-2.016L9.058 5.43l.662.858a2.547 2.547 0 01.466 2.116l-.098.435.421.147c.208.073.4.184.566.329a3.435 3.435 0 01.968 2.519v.019c0 .882-.254 1.644-.64 2.173-.386.526-.884.802-1.404.802-.52 0-1.018-.276-1.404-.802-.386-.528-.64-1.289-.64-2.17.004-.277.023-.553.058-.827l.069-.545-.549-.018a2.6 2.6 0 01-.994-.233l-.612-.279-.091.667a9.447 9.447 0 00-.087 1.229z"/></svg>