<svg xmlns="http://www.w3.org/2000/svg" width="20" height="20" viewBox="0 0 20 20" fill="currentColor"><g clip-path="url(#clip0_473_118)"><path d="M18.375 2H1.625A1.627 1.627 0 000 3.625v11.75A2.63 2.63 0 002.625 18h14.75A2.63 2.63 0 0020 15.375V3.625A1.627 1.627 0 0018.375 2zm-6.542 2.7a1.3 1.3 0 110 2.6 1.3 1.3 0 010-2.6zm0 4a1.3 1.3 0 110 2.6 1.3 1.3 0 010-2.6zm-3.666-4a1.3 1.3 0 110 2.6 1.3 1.3 0 010-2.6zm0 4a1.3 1.3 0 110 2.6 1.3 1.3 0 010-2.6zM4.5 11.3a1.3 1.3 0 110-2.6 1.3 1.3 0 010 2.6zm0-4a1.3 1.3 0 110-2.6 1.3 1.3 0 010 2.6zM13 15H7a1 1 0 010-2h6a1 1 0 010 2zm2.5-3.7a1.3 1.3 0 110-2.599 1.3 1.3 0 010 2.599zm0-4a1.3 1.3 0 110-2.6 1.3 1.3 0 010 2.6z"/></g><defs><clipPath id="clip0_473_118"><path d="M0 0h20v20H0z"/></clipPath></defs></svg>