<svg xmlns="http://www.w3.org/2000/svg" width="20" height="20" viewBox="0 0 20 20" fill="currentColor"><g clip-path="url(#clip0_3322_31)"><path d="M18.179 4.406L10.8.21a1.637 1.637 0 00-1.6.001L1.821 4.406A1.628 1.628 0 001 5.818v8.364a1.628 1.628 0 00.821 1.412L9.2 19.79a1.639 1.639 0 001.607 0l7.375-4.2A1.628 1.628 0 0019 14.182V5.818a1.627 1.627 0 00-.821-1.412zM11 10.578v5.29H9v-5.29L4.213 7.814 4.4 7.49l.812-1.407L10 8.845l4.787-2.763.812 1.407.188.325L11 10.578z"/></g><defs><clipPath id="clip0_3322_31"><path d="M0 0h20v20H0z"/></clipPath></defs></svg>