<svg xmlns="http://www.w3.org/2000/svg" width="20" height="20" viewBox="0 0 20 20" fill="currentColor"><path d="M10 19.033l-.222-.11A7.803 7.803 0 018.1 17.79c-.656-.592-1.337-1.465-1.35-2.574a1.726 1.726 0 011.736-1.925M10 19.033l2.75-3.849a1.225 1.225 0 00-1.235-1.392l.007-.5h-.008a1.772 1.772 0 00-1.42.69l-.094.116-.093-.116a1.772 1.772 0 00-1.421-.69M10 19.033l.223-.11c.267-.133 1-.523 1.674-1.13.657-.592 1.34-1.466 1.353-2.576L10 19.033zm-1.514-5.741h.007l-.008.5m0-.5h-.007l.007.5m0 0a1.274 1.274 0 011.029.5L10 18.475c-.506-.251-2.75-1.465-2.75-3.291a1.226 1.226 0 011.235-1.392zm-.967-.525l1.262-.752-1.459-.175c-2.098-.25-3.84-.788-5.042-1.499C1.066 10.124.5 9.298.5 8.485V5.479c.022-.972.863-1.967 2.597-2.743C4.801 1.973 7.214 1.5 10 1.5c2.786 0 5.2.473 6.903 1.236 1.734.776 2.575 1.77 2.597 2.743v3.136c0 .882-.73 1.821-2.47 2.588-1.38.601-2.845.985-4.342 1.137l-1.506.152 1.3.775a2.09 2.09 0 011.019 1.894l-.001.011v.012c0 1.212-.733 2.19-1.567 2.906a7.925 7.925 0 01-1.726 1.12.508.508 0 01-.405-.002h0l-.005-.002c-.05-.021-.9-.405-1.73-1.116-.834-.716-1.567-1.694-1.567-2.906v-.023a2.09 2.09 0 011.018-1.894zm-5.95-5.89l-.818-.67v1.778c0 .563.312 1.065.749 1.477.442.417 1.063.793 1.81 1.113 1.5.64 3.595 1.091 6.052 1.16l.514.015v-.876h.25v.87l.508-.008a18.513 18.513 0 004.983-.768l.011-.003.012-.004.568-.2h.001c.184-.066.356-.135.518-.203h0l.006-.002.06-.026a6.75 6.75 0 00.242-.107l.051-.024h0l.01-.005c.629-.307 1.152-.66 1.526-1.05.37-.386.629-.848.629-1.359V6.706l-.817.67C16.888 8.643 13.813 9.53 10 9.53c-3.814 0-6.888-.887-8.433-2.154zm2.239-1.65l-.007.002-.007.003-.117.043-.087-.233.111-.041A18.657 18.657 0 019.993 4.5h.014c2.14-.03 4.268.309 6.293 1l.11.042-.086.235-.118-.044h0l-.013-.004A18.378 18.378 0 0010 4.749c-2.105-.03-4.2.3-6.193.978zm15.443-.212c0-.586-.338-1.107-.806-1.532-.476-.43-1.143-.818-1.948-1.143-1.614-.652-3.867-1.09-6.496-1.09-2.629 0-4.882.438-6.496 1.09-.805.325-1.472.712-1.948 1.143-.468.425-.806.946-.806 1.532 0 .586.338 1.107.806 1.532.476.43 1.143.818 1.948 1.143C5.118 8.842 7.371 9.28 10 9.28c2.629 0 4.882-.438 6.496-1.09.805-.325 1.472-.712 1.948-1.143.468-.425.806-.946.806-1.532z"/></svg>