<svg xmlns="http://www.w3.org/2000/svg" width="20" height="20" viewBox="0 0 20 20" fill="currentColor"><g clip-path="url(#clip0_474_28)"><path d="M6.75 10A3.254 3.254 0 0010 13.25a3.213 3.213 0 001.7-.492L7.242 8.3c-.32.51-.49 1.098-.492 1.7z"/><path d="M18.154 2.1L10.271.109a1.1 1.1 0 00-.541 0L1.846 2.1A1.122 1.122 0 001 3.187V12c0 5.277 7.249 7.554 8.7 7.957.098.027.199.042.3.043.101 0 .202-.014.3-.04 1.453-.4 8.7-2.68 8.7-7.957V3.187a1.122 1.122 0 00-.846-1.087zM10 14.75A4.75 4.75 0 1114.75 10 4.756 4.756 0 0110 14.75z"/><path d="M10 6.75a3.213 3.213 0 00-1.7.492l4.458 4.458c.32-.51.49-1.098.492-1.7A3.254 3.254 0 0010 6.75z"/></g><defs><clipPath id="clip0_474_28"><path d="M0 0h20v20H0z"/></clipPath></defs></svg>