<svg xmlns="http://www.w3.org/2000/svg" width="20" height="20" viewBox="0 0 20 20" fill="currentColor"><g clip-path="url(#clip0_3596_324)"><path d="M16 14.44H6.812v-.09l.121-.163A9.414 9.414 0 008.738 9.6l-1.726.87A2.594 2.594 0 014 9.98l-.669-.673a1.135 1.135 0 01-.1-1.467l4.2-5.655H5.818V.935h2.61A7.606 7.606 0 0116 8.56v5.88zm.393 1.56H4.607A1.61 1.61 0 003 17.607V20h15v-2.393A1.609 1.609 0 0016.393 16z"/></g><defs><clipPath id="clip0_3596_324"><path d="M0 0h20v20H0z"/></clipPath></defs></svg>