<svg xmlns="http://www.w3.org/2000/svg" width="20" height="20" viewBox="0 0 20 20" fill="currentColor"><path d="M5.512 7.58h0c.105 1.243.897 2.413 1.858 3.382.95.96 2 1.659 2.493 1.962L5.513 7.58zm0 0v-.012m0 .011v-.011m0 0A2.451 2.451 0 019.69 5.582l.355.359M5.511 7.568l4.534-1.627m0 0l.356-.36m-.356.36l.356-.36m0 0a2.45 2.45 0 014.18 1.986h0M10.4 5.581l4.18 1.986m0 0l-.001.012m0-.012v.012m0 0c-.104 1.244-.896 2.413-1.857 3.382-.95.96-1.999 1.658-2.49 1.961l-.003.002m4.35-5.345l-4.35 5.345m0 0a.352.352 0 01-.367 0h.367zM13.38 15.5h-.201l-.145.14-3.037 2.913-.173-.18 3.252-3.121h2.299a3.875 3.875 0 003.871-3.87V5.62v0A3.875 3.875 0 0015.38 1.75H4.621h0A3.875 3.875 0 00.75 5.62v5.759h0a3.875 3.875 0 003.87 3.871H7v.25H4.622A4.126 4.126 0 01.5 11.379V5.62A4.126 4.126 0 014.621 1.5H15.38A4.126 4.126 0 0119.5 5.622v5.757a4.126 4.126 0 01-4.121 4.121h-2zm-3.334-2.847h.149l.124-.081c.436-.284 1.37-.935 2.226-1.795.836-.842 1.68-1.969 1.787-3.21a2.219 2.219 0 00-1.836-2.436h0l-.005-.001a2.2 2.2 0 00-2.33 1.231v.001l-.114.238-.114-.238v-.001a2.2 2.2 0 00-2.33-1.231h0-.005A2.219 2.219 0 005.76 7.566c.108 1.242.951 2.368 1.787 3.21.854.86 1.789 1.511 2.224 1.796l.125.082h.15z"/></svg>