<svg xmlns="http://www.w3.org/2000/svg" width="20" height="20" viewBox="0 0 20 20" fill="currentColor"><path d="M19.426 8.687l-8.3-4.73A5.1 5.1 0 007.746.948c-.84 0-3.587 1.758-3.587 4.125 0 .112.023.218.032.328l-3.816 3.4A1.1 1.1 0 000 9.623v8.214a1.153 1.153 0 001.175 1.125L18.819 19c.318 0 .623-.124.85-.347a1.092 1.092 0 00.331-.778V9.652a1.117 1.117 0 00-.574-.965zM7.7 2.195c.387.076 2.382 1.308 2.382 2.878a2.34 2.34 0 11-4.675 0C5.409 3.5 7.4 2.271 7.7 2.195zM18.75 14.75H4.451V16h14.3v1.75l-17.5-.037V11.25h17.5l-.001 3.5zm0-4.75H1.25v-.3l3.325-2.967a3.555 3.555 0 006.717-1.24L18.75 9.74V10z"/></svg>