<svg xmlns="http://www.w3.org/2000/svg" width="20" height="20" viewBox="0 0 20 20" fill="currentColor"><g clip-path="url(#clip0_1581_869)"><path d="M17.036 17.133L16.1 16.3l.417-.466a8.75 8.75 0 10-13.042 0l.425.466-.932.834-.417-.466a10 10 0 1114.906 0l-.421.465zm-1.294-3.3A7.168 7.168 0 0017 10.022 6.74 6.74 0 0010.227 3 7.29 7.29 0 003 9.978a6.817 6.817 0 001 3.827l.328.532 1.072-.655-.33-.532a5.572 5.572 0 01-.816-3.128 6.028 6.028 0 015.973-5.772 5.487 5.487 0 015.527 5.728 5.92 5.92 0 01-1.043 3.146l-.354.515 1.03.708.355-.514zM13 10.045a3 3 0 10-6 0 3 3 0 006 0zm-1.25 0a1.75 1.75 0 11-3.5.01 1.75 1.75 0 013.5-.01zm.533 8.886l.69-3.368a1.277 1.277 0 00-.263-1.063 1.363 1.363 0 00-1.062-.5h-3.3a1.362 1.362 0 00-1.062.5 1.276 1.276 0 00-.264 1.065l.69 3.369A1.367 1.367 0 009.065 20h1.872a1.367 1.367 0 001.347-1.07zm-.635-3.681l.1.062-.69 3.367a.123.123 0 01-.123.07H9.064a.124.124 0 01-.123-.07l-.69-3.367.1-.062h3.297z"/></g><defs><clipPath id="clip0_1581_869"><path d="M0 0h20v20H0z"/></clipPath></defs></svg>