<svg xmlns="http://www.w3.org/2000/svg" width="20" height="20" viewBox="0 0 20 20" fill="currentColor"><path d="M10 4a3.5 3.5 0 100 7 3.5 3.5 0 000-7zm0 5.75a2.25 2.25 0 110-4.5 2.25 2.25 0 010 4.5zm5.93-5.83a.979.979 0 010 1.41.931.931 0 01-.15.13c-.05.03-.11.06-.17.09-.06.03-.13.04-.19.06a1.21 1.21 0 01-.19.01.99.99 0 01-1-.99 1.036 1.036 0 01.07-.39c.052-.12.127-.228.22-.32a.875.875 0 01.32-.22 1.021 1.021 0 011.09.22zM16.378 1H3.622A2.629 2.629 0 001 3.631v9.744a.625.625 0 00.625.625H17.75v2.369a1.38 1.38 0 01-1.372 1.381H3.622a1.379 1.379 0 01-1.372-1.381v-.625H1v.625A2.63 2.63 0 003.622 19h12.756A2.63 2.63 0 0019 16.369V3.631A2.63 2.63 0 0016.378 1zm1.372 11.75H2.25V3.631A1.379 1.379 0 013.622 2.25h12.756a1.38 1.38 0 011.372 1.381v9.119z"/></svg>