<svg xmlns="http://www.w3.org/2000/svg" width="20" height="20" viewBox="0 0 20 20" fill="currentColor"><path d="M1.69 8.125L3.475 3.65l.03-.075.005-.08A2.12 2.12 0 015.62 1.5h8.762a2.12 2.12 0 012.105 1.995l.005.08.03.075 1.787 4.475h-.269l-1.196-3-.464-1.165-.464 1.165-1.199 3.005h-.27l1.762-4.415.042-.105-.007-.113a1.87 1.87 0 00-1.86-1.747H5.617a1.87 1.87 0 00-1.859 1.747l-.007.113.042.105 1.76 4.41h-.268l-1.199-3L3.62 3.96l-.463 1.164-1.196 3h-.272zM3.615 13.5h.005a2.876 2.876 0 002.77-2.118l.173-.632H.674l.173.632a2.876 2.876 0 002.77 2.118zm12.758 0h.007a2.876 2.876 0 002.764-2.118l.173-.632h-5.886l.173.632a2.876 2.876 0 002.77 2.118zm-6.999 4.7h.5V5.5h.25v12.7h2.896v.25H6.979v-.25h2.396zm-8.75-7.7h5.992a.125.125 0 01.125.125 3.121 3.121 0 01-6.242 0 .125.125 0 01.125-.125zm12.758 0h5.992a.125.125 0 01.125.125 3.12 3.12 0 11-6.242 0 .125.125 0 01.125-.125z"/></svg>