<svg xmlns="http://www.w3.org/2000/svg" width="20" height="20" viewBox="0 0 20 20" fill="currentColor"><g clip-path="url(#clip0_473_132)"><path d="M5.754 17.413L.137 10.391a.628.628 0 010-.782l5.617-7.022.976.782L1.425 10l5.305 6.631-.976.782zm14.11-7.022a.626.626 0 000-.782l-5.618-7.022-.977.782L18.575 10l-5.306 6.631.977.782 5.617-7.022zm-7 2.172l-.885-.884a2.43 2.43 0 01-3.358 0 2.373 2.373 0 010-3.358 2.43 2.43 0 013.358 0l.884-.884a3.71 3.71 0 00-5.126 0 3.625 3.625 0 105.126 5.126z"/></g><defs><clipPath id="clip0_473_132"><path d="M0 0h20v20H0z"/></clipPath></defs></svg>