<svg xmlns="http://www.w3.org/2000/svg" width="20" height="20" viewBox="0 0 20 20" fill="currentColor"><path d="M.9 8.5V9h2.6L.9 8.5zm0 0h2.604a.626.626 0 00.546-.312s0 0 0 0l1.443-2.499s0 0 0 0a.63.63 0 000-.627l-1.65-2.858-.217.125L5.24 5.125l.145.25-.145.25L3.87 8l-.145.25H.9v.25zm15.376-.25L16.13 8l-1.37-2.375-.145-.25.144-.25 1.614-2.796-.216-.125-1.65 2.858s0 0 0 0a.63.63 0 000 .627s0 0 0 0l1.443 2.499.325.062zm0 0h.288m-.288 0h.288m0 0h2.533m-2.533 0h2.533m0 0l-.001.25h-2.603a.626.626 0 01-.542-.312l3.146.062zM6 10.063h-.001a.123.123 0 010-.124v-.001l1.8-3.125s0 0 0 0a.625.625 0 01.542-.313h3.32a.625.625 0 01.54.313l1.8 3.125h0a.123.123 0 010 .124v.001l-1.8 3.125s0 0 0 0a.626.626 0 01-.54.312H8.34a.627.627 0 01-.542-.312s0 0 0 0L6 10.063zM7.98 13l.145.25h3.751l.144-.25 1.588-2.75.145-.25-.145-.25L12.02 7l-.144-.25H8.125L7.98 7 6.392 9.75l-.144.25.144.25L7.98 13zm-3.93-1.187h0l1.443 2.499s0 0 0 0a.63.63 0 010 .627s0 0 0 0l-1.65 2.857-.217-.125 1.614-2.796.145-.25-.145-.25L3.87 12l-.145-.25H.9v-.25h2.608a.626.626 0 01.541.313zm12.114 5.981l-1.648-2.855s0 0 0 0a.63.63 0 010-.627s0 0 0 0l1.443-2.499h0a.625.625 0 01.542-.313h2.6v.246H16.28l-.145.25-1.37 2.375-.145.25.144.25 1.616 2.798-.216.125z"/></svg>