<svg xmlns="http://www.w3.org/2000/svg" width="20" height="20" viewBox="0 0 20 20" fill="currentColor"><path d="M.912 4.912h0l4-4h0a.125.125 0 01.177 0h0l3.514 3.514L3.94 8.114.912 5.089s0 0 0 0a.125.125 0 010-.177zm10.943 11.12l3.701-4.652 3.528 3.531h0a.125.125 0 010 .178h0l-4 4h0a.126.126 0 01-.136.027.125.125 0 01-.04-.027h0l-3.053-3.057zm-8.761-4.171l.002-.003a3.472 3.472 0 012.524-.981 3.632 3.632 0 013.502 3.503 3.485 3.485 0 01-.98 2.525l-.003.002a3.974 3.974 0 01-2.793 1.22h-.005c-1.28.036-2.544.29-3.738.752h0a.37.37 0 01-.481-.479 11.22 11.22 0 00.752-3.739h0v-.005a3.973 3.973 0 011.22-2.795h0zM16.97 1.409c.422.027.819.205 1.119.503a1.742 1.742 0 01.15 2.28l-6.961 8.75a5.993 5.993 0 00-4.262-4.234l8.783-6.942c.334-.256.75-.383 1.171-.357z"/></svg>