<svg xmlns="http://www.w3.org/2000/svg" width="20" height="20" viewBox="0 0 20 20" fill="currentColor"><g clip-path="url(#clip0_1564_84)"><path d="M18.78 6.911a3.9 3.9 0 00-2.466-1.964 22.273 22.273 0 00-5.775-.884l.883-2.694 2.457.522a1.494 1.494 0 10.2-1.234L11.573.124a1.115 1.115 0 00-1.316.8l-1.01 3.07.218.071c-1.957.039-3.9.336-5.779.884A3.9 3.9 0 001.22 6.911a11.564 11.564 0 000 10.178 3.9 3.9 0 002.466 1.964c2.05.604 4.177.91 6.314.907a22.229 22.229 0 006.314-.907 3.9 3.9 0 002.466-1.964 11.563 11.563 0 000-10.178zm-1.054 9.673a2.74 2.74 0 01-1.744 1.347 21.354 21.354 0 01-11.964 0 2.738 2.738 0 01-1.744-1.347 10.407 10.407 0 010-9.168 2.74 2.74 0 011.744-1.347 21.26 21.26 0 0111.964 0 2.739 2.739 0 011.744 1.347 10.407 10.407 0 010 9.168z"/><path d="M14 11.133L8.119 7.338a.718.718 0 00-.74-.028.726.726 0 00-.379.637v7.592a.725.725 0 001.118.609L14 12.354a.724.724 0 000-1.221zm-5.75 3.442V8.91l4.391 2.833-4.391 2.832z"/></g><defs><clipPath id="clip0_1564_84"><path d="M0 0h20v20H0z"/></clipPath></defs></svg>