<svg xmlns="http://www.w3.org/2000/svg" width="20" height="20" viewBox="0 0 20 20" fill="currentColor"><path d="M13.25 12A1.252 1.252 0 0012 13.25v5.536L18.787 12H13.25z"/><path d="M10.125 14.875A4.377 4.377 0 016.512 13.1l-.432-.613 1.228-.863.43.614a3.068 3.068 0 002.737 1.1v-.116a2.752 2.752 0 012.75-2.75H19V3.6A2.6 2.6 0 0016.4 1H3.6A2.6 2.6 0 001 3.6v12.8A2.6 2.6 0 003.6 19h6.879v-4.157c-.121.01-.235.032-.354.032zm4-8.25a1.5 1.5 0 110 3 1.5 1.5 0 010-3zm-9.5 1.5a1.5 1.5 0 113 0 1.5 1.5 0 01-3 0z"/></svg>