<svg xmlns="http://www.w3.org/2000/svg" width="20" height="20" viewBox="0 0 20 20" fill="currentColor"><path d="M14.11 1.774l-.352.354A5.276 5.276 0 0115.31 5.87a6.436 6.436 0 01-1.36 3.534l-2.325-2.436a1.972 1.972 0 00.333-1.08v-.003c0-.342-.09-.677-.26-.973l-.433.25m2.845-3.388l-.351.356a.134.134 0 00-.106-.038h-.001a.126.126 0 00-.092.053s0 0 0 0l-1.856 2.63s0 0 0 0a.127.127 0 00-.006.138l-.433.25m2.845-3.389a5.777 5.777 0 011.7 4.113l-1.7-4.113zm-2.845 3.388c.126.22.193.469.193.722l2.152-4.29a.626.626 0 00-.458.262l-1.857 2.632a.627.627 0 00-.03.674zm-3.185 10.6l-2.192-2.75-2.876 3.017s0 0 0 0a.646.646 0 00.028.916h0l2.3 2.148s0 0 0 0a.65.65 0 00.44.173H5.843a.649.649 0 00.441-.24l1.797-3.265zm0 0l-.062.075.36.318.035.03.066.084-2.195 2.757L8.08 15.76zm.496-8.574l.031.058.046.047 8.092 8.478-.002.003.242.255a.644.644 0 01-.027.917s0 0 0 0 0 0 0 0l-2.298 2.145s0 0 0 0a.648.648 0 01-.442.172h-.001 0-.001 0-.001 0-.001 0-.001 0-.001 0-.001 0-.001 0-.001 0-.001 0-.001 0-.001 0-.001 0-.001 0-.001 0-.001 0-.001 0-.001 0-.001 0-.001 0-.001 0-.001 0-.001 0-.001 0-.001 0-.001 0-.001 0-.001 0-.001 0-.001 0-.001 0-.001 0-.001 0-.001 0-.001 0-.001 0-.001 0-.001 0-.001 0-.001 0-.001 0-.001 0-.001 0-.001 0-.001 0-.001 0-.001 0-.001 0-.001 0-.001 0-.001 0-.001 0-.001 0-.001 0-.001 0-.001 0-.001 0-.001 0-.001 0-.001 0-.001 0-.001 0-.001 0-.001 0a.648.648 0 01-.441-.24L6.24 9.636l-.006-.007-.006-.007A6.455 6.455 0 014.692 5.87 5.316 5.316 0 0110.008.576h.026l.024-.002a.384.384 0 01.381.209c.046.107.054.262-.144.591-.207.343-.561.747-1.043 1.293l-.192.211h0l-.005.006a3.774 3.774 0 00-.478 4.304z"/></svg>