<svg xmlns="http://www.w3.org/2000/svg" width="20" height="20" viewBox="0 0 20 20" fill="currentColor"><g clip-path="url(#clip0_1581_865)"><path d="M11.056 15v2.944h.5m-.5-2.944l1.14.633.108.023.002 2.288h-.5M11.056 15a1.101 1.101 0 01.423-.87l-.423.87zm.5 2.944v.5h.25v-.5m-.25 0h.25m-.25 0v-2.945a.6.6 0 01.23-.475h0l.003-.002a.665.665 0 01.571-.124c.81.198 1.663.114 2.418-.239a3.96 3.96 0 002.445-3.048l.001-.01.002-.01a3.752 3.752 0 00-1.223-3.243.125.125 0 01-.029-.14l-.459-.197m-3.71 10.433l-.001-2.799v-.622l.607.134c.822.18 1.681.087 2.445-.266l.012-.005.011-.005a4.212 4.212 0 002.592-3.27 3.962 3.962 0 00-1.03-3.179l-.194-.208.08-.273c.078-.267.118-.543.119-.822a3.183 3.183 0 00-2.773-3.091l-.359-.047-.068-.355A3.247 3.247 0 0010.008.5h-.016a3.247 3.247 0 00-3.238 2.636l-.068.355-.359.047a3.183 3.183 0 00-2.773 3.091c0 .279.04.555.119.822l.08.273-.194.208a3.962 3.962 0 00-1.03 3.172 4.212 4.212 0 002.578 3.272l.014.006.014.006a3.611 3.611 0 002.438.247l.594-.149a.662.662 0 00-.526-.093h0c-.814.2-1.673.114-2.43-.244A3.962 3.962 0 012.775 11.1l-.001-.01-.002-.01a3.751 3.751 0 011.224-3.236.125.125 0 00.029-.139A2.74 2.74 0 013.8 6.626v-.019A2.961 2.961 0 016.844 3.75a.125.125 0 00.12-.125v-.017A2.962 2.962 0 0110 .75a2.962 2.962 0 013.036 2.858v.017c0 .033.013.065.037.088l-.354.354.354-.354a.125.125 0 00.088.037v.5a2.461 2.461 0 012.538 2.379c0 .303-.063.603-.184.882m0 0a.626.626 0 00.151.707m-.151-.707l.151.707m1.063 2.813a3.46 3.46 0 01-2.15 2.669 3.152 3.152 0 01-2.1.212l4.25-2.881zm0 0a3.25 3.25 0 00-1.063-2.813m1.063 2.813l-1.063-2.813m-7.222 6.778v2.948h-.25v-3.439a.6.6 0 01.016.013l.003.002a.6.6 0 01.231.475v0z"/></g><defs><clipPath id="clip0_1581_865"><path d="M0 0h20v20H0z"/></clipPath></defs></svg>