<svg xmlns="http://www.w3.org/2000/svg" width="20" height="20" viewBox="0 0 20 20" fill="currentColor"><g clip-path="url(#clip0_472_1136)"><path d="M17.065 2.929A9.993 9.993 0 00.122 8.443a9.883 9.883 0 001.195 6.49L.083 19.009a.73.73 0 00.9.913l4.167-1.194a9.859 9.859 0 006.45 1.142 9.992 9.992 0 005.465-16.941zm1.57 8.5a8.784 8.784 0 01-7.228 7.2 8.666 8.666 0 01-5.857-1.111l-.232-.139-3.762 1.078 1.118-3.692-.145-.238a8.656 8.656 0 01-1.172-5.893 8.752 8.752 0 1117.278 2.8v-.005zm-8.01-2.058H14v1.25h-3.375V14h-1.25v-3.376H6v-1.25h3.375V6h1.25v3.371z"/></g><defs><clipPath id="clip0_472_1136"><path d="M0 0h20v20H0z"/></clipPath></defs></svg>