<svg xmlns="http://www.w3.org/2000/svg" width="20" height="20" viewBox="0 0 20 20" fill="currentColor"><path d="M12.729 10.208c.005-.07.021-.137.021-.208A2.752 2.752 0 0010 7.25c-.071 0-.138.016-.208.021L8.743 6.222A3.943 3.943 0 0110 6a4 4 0 014 4c-.005.428-.08.853-.222 1.257l-1.049-1.049zm7.187-.638A10.631 10.631 0 0010 3c-1.297 0-2.584.23-3.8.68l.985.984A9.715 9.715 0 0110 4.25a9.445 9.445 0 018.76 5.706 9.285 9.285 0 01-2.525 3.494c-.047.041-.1.076-.148.116l.89.89c.024-.021.051-.038.075-.059a10.537 10.537 0 002.865-3.969c.11-.276.11-.583-.001-.858zM3.725 3.548l12.728 12.727-.885.884-1.13-1.13A10.819 10.819 0 0110 17a10.737 10.737 0 01-7.475-2.989 10.385 10.385 0 01-2.441-3.583 1.142 1.142 0 010-.856A10.45 10.45 0 013.538 5.13l-.7-.7.887-.882zm9.765 11.533l-1.59-1.589A3.9 3.9 0 0110 14a4 4 0 01-4-4 3.9 3.9 0 01.508-1.9L4.447 6.039a9.149 9.149 0 00-3.207 4.006 9.75 9.75 0 002.151 3.065A9.493 9.493 0 0010 15.75a9.571 9.571 0 003.49-.669zM7.25 10A2.752 2.752 0 0010 12.75c.333 0 .664-.063.974-.185L7.435 9.027c-.122.31-.185.64-.185.973z"/></svg>