<svg xmlns="http://www.w3.org/2000/svg" width="20" height="20" viewBox="0 0 20 20" fill="currentColor"><path d="M16.45 6.984v.424l.418.07a3.084 3.084 0 012.581 3.013v3.58a4.875 4.875 0 00-8.819-.174 5.374 5.374 0 00-10.13-.37v-5.87a.09.09 0 01.002-.006L.707 7H.5V2.5a1 1 0 011-1H9v1H7.5v5h5V5.116a.621.621 0 01.623-.616H15.827a.621.621 0 01.623.616v1.868zM15.825 4h-2.7A1.121 1.121 0 0012 5.114V7l3.825-3zM6 7.5h.5v-5h-5v5H6zm11.375 8.498V16a2.368 2.368 0 01-4.636.68 1.25 1.25 0 00.836-1.18v-.003a1.241 1.241 0 00-.447-.946 2.37 2.37 0 014.247 1.447zm-11.75.752h2.457a2.876 2.876 0 110-2.5H5.625a1.25 1.25 0 000 2.5z"/></svg>