<svg xmlns="http://www.w3.org/2000/svg" width="20" height="20" viewBox="0 0 20 20" fill="currentColor"><g clip-path="url(#clip0_474_0)"><path d="M19.987 3.636a1.627 1.627 0 00-1.624-1.623L1.626 2A1.627 1.627 0 000 3.625v12.75A1.627 1.627 0 001.625 18h16.749A1.629 1.629 0 0020 16.373l-.013-12.737zM1.625 3.25l16.738.013a.375.375 0 01.374.375v1L14 8.767V6.454l-4-1.037-4 1.037v2.318L1.25 4.579v-.954a.375.375 0 01.375-.375zM12.75 7.421v3.454c0 1.423-2.144 2.215-2.75 2.41-.606-.2-2.75-.987-2.75-2.41V7.421L10 6.708l2.75.713zm5.889 9.219a.376.376 0 01-.265.11H1.625a.375.375 0 01-.375-.375V6.246L6 10.438v.437c0 2.641 3.686 3.627 3.843 3.668l.157.04.157-.04C10.314 14.5 14 13.516 14 10.875v-.451L18.739 6.3l.01 10.078a.376.376 0 01-.11.262z"/></g><defs><clipPath id="clip0_474_0"><path d="M0 0h20v20H0z"/></clipPath></defs></svg>