<svg xmlns="http://www.w3.org/2000/svg" width="20" height="20" viewBox="0 0 20 20" fill="currentColor"><path d="M17.25 8.625v0a3.879 3.879 0 00-3.874-3.875H6.625h0A3.879 3.879 0 002.75 8.624v6.751h0a3.88 3.88 0 003.874 3.875h6.751a3.88 3.88 0 003.875-3.874V8.625zM9.375 11.9h.5V9.609h.25V11.9h2.294v.253h-2.294V14.45h-.25v-2.3H7.581v-.25h1.794zm5.75-10.15H4.875V1.5h10.25v.25zM17.5 8.626v6.748a4.131 4.131 0 01-4.126 4.126H6.626A4.13 4.13 0 012.5 15.375v-6.75A4.131 4.131 0 016.625 4.5h6.75A4.131 4.131 0 0117.5 8.626z"/></svg>