<svg xmlns="http://www.w3.org/2000/svg" width="20" height="20" viewBox="0 0 20 20" fill="currentColor"><path d="M12.375 7.935h-8.75A1.627 1.627 0 002 9.56v8.75a1.627 1.627 0 001.625 1.625h8.75A1.627 1.627 0 0014 18.31V9.56a1.627 1.627 0 00-1.625-1.625zm.375 10.375a.375.375 0 01-.375.375h-8.75a.375.375 0 01-.375-.375V9.56a.375.375 0 01.375-.375h8.75a.375.375 0 01.375.375v8.75zM19 8.356v3.5h-1.25v-3.5a4.175 4.175 0 00-4.17-4.171H9.42v1.661a.6.6 0 01-.984.461L5.513 3.872l-.036-.312a.6.6 0 01.215-.46L8.436.813a.6.6 0 01.984.461v1.661h4.16A5.427 5.427 0 0119 8.356z"/></svg>