<svg xmlns="http://www.w3.org/2000/svg" width="20" height="20" viewBox="0 0 20 20" fill="currentColor"><path d="M9.993 4.125h.014c2.188-.03 4.363.327 6.427 1.053l.461.177-.357.934-.465-.178-.007-.003-.007-.002A17.55 17.55 0 0010 5.125a17.55 17.55 0 00-6.059.981l-.007.002-.007.003-.465.178-.357-.934.461-.177a18.581 18.581 0 016.427-1.053zm9.492 1.642v.987l.015-.011v1.845c0 .673-.416 1.361-1.33 1.994-.86.595-2.101 1.095-3.63 1.43a4.225 4.225 0 00-3.04-1.22c-.083 0-.166.002-.25.007V9.72l-.514.014-.14.004c-.204.006-.4.012-.596.012a20.465 20.465 0 01-.736-.016L8.75 9.72v1.079a4.461 4.461 0 00-.25-.007 4.226 4.226 0 00-3.04 1.22c-1.529-.335-2.77-.835-3.63-1.43C.916 9.95.5 9.261.5 8.588V6.881l.07.065-.058-1.219a.902.902 0 00-.006-.07l-.005-.036v-.004L.5 5.613c.007-1.013.845-2.037 2.572-2.836C4.777 1.99 7.201 1.5 10 1.5c2.8 0 5.223.49 6.928 1.277 1.726.799 2.563 1.821 2.572 2.833l-.001.007-.008.055a.782.782 0 00-.006.095zm-7.983 7.4h.013a1.934 1.934 0 011.965 2.1l-.002.022v.022c0 1.212-.729 2.19-1.557 2.906a7.765 7.765 0 01-1.716 1.117.5.5 0 01-.406 0c-.06-.027-.9-.411-1.72-1.119-.828-.716-1.557-1.694-1.557-2.906v-.021l-.002-.022a1.934 1.934 0 011.965-2.1v.001h.013c.433-.003.856.136 1.203.395l.299.223.299-.223c.347-.259.77-.398 1.203-.395zM10 1.75c-2.63 0-4.885.452-6.501 1.126-.806.336-1.474.737-1.949 1.182-.47.44-.8.974-.8 1.567s.331 1.126.8 1.566c.475.444 1.143.845 1.949 1.181C5.114 9.047 7.369 9.5 10 9.5c2.63 0 4.886-.453 6.501-1.128.806-.336 1.474-.737 1.949-1.181.469-.44.8-.973.8-1.566 0-.593-.331-1.126-.8-1.566-.475-.444-1.143-.845-1.949-1.181C14.886 2.203 12.631 1.75 10 1.75z"/></svg>