<svg xmlns="http://www.w3.org/2000/svg" width="20" height="20" viewBox="0 0 20 20" fill="currentColor"><path d="M16.538 16.543h0l.006-.005A9.25 9.25 0 003.462 3.457h0l-.005.005a9.25 9.25 0 0013.081 13.081zm-3.98-7.839l.194.39.412-.138 2.608-.87.08.237-2.66.886-.377.126.037.396c.005.049.013.103.018.143l.004.031a.76.76 0 01.008.095 2.883 2.883 0 01-2.35 2.827l-.407.077v3.215h-.25v-3.215l-.407-.077A2.884 2.884 0 017.118 10a.73.73 0 01.012-.125l.017-.134.04-.398-.38-.126-2.676-.894.078-.235 2.624.874.414.138.193-.39a2.856 2.856 0 015.118-.005zM10 12.632h.001A2.635 2.635 0 0012.632 10V10A2.632 2.632 0 1010 12.632zM10.01.53a9.5 9.5 0 016.708 2.751A9.5 9.5 0 013.283 16.717 9.5 9.5 0 0110.01.531z"/></svg>