<svg xmlns="http://www.w3.org/2000/svg" width="20" height="20" viewBox="0 0 20 20" fill="currentColor"><path d="M11.04 10.066l.012.124.068.105 2.765 4.205H12.42l-1.985-3.107-.147-.231H9.707l-.148.229L7.554 14.5H6.116l2.77-4.205.083-.125v-.352l-.08-.124L6.162 5.5h1.381l2.007 3.32.146.241H10.297l.146-.243L12.436 5.5h1.397l-2.72 4.194-.094.145.016.173.005.054zM5.625 1.75h0A3.879 3.879 0 001.75 5.624v8.751h0a3.88 3.88 0 003.874 3.875h8.751a3.88 3.88 0 003.875-3.874V5.625v0a3.879 3.879 0 00-3.874-3.875H5.625zm8.75 16.75h-8.75A4.13 4.13 0 011.5 14.375v-8.75A4.131 4.131 0 015.625 1.5h8.75A4.131 4.131 0 0118.5 5.626v8.748a4.131 4.131 0 01-4.126 4.126z"/></svg>