<svg xmlns="http://www.w3.org/2000/svg" width="20" height="20" viewBox="0 0 20 20" fill="currentColor"><g clip-path="url(#clip0_616_25)"><path d="M18.838 3.631a4.228 4.228 0 00-2.469-2.469 18.116 18.116 0 00-12.738 0 4.228 4.228 0 00-2.469 2.469 18.033 18.033 0 000 12.737 4.226 4.226 0 002.469 2.47 18.035 18.035 0 0012.738 0 4.226 4.226 0 002.469-2.469 18.035 18.035 0 000-12.738zm-4.961 6.977l-5.884 3.8a.725.725 0 01-1.118-.608V6.2a.725.725 0 011.119-.6l5.882 3.8a.825.825 0 01.331.608.826.826 0 01-.33.6z"/></g><defs><clipPath id="clip0_616_25"><path d="M0 0h20v20H0z"/></clipPath></defs></svg>