<svg xmlns="http://www.w3.org/2000/svg" width="20" height="20" viewBox="0 0 20 20" fill="currentColor"><path d="M1.625 9.578a.625.625 0 00.625-.625V6.438H5.2l2.7 3.055a.625.625 0 00.936-.828L6.778 6.331a2.737 2.737 0 002.089-2.612A2.78 2.78 0 006.036 1H1.625A.625.625 0 001 1.625v7.328a.625.625 0 00.625.625zM2.25 2.25h3.786a1.53 1.53 0 011.581 1.469 1.53 1.53 0 01-1.581 1.469H2.25V2.25zm9.375 7.328a.625.625 0 00.625-.625V6.438h3.875A2.8 2.8 0 0019 3.719 2.8 2.8 0 0016.125 1h-4.5a.625.625 0 00-.625.625v7.328a.625.625 0 00.625.625zm.625-7.328h3.875a1.555 1.555 0 011.625 1.469 1.555 1.555 0 01-1.625 1.469H12.25V2.25zM19 14.188v4.187a.624.624 0 11-1.25 0v-4.187A2.644 2.644 0 0015 11.672a2.644 2.644 0 00-2.75 2.516v4.187a.624.624 0 11-1.25 0v-4.187a3.892 3.892 0 014-3.766 3.892 3.892 0 014 3.766zM5 10.422a3.892 3.892 0 00-4 3.766v4.187a.625.625 0 101.25 0v-2.516h5.5v2.516a.625.625 0 101.25 0v-4.187a3.892 3.892 0 00-4-3.766zm-2.75 4.187v-.421A2.644 2.644 0 015 11.672a2.644 2.644 0 012.75 2.516v.421h-5.5z"/></svg>