<svg xmlns="http://www.w3.org/2000/svg" width="20" height="20" viewBox="0 0 20 20" fill="currentColor"><g clip-path="url(#clip0_423_3)"><path d="M11.6 19.872A10.001 10.001 0 108.365.131 10.041 10.041 0 00.12 8.443a9.883 9.883 0 001.2 6.491L.08 19.012a.727.727 0 00.899.911l4.167-1.193A9.858 9.858 0 009.99 20c.539 0 1.077-.043 1.61-.128zM1.555 18.458l1.118-3.691-.145-.24a8.652 8.652 0 01-1.172-5.892 8.78 8.78 0 017.206-7.27 8.753 8.753 0 112.844 17.273 8.668 8.668 0 01-5.857-1.118l-.232-.138-3.762 1.076zM6 9a1 1 0 100 2 1 1 0 000-2zm4 0a1 1 0 100 2 1 1 0 000-2zm4 0a1 1 0 100 2 1 1 0 000-2z"/></g><defs><clipPath id="clip0_423_3"><path d="M0 0h20v20H0z"/></clipPath></defs></svg>