<svg xmlns="http://www.w3.org/2000/svg" width="20" height="20" viewBox="0 0 20 20" fill="currentColor"><mask id="a"><path d="M3.625 6.25c.237-.003.473-.04.7-.107-.212.465-.323.97-.325 1.482v.625h1.25v-.625a2.357 2.357 0 01.7-1.679 2.416 2.416 0 013.381.022l1.517 1.367.837-.929-1.497-1.344a3.714 3.714 0 00-4.052-.713 2.59 2.59 0 00.114-.724A2.625 2.625 0 103.625 6.25zm0-4a1.375 1.375 0 110 2.75 1.375 1.375 0 010-2.75zm10.43 3.7a2.36 2.36 0 01.512 2.601 2.385 2.385 0 01-.53.778l-1.367 1.516.929.837 1.343-1.493a3.6 3.6 0 00.739-4.045c.227.068.463.104.7.107a2.625 2.625 0 10-2.631-2.626c.003.237.04.473.107.7A3.611 3.611 0 0012.375 4h-.625v1.25h.625a2.363 2.363 0 011.68.696v.004zm2.32-3.7a1.375 1.375 0 110 2.75 1.375 1.375 0 010-2.75zm0 11.5c-.237.003-.473.04-.7.107.212-.465.323-.97.325-1.482v-.625h-1.25v.625a2.356 2.356 0 01-.7 1.679 2.416 2.416 0 01-3.381-.022l-1.513-1.367-.837.929 1.493 1.344a3.6 3.6 0 004.045.737 2.578 2.578 0 00-.107.7 2.625 2.625 0 102.625-2.625zm0 4a1.375 1.375 0 110-2.75 1.375 1.375 0 010 2.75zm-10.43-3.7a2.36 2.36 0 01-.512-2.601c.123-.292.303-.557.53-.778l1.372-1.515-.929-.837-1.344 1.493a3.6 3.6 0 00-.738 4.045 2.562 2.562 0 00-.7-.107 2.625 2.625 0 102.626 2.625 2.564 2.564 0 00-.107-.7c.465.212.97.323 1.482.325h.625v-1.25h-.625a2.364 2.364 0 01-1.68-.696v-.004zm-2.32 3.7a1.375 1.375 0 110-2.75 1.375 1.375 0 010 2.75z"/></mask><path stroke-width="2" d="M3.625 6.25c.237-.003.473-.04.7-.107-.212.465-.323.97-.325 1.482v.625h1.25v-.625a2.357 2.357 0 01.7-1.679 2.416 2.416 0 013.381.022l1.517 1.367.837-.929-1.497-1.344a3.714 3.714 0 00-4.052-.713 2.59 2.59 0 00.114-.724A2.625 2.625 0 103.625 6.25zm0-4a1.375 1.375 0 110 2.75 1.375 1.375 0 010-2.75zm10.43 3.7a2.36 2.36 0 01.512 2.601 2.385 2.385 0 01-.53.778l-1.367 1.516.929.837 1.343-1.493a3.6 3.6 0 00.739-4.045c.227.068.463.104.7.107a2.625 2.625 0 10-2.631-2.626c.003.237.04.473.107.7A3.611 3.611 0 0012.375 4h-.625v1.25h.625a2.363 2.363 0 011.68.696v.004zm2.32-3.7a1.375 1.375 0 110 2.75 1.375 1.375 0 010-2.75zm0 11.5c-.237.003-.473.04-.7.107.212-.465.323-.97.325-1.482v-.625h-1.25v.625a2.356 2.356 0 01-.7 1.679 2.416 2.416 0 01-3.381-.022l-1.513-1.367-.837.929 1.493 1.344a3.6 3.6 0 004.045.737 2.578 2.578 0 00-.107.7 2.625 2.625 0 102.625-2.625zm0 4a1.375 1.375 0 110-2.75 1.375 1.375 0 010 2.75zm-10.43-3.7a2.36 2.36 0 01-.512-2.601c.123-.292.303-.557.53-.778l1.372-1.515-.929-.837-1.344 1.493a3.6 3.6 0 00-.738 4.045 2.562 2.562 0 00-.7-.107 2.625 2.625 0 102.626 2.625 2.564 2.564 0 00-.107-.7c.465.212.97.323 1.482.325h.625v-1.25h-.625a2.364 2.364 0 01-1.68-.696v-.004zm-2.32 3.7a1.375 1.375 0 110-2.75 1.375 1.375 0 010 2.75z" mask="url(#a)"/></svg>