<svg xmlns="http://www.w3.org/2000/svg" width="20" height="20" viewBox="0 0 20 20" fill="currentColor"><path d="M10 4a4.5 4.5 0 100 9 4.5 4.5 0 000-9zM6.75 8.5a3.227 3.227 0 01.55-1.812l4.512 4.512A3.248 3.248 0 016.75 8.5zm5.95 1.812L8.188 5.8a3.248 3.248 0 014.512 4.512zM16.377 1H3.623A2.626 2.626 0 001 3.623v9.8A2.581 2.581 0 003.578 16h3.434v2.664a1.119 1.119 0 001.113 1.118c.288-.004.565-.115.776-.311L12.331 16h4.046A2.626 2.626 0 0019 13.377V3.623A2.626 2.626 0 0016.377 1zm1.373 12.377a1.375 1.375 0 01-1.373 1.373H11.81l-3.548 3.592V14.75H3.578a1.33 1.33 0 01-1.328-1.329v-9.8A1.375 1.375 0 013.623 2.25h12.754a1.375 1.375 0 011.373 1.373v9.754z"/></svg>