<svg xmlns="http://www.w3.org/2000/svg" width="20" height="20" viewBox="0 0 20 20" fill="currentColor"><path d="M19 10.625H7v-1.25h12v1.25zm-3-7.25H7v1.25h9v-1.25zm-4 12H7v1.25h5v-1.25zM3.576 9.781a.937.937 0 00.474-.749C4.05 8.264 3.306 8 2.4 8H.872v3.9H2.6c.738 0 1.62-.33 1.62-1.235a.961.961 0 00-.644-.884zm-.492.681a.583.583 0 00-.647-.568v-.109a.481.481 0 00.5-.451c0-.355-.243-.464-.573-.464h-.389v2.158h.509a.6.6 0 00.6-.566zm1.332 6.429l-.99-.354a.886.886 0 01-.809.5.989.989 0 01-.894-1.092.994.994 0 01.9-1.1.826.826 0 01.773.473l.942-.431a1.8 1.8 0 00-1.638-.959 2.019 2.019 0 100 4.036 1.83 1.83 0 001.716-1.073zM2.539 3.014h.023c.084.36.9 2.884.9 2.884H4.6L3.282 2H1.819L.5 5.9h1.127s.828-2.526.912-2.886z"/></svg>