<svg width="20" height="20" viewBox="0 0 20 20" fill="none" xmlns="http://www.w3.org/2000/svg">
<g clip-path="url(#clip0_474_44)">
<path d="M15.757 10.211C16.9104 10.1177 17.9867 9.59456 18.7725 8.74517C19.5584 7.89578 19.9965 6.78216 20 5.625C19.9995 5.19419 19.8281 4.78117 19.5235 4.47654C19.2188 4.1719 18.8058 4.00053 18.375 4H16V2.135C16.0024 1.83688 15.8865 1.54997 15.6776 1.3372C15.4688 1.12443 15.1841 1.00317 14.886 1H5.114C4.81589 1.00317 4.5312 1.12443 4.32236 1.3372C4.11353 1.54997 3.9976 1.83688 4 2.135V4H1.625C1.19419 4.00053 0.781168 4.1719 0.476536 4.47654C0.171904 4.78117 0.000529257 5.19419 0 5.625C0.00350647 6.78216 0.441599 7.89578 1.22746 8.74517C2.01332 9.59456 3.0896 10.1177 4.243 10.211C4.52308 11.4266 5.16223 12.5298 6.07743 13.3774C6.99262 14.225 8.14157 14.7778 9.375 14.964V17.75H6V19H14V17.75H10.625V14.964C11.8584 14.7778 13.0074 14.225 13.9226 13.3774C14.8378 12.5298 15.4769 11.4266 15.757 10.211ZM18.375 5.25C18.4745 5.25 18.5698 5.28951 18.6402 5.35984C18.7105 5.43016 18.75 5.52554 18.75 5.625C18.7484 6.41513 18.4696 7.17965 17.9621 7.78527C17.4546 8.39089 16.7507 8.79919 15.973 8.939C15.989 8.745 16 8.55 16 8.352V5.25H18.375ZM1.25 5.625C1.25 5.52554 1.28951 5.43016 1.35983 5.35984C1.43016 5.28951 1.52554 5.25 1.625 5.25H4V8.35C4 8.55 4.011 8.743 4.027 8.937C3.24967 8.79726 2.54599 8.38924 2.03855 7.78404C1.5311 7.17883 1.25205 6.41479 1.25 5.625ZM5.25 8.352V2.25H14.75V8.35C14.75 11.326 12.619 13.75 10 13.75C7.381 13.75 5.25 11.328 5.25 8.352Z" fill="#0F1A1C"/>
</g>
<defs>
<clipPath id="clip0_474_44">
<rect width="20" height="20" fill="white"/>
</clipPath>
</defs>
</svg>
