<svg width="20" height="20" viewBox="0 0 20 20" fill="none" xmlns="http://www.w3.org/2000/svg">
<path d="M8.5 11.136C8.4179 11.1361 8.33659 11.12 8.26073 11.0886C8.18488 11.0572 8.11598 11.0111 8.058 10.953L6.058 8.953L6.942 8.07L8.5 9.628L13.058 5.07L13.942 5.953L8.942 10.953C8.88402 11.0111 8.81512 11.0572 8.73927 11.0886C8.66341 11.12 8.5821 11.1361 8.5 11.136ZM16.875 1.9345e-07H4.625C3.92994 -0.00026651 3.26316 0.275249 2.77102 0.766076C2.27888 1.2569 2.00159 1.92294 2 2.618V17.326H2.018C2.018 17.387 2 17.444 2 17.506C2.00159 18.168 2.26568 18.8023 2.73435 19.2699C3.20302 19.7374 3.838 20 4.5 20H16.875C17.1728 20 17.4585 19.8819 17.6694 19.6716C17.8803 19.4612 17.9992 19.1758 18 18.878V1.122C17.9992 0.824152 17.8803 0.538774 17.6694 0.328444C17.4585 0.118114 17.1728 -8.65572e-07 16.875 1.9345e-07ZM16.75 18.753H4.5C4.16928 18.753 3.8521 18.6216 3.61824 18.3878C3.38438 18.1539 3.253 17.8367 3.253 17.506C3.253 17.1753 3.38438 16.8581 3.61824 16.6242C3.8521 16.3904 4.16928 16.259 4.5 16.259H16.75V18.753ZM4.5 15.012C4.05987 15.0143 3.62833 15.1341 3.25 15.359V2.618C3.25106 2.25402 3.39639 1.90531 3.65414 1.64831C3.91189 1.39132 4.26102 1.247 4.625 1.247H16.75V15.012H4.5Z" fill="#0F1A1C"/>
</svg>
