<svg width="20" height="20" viewBox="0 0 20 20" fill="none" xmlns="http://www.w3.org/2000/svg">
<path d="M1 8.5H19V17.374C18.9997 17.8052 18.8283 18.2186 18.5235 18.5235C18.2186 18.8283 17.8052 18.9997 17.374 19H2.626C2.19484 18.9997 1.78141 18.8283 1.47654 18.5235C1.17166 18.2186 1.00026 17.8052 1 17.374V8.5ZM17.374 2H16V0.25H14V2H6V0.251H4V2H2.626C2.19484 2.00026 1.78141 2.17166 1.47654 2.47654C1.17166 2.78141 1.00026 3.19484 1 3.626V7H19V3.626C18.9997 3.19484 18.8283 2.78141 18.5235 2.47654C18.2186 2.17166 17.8052 2.00026 17.374 2Z" fill="#0F1A1C"/>
</svg>
