<svg width="20" height="20" viewBox="0 0 20 20" fill="none" xmlns="http://www.w3.org/2000/svg">
<g clip-path="url(#clip0_423_1)">
<path d="M19.8002 6.776L10.6492 0.646001C10.4612 0.513679 10.2373 0.441996 10.0074 0.440566C9.77757 0.439136 9.55276 0.508028 9.36317 0.638001L0.200174 6.776C0.0881885 6.85066 0.00329633 6.95948 -0.0418747 7.08626C-0.0870457 7.21305 -0.090082 7.35103 -0.050532 7.47968C-0.0109819 7.60833 0.0690413 7.72078 0.177634 7.80029C0.286227 7.87981 0.417587 7.92214 0.552174 7.921H1.00017V17.954C1.00176 18.2328 1.11398 18.4996 1.31218 18.6958C1.51038 18.8919 1.77834 19.0013 2.05717 19H7.25717C7.44557 19.0003 7.62637 18.9257 7.75987 18.7928C7.89336 18.6599 7.96864 18.4794 7.96917 18.291V13.769C7.96917 13.007 9.11617 12.29 10.0052 12.29C10.8942 12.29 12.0412 13.007 12.0412 13.769V18.291C12.0417 18.4794 12.117 18.6599 12.2505 18.7928C12.384 18.9257 12.5648 19.0003 12.7532 19H17.9532C18.2303 18.9987 18.4957 18.8881 18.6917 18.6922C18.8877 18.4964 18.9986 18.2311 19.0002 17.954V7.921H19.4482C19.5828 7.92214 19.7141 7.87981 19.8227 7.80029C19.9313 7.72078 20.0113 7.60833 20.0509 7.47968C20.0904 7.35103 20.0874 7.21305 20.0422 7.08626C19.9971 6.95948 19.9122 6.85066 19.8002 6.776Z" fill="#0F1A1C"/>
</g>
<defs>
<clipPath id="clip0_423_1">
<rect width="20" height="20" fill="white"/>
</clipPath>
</defs>
</svg>
