<svg width="20" height="20" viewBox="0 0 20 20" fill="none" xmlns="http://www.w3.org/2000/svg">
<path d="M6.35352 7.73327L5.99997 7.37971L5.64642 7.73327L1.70697 11.6727L1.00004 10.9658L5.28785 6.67704C5.48042 6.49546 5.73515 6.39425 5.99997 6.39425C6.26478 6.39425 6.51951 6.49546 6.71207 6.67703L9.64635 9.61231L9.99991 9.96599L10.3535 9.61237L18.293 1.67293L18.9999 2.37982L10.7074 10.6723L10.7073 10.6724C10.6144 10.7653 10.5042 10.839 10.3828 10.8893C10.2614 10.9396 10.1313 10.9655 9.99997 10.9655C9.86859 10.9655 9.7385 10.9396 9.61714 10.8893C9.49577 10.839 9.3855 10.7653 9.29264 10.6724L9.29252 10.6723L6.35352 7.73327ZM2.49997 18.4998H1.49997V14.9998H2.49997V18.4998ZM5.49997 18.4998V12.4998H6.49997V18.4998H5.49997ZM13.5 18.4998V12.4998H14.5V18.4998H13.5ZM17.5 18.4998V7.49982H18.5V18.4998H17.5ZM9.49997 18.4998V14.9998H10.5V18.4998H9.49997Z" fill="#0F1A1C" stroke="#0F1A1C"/>
</svg>
