<svg width="20" height="20" viewBox="0 0 20 20" fill="none" xmlns="http://www.w3.org/2000/svg">
<g clip-path="url(#clip0_473_132)">
<path d="M5.75406 17.413L0.137059 10.391C0.0486312 10.2799 0.000488281 10.142 0.000488281 10C0.000488281 9.85797 0.0486312 9.72014 0.137059 9.609L5.75406 2.587L6.73006 3.369L1.42506 10L6.73006 16.631L5.75406 17.413ZM19.8631 10.391C19.9518 10.28 20.0002 10.1421 20.0002 10C20.0002 9.85788 19.9518 9.71999 19.8631 9.609L14.2461 2.587L13.2691 3.369L18.5751 10L13.2691 16.631L14.2461 17.413L19.8631 10.391ZM12.8631 12.563L11.9791 11.679C11.5269 12.1112 10.9255 12.3523 10.3001 12.3523C9.67459 12.3523 9.07321 12.1112 8.62106 11.679C8.4004 11.4586 8.22534 11.1969 8.1059 10.9088C7.98646 10.6207 7.92499 10.3119 7.92499 10C7.92499 9.68812 7.98646 9.37931 8.1059 9.09121C8.22534 8.80312 8.4004 8.54139 8.62106 8.321C9.07321 7.88883 9.67459 7.64766 10.3001 7.64766C10.9255 7.64766 11.5269 7.88883 11.9791 8.321L12.8631 7.437C12.1728 6.77743 11.2548 6.40937 10.3001 6.40937C9.34533 6.40937 8.42734 6.77743 7.73706 7.437C7.39254 7.7718 7.118 8.17175 6.92941 8.61359C6.74082 9.05542 6.64193 9.53034 6.6385 10.0107C6.63506 10.4911 6.72715 10.9674 6.9094 11.4119C7.09166 11.8564 7.36045 12.2602 7.70014 12.5999C8.03984 12.9396 8.44367 13.2084 8.88816 13.3907C9.33265 13.5729 9.80893 13.665 10.2893 13.6616C10.7697 13.6581 11.2446 13.5592 11.6865 13.3706C12.1283 13.1821 12.5283 12.9075 12.8631 12.563Z" fill="#0F1A1C"/>
</g>
<defs>
<clipPath id="clip0_473_132">
<rect width="20" height="20" fill="white"/>
</clipPath>
</defs>
</svg>
