<svg width="20" height="20" viewBox="0 0 20 20" fill="none" xmlns="http://www.w3.org/2000/svg">
<path d="M6 10.8C5.91031 10.7996 5.82161 10.8187 5.74 10.856L2.25 12.456V2.24995H9.75V4.66695C9.88925 4.64125 10.0304 4.6272 10.172 4.62495H11V2.12495C10.9932 1.82055 10.866 1.53125 10.6463 1.3204C10.4267 1.10955 10.1324 0.994321 9.828 0.999953H2.172C1.86757 0.994321 1.57331 1.10955 1.35365 1.3204C1.13399 1.53125 1.00683 1.82055 1 2.12495V13.425C1.00006 13.5296 1.02641 13.6326 1.07663 13.7245C1.12684 13.8163 1.19933 13.8941 1.28742 13.9506C1.37551 14.0071 1.47639 14.0406 1.5808 14.048C1.68521 14.0554 1.78981 14.0365 1.885 13.993L6 12.112L7.625 12.855V11.481L6.26 10.856C6.17839 10.8187 6.08969 10.7996 6 10.8Z" fill="#0F1A1C"/>
<path d="M17.828 5.99995H10.172C9.86757 5.99432 9.57331 6.10955 9.35365 6.3204C9.13399 6.53125 9.00683 6.82055 9 7.12495V18.425C9.00006 18.5296 9.02641 18.6326 9.07663 18.7245C9.12684 18.8163 9.19933 18.8941 9.28742 18.9506C9.37551 19.0071 9.47639 19.0406 9.5808 19.048C9.68521 19.0554 9.78981 19.0365 9.885 18.993L14 17.112L18.115 18.993C18.1966 19.0304 18.2852 19.0498 18.375 19.05C18.5406 19.0494 18.6993 18.9834 18.8164 18.8663C18.9335 18.7492 18.9995 18.5906 19 18.425V7.12495C18.9932 6.82055 18.866 6.53125 18.6463 6.3204C18.4267 6.10955 18.1324 5.99432 17.828 5.99995ZM17.75 17.452L14.26 15.852C14.1783 15.8151 14.0897 15.796 14 15.796C13.9103 15.796 13.8217 15.8151 13.74 15.852L10.25 17.452V7.24995H17.75V17.452Z" fill="#0F1A1C"/>
</svg>
