<svg width="20" height="20" viewBox="0 0 20 20" fill="none" xmlns="http://www.w3.org/2000/svg">
<g clip-path="url(#clip0_800_19)">
<path d="M19.2735 4H12.5375C12.3937 3.99975 12.2531 4.04219 12.1334 4.12194C12.0138 4.2017 11.9206 4.31518 11.8655 4.448C11.8105 4.58081 11.7961 4.72699 11.8242 4.86799C11.8523 5.00899 11.9217 5.13846 12.0235 5.24L13.4325 6.648L10.6325 9.448L8.75746 7.567C8.44969 7.26148 8.03361 7.09004 7.59996 7.09004C7.1663 7.09004 6.75022 7.26148 6.44246 7.567L0.435455 13.576C0.330235 13.681 0.246754 13.8057 0.189794 13.9429C0.132835 14.0802 0.103516 14.2274 0.103516 14.376C0.103516 14.5246 0.132835 14.6718 0.189794 14.8091C0.246754 14.9463 0.330235 15.071 0.435455 15.176L2.75446 17.5C2.96684 17.7118 3.25453 17.8307 3.55446 17.8307C3.85438 17.8307 4.14207 17.7118 4.35446 17.5L7.59946 14.248L9.47646 16.126C9.78856 16.4228 10.2028 16.5883 10.6335 16.5883C11.0641 16.5883 11.4784 16.4228 11.7905 16.126L17.3505 10.567L18.7605 11.978C18.8622 12.0796 18.9917 12.1487 19.1328 12.1765C19.2738 12.2044 19.4199 12.1897 19.5526 12.1345C19.6853 12.0792 19.7986 11.9858 19.8781 11.8661C19.9577 11.7464 19.9999 11.6057 19.9995 11.462V4.727C19.9995 4.53436 19.923 4.3496 19.7869 4.21329C19.6508 4.07698 19.4661 4.00026 19.2735 4Z" fill="#0F1A1C"/>
</g>
<defs>
<clipPath id="clip0_800_19">
<rect width="20" height="20" fill="white"/>
</clipPath>
</defs>
</svg>
