<svg width="20" height="20" viewBox="0 0 20 20" fill="none" xmlns="http://www.w3.org/2000/svg">
<g clip-path="url(#clip0_3018_184)">
<path d="M19.9781 7.86301C20.1042 6.47959 19.6879 5.10127 18.8169 4.01907C17.9459 2.93686 16.6885 2.23548 15.3101 2.06301C14.3218 1.91008 13.3108 2.02014 12.3786 2.38212C11.4464 2.74411 10.6261 3.34523 10.0001 4.12501C9.47106 3.46321 8.79966 2.92919 8.0358 2.56267C7.27195 2.19615 6.43529 2.00656 5.58805 2.00801L17.1521 13.571C18.6693 12.0118 19.658 10.015 19.9781 7.86301Z" fill="#0F1A1C"/>
<path d="M0.558052 1.44101L2.21305 3.10001C1.46222 3.6321 0.864474 4.35224 0.479747 5.18821C0.0950194 6.02418 -0.0631659 6.94661 0.0210522 7.86301C0.513052 13.397 7.94205 17.982 9.42105 18.845C9.59544 18.9462 9.79346 18.9994 9.99505 18.9994C10.1966 18.9994 10.3947 18.9462 10.5691 18.845C12.0923 17.9454 13.5362 16.9177 14.8851 15.773L18.5521 19.44L19.4371 18.557L1.43705 0.557007L0.558052 1.44101Z" fill="#0F1A1C"/>
</g>
<defs>
<clipPath id="clip0_3018_184">
<rect width="20" height="20" fill="white"/>
</clipPath>
</defs>
</svg>
