<svg width="20" height="20" viewBox="0 0 20 20" fill="none" xmlns="http://www.w3.org/2000/svg">
<path d="M1.348 5.155H2.068V2.845C1.84792 2.94617 1.61005 3.00292 1.368 3.012V2.251C1.63334 2.26429 1.89353 2.17434 2.094 2H3.148V5.155H3.776V6H1.348V5.155ZM1.085 11.786C1.085 11.217 1.192 10.641 2.238 10.008C2.838 9.638 3.011 9.555 3.011 9.225C3.011 9.003 2.871 8.879 2.624 8.879C2.44696 8.90052 2.27815 8.96607 2.13298 9.06967C1.98781 9.17326 1.87092 9.31158 1.793 9.472L1.077 8.954C1.22543 8.66537 1.45086 8.42346 1.72832 8.25508C2.00579 8.0867 2.32445 7.99841 2.649 8C3.578 8 4.023 8.469 4.023 9.2C4.023 9.645 3.842 10.082 3.035 10.516C2.535 10.798 2.369 10.994 2.312 11.152H4.048V12H1.085V11.786ZM1 17.206L1.632 16.655C1.72195 16.8013 1.84635 16.9234 1.99434 17.0105C2.14234 17.0977 2.30942 17.1473 2.481 17.155C2.91 17.155 3.055 16.979 3.055 16.736C3.055 16.404 2.829 16.275 2.295 16.275H1.987V15.552H2.31C2.829 15.552 2.983 15.407 2.983 15.172C2.983 14.972 2.838 14.856 2.57 14.856C2.40442 14.859 2.2411 14.895 2.08964 14.962C1.93817 15.029 1.80162 15.1255 1.688 15.246L1.137 14.605C1.54302 14.2129 2.0866 13.9957 2.651 14C3.534 14 4 14.4 4 15.052C4.0084 15.2327 3.95647 15.411 3.85236 15.5589C3.74826 15.7068 3.59791 15.8159 3.425 15.869C3.62867 15.9102 3.811 16.0226 3.93928 16.1861C4.06756 16.3496 4.1334 16.5534 4.125 16.761C4.125 17.57 3.509 18 2.57 18C2.2627 18.01 1.95782 17.9426 1.68345 17.8038C1.40908 17.665 1.17404 17.4595 1 17.206ZM19 9H7V11H19V9ZM19 15H7V17H19V15ZM19 3H7V5H19V3Z" fill="#0F1A1C"/>
</svg>
