<svg width="20" height="20" viewBox="0 0 20 20" fill="none" xmlns="http://www.w3.org/2000/svg">
<path d="M9.99962 18.625C9.91752 18.6251 9.83621 18.609 9.76035 18.5776C9.6845 18.5462 9.6156 18.5001 9.55762 18.442L1.55762 10.442L2.44162 9.558L9.99962 17.116L17.5576 9.558L18.4416 10.442L10.4416 18.442C10.3836 18.5001 10.3147 18.5462 10.2389 18.5776C10.163 18.609 10.0817 18.6251 9.99962 18.625ZM10.4416 11.442L18.4416 3.442L17.5576 2.558L9.99962 10.116L2.44162 2.558L1.55762 3.442L9.55762 11.442C9.61566 11.5001 9.68456 11.5461 9.7604 11.5775C9.83624 11.6089 9.91753 11.6251 9.99962 11.6251C10.0817 11.6251 10.163 11.6089 10.2388 11.5775C10.3147 11.5461 10.3836 11.5001 10.4416 11.442Z" fill="#0F1A1C"/>
</svg>
