<svg width="20" height="20" viewBox="0 0 20 20" fill="none" xmlns="http://www.w3.org/2000/svg">
<path d="M15.9999 13C15.5462 13.0015 15.0988 13.1065 14.6917 13.307C14.2846 13.5075 13.9287 13.7982 13.6509 14.157L6.86494 10.843C7.03421 10.3276 7.04432 9.7732 6.89394 9.252L13.6679 5.865C14.1121 6.41162 14.7352 6.78353 15.4271 6.91494C16.119 7.04635 16.8351 6.92879 17.4487 6.58306C18.0623 6.23732 18.5338 5.6857 18.7799 5.02578C19.0259 4.36586 19.0306 3.64019 18.7931 2.97714C18.5556 2.3141 18.0913 1.75643 17.4822 1.40279C16.8731 1.04915 16.1586 0.922341 15.4651 1.0448C14.7715 1.16725 14.1436 1.53108 13.6925 2.07191C13.2413 2.61275 12.996 3.29572 12.9999 4C13.0033 4.25282 13.039 4.50418 13.1059 4.748L6.33094 8.135C5.94648 7.65065 5.42174 7.29694 4.82853 7.12228C4.23532 6.94762 3.60263 6.96055 3.01705 7.15929C2.43147 7.35803 1.92161 7.73287 1.55725 8.23251C1.1929 8.73216 0.991844 9.33219 0.981612 9.9505C0.97138 10.5688 1.15247 11.1752 1.50009 11.6866C1.84772 12.198 2.3449 12.5895 2.92358 12.8075C3.50227 13.0255 4.13418 13.0594 4.73284 12.9044C5.33151 12.7495 5.86766 12.4134 6.26794 11.942L13.0979 15.278C13.0357 15.5137 13.0028 15.7562 12.9999 16C12.9999 16.5933 13.1759 17.1734 13.5055 17.6667C13.8352 18.1601 14.3037 18.5446 14.8519 18.7716C15.4001 18.9987 16.0033 19.0581 16.5852 18.9424C17.1672 18.8266 17.7017 18.5409 18.1213 18.1213C18.5408 17.7018 18.8265 17.1672 18.9423 16.5853C19.0581 16.0033 18.9986 15.4001 18.7716 14.8519C18.5445 14.3038 18.16 13.8352 17.6666 13.5056C17.1733 13.1759 16.5933 13 15.9999 13ZM15.9999 2.25C16.3461 2.25 16.6844 2.35263 16.9722 2.54493C17.26 2.73722 17.4843 3.01053 17.6167 3.3303C17.7492 3.65007 17.7838 4.00194 17.7163 4.34141C17.6488 4.68087 17.4821 4.99269 17.2374 5.23744C16.9926 5.48218 16.6808 5.64885 16.3413 5.71637C16.0019 5.7839 15.65 5.74924 15.3302 5.61679C15.0105 5.48433 14.7372 5.26003 14.5449 4.97225C14.3526 4.68446 14.2499 4.34612 14.2499 4C14.2505 3.53603 14.435 3.09122 14.7631 2.76315C15.0912 2.43507 15.536 2.25053 15.9999 2.25ZM3.99994 11.75C3.65382 11.75 3.31548 11.6474 3.02769 11.4551C2.7399 11.2628 2.5156 10.9895 2.38315 10.6697C2.2507 10.3499 2.21604 9.99806 2.28356 9.65859C2.35109 9.31912 2.51776 9.0073 2.7625 8.76256C3.00724 8.51782 3.31906 8.35115 3.65853 8.28362C3.998 8.2161 4.34986 8.25076 4.66963 8.38321C4.98941 8.51566 5.26272 8.73996 5.45501 9.02775C5.6473 9.31554 5.74994 9.65388 5.74994 10C5.74941 10.464 5.56486 10.9088 5.23679 11.2369C4.90872 11.5649 4.4639 11.7495 3.99994 11.75ZM15.9999 17.75C15.6538 17.75 15.3155 17.6474 15.0277 17.4551C14.7399 17.2628 14.5156 16.9895 14.3832 16.6697C14.2507 16.3499 14.216 15.9981 14.2836 15.6586C14.3511 15.3191 14.5178 15.0073 14.7625 14.7626C15.0072 14.5178 15.3191 14.3511 15.6585 14.2836C15.998 14.2161 16.3499 14.2508 16.6696 14.3832C16.9894 14.5157 17.2627 14.74 17.455 15.0278C17.6473 15.3155 17.7499 15.6539 17.7499 16C17.7494 16.464 17.5649 16.9088 17.2368 17.2369C16.9087 17.5649 16.4639 17.7495 15.9999 17.75Z" fill="#0F1A1C"/>
</svg>
