<svg width="20" height="20" viewBox="0 0 20 20" fill="none" xmlns="http://www.w3.org/2000/svg">
<g clip-path="url(#clip0_800_18)">
<path d="M3.55446 17.826C3.40593 17.8265 3.25879 17.7976 3.12149 17.7409C2.98419 17.6843 2.85945 17.601 2.75446 17.496L0.435455 15.175C0.330235 15.07 0.246754 14.9453 0.189794 14.8081C0.132835 14.6708 0.103516 14.5236 0.103516 14.375C0.103516 14.2264 0.132835 14.0792 0.189794 13.9419C0.246754 13.8047 0.330235 13.68 0.435455 13.575L6.44346 7.567C6.75122 7.26148 7.1673 7.09004 7.60096 7.09004C8.03461 7.09004 8.45069 7.26148 8.75846 7.567L10.6355 9.446L13.4355 6.646L12.0245 5.24C11.9227 5.13846 11.8533 5.00899 11.8252 4.86799C11.7971 4.72699 11.8115 4.58081 11.8665 4.448C11.9216 4.31518 12.0148 4.2017 12.1344 4.12194C12.2541 4.04219 12.3947 3.99975 12.5385 4H19.2745C19.4671 4.00026 19.6518 4.07698 19.7879 4.21329C19.924 4.3496 20.0005 4.53436 20.0005 4.727V11.462C20.0007 11.6055 19.9584 11.7459 19.8789 11.8654C19.7994 11.9849 19.6863 12.0782 19.5538 12.1334C19.4213 12.1886 19.2754 12.2033 19.1345 12.1757C18.9937 12.148 18.8642 12.0792 18.7625 11.978L17.3525 10.567L11.7925 16.127C11.4853 16.4329 11.0694 16.6046 10.636 16.6046C10.2025 16.6046 9.78663 16.4329 9.47946 16.127L7.60046 14.248L4.35446 17.5C4.14143 17.7102 3.85375 17.8275 3.55446 17.826ZM1.40046 14.376L3.55146 16.527L7.60046 12.48L10.3615 15.243C10.4343 15.315 10.5326 15.3554 10.635 15.3554C10.7374 15.3554 10.8356 15.315 10.9085 15.243L17.3525 8.8L18.7525 10.2V5.25H13.8005L15.2005 6.65L10.6345 11.216L7.87446 8.451C7.80138 8.37948 7.7032 8.33943 7.60096 8.33943C7.49871 8.33943 7.40053 8.37948 7.32746 8.451L1.40046 14.376Z" fill="#0F1A1C"/>
</g>
<defs>
<clipPath id="clip0_800_18">
<rect width="20" height="20" fill="white"/>
</clipPath>
</defs>
</svg>
