<svg width="20" height="20" viewBox="0 0 20 20" fill="none" xmlns="http://www.w3.org/2000/svg">
<path d="M14.0519 12.5C13.9994 13.4072 13.617 14.264 12.9769 14.909C12.5059 15.38 12.0629 15.831 11.6199 16.282C11.1769 16.733 10.7389 17.182 10.2719 17.648C9.56587 18.3516 8.60972 18.7467 7.61294 18.7467C6.61615 18.7467 5.66 18.3516 4.95394 17.648C4.25016 16.9422 3.85494 15.9862 3.85494 14.9895C3.85494 13.9928 4.25016 13.0368 4.95394 12.331C5.42594 11.859 5.86894 11.408 6.31194 10.957C6.75494 10.506 7.19194 10.057 7.65993 9.592C8.20849 9.0702 8.89845 8.72134 9.64386 8.58886C10.3893 8.45639 11.1572 8.54616 11.8519 8.847C12.1179 8.578 12.3889 8.306 12.6519 8.041L12.7809 7.91C11.8332 7.36087 10.7301 7.14151 9.64444 7.28627C8.55873 7.43103 7.55167 7.93174 6.78094 8.71C6.30894 9.181 5.86594 9.632 5.42394 10.083C4.98194 10.534 4.54294 10.983 4.07394 11.448C3.13634 12.3888 2.60986 13.6628 2.60986 14.991C2.60986 16.3192 3.13634 17.5932 4.07394 18.534C5.01443 19.4721 6.28858 19.9989 7.61694 19.9989C8.9453 19.9989 10.2194 19.4721 11.1599 18.534C11.6309 18.063 12.0729 17.611 12.5169 17.16C12.9609 16.709 13.3979 16.26 13.8649 15.794C14.4425 15.2157 14.8696 14.5047 15.1091 13.7233C15.3486 12.9418 15.3932 12.1136 15.2389 11.311L14.0519 12.5Z" fill="#0F1A1C"/>
<path d="M15.9299 1.467C14.9903 0.52775 13.716 0.00012207 12.3874 0.00012207C11.0588 0.00012207 9.78461 0.52775 8.84494 1.467C8.37394 1.938 7.93194 2.39 7.48794 2.841C7.04393 3.292 6.60694 3.741 6.14094 4.207C5.67367 4.67066 5.30319 5.22254 5.05101 5.83059C4.79883 6.43864 4.66997 7.09073 4.67194 7.749C4.67323 8.06518 4.70403 8.38054 4.76394 8.691L5.94594 7.5C5.99854 6.59209 6.38163 5.73483 7.02293 5.09C7.49394 4.619 7.93694 4.168 8.37994 3.717C8.82294 3.266 9.26093 2.817 9.72793 2.351C10.4331 1.646 11.3893 1.24994 12.3864 1.24994C13.3835 1.24994 14.3398 1.646 15.0449 2.351C15.7495 3.05655 16.1453 4.01289 16.1453 5.01C16.1453 6.00711 15.7495 6.96345 15.0449 7.669C14.5739 8.14 14.1319 8.591 13.6879 9.042C13.2439 9.493 12.8079 9.942 12.3399 10.408C11.7915 10.93 11.1015 11.2789 10.356 11.4112C9.61047 11.5435 8.84252 11.4534 8.14793 11.152C7.87893 11.425 7.60494 11.7 7.34194 11.969L7.22094 12.09C8.16871 12.639 9.27173 12.8582 10.3574 12.7135C11.4431 12.5687 12.4501 12.0681 13.2209 11.29C13.6909 10.819 14.1339 10.368 14.5769 9.916C15.0199 9.464 15.4579 9.016 15.9249 8.551C16.864 7.61102 17.3915 6.33668 17.3915 5.008C17.3915 3.67931 16.864 2.40498 15.9249 1.465L15.9299 1.467Z" fill="#0F1A1C"/>
</svg>
