<svg width="20" height="20" viewBox="0 0 20 20" fill="none" xmlns="http://www.w3.org/2000/svg">
<g clip-path="url(#clip0_472_1133)">
<path d="M14.375 3C14.3396 2.17198 13.9779 1.39162 13.3689 0.829477C12.76 0.267333 11.9532 -0.0308844 11.125 -1.71131e-06H8.875C8.0468 -0.0308844 7.24005 0.267333 6.63106 0.829477C6.02207 1.39162 5.66037 2.17198 5.625 3H2V5H18V3H14.375ZM8.875 2H11.125C11.4225 1.97112 11.7196 2.05945 11.953 2.24619C12.1865 2.43294 12.3379 2.70337 12.375 3H7.625C7.66214 2.70337 7.81352 2.43294 8.04696 2.24619C8.28039 2.05945 8.57746 1.97112 8.875 2ZM3.025 6.5H16.975L16.238 17.583C16.2296 18.2368 15.9731 18.8631 15.5205 19.335C15.0679 19.8069 14.4529 20.0893 13.8 20.125H6.2C5.5482 20.0894 4.93418 19.8078 4.48187 19.3371C4.02957 18.8664 3.77266 18.2417 3.763 17.589L3.025 6.5Z" fill="#0F1A1C"/>
</g>
<defs>
<clipPath id="clip0_472_1133">
<rect width="20" height="20" fill="white"/>
</clipPath>
</defs>
</svg>
