<svg width="20" height="20" viewBox="0 0 20 20" fill="none" xmlns="http://www.w3.org/2000/svg">
<g clip-path="url(#clip0_472_1110)">
<path d="M12.8771 19H7.12308C6.8254 18.9995 6.54007 18.881 6.32958 18.6705C6.11909 18.46 6.00061 18.1747 6.00008 17.877V11H2.12608C1.90815 10.9946 1.69658 10.9255 1.51758 10.801C1.33858 10.6766 1.20003 10.5024 1.11908 10.3C1.01547 10.0834 0.976502 9.84151 1.00683 9.60332C1.03716 9.36513 1.1355 9.14074 1.29008 8.957L9.16608 0.368C9.27184 0.252009 9.40064 0.159367 9.54425 0.0959996C9.68786 0.0326326 9.84311 -6.43163e-05 10.0001 9.498e-08C10.1574 0.000132093 10.3129 0.0333151 10.4566 0.0973988C10.6003 0.161482 10.7289 0.255037 10.8341 0.372L18.7061 8.953C18.8622 9.13681 18.9619 9.36185 18.9932 9.60101C19.0244 9.84017 18.9858 10.0833 18.8821 10.301C18.8013 10.5031 18.663 10.6771 18.4844 10.8015C18.3058 10.9259 18.0947 10.9953 17.8771 11.001H14.0001V17.878C13.9993 18.1755 13.8807 18.4606 13.6702 18.6709C13.4598 18.8811 13.1746 18.9995 12.8771 19ZM7.25008 17.75H12.7501V9.75H17.6841L10.0001 1.31L2.25808 9.75H7.25008V17.75ZM2.22708 9.784L2.21508 9.8C2.22508 9.794 2.22908 9.79 2.22708 9.784Z" fill="#0F1A1C"/>
</g>
<defs>
<clipPath id="clip0_472_1110">
<rect width="20" height="20" fill="white"/>
</clipPath>
</defs>
</svg>
