<svg width="20" height="20" viewBox="0 0 20 20" fill="none" xmlns="http://www.w3.org/2000/svg">
<path d="M13.7696 17.6842C13.7569 17.7146 13.7326 17.7388 13.7022 17.7515L10.3026 19.1603L10.3026 19.1603L10.2985 19.1621C10.2833 19.1685 10.2671 19.172 10.2506 19.1722C10.2267 19.172 10.2033 19.1649 10.1833 19.1517C10.163 19.1382 10.1471 19.1191 10.1376 19.0966C10.1375 19.0966 10.1375 19.0966 10.1375 19.0965L8.53156 15.2966L8.24277 14.6133L7.71775 15.1374L4.83875 18.0114L4.8384 18.0117C4.82092 18.0292 4.79864 18.0411 4.77439 18.046C4.75014 18.0508 4.72501 18.0483 4.70216 18.0388C4.67932 18.0294 4.65979 18.0134 4.64606 17.9928C4.63232 17.9722 4.625 17.9481 4.625 17.9233V17.9232V0.953242V0.953149C4.625 0.928422 4.63232 0.90425 4.64606 0.88369C4.65979 0.86313 4.67932 0.847105 4.70216 0.837642C4.725 0.828179 4.75014 0.825703 4.77439 0.830528C4.79864 0.835353 4.82092 0.847262 4.8384 0.864749L4.83845 0.864795L16.8384 12.8648L16.8385 12.8648C16.856 12.8823 16.8679 12.9046 16.8727 12.9288C16.8775 12.9531 16.8751 12.9782 16.8656 13.0011C16.8561 13.0239 16.8401 13.0434 16.8196 13.0572C16.799 13.0709 16.7748 13.0782 16.7501 13.0782H16.75H12.679H11.936L12.2158 13.7666L13.7698 17.5886L13.77 17.5889C13.7824 17.6195 13.7823 17.6537 13.7696 17.6842ZM8.39955 14.3378L8.40039 14.3398L10.1264 18.4268L10.3196 18.8843L10.7784 18.6942L13.0324 17.7602L13.4911 17.5701L13.3042 17.11L11.6342 13L11.6339 12.9991C11.6262 12.9803 11.6232 12.9598 11.6253 12.9396C11.6274 12.9193 11.6344 12.8999 11.6458 12.883C11.6572 12.8661 11.6725 12.8523 11.6905 12.8427C11.7085 12.8332 11.7286 12.8282 11.7489 12.8282H11.75H15.241H16.448L15.5946 11.9747L5.72857 2.10771L4.875 1.25405V2.46124V16.4152V17.6224L5.72855 16.7688L8.19727 14.3001C8.22057 14.2768 8.25204 14.2636 8.28493 14.2632C8.29455 14.2634 8.30414 14.2642 8.31363 14.2657C8.3321 14.2698 8.34936 14.2782 8.36405 14.2902C8.37963 14.3029 8.39182 14.3192 8.39955 14.3378Z" fill="#0F1A1C" stroke="#0F1A1C"/>
</svg>
