<svg width="20" height="20" viewBox="0 0 20 20" fill="none" xmlns="http://www.w3.org/2000/svg">
<g clip-path="url(#clip0_1771_6)">
<path d="M10 4C8.81334 4 7.65331 4.35189 6.66661 5.01118C5.67992 5.67047 4.91088 6.60754 4.45675 7.7039C4.00263 8.80026 3.88381 10.0067 4.11532 11.1705C4.34683 12.3344 4.91828 13.4035 5.75739 14.2426C6.59651 15.0818 7.6656 15.6532 8.82949 15.8847C9.99338 16.1162 11.1998 15.9974 12.2961 15.5433C13.3925 15.0892 14.3296 14.3201 14.9888 13.3334C15.6481 12.3467 16 11.1867 16 10C15.9984 8.40919 15.3658 6.88399 14.2409 5.75911C13.116 4.63424 11.5908 4.00159 10 4ZM10 14.75C9.06057 14.75 8.14221 14.4714 7.36107 13.9495C6.57994 13.4275 5.97112 12.6857 5.6116 11.8177C5.25209 10.9498 5.15802 9.99473 5.3413 9.07332C5.52458 8.15191 5.97697 7.30554 6.64127 6.64124C7.30557 5.97694 8.15194 5.52455 9.07335 5.34127C9.99476 5.15799 10.9498 5.25206 11.8178 5.61157C12.6857 5.97109 13.4276 6.57991 13.9495 7.36104C14.4714 8.14217 14.75 9.06054 14.75 10C14.7484 11.2593 14.2475 12.4665 13.357 13.357C12.4666 14.2475 11.2593 14.7484 10 14.75Z" fill="#0F1A1C"/>
<path d="M10 7C9.40669 7 8.82667 7.17595 8.33332 7.50559C7.83997 7.83524 7.45546 8.30377 7.22839 8.85195C7.00133 9.40013 6.94192 10.0033 7.05768 10.5853C7.17343 11.1672 7.45915 11.7018 7.87871 12.1213C8.29827 12.5409 8.83282 12.8266 9.41476 12.9424C9.9967 13.0581 10.5999 12.9987 11.1481 12.7716C11.6963 12.5446 12.1648 12.1601 12.4944 11.6667C12.8241 11.1734 13 10.5933 13 10C13 9.20435 12.684 8.44129 12.1214 7.87868C11.5587 7.31607 10.7957 7 10 7ZM10 11.75C9.65391 11.75 9.31557 11.6474 9.02778 11.4551C8.74 11.2628 8.5157 10.9895 8.38324 10.6697C8.25079 10.3499 8.21613 9.99806 8.28366 9.65859C8.35118 9.31913 8.51785 9.0073 8.76259 8.76256C9.00734 8.51782 9.31916 8.35115 9.65862 8.28363C9.99809 8.2161 10.35 8.25076 10.6697 8.38321C10.9895 8.51566 11.2628 8.73997 11.4551 9.02775C11.6474 9.31554 11.75 9.65388 11.75 10C11.7495 10.464 11.565 10.9088 11.2369 11.2369C10.9088 11.5649 10.464 11.7495 10 11.75Z" fill="#0F1A1C"/>
<path d="M18.838 3.631C18.6259 3.0673 18.2958 2.55542 17.8698 2.12962C17.4438 1.70382 16.9318 1.37392 16.368 1.162C12.2627 -0.380019 7.73734 -0.380019 3.63203 1.162C3.06815 1.37375 2.55605 1.70359 2.13005 2.12941C1.70406 2.55524 1.37401 3.0672 1.16203 3.631C-0.387344 7.73566 -0.387344 12.2643 1.16203 16.369C1.37401 16.9328 1.70406 17.4448 2.13005 17.8706C2.55605 18.2964 3.06815 18.6263 3.63203 18.838C7.73601 20.3873 12.2641 20.3873 16.368 18.838C16.9318 18.6261 17.4438 18.2962 17.8698 17.8704C18.2958 17.4446 18.6259 16.9327 18.838 16.369C20.3874 12.2643 20.3874 7.73566 18.838 3.631ZM17.668 15.931C17.5184 16.3278 17.2859 16.6881 16.986 16.988C16.6862 17.2878 16.3258 17.5203 15.929 17.67C12.1068 19.106 7.89327 19.106 4.07103 17.67C3.67424 17.5203 3.31391 17.2878 3.01405 16.988C2.71419 16.6881 2.48168 16.3278 2.33203 15.931C0.889322 12.11 0.889322 7.89402 2.33203 4.073C2.48144 3.67584 2.71384 3.31512 3.01371 3.0149C3.31359 2.71468 3.67405 2.48187 4.07103 2.332C7.89205 0.88929 12.108 0.88929 15.929 2.332C16.3258 2.48165 16.6862 2.71415 16.986 3.01402C17.2859 3.31388 17.5184 3.67421 17.668 4.071C19.1107 7.89202 19.1107 12.108 17.668 15.929V15.931Z" fill="#0F1A1C"/>
</g>
<defs>
<clipPath id="clip0_1771_6">
<rect width="20" height="20" fill="white"/>
</clipPath>
</defs>
</svg>
