<svg width="20" height="20" viewBox="0 0 20 20" fill="none" xmlns="http://www.w3.org/2000/svg">
<g clip-path="url(#clip0_474_84)">
<path d="M10 20C8.02219 20 6.08879 19.4135 4.4443 18.3147C2.79981 17.2159 1.51809 15.6541 0.761209 13.8268C0.00433284 11.9996 -0.193701 9.98891 0.192152 8.0491C0.578004 6.10929 1.53041 4.32746 2.92894 2.92894C4.32746 1.53041 6.10929 0.578004 8.0491 0.192152C9.98891 -0.193701 11.9996 0.00433284 13.8268 0.761209C15.6541 1.51809 17.2159 2.79981 18.3147 4.4443C19.4135 6.08879 20 8.02219 20 10C19.9971 12.6513 18.9426 15.1931 17.0679 17.0679C15.1931 18.9426 12.6513 19.9971 10 20ZM10 1.25C8.26942 1.25 6.57769 1.76318 5.13876 2.72465C3.69983 3.68611 2.57833 5.05267 1.91606 6.65152C1.25379 8.25038 1.08051 10.0097 1.41813 11.707C1.75575 13.4044 2.58911 14.9635 3.81282 16.1872C5.03653 17.4109 6.59563 18.2443 8.29296 18.5819C9.9903 18.9195 11.7496 18.7462 13.3485 18.084C14.9473 17.4217 16.3139 16.3002 17.2754 14.8612C18.2368 13.4223 18.75 11.7306 18.75 10C18.7474 7.68017 17.8246 5.45611 16.1843 3.81574C14.5439 2.17537 12.3198 1.25265 10 1.25ZM9.457 6.955C9.29442 6.86095 9.15982 6.7253 9.06701 6.562C8.97325 6.39566 8.924 6.20795 8.924 6.017C8.924 5.82606 8.97325 5.63835 9.06701 5.472C9.16007 5.31071 9.29476 5.1774 9.457 5.086C9.62231 4.9924 9.80904 4.94321 9.999 4.94321C10.189 4.94321 10.3757 4.9924 10.541 5.086C10.7062 5.17871 10.8441 5.3132 10.941 5.476C11.0388 5.63905 11.0896 5.82591 11.088 6.016C11.0894 6.20701 11.0385 6.39476 10.941 6.559C10.8465 6.72202 10.711 6.8575 10.548 6.952C10.3824 7.05071 10.1928 7.10192 10 7.1C9.80927 7.10131 9.6217 7.05122 9.457 6.955ZM10.811 15.418H9.2V8.124H10.814L10.811 15.418Z" fill="#0F1A1C"/>
</g>
<defs>
<clipPath id="clip0_474_84">
<rect width="20" height="20" fill="white"/>
</clipPath>
</defs>
</svg>
