<svg width="20" height="20" viewBox="0 0 20 20" fill="none" xmlns="http://www.w3.org/2000/svg">
<g clip-path="url(#clip0_1581_843)">
<path d="M11.6876 19.25H8.31156V18H11.6876V19.25ZM12.7496 16H7.24956V17.25H12.7496V16ZM12.6496 14.54C12.8436 13.8116 13.2925 13.1769 13.9146 12.751C14.8195 12.1453 15.5696 11.3356 16.1043 10.3869C16.6391 9.43833 16.9435 8.37739 16.9933 7.28957C17.043 6.20175 16.8365 5.11746 16.3905 4.12402C15.9445 3.13059 15.2715 2.25578 14.4256 1.57004C13.6059 0.907166 12.6482 0.436127 11.6228 0.191456C10.5974 -0.0532143 9.53024 -0.0653143 8.49956 0.156043C7.19658 0.434579 6.00098 1.08137 5.05485 2.01955C4.10872 2.95772 3.45186 4.14783 3.16234 5.44841C2.87282 6.74899 2.96282 8.10535 3.42163 9.35628C3.88044 10.6072 4.68878 11.7001 5.75056 12.505C6.3788 13.0025 6.8052 13.711 6.95056 14.499L7.05056 14.999H12.5196L12.6496 14.54ZM6.50856 11.511C5.63781 10.8514 4.97461 9.95568 4.59768 8.93034C4.22076 7.905 4.14592 6.79304 4.38207 5.72644C4.61821 4.65984 5.15542 3.68339 5.92993 2.91297C6.70443 2.14256 7.68372 1.61053 8.75156 1.38004C9.60076 1.19645 10.4803 1.20534 11.3256 1.40607C12.1709 1.6068 12.9606 1.99427 13.6366 2.54004C14.3316 3.10213 14.8848 3.81981 15.2513 4.63514C15.6178 5.45046 15.7874 6.34055 15.7465 7.23353C15.7055 8.1265 15.4551 8.99732 15.0154 9.77565C14.5758 10.554 13.9592 11.218 13.2156 11.714C12.4823 12.2125 11.9185 12.9228 11.5996 13.75H8.04956C7.77955 12.8624 7.24121 12.0802 6.50856 11.511Z" fill="#0F1A1C"/>
</g>
<defs>
<clipPath id="clip0_1581_843">
<rect width="20" height="20" fill="white"/>
</clipPath>
</defs>
</svg>
