<svg width="20" height="20" viewBox="0 0 20 20" fill="none" xmlns="http://www.w3.org/2000/svg">
<g clip-path="url(#clip0_1581_865)">
<path d="M11.056 14.9999V17.9439H11.556M11.056 14.9999L12.1968 15.6333C12.2326 15.6412 12.2684 15.6486 12.3044 15.6557L12.3057 17.9439H11.8057M11.056 14.9999C11.0556 14.8323 11.0935 14.6667 11.1668 14.5159C11.2401 14.3652 11.3469 14.2331 11.479 14.1299L11.056 14.9999ZM11.556 17.9439V18.4439H11.806L11.8057 17.9439M11.556 17.9439H11.8057M11.556 17.9439L11.556 14.9999L11.556 14.9986C11.5558 14.9071 11.5764 14.8168 11.6164 14.7346C11.6564 14.6523 11.7147 14.5803 11.7868 14.524L11.7868 14.524L11.7893 14.522C11.8687 14.4592 11.9614 14.4153 12.0603 14.3938C12.1592 14.3722 12.2618 14.3735 12.3601 14.3976C13.1697 14.5962 14.0227 14.512 14.7776 14.1591C15.4112 13.9069 15.9691 13.4953 16.3971 12.964C16.8286 12.4284 17.1131 11.7896 17.2227 11.1106L17.2243 11.1006L17.2255 11.0906C17.2975 10.4908 17.2236 9.88248 17.0101 9.3174C16.7971 8.75397 16.4517 8.25012 16.0029 7.84844C15.9847 7.8311 15.9722 7.80867 15.9669 7.78406C15.9615 7.75873 15.9641 7.73234 15.9743 7.70855L15.515 7.51094M11.8057 17.9439L11.804 15.1452L11.8037 14.5231L12.4113 14.6566C13.2335 14.8372 14.0922 14.7439 14.8564 14.391L14.8678 14.3857L14.8795 14.3811C15.5592 14.1077 16.1558 13.6617 16.6105 13.0872C17.0637 12.5144 17.3601 11.8336 17.4707 11.1116C17.5409 10.5398 17.4855 9.95949 17.3084 9.4112C17.1306 8.8608 16.8344 8.35601 16.4407 7.93227L16.2474 7.72414L16.3272 7.45149C16.4053 7.18444 16.4454 6.90769 16.446 6.62945C16.4305 5.86836 16.1427 5.13798 15.6348 4.57083C15.1257 4.00246 14.4295 3.63586 13.6728 3.5378L13.314 3.4913L13.246 3.13596C13.1024 2.3859 12.699 1.71046 12.1067 1.22835C11.5145 0.746233 10.7712 0.488301 10.0076 0.499886L10 0.500001L9.99246 0.499886C9.22887 0.488301 8.48562 0.746233 7.89336 1.22835C7.3011 1.71046 6.89772 2.3859 6.75412 3.13596L6.68609 3.4913L6.3273 3.5378C5.57063 3.63586 4.87436 4.00246 4.36532 4.57083C3.85738 5.13798 3.56958 5.86836 3.55405 6.62945C3.55473 6.90768 3.59474 7.18444 3.67291 7.45149L3.75271 7.72413L3.55935 7.93226C3.1666 8.35501 2.87093 8.85844 2.69302 9.40737C2.5158 9.95417 2.45968 10.533 2.52853 11.1036C2.63759 11.8246 2.93198 12.505 3.38295 13.0782C3.8353 13.6531 4.42959 14.1003 5.1073 14.3757L5.12143 14.3815L5.13518 14.3881C5.89409 14.7519 6.75624 14.8392 7.57267 14.6349L8.16712 14.4862C8.09823 14.44 8.02115 14.4072 7.93984 14.3894C7.84108 14.3679 7.73871 14.3693 7.64057 14.3934L7.64056 14.3934C6.8265 14.5938 5.96844 14.5075 5.21082 14.1494C4.57895 13.8957 4.02304 13.4834 3.59684 12.9522C3.16706 12.4165 2.88397 11.7782 2.77534 11.1L2.7737 11.0898L2.77249 11.0796C2.70177 10.4808 2.77642 9.87384 2.99012 9.31006C3.20319 8.74794 3.54824 8.24529 3.99616 7.84443C4.01435 7.8271 4.02691 7.80467 4.03216 7.78006C4.03754 7.75489 4.03502 7.72867 4.02494 7.705C3.8777 7.36444 3.80119 6.99751 3.80004 6.62648L3.80002 6.61711L3.80034 6.60773C3.82733 5.82399 4.16414 5.08296 4.73684 4.54724C5.30676 4.01414 6.06396 3.72769 6.84372 3.74986C6.87517 3.74868 6.90509 3.73567 6.92743 3.71333C6.95087 3.68989 6.96404 3.6581 6.96404 3.62494V3.61622L6.96435 3.60751C6.99166 2.82457 7.32803 2.08434 7.89985 1.54883C8.46792 1.01682 9.22241 0.729915 10 0.749748C10.7777 0.729915 11.5322 1.01682 12.1002 1.54883C12.672 2.08434 13.0084 2.82457 13.0357 3.60751L13.036 3.61622V3.62494C13.036 3.6581 13.0492 3.68989 13.0727 3.71333L12.7191 4.06688L13.0727 3.71333C13.095 3.73568 13.125 3.7487 13.1564 3.74986C13.158 3.74991 13.1595 3.74994 13.161 3.74994V4.24994C13.813 4.22918 14.4465 4.46809 14.9224 4.91417C15.3983 5.36025 15.6776 5.97702 15.699 6.62894C15.6981 6.93237 15.6355 7.23245 15.515 7.51094M15.515 7.51094C15.4639 7.62991 15.4509 7.76184 15.4779 7.88849C15.505 8.01514 15.5707 8.13027 15.666 8.21794M15.515 7.51094L15.666 8.21794M16.729 11.0309C16.6333 11.6242 16.3847 12.1823 16.0077 12.6503C15.6307 13.1183 15.1383 13.4801 14.579 13.6999C13.9242 14.0098 13.1826 14.0846 12.479 13.9119L16.729 11.0309ZM16.729 11.0309C16.7915 10.5111 16.7274 9.98391 16.5423 9.49415C16.3573 9.00439 16.0566 8.56658 15.666 8.21794M16.729 11.0309L15.666 8.21794M8.44404 14.9959V17.9439H8.19404V15.1199V14.5052C8.19951 14.5092 8.20493 14.5134 8.21028 14.5176L8.21332 14.52C8.2854 14.5763 8.34366 14.6483 8.38365 14.7306C8.42363 14.8128 8.44429 14.9031 8.44404 14.9946V14.9959Z" fill="#0F1A1C" stroke="#0F1A1C"/>
</g>
<defs>
<clipPath id="clip0_1581_865">
<rect width="20" height="20" fill="white"/>
</clipPath>
</defs>
</svg>
