<svg width="20" height="20" viewBox="0 0 20 20" fill="none" xmlns="http://www.w3.org/2000/svg">
<path d="M19 2.125V5.875C18.9995 6.17321 18.8808 6.45905 18.6699 6.66991C18.459 6.88077 18.1732 6.99947 17.875 7H2.125C1.82679 6.99947 1.54095 6.88077 1.33009 6.66991C1.11922 6.45905 1.00053 6.17321 1 5.875V2.125C1.00053 1.82679 1.11922 1.54095 1.33009 1.33009C1.54095 1.11922 1.82679 1.00053 2.125 1H17.875C18.1732 1.00053 18.459 1.11922 18.6699 1.33009C18.8808 1.54095 18.9995 1.82679 19 2.125ZM18 8.412V17.865C17.9987 18.1801 17.8724 18.4818 17.649 18.7039C17.4255 18.9261 17.1231 19.0505 16.808 19.05H3.192C2.87691 19.0505 2.57447 18.9261 2.35101 18.7039C2.12756 18.4818 2.00132 18.1801 2 17.865V8.412C2.042 8.412 2.082 8.425 2.125 8.425H17.875C17.918 8.425 17.958 8.414 18 8.412ZM13.35 11H6.65V12.5H13.35V11Z" fill="#0F1A1C"/>
</svg>
