<svg width="20" height="20" viewBox="0 0 20 20" fill="none" xmlns="http://www.w3.org/2000/svg">
<g clip-path="url(#clip0_474_36)">
<path d="M10.5476 12.524C10.4793 12.5987 10.3966 12.6588 10.3045 12.7007C10.2124 12.7426 10.1128 12.7655 10.0116 12.768H9.99463C9.89614 12.7681 9.79862 12.7487 9.70766 12.711C9.6167 12.6732 9.53411 12.6178 9.46463 12.548L5.45863 8.54204L6.51963 7.48104L9.97063 10.934L17.1826 3.05904C15.377 1.18663 12.9161 0.0867838 10.3167 -0.00946486C7.71734 -0.105714 5.1818 0.809121 3.2427 2.54288C1.30359 4.27664 0.111814 6.69439 -0.0822958 9.2883C-0.276405 11.8822 0.542256 14.4504 2.20173 16.4535C3.8612 18.4565 6.23234 19.7385 8.8171 20.0302C11.4019 20.3219 13.9991 19.6006 16.0632 18.0178C18.1274 16.4349 19.4978 14.1138 19.8867 11.5418C20.2755 8.96991 19.6526 6.34735 18.1486 4.22504L10.5476 12.524Z" fill="#0F1A1C"/>
</g>
<defs>
<clipPath id="clip0_474_36">
<rect width="20" height="20" fill="white"/>
</clipPath>
</defs>
</svg>
