<svg width="20" height="20" viewBox="0 0 20 20" fill="none" xmlns="http://www.w3.org/2000/svg">
<path d="M1.348 5.155H2.068V2.845C1.84788 2.94605 1.61003 3.00279 1.368 3.012V2.251C1.6333 2.26398 1.89337 2.17406 2.094 2H3.148V5.155H3.776V6H1.348V5.155ZM1.085 11.786C1.085 11.217 1.192 10.641 2.238 10.008C2.838 9.638 3.011 9.555 3.011 9.225C3.011 9.003 2.87 8.879 2.624 8.879C2.44694 8.90043 2.27808 8.96595 2.1329 9.06955C1.98771 9.17316 1.87085 9.31153 1.793 9.472L1.077 8.954C1.22543 8.66537 1.45086 8.42346 1.72832 8.25508C2.00579 8.0867 2.32445 7.99841 2.649 8C3.578 8 4.023 8.469 4.023 9.2C4.023 9.645 3.842 10.082 3.035 10.516C2.535 10.798 2.369 10.994 2.311 11.152H4.047V12H1.085V11.786ZM1 17.206L1.631 16.655C1.72114 16.8011 1.84559 16.9231 1.99354 17.0102C2.1415 17.0973 2.30848 17.147 2.48 17.155C2.91 17.155 3.055 16.979 3.055 16.736C3.055 16.404 2.828 16.275 2.294 16.275H1.987V15.552H2.31C2.828 15.552 2.983 15.407 2.983 15.172C2.983 14.972 2.838 14.856 2.57 14.856C2.4044 14.8589 2.24105 14.8948 2.08957 14.9618C1.93809 15.0288 1.80155 15.1254 1.688 15.246L1.137 14.605C1.54265 14.213 2.0859 13.9958 2.65 14C3.534 14 4 14.4 4 15.052C4.0084 15.2327 3.95647 15.411 3.85236 15.5589C3.74826 15.7068 3.59791 15.8159 3.425 15.869C3.62876 15.91 3.81121 16.0224 3.93953 16.1859C4.06784 16.3494 4.13361 16.5533 4.125 16.761C4.124 17.57 3.509 18 2.57 18C2.2627 18.01 1.95782 17.9426 1.68345 17.8038C1.40908 17.665 1.17404 17.4595 1 17.206ZM19 9.375H7V10.625H19V9.375ZM19 15.375H7V16.625H19V15.375ZM19 3.375H7V4.625H19V3.375Z" fill="#0F1A1C"/>
</svg>
