<svg width="20" height="20" viewBox="0 0 20 20" fill="none" xmlns="http://www.w3.org/2000/svg">
<path d="M6.875 19H3.125C2.82679 18.9995 2.54095 18.8808 2.33009 18.6699C2.11922 18.459 2.00053 18.1732 2 17.875V2.125C2.00053 1.82679 2.11922 1.54095 2.33009 1.33009C2.54095 1.11922 2.82679 1.00053 3.125 1H6.875C7.17321 1.00053 7.45905 1.11922 7.66991 1.33009C7.88077 1.54095 7.99947 1.82679 8 2.125V17.875C7.99947 18.1732 7.88077 18.459 7.66991 18.6699C7.45905 18.8808 7.17321 18.9995 6.875 19ZM16.875 19H13.125C12.8268 18.9995 12.541 18.8808 12.3301 18.6699C12.1192 18.459 12.0005 18.1732 12 17.875V2.125C12.0005 1.82679 12.1192 1.54095 12.3301 1.33009C12.541 1.11922 12.8268 1.00053 13.125 1H16.875C17.1732 1.00053 17.459 1.11922 17.6699 1.33009C17.8808 1.54095 17.9995 1.82679 18 2.125V17.875C17.9995 18.1732 17.8808 18.459 17.6699 18.6699C17.459 18.8808 17.1732 18.9995 16.875 19Z" fill="#0F1A1C"/>
</svg>
