<svg width="20" height="20" viewBox="0 0 20 20" fill="none" xmlns="http://www.w3.org/2000/svg">
<path d="M10.1 11H1V9H10.1V7C10.1 6.90119 10.1293 6.80459 10.1842 6.72242C10.2391 6.64024 10.3171 6.57617 10.4083 6.5383C10.4996 6.50042 10.6001 6.49044 10.697 6.5096C10.7939 6.52877 10.883 6.57624 10.953 6.646L13.953 9.646C13.9996 9.69245 14.0365 9.74762 14.0617 9.80837C14.0869 9.86911 14.0999 9.93423 14.0999 10C14.0999 10.0658 14.0869 10.1309 14.0617 10.1916C14.0365 10.2524 13.9996 10.3076 13.953 10.354L10.953 13.354C10.8593 13.4475 10.7324 13.5 10.6 13.5C10.5341 13.5003 10.4688 13.4873 10.408 13.462C10.3168 13.4241 10.2388 13.3599 10.184 13.2777C10.1292 13.1955 10.0999 13.0988 10.1 13V11ZM15.35 1H5.65C4.94742 1.00079 4.27384 1.28024 3.77704 1.77704C3.28024 2.27384 3.00079 2.94742 3 3.65V4.783H5V3.65C5.00026 3.47769 5.06883 3.31251 5.19067 3.19067C5.31251 3.06883 5.47769 3.00026 5.65 3H15.35C15.5223 3.00026 15.6875 3.06883 15.8093 3.19067C15.9312 3.31251 15.9997 3.47769 16 3.65V16.35C15.9997 16.5223 15.9312 16.6875 15.8093 16.8093C15.6875 16.9312 15.5223 16.9997 15.35 17H5.65C5.47769 16.9997 5.31251 16.9312 5.19067 16.8093C5.06883 16.6875 5.00026 16.5223 5 16.35V15.217H3V16.35C3.00079 17.0526 3.28024 17.7262 3.77704 18.223C4.27384 18.7198 4.94742 18.9992 5.65 19H15.35C16.0526 18.9992 16.7262 18.7198 17.223 18.223C17.7198 17.7262 17.9992 17.0526 18 16.35V3.65C17.9992 2.94742 17.7198 2.27384 17.223 1.77704C16.7262 1.28024 16.0526 1.00079 15.35 1Z" fill="#0F1A1C"/>
</svg>
