<svg width="20" height="20" viewBox="0 0 20 20" fill="none" xmlns="http://www.w3.org/2000/svg">
<g clip-path="url(#clip0_473_35)">
<path d="M10 0C8.02219 0 6.08879 0.58649 4.4443 1.6853C2.79981 2.78412 1.51809 4.3459 0.761209 6.17317C0.00433284 8.00043 -0.193701 10.0111 0.192152 11.9509C0.578004 13.8907 1.53041 15.6725 2.92894 17.0711C4.32746 18.4696 6.10929 19.422 8.0491 19.8079C9.98891 20.1937 11.9996 19.9957 13.8268 19.2388C15.6541 18.4819 17.2159 17.2002 18.3147 15.5557C19.4135 13.9112 20 11.9778 20 10C19.9971 7.34873 18.9426 4.80688 17.0679 2.93215C15.1931 1.05742 12.6513 0.0029116 10 0V0ZM4.866 17.07C5.13358 16.2334 5.66974 15.5084 6.39134 15.0076C7.11294 14.5068 7.97964 14.258 8.85701 14.3H11.143C12.0199 14.2578 12.8862 14.5059 13.6077 15.006C14.3292 15.5061 14.8657 16.2301 15.134 17.066C13.6448 18.1575 11.8464 18.7459 10 18.7459C8.15361 18.7459 6.35526 18.1575 4.866 17.066V17.07ZM16.166 16.2C15.7315 15.2391 15.0229 14.428 14.1291 13.8683C13.2353 13.3086 12.1962 13.0253 11.142 13.054H8.85701C7.80284 13.0253 6.76368 13.3086 5.86989 13.8683C4.97611 14.428 4.26752 15.2391 3.833 16.2C2.60359 14.9786 1.76457 13.4196 1.42233 11.7207C1.08008 10.0218 1.25003 8.25956 1.91062 6.65739C2.5712 5.05521 3.69268 3.68528 5.13284 2.7213C6.57301 1.75731 8.26699 1.2427 10 1.2427C11.733 1.2427 13.427 1.75731 14.8672 2.7213C16.3073 3.68528 17.4288 5.05521 18.0894 6.65739C18.75 8.25956 18.9199 10.0218 18.5777 11.7207C18.2354 13.4196 17.3964 14.9786 16.167 16.2H16.166ZM10.059 5C9.42037 5 8.79607 5.18938 8.26507 5.54418C7.73406 5.89899 7.32019 6.40329 7.0758 6.99332C6.8314 7.58334 6.76746 8.23258 6.89205 8.85895C7.01664 9.48531 7.32417 10.0607 7.77576 10.5122C8.22734 10.9638 8.80269 11.2714 9.42906 11.396C10.0554 11.5205 10.7047 11.4566 11.2947 11.2122C11.8847 10.9678 12.389 10.5539 12.7438 10.0229C13.0986 9.49193 13.288 8.86764 13.288 8.229C13.2869 7.37294 12.9464 6.55225 12.3411 5.94692C11.7358 5.3416 10.9151 5.00106 10.059 5ZM10.059 10.208C9.6676 10.208 9.28498 10.0919 8.95953 9.87448C8.63409 9.65702 8.38043 9.34795 8.23065 8.98633C8.08086 8.62472 8.04167 8.2268 8.11803 7.84292C8.19439 7.45903 8.38287 7.1064 8.65964 6.82964C8.93641 6.55287 9.28903 6.36439 9.67292 6.28803C10.0568 6.21167 10.4547 6.25086 10.8163 6.40064C11.178 6.55043 11.487 6.80408 11.7045 7.12953C11.9219 7.45497 12.038 7.83759 12.038 8.229C12.0375 8.7537 11.8288 9.25676 11.4578 9.62778C11.0868 9.9988 10.5837 10.2075 10.059 10.208Z" fill="#0F1A1C"/>
</g>
<defs>
<clipPath id="clip0_473_35">
<rect width="20" height="20" fill="white"/>
</clipPath>
</defs>
</svg>
