<svg width="20" height="20" viewBox="0 0 20 20" fill="none" xmlns="http://www.w3.org/2000/svg">
<g clip-path="url(#clip0_474_17)">
<path d="M19.9401 9.211C19.7991 8.47052 19.4051 7.80208 18.8255 7.32012C18.246 6.83815 17.5169 6.57262 16.7631 6.569C16.3126 6.56848 15.8679 6.6711 15.4631 6.869C13.981 6.03525 12.3231 5.5628 10.6241 5.49L11.4351 1.749L13.8791 2.268C13.9705 2.59556 14.1711 2.88207 14.4476 3.08007C14.724 3.27807 15.0599 3.37567 15.3994 3.35672C15.7389 3.33776 16.0618 3.20338 16.3146 2.97584C16.5673 2.7483 16.7347 2.44124 16.7891 2.10555C16.8434 1.76985 16.7815 1.42566 16.6135 1.12998C16.4455 0.834305 16.1815 0.604891 15.8653 0.479742C15.5491 0.354593 15.1996 0.34122 14.8748 0.441838C14.55 0.542456 14.2692 0.751027 14.0791 1.033L11.5731 0.5C11.2822 0.439595 10.9793 0.496182 10.7298 0.657512C10.4803 0.818842 10.3044 1.07193 10.2401 1.362L9.34413 5.5C7.66273 5.57183 6.02154 6.03658 4.55213 6.857C4.13911 6.66893 3.69095 6.57044 3.23713 6.568C2.48541 6.57191 1.75831 6.83636 1.17972 7.3163C0.601138 7.79623 0.206879 8.46195 0.0641323 9.2C-0.0148315 9.60029 -0.0209292 10.0115 0.0461323 10.414C0.159339 11.0796 0.478283 11.693 0.958132 12.168L1.02413 12.239V12.366C1.10013 16.056 5.03813 18.948 10.0001 18.948C14.9621 18.948 18.8921 16.059 18.9661 12.381L18.9721 12.243L19.0161 12.197C19.5091 11.7184 19.8378 11.096 19.9551 10.419C20.0232 10.0187 20.0181 9.60945 19.9401 9.211ZM18.7191 10.211C18.6443 10.631 18.4377 11.0163 18.1291 11.311L17.7371 11.718L17.7131 12.343C17.6521 15.343 14.2631 17.697 9.99613 17.697C5.72913 17.697 2.33613 15.344 2.27813 12.326L2.25413 11.726L1.85413 11.293C1.55404 10.9999 1.3542 10.6194 1.28313 10.206C1.2411 9.95235 1.24517 9.6932 1.29513 9.441C1.38205 8.98803 1.62285 8.57902 1.97676 8.28325C2.33067 7.98747 2.77593 7.82311 3.23713 7.818C3.59027 7.82064 3.936 7.91952 4.23713 8.104L4.57413 8.32L4.90913 8.1C6.34383 7.22413 7.98644 6.74737 9.66713 6.719H10.3861C12.0581 6.75825 13.6895 7.24143 15.1131 8.119L15.4601 8.344L15.8031 8.112C16.0855 7.91746 16.4202 7.81288 16.7631 7.812C17.2264 7.81578 17.674 7.98026 18.0294 8.27736C18.3849 8.57447 18.6262 8.98576 18.7121 9.441C18.7612 9.69377 18.7636 9.95338 18.7191 10.207V10.211Z" fill="#0F1A1C"/>
</g>
<defs>
<clipPath id="clip0_474_17">
<rect width="20" height="20" fill="white"/>
</clipPath>
</defs>
</svg>
