<svg width="20" height="20" viewBox="0 0 20 20" fill="none" xmlns="http://www.w3.org/2000/svg">
<g clip-path="url(#clip0_1136_29)">
<path d="M10 -0.00708008C8.02219 -0.00708008 6.08879 0.57941 4.4443 1.67822C2.79981 2.77704 1.51809 4.33882 0.761209 6.16609C0.00433284 7.99335 -0.193701 10.004 0.192152 11.9438C0.578004 13.8836 1.53041 15.6655 2.92894 17.064C4.32746 18.4625 6.10929 19.4149 8.0491 19.8008C9.98891 20.1866 11.9996 19.9886 13.8268 19.2317C15.6541 18.4748 17.2159 17.1931 18.3147 15.5486C19.4135 13.9041 20 11.9707 20 9.99292C19.9971 7.34165 18.9426 4.7998 17.0679 2.92507C15.1931 1.05033 12.6513 -0.00416848 10 -0.00708008ZM10 1.24292C11.6678 1.24551 13.3002 1.72442 14.7051 2.62332C16.1099 3.52221 17.2288 4.80368 17.93 6.31692H10C9.24347 6.32012 8.50643 6.55718 7.88988 6.9956C7.27333 7.43403 6.80742 8.05238 6.556 8.76592L3.756 3.86592C4.56938 3.03456 5.54078 2.37424 6.61308 1.92378C7.68538 1.47333 8.83693 1.24184 10 1.24292ZM12.43 9.99292C12.4305 10.5586 12.233 11.1066 11.8716 11.5419C11.5103 11.9772 11.0081 12.2723 10.452 12.376C9.89585 12.4797 9.32098 12.3854 8.82708 12.1096C8.33319 11.8338 7.95142 11.3938 7.748 10.8659L7.736 10.8449C7.63107 10.5741 7.57618 10.2864 7.574 9.99592C7.56745 9.67325 7.62535 9.35253 7.7443 9.05251C7.86325 8.7525 8.04086 8.47924 8.26674 8.24873C8.49262 8.01822 8.76222 7.83509 9.05975 7.71008C9.35729 7.58506 9.67677 7.52067 9.99951 7.52067C10.3222 7.52067 10.6417 7.58506 10.9393 7.71008C11.2368 7.83509 11.5064 8.01822 11.7323 8.24873C11.9581 8.47924 12.1358 8.7525 12.2547 9.05251C12.3737 9.35253 12.4316 9.67325 12.425 9.99592L12.43 9.99292ZM1.25 9.99292C1.25045 8.16099 1.82968 6.37604 2.905 4.89292L6.605 11.3679C6.91657 12.1585 7.49545 12.8148 8.24092 13.2226C8.98639 13.6304 9.85125 13.7639 10.685 13.5999L7.9 18.4769C6.00424 18.0068 4.32003 16.9165 3.1151 15.3792C1.91018 13.842 1.25369 11.9461 1.25 9.99292ZM10 18.7429C9.733 18.7429 9.469 18.7269 9.208 18.7029L12.908 12.2379H12.9C13.4335 11.5689 13.7111 10.7317 13.6833 9.87643C13.6554 9.0212 13.3239 8.20385 12.748 7.57092H18.4C18.7791 8.87339 18.8494 10.2463 18.6056 11.5807C18.3617 12.9151 17.8103 14.1743 16.9951 15.2585C16.1799 16.3428 15.1233 17.2221 13.9091 17.827C12.6949 18.4318 11.3565 18.7454 10 18.7429Z" fill="#0F1A1C"/>
</g>
<defs>
<clipPath id="clip0_1136_29">
<rect width="20" height="20" fill="white"/>
</clipPath>
</defs>
</svg>
