<svg width="20" height="20" viewBox="0 0 20 20" fill="none" xmlns="http://www.w3.org/2000/svg">
<path d="M4.07825 9.69097C3.7991 10.0074 3.54057 10.3414 3.30425 10.691C2.82759 10.3991 2.38049 10.0615 1.96925 9.68297C1.25078 9.02495 0.65546 8.24405 0.211246 7.37697C0.0736515 7.10528 0.00195313 6.80501 0.00195312 6.50047C0.00195313 6.19592 0.0736515 5.89565 0.211246 5.62397C0.965804 4.2143 2.09191 3.03813 3.46744 2.223C4.84296 1.40788 6.41541 0.984907 8.01425 0.999965C9.59068 0.976742 11.1437 1.38337 12.5064 2.17619C13.8692 2.96901 14.9903 4.11807 15.7492 5.49997C15.9761 5.92931 16.0485 6.4236 15.9542 6.89997C15.5626 6.74266 15.1619 6.60908 14.7542 6.49997C14.7529 6.35606 14.7165 6.21465 14.6482 6.08797C13.9955 4.90585 13.0331 3.92393 11.8642 3.24772C10.6954 2.57151 9.36439 2.22657 8.01425 2.24997C6.64585 2.2341 5.29919 2.59294 4.12013 3.28761C2.94107 3.98229 1.97455 4.98632 1.32525 6.19097C1.27779 6.28724 1.25311 6.39313 1.25311 6.50047C1.25311 6.6078 1.27779 6.71369 1.32525 6.80997C1.70179 7.54441 2.20637 8.20577 2.81525 8.76296C3.2025 9.11578 3.62583 9.42683 4.07825 9.69097ZM5.71325 7.09097C5.63416 6.80556 5.61305 6.5072 5.65118 6.2135C5.68931 5.9198 5.7859 5.63672 5.93525 5.38097C6.09302 5.10848 6.30389 4.87045 6.55537 4.68098C6.80685 4.49151 7.09381 4.35446 7.39925 4.27797C7.60056 4.22659 7.80748 4.20039 8.01525 4.19997C8.53253 4.19506 9.03724 4.35939 9.45247 4.66792C9.86769 4.97645 10.1707 5.41227 10.3152 5.90897C10.3437 6.02195 10.3634 6.13695 10.3742 6.25296C10.786 6.19103 11.2011 6.1533 11.6172 6.13997C11.5992 5.9499 11.5658 5.76162 11.5172 5.57697C11.2514 4.66226 10.6383 3.88782 9.809 3.41917C8.9797 2.95052 7.99999 2.82483 7.07925 3.06897C6.61426 3.18704 6.17764 3.39706 5.79515 3.68663C5.41266 3.9762 5.09205 4.33946 4.85225 4.75497C4.50014 5.35651 4.33895 6.05078 4.39002 6.74593C4.44109 7.44107 4.70201 8.10434 5.13825 8.64796C5.45247 8.37867 5.78238 8.12823 6.12625 7.89796C5.93555 7.6592 5.79508 7.38437 5.71325 7.08997V7.09097ZM17.6062 16.98C18.4295 16.2897 19.109 15.4443 19.6062 14.492C19.7664 14.1841 19.8494 13.8421 19.8481 13.4951C19.8469 13.1481 19.7615 12.8067 19.5992 12.5C18.8664 11.1255 17.7699 9.97893 16.4296 9.18534C15.0893 8.39175 13.5568 7.9817 11.9992 7.99997C10.4187 7.99064 8.86618 8.41781 7.51285 9.2344C6.15951 10.051 5.05785 11.2253 4.32925 12.628C4.19507 12.8992 4.12527 13.1978 4.12527 13.5005C4.12527 13.8031 4.19507 14.1017 4.32925 14.373C4.76354 15.2377 5.34795 16.0185 6.05525 16.679C7.61837 18.1182 9.65037 18.9418 11.7744 18.9969C13.8985 19.0521 15.9705 18.3351 17.6062 16.979V16.98ZM18.4962 13.08C18.5634 13.2085 18.5984 13.3514 18.5984 13.4965C18.5984 13.6415 18.5634 13.7844 18.4962 13.913C18.0743 14.7209 17.4965 15.4374 16.7962 16.021C15.3952 17.1809 13.6214 17.7942 11.8031 17.7475C9.98485 17.7008 8.24496 16.9972 6.90525 15.767C6.30574 15.2074 5.81038 14.5458 5.44225 13.813C5.39484 13.7154 5.37021 13.6084 5.37021 13.5C5.37021 13.3915 5.39484 13.2845 5.44225 13.187C6.06669 11.9906 7.00939 10.9899 8.16639 10.2952C9.32339 9.6005 10.6498 9.23879 11.9992 9.24997C13.3296 9.23168 14.6394 9.57922 15.7856 10.2546C16.9319 10.9301 17.8706 11.9074 18.4992 13.08H18.4962ZM12.9242 16.929C13.3789 16.8098 13.8054 16.6014 14.1788 16.3159C14.5522 16.0304 14.8651 15.6735 15.0992 15.266C15.3331 14.8638 15.4847 14.4191 15.5451 13.9578C15.6055 13.4965 15.5736 13.0278 15.4512 12.579C15.199 11.6687 14.5979 10.8946 13.7785 10.4247C12.959 9.95474 11.9873 9.82694 11.0742 10.069C10.6194 10.1881 10.1929 10.3966 9.81948 10.6823C9.44606 10.968 9.13324 11.3252 8.89925 11.733C8.66535 12.135 8.51378 12.5795 8.45335 13.0406C8.39291 13.5017 8.42483 13.9703 8.54725 14.419C8.79814 15.3301 9.39896 16.1053 10.2188 16.5754C11.0387 17.0455 12.0111 17.1726 12.9242 16.929ZM14.2462 12.905C14.3254 13.1948 14.346 13.4974 14.3071 13.7953C14.2681 14.0931 14.1702 14.3803 14.0192 14.64C13.8662 14.9055 13.6619 15.1378 13.4181 15.3234C13.1742 15.509 12.8959 15.6442 12.5992 15.721C12.0057 15.8791 11.3737 15.7969 10.8404 15.4921C10.307 15.1874 9.91535 14.6846 9.75025 14.093C9.67114 13.8032 9.65047 13.5005 9.68944 13.2027C9.72841 12.9048 9.82624 12.6177 9.97725 12.358C10.1296 12.0929 10.3333 11.8608 10.5765 11.6754C10.8196 11.4899 11.0973 11.3548 11.3932 11.278C11.591 11.2258 11.7947 11.1996 11.9992 11.2C12.5088 11.1988 13.0047 11.365 13.4107 11.673C13.8166 11.981 14.1102 12.4139 14.2462 12.905Z" fill="#0F1A1C"/>
</svg>
