<svg width="20" height="20" viewBox="0 0 20 20" fill="none" xmlns="http://www.w3.org/2000/svg">
<path d="M20 8.614V17.387C19.9992 17.8147 19.8289 18.2247 19.5263 18.527C19.2238 18.8294 18.8137 18.9995 18.386 19H1.614C1.18628 18.9995 0.776207 18.8294 0.473667 18.527C0.171126 18.2247 0.000793716 17.8147 0 17.387L0 8.614C0.000529249 8.1861 0.170745 7.77588 0.473314 7.47331C0.775883 7.17075 1.1861 7.00053 1.614 7H18.386C18.8139 7.00053 19.2241 7.17075 19.5267 7.47331C19.8293 7.77588 19.9995 8.1861 20 8.614ZM17 4H3V6H17V4ZM14 1H6V3H14V1Z" fill="#0F1A1C"/>
</svg>
