<svg width="20" height="20" viewBox="0 0 20 20" fill="none" xmlns="http://www.w3.org/2000/svg">
<path d="M10.0004 19.0334L9.77781 18.9229C9.50719 18.7887 8.7735 18.3986 8.10034 17.7914C7.44381 17.1991 6.7634 16.3256 6.7502 15.2168C6.72289 14.9816 6.74428 14.7431 6.81318 14.5162C6.8855 14.2781 7.00844 14.0585 7.17358 13.8723C7.33873 13.6862 7.54216 13.538 7.76995 13.4378C7.99541 13.3387 8.23945 13.289 8.48567 13.292M10.0004 19.0334L12.75 15.184C12.774 15.0089 12.7598 14.8307 12.7084 14.6615C12.657 14.4924 12.5697 14.3364 12.4524 14.2042C12.3351 14.072 12.1906 13.9667 12.0288 13.8955C11.867 13.8244 11.6917 13.7891 11.515 13.792L11.5219 13.292C11.5194 13.292 11.5168 13.292 11.5143 13.292C11.2402 13.2894 10.9692 13.3503 10.7226 13.4702C10.4761 13.59 10.2607 13.7653 10.0934 13.9824L10 14.0976L9.90664 13.9824C9.73931 13.7653 9.52392 13.59 9.27736 13.4702C9.03076 13.3503 8.75976 13.2894 8.48567 13.292M10.0004 19.0334L10.2229 18.9226C10.4897 18.7897 11.2233 18.4003 11.8972 17.7931C12.5543 17.201 13.2366 16.3269 13.2498 15.2168L10.0004 19.0334ZM8.48567 13.292C8.48821 13.292 8.49075 13.292 8.49328 13.2921L8.485 13.792M8.48567 13.292C8.48316 13.292 8.48065 13.292 8.47814 13.292L8.485 13.792M8.485 13.792C8.68364 13.7893 8.88015 13.8331 9.05883 13.9199C9.23751 14.0067 9.39339 14.1341 9.514 14.292L10 18.475C9.494 18.224 7.25 17.01 7.25 15.184C7.22604 15.0089 7.24024 14.8307 7.2916 14.6615C7.34297 14.4924 7.4303 14.3364 7.5476 14.2042C7.6649 14.072 7.80941 13.9667 7.97121 13.8955C8.13301 13.8244 8.30827 13.7891 8.485 13.792ZM7.51782 13.2666L8.78013 12.5149L7.32135 12.3405C5.2234 12.0897 3.48101 11.5515 2.27922 10.8414C1.06551 10.1243 0.5 9.29767 0.5 8.485V5.47931C0.522039 4.50693 1.36261 3.51233 3.09722 2.73559C4.80091 1.97269 7.2142 1.5 10 1.5C12.7858 1.5 15.1991 1.97269 16.9028 2.73559C18.6374 3.51233 19.478 4.50694 19.5 5.47933V8.615C19.5 9.49675 18.7707 10.4361 17.0303 11.203C15.6502 11.8043 14.1852 12.1877 12.6876 12.3396L11.1818 12.4923L12.4822 13.2666C12.8076 13.4604 13.0743 13.739 13.2536 14.0725C13.433 14.4061 13.5183 14.7822 13.5006 15.1605L13.5 15.1722V15.184C13.5 16.3958 12.7669 17.3736 11.9333 18.0902C11.1274 18.783 10.302 19.166 10.2069 19.21C10.1435 19.2373 10.0751 19.2515 10.006 19.2515C9.93561 19.2515 9.866 19.2368 9.80159 19.2084L9.8016 19.2084L9.79696 19.2064C9.74614 19.1846 8.89615 18.8008 8.06788 18.0899C7.23304 17.3735 6.5 16.3958 6.5 15.184V15.1722L6.49945 15.1605C6.48166 14.7822 6.56701 14.4061 6.74638 14.0725C6.92575 13.739 7.1924 13.4604 7.51782 13.2666ZM1.56711 7.37642L0.75 6.70615V7.763V8.485C0.75 9.04786 1.0621 9.55013 1.49903 9.96234C1.94113 10.3794 2.5618 10.7551 3.30967 11.0747C4.80869 11.7152 6.90437 12.1664 9.36089 12.2358L9.875 12.2503V11.736V11.374H10.125V11.736V12.2442L10.6332 12.2359C12.3212 12.2084 13.9976 11.9501 15.6157 11.4682L15.6275 11.4647L15.6391 11.4606L16.2071 11.2606L16.2081 11.2602C16.3922 11.195 16.5635 11.1261 16.7257 11.0584L16.7257 11.0584L16.7317 11.0558C16.7507 11.0476 16.7711 11.0389 16.7924 11.0297C16.8674 10.9976 16.954 10.9605 17.0338 10.9225L17.0851 10.8987L17.0851 10.8988L17.0945 10.8942C17.7239 10.5867 18.2474 10.2335 18.6207 9.84454C18.9915 9.45805 19.25 8.99621 19.25 8.485V7.763V6.70615L18.4329 7.37642C16.8884 8.64341 13.8138 9.53 10 9.53C6.18616 9.53 3.11165 8.64341 1.56711 7.37642ZM3.807 5.72663L3.79994 5.72903L3.79296 5.73164L3.6759 5.77539L3.58909 5.54224L3.7001 5.50094C5.72482 4.80889 7.85351 4.47028 9.99307 4.49995L9.99306 4.50014L10.0069 4.49995C12.1465 4.47028 14.2752 4.80889 16.2999 5.50094L16.4109 5.54224L16.3236 5.77679L16.2056 5.73312L16.2057 5.73295L16.1932 5.72868C14.2001 5.05008 12.1052 4.71902 10.0001 4.74994C7.89503 4.71836 5.80019 5.04872 3.807 5.72663ZM19.25 5.515C19.25 4.92881 18.912 4.40759 18.4437 3.98302C17.9684 3.5522 17.3009 3.1651 16.4958 2.83989C14.8819 2.188 12.6286 1.75 10 1.75C7.37139 1.75 5.11815 2.188 3.50424 2.83989C2.69911 3.1651 2.03156 3.5522 1.55631 3.98302C1.08796 4.40759 0.75 4.92881 0.75 5.515C0.75 6.10119 1.08796 6.62241 1.55631 7.04698C2.03156 7.4778 2.69911 7.8649 3.50424 8.19011C5.11815 8.842 7.37139 9.28 10 9.28C12.6286 9.28 14.8819 8.842 16.4958 8.19011C17.3009 7.8649 17.9684 7.4778 18.4437 7.04698C18.912 6.62241 19.25 6.10119 19.25 5.515Z" fill="#0F1A1C" stroke="#0F1A1C"/>
</svg>
