<svg width="20" height="20" viewBox="0 0 20 20" fill="none" xmlns="http://www.w3.org/2000/svg">
<path d="M19.9289 14.17L18.2769 6.60002C18.0431 5.57661 17.4687 4.66297 16.6476 4.00888C15.8265 3.35479 14.8076 2.99906 13.7579 3.00002H5.70085C4.59651 2.997 3.52756 3.38942 2.68747 4.10624C1.84738 4.82307 1.29165 5.81695 1.12085 6.90802L0.0338549 14.387C-0.0301348 14.8321 0.0023849 15.2857 0.129206 15.717C0.256027 16.1484 0.474181 16.5474 0.768855 16.887C1.15315 17.3291 1.65051 17.6582 2.20762 17.8391C2.76472 18.02 3.36056 18.0459 3.93125 17.9139C4.50193 17.782 5.02594 17.4972 5.44708 17.0901C5.86823 16.683 6.17063 16.1689 6.32186 15.603L6.71285 13.968H12.5059L12.8969 15.603C13.0754 16.2916 13.4782 16.9011 14.0418 17.3352C14.6054 17.7693 15.2975 18.0032 16.0089 18H16.7909C17.2724 18.001 17.748 17.8936 18.1825 17.6859C18.617 17.4782 18.9992 17.1754 19.3009 16.8C19.5958 16.4366 19.8053 16.0117 19.914 15.5565C20.0227 15.1012 20.0278 14.6274 19.9289 14.17ZM18.3289 16.02C18.1435 16.2494 17.909 16.4341 17.6426 16.5604C17.3762 16.6868 17.0847 16.7516 16.7899 16.75H16.0079C15.5746 16.7537 15.1526 16.6129 14.8084 16.3497C14.4643 16.0865 14.2178 15.7161 14.1079 15.297L13.4779 12.821H5.74085L5.11086 15.3C5.00095 15.7191 4.75442 16.0895 4.41028 16.3527C4.06615 16.6159 3.64407 16.7567 3.21086 16.753C2.92677 16.7546 2.64569 16.6948 2.38681 16.5778C2.12794 16.4608 1.89737 16.2893 1.71085 16.075C1.53187 15.8714 1.3995 15.6311 1.32299 15.371C1.24647 15.1108 1.22766 14.8372 1.26785 14.569L2.35786 7.08802C2.48403 6.29355 2.89055 5.57054 3.50379 5.04993C4.11703 4.52933 4.89644 4.24556 5.70085 4.25002H13.7629C14.5278 4.24696 15.2711 4.50401 15.8707 4.97899C16.4704 5.45397 16.8907 6.11867 17.0629 6.86402L18.7139 14.437C18.7729 14.7128 18.7691 14.9983 18.7026 15.2724C18.6361 15.5464 18.5087 15.802 18.3299 16.02H18.3289Z" fill="#0F1A1C"/>
<path d="M6.25586 6.21202H5.00586V7.98802H3.27586V9.23802H5.00586V10.86H6.25586V9.23802H7.98586V7.98802H6.25586V6.21202Z" fill="#0F1A1C"/>
<path d="M11.8209 8.81002C11.7053 8.92648 11.6203 9.06957 11.5731 9.22668C11.5259 9.38378 11.5181 9.55007 11.5504 9.7109C11.5827 9.87173 11.654 10.0221 11.7581 10.1489C11.8622 10.2757 11.9959 10.3749 12.1474 10.4378C12.2989 10.5007 12.4635 10.5253 12.6268 10.5096C12.7901 10.4939 12.947 10.4382 13.0837 10.3475C13.2204 10.2568 13.3326 10.1339 13.4106 9.98963C13.4886 9.84532 13.5299 9.68405 13.5309 9.52002C13.5303 9.38771 13.5035 9.25683 13.452 9.13495C13.4005 9.01308 13.3253 8.90263 13.2309 8.81002C13.0394 8.63161 12.7875 8.53241 12.5259 8.53241C12.2642 8.53241 12.0123 8.63161 11.8209 8.81002Z" fill="#0F1A1C"/>
<path d="M15.2309 6.85002C15.142 6.75364 15.0327 6.67846 14.9109 6.63002C14.6639 6.53005 14.3878 6.53005 14.1409 6.63002C14.0191 6.67846 13.9097 6.75364 13.8209 6.85002C13.7265 6.94063 13.6513 7.0493 13.5998 7.16955C13.5482 7.2898 13.5214 7.41919 13.5209 7.55002C13.5214 7.68232 13.5482 7.81321 13.5997 7.93508C13.6512 8.05696 13.7264 8.1674 13.8209 8.26002C14.0082 8.44627 14.2617 8.55081 14.5259 8.55081C14.79 8.55081 15.0435 8.44627 15.2309 8.26002C15.368 8.11843 15.4616 7.94046 15.5006 7.74726C15.5396 7.55405 15.5223 7.35371 15.4509 7.17002C15.4024 7.04822 15.3272 6.93886 15.2309 6.85002Z" fill="#0F1A1C"/>
</svg>
