<svg width="20" height="20" viewBox="0 0 20 20" fill="none" xmlns="http://www.w3.org/2000/svg">
<path d="M9.876 19H2.124C1.82598 18.9997 1.54024 18.8812 1.3295 18.6705C1.11877 18.4598 1.00026 18.174 1 17.876V2.124C1.00026 1.82598 1.11877 1.54024 1.3295 1.3295C1.54024 1.11877 1.82598 1.00026 2.124 1H9.876C10.174 1.00026 10.4598 1.11877 10.6705 1.3295C10.8812 1.54024 10.9997 1.82598 11 2.124V17.876C10.9997 18.174 10.8812 18.4598 10.6705 18.6705C10.4598 18.8812 10.174 18.9997 9.876 19ZM2.25 17.75H9.75V2.25H2.25V17.75ZM18.442 13.558L14.884 10L18.442 6.442L17.558 5.558L13.558 9.558C13.4999 9.61604 13.4539 9.68495 13.4225 9.76079C13.3911 9.83662 13.3749 9.91791 13.3749 10C13.3749 10.0821 13.3911 10.1634 13.4225 10.2392C13.4539 10.3151 13.4999 10.384 13.558 10.442L17.558 14.442L18.442 13.558ZM8.5 5H3.5V6.25H8.5V5ZM8.5 8H3.5V9.25H8.5V8ZM8.5 11H3.5V12.25H8.5V11ZM8.5 14H3.5V15.25H8.5V14Z" fill="#0F1A1C"/>
</svg>
