<svg width="20" height="20" viewBox="0 0 20 20" fill="none" xmlns="http://www.w3.org/2000/svg">
<g clip-path="url(#clip0_474_11)">
<path d="M10.0003 20C9.84145 20.0004 9.68683 19.9486 9.56033 19.8524C9.43383 19.7563 9.34247 19.6212 9.30034 19.468C8.71038 17.3783 7.59423 15.475 6.05859 13.9399C4.52296 12.4047 2.6192 11.2892 0.529336 10.7C0.377782 10.6559 0.244627 10.5639 0.149878 10.4376C0.0551293 10.3114 0.00390625 10.1578 0.00390625 10C0.00390625 9.84217 0.0551293 9.6886 0.149878 9.56237C0.244627 9.43614 0.377782 9.34407 0.529336 9.3C2.61924 8.70988 4.52292 7.59372 6.05849 6.05815C7.59406 4.52258 8.71022 2.61891 9.30034 0.529C9.34441 0.377447 9.43648 0.244291 9.56271 0.149542C9.68894 0.0547936 9.8425 0.00357056 10.0003 0.00357056C10.1582 0.00357056 10.3117 0.0547936 10.438 0.149542C10.5642 0.244291 10.6563 0.377447 10.7003 0.529C11.2898 2.61926 12.4057 4.5233 13.9414 6.05898C15.477 7.59465 17.3811 8.71058 19.4713 9.3C19.6229 9.34407 19.756 9.43614 19.8508 9.56237C19.9455 9.6886 19.9968 9.84217 19.9968 10C19.9968 10.1578 19.9455 10.3114 19.8508 10.4376C19.756 10.5639 19.6229 10.6559 19.4713 10.7C17.3819 11.2903 15.4787 12.4065 13.9435 13.9418C12.4083 15.4772 11.2924 17.3805 10.7023 19.47C10.6599 19.6232 10.5681 19.7582 10.4412 19.854C10.3143 19.9498 10.1593 20.0012 10.0003 20ZM2.30934 10C4.04249 10.6991 5.61687 11.7405 6.93834 13.062C8.25981 14.3835 9.30123 15.9578 10.0003 17.691C10.6994 15.9578 11.7409 14.3835 13.0623 13.062C14.3838 11.7405 15.9582 10.6991 17.6913 10C15.9582 9.30089 14.3838 8.25947 13.0623 6.938C11.7409 5.61653 10.6994 4.04215 10.0003 2.309C9.30123 4.04215 8.25981 5.61653 6.93834 6.938C5.61687 8.25947 4.04249 9.30089 2.30934 10Z" fill="#0F1A1C"/>
</g>
<defs>
<clipPath id="clip0_474_11">
<rect width="20" height="20" fill="white"/>
</clipPath>
</defs>
</svg>
