<svg width="20" height="20" viewBox="0 0 20 20" fill="none" xmlns="http://www.w3.org/2000/svg">
<path d="M17.375 1H10.885C10.6668 1.00096 10.451 1.04571 10.2503 1.13159C10.0497 1.21748 9.86836 1.34275 9.71702 1.5L0.610024 10.9C0.314965 11.2073 0.15178 11.6178 0.15533 12.0439C0.15888 12.4699 0.328884 12.8776 0.629024 13.18L6.82302 19.38C7.1259 19.6794 7.5337 19.8487 7.95957 19.8519C8.38544 19.8551 8.79572 19.6919 9.10302 19.397L18.503 10.297C18.6612 10.1438 18.7867 9.9602 18.8721 9.75725C18.9575 9.5543 19.001 9.33618 19 9.116V2.625C18.9995 2.19419 18.8281 1.78117 18.5235 1.47654C18.2189 1.1719 17.8058 1.00053 17.375 1ZM14.086 7.914C13.6905 7.914 13.3038 7.7967 12.9749 7.57694C12.646 7.35718 12.3896 7.04482 12.2383 6.67937C12.0869 6.31391 12.0473 5.91178 12.1245 5.52382C12.2016 5.13586 12.3921 4.77949 12.6718 4.49979C12.9515 4.22008 13.3079 4.0296 13.6958 3.95243C14.0838 3.87526 14.4859 3.91487 14.8514 4.06624C15.2168 4.21762 15.5292 4.47396 15.749 4.80286C15.9687 5.13176 16.086 5.51844 16.086 5.914C16.086 6.44443 15.8753 6.95314 15.5002 7.32821C15.1252 7.70329 14.6165 7.914 14.086 7.914Z" fill="#0F1A1C"/>
</svg>
