<svg width="20" height="20" viewBox="0 0 20 20" fill="none" xmlns="http://www.w3.org/2000/svg">
<g clip-path="url(#clip0_472_1144)">
<path d="M10.0002 19C9.79849 19 9.60042 18.9465 9.42616 18.845C7.94216 17.982 0.512165 13.4 0.0211647 7.863C-0.105005 6.47943 0.311484 5.10098 1.18268 4.01875C2.05387 2.93652 3.31157 2.23524 4.69016 2.063C5.67842 1.90914 6.68978 2.01877 7.62211 2.38082C8.55444 2.74286 9.37474 3.34451 10.0002 4.125C10.6248 3.34388 11.4449 2.74175 12.3772 2.37963C13.3095 2.01752 14.321 1.90829 15.3092 2.063C16.6878 2.23524 17.9455 2.93652 18.8167 4.01875C19.6878 5.10098 20.1043 6.47943 19.9782 7.863C19.4872 13.396 12.0582 17.982 10.5732 18.845C10.3992 18.9464 10.2015 18.9999 10.0002 19ZM5.54616 3.251C5.31961 3.251 5.09336 3.26737 4.86916 3.3C3.80884 3.43018 2.8406 3.96733 2.16888 4.79801C1.49717 5.6287 1.17456 6.68791 1.26916 7.752C1.70016 12.61 8.49016 16.849 10.0002 17.733C11.5102 16.848 18.3002 12.609 18.7332 7.752C18.8275 6.6875 18.5043 5.62803 17.8321 4.79732C17.1598 3.96661 16.1909 3.42971 15.1302 3.3C14.2266 3.15178 13.2992 3.29082 12.4788 3.69752C11.6584 4.10423 10.9863 4.7581 10.5572 5.567C10.4994 5.66331 10.4177 5.74302 10.32 5.79836C10.2223 5.85371 10.112 5.8828 9.99967 5.8828C9.88738 5.8828 9.777 5.85371 9.6793 5.79836C9.5816 5.74302 9.4999 5.66331 9.44217 5.567C9.07057 4.85834 8.50966 4.26666 7.82184 3.85778C7.13402 3.44891 6.34625 3.23886 5.54616 3.251Z" fill="#0F1A1C"/>
</g>
<defs>
<clipPath id="clip0_472_1144">
<rect width="20" height="20" fill="white"/>
</clipPath>
</defs>
</svg>
