<svg width="20" height="20" viewBox="0 0 20 20" fill="none" xmlns="http://www.w3.org/2000/svg">
<g clip-path="url(#clip0_474_60)">
<path d="M10.2731 0.221L10.0001 0.0869999L9.72705 0.221C7.98687 1.07819 6.52525 2.41102 5.51163 4.06499C4.49801 5.71895 3.9739 7.62632 4.00005 9.566V18H16.0001V9.566C16.0262 7.62632 15.5021 5.71895 14.4885 4.06499C13.4749 2.41102 12.0132 1.07819 10.2731 0.221ZM10.0001 11C9.40671 11 8.82669 10.8241 8.33334 10.4944C7.83999 10.1648 7.45548 9.69623 7.22841 9.14805C7.00135 8.59987 6.94194 7.99667 7.0577 7.41473C7.17345 6.83279 7.45917 6.29824 7.87873 5.87868C8.29829 5.45912 8.83284 5.1734 9.41478 5.05764C9.99673 4.94189 10.5999 5.0013 11.1481 5.22836C11.6963 5.45542 12.1648 5.83994 12.4945 6.33329C12.8241 6.82664 13.0001 7.40666 13.0001 8C13.0001 8.79565 12.684 9.55871 12.1214 10.1213C11.5588 10.6839 10.7957 11 10.0001 11ZM2.62505 10.575V18H2.12505C1.82384 17.9963 1.53635 17.8734 1.32551 17.6583C1.11467 17.4431 0.99765 17.1532 1.00005 16.852V13.711C0.996818 13.0958 1.14301 12.489 1.42606 11.9427C1.70911 11.3965 2.12056 10.9271 2.62505 10.575ZM19.0001 13.711V16.852C19.0025 17.1532 18.8854 17.4431 18.6746 17.6583C18.4638 17.8734 18.1763 17.9963 17.8751 18H17.3751V10.575C17.8795 10.9271 18.291 11.3965 18.574 11.9427C18.8571 12.489 19.0033 13.0958 19.0001 13.711ZM7.00005 18.75H13.0001V20H7.00005V18.75Z" fill="#0F1A1C"/>
</g>
<defs>
<clipPath id="clip0_474_60">
<rect width="20" height="20" fill="white"/>
</clipPath>
</defs>
</svg>
