<svg width="20" height="20" viewBox="0 0 20 20" fill="none" xmlns="http://www.w3.org/2000/svg">
<path d="M1.625 9.578C1.79076 9.578 1.94973 9.51215 2.06694 9.39494C2.18415 9.27773 2.25 9.11876 2.25 8.953V6.438H5.2L7.9 9.493C8.01096 9.61279 8.16439 9.68439 8.32747 9.6925C8.49055 9.70061 8.65033 9.64458 8.77262 9.5364C8.89492 9.42821 8.97002 9.27646 8.98187 9.11361C8.99371 8.95076 8.94136 8.78974 8.836 8.665L6.778 6.331C7.36597 6.18782 7.88991 5.85381 8.26789 5.38121C8.64586 4.90861 8.85654 4.32406 8.867 3.719C8.85098 2.98341 8.54401 2.28416 8.01335 1.7745C7.4827 1.26484 6.77164 0.986327 6.036 0.999999H1.625C1.45924 0.999999 1.30027 1.06585 1.18306 1.18306C1.06585 1.30027 1 1.45924 1 1.625V8.953C1 9.11876 1.06585 9.27773 1.18306 9.39494C1.30027 9.51215 1.45924 9.578 1.625 9.578ZM2.25 2.25H6.036C6.44017 2.23621 6.83336 2.38299 7.12962 2.65826C7.42588 2.93354 7.60111 3.3149 7.617 3.719C7.60111 4.12309 7.42588 4.50446 7.12962 4.77974C6.83336 5.05501 6.44017 5.20179 6.036 5.188H2.25V2.25ZM11.625 9.578C11.7908 9.578 11.9497 9.51215 12.0669 9.39494C12.1842 9.27773 12.25 9.11876 12.25 8.953V6.438H16.125C16.8667 6.45818 17.586 6.18316 18.1251 5.67336C18.6641 5.16355 18.9788 4.46064 19 3.719C18.9788 2.97736 18.6641 2.27445 18.1251 1.76464C17.586 1.25484 16.8667 0.979823 16.125 0.999999H11.625C11.4592 0.999999 11.3003 1.06585 11.1831 1.18306C11.0658 1.30027 11 1.45924 11 1.625V8.953C11 9.11876 11.0658 9.27773 11.1831 9.39494C11.3003 9.51215 11.4592 9.578 11.625 9.578ZM12.25 2.25H16.125C16.5349 2.23092 16.9357 2.37463 17.2401 2.64979C17.5445 2.92496 17.7278 3.30928 17.75 3.719C17.7278 4.12872 17.5445 4.51304 17.2401 4.78821C16.9357 5.06337 16.5349 5.20707 16.125 5.188H12.25V2.25ZM19 14.188V18.375C19 18.5408 18.9342 18.6997 18.8169 18.8169C18.6997 18.9342 18.5408 19 18.375 19C18.2092 19 18.0503 18.9342 17.9331 18.8169C17.8158 18.6997 17.75 18.5408 17.75 18.375V14.188C17.7168 13.4905 17.409 12.8344 16.8937 12.363C16.3785 11.8916 15.6977 11.6432 15 11.672C14.3023 11.6432 13.6215 11.8916 13.1063 12.363C12.591 12.8344 12.2832 13.4905 12.25 14.188V18.375C12.25 18.5408 12.1842 18.6997 12.0669 18.8169C11.9497 18.9342 11.7908 19 11.625 19C11.4592 19 11.3003 18.9342 11.1831 18.8169C11.0658 18.6997 11 18.5408 11 18.375V14.188C11.0329 13.1588 11.4724 12.1846 12.2221 11.4787C12.9718 10.7729 13.9707 10.3929 15 10.422C16.0293 10.3929 17.0282 10.7729 17.7779 11.4787C18.5276 12.1846 18.9671 13.1588 19 14.188ZM5 10.422C3.97069 10.3929 2.9718 10.7729 2.22208 11.4787C1.47237 12.1846 1.03292 13.1588 1 14.188V18.375C1 18.5408 1.06585 18.6997 1.18306 18.8169C1.30027 18.9342 1.45924 19 1.625 19C1.79076 19 1.94973 18.9342 2.06694 18.8169C2.18415 18.6997 2.25 18.5408 2.25 18.375V15.859H7.75V18.375C7.75 18.5408 7.81585 18.6997 7.93306 18.8169C8.05027 18.9342 8.20924 19 8.375 19C8.54076 19 8.69973 18.9342 8.81694 18.8169C8.93415 18.6997 9 18.5408 9 18.375V14.188C8.96708 13.1588 8.52763 12.1846 7.77792 11.4787C7.0282 10.7729 6.02931 10.3929 5 10.422ZM2.25 14.609V14.188C2.28321 13.4905 2.59103 12.8344 3.10626 12.363C3.62148 11.8916 4.30227 11.6432 5 11.672C5.69773 11.6432 6.37852 11.8916 6.89374 12.363C7.40897 12.8344 7.71679 13.4905 7.75 14.188V14.609H2.25Z" fill="#0F1A1C"/>
</svg>
