<svg width="20" height="20" viewBox="0 0 20 20" fill="none" xmlns="http://www.w3.org/2000/svg">
<path d="M2.625 5.629C2.62711 4.834 2.94386 4.07216 3.50601 3.51001C4.06816 2.94786 4.83 2.63111 5.625 2.629H16C16.0003 2.41534 15.9584 2.20372 15.8769 2.00622C15.7954 1.80872 15.6758 1.62922 15.5249 1.47795C15.374 1.32668 15.1948 1.20662 14.9975 1.12461C14.8002 1.04261 14.5887 1.00026 14.375 1H2.625C2.19436 1.00053 1.78149 1.17177 1.47689 1.47618C1.17229 1.7806 1.00079 2.19336 1 2.624V14.375C1.00053 14.8058 1.1719 15.2188 1.47654 15.5235C1.78117 15.8281 2.19419 15.9995 2.625 16V5.629Z" fill="#0F1A1C"/>
<path d="M17.375 4H5.625C5.19419 4.00053 4.78117 4.1719 4.47654 4.47654C4.1719 4.78117 4.00053 5.19419 4 5.625V17.375C4.00053 17.8058 4.1719 18.2188 4.47654 18.5235C4.78117 18.8281 5.19419 18.9995 5.625 19H17.375C17.8058 18.9995 18.2188 18.8281 18.5235 18.5235C18.8281 18.2188 18.9995 17.8058 19 17.375V5.625C18.9995 5.19419 18.8281 4.78117 18.5235 4.47654C18.2188 4.1719 17.8058 4.00053 17.375 4ZM15.5 12.25H12.25V15.5H10.75V12.25H7.5V10.75H10.75V7.5H12.25V10.75H15.5V12.25Z" fill="#0F1A1C"/>
</svg>
