<svg width="20" height="20" viewBox="0 0 20 20" fill="none" xmlns="http://www.w3.org/2000/svg">
<path d="M18.9419 7.058L12.7999 0.911999L11.9169 1.795L16.9959 6.875H14.1249C10.9793 6.86749 7.93455 7.9845 5.5401 10.0245C3.14565 12.0645 1.55916 14.8931 1.06689 18H2.33389C2.82054 15.2285 4.2704 12.7179 6.42767 10.9112C8.58494 9.10448 11.311 8.11771 14.1249 8.125H16.9909L11.9119 13.205L12.7949 14.088L18.9419 7.942C18.9999 7.88396 19.046 7.81505 19.0774 7.73921C19.1088 7.66337 19.125 7.58209 19.125 7.5C19.125 7.41791 19.1088 7.33662 19.0774 7.26078C19.046 7.18494 18.9999 7.11604 18.9419 7.058Z" fill="#0F1A1C"/>
</svg>
