<svg width="20" height="20" viewBox="0 0 20 20" fill="none" xmlns="http://www.w3.org/2000/svg">
<path d="M11.3752 10.0002C11.3752 10.2721 11.2946 10.538 11.1435 10.7641C10.9924 10.9902 10.7776 11.1665 10.5264 11.2705C10.2751 11.3746 9.99867 11.4018 9.73195 11.3488C9.46523 11.2957 9.22022 11.1648 9.02793 10.9725C8.83563 10.7802 8.70467 10.5352 8.65162 10.2684C8.59857 10.0017 8.62579 9.72526 8.72987 9.47401C8.83394 9.22276 9.01017 9.00802 9.23629 8.85693C9.46241 8.70584 9.72825 8.6252 10.0002 8.6252C10.3647 8.62573 10.7141 8.77076 10.9719 9.02851C11.2296 9.28626 11.3747 9.63569 11.3752 10.0002ZM8.1872 11.8902L6.6482 14.5562L7.1892 14.8682C8.04312 15.3638 9.01288 15.6248 10.0002 15.6248C10.9875 15.6248 11.9573 15.3638 12.8112 14.8682L13.3522 14.5562L11.8132 11.8902C11.3278 12.3624 10.6774 12.6266 10.0002 12.6266C9.32303 12.6266 8.67258 12.3624 8.1872 11.8902ZM9.2732 7.4902L7.7302 4.8182L7.1882 5.1322C6.33492 5.62717 5.62621 6.33705 5.13267 7.19115C4.63912 8.04525 4.37796 9.01376 4.3752 10.0002V10.6252H7.4582C7.28741 9.96895 7.38217 9.27184 7.72192 8.68499C8.06168 8.09814 8.61905 7.66885 9.2732 7.4902ZM12.6252 10.0002C12.6227 10.2111 12.5948 10.4209 12.5422 10.6252H15.6252V10.0002C15.6224 9.01376 15.3613 8.04525 14.8677 7.19115C14.3742 6.33705 13.6655 5.62717 12.8122 5.1322L12.2702 4.8182L10.7272 7.4902C11.2726 7.64687 11.7524 7.97623 12.0946 8.42881C12.4368 8.8814 12.623 9.43279 12.6252 10.0002ZM10.0002 19.9902C9.39257 19.9917 8.79066 19.8729 8.22923 19.6405C7.6678 19.4081 7.15797 19.0667 6.7292 18.6362L1.3642 13.2712C0.496948 12.4035 0.00976563 11.227 0.00976562 10.0002C0.00976562 8.77343 0.496948 7.59687 1.3642 6.7292L6.7292 1.3642C7.59687 0.496948 8.77343 0.00976563 10.0002 0.00976562C11.227 0.00976563 12.4035 0.496948 13.2712 1.3642L18.6362 6.7282C19.5035 7.59587 19.9906 8.77243 19.9906 9.9992C19.9906 11.226 19.5035 12.4025 18.6362 13.2702L13.2722 18.6352C12.8434 19.066 12.3334 19.4076 11.7718 19.6402C11.2102 19.8728 10.6081 19.9917 10.0002 19.9902ZM10.0002 1.2602C9.55693 1.25899 9.11782 1.34569 8.70827 1.51528C8.29871 1.68486 7.92686 1.93397 7.6142 2.2482L2.2492 7.6142C1.93583 7.92751 1.68725 8.29949 1.51765 8.70888C1.34805 9.11827 1.26076 9.55707 1.26076 10.0002C1.26076 10.4433 1.34805 10.8821 1.51765 11.2915C1.68725 11.7009 1.93583 12.0729 2.2492 12.3862L7.6152 17.7522C8.25842 18.365 9.11278 18.7069 10.0012 18.7069C10.8896 18.7069 11.744 18.365 12.3872 17.7522L17.7522 12.3862C18.0656 12.0729 18.3142 11.7009 18.4838 11.2915C18.6534 10.8821 18.7406 10.4433 18.7406 10.0002C18.7406 9.55707 18.6534 9.11827 18.4838 8.70888C18.3142 8.29949 18.0656 7.92751 17.7522 7.6142L12.3862 2.2492C12.0737 1.93466 11.7019 1.68528 11.2923 1.5155C10.8828 1.34573 10.4436 1.25896 10.0002 1.2602Z" fill="#0F1A1C"/>
</svg>
