<svg width="20" height="20" viewBox="0 0 20 20" fill="none" xmlns="http://www.w3.org/2000/svg">
<g clip-path="url(#clip0_1581_844)">
<path d="M5.61328 3.6272V2.3772H5.11328C4.74842 2.37667 4.39869 2.23136 4.14089 1.97318C3.88308 1.715 3.73828 1.36506 3.73828 1.0002V0.500198H2.48828V1.0002C2.48828 1.36506 2.34348 1.715 2.08567 1.97318C1.82787 2.23136 1.47814 2.37667 1.11328 2.3772H0.613281V3.6272H1.11328C1.47753 3.62746 1.82681 3.77214 2.08455 4.02951C2.3423 4.28688 2.48749 4.63595 2.48828 5.0002V5.5002H3.73828V5.0002C3.73908 4.63595 3.88426 4.28688 4.14201 4.02951C4.39976 3.77214 4.74904 3.62746 5.11328 3.6272H5.61328ZM3.11328 3.3002C3.02162 3.19219 2.92129 3.09186 2.81328 3.0002C2.92102 2.90825 3.02133 2.80794 3.11328 2.7002C3.20549 2.8077 3.30578 2.90799 3.41328 3.0002C3.30552 3.09212 3.2052 3.19243 3.11328 3.3002ZM18.8613 4.8762V6.1262H18.5613C18.4089 6.12646 18.2628 6.18713 18.155 6.2949C18.0472 6.40268 17.9865 6.54878 17.9863 6.7012V7.0002H16.7363V6.7002C16.736 6.54778 16.6754 6.40168 16.5676 6.2939C16.4598 6.18613 16.3137 6.12546 16.1613 6.1252H15.8613V4.8762H16.1613C16.2368 4.8762 16.3116 4.86133 16.3813 4.83243C16.4511 4.80353 16.5145 4.76118 16.5679 4.70778C16.6213 4.65439 16.6636 4.591 16.6925 4.52124C16.7214 4.45148 16.7363 4.37671 16.7363 4.3012V4.0002H17.9863V4.3002C17.9863 4.37571 18.0012 4.45048 18.0301 4.52024C18.0589 4.59 18.1013 4.65339 18.1547 4.70678C18.2081 4.76018 18.2715 4.80253 18.3412 4.83143C18.411 4.86033 18.4858 4.8752 18.5613 4.8752L18.8613 4.8762ZM13.3743 8.0002H12.9993V1.4002C13.0014 1.12137 12.9197 0.848341 12.7647 0.61653C12.6098 0.384719 12.3887 0.204828 12.1303 0.100198C11.8817 -0.00134642 11.6081 -0.0244433 11.346 0.0340069C11.084 0.0924572 10.8461 0.229658 10.6643 0.427198L7.59928 3.6542C7.21181 4.06118 6.99681 4.60227 6.99928 5.1642V8.0002H6.62428C6.19329 8.00073 5.78012 8.17224 5.47546 8.47709C5.1708 8.78194 4.99955 9.19521 4.99928 9.6262V18.3752C4.99981 18.806 5.17119 19.219 5.47582 19.5237C5.78045 19.8283 6.19347 19.9997 6.62428 20.0002H13.3743C13.8051 19.9997 14.2181 19.8283 14.5227 19.5237C14.8274 19.219 14.9988 18.806 14.9993 18.3752V9.6262C14.999 9.19521 14.8278 8.78194 14.5231 8.47709C14.2184 8.17224 13.8053 8.00073 13.3743 8.0002ZM8.24928 5.1642C8.24734 4.9243 8.33671 4.69263 8.49928 4.5162L11.6643 1.2592C11.6916 1.27122 11.7143 1.29171 11.7291 1.31764C11.7439 1.34358 11.7499 1.37357 11.7463 1.4032V8.0002H8.24928V5.1642ZM13.7493 18.3752C13.7493 18.4747 13.7098 18.57 13.6394 18.6404C13.5691 18.7107 13.4737 18.7502 13.3743 18.7502H6.62428C6.52483 18.7502 6.42944 18.7107 6.35912 18.6404C6.28879 18.57 6.24928 18.4747 6.24928 18.3752V9.6262C6.24928 9.52674 6.28879 9.43136 6.35912 9.36103C6.42944 9.29071 6.52483 9.2512 6.62428 9.2512H13.3743C13.4737 9.2512 13.5691 9.29071 13.6394 9.36103C13.7098 9.43136 13.7493 9.52674 13.7493 9.6262V18.3752ZM10.7343 11.1002H11.9843V16.9212H10.7343V11.1002Z" fill="#0F1A1C"/>
</g>
<defs>
<clipPath id="clip0_1581_844">
<rect width="20" height="20" fill="white"/>
</clipPath>
</defs>
</svg>
