<svg width="20" height="20" viewBox="0 0 20 20" fill="none" xmlns="http://www.w3.org/2000/svg">
<path d="M12.044 2.419C12.044 2.82326 11.9241 3.21845 11.6995 3.55459C11.4749 3.89072 11.1557 4.1527 10.7822 4.30741C10.4087 4.46212 9.99773 4.50259 9.60124 4.42373C9.20474 4.34486 8.84053 4.15018 8.55467 3.86433C8.26882 3.57847 8.07414 3.21426 7.99528 2.81776C7.91641 2.42127 7.95688 2.01029 8.11159 1.6368C8.2663 1.2633 8.52828 0.944074 8.86441 0.719476C9.20055 0.494879 9.59573 0.375 10 0.375C10.5421 0.375 11.062 0.590349 11.4453 0.973674C11.8287 1.357 12.044 1.8769 12.044 2.419ZM7.35 18.989H13.615L8.415 16.983C8.24269 17.7337 7.87532 18.4257 7.35 18.989ZM19 2.625V17.375C18.9989 17.7832 18.8438 18.1759 18.5657 18.4748C18.2876 18.7736 17.9071 18.9565 17.5 18.987L7.125 14.987V16.008C7.12259 16.7438 6.84781 17.4526 6.35366 17.9977C5.8595 18.5428 5.18099 18.8856 4.449 18.96C3.50399 18.8599 2.62924 18.4143 1.99268 17.7087C1.35612 17.0031 1.0026 16.0873 1 15.137V2.625C1.00053 2.19419 1.1719 1.78117 1.47654 1.47654C1.78117 1.1719 2.19419 1.00053 2.625 1H6.87C6.66446 1.4449 6.55736 1.92892 6.556 2.419C6.55336 2.93444 6.66645 3.44391 6.88694 3.90982C7.10742 4.37574 7.42967 4.78622 7.82993 5.111C8.23019 5.43577 8.69825 5.66657 9.19959 5.78636C9.70093 5.90614 10.2228 5.91187 10.7266 5.80311C11.2305 5.69436 11.7035 5.4739 12.1108 5.15798C12.518 4.84206 12.8492 4.43875 13.0799 3.97779C13.3105 3.51683 13.4348 3.00997 13.4435 2.49459C13.4521 1.97921 13.345 1.46846 13.13 1H17.375C17.8058 1.00053 18.2188 1.1719 18.5235 1.47654C18.8281 1.78117 18.9995 2.19419 19 2.625ZM11.686 11H6V12.5H11.686V11ZM14 8H6V9.5H14V8Z" fill="#0F1A1C"/>
</svg>
