<svg width="20" height="20" viewBox="0 0 20 20" fill="none" xmlns="http://www.w3.org/2000/svg">
<path d="M4.114 20C3.81845 19.9992 3.53525 19.8813 3.32645 19.6721C3.11765 19.463 3.00026 19.1796 3 18.884V2.628C3.00026 2.19631 3.17187 1.78237 3.47712 1.47712C3.78237 1.17187 4.19631 1.00026 4.628 1H15.372C15.8037 1.00026 16.2176 1.17187 16.5229 1.47712C16.8281 1.78237 16.9997 2.19631 17 2.628V18.873C17.0001 19.0734 16.9465 19.2702 16.8446 19.4428C16.7427 19.6153 16.5963 19.7574 16.4207 19.854C16.2452 19.9507 16.0469 19.9985 15.8466 19.9923C15.6463 19.9861 15.4513 19.9263 15.282 19.819L10 16.479L4.709 19.825C4.53135 19.9387 4.32494 19.9994 4.114 20ZM4.628 2.25C4.52775 2.25 4.4316 2.28982 4.36071 2.36071C4.28982 2.4316 4.25 2.52775 4.25 2.628V18.637L10 15L15.75 18.636V2.628C15.75 2.57836 15.7402 2.52921 15.7212 2.48335C15.7022 2.43748 15.6744 2.39581 15.6393 2.36071C15.6042 2.32561 15.5625 2.29777 15.5167 2.27877C15.4708 2.25978 15.4216 2.25 15.372 2.25H4.628Z" fill="#0F1A1C"/>
</svg>
