<svg width="20" height="20" viewBox="0 0 20 20" fill="none" xmlns="http://www.w3.org/2000/svg">
<g clip-path="url(#clip0_472_1143)">
<path d="M19.915 9.571C19.1059 7.61189 17.7296 5.93944 15.9628 4.76852C14.196 3.59761 12.1195 2.98172 9.99997 3C7.88021 2.98174 5.80342 3.59773 4.03644 4.76883C2.26946 5.93993 0.893013 7.61263 0.083969 9.572C-0.0270131 9.84654 -0.0270131 10.1535 0.083969 10.428C0.636495 11.7808 1.46829 13.0017 2.52497 14.011C4.53439 15.9395 7.21485 17.0114 9.99997 17C12.5861 17.0056 15.0884 16.083 17.052 14.4C18.3042 13.3216 19.2848 11.9632 19.914 10.435C20.0286 10.1585 20.029 9.84778 19.915 9.571ZM9.99997 14C9.20884 14 8.43548 13.7654 7.77769 13.3259C7.11989 12.8864 6.6072 12.2616 6.30445 11.5307C6.0017 10.7998 5.92249 9.99556 6.07683 9.21964C6.23117 8.44371 6.61213 7.73098 7.17154 7.17157C7.73095 6.61216 8.44368 6.2312 9.21961 6.07686C9.99553 5.92252 10.7998 6.00173 11.5307 6.30448C12.2616 6.60723 12.8863 7.11992 13.3258 7.77772C13.7654 8.43551 14 9.20887 14 10C14 11.0609 13.5785 12.0783 12.8284 12.8284C12.0782 13.5786 11.0608 14 9.99997 14Z" fill="#0F1A1C"/>
</g>
<defs>
<clipPath id="clip0_472_1143">
<rect width="20" height="20" fill="white"/>
</clipPath>
</defs>
</svg>
