<svg width="20" height="20" viewBox="0 0 20 20" fill="none" xmlns="http://www.w3.org/2000/svg">
<path d="M10 4C9.10998 4 8.23995 4.26392 7.49993 4.75839C6.75991 5.25285 6.18314 5.95566 5.84254 6.77792C5.50195 7.60019 5.41283 8.50499 5.58647 9.37791C5.7601 10.2508 6.18868 11.0526 6.81802 11.682C7.44736 12.3113 8.24918 12.7399 9.12209 12.9135C9.99501 13.0872 10.8998 12.9981 11.7221 12.6575C12.5443 12.3169 13.2471 11.7401 13.7416 11.0001C14.2361 10.26 14.5 9.39002 14.5 8.5C14.4987 7.30693 14.0241 6.16311 13.1805 5.31948C12.3369 4.47585 11.1931 4.00132 10 4ZM6.75 8.5C6.748 7.85459 6.93959 7.22341 7.3 6.688L11.812 11.2C11.3229 11.5293 10.7534 11.7193 10.1645 11.7495C9.57565 11.7797 8.98966 11.6491 8.46941 11.3716C7.94915 11.0941 7.51425 10.6802 7.21134 10.1743C6.90843 9.66843 6.74895 9.08964 6.75 8.5ZM12.7 10.312L8.188 5.8C8.81313 5.37517 9.56684 5.18165 10.3193 5.25278C11.0718 5.32391 11.7759 5.65524 12.3103 6.18968C12.8448 6.72413 13.1761 7.42823 13.2472 8.18069C13.3183 8.93316 13.1248 9.68687 12.7 10.312ZM16.377 1H3.623C2.92758 1.00079 2.26087 1.2774 1.76914 1.76914C1.2774 2.26087 1.00079 2.92758 1 3.623V13.423C1.00106 14.1063 1.27304 14.7613 1.75631 15.2444C2.23958 15.7275 2.89469 15.9992 3.578 16H7.012V18.664C7.01226 18.9596 7.12945 19.243 7.33798 19.4525C7.5465 19.662 7.82944 19.7804 8.125 19.782C8.41327 19.7781 8.68982 19.6673 8.901 19.471L12.331 16H16.377C17.0724 15.9992 17.7391 15.7226 18.2309 15.2309C18.7226 14.7391 18.9992 14.0724 19 13.377V3.623C18.9992 2.92758 18.7226 2.26087 18.2309 1.76914C17.7391 1.2774 17.0724 1.00079 16.377 1ZM17.75 13.377C17.7495 13.741 17.6046 14.0899 17.3473 14.3473C17.0899 14.6046 16.741 14.7495 16.377 14.75H11.81L8.262 18.342V14.75H3.578C3.22578 14.7495 2.88816 14.6093 2.63919 14.3601C2.39023 14.1109 2.25026 13.7732 2.25 13.421V3.621C2.25106 3.25737 2.39612 2.90896 2.65343 2.65202C2.91075 2.39508 3.25937 2.25053 3.623 2.25H16.377C16.741 2.25053 17.0899 2.39535 17.3473 2.65273C17.6046 2.9101 17.7495 3.25902 17.75 3.623V13.377Z" fill="#0F1A1C"/>
</svg>
