<svg width="20" height="20" viewBox="0 0 20 20" fill="none" xmlns="http://www.w3.org/2000/svg">
<path d="M4.8 7C4.76802 6.79378 4.74998 6.58564 4.746 6.377C4.73514 5.58682 4.95288 4.81033 5.373 4.141C5.81313 3.45929 6.43717 2.91603 7.173 2.574C8.03031 2.17532 8.96776 1.97894 9.913 2C11.0944 1.9658 12.2607 2.27196 13.273 2.882C14.1706 3.43228 14.878 4.2444 15.3 5.209L11.942 6.568C11.8558 6.3326 11.7304 6.1135 11.571 5.92C11.3805 5.67915 11.1452 5.47744 10.878 5.326C10.5988 5.16256 10.2805 5.07789 9.957 5.081C9.6886 5.08071 9.42292 5.1348 9.176 5.24C8.93251 5.34052 8.71998 5.50372 8.56 5.713C8.39714 5.92816 8.31216 6.19224 8.319 6.462C8.31784 6.64673 8.35424 6.82977 8.426 7H4.8ZM19 9H1V11H8.8C8.848 11.016 8.89 11.036 8.938 11.052L9.201 11.136C9.717 11.292 10.1713 11.448 10.564 11.604C10.9495 11.7551 11.3045 11.9747 11.612 12.252C11.7558 12.3733 11.8712 12.5246 11.9504 12.6953C12.0295 12.866 12.0703 13.0519 12.07 13.24C12.0687 13.52 11.9811 13.7927 11.819 14.021C11.6438 14.2728 11.4074 14.4758 11.132 14.611C10.8342 14.7615 10.5046 14.838 10.171 14.834C9.57785 14.8384 9.00546 14.6158 8.571 14.212C8.11686 13.8113 7.77265 13.3011 7.571 12.73L4.171 14.13C4.41651 14.8535 4.83057 15.5081 5.379 16.04C5.99191 16.6499 6.71867 17.1334 7.518 17.463C8.36603 17.823 9.27874 18.0057 10.2 18C11.1787 18.0162 12.1461 17.7898 13.016 17.341C13.8091 16.9345 14.4795 16.3238 14.958 15.572C15.4176 14.8539 15.6606 14.0186 15.658 13.166C15.6763 12.4006 15.4675 11.6469 15.058 11H19V9Z" fill="#0F1A1C"/>
</svg>
