<svg width="20" height="20" viewBox="0 0 20 20" fill="none" xmlns="http://www.w3.org/2000/svg">
<path d="M18.75 14H20V15.375C19.9983 15.9612 19.8005 16.5299 19.438 16.9906C19.0756 17.4513 18.5693 17.7774 18 17.917V16.593C18.2249 16.4785 18.4138 16.3043 18.5461 16.0894C18.6784 15.8745 18.749 15.6273 18.75 15.375V14ZM18.75 8V12H20V8H18.75ZM16 3.25V2H12V3.25H16ZM12 16.75V18H16V16.75H12ZM18.75 4.625V6H20V4.625C19.9983 4.03882 19.8005 3.47006 19.438 3.00937C19.0756 2.54868 18.5693 2.22257 18 2.083V3.407C18.2249 3.5215 18.4138 3.69575 18.5461 3.91062C18.6784 4.12549 18.749 4.37266 18.75 4.625ZM2.625 16.75C2.26049 16.7495 1.91106 16.6044 1.65331 16.3467C1.39556 16.0889 1.25053 15.7395 1.25 15.375V4.625C1.25053 4.26049 1.39556 3.91106 1.65331 3.65331C1.91106 3.39556 2.26049 3.25053 2.625 3.25H10V2H2.625C1.92913 2.00106 1.26207 2.27796 0.770013 2.77001C0.277959 3.26207 0.00105795 3.92913 0 4.625V15.375C0.00105795 16.0709 0.277959 16.7379 0.770013 17.23C1.26207 17.722 1.92913 17.9989 2.625 18H10V16.75H2.625ZM9.137 13.813L14.456 10.606C14.5608 10.5433 14.6476 10.4546 14.7079 10.3484C14.7681 10.2421 14.7998 10.1221 14.7998 10C14.7998 9.87788 14.7681 9.75785 14.7079 9.65164C14.6476 9.54542 14.5608 9.45665 14.456 9.394L9.137 6.187C9.02783 6.12086 8.90299 6.08507 8.77536 6.08331C8.64773 6.08155 8.52195 6.11389 8.411 6.177C8.30664 6.24407 8.21956 6.3348 8.15683 6.44183C8.09411 6.54886 8.05751 6.66917 8.05 6.793V13.207C8.0502 13.3325 8.08373 13.4556 8.14716 13.5638C8.2106 13.6721 8.30165 13.7615 8.411 13.823C8.5194 13.8789 8.64007 13.9067 8.762 13.904C8.89285 13.9074 9.02227 13.876 9.137 13.813ZM13.042 10L9.3 12.256V7.744L13.042 10Z" fill="#0F1A1C"/>
</svg>
