<svg width="20" height="20" viewBox="0 0 20 20" fill="none" xmlns="http://www.w3.org/2000/svg">
<path d="M16.375 8H6.25V5.312C6.21153 4.27683 6.58437 3.26852 7.28703 2.50739C7.9897 1.74627 8.96506 1.29421 10 1.25C10.9791 1.28987 11.9068 1.69861 12.597 2.39418C13.2872 3.08975 13.6887 4.02065 13.721 5H14.97C14.9362 3.68972 14.4026 2.44195 13.4786 1.51235C12.5546 0.582749 11.3101 0.0416808 10 0C8.63349 0.0441579 7.34014 0.62791 6.40305 1.62348C5.46596 2.61904 4.96146 3.94532 5 5.312V8H3.625C3.19348 8.00106 2.78002 8.17329 2.47535 8.47889C2.17069 8.78449 1.99973 9.19848 2 9.63V17.37C1.99973 17.8015 2.17069 18.2155 2.47535 18.5211C2.78002 18.8267 3.19348 18.9989 3.625 19H16.375C16.8065 18.9989 17.22 18.8267 17.5246 18.5211C17.8293 18.2155 18.0003 17.8015 18 17.37V9.63C18.0003 9.19848 17.8293 8.78449 17.5246 8.47889C17.22 8.17329 16.8065 8.00106 16.375 8ZM16.75 17.37C16.7505 17.4701 16.7114 17.5663 16.6411 17.6375C16.5708 17.7088 16.4751 17.7492 16.375 17.75H3.625C3.52492 17.7492 3.42924 17.7088 3.35894 17.6375C3.28865 17.5663 3.24947 17.4701 3.25 17.37V9.63C3.25076 9.53031 3.29036 9.43485 3.36038 9.36389C3.4304 9.29294 3.52533 9.25208 3.625 9.25H16.375C16.4751 9.25079 16.5708 9.29124 16.6411 9.36248C16.7114 9.43371 16.7505 9.52992 16.75 9.63V17.37Z" fill="#0F1A1C"/>
</svg>
