<svg width="20" height="20" viewBox="0 0 20 20" fill="none" xmlns="http://www.w3.org/2000/svg">
<path d="M5.75 19.5C4.35761 19.5 3.02226 18.9469 2.03769 17.9623C1.05312 16.9777 0.5 15.6424 0.5 14.25C0.5 12.8576 1.05312 11.5223 2.03769 10.5377C3.02226 9.55313 4.35761 9 5.75 9H14.25C14.8928 9 15.5211 8.80939 16.0556 8.45228C16.5901 8.09516 17.0066 7.58758 17.2526 6.99372C17.4986 6.39986 17.563 5.7464 17.4376 5.11596C17.3121 4.48552 17.0026 3.90643 16.5481 3.45191C16.0936 2.99738 15.5145 2.68785 14.884 2.56245C14.2536 2.43705 13.6001 2.50141 13.0063 2.74739C12.4124 2.99338 11.9048 3.40994 11.5477 3.9444C11.1906 4.47886 11 5.10721 11 5.75V7H9V5.75C9 4.71165 9.30791 3.69662 9.88478 2.83326C10.4617 1.9699 11.2816 1.29699 12.2409 0.899635C13.2002 0.502275 14.2558 0.398307 15.2742 0.60088C16.2926 0.803452 17.2281 1.30347 17.9623 2.03769C18.6965 2.77192 19.1966 3.70738 19.3991 4.72578C19.6017 5.74418 19.4977 6.79978 19.1004 7.75909C18.703 8.7184 18.0301 9.53834 17.1667 10.1152C16.3034 10.6921 15.2884 11 14.25 11H5.75C5.10721 11 4.47886 11.1906 3.9444 11.5477C3.40994 11.9048 2.99338 12.4124 2.74739 13.0063C2.50141 13.6001 2.43705 14.2536 2.56245 14.884C2.68785 15.5145 2.99738 16.0936 3.4519 16.5481C3.90642 17.0026 4.48552 17.3122 5.11596 17.4376C5.74639 17.563 6.39986 17.4986 6.99372 17.2526C7.58758 17.0066 8.09516 16.5901 8.45228 16.0556C8.80939 15.5211 9 14.8928 9 14.25V13H11V14.25C10.9984 15.6419 10.4448 16.9763 9.46056 17.9606C8.47634 18.9448 7.1419 19.4984 5.75 19.5Z" fill="#0F1A1C"/>
</svg>
