<svg width="20" height="20" viewBox="0 0 20 20" fill="none" xmlns="http://www.w3.org/2000/svg">
<g clip-path="url(#clip0_473_116)">
<path d="M10 0C8.02219 0 6.08879 0.58649 4.4443 1.6853C2.79981 2.78412 1.51809 4.3459 0.761209 6.17317C0.00433284 8.00043 -0.193701 10.0111 0.192152 11.9509C0.578004 13.8907 1.53041 15.6725 2.92894 17.0711C4.32746 18.4696 6.10929 19.422 8.0491 19.8079C9.98891 20.1937 11.9996 19.9957 13.8268 19.2388C15.6541 18.4819 17.2159 17.2002 18.3147 15.5557C19.4135 13.9112 20 11.9778 20 10C19.9971 7.34873 18.9426 4.80688 17.0679 2.93215C15.1931 1.05742 12.6513 0.0029116 10 0V0ZM13.832 12.418L12.418 13.832L10 11.414L7.582 13.832L6.168 12.418L8.58601 10L6.168 7.582L7.582 6.168L10 8.586L12.418 6.168L13.832 7.582L11.414 10L13.832 12.418Z" fill="#0F1A1C"/>
</g>
<defs>
<clipPath id="clip0_473_116">
<rect width="20" height="20" fill="white"/>
</clipPath>
</defs>
</svg>
