<svg width="20" height="20" viewBox="0 0 20 20" fill="none" xmlns="http://www.w3.org/2000/svg">
<path d="M16.375 8.5H3.625C3.12636 8.49843 2.63389 8.38966 2.18098 8.18106C1.72807 7.97246 1.3253 7.66892 1 7.291V16.405C1.00132 17.0937 1.27584 17.7537 1.76329 18.2402C2.25074 18.7268 2.9113 19 3.6 19H16.4C17.0887 19 17.7493 18.7268 18.2367 18.2402C18.7242 17.7537 18.9987 17.0937 19 16.405V7.291C18.6747 7.66892 18.2719 7.97246 17.819 8.18106C17.3661 8.38966 16.8736 8.49843 16.375 8.5ZM13.03 15.939L12.942 16.028L12.058 16.912L11.97 17L10 15.03L8.03 17L7.942 16.912L7.058 16.028L6.97 15.939L8.939 13.97L6.97 12L7.058 11.912L7.942 11.028L8.03 10.939L10 12.909L11.97 10.939L12.058 11.028L12.942 11.912L13.03 12L11.061 13.97L13.03 15.939ZM19 3.625V4.375C18.9989 5.07087 18.722 5.73793 18.23 6.22999C17.7379 6.72204 17.0709 6.99894 16.375 7H3.625C2.92913 6.99894 2.26207 6.72204 1.77001 6.22999C1.27796 5.73793 1.00106 5.07087 1 4.375V3.625C1.00106 2.92913 1.27796 2.26207 1.77001 1.77001C2.26207 1.27796 2.92913 1.00106 3.625 1H16.375C17.0709 1.00106 17.7379 1.27796 18.23 1.77001C18.722 2.26207 18.9989 2.92913 19 3.625Z" fill="#0F1A1C"/>
</svg>
