<svg width="20" height="20" viewBox="0 0 20 20" fill="none" xmlns="http://www.w3.org/2000/svg">
<g clip-path="url(#clip0_474_95)">
<path d="M9 3H7C7 2.20435 7.31607 1.44129 7.87868 0.87868C8.44129 0.31607 9.20435 0 10 0C10.7956 0 11.5587 0.31607 12.1213 0.87868C12.6839 1.44129 13 2.20435 13 3H11C11 2.73478 10.8946 2.48043 10.7071 2.29289C10.5196 2.10536 10.2652 2 10 2C9.73478 2 9.48043 2.10536 9.29289 2.29289C9.10536 2.48043 9 2.73478 9 3ZM20 5.607V17.393C19.9971 17.8213 19.8245 18.2309 19.5201 18.5321C19.2157 18.8333 18.8043 19.0016 18.376 19H1.624C1.19574 19.0016 0.784316 18.8333 0.479899 18.5321C0.175483 18.2309 0.00290857 17.8213 0 17.393L0 5.607C0.00290857 5.17875 0.175483 4.76912 0.479899 4.46789C0.784316 4.16666 1.19574 3.9984 1.624 4H18.376C18.8043 3.9984 19.2157 4.16666 19.5201 4.46789C19.8245 4.76912 19.9971 5.17875 20 5.607ZM5 10H7V8H5V10ZM13.375 12.625H6.625V14.3C6.63469 14.674 6.79241 15.0289 7.06353 15.2867C7.33464 15.5445 7.69699 15.6841 8.071 15.675H11.929C12.729 15.675 13.375 15.289 13.375 14.529V12.629V12.625ZM15 8H13V10H15V8Z" fill="#0F1A1C"/>
</g>
<defs>
<clipPath id="clip0_474_95">
<rect width="20" height="20" fill="white"/>
</clipPath>
</defs>
</svg>
