<svg width="20" height="20" viewBox="0 0 20 20" fill="none" xmlns="http://www.w3.org/2000/svg">
<path d="M8.5 11.625C8.4179 11.6251 8.33659 11.609 8.26073 11.5776C8.18488 11.5462 8.11598 11.5001 8.058 11.442L6.058 9.442L6.942 8.558L8.5 10.116L13.058 5.558L13.942 6.442L8.942 11.442C8.88402 11.5001 8.81512 11.5462 8.73927 11.5776C8.66341 11.609 8.5821 11.6251 8.5 11.625ZM8.9 19.471L12.331 16H16.377C17.0724 15.9992 17.7391 15.7226 18.2309 15.2309C18.7226 14.7391 18.9992 14.0724 19 13.377V3.623C18.9992 2.92758 18.7226 2.26087 18.2309 1.76914C17.7391 1.2774 17.0724 1.00079 16.377 1H3.623C2.92758 1.00079 2.26087 1.2774 1.76914 1.76914C1.2774 2.26087 1.00079 2.92758 1 3.623V13.423C1.00106 14.1063 1.27304 14.7613 1.75631 15.2444C2.23958 15.7275 2.89469 15.9992 3.578 16H7.012V18.664C7.01226 18.9596 7.12945 19.243 7.33798 19.4525C7.5465 19.662 7.82944 19.7804 8.125 19.782C8.41293 19.7779 8.68908 19.667 8.9 19.471ZM16.377 2.25C16.741 2.25053 17.0899 2.39535 17.3473 2.65273C17.6046 2.9101 17.7495 3.25902 17.75 3.623V13.377C17.7495 13.741 17.6046 14.0899 17.3473 14.3473C17.0899 14.6046 16.741 14.7495 16.377 14.75H11.81L8.262 18.342V14.75H3.578C3.22578 14.7495 2.88816 14.6093 2.63919 14.3601C2.39023 14.1109 2.25026 13.7732 2.25 13.421V3.621C2.25106 3.25737 2.39612 2.90896 2.65343 2.65202C2.91075 2.39508 3.25937 2.25053 3.623 2.25H16.377Z" fill="#0F1A1C"/>
</svg>
