<svg width="20" height="20" viewBox="0 0 20 20" fill="none" xmlns="http://www.w3.org/2000/svg">
<path d="M18.884 14.5378L16.1 11.5788C16.0195 11.4916 15.9141 11.4314 15.798 11.4065C15.682 11.3816 15.5612 11.3932 15.452 11.4398C15.341 11.4901 15.247 11.5717 15.1815 11.6745C15.116 11.7773 15.0818 11.8969 15.083 12.0188V13.9998H12C10.8708 14.0577 9.76435 13.6673 8.92157 12.9134C8.07879 12.1596 7.56787 11.1034 7.5 9.97475V9.91275C7.5 7.75575 9.519 5.99975 12 5.99975H15.082V8.02475C15.0808 8.1465 15.115 8.26598 15.1803 8.36874C15.2456 8.47149 15.3393 8.55312 15.45 8.60375C15.5593 8.65021 15.6803 8.66179 15.7965 8.63691C15.9126 8.61203 16.0183 8.55191 16.099 8.46475L18.89 5.49975C19.0158 5.35905 19.0845 5.17637 19.0825 4.98762C19.0804 4.79887 19.0078 4.6177 18.879 4.47975L16.094 1.57975C16.0131 1.49386 15.9076 1.43501 15.792 1.41121C15.6764 1.38741 15.5563 1.39982 15.448 1.44675C15.3377 1.49723 15.2445 1.5786 15.1795 1.68102C15.1145 1.78343 15.0807 1.90248 15.082 2.02375V3.99975H12C10.5092 3.94921 9.04811 4.42504 7.87297 5.34384C6.69782 6.26263 5.88359 7.56575 5.573 9.02475H1V10.9998H5.6C5.92091 12.4463 6.73493 13.7362 7.90257 14.6485C9.07021 15.5607 10.5188 16.0384 12 15.9998H15.083V18.0188C15.0817 18.14 15.1155 18.2591 15.1805 18.3615C15.2455 18.4639 15.3387 18.5453 15.449 18.5958C15.5574 18.6432 15.6778 18.6559 15.7936 18.6321C15.9095 18.6083 16.0151 18.5491 16.096 18.4628L18.873 15.5688C18.9998 15.4253 19.0739 15.243 19.083 15.0518C19.0753 14.8631 19.0053 14.6824 18.884 14.5378Z" fill="#0F1A1C"/>
</svg>
