<svg width="20" height="20" viewBox="0 0 20 20" fill="none" xmlns="http://www.w3.org/2000/svg">
<g clip-path="url(#clip0_474_55)">
<path d="M10 5.375C9.08527 5.375 8.19107 5.64625 7.43049 6.15445C6.66992 6.66265 6.07712 7.38498 5.72706 8.23009C5.37701 9.0752 5.28542 10.0051 5.46387 10.9023C5.64233 11.7995 6.08282 12.6236 6.72964 13.2704C7.37645 13.9172 8.20055 14.3577 9.09771 14.5361C9.99487 14.7146 10.9248 14.623 11.7699 14.2729C12.615 13.9229 13.3373 13.3301 13.8456 12.5695C14.3538 11.8089 14.625 10.9147 14.625 10C14.6234 8.77386 14.1356 7.5984 13.2686 6.73138C12.4016 5.86437 11.2261 5.37659 10 5.375ZM10 11.975C9.61011 11.975 9.22896 11.8594 8.90473 11.6429C8.5805 11.4263 8.32775 11.1185 8.1784 10.7583C8.02906 10.3982 7.98983 10.0018 8.06568 9.61938C8.14153 9.23694 8.32904 8.88555 8.60453 8.60965C8.88002 8.33374 9.23112 8.14569 9.61345 8.06926C9.99578 7.99283 10.3922 8.03145 10.7526 8.18025C11.113 8.32905 11.4212 8.58134 11.6382 8.90523C11.8553 9.22913 11.9714 9.6101 11.972 10C11.972 10.523 11.7642 11.0246 11.3944 11.3944C11.0246 11.7642 10.523 11.972 10 11.972V11.975Z" fill="#0F1A1C"/>
<path d="M10 0C8.02219 0 6.08879 0.58649 4.4443 1.6853C2.79981 2.78412 1.51809 4.3459 0.761209 6.17317C0.00433284 8.00043 -0.193701 10.0111 0.192152 11.9509C0.578004 13.8907 1.53041 15.6725 2.92894 17.0711C4.32746 18.4696 6.10929 19.422 8.0491 19.8079C9.98891 20.1937 11.9996 19.9957 13.8268 19.2388C15.6541 18.4819 17.2159 17.2002 18.3147 15.5557C19.4135 13.9112 20 11.9778 20 10C19.9971 7.34873 18.9426 4.80688 17.0679 2.93215C15.1931 1.05742 12.6513 0.0029116 10 0ZM10 16.125C8.78859 16.125 7.60439 15.7658 6.59714 15.0928C5.58989 14.4197 4.80483 13.4631 4.34124 12.3439C3.87766 11.2247 3.75636 9.99321 3.99269 8.80507C4.22903 7.61694 4.81238 6.52557 5.66898 5.66897C6.52557 4.81237 7.61694 4.22902 8.80508 3.99269C9.99321 3.75636 11.2247 3.87765 12.3439 4.34124C13.4631 4.80482 14.4197 5.58988 15.0928 6.59713C15.7658 7.60438 16.125 8.78859 16.125 10C16.1232 11.6239 15.4772 13.1807 14.329 14.329C13.1807 15.4772 11.6239 16.1231 10 16.125Z" fill="#0F1A1C"/>
</g>
<defs>
<clipPath id="clip0_474_55">
<rect width="20" height="20" fill="white"/>
</clipPath>
</defs>
</svg>
