<svg width="20" height="20" viewBox="0 0 20 20" fill="none" xmlns="http://www.w3.org/2000/svg">
<g clip-path="url(#clip0_1136_30)">
<path d="M7.16996 19.4999L7.43396 19.6509C5.83191 19.2298 4.36 18.4163 3.15117 17.2837C1.94234 16.1512 1.03468 14.7354 0.510177 13.1641C-0.014331 11.5929 -0.139164 9.91572 0.146952 8.28414C0.433068 6.65257 1.12112 5.11796 2.14896 3.81895L6.48696 11.4189C6.77035 12.1189 7.25588 12.7186 7.88158 13.1414C8.50729 13.5643 9.24479 13.7911 9.99996 13.7929C10.1518 13.7868 10.303 13.7714 10.453 13.7469L7.16996 19.4999ZM13.805 9.99995C13.801 10.8342 13.5196 11.6434 13.005 12.2999H13.012L8.67096 19.8939C9.1112 19.9572 9.55522 19.9906 9.99996 19.9939C11.5102 19.9994 13.0019 19.6614 14.3623 19.0056C15.7227 18.3499 16.9162 17.3934 17.8527 16.2086C18.7892 15.0238 19.4441 13.6417 19.7679 12.1666C20.0917 10.6915 20.076 9.16207 19.722 7.69394H13.008C13.5207 8.35098 13.801 9.15953 13.805 9.99295V9.99995ZM9.99996 6.19195H19.241C18.6299 4.69896 17.6659 3.37646 16.4315 2.33788C15.1971 1.29929 13.7292 0.575618 12.1537 0.228918C10.5782 -0.117783 8.94215 -0.0771619 7.3858 0.347297C5.82946 0.771755 4.39929 1.56738 3.21796 2.66595L6.52896 8.46595C6.82481 7.79123 7.31042 7.21707 7.92667 6.81334C8.54292 6.40961 9.26324 6.19372 9.99996 6.19195ZM9.99996 7.69195C9.62806 7.68874 9.26101 7.77648 8.93077 7.94752C8.60052 8.11857 8.31708 8.36774 8.10513 8.67335C7.89318 8.97896 7.75913 9.33174 7.71466 9.70099C7.67018 10.0702 7.71663 10.4448 7.84996 10.7919L7.85696 10.8049C8.0054 11.1978 8.25855 11.5424 8.58896 11.8016C8.91937 12.0608 9.31443 12.2246 9.7313 12.2752C10.1482 12.3258 10.5709 12.2613 10.9538 12.0887C11.3366 11.9161 11.6649 11.642 11.903 11.2961C12.1411 10.9502 12.28 10.5457 12.3045 10.1265C12.3291 9.70731 12.2384 9.28937 12.0424 8.91803C11.8463 8.54668 11.5523 8.2361 11.1923 8.01997C10.8322 7.80383 10.4199 7.69039 9.99996 7.69195Z" fill="#0F1A1C"/>
</g>
<defs>
<clipPath id="clip0_1136_30">
<rect width="20" height="20" fill="white"/>
</clipPath>
</defs>
</svg>
