<svg width="20" height="20" viewBox="0 0 20 20" fill="none" xmlns="http://www.w3.org/2000/svg">
<g clip-path="url(#clip0_3596_236)">
<path d="M20 9.99988C20.0017 12.4602 19.0947 14.8344 17.453 16.6669L16.786 17.4129L15.3 16.0789L15.967 15.3329C16.9965 14.1818 17.6709 12.7573 17.9086 11.2314C18.1464 9.70549 17.9374 8.14338 17.3069 6.73363C16.6764 5.32387 15.6514 4.12673 14.3555 3.28672C13.0596 2.4467 11.5483 1.99972 10.004 1.99972C8.45968 1.99972 6.94837 2.4467 5.65249 3.28672C4.35661 4.12673 3.33156 5.32387 2.70108 6.73363C2.07059 8.14338 1.86162 9.70549 2.09938 11.2314C2.33715 12.7573 3.01148 14.1818 4.041 15.3329L4.708 16.0789L3.218 17.4129L2.551 16.6669C1.4692 15.4591 0.697333 14.0063 0.301913 12.4338C-0.0935065 10.8613 -0.100615 9.21622 0.281199 7.64036C0.663014 6.06449 1.4223 4.60511 2.49362 3.38799C3.56494 2.17086 4.91615 1.23249 6.43081 0.653766C7.94547 0.0750376 9.57814 -0.126696 11.1881 0.0659506C12.7981 0.258598 14.3371 0.839847 15.6724 1.7596C17.0078 2.67936 18.0994 3.91004 18.8533 5.34557C19.6072 6.7811 20.0008 8.37842 20 9.99988ZM17 10.0309C17.0379 9.11767 16.89 8.20627 16.5653 7.35192C16.2405 6.49757 15.7456 5.71806 15.1106 5.06064C14.4757 4.40323 13.7138 3.88159 12.8713 3.52736C12.0287 3.17313 11.123 2.99368 10.209 2.99988C8.34536 3.01614 6.55915 3.74751 5.21925 5.04292C3.87936 6.33833 3.08814 8.09885 3.009 9.96088C2.95495 11.3088 3.30304 12.6423 4.009 13.7919L4.534 14.6439L6.234 13.5919L5.709 12.7419C5.20985 11.9282 4.96312 10.9848 5 10.0309C5.05765 8.68435 5.63036 7.41143 6.59979 6.47512C7.56922 5.53882 8.86128 5.0107 10.209 4.99988C10.8543 4.99381 11.4941 5.11929 12.0894 5.36865C12.6846 5.61802 13.2228 5.98604 13.6712 6.45027C14.1195 6.9145 14.4685 7.4652 14.697 8.06878C14.9255 8.67235 15.0286 9.31614 15 9.96088C14.9642 10.9422 14.6488 11.8928 14.091 12.7009L13.524 13.5249L15.173 14.6579L15.739 13.8329C16.5139 12.712 16.9514 11.3926 17 10.0309ZM10 7.04488C9.40666 7.04488 8.82664 7.22083 8.33329 7.55047C7.83994 7.88011 7.45542 8.34865 7.22836 8.89683C7.0013 9.44501 6.94189 10.0482 7.05764 10.6302C7.1734 11.2121 7.45912 11.7466 7.87868 12.1662C8.29824 12.5858 8.83279 12.8715 9.41473 12.9872C9.99667 13.103 10.5999 13.0436 11.148 12.8165C11.6962 12.5895 12.1648 12.2049 12.4944 11.7116C12.8241 11.2182 13 10.6382 13 10.0449C13 9.24923 12.6839 8.48617 12.1213 7.92356C11.5587 7.36095 10.7956 7.04488 10 7.04488ZM11.648 13.9999H8.348C8.14491 13.9988 7.94416 14.0432 7.76042 14.1297C7.57667 14.2162 7.41458 14.3427 7.286 14.4999C7.16563 14.6464 7.07948 14.818 7.03381 15.0021C6.98814 15.1861 6.9841 15.3781 7.022 15.5639L7.713 18.9339C7.78195 19.2395 7.95377 19.5121 8.1997 19.7062C8.44563 19.9002 8.75076 20.0039 9.064 19.9999H10.936C11.249 20.0028 11.5535 19.8983 11.7986 19.7037C12.0438 19.5091 12.2148 19.2363 12.283 18.9309L12.974 15.5629C13.0117 15.3772 13.0075 15.1855 12.9619 15.0016C12.9162 14.8177 12.8302 14.6464 12.71 14.4999C12.5814 14.3427 12.4193 14.2162 12.2356 14.1297C12.0518 14.0432 11.8511 13.9988 11.648 13.9999Z" fill="#0F1A1C"/>
</g>
<defs>
<clipPath id="clip0_3596_236">
<rect width="20" height="20" fill="white"/>
</clipPath>
</defs>
</svg>
