<svg width="20" height="20" viewBox="0 0 20 20" fill="none" xmlns="http://www.w3.org/2000/svg">
<g clip-path="url(#clip0_3596_517)">
<path d="M10.0108 14.5791L9.99977 14.5789L9.98875 14.5791C9.38841 14.5924 8.79366 14.4614 8.25439 14.1973C7.87008 14.0091 7.52193 13.7572 7.22415 13.4533L7.43365 13.3064C7.71419 13.5839 8.03993 13.8133 8.39801 13.9843C8.89769 14.2228 9.44629 14.3409 9.99977 14.3291C10.5532 14.3409 11.1019 14.2228 11.6015 13.9843C11.9596 13.8133 12.2853 13.5839 12.5659 13.3064L12.7754 13.4533C12.4776 13.7572 12.1295 14.0091 11.7452 14.1973C11.2059 14.4614 10.6111 14.5924 10.0108 14.5791ZM17.1248 2.375V2.875H17.6248H19.4998V3.125H17.6248H17.1248V3.625V5.5H16.8748V3.625V3.125H16.3748H14.4998V2.875H16.3748H16.8748V2.375V0.5H17.1248V2.375ZM18.5997 13.4658C19.2757 11.7594 19.4296 9.8958 19.0498 8.11H19.3018C19.4313 8.73177 19.4977 9.36536 19.4998 10.0011C19.5006 11.9722 18.8881 13.8946 17.747 15.5018C16.6058 17.1093 14.9926 18.3217 13.1312 18.9708C11.2698 19.6199 9.2525 19.6735 7.35922 19.1242C5.46594 18.575 3.79057 17.45 2.56556 15.9055C1.34055 14.361 0.626657 12.4735 0.522924 10.5049C0.419192 8.53626 0.930769 6.58417 1.98667 4.91946C3.04258 3.25476 4.59045 1.95998 6.41551 1.21478C8.11863 0.519373 9.98433 0.33474 11.7858 0.678768V0.930948C9.99283 0.571671 8.12834 0.748561 6.42808 1.4472C4.5269 2.22839 2.93835 3.61785 1.91103 5.39812C0.88371 7.1784 0.475595 9.24903 0.750552 11.286C1.02551 13.3229 1.96802 15.2112 3.43059 16.6554C4.89316 18.0996 6.79325 19.0182 8.83352 19.2673C10.8738 19.5165 12.9391 19.0822 14.7062 18.0324C16.4734 16.9827 17.8426 15.3767 18.5997 13.4658ZM6.99977 9C6.99977 9.55229 6.55205 10 5.99977 10C5.44748 10 4.99977 9.55229 4.99977 9C4.99977 8.44771 5.44748 8 5.99977 8C6.55205 8 6.99977 8.44771 6.99977 9ZM14.9998 9C14.9998 9.55229 14.5521 10 13.9998 10C13.4475 10 12.9998 9.55229 12.9998 9C12.9998 8.44771 13.4475 8 13.9998 8C14.5521 8 14.9998 8.44771 14.9998 9Z" fill="#0F1A1C" stroke="#0F1A1C"/>
</g>
<defs>
<clipPath id="clip0_3596_517">
<rect width="20" height="20" fill="white"/>
</clipPath>
</defs>
</svg>
