<svg width="20" height="20" viewBox="0 0 20 20" fill="none" xmlns="http://www.w3.org/2000/svg">
<path d="M5.625 5.75L5.62427 5.75C5.12741 5.75072 4.6511 5.94842 4.29976 6.29976C3.94842 6.6511 3.75072 7.12741 3.75 7.62427V7.625L3.75 12.375L3.75 12.3757C3.75072 12.8726 3.94842 13.3489 4.29976 13.7002C4.6511 14.0516 5.12741 14.2493 5.62427 14.25H5.625L10.375 14.25L10.3757 14.25C10.8726 14.2493 11.3489 14.0516 11.7002 13.7002C12.0516 13.3489 12.2493 12.8726 12.25 12.3757V12.375L12.25 7.625L12.25 7.62427C12.2493 7.12741 12.0516 6.6511 11.7002 6.29976C11.3489 5.94842 10.8726 5.75072 10.3757 5.75H10.375L5.625 5.75ZM16.0748 6.49931L16.0763 6.51017L16.0783 6.52096C16.0846 6.55485 16.0885 6.58914 16.0898 6.62357C16.0861 6.75553 16.0319 6.88117 15.9383 6.97458C15.8442 7.06683 15.7179 7.11898 15.5861 7.12002V7.11993L15.5768 7.12017C15.5239 7.12157 15.4714 7.11051 15.4236 7.08791L15.4042 7.07874L15.384 7.07127C15.3278 7.05038 15.2765 7.01804 15.2334 6.9763C15.1411 6.88133 15.0896 6.75398 15.09 6.62145L15.09 6.60795L15.0893 6.59447C15.0887 6.5825 15.09 6.57051 15.0931 6.55894L15.0993 6.53555L15.1033 6.51167C15.1078 6.48413 15.1145 6.45698 15.1231 6.43045C15.1344 6.40822 15.1475 6.38696 15.1623 6.36688L15.1857 6.33525L15.2038 6.30037C15.2093 6.28962 15.2167 6.27988 15.2254 6.27152L15.2254 6.27156L15.2309 6.26619C15.2745 6.22324 15.3267 6.19003 15.384 6.16873L15.3841 6.16884L15.3943 6.16478C15.4867 6.12813 15.5877 6.11873 15.6853 6.13771C15.7809 6.15629 15.8692 6.2013 15.9404 6.26758C15.9633 6.29103 15.9838 6.31664 16.0018 6.34404L16.0128 6.36092L16.0252 6.37685C16.0292 6.382 16.0323 6.38779 16.0343 6.39398L16.0466 6.43203L16.0648 6.46764C16.0699 6.47756 16.0733 6.48827 16.0748 6.49931ZM15.7107 10.1048L15.6998 10.1063L15.689 10.1083C15.6554 10.1146 15.6214 10.1184 15.5873 10.1198C15.4547 10.1155 15.328 10.0635 15.2306 9.97332C15.1401 9.87868 15.0896 9.7526 15.09 9.62145L15.09 9.60795L15.0893 9.59447C15.0887 9.5825 15.09 9.57052 15.0931 9.55894L15.0993 9.53555L15.1033 9.51167C15.1078 9.48413 15.1145 9.45698 15.1231 9.43045C15.1344 9.40822 15.1475 9.38696 15.1623 9.36688L15.1857 9.33525L15.2038 9.30037C15.2093 9.28962 15.2167 9.27988 15.2254 9.27152L15.2254 9.27156L15.2309 9.26619C15.2745 9.22325 15.3267 9.19003 15.384 9.16873L15.3841 9.16884L15.3943 9.16478C15.4867 9.12813 15.5877 9.11873 15.6853 9.13771C15.7809 9.15629 15.8693 9.20132 15.9404 9.26761C15.9633 9.29105 15.9838 9.31665 16.0018 9.34404L16.0128 9.36092L16.0252 9.37685C16.0292 9.38199 16.0323 9.38779 16.0343 9.39398L16.0466 9.43203L16.0648 9.46764C16.0699 9.47756 16.0733 9.48827 16.0748 9.49932L16.0763 9.51017L16.0783 9.52096C16.0846 9.55485 16.0885 9.58914 16.0898 9.62357C16.086 9.75591 16.0316 9.88188 15.9375 9.97537L15.9285 9.98432L15.92 9.99371C15.9122 10.0022 15.9032 10.0095 15.8931 10.0152L15.8617 10.033L15.8331 10.0552C15.828 10.0592 15.8222 10.0623 15.816 10.0643L15.778 10.0766L15.7424 10.0948C15.7324 10.0999 15.7217 10.1033 15.7107 10.1048ZM19.1699 17.1699C18.9589 17.3809 18.6728 17.4996 18.3744 17.5H1.62561C1.32719 17.4996 1.0411 17.3809 0.83009 17.1699C0.619143 16.959 0.500442 16.673 0.5 16.3747V3.62533C0.500442 3.32701 0.619143 3.04104 0.830089 2.83009C1.04104 2.61914 1.32701 2.50044 1.62533 2.5H18.3747C18.673 2.50044 18.959 2.61914 19.1699 2.83009C19.3809 3.0411 19.4996 3.3272 19.5 3.62561V16.3744C19.4996 16.6728 19.3809 16.9589 19.1699 17.1699ZM10.3742 14.5H5.62576C5.62557 14.5 5.62538 14.5 5.62518 14.5C5.06187 14.499 4.5219 14.2748 4.12357 13.8764C3.72517 13.478 3.50094 12.938 3.5 12.3745V7.62546C3.50094 7.06205 3.72517 6.52197 4.12357 6.12357C4.52197 5.72517 5.06205 5.50094 5.62546 5.5H10.3745C10.938 5.50094 11.478 5.72517 11.8764 6.12357C12.2748 6.5219 12.499 7.06187 12.5 7.62518C12.5 7.62538 12.5 7.62557 12.5 7.62576V12.3742C12.5 12.3744 12.5 12.3746 12.5 12.3748C12.499 12.9381 12.2748 13.4781 11.8764 13.8764C11.4781 14.2748 10.9381 14.499 10.3748 14.5C10.3746 14.5 10.3744 14.5 10.3742 14.5ZM1.625 2.75C1.39294 2.75 1.17038 2.84219 1.00628 3.00628C0.842187 3.17038 0.75 3.39294 0.75 3.625V16.375C0.75 16.6071 0.842186 16.8296 1.00628 16.9937C1.17038 17.1578 1.39294 17.25 1.625 17.25H18.375C18.6071 17.25 18.8296 17.1578 18.9937 16.9937C19.1578 16.8296 19.25 16.6071 19.25 16.375V3.625C19.25 3.39294 19.1578 3.17038 18.9937 3.00628C18.8296 2.84219 18.6071 2.75 18.375 2.75H1.625Z" fill="#0F1A1C" stroke="#0F1A1C"/>
</svg>
