<svg width="20" height="20" viewBox="0 0 20 20" fill="none" xmlns="http://www.w3.org/2000/svg">
<path d="M18.6352 6.72918L13.2702 1.36518C12.4025 0.497924 11.226 0.0107422 9.9992 0.0107422C8.77243 0.0107422 7.59587 0.497924 6.7282 1.36518L1.3642 6.72918C0.496948 7.59684 0.00976563 8.7734 0.00976562 10.0002C0.00976563 11.2269 0.496948 12.4035 1.3642 13.2712L6.7292 18.6362C7.597 19.5032 8.77351 19.9902 10.0002 19.9902C11.2269 19.9902 12.4034 19.5032 13.2712 18.6362L18.6352 13.2712C19.5025 12.4035 19.9896 11.2269 19.9896 10.0002C19.9896 8.7734 19.5025 7.59684 18.6352 6.72918ZM11.3742 10.0002C11.3742 10.2721 11.2936 10.538 11.1425 10.7641C10.9914 10.9902 10.7766 11.1664 10.5254 11.2705C10.2741 11.3746 9.99767 11.4018 9.73095 11.3488C9.46423 11.2957 9.21922 11.1647 9.02693 10.9724C8.83463 10.7802 8.70368 10.5351 8.65062 10.2684C8.59757 10.0017 8.62479 9.72523 8.72887 9.47399C8.83294 9.22274 9.00917 9.00799 9.23529 8.85691C9.46141 8.70582 9.72725 8.62518 9.9992 8.62518C10.3637 8.62571 10.7131 8.77074 10.9709 9.02849C11.2286 9.28624 11.3737 9.63567 11.3742 10.0002ZM4.3742 10.0002C4.37696 9.01373 4.63812 8.04523 5.13167 7.19113C5.62521 6.33703 6.33392 5.62714 7.1872 5.13218L7.7292 4.81818L9.2722 7.49018C8.61805 7.66883 8.06068 8.09811 7.72092 8.68496C7.38117 9.27181 7.28641 9.96893 7.4572 10.6252H4.3742V10.0002ZM12.8102 14.8682C11.9563 15.3638 10.9865 15.6248 9.9992 15.6248C9.01188 15.6248 8.04212 15.3638 7.1882 14.8682L6.6472 14.5562L8.1862 11.8902C8.67158 12.3624 9.32203 12.6266 9.9992 12.6266C10.6764 12.6266 11.3268 12.3624 11.8122 11.8902L13.3512 14.5562L12.8102 14.8682ZM15.6242 10.6252H12.5412C12.712 9.96893 12.6172 9.27181 12.2775 8.68496C11.9377 8.09811 11.3803 7.66883 10.7262 7.49018L12.2692 4.81818L12.8112 5.13218C13.6645 5.62714 14.3732 6.33703 14.8667 7.19113C15.3603 8.04523 15.6214 9.01373 15.6242 10.0002V10.6252Z" fill="#0F1A1C"/>
</svg>
