<svg width="20" height="20" viewBox="0 0 20 20" fill="none" xmlns="http://www.w3.org/2000/svg">
<path d="M13.25 12C12.9186 12.0005 12.601 12.1324 12.3667 12.3667C12.1324 12.601 12.0005 12.9186 12 13.25V18.786L18.787 12H13.25Z" fill="#0F1A1C"/>
<path d="M10.125 14.875C9.42468 14.8898 8.73104 14.7364 8.10234 14.4275C7.47364 14.1186 6.92825 13.6634 6.512 13.1L6.08 12.487L7.308 11.624L7.738 12.238C8.06498 12.6366 8.48718 12.9464 8.96557 13.1387C9.44396 13.3309 9.9631 13.3995 10.475 13.338V13.222C10.4755 12.4928 10.7654 11.7937 11.281 11.278C11.7967 10.7624 12.4958 10.4725 13.225 10.472H19V3.6C19 2.91044 18.7261 2.24912 18.2385 1.76152C17.7509 1.27393 17.0896 1 16.4 1H3.6C2.91044 1 2.24912 1.27393 1.76152 1.76152C1.27393 2.24912 1 2.91044 1 3.6V16.4C1 17.0896 1.27393 17.7509 1.76152 18.2385C2.24912 18.7261 2.91044 19 3.6 19H10.479V14.843C10.358 14.853 10.244 14.875 10.125 14.875ZM14.125 6.625C14.4217 6.625 14.7117 6.71297 14.9584 6.8778C15.205 7.04262 15.3973 7.27689 15.5108 7.55097C15.6244 7.82506 15.6541 8.12666 15.5962 8.41764C15.5383 8.70861 15.3954 8.97588 15.1857 9.18566C14.9759 9.39544 14.7086 9.5383 14.4176 9.59618C14.1267 9.65406 13.8251 9.62435 13.551 9.51082C13.2769 9.39729 13.0426 9.20503 12.8778 8.95835C12.713 8.71168 12.625 8.42167 12.625 8.125C12.625 7.72718 12.783 7.34564 13.0643 7.06434C13.3456 6.78304 13.7272 6.625 14.125 6.625ZM4.625 8.125C4.625 7.82833 4.71297 7.53832 4.8778 7.29164C5.04262 7.04497 5.27689 6.85271 5.55097 6.73918C5.82506 6.62565 6.12666 6.59594 6.41764 6.65382C6.70861 6.7117 6.97588 6.85456 7.18566 7.06434C7.39544 7.27412 7.5383 7.54139 7.59618 7.83236C7.65406 8.12334 7.62435 8.42494 7.51082 8.69903C7.39729 8.97311 7.20503 9.20738 6.95836 9.3722C6.71168 9.53703 6.42167 9.625 6.125 9.625C5.72718 9.625 5.34564 9.46696 5.06434 9.18566C4.78304 8.90436 4.625 8.52282 4.625 8.125Z" fill="#0F1A1C"/>
</svg>
