<svg width="20" height="20" viewBox="0 0 20 20" fill="none" xmlns="http://www.w3.org/2000/svg">
<g clip-path="url(#clip0_3322_31)">
<path d="M18.179 4.40625L10.8 0.210249C10.5555 0.0734976 10.28 0.00177836 9.99987 0.00195344C9.71973 0.00212853 9.44432 0.0741921 9.2 0.211249L1.821 4.40625C1.5719 4.54843 1.36478 4.75389 1.22061 5.00184C1.07644 5.24979 1.00034 5.53143 1 5.81825V14.1822C1.00034 14.4691 1.07644 14.7507 1.22061 14.9987C1.36478 15.2466 1.5719 15.4521 1.821 15.5942L9.2 19.7902C9.44532 19.9282 9.72204 20.0007 10.0035 20.0007C10.285 20.0007 10.5617 19.9282 10.807 19.7902L18.182 15.5902C18.43 15.448 18.6361 15.243 18.7797 14.9959C18.9233 14.7487 18.9993 14.4681 19 14.1822V5.81825C18.9997 5.53143 18.9236 5.24979 18.7794 5.00184C18.6352 4.75389 18.4281 4.54843 18.179 4.40625ZM11 10.5782V15.8682H9V10.5782L4.213 7.81425L4.4 7.48925L5.212 6.08225L10 8.84525L14.787 6.08225L15.599 7.48925L15.787 7.81425L11 10.5782Z" fill="#0F1A1C"/>
</g>
<defs>
<clipPath id="clip0_3322_31">
<rect width="20" height="20" fill="white"/>
</clipPath>
</defs>
</svg>
