<svg width="20" height="20" viewBox="0 0 20 20" fill="none" xmlns="http://www.w3.org/2000/svg">
<path d="M18.153 2.1L10.271 0.108C10.093 0.0639907 9.90699 0.0639907 9.729 0.108L1.846 2.1C1.60422 2.16136 1.38978 2.30155 1.23657 2.4984C1.08336 2.69526 1.00012 2.93755 1 3.187V12C1 17.277 8.249 19.554 9.7 19.957C9.79765 19.9846 9.89853 19.999 10 20C10.1013 19.9998 10.2022 19.9864 10.3 19.96C11.753 19.56 19 17.28 19 12.003V3.187C18.9998 2.93742 18.9164 2.69502 18.763 2.49815C18.6096 2.30128 18.395 2.16117 18.153 2.1ZM10.53 13.03C10.4605 13.0998 10.3779 13.1552 10.287 13.1929C10.196 13.2307 10.0985 13.2502 10 13.2502C9.90151 13.2502 9.804 13.2307 9.71304 13.1929C9.62209 13.1552 9.5395 13.0998 9.47 13.03L4.939 8.5L6 7.439L10 11.439L14 7.439L15.061 8.5L10.53 13.03Z" fill="#0F1A1C"/>
</svg>
