<svg width="20" height="20" viewBox="0 0 20 20" fill="none" xmlns="http://www.w3.org/2000/svg">
<g clip-path="url(#clip0_3596_188)">
<path d="M16.3272 7.45149L16.2473 7.72439L16.441 7.93255C16.8356 8.35664 17.1324 8.8621 17.3106 9.41332C17.488 9.96248 17.5433 10.5438 17.4727 11.1165C17.3622 11.8385 17.0657 12.5193 16.6125 13.0922C16.1579 13.6667 15.5612 14.1127 14.8815 14.3861L14.8698 14.3907L14.8584 14.396C14.0942 14.7489 13.2355 14.8422 12.4133 14.6616L11.806 14.5282V15.1499V18.4439C11.806 18.4771 11.7929 18.5089 11.7694 18.5323C11.746 18.5558 11.7142 18.5689 11.681 18.5689H8.31904C8.28589 18.5689 8.25409 18.5558 8.23065 18.5323C8.20721 18.5089 8.19404 18.4771 8.19404 18.4439V15.1199V14.4794L7.57267 14.6349C6.75624 14.8392 5.89409 14.7519 5.13518 14.3881L5.12143 14.3815L5.1073 14.3757C4.42959 14.1003 3.8353 13.6531 3.38295 13.0782C2.93198 12.505 2.63759 11.8246 2.52853 11.1036C2.45968 10.533 2.5158 9.95417 2.69302 9.40737C2.87093 8.85844 3.1666 8.35501 3.55935 7.93226L3.75271 7.72413L3.67291 7.45149C3.59474 7.18444 3.55473 6.90768 3.55405 6.62945C3.56958 5.86836 3.85738 5.13798 4.36532 4.57083C4.87436 4.00246 5.57063 3.63586 6.3273 3.5378L6.68609 3.4913L6.75412 3.13596C6.89772 2.3859 7.3011 1.71046 7.89336 1.22835C8.48562 0.746233 9.22887 0.488301 9.99246 0.499886L10 0.500001L10.0076 0.499886C10.7712 0.488301 11.5145 0.746233 12.1067 1.22835C12.699 1.71046 13.1024 2.3859 13.246 3.13596L13.314 3.4913L13.6728 3.5378C14.4295 3.63586 15.1257 4.00246 15.6348 4.57083C16.1427 5.13798 16.4305 5.86836 16.446 6.62945C16.4454 6.90769 16.4053 7.18444 16.3272 7.45149Z" fill="#0F1A1C" stroke="#0F1A1C"/>
</g>
<defs>
<clipPath id="clip0_3596_188">
<rect width="20" height="20" fill="white"/>
</clipPath>
</defs>
</svg>
