<svg width="20" height="20" viewBox="0 0 20 20" fill="none" xmlns="http://www.w3.org/2000/svg">
<g clip-path="url(#clip0_616_17)">
<path d="M18.6999 3.22301C16.5731 2.57703 14.3626 2.24915 12.1399 2.25001V1.00001C14.4838 0.999723 16.8149 1.34545 19.0579 2.02601L18.6999 3.22301ZM18.9999 10.223V13.246C19.0216 15.0077 18.3458 16.7064 17.1198 17.9717C15.8939 19.237 14.2173 19.9661 12.4559 20H9.82488C8.6872 19.9745 7.57506 19.6578 6.59466 19.0801C5.61426 18.5023 4.79836 17.6829 4.22488 16.7L1.31188 11.884C1.016 11.3945 0.92606 10.8077 1.06174 10.252C1.19743 9.69638 1.54768 9.21708 2.03588 8.91901C2.48903 8.64385 3.02864 8.54792 3.54886 8.65004C4.06908 8.75216 4.53238 9.04496 4.84788 9.47101L5.99988 11.016V2.24601C5.98461 1.97495 6.02435 1.7036 6.11672 1.4483C6.20909 1.19301 6.35217 0.959044 6.53735 0.760505C6.72253 0.561966 6.94597 0.402958 7.19423 0.293057C7.44248 0.183155 7.71041 0.124633 7.98188 0.121015C8.56012 0.11745 9.11768 0.33586 9.53965 0.731224C9.96162 1.12659 10.2158 1.66877 10.2499 2.24601V6.20001C10.4736 6.11561 10.7108 6.07291 10.9499 6.07401C11.3684 6.07501 11.7773 6.20035 12.1244 6.43413C12.4716 6.6679 12.7415 6.99957 12.8999 7.38701C13.2117 7.21203 13.5633 7.12041 13.9209 7.12101C14.3288 7.12213 14.7276 7.24133 15.0692 7.46421C15.4108 7.6871 15.6806 8.00413 15.8459 8.37701C16.1634 8.19427 16.5235 8.09871 16.8899 8.10002C17.451 8.1024 17.9883 8.32725 18.3838 8.72524C18.7794 9.12324 19.0009 9.66188 18.9999 10.223Z" fill="#0F1A1C"/>
</g>
<defs>
<clipPath id="clip0_616_17">
<rect width="20" height="20" fill="white"/>
</clipPath>
</defs>
</svg>
