<svg width="20" height="20" viewBox="0 0 20 20" fill="none" xmlns="http://www.w3.org/2000/svg">
<path d="M9.99987 1.90004C11.6018 1.90007 13.1678 2.3751 14.4998 3.26508C15.8318 4.15506 16.8699 5.42001 17.483 6.89999C18.0961 8.37998 18.2566 10.0085 17.9442 11.5797C17.6318 13.1509 16.8605 14.5942 15.7279 15.727C14.2065 17.2343 12.1501 18.0777 10.0086 18.0728C7.86699 18.0678 5.81452 17.215 4.30007 15.7008C2.78562 14.1866 1.93244 12.1343 1.92716 9.99276C1.92187 7.85119 2.76491 5.79468 4.27187 4.27304C5.02231 3.51842 5.91497 2.92013 6.89818 2.51281C7.88139 2.10548 8.93563 1.89721 9.99987 1.90004ZM9.99987 3.96081e-05C8.02208 6.64314e-05 6.0887 0.586571 4.44424 1.68539C2.79977 2.7842 1.51807 4.34598 0.761202 6.17322C0.00433642 8.00047 -0.193697 10.0111 0.192144 11.9509C0.577985 13.8907 1.53037 15.6725 2.92887 17.071C4.80704 18.9328 7.34623 19.9748 9.9908 19.969C12.6354 19.9633 15.17 18.9101 17.04 17.0401C18.91 15.1701 19.9631 12.6355 19.9689 9.99097C19.9747 7.3464 18.9327 4.80721 17.0709 2.92904C16.1445 1.99742 15.0426 1.25884 13.8288 0.756073C12.6151 0.253301 11.3136 -0.00367051 9.99987 3.96081e-05ZM16.8639 8.82904L16.2799 7.07404L13.1469 8.11804C12.8247 7.5688 12.3645 7.11335 11.8119 6.79687C11.2593 6.4804 10.6336 6.3139 9.99687 6.3139C9.3601 6.3139 8.73439 6.4804 8.18183 6.79687C7.62927 7.11335 7.16907 7.5688 6.84687 8.11804L3.69987 7.07404L3.11887 8.82904L6.32187 9.90004C6.32187 9.93404 6.32187 9.96804 6.32187 10C6.32296 10.8149 6.5943 11.6065 7.09337 12.2507C7.59245 12.8949 8.29108 13.3554 9.07987 13.56V16.917H10.9299V13.56C11.7176 13.3544 12.415 12.8935 12.9129 12.2493C13.4109 11.6052 13.6813 10.8142 13.6819 10C13.6819 9.96304 13.6819 9.92704 13.6769 9.89104L16.8639 8.82904Z" fill="#0F1A1C"/>
</svg>
