<svg width="20" height="20" viewBox="0 0 20 20" fill="none" xmlns="http://www.w3.org/2000/svg">
<g clip-path="url(#clip0_1118_260)">
<path d="M10.406 8.76992C11.1054 8.28151 11.6216 7.57348 11.8727 6.75822C12.1238 5.94297 12.0954 5.06719 11.792 4.26992C10.9394 4.00241 10.0378 3.92913 9.15325 4.05545C8.26869 4.18177 7.42361 4.50448 6.68 4.99992C7.56099 5.27763 8.36088 5.76619 9.0102 6.42318C9.65952 7.08017 10.1387 7.88573 10.406 8.76992Z" fill="#0F1A1C"/>
<path d="M9.133 8.93292C8.86396 8.161 8.38911 7.47726 7.75975 6.95558C7.13038 6.43391 6.37043 6.09411 5.562 5.97292C4.59937 7.0307 4.04893 8.39919 4.011 9.82892C4.73146 9.28198 5.57227 8.91527 6.46328 8.75941C7.35429 8.60354 8.26966 8.66303 9.133 8.93292Z" fill="#0F1A1C"/>
<path d="M11.224 9.72392C12.0019 10.0916 12.8808 10.1868 13.7193 9.99438C14.5579 9.80193 15.3073 9.33295 15.847 8.66292C15.4958 7.13112 14.5585 5.79786 13.236 4.94892C13.3623 5.85229 13.2419 6.77299 12.8877 7.61356C12.5336 8.45414 11.9587 9.18332 11.224 9.72392Z" fill="#0F1A1C"/>
<path d="M8.7 10.1109C7.90486 9.86997 7.05842 9.85458 6.25504 10.0665C5.45165 10.2783 4.7229 10.7092 4.15 11.3109C4.49945 12.8469 5.4377 14.1845 6.763 15.0359C6.66171 14.1194 6.78514 13.192 7.12263 12.3339C7.46011 11.4759 8.00151 10.7129 8.7 10.1109Z" fill="#0F1A1C"/>
<path d="M10 -0.00708008C8.02219 -0.00708008 6.08879 0.57941 4.4443 1.67822C2.79981 2.77704 1.51809 4.33882 0.761209 6.16609C0.00433284 7.99335 -0.193701 10.004 0.192152 11.9438C0.578004 13.8836 1.53041 15.6655 2.92894 17.064C4.32746 18.4625 6.10929 19.4149 8.0491 19.8008C9.98891 20.1866 11.9996 19.9886 13.8268 19.2317C15.6541 18.4748 17.2159 17.1931 18.3147 15.5486C19.4135 13.9041 20 11.9707 20 9.99292C19.9971 7.34165 18.9426 4.7998 17.0679 2.92507C15.1931 1.05033 12.6513 -0.00416848 10 -0.00708008ZM10 17.2419C8.56633 17.2417 7.16491 16.8164 5.97295 16.0198C4.78099 15.2231 3.85202 14.0909 3.30351 12.7663C2.75501 11.4417 2.6116 9.9842 2.89141 8.5781C3.17123 7.172 3.86171 5.88044 4.87554 4.86675C5.88937 3.85306 7.18102 3.16276 8.58716 2.88313C9.9933 2.60351 11.4508 2.74712 12.7753 3.29581C14.0998 3.8445 15.2319 4.77363 16.0284 5.9657C16.8249 7.15777 17.25 8.55925 17.25 9.99292C17.2479 11.915 16.4833 13.7577 15.1241 15.1168C13.7649 16.4758 11.9221 17.2401 10 17.2419Z" fill="#0F1A1C"/>
<path d="M10.958 10.9609C11.1237 11.7822 11.5572 12.5252 12.1906 13.0736C12.824 13.6219 13.6215 13.9446 14.458 13.9909C15.3889 12.9569 15.929 11.6301 15.985 10.2399C15.2863 10.7951 14.4525 11.1544 13.5691 11.2811C12.6858 11.4078 11.7846 11.2973 10.958 10.9609Z" fill="#0F1A1C"/>
<path d="M9.65401 10.9289C8.95805 11.4819 8.44064 12.2279 8.16654 13.0735C7.89244 13.9191 7.87382 14.8268 8.113 15.6829C8.96527 15.9689 9.87126 16.0579 10.7629 15.9434C11.6545 15.829 12.5086 15.5139 13.261 15.0219C12.3385 14.7428 11.5122 14.2118 10.875 13.4888C10.2378 12.7657 9.81494 11.8792 9.65401 10.9289Z" fill="#0F1A1C"/>
</g>
<defs>
<clipPath id="clip0_1118_260">
<rect width="20" height="20" fill="white"/>
</clipPath>
</defs>
</svg>
