<svg width="20" height="20" viewBox="0 0 20 20" fill="none" xmlns="http://www.w3.org/2000/svg">
<path d="M17.386 2H2.614C1.92097 2.00079 1.25655 2.27645 0.7665 2.7665C0.276452 3.25655 0.000794004 3.92097 0 4.614L0 15.386C0.000794004 16.079 0.276452 16.7435 0.7665 17.2335C1.25655 17.7235 1.92097 17.9992 2.614 18H17.386C18.079 17.9992 18.7435 17.7235 19.2335 17.2335C19.7235 16.7435 19.9992 16.079 20 15.386V4.614C19.9992 3.92097 19.7235 3.25655 19.2335 2.7665C18.7435 2.27645 18.079 2.00079 17.386 2ZM3 6H8V11H3V6ZM7 14.5H3V13H7V14.5ZM12 14.5H8V13H12V14.5ZM17 14.5H13V13H17V14.5Z" fill="#0F1A1C"/>
</svg>
