<svg width="20" height="20" viewBox="0 0 20 20" fill="none" xmlns="http://www.w3.org/2000/svg">
<path d="M13.7729 6.29499L13.7727 6.29549C12.965 8.71507 13.0632 11.3453 14.049 13.698L15.6848 17.6113C14.0492 18.8352 12.0581 19.4998 10.008 19.4998C7.95791 19.4998 5.9667 18.8352 4.3311 17.6113L5.96514 13.6987C5.96517 13.6986 5.9652 13.6986 5.96523 13.6985C6.94936 11.3451 7.04638 8.71487 6.23828 6.29541L6.23814 6.29499L5.99998 5.58399L5.84143 5.11068L5.36785 5.26843L3.94486 5.74243L3.46848 5.90111L3.62917 6.37681L3.86878 7.08616C3.86887 7.08643 3.86896 7.08669 3.86905 7.08696C4.48521 8.93297 4.40947 10.9398 3.65588 12.7342L3.65545 12.7352L2.41794 15.7008C1.17834 14.066 0.500457 12.0653 0.500001 9.99969V9.99963C0.499479 8.46076 0.873356 6.94481 1.58944 5.58238C2.30553 4.21995 3.34236 3.05189 4.61064 2.17883C5.87893 1.30578 7.34063 0.753923 8.86983 0.570836C10.399 0.387748 11.9498 0.578922 13.3886 1.12788C14.8275 1.67683 16.1111 2.5671 17.129 3.72195C18.1469 4.8768 18.8686 6.26161 19.2319 7.75706C19.5952 9.25252 19.5892 10.8138 19.2144 12.3064C18.9056 13.5366 18.3539 14.6898 17.5946 15.6995L16.3575 12.7362L16.3572 12.7353C15.604 10.9405 15.5287 8.93337 16.1452 7.08717L16.1453 7.08682L16.3825 6.37482L16.5405 5.90044L16.0662 5.74243L14.6432 5.26843L14.1696 5.11068L14.011 5.58399L13.7729 6.29499Z" fill="#0F1A1C" stroke="#0F1A1C"/>
</svg>
