<svg width="20" height="20" viewBox="0 0 20 20" fill="none" xmlns="http://www.w3.org/2000/svg">
<g clip-path="url(#clip0_1580_227)">
<path d="M9.99971 6.75C9.39816 6.75163 8.80915 6.92209 8.29972 7.242L12.7577 11.7C13.0776 11.1906 13.2481 10.6016 13.2497 10C13.2487 9.13837 12.9059 8.31234 12.2966 7.70307C11.6874 7.09381 10.8613 6.75106 9.99971 6.75Z" fill="#0F1A1C"/>
<path d="M19.8557 9.452L15.4087 1.567C15.3114 1.39493 15.1701 1.25177 14.9993 1.15216C14.8286 1.05254 14.6344 1.00004 14.4367 1H5.56171C5.36416 1.00011 5.17018 1.05266 4.99959 1.15227C4.82899 1.25189 4.6879 1.39501 4.59071 1.567L0.144715 9.45C0.0492337 9.61758 -0.000976562 9.80713 -0.000976562 10C-0.000976563 10.1929 0.0492337 10.3824 0.144715 10.55L4.58972 18.432C4.68701 18.6042 4.82824 18.7475 4.999 18.8473C5.16976 18.9471 5.36394 18.9998 5.56171 19H14.4367C14.6344 19.0001 14.8286 18.9476 14.9994 18.848C15.1702 18.7484 15.3115 18.6051 15.4087 18.433L19.8547 10.55C19.95 10.3827 20.0002 10.1936 20.0003 10.0011C20.0005 9.80865 19.9507 9.61942 19.8557 9.452ZM9.99971 14.75C9.06025 14.75 8.14189 14.4714 7.36076 13.9495C6.57962 13.4275 5.9708 12.6857 5.61129 11.8177C5.25177 10.9498 5.1577 9.99473 5.34098 9.07332C5.52426 8.15191 5.97666 7.30554 6.64096 6.64124C7.30526 5.97694 8.15163 5.52455 9.07304 5.34127C9.99445 5.15799 10.9495 5.25206 11.8175 5.61157C12.6854 5.97109 13.4273 6.57991 13.9492 7.36104C14.4711 8.14218 14.7497 9.06054 14.7497 10C14.7481 11.2593 14.2472 12.4665 13.3567 13.357C12.4663 14.2475 11.259 14.7484 9.99971 14.75Z" fill="#0F1A1C"/>
<path d="M6.74976 10C6.75081 10.8617 7.09356 11.6877 7.70283 12.297C8.31209 12.9062 9.13813 13.249 9.99976 13.25C10.6013 13.2484 11.1903 13.078 11.6998 12.758L7.24176 8.30005C6.92185 8.80948 6.75138 9.3985 6.74976 10Z" fill="#0F1A1C"/>
</g>
<defs>
<clipPath id="clip0_1580_227">
<rect width="20" height="20" fill="white"/>
</clipPath>
</defs>
</svg>
