<svg width="20" height="20" viewBox="0 0 20 20" fill="none" xmlns="http://www.w3.org/2000/svg">
<g clip-path="url(#clip0_3596_279)">
<path d="M8.36981 5.2615L8.36982 5.26149L8.36794 5.25897C8.16376 4.98408 8.0202 4.669 7.94677 4.33453C7.87412 4.00366 7.87172 3.66126 7.93969 3.32947C8.18889 2.37099 8.79866 1.54559 9.64194 1.02574L9.64203 1.02589L9.65299 1.01873C9.7556 0.951706 9.87551 0.916016 9.99806 0.916016C10.1206 0.916016 10.2405 0.951706 10.3431 1.01873L10.3509 1.02378L10.3588 1.02854C10.8734 1.33817 11.3037 1.76983 11.6118 2.28534C11.9177 2.79722 12.0937 3.37612 12.1245 3.97152C12.1224 4.25833 12.0625 4.54183 11.9484 4.80504C11.8326 5.07199 11.6634 5.31244 11.4513 5.51161L11.4504 5.51247C11.0587 5.88209 10.54 6.0871 10.0014 6.08512H9.99956C9.93657 6.08512 9.90143 6.08471 9.87031 6.0816L9.86278 6.08084L9.85522 6.08032C9.56299 6.06001 9.27871 5.97623 9.02217 5.83482C8.76563 5.6934 8.543 5.49775 8.36981 5.2615ZM12.2496 8.50012H12.2582L12.2668 8.49982C12.5819 8.48896 12.8886 8.60331 13.1197 8.81789C13.3485 9.03041 13.4849 9.32413 13.4996 9.63587V16.0851H6.49956V9.63588C6.51427 9.32413 6.65058 9.03042 6.87946 8.81789C7.11054 8.60331 7.41718 8.48896 7.73234 8.49982L7.74095 8.50012H7.74956H12.2496ZM17.8993 15.8441L17.8994 15.8441L17.9027 15.8348L18.067 15.3638L19.011 15.6928L18.8475 16.1625C18.4883 17.1494 17.8316 18.0006 16.9681 18.5984C16.1036 19.1969 15.0745 19.512 14.0232 19.5001L14.0232 19.5001H14.0176H5.98156V19.5001L5.97592 19.5001C4.92458 19.512 3.89553 19.1969 3.03107 18.5984C2.16752 18.0006 1.51084 17.1494 1.15164 16.1625L0.988106 15.6928L1.93212 15.3638L2.09647 15.8348L2.09638 15.8349L2.0998 15.8441C2.39338 16.6352 2.92535 17.3156 3.62226 17.7914C4.31791 18.2663 5.14364 18.5139 5.98576 18.5001H14.0134C14.8555 18.5139 15.6812 18.2663 16.3769 17.7914C17.0738 17.3156 17.6057 16.6352 17.8993 15.8441Z" fill="#0F1A1C" stroke="#0F1A1C"/>
</g>
<defs>
<clipPath id="clip0_3596_279">
<rect width="20" height="20" fill="white"/>
</clipPath>
</defs>
</svg>
