<svg width="20" height="20" viewBox="0 0 20 20" fill="none" xmlns="http://www.w3.org/2000/svg">
<g clip-path="url(#clip0_474_80)">
<path d="M10 20C8.02219 20 6.08879 19.4135 4.4443 18.3147C2.79981 17.2159 1.51809 15.6541 0.761209 13.8268C0.00433284 11.9996 -0.193701 9.98891 0.192152 8.0491C0.578004 6.10929 1.53041 4.32746 2.92894 2.92894C4.32746 1.53041 6.10929 0.578004 8.0491 0.192152C9.98891 -0.193701 11.9996 0.00433284 13.8268 0.761209C15.6541 1.51809 17.2159 2.79981 18.3147 4.4443C19.4135 6.08879 20 8.02219 20 10C19.9971 12.6513 18.9426 15.1931 17.0679 17.0679C15.1931 18.9426 12.6513 19.9971 10 20ZM10 1.25C8.26942 1.25 6.57769 1.76318 5.13876 2.72465C3.69983 3.68611 2.57833 5.05267 1.91606 6.65152C1.25379 8.25038 1.08051 10.0097 1.41813 11.707C1.75575 13.4044 2.58911 14.9635 3.81282 16.1872C5.03653 17.4109 6.59563 18.2443 8.29296 18.5819C9.9903 18.9195 11.7496 18.7462 13.3485 18.084C14.9473 17.4217 16.3139 16.3002 17.2754 14.8612C18.2368 13.4223 18.75 11.7306 18.75 10C18.7474 7.68017 17.8246 5.45611 16.1843 3.81574C14.5439 2.17537 12.3198 1.25265 10 1.25ZM11.611 5.308C12.016 5.49686 12.3603 5.79506 12.605 6.169C12.8462 6.5437 12.9712 6.98142 12.964 7.427C12.9704 7.72037 12.9134 8.01166 12.797 8.281C12.697 8.5096 12.5594 8.71984 12.39 8.903C12.1893 9.11084 11.9769 9.30716 11.754 9.491C11.531 9.679 11.354 9.839 11.221 9.974C11.0872 10.1098 10.9764 10.2665 10.893 10.438C10.8047 10.6224 10.7602 10.8246 10.763 11.029V11.809H9.328V11.05C9.32033 10.7332 9.38069 10.4185 9.505 10.127C9.60961 9.88879 9.75288 9.6695 9.929 9.478C10.1329 9.26834 10.35 9.07194 10.579 8.89001C10.7877 8.71734 10.9517 8.57367 11.071 8.459C11.1924 8.34313 11.2938 8.20797 11.371 8.059C11.4588 7.88178 11.4996 7.68495 11.4894 7.48742C11.4793 7.2899 11.4185 7.09829 11.313 6.931C11.1929 6.74894 11.0251 6.60332 10.828 6.51C10.6169 6.40834 10.3853 6.35667 10.151 6.359C9.90061 6.35575 9.65317 6.4134 9.43001 6.527C9.22011 6.63278 9.04282 6.79348 8.917 6.992C8.78977 7.19112 8.72052 7.42174 8.717 7.658H7.256C7.25914 7.19536 7.38436 6.74174 7.619 6.343C7.86111 5.92893 8.21357 5.59033 8.637 5.365C9.11003 5.11384 9.63956 4.98817 10.175 5C10.6709 4.99204 11.162 5.09738 11.611 5.308ZM9.447 15.151C9.28772 15.0575 9.15488 14.925 9.061 14.766C8.96488 14.6035 8.91508 14.4178 8.917 14.229C8.91549 14.0425 8.96531 13.8591 9.061 13.699C9.15478 13.5394 9.28761 13.4062 9.447 13.312C9.60748 13.2173 9.79066 13.1678 9.97701 13.169C10.1654 13.167 10.3509 13.2157 10.514 13.31C10.6751 13.4022 10.8092 13.5349 10.903 13.695C10.9992 13.8571 11.05 14.042 11.05 14.2305C11.05 14.419 10.9992 14.6039 10.903 14.766C10.8074 14.9247 10.6737 15.0571 10.514 15.151C10.3515 15.2471 10.1658 15.2969 9.97701 15.295C9.79051 15.2963 9.60722 15.2465 9.447 15.151Z" fill="#0F1A1C"/>
</g>
<defs>
<clipPath id="clip0_474_80">
<rect width="20" height="20" fill="white"/>
</clipPath>
</defs>
</svg>
