<svg width="20" height="20" viewBox="0 0 20 20" fill="none" xmlns="http://www.w3.org/2000/svg">
<path d="M18.8809 9.7C18.8 9.49759 18.6614 9.32338 18.4824 9.19895C18.3034 9.07453 18.0919 9.00535 17.8739 9H13.9999V2.123C13.9994 1.82532 13.8809 1.53999 13.6704 1.3295C13.46 1.11901 13.1746 1.00053 12.8769 1H7.12295C6.82527 1.00053 6.53994 1.11901 6.32945 1.3295C6.11896 1.53999 6.00048 1.82532 5.99995 2.123V9H2.12295C1.90536 9.00574 1.69423 9.07509 1.51562 9.1995C1.33701 9.3239 1.19876 9.4979 1.11795 9.7C1.01422 9.91774 0.975641 10.1608 1.00687 10.4C1.03809 10.6392 1.13779 10.8642 1.29395 11.048L9.16595 19.629C9.27124 19.7458 9.39989 19.8391 9.54355 19.9031C9.68722 19.967 9.84271 20 9.99995 20C10.1567 19.9999 10.3118 19.9672 10.4552 19.9038C10.5987 19.8404 10.7273 19.7479 10.8329 19.632L18.7089 11.043C18.8637 10.8594 18.9622 10.635 18.9927 10.3968C19.0232 10.1586 18.9844 9.9167 18.8809 9.7Z" fill="#0F1A1C"/>
</svg>
