<svg width="20" height="20" viewBox="0 0 20 20" fill="none" xmlns="http://www.w3.org/2000/svg">
<path d="M3.76023 7.77267L4.149 7.68395V7.2852V7.2497C4.17734 5.71668 4.80592 4.25587 5.89978 3.18126C6.99467 2.10562 8.46815 1.50293 10.003 1.50293C11.5379 1.50293 13.0113 2.10562 14.1062 3.18126C15.2001 4.25589 15.8287 5.71671 15.857 7.24975V7.2812V7.67995L16.2458 7.76867L16.3863 7.80074C17.163 8.00734 17.8668 8.42653 18.4183 9.01125C18.9591 9.5845 19.3325 10.2945 19.4986 11.0641C19.4791 11.3739 19.2546 11.7074 18.6716 12.0481C18.0712 12.399 17.2051 12.6844 16.1907 12.9054C14.1704 13.3456 11.7091 13.5002 10 13.5002C8.29095 13.5002 5.82963 13.3456 3.80932 12.9054C2.7949 12.6844 1.92881 12.399 1.32838 12.0481C0.745619 11.7075 0.521078 11.3741 0.50143 11.0644C0.66859 10.2949 1.043 9.58533 1.58463 9.01276C2.13725 8.42856 2.84192 8.01024 3.6193 7.80482L3.76023 7.77267ZM19.2428 11.1019L18.9929 11.059L19.25 11.0192V11.0172L18.8611 10.984L19.2266 10.8682C19.0153 10.2011 18.6437 9.59592 18.1443 9.10566C17.645 8.6154 17.0331 8.25496 16.3623 8.05586L16.3483 8.05171L16.3341 8.04839L16.0781 7.98839L16.0218 7.9752H15.964H15.6V7.2452H15.6001L15.5999 7.2353C15.5709 5.76826 14.9677 4.37111 13.9199 3.34387C12.8721 2.31664 11.4633 1.74124 9.996 1.74124C8.52867 1.74124 7.11986 2.31664 6.07208 3.34387C5.02431 4.37111 4.42114 5.76826 4.3921 7.2353L4.392 7.2353V7.2452V7.7722V7.97418L4.5323 8.11949C4.69125 8.28412 4.95044 8.41141 5.21385 8.51269C5.50032 8.62282 5.87077 8.73093 6.31855 8.82634C7.21519 9.0174 8.44808 9.16311 9.99068 9.1632C11.0288 9.16859 12.0657 9.09138 13.0916 8.9323L13.0949 8.93178L13.2194 8.91162L13.2595 9.15876L13.1402 9.17812C13.1397 9.17821 13.1391 9.1783 13.1386 9.17839C12.101 9.33947 11.0523 9.41799 10.0023 9.4132H10C9.72351 9.4132 8.49527 9.40203 7.20865 9.22534C6.5645 9.13689 5.92254 9.00912 5.38458 8.82769C4.83093 8.64098 4.4605 8.42115 4.27873 8.19498L4.08252 7.95083L3.77723 8.02085L3.66823 8.04585L3.65288 8.04937L3.63779 8.05385C2.96654 8.25299 2.35438 8.61374 1.85496 9.10447C1.35554 9.59521 0.98411 10.2009 0.77322 10.8686L0.736613 10.9845L0.757288 11.1043C0.79998 11.3516 0.978918 11.5225 1.0906 11.615C1.22623 11.7273 1.40175 11.8348 1.60456 11.9368C2.01298 12.1421 2.59173 12.3545 3.33699 12.5469C4.83116 12.9328 7.04114 13.2502 10 13.2502C12.9589 13.2502 15.1689 12.9328 16.6631 12.5467C17.4084 12.3541 17.9872 12.1415 18.3957 11.9358C18.5986 11.8337 18.7742 11.7259 18.9099 11.6133C19.0219 11.5203 19.2003 11.3491 19.2428 11.1019ZM3.58556 17.018L4.29088 15.441C4.37543 15.4553 4.46002 15.4689 4.54463 15.4821L3.81265 17.1195L3.58556 17.018ZM16.421 17.008L16.199 17.1291L15.3098 15.5038C15.3978 15.4902 15.486 15.4761 15.5743 15.4614L16.421 17.008ZM10.125 18.2502H9.875V15.8749C9.91727 15.8751 9.95893 15.8752 10 15.8752C10.041 15.8752 10.0828 15.875 10.125 15.8746V18.2502Z" fill="#0F1A1C" stroke="#0F1A1C"/>
</svg>
