<svg width="20" height="20" viewBox="0 0 20 20" fill="none" xmlns="http://www.w3.org/2000/svg">
<path d="M10 19.9995C9.71972 19.9994 9.44421 19.9271 9.2 19.7895L1.824 15.5895C1.57493 15.4481 1.36759 15.2434 1.22291 14.9962C1.07823 14.749 1.00134 14.468 1 14.1815V5.81752C1.00034 5.5307 1.07644 5.24906 1.22061 5.00111C1.36478 4.75316 1.5719 4.5477 1.821 4.40552L9.2 0.21052C9.44448 0.0739259 9.71982 0.00212847 9.99987 0.00195345C10.2799 0.00177842 10.5554 0.0732315 10.8 0.20952L18.176 4.40952C18.4251 4.55098 18.6324 4.75564 18.7771 5.00286C18.9218 5.25007 18.9987 5.53109 19 5.81752V14.1815C18.9997 14.4683 18.9236 14.75 18.7794 14.9979C18.6352 15.2459 18.4281 15.4513 18.179 15.5935L10.804 19.7935C10.5583 19.9305 10.2813 20.0014 10 19.9995ZM10 1.24852C9.93456 1.24806 9.87013 1.2646 9.813 1.29652L2.439 5.49652C2.3816 5.52943 2.3339 5.5769 2.30071 5.63413C2.26753 5.69137 2.25004 5.75636 2.25 5.82252V14.1865C2.25004 14.2527 2.26753 14.3177 2.30071 14.3749C2.3339 14.4321 2.3816 14.4796 2.439 14.5125L9.814 18.7125C9.8709 18.7447 9.93514 18.7616 10.0005 18.7616C10.0659 18.7616 10.1301 18.7447 10.187 18.7125L17.561 14.5175C17.6184 14.4846 17.6661 14.4371 17.6993 14.3799C17.7325 14.3227 17.75 14.2577 17.75 14.1915V5.81752C17.75 5.75136 17.7325 5.68637 17.6993 5.62914C17.6661 5.5719 17.6184 5.52443 17.561 5.49152L10.186 1.29952C10.1295 1.26655 10.0654 1.24897 10 1.24852ZM15.6 7.48852L14.975 6.40652L10 9.27852L5.026 6.40652L4.4 7.48852L9.374 10.3605V15.8675H10.624V10.3605L15.6 7.48852Z" fill="#0F1A1C"/>
</svg>
