<svg width="20" height="20" viewBox="0 0 20 20" fill="none" xmlns="http://www.w3.org/2000/svg">
<path d="M3.59988 15.8809L3.6 15.8809V15.87V2.5H18.8748C19.0406 2.5002 19.1996 2.56621 19.3168 2.68355C19.4341 2.80093 19.5 2.96007 19.5 3.126V16.874C19.5 17.0399 19.4341 17.1991 19.3168 17.3165C19.1996 17.4338 19.0405 17.4999 18.8746 17.5H2.37391L2.09678 17.4912C1.67224 17.4778 1.26924 17.3011 0.971766 16.9979C0.674974 16.6954 0.50606 16.2903 0.5 15.8667V3.5H0.75V15.87H0.749881L0.750119 15.8809C0.754148 16.0655 0.794629 16.2474 0.869232 16.4162C0.943834 16.585 1.05109 16.7374 1.18482 16.8647C1.31855 16.9919 1.47611 17.0914 1.64845 17.1575C1.81643 17.2219 1.99521 17.2534 2.175 17.2501C2.35479 17.2534 2.53357 17.2219 2.70155 17.1575C2.87389 17.0914 3.03145 16.9919 3.16518 16.8647C3.29891 16.7374 3.40617 16.585 3.48077 16.4162C3.55537 16.2474 3.59585 16.0655 3.59988 15.8809ZM18.75 17.25H19.25V16.75V3.25V2.75H18.75H4.35H3.85V3.25V15.8692C3.84915 16.0997 3.7974 16.3271 3.69843 16.5353L3.35869 17.25H4.15H18.75ZM13.529 9.5H16.378V9.75H13.529V9.5ZM6.618 12.75V12.5H9.5V12.75H6.618ZM13.529 12.5H16.378V12.75H13.529V12.5ZM16.376 6.75H6.618V6.5H16.376V6.75ZM9.5 9.75H6.618V9.5H9.5V9.75Z" fill="#0F1A1C" stroke="#0F1A1C"/>
</svg>
