<svg width="20" height="20" viewBox="0 0 20 20" fill="none" xmlns="http://www.w3.org/2000/svg">
<path d="M13.25 6.579C13.2484 7.18055 13.0779 7.76956 12.758 8.279L8.3 3.821C8.79063 3.51347 9.35485 3.34335 9.9337 3.32842C10.5126 3.31349 11.0848 3.4543 11.5906 3.73614C12.0965 4.01797 12.5173 4.43048 12.8092 4.93057C13.1011 5.43066 13.2533 5.99996 13.25 6.579V6.579ZM6.75 6.579C6.74713 7.15787 6.89964 7.7269 7.19162 8.22674C7.4836 8.72658 7.90435 9.13892 8.40998 9.42075C8.91562 9.70258 9.48761 9.84357 10.0663 9.82901C10.645 9.81446 11.2092 9.64489 11.7 9.338L7.242 4.882C6.92234 5.39044 6.75186 5.97842 6.75 6.579V6.579ZM2 17.5C2 18.163 2.26339 18.7989 2.73223 19.2678C3.20107 19.7366 3.83696 20 4.5 20H16.875C17.1732 19.9995 17.459 19.8808 17.6699 19.6699C17.8808 19.459 17.9995 19.1732 18 18.875V15H4.5C3.83696 15 3.20107 15.2634 2.73223 15.7322C2.26339 16.2011 2 16.837 2 17.5V17.5ZM18 1.125V13.625H4.5C3.58118 13.6289 2.6942 13.9621 2 14.564V2.625C2.00079 1.92905 2.27761 1.26183 2.76972 0.769722C3.26183 0.277611 3.92905 0.000794011 4.625 0L16.875 0C17.1732 0.000528736 17.459 0.119225 17.6699 0.330089C17.8808 0.540953 17.9995 0.826794 18 1.125ZM14.75 6.579C14.75 5.63954 14.4714 4.72117 13.9495 3.94004C13.4275 3.15891 12.6857 2.55009 11.8177 2.19057C10.9498 1.83106 9.99473 1.73699 9.07332 1.92027C8.15191 2.10355 7.30554 2.55594 6.64124 3.22024C5.97694 3.88454 5.52455 4.73091 5.34127 5.65232C5.15799 6.57373 5.25206 7.5288 5.61157 8.39675C5.97109 9.2647 6.57991 10.0065 7.36104 10.5285C8.14218 11.0504 9.06054 11.329 10 11.329C11.2593 11.3274 12.4665 10.8265 13.357 9.936C14.2475 9.04555 14.7484 7.83829 14.75 6.579V6.579Z" fill="#0F1A1C"/>
</svg>
