<svg width="20" height="20" viewBox="0 0 20 20" fill="none" xmlns="http://www.w3.org/2000/svg">
<path d="M2.553 6H1.553V5.5C1.553 4.70435 1.86907 3.94129 2.43168 3.37868C2.99429 2.81607 3.75735 2.5 4.553 2.5C5.34865 2.5 6.11171 2.81607 6.67432 3.37868C7.23693 3.94129 7.553 4.70435 7.553 5.5V6H6.553V5.5C6.553 4.96957 6.34229 4.46086 5.96721 4.08579C5.59214 3.71071 5.08343 3.5 4.553 3.5C4.02257 3.5 3.51386 3.71071 3.13879 4.08579C2.76371 4.46086 2.553 4.96957 2.553 5.5V6ZM13.4317 3.37868C13.9943 2.81607 14.7574 2.5 15.553 2.5C16.3486 2.5 17.1117 2.81607 17.6743 3.37868C18.2369 3.94129 18.553 4.70435 18.553 5.5V6H17.553V5.5C17.553 4.96957 17.3423 4.46086 16.9672 4.08579C16.5921 3.71071 16.0834 3.5 15.553 3.5C15.0226 3.5 14.5139 3.71071 14.1388 4.08579C13.7637 4.46086 13.553 4.96957 13.553 5.5V6H12.553V5.5C12.553 4.70435 12.8691 3.94129 13.4317 3.37868ZM1.625 9.5H18.375C18.4082 9.5 18.4399 9.51317 18.4634 9.53661C18.4868 9.56005 18.5 9.59185 18.5 9.625C18.5 13.9336 14.7204 17.5 10 17.5C5.27962 17.5 1.5 13.9336 1.5 9.625C1.5 9.59185 1.51317 9.56005 1.53661 9.53661C1.56005 9.51317 1.59185 9.5 1.625 9.5Z" fill="#0F1A1C" stroke="#0F1A1C"/>
</svg>
