<svg width="20" height="20" viewBox="0 0 20 20" fill="none" xmlns="http://www.w3.org/2000/svg">
<path d="M9.11693 13.7L9.94693 14.653L7.35293 17.678C7.24722 17.8012 7.11613 17.9001 6.96864 17.9678C6.82115 18.0356 6.66075 18.0707 6.49843 18.0707C6.33611 18.0707 6.1757 18.0356 6.02822 17.9678C5.88073 17.9001 5.74963 17.8012 5.64393 17.678L0.377927 11.534C0.269299 11.4068 0.199338 11.2513 0.176312 11.0856C0.153286 10.92 0.178157 10.7512 0.247985 10.5992C0.317814 10.4473 0.429682 10.3185 0.570371 10.2281C0.71106 10.1376 0.87469 10.0894 1.04193 10.089H4.07393V5.182C4.07446 4.88379 4.19315 4.59795 4.40402 4.38709C4.61488 4.17622 4.90072 4.05753 5.19893 4.057H7.79893C8.09713 4.05753 8.38297 4.17622 8.59384 4.38709C8.8047 4.59795 8.9234 4.88379 8.92393 5.182V6.8H7.67393V5.307H5.32393V11.339H1.85693L6.49893 16.753L9.11693 13.7ZM14.3529 15.622L19.6209 9.477C19.7293 9.34976 19.799 9.19417 19.8218 9.0286C19.8446 8.86302 19.8196 8.69438 19.7497 8.54257C19.6798 8.39075 19.5679 8.26211 19.4273 8.17182C19.2866 8.08153 19.1231 8.03336 18.9559 8.033H15.9239V3.125C15.9234 2.82679 15.8047 2.54095 15.5938 2.33009C15.383 2.11922 15.0971 2.00053 14.7989 2H12.1989C11.9007 2.00053 11.6149 2.11922 11.404 2.33009C11.1932 2.54095 11.0745 2.82679 11.0739 3.125V8.032H8.04193C7.87469 8.03239 7.71106 8.08064 7.57037 8.17106C7.42968 8.26147 7.31781 8.39027 7.24799 8.54223C7.17816 8.69419 7.15329 8.86297 7.17631 9.02861C7.19934 9.19425 7.2693 9.34985 7.37793 9.477L12.6439 15.62C12.7495 15.7433 12.8806 15.8423 13.0281 15.9102C13.1756 15.9781 13.3361 16.0133 13.4984 16.0133C13.6608 16.0133 13.8212 15.9781 13.9688 15.9102C14.1163 15.8423 14.2473 15.7433 14.3529 15.62V15.622ZM12.3239 9.282V3.25H14.6739V9.282H18.1399L13.4989 14.7L8.85793 9.282H12.3239Z" fill="#0F1A1C"/>
</svg>
