<svg width="20" height="20" viewBox="0 0 20 20" fill="none" xmlns="http://www.w3.org/2000/svg">
<path d="M10 4C9.30777 4 8.63108 4.20527 8.0555 4.58986C7.47993 4.97444 7.03133 5.52107 6.76642 6.16061C6.50152 6.80015 6.4322 7.50388 6.56725 8.18282C6.7023 8.86175 7.03564 9.48539 7.52513 9.97487C8.01461 10.4644 8.63825 10.7977 9.31718 10.9327C9.99612 11.0678 10.6999 10.9985 11.3394 10.7336C11.9789 10.4687 12.5256 10.0201 12.9101 9.4445C13.2947 8.86892 13.5 8.19223 13.5 7.5C13.5 6.57174 13.1313 5.6815 12.4749 5.02513C11.8185 4.36875 10.9283 4 10 4ZM10 9.75C9.55499 9.75 9.11998 9.61804 8.74997 9.37081C8.37996 9.12357 8.09157 8.77217 7.92127 8.36104C7.75097 7.9499 7.70642 7.4975 7.79323 7.06105C7.88005 6.62459 8.09434 6.22368 8.40901 5.90901C8.72368 5.59434 9.12459 5.38005 9.56105 5.29323C9.9975 5.20642 10.4499 5.25097 10.861 5.42127C11.2722 5.59157 11.6236 5.87996 11.8708 6.24997C12.118 6.61998 12.25 7.05499 12.25 7.5C12.2495 8.09657 12.0122 8.66856 11.5904 9.09041C11.1686 9.51225 10.5966 9.74947 10 9.75ZM15.93 3.92C16.0249 4.01126 16.1004 4.12074 16.152 4.24188C16.2036 4.36302 16.2302 4.49333 16.2302 4.625C16.2302 4.75667 16.2036 4.88698 16.152 5.00812C16.1004 5.12926 16.0249 5.23874 15.93 5.33C15.8848 5.37854 15.8345 5.42212 15.78 5.46C15.73 5.49 15.67 5.52 15.61 5.55C15.55 5.58 15.48 5.59 15.42 5.61C15.357 5.61832 15.2935 5.62166 15.23 5.62C15.0983 5.62131 14.9677 5.59634 14.8458 5.54655C14.7239 5.49675 14.6131 5.42313 14.52 5.33C14.427 5.23885 14.3534 5.12987 14.3036 5.00959C14.2538 4.8893 14.2287 4.76019 14.23 4.63C14.228 4.49671 14.2518 4.36429 14.3 4.24C14.3521 4.12018 14.4268 4.01153 14.52 3.92C14.6088 3.82362 14.7182 3.74844 14.84 3.7C15.0235 3.6274 15.2241 3.60955 15.4176 3.64859C15.611 3.68764 15.789 3.78191 15.93 3.92ZM16.378 1H3.622C2.92561 1.00185 2.25841 1.27993 1.76683 1.77319C1.27526 2.26646 0.999469 2.93461 1 3.631V13.375C1 13.5408 1.06585 13.6997 1.18306 13.8169C1.30027 13.9342 1.45924 14 1.625 14H17.75V16.369C17.7505 16.7339 17.6064 17.0841 17.3493 17.3429C17.0921 17.6018 16.7429 17.7481 16.378 17.75H3.622C3.25713 17.7481 2.90787 17.6018 2.65072 17.3429C2.39356 17.0841 2.24947 16.7339 2.25 16.369V15.744H1V16.369C0.999469 17.0654 1.27526 17.7335 1.76683 18.2268C2.25841 18.7201 2.92561 18.9981 3.622 19H16.378C17.0744 18.9981 17.7416 18.7201 18.2332 18.2268C18.7247 17.7335 19.0005 17.0654 19 16.369V3.631C19.0005 2.93461 18.7247 2.26646 18.2332 1.77319C17.7416 1.27993 17.0744 1.00185 16.378 1ZM17.75 12.75H2.25V3.631C2.24947 3.26613 2.39356 2.91592 2.65072 2.65707C2.90787 2.39823 3.25713 2.25185 3.622 2.25H16.378C16.7429 2.25185 17.0921 2.39823 17.3493 2.65707C17.6064 2.91592 17.7505 3.26613 17.75 3.631V12.75Z" fill="#0F1A1C"/>
</svg>
