<svg width="20" height="20" viewBox="0 0 20 20" fill="none" xmlns="http://www.w3.org/2000/svg">
<path d="M17.875 1H2.125C1.82679 1.00053 1.54095 1.11922 1.33009 1.33009C1.11922 1.54095 1.00053 1.82679 1 2.125V5.875C1.00223 6.14924 1.10545 6.41304 1.28993 6.61597C1.47441 6.8189 1.72721 6.94672 2 6.975V17.815C2.00132 18.1301 2.12756 18.4318 2.35101 18.6539C2.57447 18.8761 2.87691 19.0005 3.192 19H16.808C17.1231 19.0005 17.4255 18.8761 17.649 18.6539C17.8724 18.4318 17.9987 18.1301 18 17.815V6.975C18.2728 6.94672 18.5256 6.8189 18.7101 6.61597C18.8946 6.41304 18.9978 6.14924 19 5.875V2.125C18.9995 1.82679 18.8808 1.54095 18.6699 1.33009C18.459 1.11922 18.1732 1.00053 17.875 1ZM2.25 2.25H17.75V5.75H2.25V2.25ZM3.25 17.815V7H16.75L16.806 17.75L3.25 17.815ZM13.35 10V11.25H6.65V10H13.35Z" fill="#0F1A1C"/>
</svg>
