<svg width="20" height="20" viewBox="0 0 20 20" fill="none" xmlns="http://www.w3.org/2000/svg">
<g clip-path="url(#clip0_473_146)">
<path d="M10 0C8.02219 0 6.08879 0.58649 4.4443 1.6853C2.79981 2.78412 1.51809 4.3459 0.761209 6.17317C0.00433284 8.00043 -0.193701 10.0111 0.192152 11.9509C0.578004 13.8907 1.53041 15.6725 2.92894 17.0711C4.32746 18.4696 6.10929 19.422 8.0491 19.8079C9.98891 20.1937 11.9996 19.9957 13.8268 19.2388C15.6541 18.4819 17.2159 17.2002 18.3147 15.5557C19.4135 13.9112 20 11.9778 20 10C19.9971 7.34873 18.9426 4.80688 17.0679 2.93215C15.1931 1.05742 12.6513 0.0029116 10 0V0ZM4.5 9C4.5 8.70333 4.58798 8.41332 4.7528 8.16665C4.91762 7.91997 5.15189 7.72771 5.42598 7.61418C5.70007 7.50065 6.00167 7.47094 6.29264 7.52882C6.58361 7.5867 6.85089 7.72956 7.06066 7.93934C7.27044 8.14912 7.4133 8.41639 7.47118 8.70736C7.52906 8.99834 7.49936 9.29994 7.38582 9.57403C7.27229 9.84811 7.08003 10.0824 6.83336 10.2472C6.58669 10.412 6.29668 10.5 6 10.5C5.60218 10.5 5.22065 10.342 4.93934 10.0607C4.65804 9.77936 4.5 9.39782 4.5 9ZM10 15.454C9.2598 15.4691 8.52678 15.3064 7.86244 14.9797C7.19811 14.6529 6.62184 14.1715 6.182 13.576L7.817 12.425C8.07447 12.7559 8.40629 13.0216 8.78556 13.2003C9.16483 13.3791 9.58088 13.466 10 13.454C10.419 13.4661 10.8349 13.3792 11.2141 13.2004C11.5932 13.0216 11.9248 12.756 12.182 12.425L13.818 13.575C13.3784 14.1708 12.8022 14.6525 12.1378 14.9794C11.4735 15.3064 10.7403 15.4692 10 15.454ZM14 10.5C13.7033 10.5 13.4133 10.412 13.1666 10.2472C12.92 10.0824 12.7277 9.84811 12.6142 9.57403C12.5007 9.29994 12.4709 8.99834 12.5288 8.70736C12.5867 8.41639 12.7296 8.14912 12.9393 7.93934C13.1491 7.72956 13.4164 7.5867 13.7074 7.52882C13.9983 7.47094 14.2999 7.50065 14.574 7.61418C14.8481 7.72771 15.0824 7.91997 15.2472 8.16665C15.412 8.41332 15.5 8.70333 15.5 9C15.5 9.39782 15.342 9.77936 15.0607 10.0607C14.7794 10.342 14.3978 10.5 14 10.5Z" fill="#0F1A1C"/>
</g>
<defs>
<clipPath id="clip0_473_146">
<rect width="20" height="20" fill="white"/>
</clipPath>
</defs>
</svg>
