<svg width="20" height="20" viewBox="0 0 20 20" fill="none" xmlns="http://www.w3.org/2000/svg">
<path d="M7.24963 8.5C7.25016 9.22918 7.54006 9.92835 8.05567 10.444C8.57128 10.9596 9.27045 11.2495 9.99963 11.25C10.4667 11.2469 10.925 11.1236 11.3306 10.892L7.60763 7.169C7.37605 7.57459 7.25276 8.03296 7.24963 8.5Z" fill="#0F1A1C"/>
<path d="M9.99963 5.75C9.53259 5.75313 9.07422 5.87641 8.66863 6.108L12.3916 9.831C12.6232 9.42541 12.7465 8.96704 12.7496 8.5C12.7491 7.77082 12.4592 7.07165 11.9436 6.55604C11.428 6.04043 10.7288 5.75053 9.99963 5.75Z" fill="#0F1A1C"/>
<path d="M18.6706 2.13C18.5647 2.0708 18.447 2.03588 18.3259 2.02775C18.2049 2.01962 18.0835 2.03849 17.9706 2.083C16.7791 2.63905 15.4785 2.92204 14.1636 2.91131C12.8488 2.90059 11.5529 2.59642 10.3706 2.021C8.97889 1.35243 7.45464 1.00531 5.91063 1.00531C4.36663 1.00531 2.84238 1.35243 1.45063 2.021C1.34507 2.07239 1.25608 2.15243 1.19384 2.25199C1.1316 2.35154 1.0986 2.46659 1.09863 2.584V19.775H1.33963V20H2.99963V14.558C5.23918 13.792 7.6899 13.9356 9.82463 14.958C11.199 15.6265 12.7073 15.9739 14.2356 15.9739C15.764 15.9739 17.2723 15.6265 18.6466 14.958C18.7516 14.9071 18.8403 14.8279 18.9027 14.7293C18.9651 14.6307 18.9986 14.5167 18.9996 14.4V2.732C18.9999 2.61207 18.9699 2.494 18.9124 2.38876C18.8549 2.28352 18.7717 2.19451 18.6706 2.13ZM9.99963 12.75C9.15906 12.75 8.33737 12.5007 7.63846 12.0337C6.93955 11.5668 6.39482 10.903 6.07314 10.1264C5.75147 9.34982 5.66731 8.49529 5.8313 7.67087C5.99528 6.84645 6.40006 6.08917 6.99443 5.4948C7.5888 4.90042 8.34608 4.49565 9.1705 4.33166C9.99492 4.16768 10.8495 4.25184 11.626 4.57351C12.4026 4.89519 13.0664 5.43992 13.5334 6.13883C14.0004 6.83774 14.2496 7.65943 14.2496 8.5C14.2483 9.62677 13.8001 10.707 13.0034 11.5037C12.2066 12.3005 11.1264 12.7487 9.99963 12.75Z" fill="#0F1A1C"/>
</svg>
