<svg width="20" height="20" viewBox="0 0 20 20" fill="none" xmlns="http://www.w3.org/2000/svg">
<g clip-path="url(#clip0_473_55)">
<path d="M0 11.5H20V15H4.451V16.5H20V17.875C19.9998 18.0199 19.9708 18.1633 19.9147 18.2969C19.8586 18.4304 19.7764 18.5515 19.673 18.653C19.4464 18.876 19.141 19.0007 18.823 19L1.175 18.963C0.870207 18.9689 0.575479 18.8539 0.355283 18.643C0.135087 18.4322 0.00734593 18.1428 0 17.838L0 11.5ZM7.746 1C7.253 1 4.784 2.5 4.784 4.5C4.77677 4.89362 4.84805 5.28474 4.99368 5.6505C5.13931 6.01626 5.35638 6.34933 5.63219 6.63026C5.908 6.91118 6.23702 7.13432 6.60005 7.28665C6.96307 7.43898 7.35281 7.51743 7.7465 7.51743C8.14019 7.51743 8.52993 7.43898 8.89295 7.28665C9.25598 7.13432 9.585 6.91118 9.86081 6.63026C10.1366 6.34933 10.3537 6.01626 10.4993 5.6505C10.6449 5.28474 10.7162 4.89362 10.709 4.5C10.709 2.5 8.24 1 7.746 1ZM19.426 8.687L12.2 4.571C12.1967 5.62375 11.8197 6.64112 11.1361 7.44172C10.4525 8.24232 9.50672 8.7741 8.46748 8.94224C7.42824 9.11038 6.36307 8.90395 5.46187 8.35977C4.56068 7.81558 3.88206 6.96901 3.547 5.971L0.375 8.8C0.257609 8.90288 0.163456 9.02956 0.0988002 9.17163C0.034144 9.3137 0.000464568 9.46791 0 9.624L0 10H20V9.652C19.998 9.4548 19.9439 9.26163 19.8431 9.09214C19.7422 8.92264 19.5983 8.78286 19.426 8.687Z" fill="#0F1A1C"/>
</g>
<defs>
<clipPath id="clip0_473_55">
<rect width="20" height="20" fill="white"/>
</clipPath>
</defs>
</svg>
