<svg width="20" height="20" viewBox="0 0 20 20" fill="none" xmlns="http://www.w3.org/2000/svg">
<g clip-path="url(#clip0_473_26)">
<path d="M4.88595 13.444C4.36701 13.2885 3.86823 13.0724 3.39995 12.8L1.14695 13.362C1.04212 13.3897 0.931872 13.3893 0.82726 13.3608C0.722647 13.3324 0.627355 13.2769 0.550949 13.2C0.474614 13.1238 0.4193 13.0292 0.390387 12.9253C0.361473 12.8213 0.359944 12.7117 0.385949 12.607L0.949948 10.354C0.0362578 8.79997 -0.232941 6.95004 0.199949 5.20003C0.500428 3.96487 1.14111 2.83866 2.04929 1.94922C2.95748 1.05977 4.09679 0.442701 5.33795 0.168032C6.47396 -0.0875969 7.65612 -0.0523438 8.77489 0.270524C9.89365 0.593392 10.9128 1.19343 11.7379 2.01503C12.538 2.81595 13.1263 3.80324 13.4499 4.88803C13.0158 4.8736 12.5812 4.89232 12.1499 4.94403C11.8722 4.17608 11.4295 3.47837 10.8529 2.90003C10.1755 2.22615 9.33875 1.73431 8.42043 1.47016C7.50211 1.20601 6.53194 1.1781 5.59995 1.38903C4.58853 1.61266 3.66007 2.11538 2.91996 2.8401C2.17986 3.56483 1.65777 4.48253 1.41295 5.48903C1.22675 6.23672 1.19536 7.01458 1.32073 7.77484C1.44609 8.5351 1.72555 9.26171 2.14195 9.91003C2.18797 9.98176 2.21881 10.0621 2.23257 10.1463C2.24633 10.2304 2.24271 10.3164 2.22195 10.399L1.84795 11.899L3.34795 11.525C3.3974 11.5131 3.44808 11.5071 3.49895 11.507C3.61887 11.5073 3.73619 11.542 3.83695 11.607C4.18269 11.8285 4.55154 12.0115 4.93695 12.153C4.88625 12.5814 4.86919 13.013 4.88595 13.444ZM14.7999 19.8C16.0352 19.5 17.1617 18.8598 18.0515 17.952C18.9413 17.0441 19.5588 15.9051 19.8339 14.664C20.0922 13.5284 20.0583 12.3458 19.7354 11.2267C19.4125 10.1077 18.8112 9.08884 17.9877 8.2653C17.1641 7.44176 16.1453 6.84045 15.0262 6.51757C13.9072 6.1947 12.7246 6.1608 11.5889 6.41903C10.3479 6.69362 9.20869 7.31054 8.30052 8.1998C7.39235 9.08906 6.75159 10.2151 6.45095 11.45C6.01885 13.1987 6.28766 15.0469 7.19995 16.6L6.63595 18.852C6.60975 18.9568 6.61112 19.0665 6.63993 19.1705C6.66873 19.2745 6.72399 19.3693 6.80032 19.4457C6.87665 19.522 6.97145 19.5772 7.07548 19.6061C7.17951 19.6349 7.28923 19.6362 7.39395 19.61L9.64695 19.047C10.7002 19.671 11.9018 20.0001 13.1259 20C13.6899 19.9996 14.2518 19.9324 14.7999 19.8ZM9.59995 17.774L8.09995 18.148L8.47395 16.648C8.49471 16.5654 8.49833 16.4794 8.48457 16.3953C8.47081 16.3112 8.43997 16.2308 8.39395 16.159C7.97755 15.5107 7.69809 14.7841 7.57273 14.0238C7.44736 13.2636 7.47875 12.4857 7.66495 11.738C7.90987 10.7316 8.432 9.81394 9.17209 9.08923C9.91217 8.36452 10.8406 7.86177 11.8519 7.63803C12.7836 7.42374 13.7544 7.44981 14.6731 7.71377C15.5919 7.97774 16.4285 8.47094 17.1043 9.14704C17.7801 9.82314 18.2729 10.6599 18.5365 11.5788C18.8 12.4977 18.8256 13.4685 18.6109 14.4C18.3869 15.4113 17.884 16.3395 17.1594 17.0795C16.4347 17.8195 15.5172 18.3418 14.5109 18.587C13.7636 18.7734 12.986 18.8048 12.2261 18.6794C11.4661 18.5541 10.7398 18.2745 10.0919 17.858C9.99119 17.793 9.87387 17.7583 9.75395 17.758C9.70216 17.7572 9.65046 17.7626 9.59995 17.774Z" fill="#0F1A1C"/>
</g>
<defs>
<clipPath id="clip0_473_26">
<rect width="20" height="20" fill="white"/>
</clipPath>
</defs>
</svg>
