<svg width="20" height="20" viewBox="0 0 20 20" fill="none" xmlns="http://www.w3.org/2000/svg">
<g clip-path="url(#clip0_474_54)">
<path d="M16.0003 10.011V9.566C16.0264 7.62632 15.5023 5.71895 14.4887 4.06499C13.4751 2.41102 12.0135 1.07819 10.2733 0.221L10.0003 0.0869999L9.72727 0.221C7.98708 1.07819 6.52546 2.41102 5.51185 4.06499C4.49823 5.71895 3.97412 7.62632 4.00027 9.566V10.011C3.14699 10.1806 2.37994 10.6434 1.83203 11.3192C1.28412 11.9949 0.98987 12.8411 1.00027 13.711V16.852C0.997863 17.1532 1.11489 17.4431 1.32573 17.6583C1.53657 17.8734 1.82405 17.9963 2.12527 18H17.8753C18.1765 17.9963 18.464 17.8734 18.6748 17.6583C18.8856 17.4431 19.0027 17.1532 19.0003 16.852V13.711C19.0107 12.8411 18.7164 11.9949 18.1685 11.3192C17.6206 10.6434 16.8535 10.1806 16.0003 10.011ZM2.25027 16.75V13.711C2.24354 13.1743 2.41022 12.6497 2.72552 12.2153C3.04081 11.781 3.48789 11.4599 4.00027 11.3V16.75H2.25027ZM14.7503 16.75H5.25027V9.566C5.22702 7.91312 5.65758 6.28553 6.49509 4.86035C7.3326 3.43517 8.54497 2.26701 10.0003 1.483C11.4556 2.26701 12.6679 3.43517 13.5054 4.86035C14.343 6.28553 14.7735 7.91312 14.7503 9.566V16.75ZM17.7503 16.75H16.0003V11.3C16.5135 11.4602 16.9611 11.782 17.2765 12.2174C17.5919 12.6528 17.7581 13.1784 17.7503 13.716V16.75ZM7.00027 18.75H13.0003V20H7.00027V18.75ZM7.00027 8C7.00027 8.59334 7.17621 9.17336 7.50586 9.66671C7.8355 10.1601 8.30404 10.5446 8.85222 10.7716C9.40039 10.9987 10.0036 11.0581 10.5855 10.9424C11.1675 10.8266 11.702 10.5409 12.1216 10.1213C12.5411 9.70176 12.8269 9.16721 12.9426 8.58527C13.0584 8.00333 12.999 7.40013 12.7719 6.85195C12.5448 6.30377 12.1603 5.83524 11.667 5.50559C11.1736 5.17595 10.5936 5 10.0003 5C9.20462 5 8.44156 5.31607 7.87895 5.87868C7.31634 6.44129 7.00027 7.20435 7.00027 8ZM11.7503 8C11.7503 8.34612 11.6476 8.68446 11.4553 8.97225C11.263 9.26003 10.9897 9.48434 10.67 9.61679C10.3502 9.74924 9.99833 9.7839 9.65886 9.71637C9.31939 9.64885 9.00757 9.48218 8.76283 9.23744C8.51809 8.9927 8.35142 8.68087 8.28389 8.34141C8.21637 8.00194 8.25102 7.65007 8.38348 7.3303C8.51593 7.01053 8.74023 6.73722 9.02802 6.54493C9.3158 6.35264 9.65415 6.25 10.0003 6.25C10.4642 6.25053 10.909 6.43507 11.2371 6.76315C11.5652 7.09122 11.7497 7.53603 11.7503 8Z" fill="#0F1A1C"/>
</g>
<defs>
<clipPath id="clip0_474_54">
<rect width="20" height="20" fill="white"/>
</clipPath>
</defs>
</svg>
