<svg width="20" height="20" viewBox="0 0 20 20" fill="none" xmlns="http://www.w3.org/2000/svg">
<path d="M10.0004 17.384C11.8815 17.3857 13.719 16.8181 15.2714 15.756L16.0584 17.873C16.1529 18.1229 16.1855 18.3919 16.1534 18.6571C16.1214 18.9223 16.0257 19.1758 15.8744 19.396C15.7517 19.5794 15.5859 19.73 15.3915 19.8346C15.1972 19.9392 14.9802 19.9946 14.7594 19.996H5.14144C4.92056 19.9948 4.70335 19.9394 4.5088 19.8348C4.31425 19.7302 4.1483 19.5796 4.02544 19.396C3.87437 19.1757 3.77883 18.9222 3.74697 18.657C3.7151 18.3918 3.74786 18.1228 3.84244 17.873L4.65144 15.7C6.21911 16.7975 8.08678 17.3855 10.0004 17.384ZM17.9634 8.73199C17.808 10.5028 17.0688 12.1718 15.8618 13.4768C14.6549 14.7819 13.0486 15.649 11.2954 15.942C9.54207 16.235 7.74113 15.9374 6.17541 15.0957C4.60969 14.2541 3.36791 12.9161 2.64513 11.2921C1.92235 9.6681 1.75953 7.84999 2.18224 6.12338C2.60494 4.39678 3.58923 2.8595 4.98048 1.75304C6.37174 0.646572 8.09113 0.0336089 9.86858 0.0104326C11.646 -0.0127438 13.3808 0.55518 14.8004 1.62499C14.5805 1.79612 14.3952 2.00755 14.2544 2.24799L13.8414 2.98699L13.1044 3.39899C12.7563 3.59331 12.4663 3.87704 12.2644 4.2209C12.0625 4.56475 11.9561 4.95626 11.9561 5.35499C11.9561 5.75373 12.0625 6.14523 12.2644 6.48909C12.4663 6.83294 12.7563 7.11667 13.1044 7.31099L13.8434 7.72399L14.2564 8.46299V8.46899C14.4516 8.81495 14.7352 9.10283 15.0782 9.30315C15.4212 9.50346 15.8112 9.60901 16.2084 9.60899H16.2144C16.5536 9.60605 16.8875 9.52548 17.1907 9.37346C17.4939 9.22144 17.7582 9.00201 17.9634 8.73199ZM9.95044 3.08799C8.6481 3.08932 7.39949 3.60725 6.47859 4.52815C5.5577 5.44904 5.03977 6.69766 5.03844 7.99999H6.28844C6.2895 7.0291 6.67566 6.09827 7.36219 5.41174C8.04871 4.72521 8.97954 4.33905 9.95044 4.33799V3.08799ZM18.6504 4.60099L17.5674 3.99999L16.9674 2.92299C16.8928 2.78838 16.7835 2.67615 16.651 2.59792C16.5184 2.51968 16.3674 2.47828 16.2134 2.47799C16.0596 2.47821 15.9086 2.51936 15.7759 2.59721C15.6432 2.67506 15.5337 2.78681 15.4584 2.92099L14.8524 3.99999L13.7744 4.59999C13.6401 4.67494 13.5282 4.78438 13.4504 4.91702C13.3725 5.04966 13.3314 5.20068 13.3314 5.35449C13.3314 5.50831 13.3725 5.65933 13.4504 5.79197C13.5282 5.92461 13.6401 6.03405 13.7744 6.10899L14.8544 6.70899L15.4544 7.78799C15.53 7.92147 15.6396 8.03252 15.772 8.10982C15.9045 8.18712 16.0551 8.22789 16.2084 8.22799C16.3619 8.22783 16.5125 8.18679 16.6449 8.10911C16.7772 8.03143 16.8865 7.9199 16.9614 7.78599L17.5614 6.70799L18.6424 6.10799C18.7768 6.03305 18.8886 5.9236 18.9665 5.79097C19.0444 5.65833 19.0855 5.50731 19.0855 5.35349C19.0855 5.19968 19.0444 5.04866 18.9665 4.91602C18.8886 4.78338 18.7768 4.67394 18.6424 4.59899L18.6504 4.60099Z" fill="#0F1A1C"/>
</svg>
