<svg width="20" height="20" viewBox="0 0 20 20" fill="none" xmlns="http://www.w3.org/2000/svg">
<path d="M10.125 19.5V19.375V19.3713C10.1269 19.1166 10.1803 18.8648 10.2821 18.6313C10.3839 18.3977 10.5319 18.1872 10.7173 18.0124C10.9027 17.8376 11.1215 17.7021 11.3606 17.6142C11.5954 17.5278 11.845 17.489 12.0948 17.5H19.375C19.4082 17.5 19.4399 17.4868 19.4634 17.4634C19.4868 17.4399 19.5 17.4082 19.5 17.375V2.625C19.5 2.59185 19.4868 2.56005 19.4634 2.53661C19.4399 2.51317 19.4082 2.5 19.375 2.5H12.0839C11.7588 2.50119 11.438 2.57481 11.145 2.71551C10.8517 2.85632 10.5934 3.06078 10.3891 3.31399L10 3.79622L9.61088 3.31399C9.40656 3.06078 9.14835 2.85632 8.85504 2.71551C8.56196 2.57481 8.24122 2.50119 7.91613 2.5H0.625C0.591848 2.5 0.560054 2.51317 0.536612 2.53661C0.51317 2.56005 0.5 2.59185 0.5 2.625V17.375C0.5 17.4082 0.51317 17.4399 0.536612 17.4634C0.560053 17.4868 0.591847 17.5 0.625 17.5H8.042V17.25H1.25H0.75V16.75V3.25V2.75H1.25H7.917H7.91939V2.75001C8.43984 2.75249 8.93805 2.96135 9.30468 3.33075C9.67114 3.69997 9.87623 4.19944 9.875 4.71962M10.125 19.5L9.875 4.72037C9.875 4.72012 9.875 4.71987 9.875 4.71962M10.125 19.5H9.875V19.3764L10.125 19.5ZM9.875 4.71962V15.312M9.875 4.71962V15.312M9.875 15.312H10.125V4.71962V4.719L9.875 15.312Z" fill="#0F1A1C" stroke="#0F1A1C"/>
</svg>
