<svg width="20" height="20" viewBox="0 0 20 20" fill="none" xmlns="http://www.w3.org/2000/svg">
<g clip-path="url(#clip0_474_0)">
<path d="M19.987 3.636C19.9859 3.20571 19.8145 2.79335 19.5101 2.48918C19.2058 2.18501 18.7933 2.01379 18.363 2.013L1.626 2C1.19501 2.00026 0.781738 2.17152 0.47689 2.47618C0.172042 2.78084 0.000529713 3.19401 0 3.625L0 16.375C0.000529257 16.8058 0.171904 17.2188 0.476536 17.5235C0.781168 17.8281 1.19419 17.9995 1.625 18H18.374C18.8052 17.9992 19.2184 17.8275 19.5232 17.5225C19.828 17.2175 19.9995 16.8042 20 16.373L19.987 3.636ZM1.625 3.25L18.363 3.263C18.4623 3.26326 18.5574 3.30289 18.6275 3.37319C18.6976 3.44349 18.737 3.53872 18.737 3.638V4.638L14 8.767V6.454L10 5.417L6 6.454V8.772L1.25 4.579V3.625C1.25 3.52554 1.28951 3.43016 1.35983 3.35983C1.43016 3.28951 1.52554 3.25 1.625 3.25ZM12.75 7.421V10.875C12.75 12.298 10.606 13.09 10 13.285C9.394 13.085 7.25 12.298 7.25 10.875V7.421L10 6.708L12.75 7.421ZM18.639 16.64C18.5687 16.7103 18.4734 16.7498 18.374 16.75H1.625C1.52554 16.75 1.43016 16.7105 1.35983 16.6402C1.28951 16.5698 1.25 16.4745 1.25 16.375V6.246L6 10.438V10.875C6 13.516 9.686 14.502 9.843 14.543L10 14.583L10.157 14.543C10.314 14.5 14 13.516 14 10.875V10.424L18.739 6.3L18.749 16.378C18.748 16.4764 18.7085 16.5704 18.639 16.64Z" fill="#0F1A1C"/>
</g>
<defs>
<clipPath id="clip0_474_0">
<rect width="20" height="20" fill="white"/>
</clipPath>
</defs>
</svg>
