<svg width="20" height="20" viewBox="0 0 20 20" fill="none" xmlns="http://www.w3.org/2000/svg">
<path d="M16.2002 8.0002H9.0002V7.0002H7.7502V8.0002H4.8842C4.65195 7.99833 4.42844 8.08867 4.26271 8.2514C4.09698 8.41413 4.00258 8.63595 4.0002 8.8682V11.1322C4.00258 11.3644 4.09698 11.5863 4.26271 11.749C4.42844 11.9117 4.65195 12.0021 4.8842 12.0002H7.7502V13.0002H9.0002V12.0002H12.7432C13.6488 12.0225 14.5264 11.685 15.1837 11.0616C15.8411 10.4382 16.2245 9.57976 16.2502 8.6742L16.2002 8.0002ZM12.7452 10.7502H9.0252V9.2502H14.9112C14.7548 9.69734 14.4608 10.0834 14.0712 10.3529C13.6817 10.6224 13.2168 10.7615 12.7432 10.7502H12.7452ZM10.0002 19.9902C9.39257 19.9917 8.79066 19.8729 8.22923 19.6405C7.6678 19.4081 7.15797 19.0667 6.7292 18.6362L1.3642 13.2712C0.496948 12.4035 0.00976563 11.227 0.00976562 10.0002C0.00976562 8.77343 0.496948 7.59687 1.3642 6.7292L6.7292 1.3642C7.59687 0.496948 8.77343 0.00976563 10.0002 0.00976562C11.227 0.00976563 12.4035 0.496948 13.2712 1.3642L18.6362 6.7282C19.5035 7.59587 19.9906 8.77243 19.9906 9.9992C19.9906 11.226 19.5035 12.4025 18.6362 13.2702L13.2722 18.6352C12.8434 19.066 12.3334 19.4076 11.7718 19.6402C11.2102 19.8728 10.6081 19.9917 10.0002 19.9902ZM10.0002 1.2602C9.55693 1.25899 9.11782 1.34569 8.70827 1.51528C8.29871 1.68486 7.92686 1.93397 7.6142 2.2482L2.2492 7.6142C1.93583 7.92751 1.68725 8.29949 1.51765 8.70888C1.34805 9.11827 1.26076 9.55707 1.26076 10.0002C1.26076 10.4433 1.34805 10.8821 1.51765 11.2915C1.68725 11.7009 1.93583 12.0729 2.2492 12.3862L7.6152 17.7522C8.25842 18.365 9.11278 18.7069 10.0012 18.7069C10.8896 18.7069 11.744 18.365 12.3872 17.7522L17.7522 12.3862C18.0656 12.0729 18.3142 11.7009 18.4838 11.2915C18.6534 10.8821 18.7406 10.4433 18.7406 10.0002C18.7406 9.55707 18.6534 9.11827 18.4838 8.70888C18.3142 8.29949 18.0656 7.92751 17.7522 7.6142L12.3862 2.2492C12.0737 1.93466 11.7019 1.68528 11.2923 1.5155C10.8828 1.34573 10.4436 1.25896 10.0002 1.2602Z" fill="#0F1A1C"/>
</svg>
