<svg width="20" height="20" viewBox="0 0 20 20" fill="none" xmlns="http://www.w3.org/2000/svg">
<g clip-path="url(#clip0_1581_886)">
<path d="M17.3721 4.36155L17.3721 4.36159L17.3785 4.36494C17.4968 4.4261 17.5909 4.52554 17.6454 4.64705C17.7 4.76856 17.7117 4.90495 17.6787 5.03398L17.6777 5.03815C17.6448 5.17159 17.5676 5.28992 17.4587 5.37379C17.3499 5.45766 17.2157 5.5021 17.0783 5.49985L17.0783 5.49978H17.0701H2.93014V5.49971L2.92194 5.49985C2.78453 5.5021 2.65043 5.45766 2.54156 5.37379C2.43269 5.28992 2.3555 5.17159 2.32262 5.03815L2.32264 5.03815L2.32152 5.03378C2.2885 4.90481 2.30015 4.76846 2.35457 4.64696C2.40898 4.52545 2.50295 4.42597 2.62116 4.36473L2.62118 4.36477L2.62718 4.36156L9.69846 0.574941C9.69853 0.574903 9.6986 0.574865 9.69867 0.574827C9.79146 0.525377 9.89499 0.499512 10.0001 0.499512C10.1053 0.499512 10.2088 0.525382 10.3016 0.574839C10.3017 0.574873 10.3018 0.574907 10.3018 0.574941L17.3721 4.36155ZM3.37514 7.74978H2.67514V7.49978H17.3251V7.74978H16.6251H16.1251V8.24978V14.4248H15.8751V8.24978V7.74978H15.3751H12.6251H12.1251V8.24978V14.4248H11.8751V8.24978V7.74978H11.3751H8.62514H8.12514V8.24978V14.4248H7.87514V8.24978V7.74978H7.37514H4.62514H4.12514V8.24978V14.4248H3.87514V8.24978V7.74978H3.37514ZM3.25513 4.30898L3.49114 5.24978H16.5091L16.7451 4.30898L10.2361 0.823983L10.0001 0.697622L9.76413 0.823983L3.25513 4.30898ZM19.1827 18.1393L18.9811 18.2853L18.0203 16.9568L17.8706 16.7498H17.6151H2.38414H2.12856L1.97888 16.9569L1.01905 18.2852L0.816937 18.1388L1.8449 16.7163C1.90307 16.6517 1.97357 16.5993 2.05232 16.5622C2.13522 16.5231 2.22539 16.5018 2.31699 16.4998L17.6881 16.4998L17.6892 16.4998C17.7719 16.4996 17.8539 16.5158 17.9303 16.5473C17.9963 16.5745 18.0571 16.6127 18.1101 16.6602L19.1827 18.1393Z" fill="#0F1A1C" stroke="#0F1A1C"/>
</g>
<defs>
<clipPath id="clip0_1581_886">
<rect width="20" height="20" fill="white"/>
</clipPath>
</defs>
</svg>
