<svg width="20" height="20" viewBox="0 0 20 20" fill="none" xmlns="http://www.w3.org/2000/svg">
<path d="M17.3352 4.48934L17.3351 4.48949L14.4721 7.35349L14.4652 7.36039L14.4651 7.36032C14.2216 7.59459 13.8968 7.72545 13.5589 7.72545C13.221 7.72545 12.8963 7.59459 12.6528 7.36032L12.6454 7.35324L12.6455 7.35317C12.4042 7.11133 12.2687 6.78364 12.2687 6.442C12.2687 6.10036 12.4042 5.77268 12.6455 5.53084L12.6459 5.53039L15.5086 2.66875C15.5088 2.66853 15.509 2.66832 15.5092 2.6681C15.583 2.59353 15.637 2.50162 15.6661 2.4008C15.6952 2.29968 15.6985 2.19285 15.6755 2.09015L15.6743 2.08473L15.6743 2.08472C15.6529 1.98375 15.6063 1.88982 15.5389 1.81164C15.4715 1.73346 15.3855 1.67356 15.2888 1.6375L15.2851 1.63614L15.2851 1.63613C14.2566 1.24352 13.1252 1.21155 12.0761 1.54545L12.0737 1.54622C11.1315 1.84085 10.2926 2.3976 9.6551 3.15139C9.01822 3.90449 8.60865 4.82316 8.47418 5.80021C8.38381 6.521 8.44765 7.25277 8.66146 7.94705C8.87555 8.6422 9.23511 9.28384 9.71624 9.82935C10.1974 10.3749 10.7891 10.8118 11.452 11.111C12.1149 11.4102 12.8339 11.565 13.5612 11.565C13.7738 11.5649 13.9862 11.5519 14.1972 11.5261C15.1756 11.3919 16.0955 10.9818 16.8494 10.3438C17.6041 9.70505 18.1611 8.86439 18.455 7.92036L18.4559 7.91755C18.7893 6.86869 18.7577 5.73786 18.3663 4.70925L17.3352 4.48934ZM17.3352 4.48934C17.4093 4.41518 17.5007 4.36074 17.6012 4.33098C17.7017 4.30122 17.808 4.29708 17.9105 4.31894C18.013 4.3408 18.1084 4.38797 18.188 4.45614C18.2675 4.52422 18.3288 4.6111 18.3661 4.70886L17.3352 4.48934ZM8.25594 11.7426L8.25691 11.7436C8.79673 12.2833 9.41474 12.7365 10.0889 13.0884L4.42193 18.7554C4.42192 18.7554 4.4219 18.7554 4.42189 18.7554C4.00062 19.1766 3.42932 19.4131 2.83365 19.4131C2.23796 19.413 1.6667 19.1763 1.24554 18.755C0.824377 18.3337 0.587814 17.7624 0.587891 17.1667C0.587967 16.571 0.824678 15.9998 1.24595 15.5786L1.24605 15.5785L6.91621 9.90651C7.26609 10.5819 7.71751 11.2013 8.25594 11.7426Z" fill="#0F1A1C" stroke="#0F1A1C"/>
</svg>
