<svg width="20" height="20" viewBox="0 0 20 20" fill="none" xmlns="http://www.w3.org/2000/svg">
<path d="M19.426 8.68724L11.126 3.95724C10.8321 3.22941 10.3743 2.57923 9.78801 2.05733C9.20176 1.53542 8.50295 1.15588 7.746 0.948242C6.906 0.948242 4.159 2.70624 4.159 5.07324C4.159 5.18524 4.182 5.29124 4.191 5.40124L0.375 8.80024C0.257609 8.90312 0.163456 9.0298 0.0988002 9.17188C0.034144 9.31395 0.000464568 9.46815 0 9.62424L0 17.8382C0.00734593 18.143 0.135087 18.4325 0.355283 18.6433C0.575479 18.8541 0.870207 18.9691 1.175 18.9632L18.819 19.0002C19.137 19.0009 19.4424 18.8763 19.669 18.6532C19.7731 18.5521 19.856 18.4312 19.9129 18.2976C19.9697 18.164 19.9993 18.0204 20 17.8752V9.65224C19.998 9.45504 19.9439 9.26187 19.8431 9.09238C19.7422 8.92288 19.5983 8.7831 19.426 8.68724ZM7.7 2.19524C8.087 2.27124 10.082 3.50324 10.082 5.07324C10.0884 5.38428 10.0327 5.69346 9.91815 5.9827C9.80357 6.27193 9.63242 6.53538 9.41472 6.75762C9.19703 6.97987 8.93717 7.15643 8.65037 7.27697C8.36357 7.39751 8.0556 7.45959 7.7445 7.45959C7.4334 7.45959 7.12543 7.39751 6.83863 7.27697C6.55183 7.15643 6.29197 6.97987 6.07428 6.75762C5.85658 6.53538 5.68543 6.27193 5.57085 5.9827C5.45627 5.69346 5.40057 5.38428 5.407 5.07324C5.409 3.50024 7.4 2.27124 7.7 2.19524ZM18.75 14.7502H4.451V16.0002H18.751V17.7502L1.251 17.7132V11.2502H18.751L18.75 14.7502ZM18.75 10.0002H1.25V9.70024L4.575 6.73324C4.91988 7.42253 5.47944 7.98106 6.16936 8.32468C6.85928 8.66829 7.64219 8.77838 8.40012 8.63835C9.15804 8.49832 9.84993 8.11575 10.3715 7.5483C10.8931 6.98085 11.2162 6.25926 11.292 5.49224L18.75 9.74024V10.0002Z" fill="#0F1A1C"/>
</svg>
