<svg width="20" height="20" viewBox="0 0 20 20" fill="none" xmlns="http://www.w3.org/2000/svg">
<path d="M13.0003 9.24999H11.0003V12H4.00029V9.24999H0.771289C0.642094 9.78212 0.57498 10.3274 0.571289 10.875C0.585263 11.9856 0.844283 13.0795 1.32985 14.0785C1.81542 15.0774 2.51557 15.9569 3.38029 16.654C5.24759 18.1982 7.60236 19.0296 10.0253 19C12.4482 19.0294 14.8029 18.1981 16.6703 16.654C18.1025 15.4786 19.0629 13.8262 19.3753 12H13.0003V9.24999ZM10.0003 16.25C8.38105 16.2641 6.81935 15.6501 5.64329 14.537L6.69129 13.464C7.30664 14.0201 8.05126 14.4136 8.85743 14.6087C9.6636 14.8038 10.5057 14.7943 11.3073 14.581L11.6933 16.03C11.1409 16.1767 10.5718 16.2506 10.0003 16.25ZM4.00029 7.99999H1.06429V1.27099C1.0643 1.06949 1.11828 0.871666 1.22064 0.698092C1.32299 0.524518 1.46996 0.381529 1.64629 0.283993C1.81963 0.188407 2.01543 0.141049 2.2133 0.146853C2.41116 0.152657 2.60385 0.211411 2.77129 0.316993L6.67129 2.77499C8.85045 2.07936 11.1921 2.07936 13.3713 2.77499L17.2713 0.316993C17.4393 0.21106 17.6327 0.152122 17.8313 0.146318C18.0299 0.140514 18.2263 0.188056 18.4003 0.283993C18.5763 0.381708 18.7229 0.52479 18.8249 0.698365C18.9269 0.871939 18.9806 1.06967 18.9803 1.27099V6.99999H13.0003V7.99999H11.0003V6.99999H4.00029V7.99999Z" fill="#0F1A1C"/>
</svg>
