<svg width="20" height="20" viewBox="0 0 20 20" fill="none" xmlns="http://www.w3.org/2000/svg">
<g clip-path="url(#clip0_1578_253)">
<path d="M15.2547 15.712C14.9016 15.9417 14.5342 16.1484 14.1547 16.331L14.8897 18.309C14.9127 18.3702 14.9212 18.4359 14.9146 18.501C14.908 18.566 14.8865 18.6287 14.8517 18.684C14.8367 18.703 14.8007 18.75 14.7627 18.75H5.14066C5.10266 18.75 5.06566 18.703 5.05166 18.684C5.0164 18.6288 4.99459 18.5662 4.98799 18.501C4.98139 18.4359 4.99018 18.3701 5.01366 18.309L5.74866 16.331C5.36902 16.1486 5.00158 15.9419 4.64866 15.712L3.84866 17.873C3.75238 18.1228 3.71811 18.3922 3.74876 18.6582C3.77941 18.9241 3.87408 19.1787 4.02466 19.4C4.14751 19.5836 4.31347 19.7342 4.50802 19.8388C4.70257 19.9434 4.91978 19.9988 5.14066 20H14.7587C14.9794 19.9986 15.1964 19.9432 15.3907 19.8386C15.5851 19.734 15.7509 19.5834 15.8737 19.4C16.0249 19.1798 16.1206 18.9263 16.1527 18.6611C16.1847 18.3959 16.1521 18.1269 16.0577 17.877L15.2547 15.712Z" fill="#0F1A1C"/>
<path d="M6.28766 8C6.28872 7.02911 6.67488 6.09828 7.3614 5.41175C8.04793 4.72522 8.97876 4.33906 9.94966 4.338V3.088C8.64732 3.08933 7.39871 3.60726 6.47781 4.52816C5.55692 5.44905 5.03898 6.69767 5.03766 8H6.28766Z" fill="#0F1A1C"/>
<path d="M16.5617 9.562C16.2295 10.981 15.4478 12.2547 14.333 13.1933C13.2182 14.132 11.8299 14.6854 10.3751 14.771C8.9203 14.8567 7.47673 14.4701 6.25947 13.6687C5.04222 12.8674 4.11643 11.6942 3.62002 10.324C3.12362 8.95382 3.08317 7.45992 3.50469 6.06487C3.92622 4.66982 4.78717 3.44828 5.95927 2.58223C7.13137 1.71619 8.5519 1.252 10.0092 1.2588C11.4666 1.26561 12.8827 1.74305 14.0467 2.62L14.2547 2.248C14.3955 2.00756 14.5808 1.79613 14.8007 1.625C13.3853 0.562515 11.6572 -0.000103408 9.8876 0.0253968C8.11797 0.050897 6.40686 0.663073 5.02266 1.7659C3.63846 2.86873 2.65948 4.39983 2.23928 6.11903C1.81907 7.83824 1.98141 9.64829 2.70084 11.2653C3.42026 12.8823 4.65606 14.2147 6.21441 15.0537C7.77276 15.8926 9.5655 16.1905 11.3114 15.9007C13.0573 15.6109 14.6577 14.7498 15.8614 13.4524C17.0652 12.155 17.8042 10.4947 17.9627 8.732C17.6182 9.17675 17.1172 9.47355 16.5617 9.562Z" fill="#0F1A1C"/>
<path d="M18.6457 4.6L17.5667 4L16.9667 2.925C16.892 2.79039 16.7828 2.67816 16.6502 2.59993C16.5176 2.52169 16.3666 2.48029 16.2127 2.48C16.0588 2.48022 15.9078 2.52137 15.7751 2.59922C15.6425 2.67707 15.5329 2.78882 15.4577 2.923L14.8527 4L13.7707 4.6C13.6369 4.67538 13.5255 4.78497 13.448 4.91756C13.3706 5.05014 13.3297 5.20094 13.3297 5.3545C13.3297 5.50807 13.3706 5.65887 13.448 5.79145C13.5255 5.92403 13.6369 6.03363 13.7707 6.109L14.8507 6.709L15.4507 7.787C15.5261 7.92093 15.6357 8.03242 15.7684 8.11008C15.9011 8.18774 16.0519 8.22878 16.2057 8.229C16.3592 8.22863 16.5099 8.18741 16.6422 8.10955C16.7745 8.0317 16.8838 7.92003 16.9587 7.786L17.5587 6.709L18.6397 6.109C18.7742 6.03413 18.8863 5.92466 18.9644 5.79192C19.0424 5.65918 19.0836 5.50799 19.0836 5.354C19.0836 5.20002 19.0424 5.04883 18.9644 4.91609C18.8863 4.78334 18.7742 4.67387 18.6397 4.599L18.6457 4.6ZM16.8667 5.673C16.7253 5.75138 16.6083 5.86732 16.5287 6.008L16.2097 6.579L15.8927 6.012C15.8142 5.87092 15.6983 5.75428 15.5577 5.675L14.9837 5.354L15.5597 5.033C15.6984 4.95527 15.8129 4.84072 15.8907 4.702L16.2097 4.131L16.5327 4.709C16.6111 4.84559 16.7251 4.95829 16.8627 5.035L17.4357 5.355L16.8667 5.673Z" fill="#0F1A1C"/>
</g>
<defs>
<clipPath id="clip0_1578_253">
<rect width="20" height="20" fill="white"/>
</clipPath>
</defs>
</svg>
