<svg width="20" height="20" viewBox="0 0 20 20" fill="none" xmlns="http://www.w3.org/2000/svg">
<g clip-path="url(#clip0_473_79)">
<path d="M10 20C9.59873 19.9993 9.1979 19.973 8.8 19.921C8.52493 19.8839 8.2727 19.7482 8.09022 19.539C7.90774 19.3299 7.80745 19.0616 7.808 18.784V17.711C7.80216 17.519 7.73946 17.3331 7.62783 17.1768C7.51621 17.0205 7.3607 16.9008 7.181 16.833C7.00463 16.7502 6.80758 16.7219 6.61504 16.7517C6.42249 16.7814 6.24318 16.8679 6.1 17L5.345 17.753C5.14751 17.9527 4.88372 18.0731 4.60347 18.0915C4.32323 18.11 4.04594 18.0251 3.824 17.853C3.2039 17.3629 2.64311 16.8021 2.153 16.182C1.98034 15.9599 1.89516 15.6822 1.91359 15.4015C1.93202 15.1208 2.05279 14.8566 2.253 14.659L3 13.906C3.13236 13.7655 3.2198 13.5888 3.25115 13.3984C3.28251 13.2079 3.25634 13.0125 3.176 12.837C3.10996 12.6526 2.99016 12.4921 2.83205 12.3765C2.67394 12.2608 2.48479 12.1951 2.289 12.188H1.216C0.939043 12.1887 0.671224 12.089 0.462165 11.9073C0.253106 11.7256 0.116978 11.4743 0.079003 11.2C-0.0263343 10.4058 -0.0263343 9.60119 0.079003 8.807C0.116091 8.53193 0.251836 8.2797 0.460984 8.09722C0.670131 7.91474 0.938442 7.81445 1.216 7.815H2.289C2.48098 7.80916 2.66691 7.74645 2.82322 7.63483C2.97952 7.52321 3.09917 7.3677 3.167 7.188C3.25144 7.01081 3.28067 6.81232 3.25089 6.61831C3.22111 6.42429 3.1337 6.24371 3 6.1L2.246 5.346C2.04625 5.14834 1.92579 4.88438 1.90737 4.60397C1.88894 4.32355 1.97383 4.0461 2.146 3.824C2.63643 3.20203 3.19791 2.63955 3.819 2.148C4.04152 1.97687 4.31875 1.89263 4.59886 1.91103C4.87897 1.92944 5.14279 2.04922 5.341 2.248L6.1 3C6.2401 3.13263 6.41669 3.22027 6.60704 3.25163C6.79738 3.283 6.99276 3.25666 7.168 3.176C7.35245 3.10996 7.51287 2.99015 7.62855 2.83205C7.74424 2.67394 7.80988 2.48478 7.817 2.289V1.216C7.81615 0.93979 7.91518 0.672582 8.09583 0.463633C8.27648 0.254684 8.52657 0.11808 8.8 0.0790016C9.59421 -0.0259982 10.3988 -0.0259982 11.193 0.0790016C11.468 0.11611 11.7201 0.251891 11.9024 0.461062C12.0847 0.670232 12.1848 0.938533 12.184 1.216V2.289C12.1901 2.48107 12.253 2.66702 12.3648 2.82331C12.4765 2.97961 12.6322 3.09922 12.812 3.167C12.9897 3.25282 13.1893 3.2828 13.3844 3.25299C13.5795 3.22318 13.761 3.13498 13.905 3L14.659 2.246C14.8569 2.04664 15.1208 1.92645 15.4011 1.90804C15.6814 1.88962 15.9587 1.97425 16.181 2.146C16.8011 2.63611 17.3619 3.1969 17.852 3.817C18.0242 4.0391 18.1091 4.31655 18.0906 4.59697C18.0722 4.87738 17.9518 5.14134 17.752 5.339L17 6.1C16.8676 6.24024 16.7801 6.41682 16.7488 6.6071C16.7174 6.79739 16.7436 6.9927 16.824 7.168C16.89 7.35245 17.0098 7.51287 17.168 7.62855C17.3261 7.74424 17.5152 7.80988 17.711 7.817H18.784C19.0614 7.81642 19.3296 7.91657 19.5387 8.09884C19.7479 8.28111 19.8837 8.53311 19.921 8.808C20.0263 9.60186 20.0263 10.4061 19.921 11.2C19.8839 11.4751 19.7482 11.7273 19.539 11.9098C19.3299 12.0923 19.0616 12.1926 18.784 12.192H17.711C17.5197 12.207 17.3362 12.2746 17.1809 12.3873C17.0256 12.5 16.9044 12.6535 16.8309 12.8307C16.7573 13.008 16.7342 13.2021 16.764 13.3917C16.7939 13.5813 16.8755 13.7589 17 13.905L17.753 14.66C17.9527 14.8575 18.0731 15.1213 18.0915 15.4015C18.11 15.6818 18.0251 15.9591 17.853 16.181C17.3629 16.8011 16.8021 17.3619 16.182 17.852C15.96 18.0244 15.6825 18.1094 15.402 18.091C15.1215 18.0725 14.8576 17.9519 14.66 17.752L13.906 17C13.7655 16.8676 13.5888 16.7802 13.3984 16.7489C13.2079 16.7175 13.0125 16.7437 12.837 16.824C12.6524 16.89 12.4919 17.0098 12.376 17.1679C12.2602 17.326 12.1943 17.5151 12.187 17.711V18.784C12.1878 19.0613 12.0879 19.3295 11.9058 19.5386C11.7237 19.7478 11.4718 19.8837 11.197 19.921C10.8001 19.9727 10.4003 19.9991 10 20ZM9.062 18.693C9.68463 18.77 10.3144 18.77 10.937 18.693V17.711C10.9514 17.2712 11.0921 16.8449 11.3423 16.4829C11.5926 16.121 11.9418 15.8388 12.3482 15.67C12.7545 15.5012 13.2009 15.4531 13.634 15.5313C14.067 15.6095 14.4683 15.8108 14.79 16.111L15.483 16.805C15.971 16.4115 16.4155 15.967 16.809 15.479L16.115 14.785C15.8145 14.4636 15.6131 14.0623 15.5347 13.6293C15.4564 13.1964 15.5045 12.75 15.6733 12.3436C15.8422 11.9373 16.1245 11.5882 16.4866 11.3382C16.8487 11.0882 17.2752 10.9479 17.715 10.934H18.697C18.773 10.311 18.773 9.68103 18.697 9.058H17.715C17.2752 9.05317 16.8469 8.91742 16.4846 8.66806C16.1223 8.4187 15.8425 8.06706 15.681 7.658C15.5011 7.2524 15.4466 6.80223 15.5247 6.36543C15.6027 5.92862 15.8097 5.52517 16.119 5.207L16.813 4.514C16.4194 4.02576 15.9745 3.58121 15.486 3.188L14.794 3.882C14.4783 4.18947 14.0783 4.396 13.6448 4.47525C13.2113 4.5545 12.764 4.50289 12.36 4.327C11.9469 4.16709 11.5911 3.88731 11.3382 3.52361C11.0854 3.15992 10.947 2.72892 10.941 2.286V1.307C10.3184 1.23 9.68863 1.23 9.066 1.307V2.289C9.06117 2.72878 8.92542 3.15714 8.67606 3.51941C8.4267 3.88169 8.07506 4.16146 7.666 4.323C7.2596 4.50309 6.80864 4.55762 6.37102 4.47958C5.93341 4.40153 5.5291 4.19448 5.21 3.885L4.517 3.191C4.02876 3.58458 3.58421 4.02946 3.191 4.518L3.885 5.21C4.19283 5.52546 4.39959 5.92554 4.47885 6.35911C4.55812 6.79268 4.5063 7.24004 4.33 7.644C4.17005 8.05698 3.89023 8.41268 3.52652 8.66537C3.16281 8.91806 2.73184 9.05619 2.289 9.062H1.307C1.231 9.68503 1.231 10.315 1.307 10.938H2.289C2.72878 10.9428 3.15714 11.0786 3.51942 11.3279C3.88169 11.5773 4.16146 11.9289 4.323 12.338C4.50295 12.7436 4.5574 13.1938 4.47934 13.6306C4.40128 14.0674 4.19429 14.4708 3.885 14.789L3.191 15.482C3.58451 15.97 4.02904 16.4145 4.517 16.808L5.211 16.114C5.52659 15.8067 5.92648 15.6003 6.35975 15.5211C6.79303 15.4418 7.24009 15.4933 7.644 15.669C8.05698 15.829 8.41268 16.1088 8.66537 16.4725C8.91806 16.8362 9.05619 17.2672 9.062 17.71V18.693ZM10 13.229C9.36137 13.229 8.73707 13.0396 8.20607 12.6848C7.67506 12.33 7.26119 11.8257 7.0168 11.2357C6.7724 10.6457 6.70846 9.99642 6.83305 9.37006C6.95764 8.74369 7.26517 8.16834 7.71675 7.71675C8.16834 7.26517 8.74369 6.95764 9.37006 6.83305C9.99642 6.70845 10.6457 6.7724 11.2357 7.01679C11.8257 7.26119 12.33 7.67506 12.6848 8.20607C13.0396 8.73707 13.229 9.36137 13.229 10C13.2279 10.8561 12.8874 11.6768 12.2821 12.2821C11.6768 12.8874 10.8561 13.2279 10 13.229ZM10 8.021C9.60859 8.021 9.22597 8.13707 8.90053 8.35452C8.57508 8.57198 8.32143 8.88106 8.17165 9.24267C8.02186 9.60429 7.98267 10.0022 8.05903 10.3861C8.13539 10.77 8.32387 11.1226 8.60064 11.3994C8.87741 11.6761 9.23003 11.8646 9.61392 11.941C9.99781 12.0173 10.3957 11.9781 10.7573 11.8284C11.1189 11.6786 11.428 11.4249 11.6455 11.0995C11.8629 10.774 11.979 10.3914 11.979 10C11.9787 9.47522 11.7702 8.97201 11.3991 8.60093C11.028 8.22985 10.5248 8.02127 10 8.021Z" fill="#0F1A1C"/>
</g>
<defs>
<clipPath id="clip0_473_79">
<rect width="20" height="20" fill="white"/>
</clipPath>
</defs>
</svg>
