<svg width="20" height="20" viewBox="0 0 20 20" fill="none" xmlns="http://www.w3.org/2000/svg">
<path d="M18.668 2.127L18.283 1.939L17.974 2.083C16.7649 2.63941 15.4481 2.92242 14.1172 2.91187C12.7863 2.90133 11.4741 2.59749 10.274 2.022C8.88253 1.3531 7.3584 1.00578 5.8145 1.00578C4.2706 1.00578 2.74647 1.3531 1.355 2.022L1 2.193V19.775H3V14.523C5.21498 13.7946 7.62586 13.9512 9.728 14.96C11.1193 15.6294 12.6435 15.977 14.1875 15.977C15.7315 15.977 17.2557 15.6294 18.647 14.96L19 14.79V2.733C19.0004 2.61216 18.9701 2.49321 18.9121 2.38723C18.854 2.28126 18.77 2.19173 18.668 2.127Z" fill="#0F1A1C"/>
</svg>
