<svg width="20" height="20" viewBox="0 0 20 20" fill="none" xmlns="http://www.w3.org/2000/svg">
<path d="M1.83463 10.0007C1.52286 10.4641 1.25503 10.9556 1.03463 11.4687C0.671176 11.12 0.35695 10.7233 0.100632 10.2897C0.043723 10.1945 0.0136719 10.0857 0.0136719 9.97473C0.0136719 9.8638 0.043723 9.75495 0.100632 9.65973C0.355015 9.23408 0.665088 8.84431 1.02263 8.50073C1.2449 9.02545 1.5168 9.52773 1.83463 10.0007ZM8.54563 18.9597C8.88539 19.3065 9.26896 19.6073 9.68663 19.8547C9.78169 19.911 9.89014 19.9408 10.0006 19.9408C10.1111 19.9408 10.2196 19.911 10.3146 19.8547C10.7324 19.6071 11.1163 19.3062 11.4566 18.9597C10.948 18.7449 10.4606 18.4831 10.0006 18.1777C9.54117 18.4833 9.05403 18.7452 8.54563 18.9597ZM19.9006 10.2897C19.9575 10.1945 19.9876 10.0857 19.9876 9.97473C19.9876 9.8638 19.9575 9.75495 19.9006 9.65973C19.6466 9.23411 19.3369 8.84433 18.9796 8.50073C18.7568 9.02516 18.4849 9.52739 18.1676 10.0007C18.4777 10.4643 18.7438 10.9558 18.9626 11.4687C19.3275 11.1203 19.6431 10.7236 19.9006 10.2897ZM11.4896 1.02873C11.141 0.668123 10.7454 0.355998 10.3136 0.100729C10.219 0.0437685 10.1106 0.0136719 10.0001 0.0136719C9.88966 0.0136719 9.78128 0.0437685 9.68663 0.100729C9.25488 0.357206 8.85966 0.670693 8.51163 1.03273C9.03241 1.25116 9.53103 1.51905 10.0006 1.83273C10.4702 1.51787 10.9688 1.24865 11.4896 1.02873ZM15.9216 10.0007C16.7823 10.89 17.401 11.9848 17.7189 13.1809C18.0368 14.377 18.0432 15.6345 17.7376 16.8337C17.6818 17.0505 17.5688 17.2483 17.4105 17.4066C17.2522 17.5649 17.0544 17.6779 16.8376 17.7337C16.2416 17.886 15.6289 17.9636 15.0136 17.9647C13.1406 17.9664 11.3412 17.2349 10.0006 15.9267C8.6619 17.2357 6.86397 17.9687 4.99163 17.9687C4.3764 17.9677 3.76369 17.8901 3.16763 17.7377C2.95072 17.6822 2.75273 17.5693 2.59439 17.411C2.43605 17.2526 2.3232 17.0546 2.26763 16.8377C1.96101 15.6382 1.96655 14.3802 2.28373 13.1834C2.60091 11.9866 3.21917 10.8909 4.07963 10.0007C3.21931 9.11121 2.60089 8.01637 2.2832 6.82035C1.96551 5.62433 1.95912 4.36692 2.26463 3.16773C2.3202 2.95081 2.43305 2.75282 2.59139 2.59449C2.74973 2.43615 2.94772 2.32329 3.16463 2.26773C3.76069 2.11536 4.3734 2.03776 4.98863 2.03673C6.86144 2.03493 8.66052 2.76648 10.0006 4.07473C11.3398 2.76586 13.138 2.03295 15.0106 2.03273C15.6259 2.03382 16.2386 2.11142 16.8346 2.26373C17.0514 2.31959 17.2492 2.43254 17.4075 2.59083C17.5658 2.74912 17.6788 2.94695 17.7346 3.16373C18.0413 4.36333 18.0357 5.62147 17.7183 6.81829C17.401 8.01511 16.7824 9.11072 15.9216 10.0007ZM12.1216 7.87973C11.7021 7.46008 11.1676 7.17427 10.5856 7.05844C10.0036 6.94261 9.40038 7.00197 8.85215 7.229C8.30392 7.45604 7.83533 7.84056 7.50565 8.33392C7.17596 8.82729 6.99999 9.40735 6.99999 10.0007C6.99999 10.5941 7.17596 11.1742 7.50565 11.6675C7.83533 12.1609 8.30392 12.5454 8.85215 12.7725C9.40038 12.9995 10.0036 13.0588 10.5856 12.943C11.1676 12.8272 11.7021 12.5414 12.1216 12.1217C12.6842 11.5593 13.0003 10.7964 13.0005 10.0009C13.0007 9.20544 12.6849 8.44244 12.1226 7.87973H12.1216Z" fill="#0F1A1C"/>
</svg>
