<svg width="20" height="20" viewBox="0 0 20 20" fill="none" xmlns="http://www.w3.org/2000/svg">
<path d="M18.209 4.158L12.318 0.640997C11.6176 0.221566 10.8164 4.57764e-05 10 4.57764e-05C9.18357 4.57764e-05 8.38245 0.221566 7.682 0.640997L1.8 4.155C1.55717 4.29947 1.35586 4.50433 1.21567 4.74967C1.07548 4.995 1.00118 5.27244 1 5.555V17.355C1.00053 17.7857 1.17194 18.1986 1.4766 18.5031C1.78126 18.8076 2.19428 18.9787 2.625 18.979H17.375C17.8049 18.9787 18.2171 18.8083 18.5216 18.5049C18.8262 18.2015 18.9981 17.7899 19 17.36V5.55C18.9993 5.26947 18.9262 4.99387 18.7876 4.74997C18.649 4.50606 18.4497 4.30214 18.209 4.158ZM17.75 17.358C17.7497 17.4573 17.7101 17.5524 17.6398 17.6225C17.5695 17.6926 17.4743 17.732 17.375 17.732H2.625C2.52572 17.732 2.43049 17.6926 2.36019 17.6225C2.28989 17.5524 2.25026 17.4573 2.25 17.358V5.556C2.25008 5.48981 2.26736 5.42478 2.30014 5.36728C2.33293 5.30978 2.38009 5.26178 2.437 5.228L8.322 1.714C8.82905 1.41035 9.40899 1.24997 10 1.24997C10.591 1.24997 11.171 1.41035 11.678 1.714L17.569 5.231C17.6241 5.26407 17.6697 5.31082 17.7014 5.36671C17.7331 5.4226 17.7499 5.48574 17.75 5.55V17.358ZM13.058 7.642L13.942 8.526L9.013 13.455C8.87675 13.5907 8.69229 13.6669 8.5 13.6669C8.30771 13.6669 8.12325 13.5907 7.987 13.455L6.058 11.526L6.942 10.642L8.5 12.2L13.058 7.642Z" fill="#0F1A1C"/>
</svg>
