<svg width="20" height="20" viewBox="0 0 20 20" fill="none" xmlns="http://www.w3.org/2000/svg">
<path d="M2.5 3H6V5H3V8H1V4.5C1 4.10218 1.15804 3.72064 1.43934 3.43934C1.72064 3.15804 2.10218 3 2.5 3ZM3 12H1V15.5C1 15.8978 1.15804 16.2794 1.43934 16.5607C1.72064 16.842 2.10218 17 2.5 17H6V15H3V12ZM17 15H14V17H17.5C17.8978 17 18.2794 16.842 18.5607 16.5607C18.842 16.2794 19 15.8978 19 15.5V12H17V15ZM17.5 3H14V5H17V8H19V4.5C19 4.10218 18.842 3.72064 18.5607 3.43934C18.2794 3.15804 17.8978 3 17.5 3Z" fill="#0F1A1C"/>
</svg>
