<svg width="20" height="20" viewBox="0 0 20 20" fill="none" xmlns="http://www.w3.org/2000/svg">
<path d="M17.29 5.169C17.5918 4.48851 17.6378 3.72198 17.4197 3.01027C17.2015 2.29855 16.7339 1.68946 16.1027 1.29491C15.4714 0.900361 14.719 0.746861 13.9837 0.862616C13.2484 0.978371 12.5795 1.35561 12.1 1.925L10 4.438L7.905 1.925C7.42783 1.34745 6.75702 0.962994 6.01749 0.84322C5.27795 0.723445 4.52009 0.876514 3.88501 1.27393C3.24994 1.67134 2.78093 2.28601 2.56532 3.00348C2.34971 3.72096 2.4022 4.49234 2.713 5.174C2.21139 5.3603 1.7786 5.69528 1.47249 6.13417C1.16639 6.57305 1.00154 7.09491 1 7.63V16.389C1.00079 17.0812 1.27614 17.7449 1.76562 18.2344C2.25511 18.7239 2.91876 18.9992 3.611 19H16.389C17.0812 18.9992 17.7449 18.7239 18.2344 18.2344C18.7239 17.7449 18.9992 17.0812 19 16.389V7.608C18.9985 7.0754 18.8337 6.55607 18.528 6.11998C18.2222 5.68388 17.7902 5.35198 17.29 5.169ZM4.434 3.906C4.43002 3.68004 4.49775 3.45863 4.62747 3.27357C4.7572 3.08851 4.94223 2.94932 5.156 2.876C5.28462 2.83122 5.41981 2.80824 5.556 2.808C5.71366 2.80797 5.86925 2.844 6.01085 2.91333C6.15245 2.98266 6.27633 3.08345 6.373 3.208L7.865 5H5.528C5.23834 4.99843 4.96099 4.88266 4.75617 4.67783C4.55134 4.47301 4.43558 4.19566 4.434 3.906ZM14 13H11V16H9V13H6V11H9V8H11V11H14V13ZM14.472 5H12.135L13.635 3.205C13.7789 3.03209 13.9725 2.90772 14.1896 2.84884C14.4067 2.78995 14.6366 2.79941 14.8482 2.87593C15.0597 2.95245 15.2425 3.0923 15.3716 3.27644C15.5008 3.46059 15.5701 3.68007 15.57 3.905C15.5687 4.19553 15.4525 4.47373 15.2468 4.67888C15.041 4.88404 14.7625 4.99948 14.472 5Z" fill="#0F1A1C"/>
</svg>
