<svg width="20" height="20" viewBox="0 0 20 20" fill="none" xmlns="http://www.w3.org/2000/svg">
<path d="M6.36601 19.041C5.20577 19.0419 4.07135 18.6985 3.10636 18.0543C2.14137 17.4101 1.38921 16.4941 0.945082 15.4222C0.500958 14.3504 0.384843 13.1708 0.611438 12.0329C0.838034 10.895 1.39715 9.84994 2.21801 9.02997L10.042 1.20697C10.8182 0.453423 11.8597 0.0354861 12.9415 0.0434466C14.0232 0.0514071 15.0585 0.484626 15.8235 1.24951C16.5885 2.0144 17.0219 3.04954 17.03 4.13132C17.0382 5.21309 16.6204 6.25465 15.867 7.03097L8.04301 14.855C7.82295 15.0763 7.56138 15.252 7.2733 15.372C6.98522 15.492 6.67629 15.554 6.36421 15.5544C6.05212 15.5548 5.74303 15.4936 5.45463 15.3744C5.16623 15.2551 4.9042 15.0801 4.68356 14.8594C4.46292 14.6387 4.288 14.3766 4.16882 14.0882C4.04965 13.7998 3.98857 13.4906 3.98907 13.1786C3.98958 12.8665 4.05166 12.5576 4.17177 12.2695C4.29188 11.9815 4.46765 11.72 4.68901 11.5L12.3767 3.81324L13.2597 4.69724L5.57301 12.384C5.46576 12.4874 5.3802 12.6112 5.32131 12.7481C5.26243 12.885 5.2314 13.0322 5.23004 13.1812C5.22867 13.3302 5.257 13.478 5.31338 13.6159C5.36975 13.7539 5.45303 13.8792 5.55836 13.9846C5.6637 14.09 5.78897 14.1734 5.92687 14.2298C6.06477 14.2863 6.21254 14.3147 6.36154 14.3134C6.51055 14.3122 6.65781 14.2812 6.79473 14.2224C6.93165 14.1636 7.05548 14.0781 7.15901 13.971L14.983 6.14697C15.5204 5.60868 15.8223 4.87912 15.8223 4.11847C15.8223 3.35782 15.5204 2.62825 14.983 2.08997C14.4364 1.56805 13.7098 1.27682 12.954 1.27682C12.1983 1.27682 11.4716 1.56805 10.925 2.08997L3.10001 9.91397C2.23682 10.7802 1.75261 11.9535 1.75367 13.1763C1.75472 14.3992 2.24097 15.5716 3.10566 16.4363C3.97035 17.301 5.14281 17.7872 6.36566 17.7883C7.58852 17.7894 8.76182 17.3052 9.62801 16.442L17.863 8.20697L18.747 9.08997L10.512 17.326C9.96776 17.8706 9.32138 18.3024 8.60993 18.5967C7.89847 18.891 7.13593 19.0419 6.36601 19.041Z" fill="#0F1A1C"/>
</svg>
