<svg width="20" height="20" viewBox="0 0 20 20" fill="none" xmlns="http://www.w3.org/2000/svg">
<path d="M15.316 5.28298H12.359L7.676 17.7H10.57L11.636 14.983H16.036L17.106 17.7H20L15.316 5.28298ZM12.643 12.262L13.818 9.08498L15.026 12.262H12.643ZM7.737 10.117C8.58496 8.89608 9.18154 7.51868 9.492 6.06498H10.482L11.531 3.28598H7.262V1.51398H4.483V3.28598H0V6.06498H2.307C2.59334 7.51716 3.1717 8.89605 4.007 10.118C3.03084 10.9032 1.8682 11.4227 0.632 11.626L0 11.726V14.5L0.848 14.389C2.70029 14.1435 4.44379 13.3736 5.873 12.17C6.44077 12.6437 7.06079 13.051 7.721 13.384L8.715 10.749C8.37261 10.5648 8.04556 10.3535 7.737 10.117ZM5.888 7.85198C5.57818 7.28508 5.3317 6.6858 5.153 6.06498H6.618C6.45547 6.69054 6.20995 7.29154 5.888 7.85198Z" fill="#0F1A1C"/>
</svg>
