<svg width="20" height="20" viewBox="0 0 20 20" fill="none" xmlns="http://www.w3.org/2000/svg">
<g clip-path="url(#clip0_474_99)">
<path d="M10 0C8.02219 0 6.08879 0.58649 4.4443 1.6853C2.79981 2.78412 1.51809 4.3459 0.761209 6.17317C0.00433284 8.00043 -0.193701 10.0111 0.192152 11.9509C0.578004 13.8907 1.53041 15.6725 2.92894 17.0711C4.32746 18.4696 6.10929 19.422 8.0491 19.8079C9.98891 20.1937 11.9996 19.9957 13.8268 19.2388C15.6541 18.4819 17.2159 17.2002 18.3147 15.5557C19.4135 13.9112 20 11.9778 20 10C19.9971 7.34873 18.9426 4.80688 17.0679 2.93215C15.1931 1.05742 12.6513 0.0029116 10 0V0ZM11.187 14.646C11.0766 14.8402 10.9178 15.0025 10.726 15.117C10.5279 15.2364 10.3003 15.2981 10.069 15.295C9.78572 15.2956 9.51015 15.2027 9.28502 15.0308C9.0599 14.8588 8.89779 14.6174 8.82384 14.344C8.74989 14.0705 8.76824 13.7803 8.87602 13.5183C8.98381 13.2563 9.17502 13.0372 9.42 12.895C9.61474 12.7813 9.83652 12.7222 10.062 12.724C10.2901 12.7216 10.5146 12.7807 10.712 12.895C10.9055 13.0066 11.0667 13.1665 11.18 13.359C11.2926 13.5543 11.3524 13.7756 11.3537 14.0011C11.3549 14.2265 11.2975 14.4484 11.187 14.645V14.646ZM12.987 8.408C12.8873 8.64149 12.7524 8.85834 12.587 9.051C12.3882 9.26996 12.1782 9.47857 11.958 9.676C11.7353 9.876 11.5587 10.0467 11.428 10.188C11.2959 10.3334 11.1854 10.4971 11.1 10.674C11.0096 10.8638 10.9641 11.0718 10.967 11.282V11.856H9.14001V11.289C9.13335 10.9583 9.19603 10.63 9.32401 10.325C9.43197 10.0699 9.57981 9.83363 9.762 9.625C9.96891 9.4022 10.1904 9.19341 10.425 9C10.625 8.827 10.773 8.685 10.883 8.573C10.9905 8.46308 11.0823 8.33892 11.156 8.204C11.2294 8.06867 11.2672 7.91694 11.266 7.763C11.2678 7.58484 11.2151 7.41038 11.115 7.263C11.0132 7.11289 10.8725 6.99329 10.708 6.917C10.5242 6.83253 10.3238 6.79055 10.1216 6.79418C9.9194 6.79782 9.72061 6.84698 9.54 6.938C9.3603 7.02849 9.20701 7.16386 9.09501 7.331C8.98227 7.49978 8.92175 7.69803 8.921 7.901H7.027C7.03307 7.39158 7.17087 6.89239 7.427 6.452C7.68968 6.00587 8.0703 5.64082 8.52701 5.397C9.03686 5.12471 9.60812 4.988 10.186 5C10.7116 4.99169 11.2324 5.10139 11.71 5.321C12.1396 5.51741 12.5065 5.82891 12.77 6.221C13.0265 6.61102 13.1596 7.06925 13.152 7.536C13.158 7.83516 13.1011 8.13224 12.985 8.408H12.987Z" fill="#0F1A1C"/>
</g>
<defs>
<clipPath id="clip0_474_99">
<rect width="20" height="20" fill="white"/>
</clipPath>
</defs>
</svg>
