<svg width="20" height="20" viewBox="0 0 20 20" fill="none" xmlns="http://www.w3.org/2000/svg">
<path d="M19.0008 1.725V5.863L18.7568 6.123L8.50082 15.438L10.5308 17.47L9.47082 18.53L1.47082 10.53L2.53082 9.47L4.56282 11.5L14.0688 1.033L14.4198 1H18.2758C18.468 1.00026 18.6523 1.07673 18.7882 1.21264C18.9241 1.34855 19.0006 1.5328 19.0008 1.725ZM5.05882 16.058L3.50082 14.5L3.05882 14.058L1.05882 16.058C0.681251 16.4414 0.470557 16.9586 0.472672 17.4967C0.474787 18.0348 0.68954 18.5503 1.07012 18.9307C1.45069 19.3111 1.96623 19.5257 2.50435 19.5277C3.04247 19.5296 3.55953 19.3187 3.94282 18.941L5.94282 16.941L5.05882 16.058Z" fill="#0F1A1C"/>
</svg>
