<svg width="20" height="20" viewBox="0 0 20 20" fill="none" xmlns="http://www.w3.org/2000/svg">
<g clip-path="url(#clip0_472_1117)">
<path d="M10 0C8.02219 0 6.08879 0.58649 4.4443 1.6853C2.79981 2.78412 1.51809 4.3459 0.761209 6.17317C0.00433284 8.00043 -0.193701 10.0111 0.192152 11.9509C0.578004 13.8907 1.53041 15.6725 2.92894 17.0711C4.32746 18.4696 6.10929 19.422 8.0491 19.8079C9.98891 20.1937 11.9996 19.9957 13.8268 19.2388C15.6541 18.4819 17.2159 17.2002 18.3147 15.5557C19.4135 13.9112 20 11.9778 20 10C19.9971 7.34873 18.9426 4.80688 17.0679 2.93215C15.1931 1.05742 12.6513 0.0029116 10 0V0ZM1.25 10C1.25122 7.89574 2.01506 5.86324 3.4 4.279L15.721 16.605C14.4554 17.7059 12.8996 18.4191 11.2395 18.6596C9.5794 18.9001 7.88517 18.6576 6.35919 17.9611C4.8332 17.2646 3.53998 16.1435 2.63399 14.7318C1.72799 13.3201 1.24754 11.6774 1.25 10ZM16.605 15.721L4.279 3.4C5.94873 1.95587 8.10324 1.19736 10.3094 1.27695C12.5156 1.35654 14.6098 2.26834 16.1712 3.82903C17.7325 5.38972 18.6451 7.4836 18.7256 9.68973C18.8061 11.8959 18.0485 14.0507 16.605 15.721Z" fill="#0F1A1C"/>
</g>
<defs>
<clipPath id="clip0_472_1117">
<rect width="20" height="20" fill="white"/>
</clipPath>
</defs>
</svg>
