<svg width="20" height="20" viewBox="0 0 20 20" fill="none" xmlns="http://www.w3.org/2000/svg">
<path d="M13.3469 1.518C13.1457 1.43696 12.9249 1.41727 12.7124 1.46139C12.5 1.50552 12.3053 1.6115 12.1529 1.766C11.9946 1.92436 11.8863 2.12569 11.8413 2.34504C11.7963 2.56439 11.8167 2.79212 11.8999 3C12.3495 4.13089 12.4876 5.3616 12.2999 6.564C12.0733 8.00286 11.3964 9.33286 10.3665 10.3629C9.33665 11.393 8.00677 12.0701 6.56795 12.297C5.36452 12.4867 4.13224 12.3496 2.99995 11.9C2.79227 11.8177 2.56504 11.7979 2.34628 11.8433C2.12753 11.8886 1.92683 11.9969 1.76895 12.155C1.61422 12.3068 1.50812 12.5012 1.46414 12.7134C1.42016 12.9257 1.44028 13.1462 1.52195 13.347C2.18684 15.0532 3.35251 16.5183 4.86571 17.5496C6.3789 18.5809 8.16876 19.1301 9.99995 19.125C10.2569 19.125 10.5149 19.115 10.7739 19.093C12.9155 18.8994 14.9212 17.9605 16.4416 16.44C17.962 14.9194 18.9006 12.9136 19.0939 10.772C19.2654 8.81551 18.798 6.85615 17.7619 5.18772C16.7257 3.51929 15.1767 2.2317 13.3469 1.518Z" fill="#0F1A1C"/>
</svg>
