<svg width="20" height="20" viewBox="0 0 20 20" fill="none" xmlns="http://www.w3.org/2000/svg">
<path d="M7.935 12.305L14.635 19.005H2.635C2.42042 19.0061 2.20774 18.9647 2.00923 18.8832C1.81071 18.8017 1.63027 18.6817 1.4783 18.5302C1.32633 18.3787 1.20583 18.1987 1.12375 18.0004C1.04166 17.8021 0.999605 17.5896 1 17.375V16.429L1.022 16.451L5.168 12.305C5.53525 11.9387 6.03279 11.7329 6.5515 11.7329C7.07022 11.7329 7.56776 11.9387 7.935 12.305ZM19 2.625V17.375C18.9992 17.7949 18.8358 18.1981 18.5439 18.5C18.2521 18.8019 17.8546 18.979 17.435 18.994L17.443 18.985L9.349 10.891C8.60624 10.1487 7.59911 9.7317 6.549 9.7317C5.4989 9.7317 4.49177 10.1487 3.749 10.891L1 13.645V2.625C1.00053 2.19419 1.17191 1.78117 1.47654 1.47654C1.78117 1.1719 2.19419 1.00053 2.625 1H17.375C17.8058 1.00053 18.2188 1.1719 18.5235 1.47654C18.8281 1.78117 18.9995 2.19419 19 2.625ZM15.5 7C15.5 6.50555 15.3534 6.0222 15.0787 5.61107C14.804 5.19995 14.4135 4.87952 13.9567 4.6903C13.4999 4.50108 12.9972 4.45157 12.5123 4.54804C12.0273 4.6445 11.5819 4.8826 11.2322 5.23223C10.8826 5.58186 10.6445 6.02732 10.548 6.51227C10.4516 6.99723 10.5011 7.49989 10.6903 7.95671C10.8795 8.41352 11.2 8.80397 11.6111 9.07867C12.0222 9.35338 12.5055 9.5 13 9.5C13.663 9.5 14.2989 9.23661 14.7678 8.76777C15.2366 8.29893 15.5 7.66304 15.5 7Z" fill="#0F1A1C"/>
</svg>
