<svg width="20" height="20" viewBox="0 0 20 20" fill="none" xmlns="http://www.w3.org/2000/svg">
<path d="M5.5 8.56298V19.126H5.25V8.56298V8.14279L4.83609 8.07044C4.11282 7.94402 3.45718 7.56688 2.98427 7.00522C2.51146 6.44367 2.2515 5.73356 2.25 4.99948V0.875977H2.5V4.99998C2.5 5.76247 2.8029 6.49374 3.34207 7.03291C3.88124 7.57208 4.6125 7.87498 5.375 7.87498C6.1375 7.87498 6.86876 7.57208 7.40793 7.03291C7.9471 6.49374 8.25 5.76247 8.25 4.99998V0.875977H8.5V4.99951C8.49849 5.73358 8.23854 6.44368 7.76573 7.00522C7.29282 7.56688 6.63718 7.94402 5.91391 8.07044L5.5 8.14279V8.56298ZM17.5 1.00078L17.5 19.126H17.25V1.67598V1.07149L16.6562 1.18485C15.5399 1.39796 14.5351 1.99955 13.8201 2.88292C13.1062 3.76488 12.7272 4.87081 12.75 6.00514V9.99597C12.7411 10.5772 12.9087 11.1475 13.2307 11.6315C13.5536 12.1167 14.0163 12.4923 14.5577 12.7084L14.5576 12.7085L14.5694 12.7129L14.6861 12.7561L14.5991 12.9906L14.486 12.9487C13.8963 12.7174 13.3908 12.3125 13.0361 11.7876C12.6807 11.2615 12.4937 10.6398 12.5 10.0049L12.5 10.0049V9.99998V5.99998H12.5001L12.4999 5.98957C12.4723 4.66404 12.9712 3.38159 13.8872 2.42312C14.8013 1.46665 16.0565 0.91059 17.3789 0.876038C17.4106 0.877028 17.4408 0.89004 17.4633 0.912518C17.4867 0.935838 17.4999 0.967448 17.5 1.00045C17.5 1.00056 17.5 1.00067 17.5 1.00078ZM5.25 5.12598V0.875977H5.5V5.12598H5.25Z" fill="#0F1A1C" stroke="#0F1A1C"/>
</svg>
