<svg width="20" height="20" viewBox="0 0 20 20" fill="none" xmlns="http://www.w3.org/2000/svg">
<path d="M12.125 10.875H15.5V12.125H12.125V15.5H10.875V12.125H7.5V10.875H10.875V7.5H12.125V10.875ZM19 5.625V17.375C18.9995 17.8058 18.8281 18.2188 18.5235 18.5235C18.2188 18.8281 17.8058 18.9995 17.375 19H5.625C5.19419 18.9995 4.78117 18.8281 4.47654 18.5235C4.1719 18.2188 4.00053 17.8058 4 17.375V5.625C4.00053 5.19419 4.1719 4.78117 4.47654 4.47654C4.78117 4.1719 5.19419 4.00053 5.625 4H17.375C17.8058 4.00053 18.2188 4.1719 18.5235 4.47654C18.8281 4.78117 18.9995 5.19419 19 5.625ZM17.75 5.625C17.75 5.52554 17.7105 5.43016 17.6402 5.35984C17.5698 5.28951 17.4745 5.25 17.375 5.25H5.625C5.52554 5.25 5.43016 5.28951 5.35984 5.35984C5.28951 5.43016 5.25 5.52554 5.25 5.625V17.375C5.25 17.4745 5.28951 17.5698 5.35984 17.6402C5.43016 17.7105 5.52554 17.75 5.625 17.75H17.375C17.4745 17.75 17.5698 17.7105 17.6402 17.6402C17.7105 17.5698 17.75 17.4745 17.75 17.375V5.625ZM2.624 2.25H14.375C14.4743 2.25 14.5695 2.28937 14.6398 2.35948C14.7101 2.42959 14.7497 2.52472 14.75 2.624H16C15.9992 2.19336 15.8277 1.7806 15.5231 1.47618C15.2185 1.17177 14.8056 1.00053 14.375 1H2.624C2.19345 1.00053 1.78069 1.1718 1.47624 1.47624C1.1718 1.78069 1.00053 2.19345 1 2.624V14.375C1.00053 14.8056 1.17177 15.2185 1.47618 15.5231C1.7806 15.8277 2.19336 15.9992 2.624 16V14.75C2.52472 14.7497 2.42959 14.7101 2.35948 14.6398C2.28937 14.5695 2.25 14.4743 2.25 14.375V2.624C2.25026 2.52489 2.28975 2.42992 2.35983 2.35983C2.42992 2.28975 2.52489 2.25026 2.624 2.25Z" fill="#0F1A1C"/>
</svg>
