<svg width="20" height="20" viewBox="0 0 20 20" fill="none" xmlns="http://www.w3.org/2000/svg">
<path d="M13.0001 13.5V11.5C13.3979 11.5 13.7794 11.342 14.0607 11.0607C14.342 10.7794 14.5001 10.3978 14.5001 10C14.5001 9.60218 14.342 9.22064 14.0607 8.93934C13.7794 8.65804 13.3979 8.5 13.0001 8.5V6.5C13.9283 6.5 14.8186 6.86875 15.4749 7.52513C16.1313 8.1815 16.5001 9.07174 16.5001 10C16.5001 10.9283 16.1313 11.8185 15.4749 12.4749C14.8186 13.1313 13.9283 13.5 13.0001 13.5ZM13.0001 3V5C14.3262 5 15.5979 5.52678 16.5356 6.46447C17.4733 7.40215 18.0001 8.67392 18.0001 10C18.0001 11.3261 17.4733 12.5979 16.5356 13.5355C15.5979 14.4732 14.3262 15 13.0001 15V17C14.8566 17 16.6371 16.2625 17.9498 14.9497C19.2626 13.637 20.0001 11.8565 20.0001 10C20.0001 8.14348 19.2626 6.36301 17.9498 5.05025C16.6371 3.7375 14.8566 3 13.0001 3ZM10.3571 0.252C10.1682 0.163057 9.95769 0.130195 9.75065 0.157315C9.54362 0.184436 9.34871 0.2704 9.18908 0.405L3.81508 5.055H2.10808C1.8104 5.05948 1.52663 5.18177 1.31895 5.39507C1.11127 5.60838 0.996603 5.89531 1.00008 6.193V13.807C0.996603 14.1047 1.11127 14.3916 1.31895 14.6049C1.52663 14.8182 1.8104 14.9405 2.10808 14.945H3.81508L9.20508 19.608C9.39811 19.7667 9.64017 19.8536 9.89008 19.854C10.052 19.8537 10.2118 19.8175 10.3581 19.748C10.5524 19.6549 10.716 19.5081 10.8298 19.3251C10.9435 19.1421 11.0026 18.9305 11.0001 18.715V1.285C11.0027 1.06939 10.9436 0.857526 10.8296 0.674465C10.7157 0.491405 10.5517 0.344804 10.3571 0.252Z" fill="#0F1A1C"/>
</svg>
