<svg width="20" height="20" viewBox="0 0 20 20" fill="none" xmlns="http://www.w3.org/2000/svg">
<g clip-path="url(#clip0_473_125)">
<path d="M10 20C8.02219 20 6.08879 19.4135 4.4443 18.3147C2.79981 17.2159 1.51809 15.6541 0.761209 13.8268C0.00433284 11.9996 -0.193701 9.98891 0.192152 8.0491C0.578004 6.10929 1.53041 4.32746 2.92894 2.92894C4.32746 1.53041 6.10929 0.578004 8.0491 0.192152C9.98891 -0.193701 11.9996 0.00433284 13.8268 0.761209C15.6541 1.51809 17.2159 2.79981 18.3147 4.4443C19.4135 6.08879 20 8.02219 20 10C19.9971 12.6513 18.9426 15.1931 17.0679 17.0679C15.1931 18.9426 12.6513 19.9971 10 20ZM10 1.25C8.26942 1.25 6.57769 1.76318 5.13876 2.72465C3.69983 3.68611 2.57833 5.05267 1.91606 6.65152C1.25379 8.25038 1.08051 10.0097 1.41813 11.707C1.75575 13.4044 2.58911 14.9635 3.81282 16.1872C5.03653 17.4109 6.59563 18.2443 8.29296 18.5819C9.9903 18.9195 11.7496 18.7462 13.3485 18.084C14.9473 17.4217 16.3139 16.3002 17.2754 14.8612C18.2368 13.4223 18.75 11.7306 18.75 10C18.7474 7.68017 17.8246 5.45611 16.1843 3.81574C14.5439 2.17537 12.3198 1.25265 10 1.25ZM13.511 13.359L12.489 12.641C12.1968 13.0208 11.8191 13.3263 11.3866 13.5327C10.9541 13.7392 10.4791 13.8407 10 13.829C9.52094 13.8407 9.04587 13.7392 8.6134 13.5327C8.18092 13.3263 7.80323 13.0208 7.511 12.641L6.489 13.359C6.89395 13.9057 7.42415 14.3472 8.03509 14.6465C8.64603 14.9458 9.31986 15.0941 10 15.079C10.6801 15.0941 11.354 14.9458 11.9649 14.6465C12.5759 14.3472 13.1061 13.9057 13.511 13.359ZM6 7.5C5.70333 7.5 5.41332 7.58798 5.16665 7.7528C4.91998 7.91762 4.72772 8.15189 4.61418 8.42598C4.50065 8.70007 4.47095 9.00167 4.52883 9.29264C4.5867 9.58361 4.72957 9.85089 4.93934 10.0607C5.14912 10.2704 5.4164 10.4133 5.70737 10.4712C5.99834 10.5291 6.29994 10.4994 6.57403 10.3858C6.84812 10.2723 7.08239 10.08 7.24721 9.83336C7.41203 9.58669 7.5 9.29668 7.5 9C7.5 8.60218 7.34197 8.22065 7.06066 7.93934C6.77936 7.65804 6.39783 7.5 6 7.5ZM14 7.5C13.7033 7.5 13.4133 7.58798 13.1666 7.7528C12.92 7.91762 12.7277 8.15189 12.6142 8.42598C12.5007 8.70007 12.4709 9.00167 12.5288 9.29264C12.5867 9.58361 12.7296 9.85089 12.9393 10.0607C13.1491 10.2704 13.4164 10.4133 13.7074 10.4712C13.9983 10.5291 14.2999 10.4994 14.574 10.3858C14.8481 10.2723 15.0824 10.08 15.2472 9.83336C15.412 9.58669 15.5 9.29668 15.5 9C15.5 8.60218 15.342 8.22065 15.0607 7.93934C14.7794 7.65804 14.3978 7.5 14 7.5Z" fill="#0F1A1C"/>
</g>
<defs>
<clipPath id="clip0_473_125">
<rect width="20" height="20" fill="white"/>
</clipPath>
</defs>
</svg>
