<svg width="20" height="20" viewBox="0 0 20 20" fill="none" xmlns="http://www.w3.org/2000/svg">
<path d="M19.9325 7.681C19.9327 7.83089 19.9033 7.97933 19.846 8.11782C19.7887 8.25631 19.7046 8.38211 19.5985 8.488L18.9335 9.153C18.6169 9.46001 18.2126 9.66093 17.7767 9.72794C17.3407 9.79495 16.8948 9.72473 16.5005 9.527L14.4705 11.557L13.5875 10.674L16.4335 7.827L16.8755 8.27C17.0338 8.42077 17.244 8.50486 17.4625 8.50486C17.6811 8.50486 17.8913 8.42077 18.0495 8.27L18.6365 7.683L12.3175 1.363L11.7305 1.951C11.6534 2.02808 11.5923 2.11959 11.5505 2.22031C11.5088 2.32103 11.4873 2.42898 11.4873 2.538C11.4873 2.64703 11.5088 2.75498 11.5505 2.8557C11.5923 2.95642 11.6534 3.04793 11.7305 3.125L12.1725 3.567L9.32652 6.413L8.44252 5.529L10.4725 3.499C10.2687 3.10607 10.195 2.65849 10.2623 2.22096C10.3295 1.78343 10.5341 1.37861 10.8465 1.065L11.5115 0.400004C11.7257 0.187006 12.0155 0.0674438 12.3175 0.0674438C12.6196 0.0674438 12.9094 0.187006 13.1235 0.400004L19.5995 6.876C19.7052 6.98171 19.789 7.10722 19.8462 7.24535C19.9033 7.38348 19.9327 7.53152 19.9325 7.681ZM2.48552 1.6L18.3995 17.513L17.5165 18.397L12.8455 13.727C12.9488 14.0793 12.9561 14.4527 12.8666 14.8088C12.7771 15.1648 12.5941 15.4904 12.3365 15.752L11.6705 16.418C11.5657 16.5235 11.4411 16.6073 11.3038 16.6645C11.1665 16.7216 11.0192 16.751 10.8705 16.751C10.7208 16.7515 10.5725 16.7223 10.4342 16.6652C10.2959 16.608 10.1702 16.524 10.0645 16.418L7.26452 13.618L1.44552 19.438L0.561523 18.554L6.38052 12.734L3.58252 9.943C3.36873 9.72905 3.24864 9.43896 3.24864 9.1365C3.24864 8.83404 3.36873 8.54396 3.58252 8.33L4.24752 7.666C4.51261 7.41296 4.83897 7.23325 5.19454 7.14454C5.55011 7.05582 5.92264 7.06115 6.27552 7.16L1.59952 2.487L2.48552 1.6ZM11.0075 13.25L11.6885 12.57L7.42652 8.312L6.74652 8.992L6.30452 8.55C6.14651 8.39879 5.93624 8.31438 5.71752 8.31438C5.49881 8.31438 5.28854 8.39879 5.13052 8.55L4.54352 9.137L10.8625 15.454L11.4495 14.867C11.6048 14.7111 11.6919 14.5 11.6919 14.28C11.6919 14.06 11.6048 13.8489 11.4495 13.693L11.0075 13.25Z" fill="#0F1A1C"/>
</svg>
