<svg width="20" height="20" viewBox="0 0 20 20" fill="none" xmlns="http://www.w3.org/2000/svg">
<path d="M8.45362 11.6728V16.17H8.19962V13.18V11.9723L7.34594 12.8266L1.8165 18.3598L1.63984 18.1831L7.17305 12.6537L8.0273 11.8H6.81962H3.82862V11.55H8.32862H8.32863C8.36161 11.55 8.39326 11.563 8.41667 11.5863C8.43979 11.6092 8.45303 11.6402 8.45362 11.6728ZM13.1336 8.25H16.1246V8.5H11.6246C11.5915 8.5 11.5597 8.48683 11.5362 8.46339C11.5128 8.43995 11.4996 8.40816 11.4996 8.375V3.875H11.7496V6.866V8.07297L12.6031 7.21959L18.1378 1.68588L18.3143 1.8622L12.7801 7.39645L11.9265 8.25H13.1336Z" fill="#0F1A1C" stroke="#0F1A1C"/>
</svg>
