<svg width="20" height="20" viewBox="0 0 20 20" fill="none" xmlns="http://www.w3.org/2000/svg">
<path d="M19.9183 10.5C19.9194 10.6486 19.8908 10.7959 19.8341 10.9333C19.7775 11.0707 19.6939 11.1954 19.5883 11.3L14.3003 16.588C14.0891 16.7988 13.8028 16.9172 13.5043 16.9172C13.2059 16.9172 12.9196 16.7988 12.7083 16.588L11.6483 15.528C11.4038 15.2849 11.2099 14.9956 11.0779 14.677C10.9459 14.3585 10.8784 14.0168 10.8793 13.672V12.759L7.24134 9.125H6.32834C5.98349 9.12594 5.64188 9.05846 5.32329 8.92646C5.0047 8.79446 4.71547 8.60056 4.47234 8.356L3.41134 7.3C3.20067 7.08906 3.08233 6.80312 3.08233 6.505C3.08233 6.20687 3.20067 5.92094 3.41134 5.71L8.70034 0.411998C8.91171 0.201748 9.19772 0.083725 9.49584 0.083725C9.79397 0.083725 10.08 0.201748 10.2913 0.411998L11.3523 1.474C11.5972 1.71689 11.7913 2.00608 11.9234 2.32472C12.0554 2.64336 12.1227 2.98509 12.1213 3.33V4.242L15.7553 7.876H16.6683C17.0132 7.87505 17.3548 7.94253 17.6734 8.07453C17.992 8.20654 18.2812 8.40043 18.5243 8.645L19.5853 9.706C19.6905 9.8098 19.7741 9.93341 19.8313 10.0697C19.8884 10.206 19.918 10.3522 19.9183 10.5ZM8.83434 12.834L7.44234 11.442L6.55834 10.558L1.05834 16.058C0.680637 16.4413 0.469764 16.9584 0.471693 17.4965C0.473621 18.0346 0.688195 18.5501 1.06864 18.9307C1.44908 19.3113 1.96455 19.526 2.50267 19.5282C3.04078 19.5303 3.55792 19.3196 3.94134 18.942L9.44134 13.442L8.83434 12.834Z" fill="#0F1A1C"/>
</svg>
