<svg width="20" height="20" viewBox="0 0 20 20" fill="none" xmlns="http://www.w3.org/2000/svg">
<g clip-path="url(#clip0_472_1114)">
<path d="M17.0651 2.93C15.7615 1.62471 14.122 0.705749 12.3283 0.274895C10.5346 -0.155959 8.65658 -0.0818842 6.90236 0.488913C5.14814 1.05971 3.58615 2.10495 2.38943 3.50886C1.1927 4.91276 0.407938 6.62053 0.122074 8.443C-0.235756 10.6797 0.18615 12.9714 1.31707 14.934L0.0830743 19.01C0.0446232 19.1356 0.0408603 19.2692 0.0721844 19.3968C0.103509 19.5243 0.168753 19.641 0.261004 19.7345C0.353255 19.828 0.469076 19.8948 0.596195 19.9278C0.723314 19.9608 0.856996 19.9588 0.983074 19.922L5.15007 18.729C6.62755 19.562 8.29494 19.9998 9.99107 20C10.531 19.9996 11.07 19.9564 11.6031 19.871C13.4209 19.5772 15.1223 18.7869 16.5193 17.5871C17.9163 16.3874 18.9547 14.825 19.5197 13.0724C20.0848 11.3198 20.1546 9.44514 19.7214 7.65535C19.2883 5.86557 18.369 4.23028 17.0651 2.93ZM14.0001 11H11.0001V14H9.00007V11H6.00007V9H9.00007V6H11.0001V9H14.0001V11Z" fill="#0F1A1C"/>
</g>
<defs>
<clipPath id="clip0_472_1114">
<rect width="20" height="20" fill="white"/>
</clipPath>
</defs>
</svg>
