<svg width="20" height="20" viewBox="0 0 20 20" fill="none" xmlns="http://www.w3.org/2000/svg">
<path d="M9.48824 8.58C9.09775 8.36769 8.65743 8.26408 8.21324 8.28C7.71274 8.24918 7.21878 8.40646 6.82824 8.721C6.65706 8.8828 6.52355 9.08024 6.43714 9.29936C6.35074 9.51848 6.31356 9.75392 6.32824 9.989V14.5H3.84424V6.021H6.20624V7.029H6.25324C6.58265 6.68055 6.97886 6.40201 7.41824 6.21C7.953 5.98256 8.5303 5.87242 9.11124 5.887C9.39651 5.88451 9.68131 5.91098 9.96124 5.966C10.1475 5.99409 10.3266 6.05829 10.4882 6.155L9.48824 8.58ZM8.10024 16.862L14.4802 1.416H16.5432L10.1182 16.862H8.10024Z" fill="#0F1A1C"/>
</svg>
