<svg width="20" height="20" viewBox="0 0 20 20" fill="none" xmlns="http://www.w3.org/2000/svg">
<path d="M10 20C9.89867 20 9.7978 19.9865 9.7 19.96C8.249 19.554 1 17.277 1 12V3.187C1.00012 2.93755 1.08336 2.69525 1.23657 2.4984C1.38978 2.30155 1.60422 2.16136 1.846 2.1L9.73 0.108C9.90731 0.0639984 10.0927 0.0639984 10.27 0.108L18.154 2.1C18.3958 2.16136 18.6102 2.30155 18.7634 2.4984C18.9166 2.69525 18.9999 2.93755 19 3.187V12C19 17.277 11.751 19.554 10.3 19.957C10.2023 19.9844 10.1014 19.9988 10 20ZM2.25 3.283V12C2.25 16.465 9.239 18.531 10.036 18.751C10.761 18.531 17.75 16.465 17.75 12V3.283L10 1.33L2.25 3.283Z" fill="#0F1A1C"/>
</svg>
