<svg width="20" height="20" viewBox="0 0 20 20" fill="none" xmlns="http://www.w3.org/2000/svg">
<path d="M14.2099 11.433C14.2099 8.473 14.2099 4.776 14.2099 2.904C14.2099 2.56112 14.0745 2.23211 13.833 1.98863C13.5916 1.74514 13.2638 1.6069 12.9209 1.604H12.8869C12.5432 1.60848 12.2152 1.74893 11.9747 1.99463C11.7343 2.24032 11.601 2.57124 11.6039 2.915C11.6099 4.606 11.6159 8.052 11.6219 9.397C11.6249 9.46208 11.6146 9.52708 11.5917 9.58808C11.5689 9.64909 11.5339 9.70482 11.4889 9.75192C11.4439 9.79903 11.3898 9.83652 11.3299 9.86213C11.27 9.88774 11.2055 9.90095 11.1404 9.90095C11.0753 9.90095 11.0108 9.88774 10.9509 9.86213C10.891 9.83652 10.8369 9.79903 10.7919 9.75192C10.7469 9.70482 10.7119 9.64909 10.689 9.58808C10.6662 9.52708 10.6559 9.46208 10.6589 9.397C10.6669 7.607 10.6749 3.469 10.6829 1.316V1.305C10.6842 0.962279 10.5502 0.632891 10.3099 0.388497C10.0697 0.144104 9.74259 0.00447912 9.3999 0L9.3519 0C9.00851 0.00422001 8.68073 0.144143 8.44016 0.389214C8.19959 0.634284 8.06576 0.96459 8.0679 1.308C8.0729 3.417 8.0789 7.581 8.0839 9.322C8.08429 9.38586 8.07207 9.44917 8.04794 9.50829C8.0238 9.56742 7.98823 9.62119 7.94326 9.66653C7.89829 9.71187 7.84481 9.74789 7.78589 9.77251C7.72696 9.79713 7.66376 9.80987 7.5999 9.81H7.5939C7.46561 9.80816 7.34329 9.75556 7.2537 9.66372C7.16411 9.57188 7.11456 9.44829 7.1159 9.32C7.1219 8.158 7.1369 4.474 7.1459 2.896V2.888C7.14591 2.54512 7.01046 2.21611 6.76903 1.97263C6.52761 1.72914 6.19977 1.5909 5.8569 1.588H5.8139C5.4712 1.59274 5.14425 1.73262 4.90416 1.9772C4.66407 2.22178 4.53028 2.55128 4.5319 2.894C4.5409 4.757 4.5559 8.027 4.5579 9.347C4.55843 9.47519 4.50808 9.59836 4.41791 9.68948C4.32773 9.78059 4.20509 9.83221 4.0769 9.833H4.0569C3.99338 9.83183 3.93072 9.81814 3.8725 9.79272C3.81428 9.76729 3.76165 9.73063 3.71762 9.68484C3.67359 9.63904 3.63902 9.58501 3.6159 9.52584C3.59279 9.46667 3.58157 9.40351 3.5829 9.34C3.5949 8.313 3.6229 6.994 3.6339 5.72V5.71C3.6387 5.53777 3.60892 5.36633 3.54632 5.20581C3.48373 5.04528 3.38959 4.89894 3.26946 4.77542C3.14934 4.65191 3.00567 4.55373 2.84696 4.48668C2.68824 4.41964 2.51769 4.3851 2.3454 4.3851C2.1731 4.3851 2.00255 4.41964 1.84384 4.48668C1.68512 4.55373 1.54145 4.65191 1.42133 4.77542C1.30121 4.89894 1.20707 5.04528 1.14447 5.20581C1.08188 5.36633 1.0521 5.53777 1.0569 5.71C1.0569 7.236 1.0569 8.767 1.0569 11.434V13.272C1.05654 13.279 1.05654 13.286 1.0569 13.293C1.05644 13.3 1.05644 13.307 1.0569 13.314C1.04967 15.0707 1.73759 16.7589 2.97053 18.0102C4.20347 19.2615 5.88132 19.9743 7.6379 19.993L10.2629 20H10.2819C11.4172 19.995 12.5322 19.698 13.5196 19.1376C14.5069 18.5772 15.3335 17.7722 15.9199 16.8L18.8479 11.938C19.5649 10.746 19.3369 9.669 18.0649 9.522C17.6244 9.48789 17.1826 9.56831 16.7824 9.75545C16.3821 9.94259 16.0371 10.2301 15.7809 10.59L14.2559 12.612L14.2099 11.433Z" fill="#0F1A1C"/>
</svg>
