<svg width="20" height="20" viewBox="0 0 20 20" fill="none" xmlns="http://www.w3.org/2000/svg">
<g clip-path="url(#clip0_473_29)">
<path d="M10 0C8.02219 0 6.08879 0.58649 4.4443 1.6853C2.79981 2.78412 1.51809 4.3459 0.761209 6.17317C0.00433284 8.00043 -0.193701 10.0111 0.192152 11.9509C0.578004 13.8907 1.53041 15.6725 2.92894 17.0711C4.32746 18.4696 6.10929 19.422 8.0491 19.8079C9.98891 20.1937 11.9996 19.9957 13.8268 19.2388C15.6541 18.4819 17.2159 17.2002 18.3147 15.5557C19.4135 13.9112 20 11.9778 20 10C19.9971 7.34873 18.9426 4.80688 17.0679 2.93215C15.1931 1.05742 12.6513 0.0029116 10 0V0ZM10.059 5C10.6976 5 11.3219 5.18938 11.8529 5.54418C12.3839 5.89899 12.7978 6.40329 13.0422 6.99332C13.2866 7.58334 13.3506 8.23258 13.226 8.85895C13.1014 9.48531 12.7938 10.0607 12.3423 10.5122C11.8907 10.9638 11.3153 11.2714 10.689 11.396C10.0626 11.5205 9.41334 11.4566 8.82332 11.2122C8.2333 10.9678 7.729 10.5539 7.37419 10.0229C7.01938 9.49193 6.83 8.86764 6.83 8.229C6.83106 7.37294 7.1716 6.55225 7.77693 5.94692C8.38225 5.3416 9.20295 5.00106 10.059 5ZM3.85 16.216C4.27731 15.2521 4.9814 14.4369 5.87288 13.8739C6.76436 13.311 7.80302 13.0256 8.85701 13.054H11.143C12.197 13.0257 13.2356 13.311 14.1272 13.8738C15.0188 14.4365 15.7232 15.2514 16.151 16.215C14.5157 17.8381 12.3051 18.749 10.001 18.749C7.69693 18.749 5.48629 17.8381 3.851 16.215L3.85 16.216Z" fill="#0F1A1C"/>
</g>
<defs>
<clipPath id="clip0_473_29">
<rect width="20" height="20" fill="white"/>
</clipPath>
</defs>
</svg>
