<svg width="20" height="20" viewBox="0 0 20 20" fill="none" xmlns="http://www.w3.org/2000/svg">
<path d="M4.125 19.543C3.97723 19.5431 3.83088 19.5141 3.69433 19.4576C3.55778 19.4011 3.4337 19.3183 3.32921 19.2138C3.22472 19.1093 3.14186 18.9852 3.08537 18.8487C3.02888 18.7121 2.99987 18.5658 3 18.418V1.582C2.99987 1.37974 3.05427 1.18118 3.15747 1.00723C3.26068 0.83328 3.40887 0.69037 3.58645 0.593545C3.76403 0.49672 3.96443 0.449561 4.16656 0.457032C4.36868 0.464504 4.56505 0.526329 4.735 0.636L17.783 9.055C17.9409 9.15699 18.0707 9.29691 18.1606 9.46199C18.2505 9.62706 18.2976 9.81203 18.2976 10C18.2976 10.188 18.2505 10.3729 18.1606 10.538C18.0707 10.7031 17.9409 10.843 17.783 10.945L4.735 19.364C4.55301 19.4809 4.34128 19.543 4.125 19.543ZM4.25 1.811V18.189L16.942 10L4.25 1.811Z" fill="#0F1A1C"/>
</svg>
