<svg width="20" height="20" viewBox="0 0 20 20" fill="none" xmlns="http://www.w3.org/2000/svg">
<path d="M6.468 10C6.46707 10.6716 6.72119 11.3186 7.179 11.81L6.265 12.662C5.74674 12.105 5.40235 11.4088 5.27409 10.6588C5.14583 9.90887 5.23926 9.13779 5.54294 8.44018C5.84662 7.74258 6.34732 7.14879 6.98363 6.73166C7.61993 6.31454 8.36416 6.09223 9.125 6.092H9.533L8.287 4.847L9.172 3.963L11.88 6.671L11.447 7.195L9.171 9.471L8.287 8.587L9.533 7.342H9.125C8.42047 7.34306 7.74512 7.62347 7.24703 8.12174C6.74895 8.62001 6.46879 9.29547 6.468 10ZM12.821 8.19C13.1734 8.56893 13.4075 9.04247 13.4946 9.55253C13.5817 10.0626 13.518 10.587 13.3114 11.0614C13.1048 11.5358 12.7642 11.9395 12.3314 12.2232C11.8986 12.5068 11.3924 12.6579 10.875 12.658H10.467L11.713 11.413L10.829 10.529L8.553 12.805L8.12 13.329L10.828 16.037L11.713 15.153L10.467 13.908H10.875C11.6358 13.9078 12.3801 13.6855 13.0164 13.2683C13.6527 12.8512 14.1534 12.2574 14.4571 11.5598C14.7607 10.8622 14.8542 10.0911 14.7259 9.34118C14.5976 8.59123 14.2533 7.89503 13.735 7.338L12.821 8.19ZM20 5.657V15.375C19.9989 16.0709 19.722 16.7379 19.23 17.23C18.7379 17.722 18.0709 17.9989 17.375 18H2.625C1.92913 17.9989 1.26207 17.722 0.770013 17.23C0.277959 16.7379 0.00105795 16.0709 0 15.375L0 5.656C0.00105795 4.96013 0.277959 4.29307 0.770013 3.80102C1.26207 3.30896 1.92913 3.03206 2.625 3.031H5.014L6.229 1.454C6.33763 1.3125 6.47741 1.19794 6.63748 1.11921C6.79755 1.04047 6.97361 0.999681 7.152 1H12.892C13.0677 1.00036 13.2409 1.04092 13.3985 1.11858C13.556 1.19623 13.6937 1.30892 13.801 1.448L15.021 3.031H17.376C18.072 3.0318 18.7393 3.30878 19.2313 3.80114C19.7233 4.29349 19.9997 4.96097 20 5.657ZM18.75 5.657C18.75 5.2925 18.6053 4.94292 18.3476 4.68508C18.09 4.42725 17.7405 4.28227 17.376 4.282H14.405L12.805 2.21L7.152 2.25L5.629 4.281H2.629C2.44817 4.28074 2.26906 4.3161 2.10189 4.38505C1.93473 4.45401 1.78278 4.55522 1.65473 4.6829C1.52668 4.81058 1.42503 4.96223 1.35558 5.1292C1.28614 5.29616 1.25026 5.47517 1.25 5.656V15.375C1.25053 15.7395 1.39556 16.0889 1.65331 16.3467C1.91106 16.6044 2.26049 16.7495 2.625 16.75H17.375C17.7395 16.7495 18.0889 16.6044 18.3467 16.3467C18.6044 16.0889 18.7495 15.7395 18.75 15.375V5.657Z" fill="#0F1A1C"/>
</svg>
