<svg width="20" height="20" viewBox="0 0 20 20" fill="none" xmlns="http://www.w3.org/2000/svg">
<path d="M14.268 6.335C13.8442 5.31092 13.0665 4.47324 12.0767 3.97472C11.0868 3.4762 9.95078 3.35004 8.87568 3.61925C7.80057 3.88846 6.85803 4.5351 6.21991 5.44126C5.5818 6.34742 5.29062 7.45274 5.39946 8.55568C5.50831 9.65862 6.00993 10.6857 6.81286 11.4497C7.6158 12.2136 8.66655 12.6635 9.77354 12.7174C10.8805 12.7713 11.97 12.4255 12.8433 11.7431C13.7166 11.0607 14.3156 10.0872 14.531 9C14.709 8.10522 14.6175 7.17773 14.268 6.335ZM10 11.483C9.10386 11.4804 8.24523 11.123 7.61184 10.489C6.97845 9.85509 6.62185 8.99614 6.62 8.1C6.61821 7.41978 6.82788 6.75582 7.22 6.2L11.9 10.88C11.3445 11.2732 10.6805 11.4839 10 11.483ZM12.78 10L8.1 5.323C8.65583 4.93088 9.31978 4.72121 10 4.723C10.8951 4.72563 11.7528 5.08217 12.3861 5.71483C13.0193 6.34748 13.3766 7.2049 13.38 8.1C13.3818 8.78022 13.1721 9.44418 12.78 10ZM16.88 1.9345e-07H4.625C3.92994 -0.00026651 3.26316 0.275249 2.77102 0.766076C2.27888 1.2569 2.00159 1.92294 2 2.618V17.326H2.018C2.018 17.387 2 17.444 2 17.506C2.00159 18.168 2.26568 18.8023 2.73435 19.2699C3.20302 19.7374 3.838 20 4.5 20H16.875C17.1728 20 17.4585 19.8819 17.6694 19.6716C17.8803 19.4612 17.9992 19.1758 18 18.878V1.122C17.9992 0.824152 17.8803 0.538774 17.6694 0.328444C17.4585 0.118114 17.1728 -8.65572e-07 16.875 1.9345e-07H16.88ZM16.75 18.753H4.5C4.16928 18.753 3.8521 18.6216 3.61824 18.3878C3.38438 18.1539 3.253 17.8367 3.253 17.506C3.253 17.1753 3.38438 16.8581 3.61824 16.6242C3.8521 16.3904 4.16928 16.259 4.5 16.259H16.75V18.753ZM4.5 15.012C4.05987 15.0143 3.62833 15.1341 3.25 15.359V2.618C3.25106 2.25402 3.39639 1.90531 3.65414 1.64831C3.91189 1.39132 4.26102 1.247 4.625 1.247H16.75V15.012H4.5Z" fill="#0F1A1C"/>
</svg>
