<svg width="20" height="20" viewBox="0 0 20 20" fill="none" xmlns="http://www.w3.org/2000/svg">
<path d="M7.382 4.24L6.421 3.279C6.74264 2.60082 7.24914 2.02718 7.88226 1.62402C8.51538 1.22087 9.24943 1.00457 10 1C11.0674 1.00819 12.0879 1.43939 12.8378 2.199C13.5876 2.95861 14.0056 3.98463 14 5.052V9.952C13.9998 10.2295 13.9713 10.5063 13.915 10.778L12.75 9.608V5.052C12.7561 4.31599 12.47 3.6076 11.9545 3.08229C11.4389 2.55698 10.736 2.25766 10 2.25C9.40747 2.25537 8.83252 2.45199 8.36078 2.81057C7.88904 3.16915 7.54574 3.67052 7.382 4.24ZM17 10.375H15.75C15.7482 11.0152 15.6244 11.6492 15.385 12.243L16.329 13.188C16.7688 12.3154 16.9986 11.3521 17 10.375ZM4.078 3.048L16.807 15.775L15.922 16.659L14.61 15.347C13.4791 16.2832 12.0882 16.8497 10.625 16.97V18.75H12.425V20H7.58V18.75H9.38V16.97C7.68411 16.8687 6.08787 16.1351 4.90663 14.914C3.72538 13.693 3.04504 12.0733 3 10.375H4.25C4.30295 11.8492 4.93767 13.2423 6.01528 14.2496C7.09288 15.257 8.52562 15.7964 10 15.75C11.3507 15.7541 12.6625 15.2976 13.719 14.456L12.419 13.156C11.731 13.7022 10.8785 13.9997 10 14C8.93265 13.9918 7.91212 13.5606 7.16225 12.801C6.41238 12.0414 5.99441 11.0154 6 9.948V6.738L3.193 3.932L4.078 3.048ZM11.519 12.257L7.25 7.988V9.948C7.24387 10.684 7.52997 11.3924 8.04554 11.9177C8.5611 12.443 9.264 12.7423 10 12.75C10.545 12.746 11.0755 12.5739 11.519 12.257Z" fill="#0F1A1C"/>
</svg>
