<svg width="20" height="20" viewBox="0 0 20 20" fill="none" xmlns="http://www.w3.org/2000/svg">
<path d="M10.0002 19.9902C9.39257 19.9917 8.79066 19.8729 8.22923 19.6405C7.6678 19.4081 7.15797 19.0667 6.7292 18.6362L1.3642 13.2712C0.496948 12.4035 0.00976563 11.227 0.00976562 10.0002C0.00976562 8.77343 0.496948 7.59687 1.3642 6.7292L6.7292 1.3642C7.59687 0.496948 8.77343 0.00976563 10.0002 0.00976562C11.227 0.00976563 12.4035 0.496948 13.2712 1.3642L18.6362 6.7282C19.5035 7.59587 19.9906 8.77243 19.9906 9.9992C19.9906 11.226 19.5035 12.4025 18.6362 13.2702L13.2722 18.6352C12.8434 19.066 12.3334 19.4076 11.7718 19.6402C11.2102 19.8728 10.6081 19.9917 10.0002 19.9902ZM10.0002 1.2602C9.55693 1.25899 9.11782 1.34569 8.70827 1.51528C8.29871 1.68486 7.92686 1.93397 7.6142 2.2482L2.2492 7.6142C1.93583 7.92751 1.68725 8.29949 1.51765 8.70888C1.34805 9.11827 1.26076 9.55707 1.26076 10.0002C1.26076 10.4433 1.34805 10.8821 1.51765 11.2915C1.68725 11.7009 1.93583 12.0729 2.2492 12.3862L7.6152 17.7522C8.25842 18.365 9.11278 18.7069 10.0012 18.7069C10.8896 18.7069 11.744 18.365 12.3872 17.7522L17.7522 12.3862C18.0656 12.0729 18.3142 11.7009 18.4838 11.2915C18.6534 10.8821 18.7406 10.4433 18.7406 10.0002C18.7406 9.55707 18.6534 9.11827 18.4838 8.70888C18.3142 8.29949 18.0656 7.92751 17.7522 7.6142L12.3862 2.2492C12.0737 1.93466 11.7019 1.68528 11.2923 1.5155C10.8828 1.34573 10.4436 1.25896 10.0002 1.2602ZM11.5112 5.6412C11.9183 5.82939 12.2646 6.12761 12.5112 6.5022C12.7514 6.87733 12.8759 7.31483 12.8692 7.7602C12.8755 8.05323 12.8186 8.34418 12.7022 8.6132C12.6016 8.84177 12.4641 9.05225 12.2952 9.2362C12.0939 9.44351 11.8816 9.6398 11.6592 9.8242C11.4372 10.0109 11.2595 10.1715 11.1262 10.3062C10.992 10.4421 10.8812 10.5992 10.7982 10.7712C10.7098 10.9551 10.6653 11.1571 10.6682 11.3612V12.1412H9.2282V11.3832C9.22054 11.0661 9.28089 10.751 9.4052 10.4592C9.50918 10.2209 9.65252 10.0019 9.8292 9.8112C10.0326 9.60102 10.2498 9.40459 10.4792 9.2232C10.6872 9.0492 10.8522 8.9052 10.9712 8.7912C11.0929 8.67559 11.1943 8.54038 11.2712 8.3912C11.3521 8.23385 11.3933 8.05911 11.3912 7.8822C11.395 7.66273 11.333 7.44715 11.2132 7.2632C11.0933 7.0812 10.9255 6.93585 10.7282 6.8432C10.5173 6.74105 10.2855 6.68935 10.0512 6.6922C9.80056 6.68859 9.5528 6.7459 9.3292 6.8592C9.1199 6.96545 8.94305 7.12607 8.8172 7.3242C8.68905 7.52326 8.61972 7.75447 8.6172 7.9912H7.1562C7.15935 7.52049 7.28927 7.05931 7.53228 6.65617C7.77529 6.25302 8.12243 5.9228 8.5372 5.7002C9.01031 5.44915 9.53972 5.32316 10.0752 5.3342C10.571 5.32596 11.0621 5.43095 11.5112 5.6412ZM9.3482 15.4842C9.18815 15.391 9.05486 15.258 8.9612 15.0982C8.86507 14.9357 8.81527 14.75 8.8172 14.5612C8.81579 14.3747 8.8656 14.1914 8.9612 14.0312C9.05486 13.8714 9.18815 13.7384 9.3482 13.6452C9.50809 13.5499 9.69109 13.5005 9.8772 13.5022C10.0641 13.5005 10.2481 13.5481 10.4107 13.6403C10.5733 13.7325 10.7087 13.8659 10.8032 14.0272C10.8994 14.1893 10.9502 14.3742 10.9502 14.5627C10.9502 14.7512 10.8994 14.9361 10.8032 15.0982C10.708 15.2575 10.5742 15.3902 10.4142 15.4842C10.2516 15.5799 10.0659 15.6294 9.8772 15.6272C9.69109 15.6289 9.50809 15.5795 9.3482 15.4842Z" fill="#0F1A1C"/>
</svg>
