<svg width="20" height="20" viewBox="0 0 20 20" fill="none" xmlns="http://www.w3.org/2000/svg">
<path d="M17.1121 7.542C17.0465 7.39564 16.9399 7.2714 16.8052 7.18427C16.6706 7.09714 16.5136 7.05086 16.3531 7.051H12.7931L15.1871 2.21C15.2518 2.08318 15.2829 1.94188 15.2773 1.79962C15.2718 1.65736 15.2298 1.5189 15.1555 1.39749C15.0811 1.27608 14.9769 1.17578 14.8527 1.10619C14.7285 1.03659 14.5885 1.00003 14.4461 1H6.14614C5.96064 0.99955 5.78036 1.0614 5.63421 1.17564C5.48806 1.28988 5.3845 1.44988 5.34015 1.63L3.02515 10.889C2.99429 11.0117 2.9918 11.1397 3.01786 11.2635C3.04393 11.3872 3.09786 11.5034 3.17557 11.6032C3.25327 11.703 3.3527 11.7837 3.4663 11.8393C3.5799 11.8949 3.70467 11.9239 3.83115 11.924H6.64614L5.48415 18.806C5.45298 18.984 5.48123 19.1672 5.56455 19.3275C5.64786 19.4878 5.7816 19.6162 5.94515 19.693C6.05845 19.7474 6.18247 19.7757 6.30815 19.776C6.42406 19.7762 6.53869 19.7517 6.64439 19.7041C6.75009 19.6565 6.84443 19.5869 6.92114 19.5L16.9751 8.435C17.0815 8.3151 17.1509 8.16708 17.1752 8.00869C17.1995 7.8503 17.1776 7.68826 17.1121 7.542Z" fill="#0F1A1C"/>
</svg>
