<svg width="20" height="20" viewBox="0 0 20 20" fill="none" xmlns="http://www.w3.org/2000/svg">
<path d="M18.1558 1.32383L18.1559 1.32381C18.0473 1.26751 17.9252 1.2424 17.8032 1.25125C17.6813 1.2601 17.5641 1.30257 17.4648 1.37394L17.4642 1.37438L10.2912 6.51338L10 6.722L9.7088 6.51338L2.5358 1.37438L2.53563 1.37425C2.43613 1.3029 2.31884 1.26045 2.19673 1.25159C2.07462 1.24273 1.95243 1.26781 1.84368 1.32405L1.83941 1.32626L1.8394 1.32623C1.73716 1.37787 1.65128 1.4569 1.59135 1.55451C1.53142 1.65212 1.49979 1.76447 1.5 1.87901L1.5 1.87992L1.5 5.39474L9.96736 11.3275L15.0766 7.42748L15.4738 7.12428L15.7773 7.52131L16.6883 8.71331L16.9919 9.11063L16.5946 9.41423L10.7636 13.8692L10.7635 13.8693C10.5525 14.0305 10.2956 14.1203 10.0301 14.1257C9.76474 14.1311 9.50456 14.0518 9.28723 13.8995C9.28721 13.8995 9.28718 13.8995 9.28715 13.8995C9.28706 13.8994 9.28696 13.8993 9.28686 13.8993L1.5 8.44736V12.8756C1.50004 12.8955 1.50481 12.9152 1.51393 12.9329C1.52301 12.9506 1.53614 12.9659 1.55226 12.9775C1.55235 12.9776 1.55244 12.9776 1.55254 12.9777L9.61221 18.7518C9.61231 18.7518 9.61242 18.7519 9.61252 18.752C9.72581 18.8326 9.86142 18.876 10.0005 18.876C10.1396 18.876 10.2752 18.8326 10.3885 18.752C10.3886 18.7519 10.3887 18.7518 10.3888 18.7518L18.4475 12.9777L18.1558 1.32383ZM18.1558 1.32383L18.1606 1.32623M18.1558 1.32383L18.1606 1.32623M18.1606 1.32623C18.2625 1.3777 18.3482 1.45639 18.4081 1.55357C18.468 1.65075 18.4998 1.76263 18.5 1.8768V12.8755C18.5 12.8955 18.4952 12.9151 18.4861 12.9329C18.477 12.9506 18.4639 12.9659 18.4478 12.9775L18.1606 1.32623Z" fill="#0F1A1C" stroke="#0F1A1C"/>
</svg>
