<svg width="20" height="20" viewBox="0 0 20 20" fill="none" xmlns="http://www.w3.org/2000/svg">
<path d="M17.386 2H2.614C1.92097 2.00079 1.25655 2.27645 0.7665 2.7665C0.276452 3.25655 0.000794004 3.92097 0 4.614L0 15.386C0.000794004 16.079 0.276452 16.7435 0.7665 17.2335C1.25655 17.7235 1.92097 17.9992 2.614 18H17.386C18.079 17.9992 18.7435 17.7235 19.2335 17.2335C19.7235 16.7435 19.9992 16.079 20 15.386V4.614C19.9992 3.92097 19.7235 3.25655 19.2335 2.7665C18.7435 2.27645 18.079 2.00079 17.386 2ZM18.75 15.386C18.7495 15.7476 18.6056 16.0942 18.3499 16.3499C18.0942 16.6056 17.7476 16.7495 17.386 16.75H2.614C2.25241 16.7495 1.90578 16.6056 1.65009 16.3499C1.39441 16.0942 1.25053 15.7476 1.25 15.386V4.614C1.25053 4.25241 1.39441 3.90578 1.65009 3.65009C1.90578 3.39441 2.25241 3.25053 2.614 3.25H17.386C17.7476 3.25053 18.0942 3.39441 18.3499 3.65009C18.6056 3.90578 18.7495 4.25241 18.75 4.614V15.386ZM8 6H3V11H8V6ZM6.75 9.75H4.25V7.25H6.75V9.75ZM3 13H7V14.25H3V13ZM8 13H12V14.25H8V13ZM13 13H17V14.25H13V13Z" fill="#0F1A1C"/>
</svg>
