<svg width="20" height="20" viewBox="0 0 20 20" fill="none" xmlns="http://www.w3.org/2000/svg">
<path d="M15.209 10.95C15.754 11.6506 16.0341 12.5211 16 13.408C16.0143 14.2539 15.7822 15.0857 15.332 15.802C14.8789 16.5069 14.2359 17.0695 13.477 17.425C12.6276 17.8209 11.699 18.0175 10.762 18H5V2H9.511C10.4759 1.97706 11.4351 2.15446 12.328 2.521C13.0616 2.81926 13.6956 3.31965 14.156 3.964C14.5809 4.58097 14.8032 5.31494 14.792 6.064C14.7932 6.7461 14.6299 7.41844 14.316 8.024C14.0184 8.61655 13.5887 9.13283 13.06 9.533C13.899 9.78601 14.6459 10.2785 15.209 10.95ZM7.619 4.735V8.686H9.746C10.0234 8.70134 10.3011 8.65915 10.5614 8.56209C10.8218 8.46504 11.0593 8.3152 11.259 8.122C11.4455 7.92351 11.5903 7.68966 11.685 7.43426C11.7796 7.17886 11.8221 6.9071 11.81 6.635C11.8281 6.36662 11.7822 6.09778 11.6762 5.85058C11.5701 5.60337 11.4069 5.38486 11.2 5.213C10.7175 4.87117 10.1335 4.7027 9.543 4.735H7.619ZM10.676 15.265C11.281 15.2932 11.8738 15.0889 12.333 14.694C12.5432 14.5016 12.7086 14.2654 12.8177 14.002C12.9267 13.7387 12.9766 13.4547 12.964 13.17C12.9796 12.8798 12.9268 12.59 12.8097 12.3241C12.6926 12.0581 12.5146 11.8234 12.29 11.639C11.7692 11.254 11.1308 11.0621 10.484 11.096H7.619V15.265H10.676Z" fill="#0F1A1C"/>
</svg>
