<svg width="20" height="20" viewBox="0 0 20 20" fill="none" xmlns="http://www.w3.org/2000/svg">
<path d="M17 10V10.4C16.9568 12.0289 16.3253 13.5871 15.2224 14.7865C14.1194 15.986 12.6196 16.7456 11 16.925V18H12.42V20H7.58V18H9V16.925C7.38044 16.7456 5.88058 15.986 4.77763 14.7865C3.67469 13.5871 3.04324 12.0289 3 10.4V10H5V10.4C5.05664 11.6718 5.61431 12.8694 6.55117 13.7313C7.48803 14.5933 8.72793 15.0494 10 15C11.2721 15.0494 12.512 14.5933 13.4488 13.7313C14.3857 12.8694 14.9434 11.6718 15 10.4V10H17ZM10 14C11.0674 13.9918 12.0879 13.5606 12.8378 12.801C13.5876 12.0414 14.0056 11.0154 14 9.948V5.048C14 3.98714 13.5786 2.96972 12.8284 2.21958C12.0783 1.46943 11.0609 1.048 10 1.048C8.93913 1.048 7.92172 1.46943 7.17157 2.21958C6.42143 2.96972 6 3.98714 6 5.048V9.948C5.99441 11.0154 6.41238 12.0414 7.16225 12.801C7.91212 13.5606 8.93265 13.9918 10 14Z" fill="#0F1A1C"/>
</svg>
