<svg width="20" height="20" viewBox="0 0 20 20" fill="none" xmlns="http://www.w3.org/2000/svg">
<path d="M4.66503 8.31901V11.513C4.66346 11.8027 4.54769 12.08 4.34287 12.2848C4.13804 12.4897 3.86069 12.6054 3.57103 12.607H3.34403C3.05437 12.6054 2.77702 12.4897 2.5722 12.2848C2.36738 12.08 2.25161 11.8027 2.25003 11.513V8.31901C2.2503 8.02904 2.36568 7.75103 2.57081 7.54608C2.77595 7.34113 3.05406 7.22601 3.34403 7.22601H3.57103C3.86101 7.22601 4.13912 7.34113 4.34425 7.54608C4.54939 7.75103 4.66477 8.02904 4.66503 8.31901ZM10.158 9.89001C9.80664 9.74159 9.412 9.73214 9.0539 9.86357C8.69581 9.99501 8.40098 10.2575 8.22903 10.598C8.15987 10.7485 8.12215 10.9115 8.1182 11.0771C8.11424 11.2427 8.14413 11.4074 8.20603 11.561C8.27793 11.7343 8.38446 11.8911 8.5191 12.0218C8.65374 12.1525 8.81365 12.2543 8.98903 12.321L11.989 13.521C12.1377 13.5861 12.2552 13.7064 12.3168 13.8566C12.3783 14.0068 12.379 14.175 12.3187 14.3257C12.2585 14.4764 12.1419 14.5977 11.9938 14.664C11.8457 14.7303 11.6776 14.7364 11.525 14.681L8.52503 13.481C8.18899 13.3485 7.88295 13.1499 7.62503 12.897C7.49642 12.9241 7.36546 12.9385 7.23403 12.94H7.00903C6.53293 12.9399 6.06833 12.7937 5.67803 12.521C5.48843 12.9196 5.19003 13.2565 4.81724 13.4929C4.44445 13.7293 4.01245 13.8555 3.57103 13.857H3.34403C2.86619 13.8572 2.39996 13.7098 2.00903 13.435C2.10527 15.2202 2.89339 16.8975 4.20611 18.1111C5.51884 19.3247 7.25283 19.979 9.04003 19.935L9.72403 19.943C11.1652 19.9454 12.5725 19.5056 13.7559 18.683C14.9394 17.8605 15.842 16.6947 16.342 15.343C16.4922 14.8314 16.5225 14.2921 16.4304 13.767C16.3383 13.2418 16.1263 12.7449 15.811 12.315C15.785 12.274 15.748 12.246 15.719 12.208C15.6129 12.1223 15.495 12.0523 15.369 12L10.158 9.89001ZM15.834 10.838C15.968 10.8975 16.097 10.9674 16.22 11.047L17.735 3.07001C17.7782 2.83828 17.7719 2.60006 17.7168 2.3709C17.6617 2.14173 17.5588 1.92676 17.415 1.74001C17.1036 1.33467 16.6474 1.06555 16.142 0.989009C15.6525 0.892666 15.1448 0.988795 14.7244 1.25739C14.304 1.52599 14.0033 1.94636 13.885 2.43101L12.661 7.43101L11.291 1.77001C11.2348 1.53027 11.1303 1.30453 10.9838 1.10661C10.8373 0.908698 10.6519 0.742775 10.439 0.619009C9.9953 0.349925 9.46565 0.260161 8.95803 0.368009C8.45647 0.462129 8.01191 0.749405 7.72003 1.16801C7.58576 1.35942 7.49308 1.57684 7.44795 1.80626C7.40283 2.03568 7.40626 2.272 7.45803 2.50001L8.03203 5.20001C8.48467 5.36336 8.87601 5.66218 9.15281 6.05581C9.42961 6.44945 9.57843 6.9188 9.57903 7.40001V8.53001C9.93658 8.52972 10.2909 8.5976 10.623 8.73001L15.834 10.838ZM7.09103 10.081C7.34648 9.53427 7.78415 9.09341 8.32903 8.83401V7.40001C8.32824 7.11038 8.21263 6.83289 8.00755 6.62837C7.80247 6.42386 7.52466 6.30901 7.23503 6.30901H7.00903C6.71941 6.30901 6.4416 6.42386 6.23652 6.62837C6.03144 6.83289 5.91583 7.11038 5.91503 7.40001V10.6C5.91642 10.8776 6.02385 11.1441 6.21533 11.3451C6.40681 11.546 6.66785 11.6662 6.94503 11.681C6.81184 11.1465 6.86329 10.5826 7.09103 10.081Z" fill="#0F1A1C"/>
</svg>
