<svg width="20" height="20" viewBox="0 0 20 20" fill="none" xmlns="http://www.w3.org/2000/svg">
<path d="M10 5C9.80222 5 9.60888 4.94135 9.44443 4.83147C9.27998 4.72159 9.15181 4.56541 9.07612 4.38268C9.00043 4.19996 8.98063 3.99889 9.01921 3.80491C9.0578 3.61093 9.15304 3.43275 9.29289 3.29289C9.43275 3.15304 9.61093 3.0578 9.80491 3.01922C9.99889 2.98063 10.2 3.00043 10.3827 3.07612C10.5654 3.15181 10.7216 3.27998 10.8315 3.44443C10.9414 3.60888 11 3.80222 11 4C11 4.26522 10.8946 4.51957 10.7071 4.70711C10.5196 4.89464 10.2652 5 10 5ZM10.8315 9.44443C10.9414 9.60888 11 9.80222 11 10C11 10.2652 10.8946 10.5196 10.7071 10.7071C10.5196 10.8946 10.2652 11 10 11C9.80222 11 9.60888 10.9414 9.44443 10.8315C9.27998 10.7216 9.15181 10.5654 9.07612 10.3827C9.00043 10.2 8.98063 9.99889 9.01921 9.80491C9.0578 9.61093 9.15304 9.43275 9.29289 9.29289C9.43275 9.15304 9.61093 9.0578 9.80491 9.01922C9.99889 8.98063 10.2 9.00043 10.3827 9.07612C10.5654 9.15181 10.7216 9.27998 10.8315 9.44443ZM10.8315 15.4444C10.9414 15.6089 11 15.8022 11 16C11 16.2652 10.8946 16.5196 10.7071 16.7071C10.5196 16.8946 10.2652 17 10 17C9.80222 17 9.60888 16.9414 9.44443 16.8315C9.27998 16.7216 9.15181 16.5654 9.07612 16.3827C9.00043 16.2 8.98063 15.9989 9.01921 15.8049C9.0578 15.6109 9.15304 15.4327 9.29289 15.2929C9.43275 15.153 9.61093 15.0578 9.80491 15.0192C9.99889 14.9806 10.2 15.0004 10.3827 15.0761C10.5654 15.1518 10.7216 15.28 10.8315 15.4444Z" fill="#0F1A1C" stroke="#0F1A1C"/>
</svg>
