<svg width="20" height="20" viewBox="0 0 20 20" fill="none" xmlns="http://www.w3.org/2000/svg">
<path d="M9.89108 19.854C9.64033 19.854 9.39742 19.7667 9.20408 19.607L3.81508 14.945H2.10808C1.8104 14.9405 1.52663 14.8182 1.31895 14.6049C1.11127 14.3916 0.996603 14.1047 1.00008 13.807V6.193C0.996603 5.89531 1.11127 5.60838 1.31895 5.39507C1.52663 5.18177 1.8104 5.05948 2.10808 5.055H3.81508L9.18908 0.405C9.34859 0.270177 9.54351 0.184069 9.7506 0.156942C9.95769 0.129814 10.1682 0.162812 10.3571 0.252C10.5517 0.344804 10.7157 0.491405 10.8296 0.674466C10.9436 0.857526 11.0027 1.06939 11.0001 1.285V18.715C11.0027 18.9306 10.9436 19.1425 10.8296 19.3255C10.7157 19.5086 10.5517 19.6552 10.3571 19.748C10.2116 19.8175 10.0524 19.8537 9.89108 19.854ZM2.25008 13.7H4.28108L9.75008 18.427V1.572L4.28108 6.305H2.25008V13.7ZM16.1251 10C16.124 9.17152 15.7944 8.37728 15.2086 7.79146C14.6228 7.20564 13.8286 6.87606 13.0001 6.875V8.125C13.4974 8.125 13.9743 8.32254 14.3259 8.67417C14.6775 9.02581 14.8751 9.50272 14.8751 10C14.8751 10.4973 14.6775 10.9742 14.3259 11.3258C13.9743 11.6775 13.4974 11.875 13.0001 11.875V13.125C13.8286 13.1239 14.6228 12.7944 15.2086 12.2085C15.7944 11.6227 16.124 10.8285 16.1251 10ZM20.0001 10C19.998 8.14413 19.2598 6.36489 17.9475 5.05259C16.6352 3.7403 14.8559 3.00212 13.0001 3V4.25C14.5251 4.25 15.9876 4.8558 17.0659 5.93414C18.1443 7.01247 18.7501 8.47501 18.7501 10C18.7501 11.525 18.1443 12.9875 17.0659 14.0659C15.9876 15.1442 14.5251 15.75 13.0001 15.75V17C14.8559 16.9979 16.6352 16.2597 17.9475 14.9474C19.2598 13.6351 19.998 11.8559 20.0001 10Z" fill="#0F1A1C"/>
</svg>
