<svg width="20" height="20" viewBox="0 0 20 20" fill="none" xmlns="http://www.w3.org/2000/svg">
<path d="M16.5381 16.5431L16.5381 16.5431L16.5436 16.5376C18.2561 14.7984 19.2119 12.4527 19.2025 10.0119C19.193 7.57099 18.2192 5.23278 16.4933 3.50682C14.7673 1.78085 12.4291 0.807044 9.98822 0.797623C7.54736 0.788202 5.20171 1.74393 3.46247 3.45652L3.46243 3.45648L3.45701 3.46198C1.74442 5.20122 0.78869 7.54687 0.798111 9.98774C0.807532 12.4286 1.78134 14.7668 3.5073 16.4928C5.23327 18.2187 7.57148 19.1925 10.0123 19.202C12.4532 19.2114 14.7989 18.2557 16.5381 16.5431ZM12.5584 8.70404L12.7518 9.09381L13.1645 8.95609L15.7722 8.08603L15.8517 8.32293L13.1922 9.20945L12.8152 9.33512L12.8525 9.73076C12.8571 9.77973 12.8646 9.83438 12.8699 9.87361C12.8716 9.88581 12.873 9.89652 12.8742 9.9051C12.8801 9.9509 12.8823 9.97811 12.8823 9.99956C12.881 10.6706 12.6458 11.3202 12.217 11.8364C11.7881 12.3527 11.1924 12.7032 10.5328 12.8274L10.1253 12.9042V13.3188V16.1188H9.87528V13.3188V12.9041L9.46778 12.8274C8.808 12.7032 8.21223 12.3528 7.78315 11.8364C7.3542 11.3202 7.11872 10.6706 7.11728 9.9994C7.11731 9.97685 7.11956 9.94954 7.12525 9.90633C7.12633 9.89818 7.12786 9.88725 7.12965 9.8745C7.1349 9.83708 7.14236 9.784 7.1468 9.73955L7.18656 9.342L6.80758 9.21551L4.13124 8.32227L4.20897 8.08669L6.83321 8.96115L7.24654 9.09888L7.43955 8.70829C7.67534 8.23109 8.0398 7.82928 8.4918 7.54819C8.94381 7.2671 9.46537 7.11792 9.99765 7.11748C10.5299 7.11704 11.0517 7.26535 11.5042 7.54569C11.9567 7.82602 12.3218 8.22723 12.5584 8.70404ZM10.0003 12.6318L10.001 12.6318C10.6985 12.6308 11.3673 12.3533 11.8605 11.86C12.3538 11.3668 12.6313 10.6981 12.6323 10.0005V9.99979C12.6323 9.47923 12.4779 8.97036 12.1887 8.53753C11.8995 8.1047 11.4884 7.76735 11.0075 7.56814C10.5266 7.36893 9.99736 7.31681 9.4868 7.41837C8.97625 7.51992 8.50727 7.7706 8.13918 8.13869C7.77109 8.50678 7.52041 8.97576 7.41886 9.48632C7.3173 9.99687 7.36942 10.5261 7.56863 11.007C7.76784 11.488 8.10519 11.899 8.53802 12.1882C8.97085 12.4774 9.47972 12.6318 10.0003 12.6318ZM10.0104 0.530785C12.522 0.525285 14.9336 1.5146 16.7177 3.28231C18.4854 5.06642 19.4748 7.478 19.4693 9.98963C19.4638 12.502 18.4633 14.9098 16.6868 16.6863C14.9103 18.4628 12.5025 19.4633 9.99012 19.4688C7.47849 19.4743 5.06691 18.485 3.2828 16.7172C1.51509 14.9331 0.525773 12.5216 0.531273 10.01C0.536774 7.49762 1.53724 5.08975 3.31374 3.31325C5.09023 1.53675 7.49811 0.536286 10.0104 0.530785Z" fill="#0F1A1C" stroke="#0F1A1C"/>
</svg>
