<svg width="20" height="20" viewBox="0 0 20 20" fill="none" xmlns="http://www.w3.org/2000/svg">
<path d="M14.188 19.0301C14.188 19.1122 14.1718 19.1936 14.1403 19.2695C14.1089 19.3454 14.0627 19.4143 14.0046 19.4724C13.9464 19.5304 13.8774 19.5764 13.8015 19.6078C13.7255 19.6391 13.6442 19.6552 13.562 19.6551L14.188 19.0301ZM14.188 19.0301C14.1889 18.1067 13.8728 17.211 13.2926 16.4927M14.188 19.0301L13.2926 16.4927M13.2926 16.4927C12.7123 15.7744 11.903 15.2772 11 15.0841L13.2926 16.4927ZM7.5 8.50006V9.50006H5.812H5.80423L5.79647 9.5003C4.69457 9.53454 3.62395 9.13103 2.81874 8.37803C2.01566 7.62702 1.54178 6.58932 1.5 5.49082V2.11459C1.50428 1.94924 1.57333 1.79211 1.69238 1.6771C1.81242 1.56114 1.97351 1.49746 2.14039 1.5L2.14039 1.50006H2.148H5.812V1.50012L5.81956 1.5C6.67578 1.48705 7.51636 1.73004 8.23361 2.19783C8.84625 2.5974 9.34507 3.14542 9.68526 3.78831C9.05916 4.32519 8.54424 4.98143 8.1714 5.72014C7.73667 6.5815 7.5069 7.53167 7.50001 8.49649H7.5V8.50006ZM17.852 4.50006V4.50012L17.8596 4.5C18.0265 4.49746 18.1876 4.56114 18.3076 4.6771C18.4267 4.79211 18.4957 4.94924 18.5 5.1146V8.49082C18.4582 9.58931 17.9843 10.627 17.1813 11.378C16.3761 12.131 15.3054 12.5345 14.2035 12.5003L14.1958 12.5001H14.188H11H10.5V13.0001V15.0841V15.4884L10.8954 15.573C11.6864 15.7422 12.3953 16.1777 12.9036 16.8069C13.4119 17.4361 13.6888 18.2207 13.688 19.0295V19.0301C13.688 19.0465 13.6848 19.0628 13.6785 19.0779C13.6722 19.0931 13.6629 19.1069 13.6513 19.1185C13.6397 19.1301 13.6259 19.1393 13.6107 19.1456C13.5955 19.1519 13.5792 19.1551 13.5628 19.1551H13.562H6.812C6.7957 19.1551 6.77956 19.1518 6.7645 19.1456C6.74944 19.1394 6.73576 19.1302 6.72425 19.1187C6.71273 19.1071 6.7036 19.0934 6.69738 19.0784C6.69116 19.0633 6.68797 19.0472 6.688 19.0309L6.688 19.0294C6.68696 18.2207 6.96366 17.4361 7.47181 16.8069C7.97996 16.1778 8.68874 15.7422 9.47959 15.573L9.875 15.4884V15.0841V8.42259L9.92007 8.10412C10.0641 7.0861 10.5772 6.15649 11.3618 5.49199C12.1464 4.82749 13.1478 4.47443 14.1756 4.49991L14.1756 4.50006H14.188H17.852Z" fill="#0F1A1C" stroke="#0F1A1C"/>
</svg>
