<svg width="20" height="20" viewBox="0 0 20 20" fill="none" xmlns="http://www.w3.org/2000/svg">
<path d="M16.375 1H3.625C2.92913 1.00106 2.26207 1.27796 1.77001 1.77001C1.27796 2.26207 1.00106 2.92913 1 3.625V13.375C1.00106 14.0709 1.27796 14.7379 1.77001 15.23C2.26207 15.722 2.92913 15.9989 3.625 16H7V19.147C6.9999 19.2882 7.041 19.4263 7.11828 19.5444C7.19555 19.6625 7.30563 19.7555 7.435 19.812C7.52645 19.8519 7.62521 19.8724 7.725 19.872C7.90683 19.8722 8.08207 19.804 8.216 19.681L12.216 16H16.377C17.0725 15.9984 17.7391 15.7213 18.2307 15.2293C18.7223 14.7373 18.9989 14.0705 19 13.375V3.625C18.9989 2.92913 18.722 2.26207 18.23 1.77001C17.7379 1.27796 17.0709 1.00106 16.375 1Z" fill="#0F1A1C"/>
</svg>
