<svg width="20" height="20" viewBox="0 0 20 20" fill="none" xmlns="http://www.w3.org/2000/svg">
<path d="M11.3751 7.918L14.0796 5.21355L14.4331 4.86L14.0796 4.50645L12.2866 2.71345L12.2865 2.7134C12.269 2.69592 12.2571 2.67364 12.2523 2.64939C12.2475 2.62514 12.2499 2.6 12.2594 2.57716C12.2689 2.55432 12.2849 2.53479 12.3054 2.52106C12.326 2.50732 12.3502 2.5 12.3749 2.5H12.375H17.375C17.4082 2.5 17.4399 2.51317 17.4634 2.53661C17.4868 2.56005 17.5 2.59185 17.5 2.625V7.62487L11.3751 7.918ZM11.3751 7.918L12.082 8.62489L14.7864 5.92045L15.14 5.56689L15.4936 5.92045L17.2865 7.7134C17.2865 7.71342 17.2865 7.71343 17.2866 7.71345C17.2982 7.72503 17.3119 7.73422 17.3271 7.74049C17.342 7.74669 17.3581 7.74992 17.3743 7.75C17.3913 7.74987 17.4082 7.74664 17.4241 7.74046C17.4463 7.73083 17.4653 7.71498 17.4788 7.69481C17.4926 7.67414 17.5 7.64985 17.5 7.625L11.3751 7.918ZM5.21355 14.0796L7.918 11.3751L8.62489 12.082L5.92045 14.7864L5.56689 15.14L5.92045 15.4936L7.71345 17.2866L7.71349 17.2866C7.73098 17.3041 7.74289 17.3264 7.74771 17.3506C7.75254 17.3749 7.75006 17.4 7.7406 17.4228C7.73114 17.4457 7.71511 17.4652 7.69455 17.4789C7.67399 17.4927 7.64982 17.5 7.62509 17.5H7.625H2.625C2.59185 17.5 2.56005 17.4868 2.53661 17.4634C2.51317 17.4399 2.5 17.4082 2.5 17.375V12.375V12.3749C2.5 12.3502 2.50732 12.326 2.52106 12.3054C2.53479 12.2849 2.55432 12.2689 2.57716 12.2594C2.6 12.2499 2.62514 12.2475 2.64939 12.2523C2.67364 12.2571 2.69592 12.269 2.7134 12.2865L2.71345 12.2866L4.50645 14.0796L4.86 14.4331L5.21355 14.0796Z" fill="#0F1A1C" stroke="#0F1A1C"/>
</svg>
