<svg width="20" height="20" viewBox="0 0 20 20" fill="none" xmlns="http://www.w3.org/2000/svg">
<path d="M8.26002 14.4401H6.81202V14.3491L6.93302 14.1871C7.93146 12.8455 8.55449 11.2622 8.73802 9.60006L7.01202 10.4701C6.52271 10.7176 5.96748 10.8036 5.42623 10.7155C4.88497 10.6275 4.38561 10.37 4.00002 9.98006L3.33102 9.30706C3.14297 9.11417 3.02966 8.8607 3.01134 8.59194C2.99302 8.32319 3.07088 8.05668 3.23102 7.84006L7.43102 2.18506H5.81802V0.935059H8.42802C10.4427 0.944058 12.3714 1.75198 13.791 3.18152C15.2106 4.61105 16.0051 6.54541 16 8.56006V14.4401H14.75V8.56006C14.754 6.97101 14.1633 5.43798 13.094 4.26249C12.0247 3.08701 10.5543 2.35415 8.97202 2.20806L4.28902 8.50006L4.88302 9.10006C5.08309 9.3034 5.34267 9.43781 5.6242 9.48383C5.90573 9.52985 6.1946 9.4851 6.44902 9.35606L8.38302 8.38206C8.5598 8.29141 8.75783 8.25033 8.95609 8.26318C9.15434 8.27604 9.34542 8.34234 9.50902 8.45506C9.6761 8.57013 9.8096 8.72752 9.89588 8.91114C9.98215 9.09475 10.0181 9.29799 10 9.50006C9.84027 11.2659 9.24219 12.9639 8.26002 14.4401ZM18 17.6251C18.0019 17.1966 17.8337 16.7849 17.5325 16.4803C17.2312 16.1757 16.8214 16.003 16.393 16.0001H4.60702C4.17859 16.003 3.76881 16.1757 3.46755 16.4803C3.16629 16.7849 2.99815 17.1966 3.00002 17.6251V19.9501H4.25002V17.6251C4.24786 17.5281 4.28421 17.4341 4.35112 17.3639C4.41802 17.2936 4.51002 17.2527 4.60702 17.2501H16.393C16.49 17.2527 16.582 17.2936 16.6489 17.3639C16.7158 17.4341 16.7522 17.5281 16.75 17.6251V19.9501H18V17.6251Z" fill="#0F1A1C"/>
</svg>
