<svg width="20" height="20" viewBox="0 0 20 20" fill="none" xmlns="http://www.w3.org/2000/svg">
<g clip-path="url(#clip0_472_1131)">
<path d="M2.2629 9.46499L0.326897 9.96499C-0.115776 8.28248 -0.108402 6.51316 0.348278 4.83439C0.804959 3.15563 1.6949 1.6264 2.9289 0.399994L4.3429 1.81599C3.35495 2.79596 2.64256 4.01886 2.27741 5.36163C1.91227 6.70441 1.90727 8.11967 2.2629 9.46499ZM17.0709 0.399994L15.6569 1.81599C16.6448 2.79596 17.3572 4.01886 17.7224 5.36163C18.0875 6.70441 18.0925 8.11967 17.7369 9.46499L19.6729 9.96499C20.1156 8.28248 20.1082 6.51316 19.6515 4.83439C19.1948 3.15563 18.3049 1.6264 17.0709 0.399994ZM8.9999 18H7.9999C7.9999 18.5304 8.21061 19.0391 8.58568 19.4142C8.96076 19.7893 9.46946 20 9.9999 20C10.5303 20 11.039 19.7893 11.4141 19.4142C11.7892 19.0391 11.9999 18.5304 11.9999 18H8.9999ZM17.2629 10.93C16.8978 10.6835 16.5986 10.3514 16.3914 9.96269C16.1841 9.57399 16.0751 9.14049 16.0739 8.69999L16.0689 7.08999C16.0689 5.4804 15.4295 3.93672 14.2913 2.79856C13.1532 1.6604 11.6095 1.02099 9.9999 1.02099C8.3903 1.02099 6.84662 1.6604 5.70847 2.79856C4.57031 3.93672 3.9309 5.4804 3.9309 7.08999V8.70299C3.92872 9.14334 3.81888 9.57647 3.61094 9.96464C3.403 10.3528 3.10328 10.6842 2.7379 10.93C2.20185 11.2922 1.76301 11.7806 1.45995 12.3522C1.1569 12.9238 0.998917 13.561 0.999897 14.208V14.88C0.999632 15.1766 1.11713 15.4612 1.32658 15.6712C1.53603 15.8812 1.82029 15.9995 2.1169 16H17.8829C18.1795 15.9995 18.4638 15.8812 18.6732 15.6712C18.8827 15.4612 19.0002 15.1766 18.9999 14.88V14.208C19.0008 13.5612 18.8429 12.924 18.54 12.3525C18.2372 11.7809 17.7986 11.2925 17.2629 10.93Z" fill="#0F1A1C"/>
</g>
<defs>
<clipPath id="clip0_472_1131">
<rect width="20" height="20" fill="white"/>
</clipPath>
</defs>
</svg>
