<svg width="20" height="20" viewBox="0 0 20 20" fill="none" xmlns="http://www.w3.org/2000/svg">
<path d="M16.5004 4C16.5003 4.08773 16.4811 4.17439 16.4439 4.25386C16.4068 4.33334 16.3527 4.4037 16.2854 4.46L13.5414 6.748C13.4537 6.82134 13.3469 6.86811 13.2336 6.88282C13.1202 6.89753 13.0051 6.87956 12.9016 6.83103C12.7981 6.78249 12.7106 6.70541 12.6495 6.60886C12.5883 6.5123 12.556 6.40029 12.5564 6.286V1.713C12.5563 1.59907 12.5887 1.48749 12.6498 1.3913C12.7109 1.29511 12.798 1.2183 12.9012 1.16984C13.0043 1.12138 13.119 1.10328 13.2321 1.11765C13.3451 1.13202 13.4517 1.17827 13.5394 1.251L16.4644 3.688L16.5004 4ZM10.9774 4L10.9414 3.688L8.01637 1.251C7.92867 1.17827 7.82208 1.13202 7.70906 1.11765C7.59604 1.10328 7.48126 1.12138 7.37815 1.16984C7.27505 1.2183 7.18786 1.29511 7.12681 1.3913C7.06575 1.48749 7.03334 1.59907 7.03337 1.713V3.513C5.56724 3.79893 4.21699 4.5081 3.14944 5.5529C2.08189 6.59771 1.3438 7.93237 1.02637 9.392H2.31637C2.61276 8.27218 3.20839 7.25417 4.03938 6.44714C4.87036 5.64011 5.90536 5.07451 7.03337 4.811V6.286C7.03302 6.40029 7.06533 6.5123 7.12648 6.60886C7.18764 6.70541 7.2751 6.78249 7.37858 6.83103C7.48205 6.87956 7.59724 6.89753 7.71058 6.88282C7.82392 6.86811 7.93071 6.82134 8.01837 6.748L10.7624 4.46C10.8297 4.4037 10.8838 4.33334 10.9209 4.25386C10.9581 4.17439 10.9773 4.08773 10.9774 4ZM4.36337 11.529V12.877L6.04537 12.077V18.909H7.48637V10.27H7.01837L4.36337 11.529ZM15.2634 12.024C15.5436 12.6879 15.6799 13.4036 15.6634 14.124V15.091C15.6803 15.8069 15.5439 16.5181 15.2634 17.177C15.0285 17.7273 14.6387 18.1974 14.1414 18.53C13.6405 18.8377 13.0639 19 12.476 18.999C11.8882 18.9979 11.3122 18.8335 10.8124 18.524C10.3125 18.1894 9.92012 17.7175 9.68237 17.165C9.40113 16.5106 9.26468 15.8031 9.28237 15.091V14.124C9.2655 13.3963 9.40817 12.6737 9.70037 12.007C9.94349 11.4524 10.3401 10.9788 10.8434 10.642C11.3392 10.3322 11.9124 10.1687 12.497 10.1701C13.0817 10.1715 13.654 10.3379 14.1484 10.65C14.6437 10.9925 15.0312 11.4691 15.2654 12.024H15.2634ZM14.2364 13.9C14.2828 13.2542 14.1205 12.6106 13.7734 12.064C13.6259 11.8647 13.4319 11.7046 13.2082 11.5977C12.9845 11.4909 12.738 11.4405 12.4904 11.451C12.2339 11.4391 11.9785 11.4922 11.748 11.6055C11.5176 11.7188 11.3196 11.8886 11.1724 12.099C10.8345 12.6362 10.6726 13.2654 10.7094 13.899V15.299C10.6996 15.7392 10.7722 16.1774 10.9234 16.591C11.0434 16.9262 11.2581 17.2193 11.5414 17.435C11.8186 17.6361 12.1539 17.7414 12.4964 17.735C12.8231 17.7425 13.1439 17.647 13.4134 17.462C13.6919 17.2555 13.9031 16.9713 14.0204 16.645C14.1755 16.2151 14.2488 15.7599 14.2364 15.303V13.9Z" fill="#0F1A1C"/>
</svg>
