<svg width="20" height="20" viewBox="0 0 20 20" fill="none" xmlns="http://www.w3.org/2000/svg">
<path d="M16.8384 12.8648L16.8385 12.8648C16.856 12.8823 16.8679 12.9046 16.8727 12.9288C16.8775 12.9531 16.8751 12.9782 16.8656 13.0011C16.8561 13.0239 16.8401 13.0434 16.8196 13.0572C16.799 13.0709 16.7748 13.0782 16.7501 13.0782H16.75H12.677H11.9342L12.2138 13.7664L13.7678 17.5914L13.768 17.5919C13.7804 17.6225 13.7803 17.6567 13.7676 17.6872C13.7549 17.7176 13.7306 17.7418 13.7002 17.7545L10.302 19.1628C10.3019 19.1628 10.3017 19.1629 10.3016 19.1629C10.2708 19.1754 10.2363 19.1754 10.2056 19.1628C10.1749 19.1502 10.1503 19.1261 10.1371 19.0956C10.1371 19.0954 10.137 19.0953 10.1369 19.0951L8.53165 15.2918L8.24276 14.6074L7.71745 15.1327L4.83845 18.0117L4.8384 18.0117C4.82092 18.0292 4.79864 18.0411 4.77439 18.046C4.75014 18.0508 4.72501 18.0483 4.70216 18.0388C4.67932 18.0294 4.65979 18.0134 4.64606 17.9928C4.63232 17.9722 4.625 17.9481 4.625 17.9233V17.9232V0.953242V0.953149C4.625 0.928422 4.63232 0.90425 4.64606 0.88369C4.65979 0.86313 4.67932 0.847105 4.70216 0.837642C4.725 0.828179 4.75014 0.825703 4.77439 0.830528C4.79864 0.835353 4.82092 0.847262 4.8384 0.864749L4.83845 0.864795L16.8384 12.8648Z" fill="#0F1A1C" stroke="#0F1A1C"/>
</svg>
