<svg width="20" height="20" viewBox="0 0 20 20" fill="none" xmlns="http://www.w3.org/2000/svg">
<path d="M19 11V16C19 16.7956 18.6839 17.5587 18.1213 18.1213C17.5587 18.6839 16.7956 19 16 19H4C3.20435 19 2.44129 18.6839 1.87868 18.1213C1.31607 17.5587 1 16.7956 1 16V11H3V16C3 16.2652 3.10536 16.5196 3.29289 16.7071C3.48043 16.8946 3.73478 17 4 17H16C16.2652 17 16.5196 16.8946 16.7071 16.7071C16.8946 16.5196 17 16.2652 17 16V11H19ZM9 4.414V14H11V4.414L13.293 6.707L14.707 5.293L10.707 1.293C10.5195 1.10553 10.2652 1.00021 10 1.00021C9.73484 1.00021 9.48053 1.10553 9.293 1.293L5.293 5.293L6.707 6.707L9 4.414Z" fill="#0F1A1C"/>
</svg>
