<svg width="20" height="20" viewBox="0 0 20 20" fill="none" xmlns="http://www.w3.org/2000/svg">
<path d="M10 5.12497C9.10998 5.12497 8.23995 5.38889 7.49993 5.88336C6.75991 6.37783 6.18314 7.08063 5.84254 7.9029C5.50195 8.72517 5.41283 9.62997 5.58647 10.5029C5.7601 11.3758 6.18868 12.1776 6.81802 12.807C7.44736 13.4363 8.24918 13.8649 9.12209 14.0385C9.99501 14.2121 10.8998 14.123 11.7221 13.7824C12.5443 13.4418 13.2471 12.8651 13.7416 12.125C14.2361 11.385 14.5 10.515 14.5 9.62497C14.4987 8.43191 14.0241 7.28808 13.1805 6.44445C12.3369 5.60083 11.1931 5.1263 10 5.12497ZM13.25 9.62497C13.2505 10.2708 13.0575 10.9019 12.696 11.437L8.188 6.92897C8.67711 6.59966 9.24663 6.40971 9.83549 6.37948C10.4244 6.34925 11.0103 6.47989 11.5306 6.75739C12.0508 7.03488 12.4858 7.44877 12.7887 7.95465C13.0916 8.46054 13.251 9.03934 13.25 9.62897V9.62497ZM6.75 9.62497C6.74831 8.97961 6.93987 8.34851 7.3 7.81297L11.808 12.321C11.3189 12.6503 10.7494 12.8402 10.1605 12.8705C9.57165 12.9007 8.98566 12.7701 8.46541 12.4926C7.94515 12.2151 7.51025 11.8012 7.20734 11.2953C6.90444 10.7894 6.74495 10.2106 6.746 9.62097L6.75 9.62497ZM18.154 2.09997L10.271 0.108973C10.0935 0.063936 9.90752 0.063936 9.73 0.108973L1.846 2.09997C1.60422 2.16133 1.38978 2.30152 1.23657 2.49837C1.08336 2.69523 1.00012 2.93752 1 3.18697V12C1 17.277 8.249 19.554 9.7 19.957C9.79766 19.9845 9.89854 19.9989 10 20C10.1013 19.9998 10.2022 19.9863 10.3 19.96C11.753 19.56 19 17.28 19 12.003V3.18697C18.9999 2.93752 18.9166 2.69523 18.7634 2.49837C18.6102 2.30152 18.3958 2.16133 18.154 2.09997ZM17.754 12C17.754 16.465 10.765 18.531 10.04 18.751C9.24 18.531 2.254 16.465 2.254 12V3.28297L10 1.32997L17.75 3.28297L17.754 12Z" fill="#0F1A1C"/>
</svg>
