<svg width="20" height="20" viewBox="0 0 20 20" fill="none" xmlns="http://www.w3.org/2000/svg">
<path d="M18.209 4.158L12.318 0.640996C11.6174 0.221581 10.8161 7.62939e-05 9.9995 7.62939e-05C9.18292 7.62939e-05 8.38164 0.221581 7.681 0.640996L1.8 4.154C1.55714 4.29894 1.35587 4.50419 1.2157 4.74983C1.07553 4.99547 1.00123 5.27318 1 5.556V17.356C1.00053 17.7868 1.1719 18.1998 1.47654 18.5045C1.78117 18.8091 2.19419 18.9805 2.625 18.981H17.375C17.8053 18.9805 18.2179 18.8095 18.5224 18.5055C18.827 18.2015 18.9987 17.7893 19 17.359V5.55C18.9993 5.26947 18.9262 4.99387 18.7876 4.74997C18.649 4.50606 18.4497 4.30214 18.209 4.158ZM9.277 13.72C9.07074 13.9261 8.79108 14.0419 8.4995 14.0419C8.20792 14.0419 7.92826 13.9261 7.722 13.72L5.793 11.791L7.207 10.377L8.5 11.669L12.793 7.377L14.207 8.791L9.277 13.72Z" fill="#0F1A1C"/>
</svg>
