<svg width="20" height="20" viewBox="0 0 20 20" fill="none" xmlns="http://www.w3.org/2000/svg">
<path d="M13.083 0C11.2659 0.00211727 9.52374 0.724913 8.23883 2.00983C6.95391 3.29474 6.23112 5.03686 6.229 6.854C6.22817 7.67886 6.37796 8.49694 6.671 9.268L0 15.939V19.939H5V17H8V14H13.083C14.9311 13.936 16.6812 13.1535 17.9612 11.8189C19.2412 10.4844 19.9501 8.70312 19.937 6.854C19.9349 5.03686 19.2121 3.29474 17.9272 2.00983C16.6423 0.724913 14.9001 0.00211727 13.083 0V0ZM14.122 7.654C13.7585 7.654 13.4031 7.5462 13.1009 7.34424C12.7986 7.14228 12.563 6.85522 12.4239 6.51937C12.2848 6.18352 12.2484 5.81396 12.3193 5.45742C12.3902 5.10089 12.5653 4.77339 12.8223 4.51634C13.0794 4.25929 13.4069 4.08424 13.7634 4.01332C14.12 3.9424 14.4895 3.9788 14.8254 4.11791C15.1612 4.25702 15.4483 4.4926 15.6502 4.79486C15.8522 5.09712 15.96 5.45248 15.96 5.816C15.9592 6.30322 15.7653 6.77027 15.4208 7.11479C15.0763 7.45931 14.6092 7.65321 14.122 7.654Z" fill="#0F1A1C"/>
</svg>
