<svg width="20" height="20" viewBox="0 0 20 20" fill="none" xmlns="http://www.w3.org/2000/svg">
<path d="M19.6005 6.876L13.1245 0.399999C13.0189 0.293778 12.8933 0.209561 12.7549 0.152229C12.6166 0.094896 12.4682 0.0655866 12.3185 0.0659985C12.1697 0.0663778 12.0225 0.0960711 11.8852 0.153381C11.748 0.210691 11.6233 0.294494 11.5185 0.399999L10.8535 1.065C10.5396 1.37785 10.3337 1.7826 10.2655 2.22048C10.1973 2.65835 10.2705 3.10656 10.4745 3.5L6.68048 7.292C6.28781 7.08846 5.84061 7.01501 5.40346 7.08223C4.96631 7.14946 4.56185 7.35389 4.24848 7.666L3.58348 8.331C3.36975 8.54478 3.24968 8.8347 3.24968 9.137C3.24968 9.43929 3.36975 9.72921 3.58348 9.943L6.38348 12.743L0.563477 18.563L1.44748 19.447L7.26748 13.627L10.0675 16.427C10.1723 16.5325 10.297 16.6163 10.4342 16.6736C10.5715 16.7309 10.7187 16.7606 10.8675 16.761C11.0173 16.7615 11.1656 16.7323 11.304 16.6749C11.4424 16.6176 11.568 16.5333 11.6735 16.427L12.3385 15.762C12.651 15.4489 12.8558 15.0445 12.9232 14.6073C12.9907 14.17 12.9172 13.7227 12.7135 13.33L16.5005 9.528C16.8949 9.72516 17.3408 9.79497 17.7767 9.7278C18.2125 9.66062 18.6167 9.45978 18.9335 9.153L19.5995 8.487C19.8125 8.27313 19.9323 7.9836 19.9324 7.6817C19.9326 7.37981 19.8133 7.09013 19.6005 6.876ZM18.0505 8.269C17.8925 8.42022 17.6822 8.50462 17.4635 8.50462C17.2448 8.50462 17.0345 8.42022 16.8765 8.269L16.4345 7.827L11.0085 13.253L11.4505 13.695C11.5276 13.7721 11.5887 13.8636 11.6305 13.9643C11.6722 14.065 11.6937 14.173 11.6937 14.282C11.6937 14.391 11.6722 14.499 11.6305 14.5997C11.5887 14.7004 11.5276 14.7919 11.4505 14.869L10.8635 15.456L4.54448 9.137L5.13148 8.55C5.28757 8.39471 5.4988 8.30753 5.71898 8.30753C5.93916 8.30753 6.15038 8.39471 6.30648 8.55L6.74848 8.992L12.1735 3.566L11.7315 3.125C11.5759 2.96903 11.4886 2.75776 11.4886 2.5375C11.4886 2.31724 11.5759 2.10596 11.7315 1.95L12.2965 1.341L18.6375 7.682L18.0505 8.269Z" fill="#0F1A1C"/>
</svg>
