<svg width="20" height="20" viewBox="0 0 20 20" fill="none" xmlns="http://www.w3.org/2000/svg">
<g clip-path="url(#clip0_473_118)">
<path d="M18.375 2H1.625C1.19419 2.00053 0.781168 2.1719 0.476536 2.47654C0.171904 2.78117 0.000529257 3.19419 0 3.625L0 15.375C0.00105795 16.0709 0.277959 16.7379 0.770013 17.23C1.26207 17.722 1.92913 17.9989 2.625 18H17.375C18.0709 17.9989 18.7379 17.722 19.23 17.23C19.722 16.7379 19.9989 16.0709 20 15.375V3.625C19.9995 3.19419 19.8281 2.78117 19.5235 2.47654C19.2188 2.1719 18.8058 2.00053 18.375 2ZM11.833 4.7C12.0901 4.7 12.3415 4.77624 12.5552 4.91909C12.769 5.06194 12.9356 5.26497 13.034 5.50251C13.1324 5.74006 13.1582 6.00144 13.108 6.25362C13.0579 6.50579 12.934 6.73743 12.7522 6.91924C12.5704 7.10105 12.3388 7.22486 12.0866 7.27502C11.8344 7.32518 11.5731 7.29944 11.3355 7.20104C11.098 7.10265 10.8949 6.93603 10.7521 6.72224C10.6092 6.50846 10.533 6.25712 10.533 6C10.533 5.65522 10.67 5.32456 10.9138 5.08076C11.1576 4.83696 11.4882 4.7 11.833 4.7ZM11.833 8.7C12.0901 8.7 12.3415 8.77624 12.5552 8.91909C12.769 9.06193 12.9356 9.26497 13.034 9.50251C13.1324 9.74006 13.1582 10.0014 13.108 10.2536C13.0579 10.5058 12.934 10.7374 12.7522 10.9192C12.5704 11.101 12.3388 11.2249 12.0866 11.275C11.8344 11.3252 11.5731 11.2994 11.3355 11.201C11.098 11.1026 10.8949 10.936 10.7521 10.7222C10.6092 10.5085 10.533 10.2571 10.533 10C10.533 9.65522 10.67 9.32456 10.9138 9.08076C11.1576 8.83696 11.4882 8.7 11.833 8.7ZM8.167 4.7C8.42412 4.7 8.67546 4.77624 8.88924 4.91909C9.10303 5.06194 9.26965 5.26497 9.36804 5.50251C9.46644 5.74006 9.49218 6.00144 9.44202 6.25362C9.39186 6.50579 9.26805 6.73743 9.08624 6.91924C8.90443 7.10105 8.67279 7.22486 8.42062 7.27502C8.16844 7.32518 7.90706 7.29944 7.66951 7.20104C7.43197 7.10265 7.22894 6.93603 7.08609 6.72224C6.94324 6.50846 6.867 6.25712 6.867 6C6.867 5.65522 7.00396 5.32456 7.24776 5.08076C7.49156 4.83696 7.82222 4.7 8.167 4.7ZM8.167 8.7C8.42412 8.7 8.67546 8.77624 8.88924 8.91909C9.10303 9.06193 9.26965 9.26497 9.36804 9.50251C9.46644 9.74006 9.49218 10.0014 9.44202 10.2536C9.39186 10.5058 9.26805 10.7374 9.08624 10.9192C8.90443 11.101 8.67279 11.2249 8.42062 11.275C8.16844 11.3252 7.90706 11.2994 7.66951 11.201C7.43197 11.1026 7.22894 10.936 7.08609 10.7222C6.94324 10.5085 6.867 10.2571 6.867 10C6.867 9.65522 7.00396 9.32456 7.24776 9.08076C7.49156 8.83696 7.82222 8.7 8.167 8.7ZM4.5 11.3C4.24288 11.3 3.99154 11.2238 3.77776 11.0809C3.56397 10.9381 3.39735 10.735 3.29896 10.4975C3.20056 10.2599 3.17482 9.99856 3.22498 9.74638C3.27514 9.49421 3.39895 9.26257 3.58076 9.08076C3.76257 8.89895 3.99421 8.77514 4.24638 8.72498C4.49856 8.67482 4.75994 8.70056 4.99749 8.79896C5.23503 8.89735 5.43807 9.06397 5.58091 9.27776C5.72376 9.49154 5.8 9.74288 5.8 10C5.8 10.3448 5.66304 10.6754 5.41924 10.9192C5.17544 11.163 4.84478 11.3 4.5 11.3ZM4.5 7.3C4.24288 7.3 3.99154 7.22376 3.77776 7.08091C3.56397 6.93807 3.39735 6.73503 3.29896 6.49749C3.20056 6.25994 3.17482 5.99856 3.22498 5.74638C3.27514 5.49421 3.39895 5.26257 3.58076 5.08076C3.76257 4.89895 3.99421 4.77514 4.24638 4.72498C4.49856 4.67482 4.75994 4.70056 4.99749 4.79896C5.23503 4.89735 5.43807 5.06397 5.58091 5.27776C5.72376 5.49154 5.8 5.74288 5.8 6C5.8 6.34478 5.66304 6.67544 5.41924 6.91924C5.17544 7.16304 4.84478 7.3 4.5 7.3ZM13 15H7C6.73478 15 6.48043 14.8946 6.29289 14.7071C6.10536 14.5196 6 14.2652 6 14C6 13.7348 6.10536 13.4804 6.29289 13.2929C6.48043 13.1054 6.73478 13 7 13H13C13.2652 13 13.5196 13.1054 13.7071 13.2929C13.8946 13.4804 14 13.7348 14 14C14 14.2652 13.8946 14.5196 13.7071 14.7071C13.5196 14.8946 13.2652 15 13 15ZM15.5 11.3C15.2429 11.3 14.9915 11.2238 14.7778 11.0809C14.564 10.9381 14.3974 10.735 14.299 10.4975C14.2006 10.2599 14.1748 9.99856 14.225 9.74638C14.2751 9.49421 14.399 9.26257 14.5808 9.08076C14.7626 8.89895 14.9942 8.77514 15.2464 8.72498C15.4986 8.67482 15.7599 8.70056 15.9975 8.79896C16.235 8.89735 16.4381 9.06397 16.5809 9.27776C16.7238 9.49154 16.8 9.74288 16.8 10C16.8 10.1707 16.7664 10.3398 16.701 10.4975C16.6357 10.6552 16.54 10.7985 16.4192 10.9192C16.2985 11.04 16.1552 11.1357 15.9975 11.201C15.8398 11.2664 15.6707 11.3 15.5 11.3ZM15.5 7.3C15.2429 7.3 14.9915 7.22376 14.7778 7.08091C14.564 6.93807 14.3974 6.73503 14.299 6.49749C14.2006 6.25994 14.1748 5.99856 14.225 5.74638C14.2751 5.49421 14.399 5.26257 14.5808 5.08076C14.7626 4.89895 14.9942 4.77514 15.2464 4.72498C15.4986 4.67482 15.7599 4.70056 15.9975 4.79896C16.235 4.89735 16.4381 5.06397 16.5809 5.27776C16.7238 5.49154 16.8 5.74288 16.8 6C16.8 6.17072 16.7664 6.33977 16.701 6.49749C16.6357 6.65521 16.54 6.79852 16.4192 6.91924C16.2985 7.03996 16.1552 7.13571 15.9975 7.20104C15.8398 7.26637 15.6707 7.3 15.5 7.3Z" fill="#0F1A1C"/>
</g>
<defs>
<clipPath id="clip0_473_118">
<rect width="20" height="20" fill="white"/>
</clipPath>
</defs>
</svg>
