<svg width="20" height="20" viewBox="0 0 20 20" fill="none" xmlns="http://www.w3.org/2000/svg">
<path d="M9.99997 14C9.20884 14 8.43548 13.7654 7.77769 13.3259C7.11989 12.8864 6.6072 12.2616 6.30445 11.5307C6.0017 10.7998 5.92249 9.99556 6.07683 9.21964C6.23117 8.44371 6.61213 7.73098 7.17154 7.17157C7.73095 6.61216 8.44368 6.2312 9.21961 6.07686C9.99553 5.92252 10.7998 6.00173 11.5307 6.30448C12.2616 6.60723 12.8863 7.11992 13.3258 7.77772C13.7654 8.43551 14 9.20887 14 10C14 11.0609 13.5785 12.0783 12.8284 12.8284C12.0782 13.5786 11.0608 14 9.99997 14ZM9.99997 7.25C9.45607 7.25 8.92439 7.41128 8.47215 7.71346C8.01992 8.01563 7.66744 8.44512 7.4593 8.94762C7.25116 9.45011 7.1967 10.003 7.30281 10.5365C7.40892 11.0699 7.67083 11.5599 8.05542 11.9445C8.44002 12.3291 8.93002 12.591 9.46347 12.6972C9.99692 12.8033 10.5499 12.7488 11.0523 12.5407C11.5548 12.3325 11.9843 11.9801 12.2865 11.5278C12.5887 11.0756 12.75 10.5439 12.75 10C12.7494 9.27081 12.4595 8.57165 11.9439 8.05604C11.4283 7.54043 10.7292 7.25053 9.99997 7.25ZM9.99997 17C7.21491 17.011 4.53457 15.9393 2.52497 14.011C1.46831 13.0017 0.636522 11.7808 0.083969 10.428C-0.0270131 10.1535 -0.0270131 9.84654 0.083969 9.572C0.893013 7.61263 2.26946 5.93993 4.03644 4.76883C5.80342 3.59773 7.88021 2.98174 9.99997 3C12.1194 2.98184 14.1959 3.59765 15.9629 4.76834C17.7298 5.93903 19.1064 7.61116 19.916 9.57C20.0264 9.84533 20.0264 10.1527 19.916 10.428C19.2865 11.9586 18.3054 13.3193 17.052 14.4C15.0884 16.083 12.5861 17.0056 9.99997 17ZM9.99997 4.25C8.12792 4.233 6.29354 4.77617 4.73256 5.8097C3.17157 6.84323 1.95528 8.31991 1.23997 10.05C1.75277 11.1993 2.4832 12.2384 3.39097 13.11C5.1114 14.7438 7.37592 15.6827 9.7477 15.7455C12.1195 15.8083 14.4305 14.9905 16.235 13.45C17.3391 12.4996 18.2041 11.3026 18.76 9.956C18.0238 8.24809 16.7998 6.79553 15.2414 5.78046C13.6831 4.76539 11.8597 4.23298 9.99997 4.25Z" fill="#0F1A1C"/>
</svg>
