<svg width="20" height="20" viewBox="0 0 20 20" fill="none" xmlns="http://www.w3.org/2000/svg">
<path d="M9.98903 18C9.31095 17.9517 8.66726 17.6831 8.15603 17.235C7.78144 16.8241 7.58508 16.2814 7.61003 15.726C7.61692 15.3977 7.65341 15.0707 7.71903 14.749L9.37803 6.568H11.287L9.55203 15.131C9.53527 15.2115 9.52822 15.2938 9.53103 15.376C9.52228 15.4974 9.54535 15.619 9.59796 15.7288C9.65057 15.8386 9.73091 15.9328 9.83103 16.002C10.0915 16.1584 10.381 16.2604 10.682 16.302L9.98903 18ZM10.256 4.576C10.0449 4.45624 9.86817 4.28402 9.74303 4.076C9.61804 3.86535 9.55209 3.62494 9.55209 3.38C9.55209 3.13507 9.61804 2.89465 9.74303 2.684C9.86845 2.4762 10.0451 2.30405 10.256 2.184C10.5813 1.99801 10.9662 1.94619 11.329 2.03955C11.6919 2.13292 12.004 2.36412 12.199 2.684C12.3234 2.89287 12.389 3.13143 12.389 3.3745C12.389 3.61757 12.3234 3.85613 12.199 4.065C12.0026 4.38332 11.6905 4.6132 11.3283 4.70642C10.966 4.79964 10.5817 4.74896 10.256 4.565V4.576Z" fill="#0F1A1C"/>
</svg>
