<svg width="20" height="20" viewBox="0 0 20 20" fill="none" xmlns="http://www.w3.org/2000/svg">
<path d="M17.882 14H15.956L11.9 1.386C11.7685 0.985862 11.514 0.63746 11.1728 0.390467C10.8316 0.143474 10.4212 0.010498 10 0.010498C9.5788 0.010498 9.16836 0.143474 8.82718 0.390467C8.48601 0.63746 8.23152 0.985862 8.1 1.386L4.044 14H2.118C1.97346 13.9976 1.82986 14.0237 1.69543 14.0769C1.56099 14.1301 1.43835 14.2092 1.33452 14.3098C1.23069 14.4103 1.1477 14.5304 1.0903 14.6631C1.0329 14.7958 1.00221 14.9385 1 15.083V17.917C1.00221 18.0615 1.0329 18.2042 1.0903 18.3369C1.1477 18.4696 1.23069 18.5897 1.33452 18.6902C1.43835 18.7908 1.56099 18.8699 1.69543 18.9231C1.82986 18.9762 1.97346 19.0024 2.118 19H17.882C18.0265 19.0024 18.1701 18.9762 18.3046 18.9231C18.439 18.8699 18.5616 18.7908 18.6655 18.6902C18.7693 18.5897 18.8523 18.4696 18.9097 18.3369C18.9671 18.2042 18.9978 18.0615 19 17.917V15.083C18.9978 14.9385 18.9671 14.7958 18.9097 14.6631C18.8523 14.5304 18.7693 14.4103 18.6655 14.3098C18.5616 14.2092 18.439 14.1301 18.3046 14.0769C18.1701 14.0237 18.0265 13.9976 17.882 14ZM12.714 8H7.286L7.848 6.25H12.148L12.714 8ZM13.114 9.25L13.678 11H6.322L6.884 9.25H13.114ZM9.289 1.769C9.33748 1.61855 9.43243 1.48736 9.56019 1.3943C9.68795 1.30124 9.84194 1.2511 10 1.2511C10.1581 1.2511 10.312 1.30124 10.4398 1.3943C10.5676 1.48736 10.6625 1.61855 10.711 1.769L11.75 5H8.25L9.289 1.769ZM5.92 12.25H14.08L14.642 14H5.358L5.92 12.25ZM17.75 17.75H2.25V15.25H17.75V17.75Z" fill="#0F1A1C"/>
</svg>
