<svg width="20" height="20" viewBox="0 0 20 20" fill="none" xmlns="http://www.w3.org/2000/svg">
<path d="M17.377 1H2.623C2.19272 1.00053 1.78021 1.17169 1.47595 1.47595C1.17169 1.78021 1.00053 2.19272 1 2.623V17.377C1.00053 17.8073 1.17169 18.2198 1.47595 18.524C1.78021 18.8283 2.19272 18.9995 2.623 19H17.377C17.8073 18.9995 18.2198 18.8283 18.524 18.524C18.8283 18.2198 18.9995 17.8073 19 17.377V2.623C18.9995 2.19272 18.8283 1.78021 18.524 1.47595C18.2198 1.17169 17.8073 1.00053 17.377 1ZM17.75 2.623V6.75H10.625V2.25H17.377C17.4759 2.25 17.5708 2.2893 17.6408 2.35925C17.7107 2.4292 17.75 2.52407 17.75 2.623ZM10.625 8H17.75V12H10.625V8ZM9.375 12H2.25V8H9.375V12ZM2.623 2.25H9.375V6.75H2.25V2.623C2.25 2.52407 2.2893 2.4292 2.35925 2.35925C2.4292 2.2893 2.52407 2.25 2.623 2.25ZM2.25 17.377V13.25H9.375V17.75H2.623C2.52407 17.75 2.4292 17.7107 2.35925 17.6408C2.2893 17.5708 2.25 17.4759 2.25 17.377ZM17.377 17.75H10.625V13.25H17.75V17.377C17.75 17.4759 17.7107 17.5708 17.6408 17.6408C17.5708 17.7107 17.4759 17.75 17.377 17.75Z" fill="#0F1A1C"/>
</svg>
