<svg width="20" height="20" viewBox="0 0 20 20" fill="none" xmlns="http://www.w3.org/2000/svg">
<g clip-path="url(#clip0_1581_863)">
<path d="M19 7.62476V17.4048C18.9972 17.7531 18.9249 18.0973 18.7874 18.4173C18.6498 18.7373 18.4498 19.0266 18.199 19.2683C17.9482 19.51 17.6516 19.6992 17.3267 19.8248C17.0019 19.9504 16.6552 20.0099 16.307 19.9998H3.745C3.03722 20.0115 2.35362 19.7423 1.84398 19.251C1.33433 18.7598 1.04019 18.0865 1.026 17.3788L1 7.62576C1.00026 7.45999 1.06616 7.30107 1.18329 7.18376C1.30041 7.06645 1.45923 7.00029 1.625 6.99976H3.812V8.24976H2.251L2.276 17.3768C2.2893 17.7534 2.4514 18.1095 2.72676 18.3668C3.00212 18.6242 3.36829 18.7619 3.745 18.7498H16.307C16.4905 18.7579 16.6737 18.7294 16.8461 18.666C17.0184 18.6025 17.1764 18.5053 17.3107 18.3801C17.4451 18.2549 17.5531 18.1041 17.6286 17.9366C17.704 17.7692 17.7453 17.5884 17.75 17.4048V8.24976H16.187V6.99976H18.375C18.5408 6.99976 18.6997 7.06561 18.8169 7.18282C18.9342 7.30003 19 7.459 19 7.62476ZM8.013 6.99976V8.24976H11.987V6.99976H8.013ZM15 4.62476C14.9469 3.34958 14.3912 2.14727 13.4543 1.28062C12.5174 0.413969 11.2754 -0.0465348 10 -0.000236111C8.72456 -0.0465348 7.48265 0.413969 6.54573 1.28062C5.60881 2.14727 5.05308 3.34958 5 4.62476V9.92476H6.25V4.62476C6.30324 3.68122 6.7273 2.79697 7.42975 2.16476C8.1322 1.53256 9.05608 1.20366 10 1.24976C10.9439 1.20366 11.8678 1.53256 12.5702 2.16476C13.2727 2.79697 13.6968 3.68122 13.75 4.62476V9.92476H15V4.62476Z" fill="#0F1A1C"/>
</g>
<defs>
<clipPath id="clip0_1581_863">
<rect width="20" height="20" fill="white"/>
</clipPath>
</defs>
</svg>
