<svg width="20" height="20" viewBox="0 0 20 20" fill="none" xmlns="http://www.w3.org/2000/svg">
<path d="M4.82846 7.56596C4.62226 7.18568 4.50977 6.76178 4.50023 6.32945C4.54079 5.547 4.8872 4.81155 5.46514 4.28192C6.04696 3.74873 6.81614 3.46746 7.60467 3.49954L7.625 3.50037L7.64533 3.49954C8.43386 3.46746 9.20304 3.74873 9.78486 4.28192C10.3628 4.81155 10.7092 5.547 10.7498 6.32946C10.7402 6.76178 10.6277 7.18568 10.4215 7.56596C10.2129 7.95082 9.91436 8.27962 9.55141 8.52444L8.82726 9.01287L9.61514 9.38996C10.2438 9.69085 10.7764 10.1606 11.1534 10.7468C11.5278 11.3289 11.7342 12.0031 11.7498 12.6949C11.705 13.7399 11.2504 14.7254 10.4841 15.4379C9.71424 16.1536 8.69238 16.5356 7.6418 16.5002L7.625 16.4997L7.6082 16.5002C6.55762 16.5356 5.53576 16.1536 4.76591 15.4379C3.99961 14.7254 3.545 13.7399 3.50021 12.6949C3.51583 12.0031 3.72216 11.3289 4.09657 10.7468C4.47359 10.1606 5.00619 9.69085 5.63486 9.38996L6.42274 9.01287L5.69859 8.52444C5.33564 8.27962 5.03714 7.95082 4.82846 7.56596ZM7.56484 8.89717L7.59385 8.89898C8.31536 8.94403 9.02546 8.70221 9.56952 8.22618C10.1136 7.75015 10.4476 7.07846 10.4987 6.35735L10.5013 6.32118L10.4986 6.28501C10.4453 5.56539 10.1105 4.8958 9.56673 4.42143C9.0308 3.95387 8.3345 3.71311 7.625 3.74917C6.9155 3.71311 6.2192 3.95387 5.68327 4.42143C5.13953 4.8958 4.80469 5.56539 4.75137 6.28501L4.74864 6.32185L4.75135 6.35869C4.80437 7.07848 5.13914 7.74831 5.683 8.22279C6.20384 8.67718 6.87618 8.91728 7.56484 8.89717ZM11.4993 12.7273L11.5007 12.7004L11.4993 12.6736C11.4473 11.6899 11.0083 10.7667 10.2781 10.1056C9.55365 9.44957 8.60092 9.10434 7.625 9.14349C6.64908 9.10434 5.69635 9.44957 4.97189 10.1056C4.24171 10.7667 3.80271 11.6899 3.7507 12.6736L3.74928 12.7004L3.75075 12.7273C3.80452 13.7097 4.24429 14.6311 4.97428 15.2908C5.69852 15.9453 6.65024 16.2896 7.625 16.2504C8.59977 16.2896 9.55148 15.9453 10.2757 15.2908C11.0057 14.6311 11.4455 13.7097 11.4993 12.7273ZM16.5 8.99996V9.49996H17H19.1V9.74996H17H16.5V10.25V12.164H16.25V10.25V9.74996H15.75H13.85V9.49996H15.75H16.25V8.99996V6.91396H16.5V8.99996ZM0.5 3.87496H0.75V16.125H0.5V3.87496Z" fill="#0F1A1C" stroke="#0F1A1C"/>
</svg>
