<svg width="20" height="20" viewBox="0 0 20 20" fill="none" xmlns="http://www.w3.org/2000/svg">
<path d="M16.45 6.984V7.40809L16.8684 7.4773C17.5848 7.59579 18.2364 7.96324 18.7084 8.51495C19.18 9.06612 19.4422 9.76588 19.449 10.4912V14.0711C19.2028 13.5204 18.8541 13.0149 18.4157 12.584C17.5026 11.6867 16.2732 11.1845 14.993 11.186C13.7128 11.1874 12.4846 11.6924 11.5735 12.5918C11.1854 12.9751 10.8681 13.4168 10.6303 13.8967C10.3735 13.075 9.92064 12.3192 9.3007 11.6993C8.29269 10.6913 6.92554 10.125 5.5 10.125C4.07446 10.125 2.70731 10.6913 1.6993 11.6993C1.17341 12.2252 0.767745 12.8488 0.5 13.5275V7.6571C0.500516 7.6549 0.501116 7.65271 0.5018 7.65054L0.707193 7H0.5V2.5C0.5 2.23478 0.605357 1.98043 0.792893 1.79289C0.98043 1.60536 1.23478 1.5 1.5 1.5H9V2.5H8H7.5V3V7V7.5H8H12H12.5V7V5.11581C12.5014 4.95187 12.5675 4.79511 12.684 4.67973C12.8009 4.56404 12.9588 4.49941 13.1232 4.5H13.125L15.825 4.5L15.8268 4.5C15.9912 4.49941 16.1491 4.56404 16.266 4.67973C16.3825 4.79511 16.4486 4.95187 16.45 5.11581V6.984ZM15.825 4H13.125C12.8282 3.99894 12.5431 4.11561 12.3322 4.32444C12.1213 4.53327 12.0019 4.81721 12 5.114V6.5V7L15.825 4ZM6 7.5H6.5V7V3V2.5H6H2H1.5V3V7V7.5H2H6ZM17.375 15.9985V15.9998C17.3748 16.6098 17.1392 17.1962 16.7173 17.6368C16.2954 18.0774 15.7197 18.3382 15.1103 18.3648C14.5009 18.3914 13.9047 18.1818 13.446 17.7797C13.1093 17.4845 12.8657 17.1023 12.7389 16.6795C12.9141 16.618 13.0751 16.5177 13.2089 16.3839C13.4433 16.1495 13.575 15.8315 13.575 15.5L13.575 15.4968C13.573 15.1919 13.4589 14.8985 13.2544 14.6724C13.2149 14.6286 13.1725 14.588 13.1276 14.5507C13.3494 14.2614 13.6365 14.0253 13.9682 13.8633C14.4523 13.627 15.0025 13.5628 15.528 13.6814C16.0536 13.7999 16.523 14.0941 16.8587 14.5153C17.1945 14.9366 17.3766 15.4598 17.375 15.9985ZM5.625 16.75H8.08243C7.87294 17.1839 7.55613 17.5614 7.15761 17.8444C6.58123 18.2535 5.87433 18.436 5.17193 18.357C4.46952 18.2779 3.82085 17.9429 3.34981 17.4159C2.87878 16.8889 2.61839 16.2068 2.61839 15.5C2.61839 14.7932 2.87878 14.1111 3.34981 13.5841C3.82085 13.0571 4.46953 12.7221 5.17193 12.643C5.87433 12.564 6.58123 12.7465 7.15761 13.1556C7.55613 13.4386 7.87294 13.8161 8.08243 14.25H5.625C5.29348 14.25 4.97554 14.3817 4.74112 14.6161C4.5067 14.8505 4.375 15.1685 4.375 15.5C4.375 15.8315 4.5067 16.1495 4.74112 16.3839C4.97554 16.6183 5.29348 16.75 5.625 16.75Z" fill="#0F1A1C" stroke="#0F1A1C"/>
</svg>
