<svg width="20" height="20" viewBox="0 0 20 20" fill="none" xmlns="http://www.w3.org/2000/svg">
<path d="M17.2664 7.94461C17.2867 7.94193 17.2956 7.94114 17.2988 7.94091C17.8377 7.95379 18.3505 8.17633 18.7281 8.56142C19.1077 8.94856 19.3203 9.46913 19.3203 10.0113C19.3203 10.5535 19.1077 11.0741 18.7281 11.4612C18.3503 11.8465 17.8373 12.069 17.2981 12.0817C17.2968 12.0817 17.2949 12.0816 17.2923 12.0813C17.2861 12.0808 17.2778 12.0798 17.2642 12.078L17.2416 12.075L17.2131 12.0712C17.1925 12.0685 17.1665 12.0654 17.1378 12.0633L16.7581 12.0345L16.6294 12.3928C16.3221 13.2481 15.8517 14.0356 15.2441 14.7116L14.9986 14.9847L15.1858 15.3007C15.3272 15.5393 15.4189 15.8039 15.4555 16.0788C15.4922 16.3537 15.4729 16.6331 15.3989 16.9004C15.325 17.1676 15.1978 17.4172 15.0251 17.6341C14.8523 17.851 14.6375 18.0308 14.3936 18.1628C14.1497 18.2947 13.8817 18.376 13.6056 18.4019C13.3295 18.4277 13.051 18.3975 12.7869 18.3132C12.5227 18.2288 12.2783 18.092 12.0683 17.9109C11.8583 17.7298 11.687 17.5082 11.5647 17.2593L11.4008 16.9257L11.0341 16.9866C10.6922 17.0433 10.3465 17.0745 9.99998 17.0798C9.65344 17.0745 9.30777 17.0433 8.96585 16.9866L8.59993 16.9258L8.43568 17.2584C8.22914 17.6766 7.88697 18.0125 7.46499 18.2113C7.04302 18.41 6.56615 18.4599 6.11218 18.3528C5.65821 18.2457 5.25394 17.9879 4.96533 17.6214C4.67678 17.2551 4.52086 16.8018 4.52298 16.3355C4.52521 15.9715 4.62476 15.6147 4.81133 15.3021L5.00004 14.9859L4.75408 14.7118C4.1472 14.0357 3.67736 13.2482 3.37063 12.393L3.24247 12.0357L2.86385 12.0631C2.81793 12.0665 2.77112 12.0729 2.74502 12.0765C2.74054 12.0771 2.73667 12.0776 2.73352 12.078C2.71329 12.0807 2.70438 12.0815 2.70121 12.0817C2.16228 12.0689 1.64947 11.8463 1.2719 11.4612C0.892313 11.0741 0.679688 10.5535 0.679688 10.0113C0.679688 9.46913 0.892313 8.94856 1.2719 8.56142C1.64854 8.17727 2.15976 7.95489 2.69724 7.94101C2.70096 7.94149 2.70968 7.94262 2.72658 7.94518C2.72837 7.94545 2.73038 7.94576 2.7326 7.9461C2.76204 7.95064 2.82807 7.96082 2.89999 7.96082H3.25154L3.3705 7.63C3.6781 6.77449 4.1492 5.987 4.75755 5.3114L5.00354 5.03821L4.81614 4.72194C4.67478 4.48337 4.58304 4.21872 4.54642 3.94385C4.5098 3.66898 4.52906 3.38954 4.60303 3.12229C4.677 2.85504 4.80417 2.60547 4.97692 2.38855C5.14966 2.17163 5.36442 1.99181 5.60833 1.85989C5.85224 1.72796 6.12027 1.64663 6.39636 1.62079C6.67246 1.59494 6.95093 1.6251 7.21509 1.70946C7.47924 1.79382 7.72365 1.93065 7.93365 2.11174C8.14366 2.29283 8.31494 2.51445 8.43723 2.76333L8.59919 3.09293L8.96215 3.03699C9.6513 2.93077 10.3527 2.93077 11.0418 3.03699L11.4048 3.09293L11.5667 2.76333C11.689 2.51445 11.8603 2.29283 12.0703 2.11174C12.2803 1.93065 12.5247 1.79382 12.7889 1.70946C13.053 1.6251 13.3315 1.59494 13.6076 1.62079C13.8837 1.64663 14.1517 1.72796 14.3956 1.85989C14.6395 1.99181 14.8543 2.17163 15.0271 2.38855C15.1998 2.60547 15.327 2.85504 15.4009 3.12229C15.4749 3.38954 15.4942 3.66898 15.4575 3.94385C15.4209 4.21872 15.3292 4.48337 15.1878 4.72194L15.0007 5.03777L15.246 5.31091C15.853 5.98682 16.3228 6.77429 16.6293 7.6295L16.7574 7.98696L17.1361 7.95952C17.1821 7.95619 17.2289 7.94976 17.255 7.94617C17.2594 7.94556 17.2633 7.94503 17.2664 7.94461ZM8.84856 15.9371L8.92234 15.978L9.00545 15.9925C9.66463 16.1069 10.3387 16.1062 10.9976 15.9903L11.0774 15.9762L11.1486 15.9377C11.1616 15.9308 11.1749 15.9245 11.1885 15.9189L11.3943 15.8351L11.4701 15.6262C11.6142 15.2286 11.8767 14.8847 12.2223 14.6409C12.5667 14.398 12.9771 14.2661 13.3986 14.2628C13.5619 14.265 13.7244 14.2869 13.8826 14.3278L14.1663 14.4014L14.3691 14.1896C15.0246 13.5052 15.5101 12.6762 15.7863 11.7695L15.8651 11.5108L15.6917 11.3032C15.3889 10.9408 15.223 10.4836 15.223 10.0113C15.223 9.53907 15.3889 9.08181 15.6917 8.7194L15.865 8.51191L15.7863 8.25325C15.5103 7.34642 15.0248 6.51728 14.369 5.83289L14.1666 5.6217L13.8834 5.6946C13.725 5.73535 13.5624 5.75691 13.3989 5.75881C12.9773 5.7558 12.5667 5.62395 12.2221 5.3809C11.8766 5.13713 11.6141 4.79323 11.4701 4.39559L11.3925 4.18125L11.1798 4.09927C11.1656 4.09378 11.1516 4.0875 11.1381 4.08045L11.069 4.04441L10.9922 4.03113C10.3343 3.91739 9.66171 3.91739 9.00381 4.03113L8.92327 4.04506L8.85135 4.0839C8.83841 4.09089 8.8251 4.09718 8.81147 4.10272L8.60555 4.18655L8.52986 4.39559C8.38587 4.79323 8.12339 5.13713 7.77782 5.3809C7.43328 5.62395 7.02268 5.7558 6.60111 5.75881C6.43762 5.75691 6.27495 5.73535 6.1166 5.6946L5.83334 5.6217L5.63097 5.83289C4.97516 6.51728 4.48962 7.34642 4.21365 8.25325L4.13493 8.51191L4.30828 8.7194C4.61107 9.08181 4.77694 9.53907 4.77694 10.0113C4.77694 10.4836 4.61107 10.9408 4.30828 11.3032L4.13486 11.5108L4.21369 11.7695C4.4899 12.6762 4.97535 13.5052 5.63087 14.1896L5.83362 14.4014L6.1174 14.3278C6.27555 14.2869 6.43806 14.265 6.60141 14.2628C7.02284 14.2661 7.43326 14.398 7.77769 14.6409C8.12328 14.8847 8.38581 15.2286 8.5299 15.6262L8.60481 15.8329L8.80779 15.9174C8.82173 15.9232 8.83534 15.9298 8.84856 15.9371Z" fill="#0F1A1C" stroke="#0F1A1C"/>
</svg>
