<svg width="20" height="20" viewBox="0 0 20 20" fill="none" xmlns="http://www.w3.org/2000/svg">
<path d="M13.908 8.358C13.6871 8.24056 13.4412 8.17781 13.191 8.175H12.324V11.825H13.191C13.4416 11.8206 13.6868 11.7518 13.903 11.625C14.1583 11.4785 14.3689 11.2652 14.512 11.008C14.6855 10.6892 14.7701 10.3297 14.757 9.967C14.7706 9.61063 14.6859 9.25738 14.512 8.946C14.3697 8.69728 14.1605 8.49353 13.908 8.358Z" fill="#0F1A1C"/>
<path d="M6.877 8.575L6.127 10.7H7.652L6.91 8.575H6.877Z" fill="#0F1A1C"/>
<path d="M17.875 2H2.125C1.82679 2.00053 1.54095 2.11922 1.33009 2.33009C1.11922 2.54095 1.00053 2.82679 1 3.125V16.875C1.00053 17.1732 1.11922 17.459 1.33009 17.6699C1.54095 17.8808 1.82679 17.9995 2.125 18H17.875C18.1732 17.9995 18.459 17.8808 18.6699 17.6699C18.8808 17.459 18.9995 17.1732 19 16.875V3.125C18.9995 2.82679 18.8808 2.54095 18.6699 2.33009C18.459 2.11922 18.1732 2.00053 17.875 2ZM8.4 13L7.967 11.783H5.81L5.377 13H3.986L6.344 7H7.436L9.794 13H8.4ZM15.66 11.608C15.4042 12.0506 15.0284 12.4119 14.576 12.65C14.1365 12.8817 13.6468 13.0018 13.15 13H11V7H13.05C13.5662 6.99606 14.0765 7.10995 14.542 7.333C15.0008 7.55335 15.387 7.90033 15.655 8.333C15.9473 8.82346 16.093 9.38734 16.075 9.958C16.0906 10.5354 15.9478 11.106 15.662 11.608H15.66Z" fill="#0F1A1C"/>
</svg>
