<svg width="20" height="20" viewBox="0 0 20 20" fill="none" xmlns="http://www.w3.org/2000/svg">
<path d="M6.125 15.6252H7.651H8.31536L8.13146 16.2636C7.96698 16.8346 7.62178 17.3369 7.14765 17.695C6.67366 18.0531 6.09636 18.2479 5.50232 18.2502L6.125 15.6252ZM6.125 15.6252V15.3752H7.651H8.31607L8.13132 14.7363C7.98923 14.2449 7.7129 13.8029 7.33339 13.4599C6.95388 13.117 6.48624 12.8866 5.98302 12.7949C5.47981 12.7031 4.96096 12.7535 4.48481 12.9403C4.00865 13.1272 3.59406 13.4432 3.28763 13.8528C2.98119 14.2624 2.79507 14.7493 2.75017 15.2588C2.70527 15.7684 2.80338 16.2803 3.03346 16.7372C3.26355 17.194 3.6165 17.5777 4.05263 17.8449C4.4887 18.1122 4.99064 18.2525 5.50207 18.2502C5.50199 18.2502 5.50191 18.2502 5.50182 18.2502L6.125 15.6252ZM16.45 6.9842V7.40841L16.8685 7.47752C17.5851 7.59583 18.2369 7.9632 18.7091 8.51493C19.1809 9.06612 19.4432 9.76598 19.45 10.4914V15.3752C19.45 15.4083 19.4368 15.4401 19.4134 15.4636C19.3899 15.487 19.3582 15.5002 19.325 15.5002H18H17.5015L17.5 15.9987C17.4981 16.6502 17.2415 17.275 16.785 17.7398C16.3285 18.2045 15.7084 18.4723 15.0571 18.4859C14.4058 18.4995 13.775 18.2578 13.2995 17.8125C12.8241 17.3673 12.5416 16.7537 12.5125 16.1029L12.4911 15.6252H12.013H8.937H8.51814L8.44474 16.0376C8.32019 16.7373 7.95021 17.3697 7.40126 17.8212C6.85231 18.2726 6.16037 18.5135 5.44974 18.5006C4.73912 18.4877 4.05638 18.2219 3.52418 17.7508C2.99198 17.2797 2.64519 16.6343 2.54612 15.9305L2.48555 15.5002H2.051H0.625C0.591847 15.5002 0.560053 15.487 0.536612 15.4636C0.51317 15.4401 0.5 15.4083 0.5 15.3752V7.6573C0.500516 7.65509 0.501116 7.6529 0.5018 7.65073L0.707193 7.0002H0.5V2.20071C0.500393 2.03494 0.566418 1.87606 0.683642 1.75884C0.800867 1.64161 0.959742 1.57559 1.12551 1.5752H8.625V1.8252H8H7.5V2.3252V7.0002V7.5002H8H12H12.5V7.0002V5.116C12.5014 4.95207 12.5675 4.7953 12.684 4.67992C12.8009 4.56424 12.9588 4.4996 13.1232 4.5002H13.125L15.825 4.5002L15.8268 4.50019C15.9912 4.4996 16.1491 4.56424 16.266 4.67992C16.3825 4.7953 16.4486 4.95207 16.45 5.11601V6.9842ZM15.825 4.0002H13.125C12.8282 3.99913 12.5431 4.11581 12.3322 4.32464C12.1213 4.53347 12.0019 4.81741 12 5.11419V6.5002V7.0002L15.825 4.0002ZM7.25 2.3252V1.8252H6.75H1.25H0.75V2.3252V7.0002V7.5002H1.25H6.75H7.25V7.0002V2.3252ZM15 18.2502H15.0006C15.5969 18.2495 16.1687 18.0123 16.5904 17.5906C17.0121 17.1689 17.2493 16.5971 17.25 16.0008V16.0002C17.25 15.5552 17.118 15.1202 16.8708 14.7502C16.6236 14.3802 16.2722 14.0918 15.861 13.9215C15.4499 13.7512 14.9975 13.7066 14.561 13.7934C14.1246 13.8802 13.7237 14.0945 13.409 14.4092C13.0943 14.7239 12.88 15.1248 12.7932 15.5612C12.7064 15.9977 12.751 16.4501 12.9213 16.8612C13.0916 17.2724 13.38 17.6238 13.75 17.871C14.12 18.1182 14.555 18.2502 15 18.2502ZM18.7 15.2502H19.2V14.7502V10.4892H19.2001L19.1999 10.4813C19.1881 9.72832 18.8781 9.01073 18.3379 8.48598C17.7988 7.96234 17.0744 7.6734 16.3231 7.68218C16.2906 7.68168 16.2596 7.66857 16.2366 7.64558C16.2132 7.62214 16.2 7.59035 16.2 7.5572V5.2502V4.7502H15.7H13.25H12.75V5.2502V7.0682H12.75L12.75 7.07369C12.7519 7.2482 12.6857 7.41656 12.5654 7.54297C12.447 7.66739 12.2854 7.7415 12.1141 7.7502H1.25H0.75V8.2502V14.7502V15.2502H1.25H2.085H2.48759L2.57349 14.8569C2.72123 14.1804 3.09891 13.576 3.6422 13.1467C4.18549 12.7173 4.86081 12.4896 5.55315 12.5022C6.24549 12.5148 6.91205 12.7671 7.43932 13.2159C7.96659 13.6648 8.32197 14.2825 8.44495 14.964L8.51915 15.3752H8.937H12.219H12.5574L12.6832 15.0611C12.8646 14.608 13.1751 14.2182 13.5762 13.94C13.9772 13.6619 14.4512 13.5077 14.9391 13.4966C15.427 13.4855 15.9075 13.618 16.3207 13.8776C16.734 14.1373 17.0619 14.5126 17.2637 14.9569L17.3969 15.2502H17.719H18.7Z" fill="#0F1A1C" stroke="#0F1A1C"/>
</svg>
