<svg width="20" height="20" viewBox="0 0 20 20" fill="none" xmlns="http://www.w3.org/2000/svg">
<mask id="path-1-inside-1_1581_864" fill="white">
<path d="M14.625 14.25H5.375V13H14.625V14.25ZM4.71 7.33C4.89393 7.1432 4.99794 6.89215 5 6.63C4.99855 6.49608 4.97139 6.36368 4.92 6.24C4.87153 6.12066 4.80019 6.01196 4.71 5.92C4.51661 5.74156 4.26313 5.64249 4 5.64249C3.73687 5.64249 3.48339 5.74156 3.29 5.92C3.10302 6.1083 2.99851 6.36317 2.99944 6.62854C3.00038 6.8939 3.1067 7.14802 3.295 7.335C3.4833 7.52198 3.73817 7.62649 4.00354 7.62556C4.2689 7.62462 4.52302 7.5183 4.71 7.33ZM8.71 7.33C8.89625 7.14264 9.00079 6.88919 9.00079 6.625C9.00079 6.36081 8.89625 6.10736 8.71 5.92C8.51661 5.74156 8.26313 5.64249 8 5.64249C7.73687 5.64249 7.48339 5.74156 7.29 5.92C7.19981 6.01196 7.12847 6.12066 7.08 6.24C7.02861 6.36368 7.00145 6.49608 7 6.63C7.00083 6.82777 7.06028 7.02086 7.17085 7.18484C7.28141 7.34883 7.43812 7.47634 7.62115 7.55127C7.80418 7.62619 8.00532 7.64516 8.19913 7.60578C8.39295 7.56639 8.57073 7.47042 8.71 7.33ZM12.71 7.33C12.8939 7.1432 12.9979 6.89215 13 6.63C12.9985 6.49608 12.9714 6.36368 12.92 6.24C12.8715 6.12066 12.8002 6.01196 12.71 5.92C12.5917 5.80446 12.447 5.71949 12.2884 5.67245C12.1298 5.6254 11.9622 5.6177 11.8 5.65C11.7388 5.662 11.6786 5.67872 11.62 5.7L11.44 5.79C11.3876 5.83044 11.3375 5.87384 11.29 5.92C11.1998 6.01196 11.1285 6.12066 11.08 6.24C11.0286 6.36368 11.0015 6.49608 11 6.63C11.0021 6.89215 11.1061 7.1432 11.29 7.33C11.3375 7.37616 11.3876 7.41956 11.44 7.46L11.62 7.55C11.6786 7.57128 11.7388 7.588 11.8 7.6C11.8654 7.61606 11.9327 7.6228 12 7.62C12.2657 7.62077 12.5209 7.51653 12.71 7.33ZM16.71 7.33C16.8939 7.1432 16.9979 6.89215 17 6.63C16.9985 6.49608 16.9714 6.36368 16.92 6.24C16.8715 6.12066 16.8002 6.01196 16.71 5.92C16.5166 5.74156 16.2631 5.64249 16 5.64249C15.7369 5.64249 15.4834 5.74156 15.29 5.92C15.1998 6.01196 15.1285 6.12066 15.08 6.24C14.9919 6.45359 14.9805 6.69109 15.0476 6.91216C15.1148 7.13322 15.2565 7.3242 15.4485 7.45263C15.6406 7.58106 15.8712 7.63903 16.1012 7.61667C16.3311 7.59432 16.5463 7.49302 16.71 7.33ZM8.38 10.55C8.50153 10.4956 8.61308 10.4213 8.71 10.33C8.89393 10.1432 8.99794 9.89215 9 9.63C9.00344 9.4956 8.97608 9.36219 8.92 9.24C8.87153 9.12066 8.80019 9.01196 8.71 8.92C8.51661 8.74156 8.26313 8.64249 8 8.64249C7.73687 8.64249 7.48339 8.74156 7.29 8.92C7.19981 9.01196 7.12847 9.12066 7.08 9.24C7.02861 9.36368 7.00145 9.49608 7 9.63C6.99999 9.76085 7.02593 9.89041 7.0763 10.0112C7.12668 10.1319 7.2005 10.2415 7.29349 10.3336C7.38648 10.4257 7.4968 10.4984 7.61807 10.5475C7.73934 10.5967 7.86915 10.6213 8 10.62C8.13004 10.622 8.25919 10.5982 8.38 10.55ZM12.71 10.33C12.8939 10.1432 12.9979 9.89215 13 9.63C12.9985 9.49608 12.9714 9.36368 12.92 9.24C12.8715 9.12066 12.8002 9.01196 12.71 8.92C12.5166 8.74156 12.2631 8.64249 12 8.64249C11.7369 8.64249 11.4834 8.74156 11.29 8.92C11.1037 9.10736 10.9992 9.36081 10.9992 9.625C10.9992 9.88919 11.1037 10.1426 11.29 10.33C11.3852 10.4234 11.4971 10.4981 11.62 10.55C11.7408 10.5982 11.87 10.622 12 10.62C12.2657 10.6208 12.5209 10.5165 12.71 10.33ZM16.71 10.33C16.8962 10.1426 17.0008 9.88919 17.0008 9.625C17.0008 9.36081 16.8962 9.10736 16.71 8.92C16.5166 8.74156 16.2631 8.64249 16 8.64249C15.7369 8.64249 15.4834 8.74156 15.29 8.92C15.1998 9.01196 15.1285 9.12066 15.08 9.24C15.0286 9.36368 15.0015 9.49608 15 9.63C15.0008 9.82777 15.0603 10.0209 15.1708 10.1848C15.2814 10.3488 15.4381 10.4763 15.6211 10.5513C15.8042 10.6262 16.0053 10.6452 16.1991 10.6058C16.3929 10.5664 16.5707 10.4704 16.71 10.33ZM4.71 10.33C4.89393 10.1432 4.99794 9.89215 5 9.63C4.99855 9.49608 4.97139 9.36368 4.92 9.24C4.87153 9.12066 4.80019 9.01196 4.71 8.92C4.51661 8.74156 4.26313 8.64249 4 8.64249C3.73687 8.64249 3.48339 8.74156 3.29 8.92C3.19981 9.01196 3.12847 9.12066 3.08 9.24C3.02861 9.36368 3.00145 9.49608 3 9.63C3.00083 9.82777 3.06028 10.0209 3.17085 10.1848C3.28141 10.3488 3.43812 10.4763 3.62115 10.5513C3.80418 10.6262 4.00532 10.6452 4.19913 10.6058C4.39295 10.5664 4.57073 10.4704 4.71 10.33ZM20 15.375V3.125C19.9995 2.82679 19.8808 2.54095 19.6699 2.33009C19.459 2.11922 19.1732 2.00053 18.875 2H1.125C0.826794 2.00053 0.540953 2.11922 0.330089 2.33009C0.119225 2.54095 0.000528736 2.82679 0 3.125V15.375C0.00105795 16.0709 0.277959 16.7379 0.770013 17.23C1.26207 17.722 1.92913 17.9989 2.625 18H17.375C18.0709 17.9989 18.7379 17.722 19.23 17.23C19.722 16.7379 19.9989 16.0709 20 15.375ZM18.75 3.25V15.375C18.7495 15.7395 18.6044 16.0889 18.3467 16.3467C18.0889 16.6044 17.7395 16.7495 17.375 16.75H2.625C2.26049 16.7495 1.91106 16.6044 1.65331 16.3467C1.39556 16.0889 1.25053 15.7395 1.25 15.375V3.25H18.75Z"/>
</mask>
<path d="M14.625 14.25H5.375V13H14.625V14.25ZM4.71 7.33C4.89393 7.1432 4.99794 6.89215 5 6.63C4.99855 6.49608 4.97139 6.36368 4.92 6.24C4.87153 6.12066 4.80019 6.01196 4.71 5.92C4.51661 5.74156 4.26313 5.64249 4 5.64249C3.73687 5.64249 3.48339 5.74156 3.29 5.92C3.10302 6.1083 2.99851 6.36317 2.99944 6.62854C3.00038 6.8939 3.1067 7.14802 3.295 7.335C3.4833 7.52198 3.73817 7.62649 4.00354 7.62556C4.2689 7.62462 4.52302 7.5183 4.71 7.33ZM8.71 7.33C8.89625 7.14264 9.00079 6.88919 9.00079 6.625C9.00079 6.36081 8.89625 6.10736 8.71 5.92C8.51661 5.74156 8.26313 5.64249 8 5.64249C7.73687 5.64249 7.48339 5.74156 7.29 5.92C7.19981 6.01196 7.12847 6.12066 7.08 6.24C7.02861 6.36368 7.00145 6.49608 7 6.63C7.00083 6.82777 7.06028 7.02086 7.17085 7.18484C7.28141 7.34883 7.43812 7.47634 7.62115 7.55127C7.80418 7.62619 8.00532 7.64516 8.19913 7.60578C8.39295 7.56639 8.57073 7.47042 8.71 7.33ZM12.71 7.33C12.8939 7.1432 12.9979 6.89215 13 6.63C12.9985 6.49608 12.9714 6.36368 12.92 6.24C12.8715 6.12066 12.8002 6.01196 12.71 5.92C12.5917 5.80446 12.447 5.71949 12.2884 5.67245C12.1298 5.6254 11.9622 5.6177 11.8 5.65C11.7388 5.662 11.6786 5.67872 11.62 5.7L11.44 5.79C11.3876 5.83044 11.3375 5.87384 11.29 5.92C11.1998 6.01196 11.1285 6.12066 11.08 6.24C11.0286 6.36368 11.0015 6.49608 11 6.63C11.0021 6.89215 11.1061 7.1432 11.29 7.33C11.3375 7.37616 11.3876 7.41956 11.44 7.46L11.62 7.55C11.6786 7.57128 11.7388 7.588 11.8 7.6C11.8654 7.61606 11.9327 7.6228 12 7.62C12.2657 7.62077 12.5209 7.51653 12.71 7.33ZM16.71 7.33C16.8939 7.1432 16.9979 6.89215 17 6.63C16.9985 6.49608 16.9714 6.36368 16.92 6.24C16.8715 6.12066 16.8002 6.01196 16.71 5.92C16.5166 5.74156 16.2631 5.64249 16 5.64249C15.7369 5.64249 15.4834 5.74156 15.29 5.92C15.1998 6.01196 15.1285 6.12066 15.08 6.24C14.9919 6.45359 14.9805 6.69109 15.0476 6.91216C15.1148 7.13322 15.2565 7.3242 15.4485 7.45263C15.6406 7.58106 15.8712 7.63903 16.1012 7.61667C16.3311 7.59432 16.5463 7.49302 16.71 7.33ZM8.38 10.55C8.50153 10.4956 8.61308 10.4213 8.71 10.33C8.89393 10.1432 8.99794 9.89215 9 9.63C9.00344 9.4956 8.97608 9.36219 8.92 9.24C8.87153 9.12066 8.80019 9.01196 8.71 8.92C8.51661 8.74156 8.26313 8.64249 8 8.64249C7.73687 8.64249 7.48339 8.74156 7.29 8.92C7.19981 9.01196 7.12847 9.12066 7.08 9.24C7.02861 9.36368 7.00145 9.49608 7 9.63C6.99999 9.76085 7.02593 9.89041 7.0763 10.0112C7.12668 10.1319 7.2005 10.2415 7.29349 10.3336C7.38648 10.4257 7.4968 10.4984 7.61807 10.5475C7.73934 10.5967 7.86915 10.6213 8 10.62C8.13004 10.622 8.25919 10.5982 8.38 10.55ZM12.71 10.33C12.8939 10.1432 12.9979 9.89215 13 9.63C12.9985 9.49608 12.9714 9.36368 12.92 9.24C12.8715 9.12066 12.8002 9.01196 12.71 8.92C12.5166 8.74156 12.2631 8.64249 12 8.64249C11.7369 8.64249 11.4834 8.74156 11.29 8.92C11.1037 9.10736 10.9992 9.36081 10.9992 9.625C10.9992 9.88919 11.1037 10.1426 11.29 10.33C11.3852 10.4234 11.4971 10.4981 11.62 10.55C11.7408 10.5982 11.87 10.622 12 10.62C12.2657 10.6208 12.5209 10.5165 12.71 10.33ZM16.71 10.33C16.8962 10.1426 17.0008 9.88919 17.0008 9.625C17.0008 9.36081 16.8962 9.10736 16.71 8.92C16.5166 8.74156 16.2631 8.64249 16 8.64249C15.7369 8.64249 15.4834 8.74156 15.29 8.92C15.1998 9.01196 15.1285 9.12066 15.08 9.24C15.0286 9.36368 15.0015 9.49608 15 9.63C15.0008 9.82777 15.0603 10.0209 15.1708 10.1848C15.2814 10.3488 15.4381 10.4763 15.6211 10.5513C15.8042 10.6262 16.0053 10.6452 16.1991 10.6058C16.3929 10.5664 16.5707 10.4704 16.71 10.33ZM4.71 10.33C4.89393 10.1432 4.99794 9.89215 5 9.63C4.99855 9.49608 4.97139 9.36368 4.92 9.24C4.87153 9.12066 4.80019 9.01196 4.71 8.92C4.51661 8.74156 4.26313 8.64249 4 8.64249C3.73687 8.64249 3.48339 8.74156 3.29 8.92C3.19981 9.01196 3.12847 9.12066 3.08 9.24C3.02861 9.36368 3.00145 9.49608 3 9.63C3.00083 9.82777 3.06028 10.0209 3.17085 10.1848C3.28141 10.3488 3.43812 10.4763 3.62115 10.5513C3.80418 10.6262 4.00532 10.6452 4.19913 10.6058C4.39295 10.5664 4.57073 10.4704 4.71 10.33ZM20 15.375V3.125C19.9995 2.82679 19.8808 2.54095 19.6699 2.33009C19.459 2.11922 19.1732 2.00053 18.875 2H1.125C0.826794 2.00053 0.540953 2.11922 0.330089 2.33009C0.119225 2.54095 0.000528736 2.82679 0 3.125V15.375C0.00105795 16.0709 0.277959 16.7379 0.770013 17.23C1.26207 17.722 1.92913 17.9989 2.625 18H17.375C18.0709 17.9989 18.7379 17.722 19.23 17.23C19.722 16.7379 19.9989 16.0709 20 15.375ZM18.75 3.25V15.375C18.7495 15.7395 18.6044 16.0889 18.3467 16.3467C18.0889 16.6044 17.7395 16.7495 17.375 16.75H2.625C2.26049 16.7495 1.91106 16.6044 1.65331 16.3467C1.39556 16.0889 1.25053 15.7395 1.25 15.375V3.25H18.75Z" fill="#0F1A1C" stroke="#0F1A1C" stroke-width="2" mask="url(#path-1-inside-1_1581_864)"/>
</svg>
