<svg width="20" height="20" viewBox="0 0 20 20" fill="none" xmlns="http://www.w3.org/2000/svg">
<path d="M18.236 3.158L16.836 1.758C16.3497 1.27425 15.6927 1.00095 15.0068 0.997022C14.3209 0.993093 13.6608 1.25885 13.169 1.737L1.336 13.318C1.23 13.4226 1.14575 13.5471 1.08808 13.6844C1.03041 13.8217 1.00048 13.9691 1 14.118V17.875C0.99961 18.0225 1.02831 18.1687 1.08445 18.3051C1.1406 18.4415 1.22309 18.5655 1.32721 18.67C1.43134 18.7745 1.55504 18.8574 1.69125 18.914C1.82745 18.9707 1.97349 18.9999 2.121 19H5.878C6.02698 18.9993 6.17436 18.9692 6.31166 18.9114C6.44895 18.8535 6.57346 18.7691 6.678 18.663L18.256 6.826C18.7344 6.33413 19.0003 5.67401 18.9966 4.98791C18.9928 4.3018 18.7197 3.64463 18.236 3.158ZM5.824 17.747H2.25V14.173L11.894 4.738L15.259 8.1L5.824 17.747ZM17.363 5.952L16.133 7.209L12.788 3.864L14.045 2.634C14.3011 2.38481 14.6448 2.24621 15.0021 2.24808C15.3593 2.24996 15.7016 2.39214 15.955 2.644L17.355 4.044C17.6055 4.29785 17.7466 4.63972 17.7481 4.99637C17.7496 5.35301 17.6114 5.69606 17.363 5.952Z" fill="#0F1A1C"/>
</svg>
