<svg width="20" height="20" viewBox="0 0 20 20" fill="none" xmlns="http://www.w3.org/2000/svg">
<path d="M11.5005 4H6.00046V2.187C6.00056 1.99191 5.9436 1.80106 5.83659 1.63794C5.72957 1.47482 5.57719 1.34657 5.39819 1.26898C5.2192 1.19139 5.02142 1.16785 4.82922 1.20125C4.63701 1.23466 4.45878 1.32356 4.31646 1.457L1.31646 4.271C1.21687 4.36452 1.13749 4.47745 1.08323 4.60283C1.02897 4.72821 1.00098 4.86338 1.00098 5C1.00098 5.13662 1.02897 5.27179 1.08323 5.39717C1.13749 5.52255 1.21687 5.63548 1.31646 5.729L4.31646 8.543C4.5019 8.71661 4.74645 8.81314 5.00046 8.813C5.13806 8.81394 5.27433 8.786 5.40046 8.731C5.57903 8.65307 5.73094 8.52467 5.83753 8.36159C5.94412 8.1985 6.00075 8.00783 6.00046 7.813V6H11.5005C12.8916 5.93852 14.2506 6.42971 15.281 7.36641C16.3114 8.30312 16.9295 9.6093 17.0005 11C16.9295 12.3907 16.3114 13.6969 15.281 14.6336C14.2506 15.5703 12.8916 16.0615 11.5005 16H2.07546V18H11.5005C13.4221 18.0619 15.29 17.3601 16.6955 16.0483C18.101 14.7364 18.9298 12.9213 19.0005 11C18.9298 9.07869 18.101 7.26357 16.6955 5.95173C15.29 4.6399 13.4221 3.93815 11.5005 4Z" fill="#0F1A1C"/>
</svg>
