<svg width="20" height="20" viewBox="0 0 20 20" fill="none" xmlns="http://www.w3.org/2000/svg">
<g clip-path="url(#clip0_473_78)">
<path d="M10 0C8.02219 0 6.08879 0.58649 4.4443 1.6853C2.79981 2.78412 1.51809 4.3459 0.761209 6.17317C0.00433284 8.00043 -0.193701 10.0111 0.192152 11.9509C0.578004 13.8907 1.53041 15.6725 2.92894 17.0711C4.32746 18.4696 6.10929 19.422 8.0491 19.8079C9.98891 20.1937 11.9996 19.9957 13.8268 19.2388C15.6541 18.4819 17.2159 17.2002 18.3147 15.5557C19.4135 13.9112 20 11.9778 20 10C19.9971 7.34873 18.9426 4.80688 17.0679 2.93215C15.1931 1.05742 12.6513 0.0029116 10 0V0ZM18.718 9.375H14.073C13.998 6.358 13.373 3.324 12.254 1.555C14.01 2.02595 15.5759 3.0319 16.7342 4.43322C17.8926 5.83455 18.5859 7.56172 18.718 9.375ZM10 18.75C8.86201 18.75 7.3 15.673 7.176 10.625H12.823C12.7 15.673 11.137 18.75 10 18.75ZM7.176 9.375C7.3 4.327 8.86201 1.25 10 1.25C11.138 1.25 12.7 4.327 12.823 9.375H7.176ZM7.745 1.555C6.625 3.324 6 6.359 5.926 9.375H1.282C1.41419 7.5619 2.10744 5.83489 3.26556 4.43361C4.42367 3.03233 5.98923 2.02626 7.745 1.555ZM1.282 10.625H5.926C6.001 13.641 6.626 16.676 7.745 18.445C5.98923 17.9737 4.42367 16.9677 3.26556 15.5664C2.10744 14.1651 1.41419 12.4381 1.282 10.625ZM12.254 18.445C13.374 16.676 13.998 13.645 14.073 10.625H18.718C18.5859 12.4383 17.8926 14.1655 16.7342 15.5668C15.5759 16.9681 14.01 17.9741 12.254 18.445Z" fill="#0F1A1C"/>
</g>
<defs>
<clipPath id="clip0_473_78">
<rect width="20" height="20" fill="white"/>
</clipPath>
</defs>
</svg>
