<svg width="20" height="20" viewBox="0 0 20 20" fill="none" xmlns="http://www.w3.org/2000/svg">
<path d="M19 11V16.373C18.9995 17.0696 18.7225 17.7374 18.23 18.23C17.7374 18.7225 17.0696 18.9995 16.373 19H3.627C2.93044 18.9995 2.26256 18.7225 1.77002 18.23C1.27747 17.7374 1.00053 17.0696 1 16.373V11H2.25V16.373C2.25053 16.738 2.39578 17.088 2.6539 17.3461C2.91202 17.6042 3.26196 17.7495 3.627 17.75H16.373C16.738 17.7495 17.088 17.6042 17.3461 17.3461C17.6042 17.088 17.7495 16.738 17.75 16.373V11H19ZM9.741 14.583H10L10.33 14.554L14.442 10.442L13.558 9.558L10.625 12.491V1H9.375V12.491L6.442 9.558L5.558 10.442L9.487 14.371L9.741 14.583Z" fill="#0F1A1C"/>
</svg>
