<svg width="20" height="20" viewBox="0 0 20 20" fill="none" xmlns="http://www.w3.org/2000/svg">
<path d="M17.852 4.49984V4.4999L17.8596 4.49979C18.0265 4.49725 18.1876 4.56093 18.3076 4.67689C18.4267 4.79189 18.4957 4.94902 18.5 5.11438V8.4906C18.4582 9.5891 17.9843 10.6268 17.1813 11.3778C16.3761 12.1308 15.3054 12.5343 14.2035 12.5001L14.1958 12.4998H14.188H10.625H10.125V12.9998V15.0638V15.4895L10.5452 15.5574C11.3699 15.6908 12.1202 16.1134 12.6617 16.7497C13.2031 17.386 13.5003 18.1942 13.5 19.0297V19.0298V19.1548H13.25V19.0298C13.25 18.1679 12.9076 17.3412 12.2981 16.7317C11.6886 16.1223 10.862 15.7798 10 15.7798C9.13805 15.7798 8.3114 16.1223 7.7019 16.7317C7.09241 17.3412 6.75 18.1679 6.75 19.0298V19.1548H6.5V19.0298V19.0297C6.49969 18.1942 6.79688 17.386 7.33832 16.7497C7.87976 16.1134 8.63007 15.6908 9.45481 15.5574L9.875 15.4895V15.0638V9.99984V9.49984H9.375H5.812H5.80423L5.79647 9.50009C4.69457 9.53432 3.62395 9.13081 2.81874 8.37782C2.01566 7.62681 1.54178 6.5891 1.5 5.49061V2.11438C1.50428 1.94902 1.57333 1.79189 1.69238 1.67689C1.81242 1.56093 1.97351 1.49725 2.14039 1.49979L2.14039 1.49984H2.148H5.812H5.81982L5.82763 1.4996C6.92969 1.46513 8.00054 1.86852 8.80594 2.62155C9.61134 3.37457 10.0857 4.41592 10.1253 5.5178L10.1675 6.6906L10.9841 5.84777C11.3995 5.41904 11.8972 5.07865 12.4474 4.84703C12.9976 4.6154 13.5889 4.49731 14.1859 4.49984H14.188H17.852ZM1.75 5.49984V5.51212L1.7506 5.52439C1.80142 6.55852 2.25921 7.53058 3.02407 8.22844C3.78622 8.92384 4.79163 9.29072 5.82225 9.24984H9.375H9.875V8.74984V5.49984V5.48757L9.8744 5.47531C9.82358 4.44097 9.36563 3.46873 8.60052 2.77084C7.83814 2.07542 6.83247 1.70868 5.80168 1.74984H2.25H1.75V2.24984V5.49984ZM18.2494 8.52439L18.25 8.51212V8.49984V5.24984V4.74984H17.75H14.1983C13.1675 4.70868 12.1619 5.07542 11.3995 5.77084C10.6344 6.46873 10.1764 7.44097 10.1256 8.47531L10.125 8.48757V8.49984V11.7498V12.2498H10.625H14.1778C15.2084 12.2907 16.2138 11.9238 16.9759 11.2284C17.7408 10.5306 18.1986 9.55852 18.2494 8.52439Z" fill="#0F1A1C" stroke="#0F1A1C"/>
</svg>
