<svg width="20" height="20" viewBox="0 0 20 20" fill="none" xmlns="http://www.w3.org/2000/svg">
<path d="M1.4819 19.575C1.29667 19.5739 1.11456 19.5272 0.951655 19.439C0.788754 19.3508 0.650076 19.2239 0.547873 19.0694C0.44567 18.9149 0.383086 18.7376 0.36565 18.5532C0.348215 18.3688 0.376463 18.1829 0.447901 18.012L3.8209 10L0.447901 1.988C0.358625 1.77613 0.336404 1.542 0.38423 1.31712C0.432056 1.09225 0.547632 0.887419 0.715399 0.73022C0.883166 0.57302 1.09507 0.470995 1.32258 0.43788C1.55009 0.404764 1.78228 0.442149 1.9879 0.545001L18.8879 8.994C19.0746 9.08748 19.2317 9.2311 19.3414 9.40877C19.4512 9.58645 19.5093 9.79116 19.5093 10C19.5093 10.2088 19.4512 10.4136 19.3414 10.5912C19.2317 10.7689 19.0746 10.9125 18.8879 11.006L1.9879 19.455C1.83087 19.5338 1.65761 19.5749 1.4819 19.575ZM4.9929 10.438L1.7309 18.186L18.0999 10L1.7309 1.814L4.9939 9.563C5.05207 9.70152 5.08203 9.85026 5.08203 10.0005C5.08203 10.1507 5.05207 10.2995 4.9939 10.438H4.9929Z" fill="#0F1A1C"/>
</svg>
