<svg width="20" height="20" viewBox="0 0 20 20" fill="none" xmlns="http://www.w3.org/2000/svg">
<g clip-path="url(#clip0_3595_128)">
<path d="M19.4683 7.8229L19.4683 7.82291L19.4705 7.82962C19.5034 7.92782 19.5099 8.03293 19.4892 8.1344C19.4686 8.23588 19.4217 8.33014 19.3531 8.40772L19.353 8.40785L15.714 12.5268L15.5707 12.689L15.5908 12.9045L16.1018 18.3655L16.1019 18.3666C16.11 18.4501 16.1004 18.5343 16.0738 18.6139C16.0473 18.6934 16.0044 18.7665 15.9478 18.8284C15.8913 18.8904 15.8224 18.9397 15.7456 18.9734C15.6688 19.0071 15.5858 19.0243 15.5019 19.0239L15.4987 19.0239C15.4165 19.0241 15.3352 19.0074 15.2598 18.9748L15.259 18.9745L10.197 16.8005L9.99974 16.7158L9.80249 16.8004L4.73649 18.9744L4.73409 18.9755C4.63832 19.0171 4.53332 19.0331 4.42948 19.0218C4.32564 19.0104 4.22656 18.9722 4.14204 18.9108C4.05752 18.8494 3.99049 18.767 3.94757 18.6718C3.90466 18.5766 3.88735 18.4718 3.89737 18.3678L3.89746 18.3668L4.41246 12.9028L4.43279 12.6872L4.28938 12.5248L0.651251 8.40684C0.651115 8.40668 0.650979 8.40653 0.650842 8.40637C0.582245 8.32815 0.535164 8.23343 0.514227 8.13151C0.493248 8.02939 0.49924 7.92356 0.531613 7.82446C0.563986 7.72536 0.621622 7.63641 0.698842 7.56636C0.776062 7.49632 0.8702 7.4476 0.971979 7.42502L0.972938 7.42481L6.34894 6.22081L6.55915 6.17373L6.66933 5.98861L9.46999 1.28293C9.52787 1.19901 9.60497 1.13006 9.69492 1.08186C9.78803 1.03197 9.89203 1.00586 9.99767 1.00586C10.1033 1.00586 10.2073 1.03197 10.3004 1.08186C10.3904 1.13006 10.4675 1.19903 10.5254 1.28298L13.3301 5.99272L13.4404 6.17793L13.6508 6.22489L19.0278 7.4249L19.031 7.42559C19.1324 7.44752 19.2262 7.4958 19.303 7.56555C19.3798 7.6353 19.4368 7.72407 19.4683 7.8229ZM8.05517 13.91C8.63074 14.2946 9.30743 14.4999 9.99967 14.4999C10.9279 14.4999 11.8182 14.1311 12.4745 13.4748C13.1309 12.8184 13.4997 11.9282 13.4997 10.9999C13.4997 10.3077 13.2944 9.63097 12.9098 9.0554C12.5252 8.47983 11.9786 8.03122 11.3391 7.76631C10.6995 7.50141 9.99578 7.4321 9.31685 7.56714C8.63792 7.70219 8.01428 8.03553 7.52479 8.52502C7.03531 9.0145 6.70197 9.63814 6.56692 10.3171C6.43187 10.996 6.50118 11.6997 6.76609 12.3393C7.03099 12.9788 7.4796 13.5255 8.05517 13.91Z" fill="#0F1A1C" stroke="#0F1A1C"/>
</g>
<defs>
<clipPath id="clip0_3595_128">
<rect width="20" height="20" fill="white"/>
</clipPath>
</defs>
</svg>
