<svg width="20" height="20" viewBox="0 0 20 20" fill="none" xmlns="http://www.w3.org/2000/svg">
<path d="M1 14.5H19V17.881C19 18.1776 18.8822 18.4621 18.6726 18.6719C18.463 18.8817 18.1786 18.9997 17.882 19H2.118C1.8214 18.9997 1.53703 18.8817 1.32739 18.6719C1.11776 18.4621 1 18.1776 1 17.881V14.5ZM19 2.119C19 1.8224 18.8822 1.53793 18.6726 1.3281C18.463 1.11828 18.1786 1.00027 17.882 1H2.118C1.8214 1.00027 1.53703 1.11828 1.32739 1.3281C1.11776 1.53793 1 1.8224 1 2.119V5.5H19V2.119ZM19 9.362V7.5H1V12.5H19V9.362Z" fill="#0F1A1C"/>
</svg>
