<svg width="20" height="20" viewBox="0 0 20 20" fill="none" xmlns="http://www.w3.org/2000/svg">
<path d="M9.847 0.375999L9.868 1.626C9.24665 1.63587 8.62827 1.714 8.024 1.859L7.731 0.644999C8.42423 0.477464 9.1339 0.387247 9.847 0.375999ZM3.931 2.529L4.72 3.499C5.20136 3.10892 5.72457 2.77352 6.28 2.499L5.726 1.379C5.08675 1.69437 4.48469 2.08009 3.931 2.529ZM19.318 7.582C19.1391 6.89116 18.8839 6.22237 18.557 5.588L17.445 6.162C17.7304 6.71478 17.9531 7.29773 18.109 7.9L19.318 7.582ZM1.829 8.154L0.61 7.88C0.453706 8.57583 0.374893 9.28683 0.375 10H1.625C1.62456 9.37902 1.69298 8.7599 1.829 8.154ZM3.418 4.823L2.436 4.049C1.99389 4.6096 1.61556 5.21768 1.308 5.862L2.437 6.4C2.70416 5.83939 3.0332 5.31043 3.418 4.823ZM10.4 18.366L10.459 19.615C11.1719 19.5817 11.8789 19.4693 12.567 19.28L12.235 18.075C11.636 18.2397 11.0206 18.3373 10.4 18.366ZM16.748 14.966L17.748 15.709C18.1728 15.1351 18.5318 14.5152 18.818 13.861L17.674 13.361C17.4245 13.9283 17.1129 14.4663 16.745 14.965L16.748 14.966ZM15.83 2.341L15.072 3.334C15.5651 3.71181 16.0157 4.14199 16.416 4.617L17.373 3.817C16.9144 3.26987 16.3969 2.77488 15.83 2.341ZM11.971 0.576999L11.717 1.8C12.3242 1.92686 12.9155 2.12072 13.48 2.378L14 1.243C13.3506 0.945974 12.6701 0.722583 11.971 0.576999ZM19.62 9.7L18.37 9.739V10.005C18.3697 10.5372 18.3195 11.0682 18.22 11.591L19.448 11.826C19.5643 11.2242 19.6235 10.6129 19.625 10L19.62 9.7ZM13.955 17.389L14.547 18.489C15.1739 18.1496 15.7618 17.7425 16.3 17.275L15.481 16.331C15.0125 16.737 14.5008 17.0901 13.955 17.384V17.389ZM1.371 11.112C1.22565 11.1591 1.09897 11.2511 1.00914 11.3747C0.919307 11.4983 0.870947 11.6472 0.871 11.8V16.361C0.871139 16.4756 0.898393 16.5885 0.950534 16.6905C1.00268 16.7925 1.07822 16.8808 1.171 16.948L1.521 17.148L4.559 16.136C4.66829 16.1 4.76745 16.0385 4.8483 15.9566C4.92914 15.8747 4.98937 15.7747 5.024 15.665L5.105 15.265L2.18 11.365C2.08865 11.2434 1.96141 11.1536 1.81626 11.1082C1.6711 11.0628 1.51535 11.0641 1.371 11.112Z" fill="#0F1A1C"/>
</svg>
