<svg width="20" height="20" viewBox="0 0 20 20" fill="none" xmlns="http://www.w3.org/2000/svg">
<path d="M16.8667 1.75H14.8757V1.5H18.3757C18.4089 1.5 18.4407 1.51317 18.4641 1.53661C18.4875 1.56005 18.5007 1.59185 18.5007 1.625V5.125H18.2507V3.134V1.92689L17.3972 2.78045L13.8692 6.30845L13.5439 6.63373L13.841 6.98493C15.0103 8.36715 15.6001 10.1478 15.4871 11.9548C15.3742 13.7617 14.5672 15.455 13.2348 16.6809C11.9024 17.9067 10.1478 18.5701 8.33776 18.5324C6.52769 18.4947 4.80222 17.7589 3.52203 16.4787C2.24184 15.1985 1.506 13.473 1.46832 11.6629C1.43064 9.85287 2.09404 8.09828 3.31985 6.76592C4.54566 5.43356 6.23901 4.62656 8.04595 4.51359C9.85289 4.40062 11.6336 4.99042 13.0158 6.15973L13.367 6.45683L13.6923 6.13155L17.2203 2.60355L18.0738 1.75H16.8667ZM8.50071 18.25H8.50127C10.2907 18.248 12.0063 17.5363 13.2716 16.2709C14.537 15.0056 15.2487 13.29 15.2507 11.5006V11.5C15.2507 10.165 14.8548 8.85993 14.1131 7.7499C13.3714 6.63987 12.3172 5.7747 11.0838 5.26381C9.85042 4.75292 8.49322 4.61925 7.18385 4.8797C5.87448 5.14015 4.67174 5.78302 3.72774 6.72703C2.78374 7.67103 2.14086 8.87377 1.88041 10.1831C1.61996 11.4925 1.75363 12.8497 2.26452 14.0831C2.77542 15.3165 3.64058 16.3707 4.75061 17.1124C5.86064 17.8541 7.16569 18.25 8.50071 18.25Z" fill="#0F1A1C" stroke="#0F1A1C"/>
</svg>
