<svg width="20" height="20" viewBox="0 0 20 20" fill="none" xmlns="http://www.w3.org/2000/svg">
<path d="M18.951 9.392H17.661C17.3644 8.27211 16.7686 7.25406 15.9375 6.44704C15.1063 5.64001 14.0711 5.07445 12.943 4.811V6.286C12.9433 6.39998 12.911 6.51169 12.8501 6.60803C12.7892 6.70437 12.7021 6.78136 12.599 6.83C12.4956 6.87781 12.3809 6.89557 12.2679 6.88125C12.1549 6.86692 12.0482 6.82109 11.96 6.749L9.036 4.311L9 4C9.00003 3.91227 9.01929 3.82561 9.05644 3.74613C9.09359 3.66666 9.14771 3.59629 9.215 3.54L11.959 1.252C12.0466 1.17902 12.1532 1.13252 12.2663 1.11794C12.3794 1.10337 12.4943 1.12132 12.5975 1.16969C12.7008 1.21807 12.7881 1.29486 12.8493 1.39109C12.9105 1.48731 12.943 1.59897 12.943 1.713V3.513C14.4093 3.79887 15.7597 4.508 16.8274 5.5528C17.8951 6.5976 18.6334 7.93229 18.951 9.392ZM7.6 1.17C7.4964 1.12212 7.3814 1.10441 7.2682 1.11892C7.155 1.13342 7.04818 1.17955 6.96 1.252L4.215 3.54C4.14771 3.59629 4.09359 3.66666 4.05644 3.74613C4.01929 3.82561 4.00003 3.91227 4 4L4.036 4.311L6.96 6.749C7.04776 6.82178 7.15445 6.86804 7.26756 6.88238C7.38067 6.89672 7.49552 6.87853 7.59867 6.82995C7.70181 6.78136 7.78898 6.7044 7.84996 6.60806C7.91095 6.51173 7.94322 6.40001 7.943 6.286V1.713C7.94316 1.59929 7.911 1.48787 7.85027 1.39174C7.78955 1.2956 7.70275 1.2187 7.6 1.17ZM4.363 11.529V12.877L6.045 12.077V18.909H7.486V10.27H7.018L4.363 11.529ZM15.263 12.024C15.5432 12.6879 15.6795 13.4036 15.663 14.124V15.091C15.6799 15.8069 15.5435 16.5181 15.263 17.177C15.0282 17.7273 14.6383 18.1974 14.141 18.53C13.6401 18.8377 13.0635 19 12.4756 18.999C11.8878 18.9979 11.3118 18.8335 10.812 18.524C10.3122 18.1894 9.91975 17.7175 9.682 17.165C9.40076 16.5106 9.26431 15.8031 9.282 15.091V14.124C9.26513 13.3963 9.4078 12.6737 9.7 12.007C9.94312 11.4524 10.3397 10.9788 10.843 10.642C11.3388 10.3322 11.912 10.1687 12.4967 10.1701C13.0813 10.1715 13.6537 10.3379 14.148 10.65C14.6434 10.9925 15.0308 11.4691 15.265 12.024H15.263ZM14.236 13.9C14.2824 13.2542 14.1201 12.6106 13.773 12.064C13.6256 11.8647 13.4315 11.7046 13.2078 11.5977C12.9841 11.4909 12.7377 11.4405 12.49 11.451C12.2335 11.4391 11.9781 11.4922 11.7477 11.6055C11.5172 11.7188 11.3192 11.8886 11.172 12.099C10.8341 12.6362 10.6722 13.2654 10.709 13.899V15.299C10.6993 15.7392 10.7718 16.1774 10.923 16.591C11.0431 16.9262 11.2577 17.2193 11.541 17.435C11.8183 17.6361 12.1535 17.7414 12.496 17.735C12.8227 17.7425 13.1436 17.647 13.413 17.462C13.6915 17.2555 13.9027 16.9713 14.02 16.645C14.1752 16.2151 14.2484 15.7599 14.236 15.303V13.9Z" fill="#0F1A1C"/>
</svg>
