<svg width="20" height="20" viewBox="0 0 20 20" fill="none" xmlns="http://www.w3.org/2000/svg">
<path d="M15.379 1.01123H4.621C3.39584 1.01255 2.22124 1.49983 1.35492 2.36615C0.488602 3.23247 0.0013235 4.40707 0 5.63223V11.3912C0.00158811 12.6162 0.488984 13.7906 1.35527 14.6567C2.22156 15.5228 3.39601 16.0099 4.621 16.0112H6.621L10 19.2522L13.376 16.0112H15.376C16.6015 16.0107 17.7767 15.5239 18.6437 14.6577C19.5106 13.7915 19.9984 12.6167 20 11.3912V5.63223C19.9987 4.40707 19.5114 3.23247 18.6451 2.36615C17.7788 1.49983 16.6042 1.01255 15.379 1.01123ZM10.149 13.6602C9.96274 13.845 9.71134 13.9491 9.449 13.9502C9.18389 13.9483 8.92968 13.8444 8.739 13.6602C8.55309 13.4707 8.44895 13.2157 8.44895 12.9502C8.44895 12.6847 8.55309 12.4298 8.739 12.2402L8.889 12.1202C8.94126 12.0826 8.99846 12.0523 9.059 12.0302C9.11962 12.0025 9.18344 11.9823 9.249 11.9702C9.37727 11.9402 9.51073 11.9402 9.639 11.9702C9.70523 11.9795 9.76945 11.9998 9.829 12.0302C9.89047 12.0501 9.94799 12.0806 9.999 12.1202C10.0525 12.1552 10.1024 12.1954 10.148 12.2402C10.2432 12.3324 10.3189 12.4427 10.3706 12.5647C10.4223 12.6866 10.4489 12.8178 10.4489 12.9502C10.4489 13.0827 10.4223 13.2138 10.3706 13.3358C10.3189 13.4578 10.2432 13.5681 10.148 13.6602H10.149ZM11.688 8.76023C10.912 9.16023 10.642 9.41523 10.547 9.89423C10.547 9.90023 10.503 10.1552 10.501 10.1612C10.4637 10.3194 10.3854 10.4649 10.274 10.5832C10.1872 10.6695 10.084 10.7374 9.97044 10.7829C9.85688 10.8284 9.73532 10.8507 9.613 10.8482C9.48841 10.8477 9.36488 10.8254 9.248 10.7822C9.1354 10.7367 9.03331 10.6687 8.948 10.5822C8.77101 10.403 8.67184 10.1611 8.672 9.90923C8.67598 9.75845 8.7075 9.60967 8.765 9.47023C9.01369 8.83249 9.48909 8.30902 10.1 8.00023C10.828 7.59023 11.159 7.30023 11.159 6.65023C11.159 6.12023 10.709 5.75023 9.914 5.75023C9.27519 5.77387 8.66079 6.00169 8.161 6.40023C8.00738 6.52553 7.81407 6.59186 7.61589 6.58728C7.4177 6.5827 7.22766 6.5075 7.08 6.37523L7.015 6.31423C6.92381 6.22733 6.853 6.12132 6.80765 6.0038C6.76231 5.88629 6.74355 5.76019 6.75273 5.63456C6.76191 5.50894 6.79879 5.3869 6.86074 5.27722C6.92268 5.16755 7.00815 5.07295 7.111 5.00023C7.98984 4.36194 9.05303 4.02802 10.139 4.04923C12.151 4.04923 13.25 5.06823 13.25 6.47223C13.2513 6.96713 13.1027 7.45082 12.8239 7.85972C12.5451 8.26863 12.1491 8.5836 11.688 8.76323V8.76023Z" fill="#0F1A1C"/>
</svg>
