<svg width="20" height="20" viewBox="0 0 20 20" fill="none" xmlns="http://www.w3.org/2000/svg">
<path d="M6.82311 19.228C5.62679 19.2275 4.45747 18.8723 3.46286 18.2076C2.46826 17.5428 1.69299 16.5981 1.23499 15.4929C0.776997 14.3878 0.656822 13.1716 0.889649 11.9982C1.12248 10.8247 1.69786 9.74661 2.54311 8.90001L10.0871 1.35601C10.9065 0.53662 12.0178 0.0762939 13.1766 0.0762939C14.3354 0.0762939 15.4467 0.53662 16.2661 1.35601C17.0855 2.17539 17.5458 3.28672 17.5458 4.44551C17.5458 5.60429 17.0855 6.71562 16.2661 7.53501L8.72211 15.075C8.2182 15.5789 7.53475 15.862 6.82211 15.862C6.10947 15.862 5.42602 15.5789 4.92211 15.075C4.4182 14.5711 4.13511 13.8876 4.13511 13.175C4.13511 12.4624 4.4182 11.7789 4.92211 11.275L12.2704 3.93376L13.6844 5.34776L6.33911 12.692C6.21539 12.8214 6.14728 12.9942 6.14935 13.1732C6.15142 13.3523 6.22351 13.5234 6.35018 13.6499C6.47686 13.7765 6.64805 13.8484 6.82709 13.8503C7.00614 13.8522 7.1788 13.7839 7.30811 13.66L14.8521 6.11701C15.076 5.89776 15.2541 5.6363 15.3763 5.34776C15.4984 5.05921 15.5621 4.74931 15.5637 4.43598C15.5653 4.12265 15.5048 3.81211 15.3856 3.52233C15.2664 3.23255 15.091 2.96928 14.8694 2.74775C14.6478 2.52622 14.3844 2.35083 14.0946 2.23173C13.8048 2.11263 13.4943 2.05218 13.1809 2.05388C12.8676 2.05558 12.5577 2.11939 12.2692 2.24162C11.9807 2.36386 11.7193 2.54209 11.5001 2.76601L3.95711 10.31C3.20788 11.0725 2.79016 12.1001 2.79486 13.1691C2.79957 14.2381 3.22631 15.262 3.98221 16.0179C4.73812 16.7738 5.762 17.2006 6.831 17.2053C7.9 17.21 8.92759 16.7922 9.69011 16.043L17.6311 8.10001L19.0451 9.51401L11.1001 17.457C10.5388 18.0191 9.87208 18.4649 9.13814 18.7688C8.4042 19.0727 7.61748 19.2288 6.82311 19.228Z" fill="#0F1A1C"/>
</svg>
