<svg width="20" height="20" viewBox="0 0 20 20" fill="none" xmlns="http://www.w3.org/2000/svg">
<path d="M15.5853 2.5H13.4993V1.5H17.9993C18.1319 1.5 18.2591 1.55268 18.3529 1.64645C18.4466 1.74021 18.4993 1.86739 18.4993 2V6.5H17.4993V4.414V3.20689L16.6458 4.06045L14.1007 6.60545L13.7914 6.91478L14.0569 7.26246C15.1391 8.67949 15.6422 10.4548 15.4643 12.2289C15.2865 14.003 14.441 15.6432 13.0991 16.8172C11.7573 17.9913 10.0193 18.6114 8.23735 18.552C6.45537 18.4927 4.76257 17.7582 3.50182 16.4975C2.24107 15.2367 1.50663 13.5439 1.44726 11.7619C1.38789 9.97997 2.00804 8.24203 3.18208 6.90017C4.35613 5.5583 5.9963 4.71282 7.77038 4.53499C9.54445 4.35715 11.3198 4.86025 12.7368 5.94238L13.0845 6.20789L13.3939 5.89855L15.9389 3.35355L16.7924 2.5H15.5853ZM8.4993 17.5H8.49985C10.0905 17.4983 11.6154 16.8656 12.7402 15.7409C13.8649 14.6161 14.4976 13.0912 14.4993 11.5005V11.5C14.4993 10.3133 14.1474 9.15327 13.4881 8.16658C12.8288 7.17988 11.8918 6.41085 10.7954 5.95672C9.69905 5.5026 8.49265 5.38378 7.32876 5.61529C6.16488 5.8468 5.09578 6.41824 4.25666 7.25736C3.41755 8.09647 2.8461 9.16557 2.61459 10.3295C2.38308 11.4933 2.5019 12.6997 2.95603 13.7961C3.41015 14.8925 4.17919 15.8295 5.16588 16.4888C6.15258 17.1481 7.31262 17.5 8.4993 17.5Z" fill="#0F1A1C" stroke="#0F1A1C"/>
</svg>
