<svg width="20" height="20" viewBox="0 0 20 20" fill="none" xmlns="http://www.w3.org/2000/svg">
<path d="M19.9429 7.659C19.8801 7.46424 19.7662 7.28993 19.6129 7.1543C19.4597 7.01866 19.2728 6.92669 19.0719 6.888L13.6719 5.842L10.9999 1.024C10.8917 0.857257 10.7436 0.720209 10.5689 0.625327C10.3943 0.530445 10.1987 0.480743 9.99991 0.480743C9.80115 0.480743 9.60554 0.530445 9.43089 0.625327C9.25624 0.720209 9.10808 0.857257 8.99991 1.024L6.33291 5.842L0.927907 6.888C0.728199 6.92751 0.542636 7.01955 0.390336 7.15464C0.238036 7.28973 0.124508 7.46299 0.061446 7.65655C-0.00161561 7.85012 -0.0119293 8.05699 0.0315674 8.25587C0.0750641 8.45475 0.170798 8.63844 0.308907 8.788L4.06591 12.812L3.39191 18.28C3.36655 18.483 3.39607 18.689 3.47739 18.8767C3.55871 19.0643 3.68886 19.2268 3.85428 19.3471C4.0197 19.4673 4.21435 19.5411 4.41795 19.5606C4.62154 19.5801 4.82665 19.5447 5.01191 19.458L9.99991 17.127L14.9879 19.458C15.1731 19.5446 15.3781 19.58 15.5816 19.5606C15.7851 19.5411 15.9796 19.4674 16.145 19.3473C16.3104 19.2271 16.4406 19.0648 16.522 18.8773C16.6034 18.6898 16.6331 18.4839 16.6079 18.281L15.9339 12.817L19.6909 8.793C19.8307 8.64393 19.9278 8.46001 19.9722 8.26051C20.0165 8.06101 20.0064 7.85326 19.9429 7.659Z" fill="#0F1A1C"/>
</svg>
