<svg width="20" height="20" viewBox="0 0 20 20" fill="none" xmlns="http://www.w3.org/2000/svg">
<path d="M2.50006 8.391H2.50018L2.49994 8.37994C2.45479 6.33969 3.22015 4.36473 4.62835 2.88771C6.0336 1.41377 7.96468 0.555611 10.0001 0.500174C12.0354 0.555611 13.9665 1.41377 15.3718 2.88771C16.78 4.36473 17.5453 6.33969 17.5002 8.37994L17.5001 8.37994V8.391C17.5001 11.0733 15.8996 13.6536 14.1233 15.6776C12.3599 17.6868 10.4981 19.0636 10.1245 19.3318L10.018 19.408L9.85453 19.3159C9.43484 19.0134 7.6084 17.6503 5.87697 15.6776C4.10056 13.6536 2.50006 11.0733 2.50006 8.391ZM9.99693 11.8L9.99857 11.8C11.0234 11.803 12.0076 11.3989 12.7345 10.6765C13.4615 9.95407 13.8717 8.9725 13.8751 7.94763V7.94599C13.875 7.18477 13.6496 6.44061 13.2272 5.80735C12.8048 5.1741 12.2043 4.68012 11.5014 4.38772C10.7986 4.09533 10.0249 4.01761 9.27801 4.16437C8.53108 4.31114 7.84433 4.6758 7.30439 5.21239C6.76445 5.74897 6.3955 6.43342 6.24408 7.17943C6.09266 7.92544 6.16555 8.69958 6.45355 9.40421C6.74155 10.1088 7.23177 10.7124 7.86238 11.1388C8.49298 11.5651 9.23572 11.7952 9.99693 11.8Z" fill="#0F1A1C" stroke="#0F1A1C"/>
</svg>
