<svg width="20" height="20" viewBox="0 0 20 20" fill="none" xmlns="http://www.w3.org/2000/svg">
<g clip-path="url(#clip0_1134_73)">
<path d="M14 10.625H6V9.375H14V10.625ZM20 10C20 8.02219 19.4135 6.08879 18.3147 4.4443C17.2159 2.79981 15.6541 1.51809 13.8268 0.761209C11.9996 0.00433284 9.98891 -0.193701 8.0491 0.192152C6.10929 0.578004 4.32746 1.53041 2.92894 2.92894C1.53041 4.32746 0.578004 6.10929 0.192152 8.0491C-0.193701 9.98891 0.00433284 11.9996 0.761209 13.8268C1.51809 15.6541 2.79981 17.2159 4.4443 18.3147C6.08879 19.4135 8.02219 20 10 20C12.6513 19.9971 15.1931 18.9426 17.0679 17.0679C18.9426 15.1931 19.9971 12.6513 20 10ZM18.75 10C18.75 11.7306 18.2368 13.4223 17.2754 14.8612C16.3139 16.3002 14.9473 17.4217 13.3485 18.084C11.7496 18.7462 9.9903 18.9195 8.29296 18.5819C6.59563 18.2443 5.03653 17.4109 3.81282 16.1872C2.58911 14.9635 1.75575 13.4044 1.41813 11.707C1.08051 10.0097 1.25379 8.25038 1.91606 6.65152C2.57833 5.05267 3.69983 3.68611 5.13876 2.72465C6.57769 1.76318 8.26942 1.25 10 1.25C12.3198 1.25265 14.5439 2.17537 16.1843 3.81574C17.8246 5.45611 18.7474 7.68017 18.75 10Z" fill="#0F1A1C"/>
</g>
<defs>
<clipPath id="clip0_1134_73">
<rect width="20" height="20" fill="white"/>
</clipPath>
</defs>
</svg>
