<svg width="20" height="20" viewBox="0 0 20 20" fill="none" xmlns="http://www.w3.org/2000/svg">
<g clip-path="url(#clip0_797_61)">
<path d="M7.3508 7.33301H5.7318V6.77001H6.2118V5.23001C6.0643 5.29752 5.90492 5.33525 5.7428 5.34101V4.83401C5.92035 4.84363 6.09467 4.78373 6.2288 4.66701H6.9288V6.76701H7.34781L7.3508 7.33301ZM6.5828 9.25301C6.7468 9.25301 6.84081 9.33501 6.84081 9.48301C6.84081 9.70301 6.7258 9.75901 6.3248 10.005C5.6248 10.427 5.5568 10.811 5.5568 11.19V11.333H7.53181V10.769H6.37381C6.41281 10.663 6.5228 10.533 6.8568 10.345C7.3948 10.055 7.5158 9.76401 7.5158 9.46701C7.5158 8.97901 7.21581 8.66701 6.5998 8.66701C6.38355 8.66537 6.17107 8.72364 5.98591 8.83537C5.80076 8.9471 5.65016 9.10792 5.55081 9.30001L6.0288 9.64501C6.08093 9.5385 6.15898 9.44679 6.25578 9.3783C6.35257 9.30981 6.46502 9.26673 6.5828 9.25301ZM7.1188 13.913C7.23401 13.8775 7.33415 13.8046 7.40347 13.706C7.4728 13.6073 7.50739 13.4885 7.5018 13.368C7.5018 12.93 7.1888 12.668 6.6018 12.668C6.22607 12.6641 5.8638 12.8077 5.5928 13.068L5.9608 13.495C6.03642 13.4145 6.12743 13.35 6.22844 13.3054C6.32944 13.2607 6.43838 13.2368 6.5488 13.235C6.7268 13.235 6.8238 13.316 6.8238 13.446C6.8238 13.602 6.7238 13.699 6.3758 13.699H6.1578V14.181H6.3628C6.7188 14.181 6.8698 14.267 6.8698 14.488C6.8698 14.65 6.7698 14.768 6.4868 14.768C6.37233 14.7629 6.26086 14.7298 6.16217 14.6716C6.06349 14.6133 5.9806 14.5318 5.9208 14.434L5.4998 14.8C5.61581 14.9691 5.77256 15.1061 5.95555 15.1986C6.13855 15.2911 6.34189 15.3359 6.5468 15.329C7.1728 15.329 7.5828 15.043 7.5828 14.503C7.58773 14.3657 7.54382 14.231 7.45887 14.123C7.37392 14.015 7.25343 13.9406 7.1188 13.913ZM8.9998 10.625H14.9998V9.37501H8.9998V10.625ZM8.9998 14.625H14.9998V13.375H8.9998V14.625ZM8.9998 6.62501H14.9998V5.37501H8.9998V6.62501ZM17.9998 1.61101V18.882C17.9985 19.1793 17.8793 19.464 17.6684 19.6736C17.4575 19.8831 17.1721 20.0005 16.8748 20H4.1748C3.87748 20.0005 3.59209 19.8831 3.38119 19.6736C3.1703 19.464 3.05113 19.1793 3.0498 18.882V4.25001H2.1748C1.8766 4.24948 1.59076 4.13078 1.37989 3.91992C1.16903 3.70906 1.05033 3.42321 1.0498 3.12501V1.62501C1.05033 1.19419 1.22171 0.781176 1.52634 0.476544C1.83097 0.171912 2.24399 0.000537061 2.6748 7.80426e-06H16.3748C16.8038 -0.00132277 17.2157 0.167534 17.5204 0.469542C17.825 0.77155 17.9974 1.18205 17.9998 1.61101ZM2.2998 3.00001H3.0498V1.62501C3.0498 1.52555 3.0103 1.43017 2.93997 1.35984C2.86964 1.28952 2.77426 1.25001 2.6748 1.25001C2.57535 1.25001 2.47997 1.28952 2.40964 1.35984C2.33931 1.43017 2.2998 1.52555 2.2998 1.62501V3.00001ZM16.7498 1.61101C16.7477 1.51349 16.7071 1.42077 16.6368 1.35312C16.5665 1.28547 16.4723 1.2484 16.3748 1.25001H4.2518C4.28257 1.37267 4.29868 1.49855 4.2998 1.62501V18.75H16.7498V1.61101Z" fill="#0F1A1C"/>
</g>
<defs>
<clipPath id="clip0_797_61">
<rect width="20" height="20" fill="white"/>
</clipPath>
</defs>
</svg>
