<svg width="20" height="20" viewBox="0 0 20 20" fill="none" xmlns="http://www.w3.org/2000/svg">
<g clip-path="url(#clip0_1564_85)">
<path d="M18.78 6.91097C18.5283 6.43001 18.1789 6.00689 17.7543 5.6687C17.3297 5.33051 16.8391 5.08469 16.314 4.94697C14.4362 4.40002 12.4945 4.1028 10.539 4.06297L11.422 1.36897L13.879 1.89097C13.9702 2.21919 14.1708 2.5064 14.4476 2.70498C14.7244 2.90355 15.0607 3.00158 15.4008 2.9828C15.741 2.96402 16.0645 2.82957 16.3177 2.60173C16.571 2.37389 16.7387 2.06635 16.7932 1.73009C16.8477 1.39383 16.7857 1.04904 16.6174 0.752875C16.4491 0.456713 16.1846 0.226965 15.8678 0.101717C15.551 -0.0235308 15.2009 -0.036757 14.8756 0.0642311C14.5502 0.165219 14.2692 0.374356 14.079 0.656974L11.573 0.123974C11.2929 0.0627189 10.9999 0.11164 10.7549 0.260592C10.5099 0.409543 10.3316 0.647094 10.257 0.923974L9.247 3.99397L9.465 4.06497C7.50814 4.10374 5.56498 4.40098 3.686 4.94897C3.16109 5.08646 2.67064 5.33197 2.24601 5.66981C1.82139 6.00765 1.47194 6.43038 1.22 6.91097C0.443659 8.4951 0.0400391 10.2358 0.0400391 12C0.0400391 13.7641 0.443659 15.5049 1.22 17.089C1.47172 17.5699 1.82108 17.9931 2.24571 18.3312C2.67035 18.6694 3.16091 18.9153 3.686 19.053C5.73612 19.6573 7.86268 19.9628 10 19.96C12.1373 19.9628 14.2639 19.6573 16.314 19.053C16.8391 18.9153 17.3297 18.6694 17.7543 18.3312C18.1789 17.9931 18.5283 17.5699 18.78 17.089C19.5564 15.5049 19.96 13.7641 19.96 12C19.96 10.2358 19.5564 8.4951 18.78 6.91097ZM13.78 12.038L7.9 15.833C7.84708 15.8668 7.78606 15.8858 7.72329 15.888C7.66053 15.8902 7.59832 15.8755 7.54316 15.8455C7.488 15.8154 7.44191 15.7712 7.4097 15.7173C7.37748 15.6633 7.36032 15.6018 7.36 15.539V7.94697C7.35999 7.88404 7.37695 7.82227 7.40909 7.76816C7.44124 7.71405 7.48737 7.66961 7.54265 7.63952C7.59792 7.60943 7.66028 7.59479 7.72317 7.59716C7.78606 7.59953 7.84715 7.61881 7.9 7.65297L13.783 11.453C13.8326 11.4846 13.8733 11.5282 13.9016 11.5798C13.9298 11.6313 13.9447 11.6892 13.9447 11.748C13.9447 11.8068 13.9298 11.8646 13.9016 11.9162C13.8733 11.9677 13.8326 12.0113 13.783 12.043L13.78 12.038Z" fill="#0F1A1C"/>
</g>
<defs>
<clipPath id="clip0_1564_85">
<rect width="20" height="20" fill="white"/>
</clipPath>
</defs>
</svg>
