<svg width="20" height="20" viewBox="0 0 20 20" fill="none" xmlns="http://www.w3.org/2000/svg">
<path d="M13.5 12.3758V12.375L13.5 7.625L13.5 7.62424C13.4987 6.79603 13.1692 6.0021 12.5835 5.41646C11.9979 4.83082 11.204 4.50126 10.3758 4.5H10.375L5.625 4.5L5.62424 4.5C4.79603 4.50126 4.0021 4.83082 3.41646 5.41646C2.83082 6.0021 2.50126 6.79603 2.5 7.62424V7.625L2.5 12.375L2.5 12.3758C2.50126 13.204 2.83082 13.9979 3.41646 14.5835C4.0021 15.1692 4.79603 15.4987 5.62424 15.5H5.625L10.375 15.5L10.3758 15.5C11.204 15.4987 11.9979 15.1692 12.5835 14.5835C13.1692 13.9979 13.4987 13.204 13.5 12.3758ZM15.5827 11.1199L15.593 11.1201L15.6034 11.1198C15.6898 11.1175 15.7758 11.1087 15.8609 11.0935C15.9651 11.0778 16.0666 11.0471 16.1621 11.0026C16.2531 10.9692 16.3391 10.9235 16.4176 10.8667C16.5037 10.8141 16.5822 10.75 16.651 10.6761C16.9281 10.3963 17.0856 10.0196 17.09 9.62556L17.0901 9.61607L17.0898 9.60659C17.0875 9.52023 17.0787 9.43417 17.0635 9.34914C17.0478 9.24485 17.0171 9.14341 16.9726 9.04792C16.9375 8.95216 16.8887 8.86196 16.8277 8.78014C16.7737 8.69998 16.7122 8.62516 16.6439 8.55674L16.644 8.55664L16.6351 8.54816C16.4248 8.34762 16.1614 8.21156 15.8762 8.15609C15.5927 8.10098 15.2995 8.12775 15.0307 8.23322C14.8441 8.30335 14.6741 8.41165 14.5317 8.55121C14.4545 8.6255 14.3886 8.71052 14.3358 8.80361C14.2854 8.87579 14.2416 8.95243 14.205 9.0326L14.197 9.05016L14.1904 9.06828C14.1598 9.15195 14.1365 9.23808 14.1206 9.32572C14.0964 9.4257 14.0861 9.52856 14.09 9.63139C14.0922 10.0243 14.2478 10.4011 14.524 10.6811L14.5295 10.6867L14.5352 10.6921C14.8181 10.9614 15.1921 11.1142 15.5827 11.1199ZM16.6408 7.68628L16.6425 7.68463C16.9248 7.40399 17.0855 7.02362 17.09 6.62556L17.0901 6.61607L17.0898 6.60659C17.0875 6.52023 17.0787 6.43417 17.0635 6.34914C17.0478 6.24485 17.0171 6.14341 16.9726 6.04793C16.9375 5.95216 16.8887 5.86196 16.8277 5.78014C16.7737 5.69997 16.7122 5.62516 16.6439 5.55675L16.644 5.55664L16.6351 5.54816C16.4248 5.34762 16.1614 5.21155 15.8762 5.15609C15.5927 5.10098 15.2995 5.12775 15.0307 5.23322C14.8441 5.30335 14.6741 5.41167 14.5317 5.55125C14.4545 5.62553 14.3885 5.71054 14.3358 5.80361C14.2854 5.87579 14.2416 5.95243 14.205 6.0326L14.197 6.05016L14.1904 6.06828C14.1598 6.15195 14.1365 6.23808 14.1206 6.32572C14.0964 6.4257 14.0861 6.52856 14.09 6.63139C14.0922 7.02432 14.2478 7.40106 14.524 7.68108L14.524 7.68112L14.5291 7.68619C14.6683 7.82333 14.8341 7.9305 15.0161 8.00119C15.1988 8.0839 15.3978 8.12452 15.5985 8.11994C15.9889 8.1157 16.3625 7.96029 16.6408 7.68628ZM1.62533 2.5H18.3747C18.673 2.50044 18.959 2.61914 19.1699 2.83009C19.3809 3.0411 19.4996 3.3272 19.5 3.62561V16.3744C19.4996 16.6728 19.3809 16.9589 19.1699 17.1699C18.9589 17.3809 18.6728 17.4996 18.3744 17.5H1.62561C1.32719 17.4996 1.0411 17.3809 0.83009 17.1699C0.619143 16.959 0.500442 16.673 0.5 16.3747V3.62533C0.500442 3.32701 0.619143 3.04104 0.830089 2.83009C1.04104 2.61914 1.32701 2.50044 1.62533 2.5Z" fill="#0F1A1C" stroke="#0F1A1C"/>
</svg>
