<svg width="20" height="20" viewBox="0 0 20 20" fill="none" xmlns="http://www.w3.org/2000/svg">
<g clip-path="url(#clip0_1661_29)">
<path d="M17.884 19H2.118C1.82299 19.0013 1.53951 18.8855 1.32987 18.6779C1.12024 18.4703 1.00159 18.188 1 17.893V17.411C1.019 15.6945 1.71797 14.0557 2.94361 12.8539C4.16925 11.652 5.8215 10.9853 7.538 11H12.464C14.1802 10.9859 15.8319 11.6528 17.0571 12.8546C18.2823 14.0563 18.981 15.6949 19 17.411V17.893C18.9984 18.1877 18.88 18.4697 18.6708 18.6772C18.4616 18.8847 18.1787 19.0008 17.884 19ZM2.251 17.75H17.751V17.411C17.7325 16.0261 17.1656 14.705 16.1745 13.7375C15.1833 12.77 13.849 12.2351 12.464 12.25H7.538C6.15303 12.2351 4.81865 12.77 3.82753 13.7375C2.83641 14.705 2.26945 16.0261 2.251 17.411V17.75ZM13.522 6.243C13.2611 6.98463 12.7737 7.62549 12.1287 8.07494C11.4837 8.52439 10.7137 8.75969 9.92758 8.74756C9.1415 8.73544 8.37912 8.4765 7.74826 8.00736C7.11741 7.53823 6.64999 6.88264 6.41213 6.13332C6.17426 5.38399 6.17798 4.57885 6.42275 3.83176C6.66753 3.08466 7.14097 2.43342 7.77614 1.97013C8.4113 1.50684 9.17604 1.25495 9.96219 1.25008C10.7484 1.24521 11.5161 1.48761 12.157 1.943H13.587V1.531C12.8954 0.813104 12.005 0.318324 11.0301 0.110196C10.0552 -0.0979327 9.04038 -0.00990808 8.11589 0.362967C7.19141 0.735841 6.39948 1.37654 5.84181 2.2028C5.28413 3.02906 4.98616 4.00315 4.98616 5C4.98616 5.99685 5.28413 6.97094 5.84181 7.7972C6.39948 8.62346 7.19141 9.26416 8.11589 9.63704C9.04038 10.0099 10.0552 10.0979 11.0301 9.88981C12.005 9.68168 12.8954 9.1869 13.587 8.469V6.243H13.522ZM19.867 3.75H16.25V1.91542e-06H15V3.75H11.383V5H15V9H16.25V5H19.867V3.75Z" fill="#0F1A1C"/>
</g>
<defs>
<clipPath id="clip0_1661_29">
<rect width="20" height="20" fill="white"/>
</clipPath>
</defs>
</svg>
