<svg width="20" height="20" viewBox="0 0 20 20" fill="none" xmlns="http://www.w3.org/2000/svg">
<path d="M10.413 4.26621V4.72844L10.8738 4.76467C15.7673 5.14946 19.5 8.68505 19.5 12.8522V12.9772H19.25V12.8522C19.25 9.28487 16.4759 6.3375 12.7871 5.34343L11.0049 4.86317L12.301 6.17731C13.0339 6.92039 13.6071 7.80551 13.9853 8.77826C14.3635 9.751 14.5388 10.7908 14.5003 11.8338L14.5 11.843V11.8522C14.5 13.724 13.9643 15.4023 13.1245 16.5994C12.2835 17.7984 11.1704 18.4772 10 18.4772C8.82941 18.4772 7.71638 17.799 6.87541 16.6005C6.03587 15.4041 5.50024 13.7263 5.5 11.8535C5.5034 11.2056 5.5728 10.5597 5.70713 9.92588L5.75835 9.68422L5.59754 9.49671C5.32947 9.18413 5.14345 8.80972 5.05628 8.40726C4.9691 8.0048 4.98351 7.58697 5.09821 7.19148L5.45641 5.95638L4.35798 6.62514C3.28618 7.27769 2.39463 8.18797 1.76451 9.2731C1.13438 10.3582 0.785697 11.5837 0.7502 12.8381L0.75 12.8451V12.8522V12.9772H0.5V12.8547C0.517988 11.0532 1.19809 9.32118 2.41078 7.98876L2.73178 7.63606L2.39465 7.29875L0.890212 5.79351L1.06699 5.61693L2.56964 7.11795L2.89723 7.44519L3.24861 7.14365C3.66128 6.78953 4.10386 6.47181 4.57137 6.19408L5.02355 5.92545L4.7324 5.48743L3.55199 3.71154L3.76085 3.5725L5.02078 5.46527L5.25474 5.81674L5.64043 5.64496C6.08834 5.44546 6.54988 5.27812 7.02156 5.1442L7.49776 5.00899L7.36733 4.53147L6.77595 2.36634L7.01163 2.30172L7.61769 4.51904L7.73626 4.95283L8.18015 4.88075C8.67491 4.8004 9.17456 4.75373 9.67565 4.74105L10.163 4.72872V4.24121V1.86621H10.413V4.26621ZM10.9485 9.54123L10.9357 9.52726L10.9218 9.51431C10.7456 9.34926 10.5312 9.23055 10.2978 9.16883L9.96172 9.07994L9.76137 9.36408C9.47626 9.76842 9.08325 10.0845 8.62718 10.2763L8.39476 10.374L8.33517 10.619L8.32617 10.656L8.32297 10.6692L8.32049 10.6825C8.24883 11.0664 8.21054 11.4559 8.20603 11.8464L8.206 11.8464V11.8522C8.206 12.5916 8.39765 13.2426 8.70032 13.7235C8.98917 14.1825 9.446 14.5782 10 14.5782C10.554 14.5782 11.0108 14.1825 11.2997 13.7235C11.6007 13.2451 11.792 12.5985 11.794 11.864C11.8126 11.4424 11.7483 11.0211 11.6046 10.6241C11.4596 10.2234 11.2366 9.85531 10.9485 9.54123ZM5.25 7.85221L5.25 7.85274C5.25067 8.48229 5.50105 9.08585 5.94621 9.531C6.39136 9.97616 6.99493 10.2265 7.62447 10.2272H7.625C8.09473 10.2272 8.55391 10.0879 8.94448 9.82695C9.33505 9.56598 9.63946 9.19506 9.81921 8.76108C9.99897 8.32711 10.046 7.84958 9.95436 7.38887C9.86272 6.92817 9.63653 6.50498 9.30438 6.17283C8.97223 5.84068 8.54904 5.61449 8.08834 5.52285C7.62764 5.43121 7.1501 5.47824 6.71613 5.658C6.28215 5.83775 5.91123 6.14216 5.65026 6.53273C5.38929 6.9233 5.25 7.38248 5.25 7.85221ZM5.75 11.8497V11.8522C5.75 13.5528 6.19083 15.1179 6.92842 16.2734C7.66208 17.4227 8.73642 18.2272 10 18.2272C11.2636 18.2272 12.3379 17.4227 13.0716 16.2734C13.8092 15.1179 14.25 13.5528 14.25 11.8522C14.25 10.1833 13.8255 8.64724 13.1131 7.50006C12.4048 6.35946 11.3688 5.54539 10.1421 5.48384L9.05946 5.42952L9.72087 6.2883C9.94936 6.58498 10.1096 6.92839 10.1902 7.29407C10.2709 7.65976 10.2699 8.03872 10.1873 8.40397L10.0889 8.83932L10.5103 8.98632C10.7183 9.05885 10.9104 9.17043 11.0764 9.315C11.3973 9.64561 11.6484 10.0374 11.8148 10.4672C11.9833 10.9024 12.0614 11.3674 12.0443 11.8339L12.044 11.843V11.8522C12.044 12.7353 11.7904 13.4973 11.4036 14.0258C11.0183 14.5524 10.5203 14.8282 10 14.8282C9.47971 14.8282 8.98173 14.5524 8.59638 14.0258C8.21012 13.498 7.95665 12.7372 7.956 11.8556C7.95994 11.5792 7.97932 11.3033 8.01404 11.029L8.083 10.4843L7.53424 10.4665C7.19051 10.4553 6.85241 10.3761 6.53953 10.2333L5.92753 9.95411L5.83659 10.6206C5.78101 11.028 5.75209 11.4385 5.75 11.8497Z" fill="#0F1A1C" stroke="#0F1A1C"/>
</svg>
