<svg width="20" height="20" viewBox="0 0 20 20" fill="none" xmlns="http://www.w3.org/2000/svg">
<path d="M11.762 0H7.7V0.026C3.419 0.3 0 4.662 0 10C0 15.338 3.419 19.7 7.7 19.974V20H11.76C16.305 20 20 15.514 20 10C20 4.486 16.305 0 11.762 0ZM1.25 10C1.25 5.175 4.334 1.25 8.125 1.25C11.916 1.25 15 5.175 15 10C15 14.825 11.916 18.75 8.125 18.75C4.334 18.75 1.25 14.825 1.25 10ZM12.076 18.73C13.4178 17.7134 14.4968 16.3905 15.2229 14.8718C15.9491 13.353 16.3012 11.6826 16.25 10C16.3012 8.31739 15.9491 6.64696 15.2229 5.12823C14.4968 3.60951 13.4178 2.28659 12.076 1.27C15.783 1.478 18.75 5.308 18.75 10C18.75 14.692 15.783 18.522 12.076 18.73ZM6.263 14.283C5.61267 13.8384 5.09139 13.2299 4.752 12.519C4.36892 11.7352 4.1757 10.8723 4.188 10C4.17472 9.12376 4.36793 8.2567 4.752 7.469C5.09042 6.75909 5.612 6.15224 6.263 5.711C6.86345 5.30169 7.57331 5.08284 8.3 5.083C8.70563 5.08368 9.10836 5.15125 9.492 5.283C9.8981 5.4204 10.2791 5.62305 10.62 5.883L9.977 7.77C9.78954 7.51398 9.53278 7.3169 9.237 7.202C8.95133 7.08468 8.64581 7.02323 8.337 7.021C7.9008 7.0214 7.47488 7.1535 7.115 7.4C6.72681 7.66314 6.41607 8.02532 6.215 8.449C5.98579 8.92598 5.87108 9.44988 5.88 9.979C5.87435 10.5033 5.98357 11.0224 6.2 11.5C6.39229 11.9331 6.69721 12.3068 7.083 12.582C7.45033 12.8418 7.89013 12.9793 8.34 12.975C8.66304 12.9742 8.98289 12.911 9.282 12.789C9.56936 12.6817 9.81898 12.4926 10 12.245L10.639 14.129C10.3094 14.3802 9.94128 14.5764 9.549 14.71C9.15703 14.8464 8.74503 14.9164 8.33 14.917C7.59264 14.9202 6.87175 14.6991 6.263 14.283Z" fill="#0F1A1C"/>
</svg>
