<svg width="20" height="20" viewBox="0 0 20 20" fill="none" xmlns="http://www.w3.org/2000/svg">
<path d="M9.46254 15.3841C9.30315 15.2909 9.17 15.1588 9.07554 15.0001C8.97972 14.8375 8.93027 14.6518 8.93254 14.4631C8.93081 14.277 8.98028 14.094 9.07554 13.9341C9.16943 13.7742 9.30265 13.641 9.46254 13.5471C9.62325 13.4499 9.80772 13.399 9.99554 13.4001C10.1839 13.3981 10.3694 13.4468 10.5325 13.5411C10.6937 13.634 10.8281 13.7669 10.9225 13.9271C11.0188 14.089 11.0696 14.2738 11.0696 14.4621C11.0696 14.6504 11.0188 14.8352 10.9225 14.9971C10.8264 15.156 10.6924 15.2886 10.5325 15.3831C10.3698 15.4785 10.1842 15.5279 9.99554 15.5261C9.80825 15.5283 9.62394 15.4792 9.46254 15.3841ZM9.32154 12.0551L9.13054 5.34211H10.8605L10.6695 12.0551H9.32154ZM9.98854 19.9901C9.38108 19.9915 8.77936 19.8726 8.21811 19.6402C7.65686 19.4078 7.1472 19.0665 6.71854 18.6361L1.35154 13.2711C0.486002 12.4025 0 11.2263 0 10.0001C0 8.77391 0.486002 7.59769 1.35154 6.72911L6.71854 1.36411C7.58604 0.496923 8.76243 0.00976563 9.98904 0.00976562C11.2157 0.00976562 12.392 0.496923 13.2595 1.36411L18.6245 6.72811C19.4918 7.59578 19.979 8.77234 19.979 9.99911C19.979 11.2259 19.4918 12.4024 18.6245 13.2701L13.2605 18.6351C12.8317 19.066 12.3218 19.4075 11.7602 19.6401C11.1986 19.8727 10.5964 19.9916 9.98854 19.9901ZM9.98854 1.26011C9.54527 1.2589 9.10616 1.3456 8.69661 1.51519C8.28706 1.68478 7.9152 1.93389 7.60254 2.24811L2.23654 7.61411C1.60391 8.24701 1.24852 9.10525 1.24852 10.0001C1.24852 10.895 1.60391 11.7532 2.23654 12.3861L7.60254 17.7521C8.24577 18.3649 9.10012 18.7068 9.98854 18.7068C10.877 18.7068 11.7313 18.3649 12.3745 17.7521L17.7395 12.3861C18.0529 12.0728 18.3015 11.7008 18.4711 11.2914C18.6407 10.882 18.728 10.4432 18.728 10.0001C18.728 9.55698 18.6407 9.11819 18.4711 8.70879C18.3015 8.2994 18.0529 7.92743 17.7395 7.61411L12.3745 2.24911C12.0621 1.93448 11.6903 1.68504 11.2808 1.51526C10.8712 1.34549 10.4319 1.25876 9.98854 1.26011Z" fill="#0F1A1C"/>
</svg>
