<svg width="20" height="20" viewBox="0 0 20 20" fill="none" xmlns="http://www.w3.org/2000/svg">
<path d="M5.51238 7.5792L5.51225 7.57922C5.61655 8.82297 6.40924 9.99267 7.36974 10.9624C8.31995 11.9217 9.36986 12.6205 9.8625 12.9244L5.51238 7.5792ZM5.51238 7.5792L5.51115 7.56771M5.51238 7.5792L5.51115 7.56771M5.51115 7.56771C5.457 7.06251 5.56119 6.55297 5.80931 6.10958C6.05743 5.66619 6.43721 5.31087 6.89612 5.09277C7.35502 4.87468 7.87036 4.80459 8.37084 4.8922C8.87132 4.97982 9.33221 5.22081 9.68973 5.58183L10.0454 5.94096M5.51115 7.56771L10.0454 5.94096M10.0454 5.94096L10.4007 5.58144M10.0454 5.94096L10.4007 5.58144M10.4007 5.58144C10.7581 5.21976 11.2191 4.97819 11.7199 4.8902C12.2207 4.8022 12.7365 4.87215 13.1958 5.09034C13.6551 5.30853 14.0351 5.66417 14.2833 6.10797C14.5315 6.55178 14.6355 7.06178 14.5809 7.56733L14.5807 7.56731M10.4007 5.58144L14.5807 7.56731M14.5807 7.56731L14.5797 7.57938M14.5807 7.56731L14.5797 7.57938M14.5797 7.57938C14.4759 8.82253 13.6835 9.99191 12.7234 10.9614C11.7735 11.9205 10.7241 12.6191 10.2324 12.9225L10.2305 12.9237M14.5797 7.57938L10.2305 12.9237M10.2305 12.9237C10.175 12.9583 10.111 12.9768 10.0456 12.977C9.9809 12.9766 9.91757 12.9584 9.86252 12.9245L10.2305 12.9237ZM13.379 15.5H13.1779L13.0329 15.6392L9.99612 18.5526L9.82341 18.3731L13.0751 15.252H15.374H15.3746C16.4007 15.2508 17.3845 14.8426 18.11 14.117C18.8356 13.3915 19.2438 12.4077 19.245 11.3816V11.381V5.621V5.62041C19.2438 4.59528 18.8364 3.6124 18.1121 2.88698C17.3877 2.16157 16.4055 1.75273 15.3803 1.75H15.379L4.621 1.75L4.62041 1.75C3.59428 1.75122 2.61054 2.15938 1.88496 2.88496C1.15938 3.61054 0.751216 4.59428 0.75 5.62041V5.621L0.75 11.379L0.75 11.3796C0.751216 12.4057 1.15938 13.3895 1.88496 14.115C2.61054 14.8406 3.59428 15.2488 4.62041 15.25H4.621H7V15.5H4.62154C3.5288 15.4988 2.48116 15.0642 1.70847 14.2915C0.935855 13.5189 0.501251 12.4714 0.5 11.3787V5.62127C0.501251 4.52863 0.935855 3.48109 1.70847 2.70847C2.48109 1.93585 3.52863 1.50125 4.62127 1.5H15.3787C16.4714 1.50125 17.5189 1.93585 18.2915 2.70847C19.0642 3.48116 19.4988 4.5288 19.5 5.62154V11.3785C19.4988 12.4712 19.0642 13.5188 18.2915 14.2915C17.5188 15.0642 16.4712 15.4988 15.3785 15.5H13.379ZM10.045 12.653H10.1937L10.3182 12.5718C10.7536 12.2877 11.6889 11.637 12.5435 10.7765C13.3796 9.93467 14.2238 8.80803 14.3306 7.56645C14.3937 7.00438 14.2398 6.4393 13.9001 5.9868C13.5588 5.53211 13.0559 5.22577 12.4953 5.131L12.4954 5.13096L12.4895 5.13004C12.0203 5.05642 11.5398 5.13664 11.1199 5.3587C10.7003 5.58066 10.3637 5.93241 10.1604 6.36142C10.1603 6.36163 10.1602 6.36184 10.1601 6.36204L10.0464 6.60029L9.93191 6.36204C9.93169 6.36158 9.93147 6.36111 9.93124 6.36064C9.72793 5.93198 9.39148 5.58052 8.97206 5.3587C8.5522 5.13664 8.07173 5.05642 7.6025 5.13004L7.60249 5.13001L7.59719 5.13091C7.03637 5.22509 6.53312 5.53099 6.19131 5.98546C5.85107 6.43783 5.69663 7.00303 5.7594 7.56537C5.86661 8.80732 6.71023 9.93346 7.54594 10.7752C8.40006 11.6354 9.33484 12.2861 9.76997 12.5712L9.89478 12.653H10.044H10.045Z" fill="#0F1A1C" stroke="#0F1A1C"/>
</svg>
