<svg width="20" height="20" viewBox="0 0 20 20" fill="none" xmlns="http://www.w3.org/2000/svg">
<path d="M9.99954 4.326C9.18369 4.326 8.38616 4.56793 7.70781 5.02119C7.02946 5.47445 6.50075 6.11869 6.18854 6.87243C5.87632 7.62618 5.79464 8.45558 5.9538 9.25575C6.11296 10.0559 6.50583 10.7909 7.08272 11.3678C7.65962 11.9447 8.39462 12.3376 9.19479 12.4967C9.99496 12.6559 10.8244 12.5742 11.5781 12.262C12.3319 11.9498 12.9761 11.4211 13.4294 10.7427C13.8826 10.0644 14.1245 9.26685 14.1245 8.451C14.1232 7.35739 13.6882 6.30895 12.9149 5.53565C12.1416 4.76235 11.0932 4.32732 9.99954 4.326ZM7.12454 8.451C7.12565 7.90609 7.28323 7.37296 7.57854 6.915L11.5375 10.872C11.104 11.1504 10.6034 11.3067 10.0884 11.3245C9.57346 11.3423 9.06325 11.2209 8.61151 10.9731C8.15977 10.7252 7.78323 10.3602 7.52154 9.91631C7.25985 9.47246 7.1227 8.96625 7.12454 8.451ZM12.4245 9.988L8.46154 6.031C8.91994 5.73492 9.45384 5.57697 9.99954 5.576C10.5148 5.57395 11.021 5.71092 11.4649 5.97249C11.9088 6.23405 12.2739 6.61052 12.5218 7.06221C12.7696 7.5139 12.8911 8.0241 12.8732 8.53902C12.8554 9.05394 12.699 9.55452 12.4205 9.988H12.4245ZM18.6745 2.13C18.5686 2.0708 18.4509 2.03588 18.3298 2.02775C18.2088 2.01962 18.0874 2.03849 17.9745 2.083C16.7829 2.63857 15.4823 2.92129 14.1675 2.91056C12.8528 2.89984 11.557 2.59593 10.3745 2.021C8.98279 1.35243 7.45854 1.00531 5.91454 1.00531C4.37054 1.00531 2.84629 1.35243 1.45454 2.021C1.34897 2.07239 1.25999 2.15243 1.19775 2.25199C1.1355 2.35154 1.10251 2.46659 1.10254 2.584V19.775H2.35254V14.8C3.53822 14.2919 4.81892 14.0435 6.10858 14.0714C7.39824 14.0994 8.66697 14.403 9.82954 14.962C11.2039 15.6305 12.7122 15.9779 14.2405 15.9779C15.7689 15.9779 17.2772 15.6305 18.6515 14.962C18.7562 14.9101 18.8443 14.83 18.9058 14.7307C18.9673 14.6314 18.9997 14.5168 18.9995 14.4V2.732C18.9998 2.61207 18.9698 2.494 18.9123 2.38876C18.8548 2.28352 18.7716 2.19451 18.6705 2.13H18.6745ZM17.7495 14C16.5808 14.5079 15.3158 14.7565 14.0418 14.7285C12.7677 14.7005 11.5149 14.3967 10.3695 13.838C9.12598 13.2408 7.77522 12.8993 6.39727 12.8337C5.01932 12.7681 3.64221 12.9797 2.34754 13.456V2.985C3.53309 2.47651 4.81378 2.22778 6.10348 2.25555C7.39318 2.28332 8.66198 2.58695 9.82454 3.146C11.0482 3.75103 12.3835 4.09746 13.747 4.1637C15.1104 4.22994 16.473 4.01456 17.7495 3.531V14Z" fill="#0F1A1C"/>
</svg>
