<svg width="20" height="20" viewBox="0 0 20 20" fill="none" xmlns="http://www.w3.org/2000/svg">
<path d="M6 13H14V14.25H6V13ZM6 10.25H14V9H6V10.25ZM19 2.625V17.375C18.9995 17.8058 18.8281 18.2188 18.5235 18.5235C18.2188 18.8281 17.8058 18.9995 17.375 19H2.625C2.19419 18.9995 1.78117 18.8281 1.47654 18.5235C1.1719 18.2188 1.00053 17.8058 1 17.375V2.625C1.00053 2.19419 1.1719 1.78117 1.47654 1.47654C1.78117 1.1719 2.19419 1.00053 2.625 1H17.375C17.8058 1.00053 18.2188 1.1719 18.5235 1.47654C18.8281 1.78117 18.9995 2.19419 19 2.625ZM17.75 2.625C17.75 2.52554 17.7105 2.43016 17.6402 2.35983C17.5698 2.28951 17.4745 2.25 17.375 2.25H2.625C2.52554 2.25 2.43016 2.28951 2.35983 2.35983C2.28951 2.43016 2.25 2.52554 2.25 2.625V17.375C2.25 17.4745 2.28951 17.5698 2.35983 17.6402C2.43016 17.7105 2.52554 17.75 2.625 17.75H17.375C17.4745 17.75 17.5698 17.7105 17.6402 17.6402C17.7105 17.5698 17.75 17.4745 17.75 17.375V2.625ZM6 6.25H14V5H6V6.25Z" fill="#0F1A1C"/>
</svg>
