<svg width="20" height="20" viewBox="0 0 20 20" fill="none" xmlns="http://www.w3.org/2000/svg">
<g clip-path="url(#clip0_423_2)">
<path d="M17.0657 2.93102C15.7622 1.62519 14.1227 0.705706 12.3288 0.274467C10.5348 -0.156772 8.6565 -0.0829336 6.90194 0.487802C5.14739 1.05854 3.5851 2.10388 2.38817 3.50802C1.19125 4.91215 0.406438 6.62024 0.120688 8.44302C-0.23506 10.6803 0.188583 12.9718 1.32069 14.934L0.0816875 19.012C0.0438116 19.1371 0.0403539 19.2701 0.0716784 19.397C0.103003 19.5238 0.167951 19.6399 0.259688 19.733C0.350666 19.8278 0.46599 19.8956 0.593001 19.9292C0.720012 19.9627 0.853802 19.9606 0.979688 19.923L5.14669 18.73C6.62484 19.563 8.29297 20.0005 9.98969 20C10.5302 19.9995 11.0699 19.9564 11.6037 19.871C13.4214 19.5771 15.1225 18.7867 16.5193 17.5871C17.9162 16.3874 18.9544 14.8252 19.5194 13.0728C20.0845 11.3203 20.1543 9.44584 19.7214 7.6562C19.2884 5.86656 18.3693 4.23134 17.0657 2.93102ZM5.99969 11.5C5.70302 11.5 5.41301 11.4121 5.16633 11.2472C4.91966 11.0824 4.7274 10.8481 4.61387 10.574C4.50034 10.3 4.47063 9.99836 4.52851 9.70739C4.58639 9.41642 4.72925 9.14914 4.93903 8.93936C5.14881 8.72959 5.41608 8.58672 5.70705 8.52885C5.99802 8.47097 6.29962 8.50067 6.57371 8.61421C6.8478 8.72774 7.08207 8.92 7.24689 9.16667C7.41171 9.41334 7.49969 9.70335 7.49969 10C7.49969 10.3978 7.34165 10.7794 7.06035 11.0607C6.77904 11.342 6.39751 11.5 5.99969 11.5ZM9.99969 11.5C9.70302 11.5 9.41301 11.4121 9.16633 11.2472C8.91966 11.0824 8.7274 10.8481 8.61387 10.574C8.50034 10.3 8.47063 9.99836 8.52851 9.70739C8.58639 9.41642 8.72925 9.14914 8.93903 8.93936C9.14881 8.72959 9.41608 8.58672 9.70705 8.52885C9.99802 8.47097 10.2996 8.50067 10.5737 8.61421C10.8478 8.72774 11.0821 8.92 11.2469 9.16667C11.4117 9.41334 11.4997 9.70335 11.4997 10C11.4997 10.3978 11.3417 10.7794 11.0603 11.0607C10.779 11.342 10.3975 11.5 9.99969 11.5ZM13.9997 11.5C13.703 11.5 13.413 11.4121 13.1663 11.2472C12.9197 11.0824 12.7274 10.8481 12.6139 10.574C12.5003 10.3 12.4706 9.99836 12.5285 9.70739C12.5864 9.41642 12.7292 9.14914 12.939 8.93936C13.1488 8.72959 13.4161 8.58672 13.7071 8.52885C13.998 8.47097 14.2996 8.50067 14.5737 8.61421C14.8478 8.72774 15.0821 8.92 15.2469 9.16667C15.4117 9.41334 15.4997 9.70335 15.4997 10C15.4997 10.3978 15.3417 10.7794 15.0603 11.0607C14.779 11.342 14.3975 11.5 13.9997 11.5Z" fill="#0F1A1C"/>
</g>
<defs>
<clipPath id="clip0_423_2">
<rect width="20" height="20" fill="white"/>
</clipPath>
</defs>
</svg>
