<svg width="20" height="20" viewBox="0 0 20 20" fill="none" xmlns="http://www.w3.org/2000/svg">
<path d="M2.625 15.375V16C2.19419 15.9995 1.78117 15.8281 1.47654 15.5235C1.1719 15.2188 1.00053 14.8058 1 14.375V2.624C1.00079 2.19336 1.17229 1.7806 1.47689 1.47618C1.78149 1.17177 2.19436 1.00053 2.625 1H14.375C14.8056 1.00053 15.2185 1.17177 15.5231 1.47618C15.8277 1.7806 15.9992 2.19336 16 2.624H5.629C4.834 2.62611 4.07216 2.94286 3.51001 3.50501C2.94786 4.06716 2.63111 4.829 2.629 5.624L2.625 15.375ZM19 5.625V17.375C18.9995 17.8058 18.8281 18.2188 18.5235 18.5235C18.2188 18.8281 17.8058 18.9995 17.375 19H5.625C5.19419 18.9995 4.78117 18.8281 4.47654 18.5235C4.1719 18.2188 4.00053 17.8058 4 17.375V5.625C4.00053 5.19419 4.1719 4.78117 4.47654 4.47654C4.78117 4.1719 5.19419 4.00053 5.625 4H17.375C17.8058 4.00053 18.2188 4.1719 18.5235 4.47654C18.8281 4.78117 18.9995 5.19419 19 5.625ZM15.418 11.5C15.4182 11.3955 15.3921 11.2927 15.3421 11.201C15.2921 11.1092 15.2199 11.0315 15.132 10.975L8.964 7C8.86984 6.93959 8.76121 6.90552 8.64942 6.90133C8.53763 6.89714 8.42675 6.92298 8.32833 6.97617C8.22992 7.02937 8.14755 7.10796 8.08981 7.20377C8.03206 7.29959 8.00105 7.40913 8 7.521V15.479C8.00016 15.5913 8.03053 15.7015 8.08791 15.798C8.1453 15.8945 8.22758 15.9738 8.32616 16.0276C8.42473 16.0814 8.53596 16.1077 8.64818 16.1037C8.7604 16.0997 8.86948 16.0656 8.964 16.005L15.132 12.025C15.2199 11.9685 15.2921 11.8908 15.3421 11.799C15.3921 11.7073 15.4182 11.6045 15.418 11.5Z" fill="#0F1A1C"/>
</svg>
