<svg width="20" height="20" viewBox="0 0 20 20" fill="none" xmlns="http://www.w3.org/2000/svg">
<path d="M1.68912 8.125L3.47633 3.65046L3.50634 3.57533L3.51112 3.49458C3.54302 2.95629 3.77884 2.45038 4.17059 2.07983C4.56213 1.70947 5.08002 1.50215 5.61895 1.5H14.3808C14.9192 1.50283 15.4363 1.71042 15.8273 2.08066C16.2185 2.45115 16.454 2.9567 16.4859 3.49457L16.4907 3.57533L16.5207 3.65046L18.3079 8.125H18.039L16.8435 5.12491L16.3792 3.95976L15.9146 5.12479L14.7161 8.13H14.4468L16.2084 3.7153L16.2504 3.61014L16.2429 3.49716C16.2118 3.02468 16.0026 2.58159 15.6576 2.25732C15.3125 1.93305 14.8573 1.75175 14.3838 1.75H14.382L5.618 1.75L5.61616 1.75C5.14266 1.75175 4.68745 1.93305 4.34241 2.25732C3.99737 2.58159 3.78818 3.02468 3.75708 3.49716L3.74964 3.61023L3.79167 3.71546L5.55289 8.125H5.28371L4.08533 5.12455L3.62047 3.96064L3.15652 5.12491L1.96101 8.125H1.68912ZM3.61615 13.5H3.617L3.621 13.5L3.62185 13.5C4.25175 13.4989 4.86387 13.2911 5.3642 12.9084C5.86452 12.5257 6.22538 11.9894 6.39133 11.3817L6.56387 10.75H5.909H1.329H0.674129L0.846666 11.3817C1.01262 11.9894 1.37348 12.5257 1.8738 12.9084C2.37413 13.2911 2.98625 13.4989 3.61615 13.5ZM16.3741 13.5H16.375L16.379 13.5L16.3807 13.5C17.0098 13.4979 17.6208 13.2895 18.1201 12.9069C18.6195 12.5243 18.9796 11.9886 19.1453 11.3817L19.3179 10.75H18.663H14.087H13.4321L13.6047 11.3817C13.7706 11.9894 14.1315 12.5257 14.6318 12.9084C15.1321 13.2911 15.7443 13.4989 16.3741 13.5ZM9.375 18.2H9.875V17.7V5.5H10.125V17.7V18.2H10.625H13.021V18.45H6.979V18.2H9.375ZM0.625 10.5H6.617C6.65015 10.5 6.68195 10.5132 6.70539 10.5366C6.72883 10.5601 6.742 10.5918 6.742 10.625C6.742 11.4527 6.41318 12.2466 5.82788 12.8319C5.24258 13.4172 4.44874 13.746 3.621 13.746C2.79326 13.746 1.99942 13.4172 1.41412 12.8319C0.828819 12.2466 0.5 11.4527 0.5 10.625C0.5 10.5918 0.51317 10.5601 0.536612 10.5366C0.560053 10.5132 0.591847 10.5 0.625 10.5ZM13.383 10.5H19.375C19.4082 10.5 19.4399 10.5132 19.4634 10.5366C19.4868 10.5601 19.5 10.5918 19.5 10.625C19.5 11.0349 19.4193 11.4407 19.2624 11.8194C19.1056 12.198 18.8757 12.5421 18.5859 12.8319C18.2961 13.1217 17.952 13.3516 17.5734 13.5084C17.1947 13.6653 16.7889 13.746 16.379 13.746C15.9691 13.746 15.5633 13.6653 15.1846 13.5084C14.806 13.3516 14.4619 13.1217 14.1721 12.8319C13.8823 12.5421 13.6524 12.198 13.4956 11.8194C13.3387 11.4407 13.258 11.0349 13.258 10.625C13.258 10.5918 13.2712 10.5601 13.2946 10.5366C13.3181 10.5132 13.3498 10.5 13.383 10.5Z" fill="#0F1A1C" stroke="#0F1A1C"/>
</svg>
