<svg width="20" height="20" viewBox="0 0 20 20" fill="none" xmlns="http://www.w3.org/2000/svg">
<g clip-path="url(#clip0_1581_881)">
<path d="M13.2503 13.188V16.5H13.0003V13.188C13.0003 12.3924 12.6843 11.6293 12.1217 11.0667C11.559 10.5041 10.796 10.188 10.0003 10.188C9.20468 10.188 8.44162 10.5041 7.87901 11.0667C7.3164 11.6293 7.00033 12.3924 7.00033 13.188V16.375C7.00033 16.4082 6.98716 16.4399 6.96372 16.4634C6.94028 16.4868 6.90848 16.5 6.87533 16.5H0.62533C0.592176 16.5 0.560382 16.4868 0.536941 16.4634C0.513499 16.4399 0.50033 16.4082 0.50033 16.375V13.188H0.500346L0.500313 13.184C0.479785 10.6402 1.46895 8.19223 3.25086 6.37682C5.03154 4.56266 7.45859 3.52825 10.0003 3.50003C12.5421 3.52825 14.9691 4.56266 16.7498 6.37682C18.5317 8.19223 19.5209 10.6402 19.5003 13.184H19.5003V13.188V16.375C19.5003 16.4082 19.4872 16.4399 19.4637 16.4634C19.4403 16.4868 19.4085 16.5 19.3753 16.5H16.2503C16.2172 16.5 16.1854 16.4868 16.1619 16.4634C16.1385 16.4399 16.1253 16.4082 16.1253 16.375V13.1904C16.1409 11.551 15.5058 9.97218 14.3593 8.80016C13.2121 7.62752 11.6467 6.95783 10.0064 6.93804L10.0064 6.93789L9.9943 6.93804C8.35398 6.95783 6.78851 7.62752 5.64137 8.80016C4.49481 9.97219 3.85975 11.551 3.87533 13.1904V13.312H3.62533V13.188H3.62534L3.62531 13.1841C3.61196 11.4772 4.27616 9.83469 5.47223 8.61688C6.66711 7.40027 8.29533 6.70675 10.0003 6.68803C11.7053 6.70675 13.3336 7.40027 14.5284 8.61688C15.7245 9.83469 16.3887 11.4772 16.3753 13.1841H16.3753V13.188V15.75V16.25H16.8753H18.7503H19.2503V15.75V13.1903C19.2731 10.714 18.313 8.3297 16.5806 6.56008C14.8477 4.78987 12.4833 3.7793 10.0062 3.75003L10.0062 3.7499L9.99442 3.75003C7.51734 3.7793 5.15299 4.78987 3.42002 6.56008C1.68761 8.32971 0.727578 10.714 0.75033 13.1903V15.75V16.25H1.25033H6.25033H6.75033V15.75V13.188H6.75046L6.7502 13.1765C6.74019 12.7433 6.81686 12.3126 6.9757 11.9095C7.13454 11.5064 7.37234 11.1391 7.67514 10.8293C7.97793 10.5194 8.33961 10.2732 8.73891 10.1051C9.13821 9.93699 9.56709 9.85039 10.0003 9.85039C10.4336 9.85039 10.8624 9.93699 11.2618 10.1051C11.6611 10.2732 12.0227 10.5194 12.3255 10.8293C12.6283 11.1391 12.8661 11.5064 13.025 11.9095C13.1838 12.3126 13.2605 12.7433 13.2505 13.1765L13.2503 13.1765V13.188Z" fill="#0F1A1C" stroke="#0F1A1C"/>
</g>
<defs>
<clipPath id="clip0_1581_881">
<rect width="20" height="20" fill="white"/>
</clipPath>
</defs>
</svg>
