<svg width="20" height="20" viewBox="0 0 20 20" fill="none" xmlns="http://www.w3.org/2000/svg">
<path d="M10 20C9.89867 20 9.79778 19.9866 9.7 19.96C8.249 19.554 1 17.277 1 12V3.187C1.00012 2.93755 1.08336 2.69526 1.23657 2.4984C1.38978 2.30155 1.60422 2.16136 1.846 2.1L9.729 0.108C9.90699 0.0639907 10.093 0.0639907 10.271 0.108L18.153 2.1C18.395 2.16117 18.6096 2.30128 18.763 2.49815C18.9164 2.69502 18.9998 2.93742 19 3.187V12C19 17.277 11.751 19.554 10.3 19.957C10.2023 19.9844 10.1014 19.9988 10 20ZM2.25 3.283V12C2.25 16.465 9.239 18.531 10.036 18.751C10.761 18.531 17.75 16.465 17.75 12V3.283L10 1.33L2.25 3.283ZM14.381 13H5.619C5.48852 13.0002 5.36041 12.9652 5.24821 12.8986C5.136 12.832 5.04389 12.7363 4.98159 12.6217C4.9193 12.507 4.88915 12.3777 4.89432 12.2473C4.8995 12.1169 4.93981 11.9903 5.011 11.881L9.574 4.806L10.342 4.76L10.61 5.094L14.99 11.882C15.061 11.9914 15.1011 12.1179 15.1061 12.2483C15.1111 12.3786 15.0808 12.5078 15.0184 12.6223C14.956 12.7369 14.8639 12.8324 14.7517 12.8989C14.6395 12.9653 14.5114 13.0003 14.381 13ZM6.581 11.75H13.415L10 6.453L6.581 11.75Z" fill="#0F1A1C"/>
</svg>
