<svg width="20" height="20" viewBox="0 0 20 20" fill="none" xmlns="http://www.w3.org/2000/svg">
<g clip-path="url(#clip0_473_77)">
<path d="M19 17.411V17.893C18.9981 18.1876 18.8797 18.4694 18.6705 18.6769C18.4614 18.8844 18.1786 19.0005 17.884 19H2.119C1.97284 19.0008 1.82795 18.9728 1.69261 18.9176C1.55728 18.8624 1.43414 18.7811 1.33023 18.6783C1.22632 18.5755 1.14367 18.4532 1.08701 18.3185C1.03035 18.1837 1.00079 18.0392 1 17.893V17.411C1.01874 15.6945 1.71762 14.0554 2.94332 12.8536C4.16902 11.6517 5.82142 10.9851 7.538 11H12.465C14.181 10.9861 15.8325 11.6532 17.0575 12.8549C18.2824 14.0567 18.981 15.6951 19 17.411ZM10 10C10.9889 10 11.9556 9.70676 12.7779 9.15735C13.6001 8.60794 14.241 7.82705 14.6194 6.91342C14.9978 5.99979 15.0969 4.99446 14.9039 4.02455C14.711 3.05465 14.2348 2.16373 13.5355 1.46447C12.8363 0.765206 11.9454 0.289002 10.9755 0.0960759C10.0055 -0.0968503 9.00021 0.00216642 8.08658 0.380605C7.17295 0.759043 6.39206 1.39991 5.84265 2.22215C5.29324 3.0444 5 4.0111 5 5C5.00159 6.3256 5.52888 7.59644 6.46622 8.53378C7.40356 9.47112 8.67441 9.99841 10 10Z" fill="#0F1A1C"/>
</g>
<defs>
<clipPath id="clip0_473_77">
<rect width="20" height="20" fill="white"/>
</clipPath>
</defs>
</svg>
