<svg width="20" height="20" viewBox="0 0 20 20" fill="none" xmlns="http://www.w3.org/2000/svg">
<path d="M17.5576 10.442L9.99962 2.884L2.44162 10.442L1.55762 9.558L9.55762 1.558C9.61566 1.49995 9.68456 1.4539 9.7604 1.42248C9.83624 1.39106 9.91753 1.37489 9.99962 1.37489C10.0817 1.37489 10.163 1.39106 10.2388 1.42248C10.3147 1.4539 10.3836 1.49995 10.4416 1.558L18.4416 9.558L17.5576 10.442Z" fill="#0F1A1C"/>
<path d="M17.5576 17.442L9.99962 9.884L2.44162 17.442L1.55762 16.558L9.55762 8.558C9.61566 8.49995 9.68456 8.4539 9.7604 8.42248C9.83624 8.39106 9.91753 8.37489 9.99962 8.37489C10.0817 8.37489 10.163 8.39106 10.2388 8.42248C10.3147 8.4539 10.3836 8.49995 10.4416 8.558L18.4416 16.558L17.5576 17.442Z" fill="#0F1A1C"/>
</svg>
