<svg width="20" height="20" viewBox="0 0 20 20" fill="none" xmlns="http://www.w3.org/2000/svg">
<path d="M1.29252 8.12521L3.10965 3.81962L3.13789 3.75273L3.14593 3.68056C3.21327 3.07596 3.50296 2.51797 3.95872 2.11502C4.41447 1.71207 5.00375 1.49293 5.61205 1.50017L5.61205 1.50021H5.618H14.382V1.50024L14.388 1.50017C14.9963 1.49293 15.5855 1.71207 16.0413 2.11502C16.497 2.51797 16.7867 3.07596 16.8541 3.68056L16.8621 3.75273L16.8903 3.81962L18.7075 8.12521H17.6226L16.8396 6.27072L16.379 5.17977L15.9184 6.27072L15.1354 8.12521H14.0496L15.8096 3.95669L15.87 3.81381L15.8388 3.66187C15.7699 3.3254 15.5841 3.0242 15.3143 2.81162C15.047 2.60099 14.7144 2.49085 14.3744 2.50021H5.6256C5.28561 2.49085 4.95297 2.60099 4.68566 2.81162C4.4159 3.0242 4.2301 3.3254 4.16117 3.66187L4.13005 3.81381L4.19037 3.95669L5.95036 8.12521H4.86463L4.08162 6.27072L3.621 5.17977L3.16038 6.27072L2.37737 8.12521H1.29252ZM9 17.5002H9.5V17.0002V5.50021H10.5V17.0002V17.5002H11H13.4V18.5002H6.6V17.5002H9ZM6.70539 10.5368C6.72883 10.5603 6.742 10.5921 6.742 10.6252C6.742 11.453 6.41318 12.2468 5.82788 12.8321C5.24258 13.4174 4.44874 13.7462 3.621 13.7462C2.79326 13.7462 1.99942 13.4174 1.41412 12.8321C0.828819 12.2468 0.5 11.453 0.5 10.6252C0.5 10.5921 0.51317 10.5603 0.536612 10.5368C0.560053 10.5134 0.591847 10.5002 0.625 10.5002H6.617C6.65015 10.5002 6.68195 10.5134 6.70539 10.5368ZM13.2946 10.5368C13.3181 10.5134 13.3498 10.5002 13.383 10.5002H19.375C19.4082 10.5002 19.4399 10.5134 19.4634 10.5368C19.4868 10.5603 19.5 10.5921 19.5 10.6252C19.5 11.0351 19.4193 11.4409 19.2624 11.8196C19.1056 12.1982 18.8757 12.5423 18.5859 12.8321C18.2961 13.1219 17.952 13.3518 17.5734 13.5086C17.1947 13.6655 16.7889 13.7462 16.379 13.7462C15.9691 13.7462 15.5633 13.6655 15.1846 13.5086C14.806 13.3518 14.4619 13.1219 14.1721 12.8321C13.8823 12.5423 13.6524 12.1982 13.4956 11.8196C13.3387 11.4409 13.258 11.0351 13.258 10.6252C13.258 10.5921 13.2712 10.5603 13.2946 10.5368Z" fill="#0F1A1C" stroke="#0F1A1C"/>
</svg>
