<svg width="20" height="20" viewBox="0 0 20 20" fill="none" xmlns="http://www.w3.org/2000/svg">
<path d="M5 10C5 10.1978 4.94135 10.3911 4.83147 10.5556C4.72159 10.72 4.56541 10.8482 4.38268 10.9239C4.19996 10.9996 3.99889 11.0194 3.80491 10.9808C3.61093 10.9422 3.43275 10.847 3.29289 10.7071C3.15304 10.5673 3.0578 10.3891 3.01922 10.1951C2.98063 10.0011 3.00043 9.80004 3.07612 9.61732C3.15181 9.43459 3.27998 9.27841 3.44443 9.16853C3.60888 9.05865 3.80222 9 4 9C4.26522 9 4.51957 9.10536 4.70711 9.29289C4.89464 9.48043 5 9.73478 5 10ZM9.44443 9.16853C9.60888 9.05865 9.80222 9 10 9C10.2652 9 10.5196 9.10536 10.7071 9.29289C10.8946 9.48043 11 9.73478 11 10C11 10.1978 10.9414 10.3911 10.8315 10.5556C10.7216 10.72 10.5654 10.8482 10.3827 10.9239C10.2 10.9996 9.99889 11.0194 9.80491 10.9808C9.61093 10.9422 9.43275 10.847 9.29289 10.7071C9.15304 10.5673 9.0578 10.3891 9.01922 10.1951C8.98063 10.0011 9.00043 9.80004 9.07612 9.61732C9.15181 9.43459 9.27998 9.27841 9.44443 9.16853ZM15.4444 9.16853C15.6089 9.05865 15.8022 9 16 9C16.2652 9 16.5196 9.10536 16.7071 9.29289C16.8946 9.48043 17 9.73478 17 10C17 10.1978 16.9414 10.3911 16.8315 10.5556C16.7216 10.72 16.5654 10.8482 16.3827 10.9239C16.2 10.9996 15.9989 11.0194 15.8049 10.9808C15.6109 10.9422 15.4327 10.847 15.2929 10.7071C15.153 10.5673 15.0578 10.3891 15.0192 10.1951C14.9806 10.0011 15.0004 9.80004 15.0761 9.61732C15.1518 9.43459 15.28 9.27841 15.4444 9.16853Z" fill="#0F1A1C" stroke="#0F1A1C"/>
</svg>
