<svg width="20" height="20" viewBox="0 0 20 20" fill="none" xmlns="http://www.w3.org/2000/svg">
<g clip-path="url(#clip0_1581_890)">
<path d="M9.875 13.9681V13.511L9.41964 13.4701C8.16368 13.3575 6.96758 12.8821 5.97711 12.1016C4.98663 11.3212 4.24456 10.2695 3.84131 9.07469C3.43806 7.8799 3.39106 6.59362 3.70602 5.37258C4.02098 4.15155 4.68431 3.04849 5.61518 2.19784C6.54604 1.34718 7.70424 0.785654 8.94864 0.581689C10.193 0.377725 11.4699 0.540128 12.6236 1.04911C13.7773 1.55809 14.7581 2.39167 15.4464 3.44827C16.1346 4.50475 16.5007 5.73859 16.5 6.99946C16.4978 8.62199 15.8894 10.1851 14.7942 11.3823C13.6989 12.5794 12.1959 13.324 10.58 13.4702L10.125 13.5113V13.9681V15.7501V16.2501H10.625H13.125V16.5001H10.625H10.125V17.0001V19.2251H9.875V17.0001V16.5001H9.375H6.875V16.2501H9.375H9.875V15.7501V13.9681ZM3.75 7.00014L3.75 7.00075C3.75201 8.65757 4.41108 10.246 5.58263 11.4175C6.75418 12.5891 8.34257 13.2481 9.99939 13.2501H10C11.2361 13.2501 12.4445 12.8836 13.4723 12.1968C14.5001 11.5101 15.3012 10.534 15.7742 9.39191C16.2473 8.24987 16.3711 6.99321 16.1299 5.78083C15.8887 4.56844 15.2935 3.4548 14.4194 2.58072C13.5453 1.70664 12.4317 1.11139 11.2193 0.870232C10.0069 0.629074 8.75027 0.752845 7.60823 1.22589C6.46619 1.69894 5.49007 2.50002 4.80331 3.52783C4.11656 4.55563 3.75 5.76401 3.75 7.00014Z" fill="#0F1A1C" stroke="#0F1A1C"/>
</g>
<defs>
<clipPath id="clip0_1581_890">
<rect width="20" height="20" fill="white"/>
</clipPath>
</defs>
</svg>
