<svg width="20" height="20" viewBox="0 0 20 20" fill="none" xmlns="http://www.w3.org/2000/svg">
<path d="M10.625 16.97V18.75H12.425V20H7.58V18.75H9.38V16.97C7.68411 16.8687 6.08787 16.1351 4.90663 14.914C3.72538 13.693 3.04504 12.0733 3 10.375H4.25C4.30295 11.8492 4.93767 13.2423 6.01528 14.2496C7.09288 15.257 8.52562 15.7964 10 15.75C11.4744 15.7964 12.9071 15.257 13.9847 14.2496C15.0623 13.2423 15.697 11.8492 15.75 10.375H17C16.9551 12.0725 16.2754 13.6915 15.0952 14.9124C13.915 16.1334 12.32 16.8675 10.625 16.97ZM6 9.948V5.048C6 3.98714 6.42143 2.96972 7.17157 2.21958C7.92172 1.46943 8.93913 1.048 10 1.048C11.0609 1.048 12.0783 1.46943 12.8284 2.21958C13.5786 2.96972 14 3.98714 14 5.048V9.948C14 11.0089 13.5786 12.0263 12.8284 12.7764C12.0783 13.5266 11.0609 13.948 10 13.948C8.93913 13.948 7.92172 13.5266 7.17157 12.7764C6.42143 12.0263 6 11.0089 6 9.948ZM7.25 9.948C7.25 10.6773 7.53973 11.3768 8.05546 11.8925C8.57118 12.4083 9.27065 12.698 10 12.698C10.7293 12.698 11.4288 12.4083 11.9445 11.8925C12.4603 11.3768 12.75 10.6773 12.75 9.948V5.048C12.75 4.31866 12.4603 3.61919 11.9445 3.10346C11.4288 2.58774 10.7293 2.298 10 2.298C9.27065 2.298 8.57118 2.58774 8.05546 3.10346C7.53973 3.61919 7.25 4.31866 7.25 5.048V9.948Z" fill="#0F1A1C"/>
</svg>
