<svg width="20" height="20" viewBox="0 0 20 20" fill="none" xmlns="http://www.w3.org/2000/svg">
<path d="M7.97303 19.844C7.75974 19.8447 7.5484 19.8034 7.35108 19.7224C7.15376 19.6414 6.97433 19.5223 6.82303 19.372L0.629027 13.177C0.329782 12.8748 0.160344 12.4677 0.156795 12.0424C0.153246 11.6171 0.315867 11.2072 0.610027 10.9L9.71703 1.5C9.86836 1.34275 10.0497 1.21748 10.2503 1.13159C10.451 1.04571 10.6668 1.00096 10.885 1H17.375C17.8058 1.00053 18.2189 1.1719 18.5235 1.47654C18.8281 1.78117 18.9995 2.19419 19 2.625V9.116C18.9989 9.33421 18.9541 9.54998 18.8682 9.75059C18.7823 9.95119 18.6571 10.1326 18.5 10.284L9.10003 19.384C8.7985 19.6781 8.39423 19.8431 7.97303 19.844ZM10.885 2.25C10.8345 2.25005 10.7846 2.26016 10.7381 2.27973C10.6915 2.2993 10.6494 2.32795 10.614 2.364L1.51403 11.764C1.44532 11.8341 1.40683 11.9283 1.40683 12.0265C1.40683 12.1247 1.44532 12.2189 1.51403 12.289L7.70803 18.484C7.77842 18.5525 7.87278 18.5909 7.97103 18.5909C8.06927 18.5909 8.16364 18.5525 8.23403 18.484L17.634 9.378C17.6701 9.34307 17.6987 9.30126 17.7183 9.25506C17.7379 9.20885 17.748 9.15919 17.748 9.109V2.625C17.748 2.52554 17.7085 2.43016 17.6382 2.35983C17.5679 2.28951 17.4725 2.25 17.373 2.25H10.885ZM14.5 4C14.2034 4 13.9133 4.08797 13.6667 4.2528C13.42 4.41762 13.2277 4.65189 13.1142 4.92597C13.0007 5.20006 12.971 5.50166 13.0288 5.79264C13.0867 6.08361 13.2296 6.35088 13.4394 6.56066C13.6491 6.77044 13.9164 6.9133 14.2074 6.97118C14.4984 7.02906 14.8 6.99935 15.0741 6.88582C15.3481 6.77229 15.5824 6.58003 15.7472 6.33336C15.9121 6.08668 16 5.79667 16 5.5C16 5.10218 15.842 4.72064 15.5607 4.43934C15.2794 4.15804 14.8979 4 14.5 4Z" fill="#0F1A1C"/>
</svg>
