<svg width="20" height="20" viewBox="0 0 20 20" fill="none" xmlns="http://www.w3.org/2000/svg">
<g clip-path="url(#clip0_1564_84)">
<path d="M18.78 6.91097C18.5283 6.43001 18.1789 6.00689 17.7543 5.6687C17.3297 5.33051 16.8391 5.08469 16.314 4.94697C14.4362 4.40002 12.4945 4.1028 10.539 4.06297L11.422 1.36897L13.879 1.89097C13.9702 2.21919 14.1708 2.5064 14.4476 2.70498C14.7244 2.90355 15.0607 3.00158 15.4008 2.9828C15.741 2.96402 16.0645 2.82957 16.3177 2.60173C16.571 2.37389 16.7387 2.06635 16.7932 1.73009C16.8477 1.39383 16.7857 1.04904 16.6174 0.752875C16.4491 0.456713 16.1846 0.226965 15.8678 0.101717C15.551 -0.0235308 15.2009 -0.036757 14.8756 0.0642311C14.5502 0.165219 14.2692 0.374356 14.079 0.656974L11.573 0.123974C11.2929 0.0624637 10.9998 0.111276 10.7547 0.260265C10.5096 0.409255 10.3314 0.64696 10.257 0.923974L9.247 3.99397L9.465 4.06497C7.50814 4.10374 5.56498 4.40098 3.686 4.94897C3.16109 5.08646 2.67064 5.33197 2.24601 5.66981C1.82139 6.00765 1.47194 6.43038 1.22 6.91097C0.443659 8.4951 0.0400391 10.2358 0.0400391 12C0.0400391 13.7641 0.443659 15.5049 1.22 17.089C1.47172 17.5699 1.82108 17.9931 2.24571 18.3312C2.67035 18.6694 3.16091 18.9153 3.686 19.053C5.73612 19.6573 7.86268 19.9628 10 19.96C12.1373 19.9628 14.2639 19.6573 16.314 19.053C16.8391 18.9153 17.3297 18.6694 17.7543 18.3312C18.1789 17.9931 18.5283 17.5699 18.78 17.089C19.5564 15.5049 19.96 13.7641 19.96 12C19.96 10.2358 19.5564 8.4951 18.78 6.91097ZM17.726 16.584C17.5444 16.917 17.2957 17.2087 16.9954 17.4406C16.6952 17.6725 16.3501 17.8395 15.982 17.931C12.0755 19.071 7.92454 19.071 4.018 17.931C3.64988 17.8395 3.30478 17.6725 3.00457 17.4406C2.70436 17.2087 2.45558 16.917 2.274 16.584C1.57401 15.1573 1.21005 13.5892 1.21005 12C1.21005 10.4108 1.57401 8.8427 2.274 7.41597C2.45558 7.08292 2.70436 6.79122 3.00457 6.55935C3.30478 6.32748 3.64988 6.16049 4.018 6.06897C7.92377 4.92367 12.0762 4.92367 15.982 6.06897C16.3501 6.16049 16.6952 6.32748 16.9954 6.55935C17.2957 6.79122 17.5444 7.08292 17.726 7.41597C18.426 8.8427 18.79 10.4108 18.79 12C18.79 13.5892 18.426 15.1573 17.726 16.584Z" fill="#0F1A1C"/>
<path d="M14 11.133L8.11901 7.33797C8.00984 7.26651 7.88327 7.22615 7.75289 7.22121C7.62251 7.21628 7.49325 7.24697 7.379 7.30997C7.26444 7.37232 7.16878 7.46437 7.10209 7.57646C7.03539 7.68855 7.00013 7.81654 7 7.94697V15.539C7.00005 15.6692 7.03519 15.7971 7.10174 15.9091C7.16829 16.0211 7.26379 16.1131 7.3782 16.1754C7.4926 16.2377 7.62168 16.2681 7.75186 16.2632C7.88205 16.2584 8.00853 16.2186 8.118 16.148L14 12.354C14.1026 12.2886 14.1871 12.1983 14.2456 12.0916C14.3041 11.9849 14.3348 11.8652 14.3348 11.7435C14.3348 11.6218 14.3041 11.502 14.2456 11.3953C14.1871 11.2886 14.1026 11.1984 14 11.133ZM8.25 14.575V8.90997L12.641 11.743L8.25 14.575Z" fill="#0F1A1C"/>
</g>
<defs>
<clipPath id="clip0_1564_84">
<rect width="20" height="20" fill="white"/>
</clipPath>
</defs>
</svg>
