<svg width="20" height="20" viewBox="0 0 20 20" fill="none" xmlns="http://www.w3.org/2000/svg">
<path d="M11.348 19H5.629C5.19712 18.9995 4.78309 18.8277 4.47771 18.5223C4.17233 18.2169 4.00053 17.8029 4 17.371V5.629C4.00053 5.19712 4.17233 4.78309 4.47771 4.47771C4.78309 4.17233 5.19712 4.00053 5.629 4H17.37C17.802 4.00026 18.2163 4.17194 18.5219 4.47735C18.8275 4.78277 18.9995 5.19695 19 5.629V11.347C18.5415 10.6845 17.943 10.1309 17.2469 9.72527C16.5508 9.31962 15.7741 9.07185 14.9717 8.99949C14.1692 8.92713 13.3607 9.03194 12.6033 9.30651C11.8459 9.58107 11.158 10.0187 10.5883 10.5884C10.0187 11.1582 9.58114 11.8461 9.30667 12.6036C9.0322 13.361 8.9275 14.1696 8.99996 14.972C9.07243 15.7744 9.3203 16.5511 9.72604 17.2471C10.1318 17.9431 10.6855 18.5415 11.348 19ZM5.629 2.625H16C15.9995 2.19419 15.8281 1.78117 15.5235 1.47654C15.2188 1.1719 14.8058 1.00053 14.375 1H2.625C2.19419 1.00053 1.78117 1.1719 1.47654 1.47654C1.1719 1.78117 1.00053 2.19419 1 2.625V14.375C1.00053 14.8058 1.1719 15.2188 1.47654 15.5235C1.78117 15.8281 2.19419 15.9995 2.625 16V15.375V5.629C2.62606 4.83261 2.94289 4.06915 3.50602 3.50602C4.06915 2.94289 4.83261 2.62606 5.629 2.625ZM19.707 18.293L17.933 16.519C18.3006 15.9094 18.4965 15.2118 18.5 14.5C18.5 13.7089 18.2654 12.9355 17.8259 12.2777C17.3864 11.6199 16.7616 11.1072 16.0307 10.8045C15.2998 10.5017 14.4956 10.4225 13.7196 10.5769C12.9437 10.7312 12.231 11.1122 11.6716 11.6716C11.1122 12.231 10.7312 12.9437 10.5769 13.7196C10.4225 14.4956 10.5017 15.2998 10.8045 16.0307C11.1072 16.7616 11.6199 17.3864 12.2777 17.8259C12.9355 18.2654 13.7089 18.5 14.5 18.5C15.2118 18.4965 15.9094 18.3006 16.519 17.933L18.293 19.707L19.707 18.293ZM14.5 16.5C14.1044 16.5 13.7178 16.3827 13.3889 16.1629C13.06 15.9432 12.8036 15.6308 12.6522 15.2654C12.5009 14.8999 12.4613 14.4978 12.5384 14.1098C12.6156 13.7219 12.8061 13.3655 13.0858 13.0858C13.3655 12.8061 13.7219 12.6156 14.1098 12.5384C14.4978 12.4613 14.8999 12.5009 15.2654 12.6522C15.6308 12.8036 15.9432 13.06 16.1629 13.3889C16.3827 13.7178 16.5 14.1044 16.5 14.5C16.5 15.0304 16.2893 15.5391 15.9142 15.9142C15.5391 16.2893 15.0304 16.5 14.5 16.5Z" fill="#0F1A1C"/>
</svg>
