<svg width="20" height="20" viewBox="0 0 20 20" fill="none" xmlns="http://www.w3.org/2000/svg">
<path d="M6.875 19H3.125C2.82671 18.9997 2.54072 18.8811 2.3298 18.6702C2.11888 18.4593 2.00026 18.1733 2 17.875V2.125C2.00053 1.82679 2.11922 1.54095 2.33009 1.33009C2.54095 1.11922 2.82679 1.00053 3.125 1H6.875C7.17321 1.00053 7.45905 1.11922 7.66991 1.33009C7.88077 1.54095 7.99947 1.82679 8 2.125V17.875C7.99974 18.1733 7.88112 18.4593 7.6702 18.6702C7.45928 18.8811 7.17329 18.9997 6.875 19ZM3.25 17.75H6.75V2.25H3.25V17.75ZM16.875 19H13.125C12.8267 18.9997 12.5407 18.8811 12.3298 18.6702C12.1189 18.4593 12.0003 18.1733 12 17.875V2.125C12.0005 1.82679 12.1192 1.54095 12.3301 1.33009C12.541 1.11922 12.8268 1.00053 13.125 1H16.875C17.1732 1.00053 17.459 1.11922 17.6699 1.33009C17.8808 1.54095 17.9995 1.82679 18 2.125V17.875C17.9997 18.1733 17.8811 18.4593 17.6702 18.6702C17.4593 18.8811 17.1733 18.9997 16.875 19ZM13.25 17.75H16.75V2.25H13.25V17.75Z" fill="#0F1A1C"/>
</svg>
