<svg width="20" height="20" viewBox="0 0 20 20" fill="none" xmlns="http://www.w3.org/2000/svg">
<g clip-path="url(#clip0_457_79)">
<path d="M16 11.5C16 12.7856 15.6188 14.0423 14.9046 15.1112C14.1903 16.1801 13.1752 17.0132 11.9874 17.5052C10.7997 17.9972 9.49279 18.1259 8.23192 17.8751C6.97104 17.6243 5.81285 17.0052 4.90381 16.0962C3.99477 15.1872 3.3757 14.029 3.1249 12.7681C2.8741 11.5072 3.00282 10.2003 3.49479 9.01256C3.98676 7.82484 4.81988 6.80967 5.8888 6.09545C6.95772 5.38122 8.21443 5 9.5 5H11V6.914C11 7.10686 11.0557 7.29562 11.1605 7.45753C11.2653 7.61944 11.4147 7.74759 11.5907 7.82654C11.7666 7.90548 11.9617 7.93186 12.1523 7.90249C12.3429 7.87312 12.521 7.78925 12.665 7.661L15.983 4.71C16.0886 4.61618 16.1731 4.50106 16.231 4.37222C16.2888 4.24338 16.3187 4.10374 16.3187 3.9625C16.3187 3.82126 16.2888 3.68162 16.231 3.55278C16.1731 3.42394 16.0886 3.30882 15.983 3.215L12.665 0.264998C12.521 0.136742 12.3429 0.0528761 12.1523 0.0235051C11.9617 -0.00586586 11.7666 0.0205116 11.5907 0.0994591C11.4147 0.178407 11.2653 0.306555 11.1605 0.468464C11.0557 0.630373 11 0.819132 11 1.012V3H9.5C7.81886 3 6.17548 3.49851 4.77766 4.43251C3.37984 5.3665 2.29037 6.69402 1.64703 8.24719C1.00368 9.80036 0.835355 11.5094 1.16333 13.1583C1.4913 14.8071 2.30085 16.3217 3.4896 17.5104C4.67834 18.6992 6.1929 19.5087 7.84174 19.8367C9.49057 20.1646 11.1996 19.9963 12.7528 19.353C14.306 18.7096 15.6335 17.6202 16.5675 16.2223C17.5015 14.8245 18 13.1811 18 11.5H16ZM13.786 3.988V3.938L13.814 3.963L13.786 3.988Z" fill="#0F1A1C"/>
</g>
<defs>
<clipPath id="clip0_457_79">
<rect width="20" height="20" fill="white"/>
</clipPath>
</defs>
</svg>
