<svg width="20" height="20" viewBox="0 0 20 20" fill="none" xmlns="http://www.w3.org/2000/svg">
<path d="M19.9289 14.17L18.2769 6.60002C18.0431 5.57661 17.4687 4.66297 16.6476 4.00888C15.8265 3.35479 14.8076 2.99906 13.7579 3.00002H5.70085C4.59651 2.997 3.52756 3.38942 2.68747 4.10624C1.84738 4.82307 1.29165 5.81695 1.12085 6.90802L0.0338549 14.387C-0.0301348 14.8321 0.0023849 15.2857 0.129206 15.717C0.256027 16.1484 0.474181 16.5474 0.768855 16.887C1.15315 17.3291 1.65051 17.6582 2.20762 17.8391C2.76472 18.02 3.36056 18.0459 3.93125 17.9139C4.50193 17.782 5.02594 17.4972 5.44708 17.0901C5.86823 16.683 6.17063 16.1689 6.32186 15.603L6.71285 13.968H12.5059L12.8969 15.603C13.0754 16.2916 13.4782 16.9011 14.0418 17.3352C14.6054 17.7693 15.2975 18.0032 16.0089 18H16.7909C17.2724 18.001 17.748 17.8936 18.1825 17.6859C18.617 17.4782 18.9992 17.1754 19.3009 16.8C19.5958 16.4366 19.8053 16.0117 19.914 15.5565C20.0227 15.1012 20.0278 14.6274 19.9289 14.17ZM8.02585 9.32302H6.25085V11.1H4.75085V9.32302H2.97585V7.82302H4.75085V6.04802H6.25085V7.82302H8.02585V9.32302ZM13.3009 10.3C13.2015 10.4002 13.0823 10.4785 12.9509 10.53C12.8153 10.5894 12.6689 10.6201 12.5209 10.62C12.3035 10.6189 12.0914 10.5534 11.9112 10.4319C11.731 10.3103 11.5909 10.1381 11.5085 9.93695C11.4262 9.73582 11.4052 9.51479 11.4483 9.30177C11.4915 9.08874 11.5967 8.89327 11.7509 8.74002C11.9605 8.54242 12.2377 8.43238 12.5259 8.43238C12.814 8.43238 13.0912 8.54242 13.3009 8.74002C13.4052 8.84134 13.4882 8.96258 13.5449 9.09657C13.6016 9.23055 13.6308 9.37454 13.6308 9.52002C13.6308 9.66549 13.6016 9.80949 13.5449 9.94347C13.4882 10.0775 13.4052 10.1987 13.3009 10.3ZM15.5409 7.97002C15.4921 8.10814 15.4096 8.23189 15.3009 8.33002C15.0948 8.53459 14.8162 8.64939 14.5259 8.64939C14.2355 8.64939 13.9569 8.53459 13.7509 8.33002C13.6421 8.23189 13.5596 8.10814 13.5109 7.97002C13.4537 7.83757 13.4264 7.69419 13.4309 7.55002C13.4276 7.47942 13.4343 7.40872 13.4509 7.34002C13.4615 7.26768 13.4817 7.19707 13.5109 7.13002C13.5402 7.06468 13.5736 7.00123 13.6109 6.94002C13.6521 6.88217 13.699 6.82857 13.7509 6.78002C13.9605 6.58242 14.2377 6.47238 14.5259 6.47238C14.814 6.47238 15.0912 6.58242 15.3009 6.78002C15.3527 6.82857 15.3996 6.88217 15.4409 6.94002C15.4781 7.00123 15.5115 7.06468 15.5409 7.13002C15.57 7.19707 15.5902 7.26768 15.6009 7.34002C15.6174 7.40872 15.6241 7.47942 15.6209 7.55002C15.6253 7.69419 15.598 7.83757 15.5409 7.97002Z" fill="#0F1A1C"/>
</svg>
