<svg width="20" height="20" viewBox="0 0 20 20" fill="none" xmlns="http://www.w3.org/2000/svg">
<g clip-path="url(#clip0_457_104)">
<path d="M10.5 3H6.43L8.69 1.117L7.89 0.156998L4.3 3.145C4.22951 3.20355 4.17278 3.27692 4.13384 3.35988C4.0949 3.44284 4.07472 3.53336 4.07472 3.625C4.07472 3.71664 4.0949 3.80716 4.13384 3.89012C4.17278 3.97308 4.22951 4.04644 4.3 4.105L7.89 7.093L8.69 6.133L6.43 4.25H10.5C11.9339 4.25 13.3356 4.6752 14.5279 5.47184C15.7201 6.26848 16.6494 7.40078 17.1981 8.72554C17.7469 10.0503 17.8904 11.508 17.6107 12.9144C17.3309 14.3208 16.6405 15.6126 15.6265 16.6265C14.6126 17.6405 13.3208 18.3309 11.9144 18.6107C10.508 18.8904 9.05031 18.7469 7.72554 18.1981C6.40078 17.6494 5.26849 16.7201 4.47185 15.5279C3.6752 14.3356 3.25 12.9339 3.25 11.5H2C2 13.1811 2.49852 14.8245 3.43251 16.2223C4.3665 17.6202 5.69402 18.7096 7.24719 19.353C8.80036 19.9963 10.5094 20.1646 12.1583 19.8367C13.8071 19.5087 15.3217 18.6992 16.5104 17.5104C17.6992 16.3217 18.5087 14.8071 18.8367 13.1583C19.1646 11.5094 18.9963 9.80036 18.353 8.24719C17.7096 6.69402 16.6202 5.3665 15.2223 4.43251C13.8245 3.49851 12.1811 3 10.5 3Z" fill="#0F1A1C"/>
</g>
<defs>
<clipPath id="clip0_457_104">
<rect width="20" height="20" fill="white"/>
</clipPath>
</defs>
</svg>
