<svg width="20" height="20" viewBox="0 0 20 20" fill="none" xmlns="http://www.w3.org/2000/svg">
<g clip-path="url(#clip0_3682_127)">
<path d="M18.573 11.608C18.2897 13.1237 17.6109 14.5377 16.6054 15.7067C15.5999 16.8757 14.3033 17.7582 12.847 18.265C13.6225 17.1248 14.1731 15.8469 14.469 14.5L13.846 14.489L13.334 14.137L13.281 14.1C12.594 16.961 11.249 18.75 10 18.75C8.3 18.75 6.418 15.442 6.265 10.625H9.59C9.28096 10.2269 8.99771 9.80933 8.742 9.375H6.265C6.381 5.715 7.49501 2.932 8.76501 1.803C9.22128 1.11355 9.79698 0.511102 10.465 0.024C10.312 0.016 10.158 0 10 0C8.02219 0 6.08879 0.58649 4.4443 1.6853C2.79981 2.78412 1.51809 4.3459 0.761209 6.17317C0.00433284 8.00043 -0.193701 10.0111 0.192152 11.9509C0.578004 13.8907 1.53041 15.6725 2.92894 17.0711C4.32746 18.4696 6.10929 19.422 8.0491 19.8079C9.98891 20.1937 11.9996 19.9957 13.8268 19.2388C15.6541 18.4819 17.2159 17.2002 18.3147 15.5557C19.4135 13.9112 20 11.9778 20 10C20 9.932 19.991 9.867 19.99 9.8C19.5702 10.4421 19.0962 11.047 18.573 11.608ZM7.153 1.735C5.72198 4.02375 4.97979 6.67594 5.015 9.375H1.282C1.40622 7.66692 2.02861 6.03277 3.07213 4.67483C4.11565 3.31688 5.53448 2.29477 7.153 1.735ZM1.282 10.625H5.015C4.97979 13.3241 5.72198 15.9763 7.153 18.265C5.53448 17.7052 4.11565 16.6831 3.07213 15.3252C2.02861 13.9672 1.40622 12.3331 1.282 10.625ZM14.535 13.178L14.117 12.94C13.59 12.578 9 9.316 9 5.55C9 4.09131 9.57947 2.69236 10.6109 1.66091C11.6424 0.629463 13.0413 0.05 14.5 0.05C15.9587 0.05 17.3576 0.629463 18.3891 1.66091C19.4205 2.69236 20 4.09131 20 5.55C20 9.315 15.409 12.578 14.886 12.937L14.535 13.178ZM14.5 1.25C13.3666 1.25793 12.2826 1.71511 11.4859 2.52123C10.6891 3.32735 10.2447 4.41659 10.25 5.55C10.25 8.268 13.45 10.89 14.5 11.674C15.541 10.894 18.75 8.274 18.75 5.55C18.7553 4.41659 18.3109 3.32735 17.5141 2.52123C16.7174 1.71511 15.6334 1.25793 14.5 1.25ZM14.5 8C14.0075 7.99802 13.5267 7.85005 13.1183 7.5748C12.71 7.29955 12.3924 6.90939 12.2058 6.45365C12.0191 5.99791 11.9718 5.49706 12.0698 5.01444C12.1679 4.53182 12.4068 4.0891 12.7564 3.74227C13.106 3.39544 13.5507 3.16007 14.0341 3.06593C14.5174 2.9718 15.0179 3.02312 15.4721 3.2134C15.9264 3.40369 16.314 3.72439 16.5859 4.13496C16.8579 4.54553 17.002 5.02753 17 5.52C16.9992 5.84714 16.9339 6.17091 16.8077 6.47275C16.6816 6.77459 16.4971 7.04856 16.2648 7.27895C16.0326 7.50935 15.7571 7.69164 15.4543 7.81537C15.1514 7.9391 14.8271 8.00184 14.5 8ZM14.5 4.27C14.2528 4.27 14.0111 4.34331 13.8055 4.48066C13.6 4.61801 13.4398 4.81324 13.3452 5.04165C13.2505 5.27005 13.2258 5.52139 13.274 5.76386C13.3223 6.00634 13.4413 6.22907 13.6161 6.40388C13.7909 6.5787 14.0137 6.69775 14.2561 6.74598C14.4986 6.79421 14.75 6.76946 14.9784 6.67485C15.2068 6.58024 15.402 6.42002 15.5393 6.21446C15.6767 6.0089 15.75 5.76723 15.75 5.52C15.7495 5.18864 15.6176 4.87101 15.3833 4.6367C15.149 4.40239 14.8314 4.27053 14.5 4.27Z" fill="#0F1A1C"/>
</g>
<defs>
<clipPath id="clip0_3682_127">
<rect width="20" height="20" fill="white"/>
</clipPath>
</defs>
</svg>
