<svg width="20" height="20" viewBox="0 0 20 20" fill="none" xmlns="http://www.w3.org/2000/svg">
<g clip-path="url(#clip0_474_37)">
<path d="M13.028 11.0279C14.5664 11.1479 16.0113 11.8134 17.1024 12.9045C18.1935 13.9956 18.859 15.4406 18.979 16.9789L13.028 11.0279ZM15 4.99993C15.0033 3.82305 14.5903 2.68291 13.8341 1.78111C13.0779 0.879312 12.0272 0.273935 10.8678 0.0720183C9.70837 -0.129898 8.51488 0.0846515 7.49836 0.677733C6.48184 1.27081 5.70776 2.20423 5.313 3.31293L11.687 9.68693C12.6542 9.3412 13.4912 8.70566 14.0841 7.86692C14.677 7.02818 14.9968 6.02704 15 4.99993ZM1.6 3.75893L8.844 10.9999H7.538C5.82142 10.985 4.16902 11.6516 2.94332 12.8535C1.71762 14.0554 1.01874 15.6944 1 17.4109V17.8929C1.00185 18.188 1.12072 18.4703 1.33052 18.6779C1.54032 18.8854 1.82389 19.0013 2.119 18.9999H16.844L17.514 19.6699L18.397 18.7849L2.486 2.87393L1.6 3.75893Z" fill="#0F1A1C"/>
</g>
<defs>
<clipPath id="clip0_474_37">
<rect width="20" height="20" fill="white"/>
</clipPath>
</defs>
</svg>
