<svg width="20" height="20" viewBox="0 0 20 20" fill="none" xmlns="http://www.w3.org/2000/svg">
<g clip-path="url(#clip0_1118_399)">
<path d="M20 8.12V15.885C20 16.0312 19.971 16.1759 19.9147 16.3108C19.8584 16.4458 19.7759 16.5682 19.672 16.671C19.5706 16.7823 19.4456 16.8694 19.3061 16.926C19.1666 16.9826 19.0162 17.0072 18.866 16.998L16.511 16.982C16.2941 16.9812 16.082 16.9181 15.9 16.8L13.981 15.587V16.887C13.9786 17.1834 13.8591 17.4667 13.6485 17.6753C13.4379 17.8838 13.1534 18.0005 12.857 18H1.126C0.829036 18.0013 0.543678 17.8848 0.332569 17.6759C0.12146 17.4671 0.00185141 17.183 0 16.886L0 7.114C0.00185141 6.81704 0.12146 6.53295 0.332569 6.32409C0.543678 6.11523 0.829036 5.99867 1.126 6H12.857C13.1541 5.99867 13.4395 6.11519 13.6508 6.32403C13.8621 6.53286 13.9819 6.81695 13.984 7.114V8.414L15.9 7.2C16.0816 7.08212 16.2935 7.01926 16.51 7.019L18.863 7.002C19.0134 6.99241 19.164 7.01694 19.3035 7.07373C19.4431 7.13053 19.568 7.21813 19.669 7.33C19.7742 7.43285 19.8577 7.55576 19.9146 7.69146C19.9714 7.82715 20.0005 7.97288 20 8.12ZM4.625 4H14V2H4.625C3.82935 2 3.06629 2.31607 2.50368 2.87868C1.94107 3.44129 1.625 4.20435 1.625 5H3.625C3.625 4.73478 3.73036 4.48043 3.91789 4.29289C4.10543 4.10536 4.35978 4 4.625 4Z" fill="#0F1A1C"/>
</g>
<defs>
<clipPath id="clip0_1118_399">
<rect width="20" height="20" fill="white"/>
</clipPath>
</defs>
</svg>
