<svg width="20" height="20" viewBox="0 0 20 20" fill="none" xmlns="http://www.w3.org/2000/svg">
<path d="M17 6.875V2.125C16.9995 1.82679 16.8808 1.54095 16.6699 1.33009C16.459 1.11922 16.1732 1.00053 15.875 1H2.125C1.82679 1.00053 1.54095 1.11922 1.33009 1.33009C1.11922 1.54095 1.00053 1.82679 1 2.125V6.875C1.00053 7.17321 1.11922 7.45905 1.33009 7.66991C1.54095 7.88077 1.82679 7.99947 2.125 8H15.875C16.1732 7.99947 16.459 7.88077 16.6699 7.66991C16.8808 7.45905 16.9995 7.17321 17 6.875ZM15.75 6.75H2.25V2.25H15.75V6.75ZM18 3.875V7.9C17.9902 8.22535 17.8673 8.53712 17.6525 8.78168C17.4377 9.02624 17.1444 9.1883 16.823 9.24L10.547 10.54C9.96065 10.6534 9.42904 10.9595 9.03674 11.4098C8.64444 11.8601 8.41397 12.4286 8.382 13.025C7.99839 13.0824 7.64804 13.2754 7.3945 13.5689C7.14095 13.8624 7.00099 14.2371 7 14.625V17.375C7.00053 17.8058 7.1719 18.2188 7.47654 18.5235C7.78117 18.8281 8.19419 18.9995 8.625 19H9.625C10.0558 18.9995 10.4688 18.8281 10.7735 18.5235C11.0781 18.2188 11.2495 17.8058 11.25 17.375V14.625C11.2498 14.1974 11.0811 13.7871 10.7805 13.4829C10.4799 13.1788 10.0716 13.0053 9.644 13C9.67636 12.6964 9.80666 12.4116 10.0152 12.1886C10.2238 11.9656 10.4992 11.8166 10.8 11.764L17.076 10.464C17.6768 10.3494 18.2203 10.0325 18.6159 9.56597C19.0114 9.09944 19.2352 8.51148 19.25 7.9V3.875H18ZM10 14.625V17.375C10 17.4745 9.96049 17.5698 9.89017 17.6402C9.81984 17.7105 9.72446 17.75 9.625 17.75H8.625C8.52554 17.75 8.43016 17.7105 8.35983 17.6402C8.28951 17.5698 8.25 17.4745 8.25 17.375V14.625C8.25 14.5255 8.28951 14.4302 8.35983 14.3598C8.43016 14.2895 8.52554 14.25 8.625 14.25H9.625C9.72446 14.25 9.81984 14.2895 9.89017 14.3598C9.96049 14.4302 10 14.5255 10 14.625Z" fill="#0F1A1C"/>
</svg>
