<svg width="20" height="20" viewBox="0 0 20 20" fill="none" xmlns="http://www.w3.org/2000/svg">
<path d="M13 4C12.4067 4 11.8266 4.17595 11.3333 4.50559C10.8399 4.83524 10.4554 5.30377 10.2284 5.85195C10.0013 6.40013 9.94189 7.00333 10.0576 7.58527C10.1734 8.16721 10.4591 8.70176 10.8787 9.12132C11.2982 9.54088 11.8328 9.8266 12.4147 9.94236C12.9967 10.0581 13.5999 9.9987 14.1481 9.77164C14.6962 9.54458 15.1648 9.16006 15.4944 8.66671C15.8241 8.17336 16 7.59334 16 7C16 6.20435 15.6839 5.44129 15.1213 4.87868C14.5587 4.31607 13.7956 4 13 4ZM13 8.75C12.6539 8.75 12.3155 8.64736 12.0278 8.45507C11.74 8.26278 11.5157 7.98947 11.3832 7.6697C11.2508 7.34993 11.2161 6.99806 11.2836 6.65859C11.3511 6.31913 11.5178 6.00731 11.7626 5.76256C12.0073 5.51782 12.3191 5.35115 12.6586 5.28363C12.9981 5.2161 13.3499 5.25076 13.6697 5.38321C13.9895 5.51566 14.2628 5.73997 14.4551 6.02775C14.6474 6.31554 14.75 6.65388 14.75 7C14.7495 7.46397 14.5649 7.90878 14.2369 8.23685C13.9088 8.56493 13.464 8.74947 13 8.75Z" fill="#0F1A1C"/>
<path d="M17.375 1H2.625C2.19419 1.00053 1.78117 1.1719 1.47654 1.47654C1.1719 1.78117 1.00053 2.19419 1 2.625V17.375C1.00053 17.8058 1.1719 18.2188 1.47654 18.5235C1.78117 18.8281 2.19419 18.9995 2.625 19H17.375C17.8058 18.9995 18.2188 18.8281 18.5235 18.5235C18.8281 18.2188 18.9995 17.8058 19 17.375V2.625C18.9995 2.19419 18.8281 1.78117 18.5235 1.47654C18.2188 1.1719 17.8058 1.00053 17.375 1ZM2.25 17.375V14.692L4.9 12.04C5.11658 11.8231 5.37379 11.6511 5.65691 11.5337C5.94003 11.4164 6.24351 11.3559 6.55 11.3559C6.85649 11.3559 7.15997 11.4164 7.44309 11.5337C7.72621 11.6511 7.98342 11.8231 8.2 12.04L13.91 17.75H2.625C2.52554 17.75 2.43016 17.7105 2.35983 17.6402C2.28951 17.5698 2.25 17.4745 2.25 17.375ZM17.75 17.375C17.75 17.4745 17.7105 17.5698 17.6402 17.6402C17.5698 17.7105 17.4745 17.75 17.375 17.75H15.675L9.075 11.156C8.40336 10.4851 7.49284 10.1082 6.5435 10.1082C5.59416 10.1082 4.68364 10.4851 4.012 11.156L2.25 12.925V2.625C2.25 2.52554 2.28951 2.43016 2.35983 2.35983C2.43016 2.28951 2.52554 2.25 2.625 2.25H17.375C17.4745 2.25 17.5698 2.28951 17.6402 2.35983C17.7105 2.43016 17.75 2.52554 17.75 2.625V17.375Z" fill="#0F1A1C"/>
</svg>
