<svg width="20" height="20" viewBox="0 0 20 20" fill="none" xmlns="http://www.w3.org/2000/svg">
<path d="M11.471 19.887C12.1953 19.6769 12.8633 19.3071 13.426 18.805C13.9275 18.3485 14.3287 17.7928 14.6041 17.1731C14.8796 16.5533 15.0232 15.8832 15.026 15.205C15.026 10.866 10.901 8.311 10.426 8.031L9.948 7.811L9.57 8.034C8.923 8.416 5.67 10.503 5.07 14.086C4.95089 14.8057 4.98086 15.5422 5.15803 16.2499C5.33521 16.9576 5.65582 17.6213 6.1 18.2C6.6987 18.9833 7.52088 19.5667 8.458 19.873C4.229 19.242 1 16.057 1 12.225C1 5.056 8.785 0.900001 9.673 0.454001L9.956 0.311001L10.328 0.454001C11.215 0.900001 19 5.056 19 12.225C19 16.078 15.734 19.277 11.471 19.887ZM10 9.536C8.26972 10.6273 7.0315 12.3485 6.547 14.336C6.46125 14.8528 6.4827 15.3817 6.61 15.8899C6.7373 16.3981 6.96774 16.8746 7.287 17.29C7.56794 17.6633 7.92381 17.9737 8.33178 18.2014C8.73975 18.429 9.1908 18.5689 9.656 18.612C10.1542 18.6621 10.6574 18.6067 11.1328 18.4494C11.6081 18.2921 12.045 18.0364 12.415 17.699C12.7648 17.385 13.0444 17.0007 13.2357 16.5713C13.4269 16.1419 13.5255 15.6771 13.525 15.207C13.525 12.193 10.971 10.188 10 9.536Z" fill="#0F1A1C"/>
</svg>
