<svg width="20" height="20" viewBox="0 0 20 20" fill="none" xmlns="http://www.w3.org/2000/svg">
<path d="M16.5 15V15.5H17H18H18.5V15V13C18.5 10.7457 17.6045 8.58365 16.0104 6.98959C14.4163 5.39553 12.2543 4.5 10 4.5C7.74566 4.5 5.58365 5.39553 3.98959 6.98959C2.39553 8.58365 1.5 10.7457 1.5 13V15V15.5H2H6H6.5V15V13C6.5 12.0717 6.86875 11.1815 7.52513 10.5251C8.1815 9.86875 9.07174 9.5 10 9.5C10.9283 9.5 11.8185 9.86875 12.4749 10.5251C13.1313 11.1815 13.5 12.0717 13.5 13V16.5H12.5V13C12.5 12.337 12.2366 11.7011 11.7678 11.2322C11.2989 10.7634 10.663 10.5 10 10.5C9.33696 10.5 8.70107 10.7634 8.23223 11.2322C7.76339 11.7011 7.5 12.337 7.5 13V16C7.5 16.1326 7.44732 16.2598 7.35355 16.3536C7.25979 16.4473 7.13261 16.5 7 16.5H1C0.867391 16.5 0.740214 16.4473 0.646447 16.3536C0.552679 16.2598 0.5 16.1326 0.5 16V13C0.5 10.4804 1.50089 8.06408 3.28249 6.28249C5.06408 4.50089 7.48044 3.5 10 3.5C12.5196 3.5 14.9359 4.50089 16.7175 6.28249C18.4991 8.06408 19.5 10.4804 19.5 13V16C19.5 16.1326 19.4473 16.2598 19.3536 16.3536C19.2598 16.4473 19.1326 16.5 19 16.5H16C15.8674 16.5 15.7402 16.4473 15.6464 16.3536C15.5527 16.2598 15.5 16.1326 15.5 16V13C15.5 11.5413 14.9205 10.1424 13.8891 9.11091C12.8576 8.07946 11.4587 7.5 10 7.5C8.54131 7.5 7.14236 8.07946 6.11091 9.11091C5.07946 10.1424 4.5 11.5413 4.5 13V13.5H3.5V13C3.5 11.2761 4.18482 9.62279 5.40381 8.40381C6.62279 7.18482 8.27609 6.5 10 6.5C11.7239 6.5 13.3772 7.18482 14.5962 8.40381C15.8152 9.62279 16.5 11.2761 16.5 13V15Z" fill="#0F1A1C" stroke="#0F1A1C"/>
</svg>
