<svg width="20" height="20" viewBox="0 0 20 20" fill="none" xmlns="http://www.w3.org/2000/svg">
<path d="M2.82606 19.974C2.27233 19.9738 1.73107 19.8095 1.27073 19.5017C0.810391 19.194 0.451632 18.7567 0.239814 18.2451C0.027996 17.7334 -0.0273694 17.1705 0.0807178 16.6274C0.188805 16.0843 0.455491 15.5855 0.847059 15.194L8.70006 7.33697C8.48462 6.59735 8.42135 5.82173 8.51406 5.05697C8.66438 3.95863 9.1249 2.92595 9.84157 2.08016C10.5582 1.23437 11.5013 0.610568 12.5601 0.281972C13.7423 -0.0922399 15.0165 -0.0552317 16.1751 0.386972C16.3523 0.452982 16.51 0.562646 16.6336 0.705808C16.7572 0.84897 16.8426 1.021 16.8821 1.20597C16.9237 1.39314 16.9173 1.58779 16.8637 1.77186C16.81 1.95593 16.7107 2.12348 16.5751 2.25897L13.6411 5.19397C13.5644 5.27026 13.5035 5.36095 13.462 5.46083C13.4205 5.56071 13.3991 5.66781 13.3991 5.77597C13.3991 5.88414 13.4205 5.99124 13.462 6.09111C13.5035 6.19099 13.5644 6.28168 13.6411 6.35797C13.798 6.50821 14.0068 6.59207 14.2241 6.59207C14.4413 6.59207 14.6501 6.50821 14.8071 6.35797L17.7401 3.42497C17.8754 3.28937 18.0427 3.19006 18.2266 3.13623C18.4105 3.0824 18.605 3.07578 18.7921 3.11697C18.9774 3.15645 19.1498 3.24202 19.2933 3.36577C19.4368 3.48952 19.5468 3.64745 19.6131 3.82497C20.0562 4.9837 20.0932 6.25848 19.7181 7.44097C19.3888 8.49861 18.7648 9.44043 17.9192 10.156C17.0737 10.8716 16.0416 11.3312 14.9441 11.481C14.179 11.5745 13.403 11.5116 12.6631 11.296L4.80506 19.153C4.54596 19.414 4.23761 19.621 3.89789 19.7619C3.55817 19.9029 3.19385 19.9749 2.82606 19.974ZM14.2261 1.27397C13.7851 1.27495 13.3469 1.34237 12.9261 1.47397C12.0979 1.72986 11.36 2.21677 10.799 2.87749C10.238 3.53821 9.87726 4.34531 9.75906 5.20397C9.67216 5.91187 9.75476 6.63028 10.0001 7.29997L10.1351 7.67297L1.73106 16.079C1.58719 16.2227 1.47307 16.3934 1.3952 16.5813C1.31734 16.7692 1.27726 16.9706 1.27726 17.174C1.27726 17.3774 1.31734 17.5787 1.3952 17.7666C1.47307 17.9545 1.58719 18.1252 1.73106 18.269C2.0262 18.5503 2.41831 18.7073 2.82606 18.7073C3.23381 18.7073 3.62592 18.5503 3.92106 18.269L12.3311 9.85897L12.7051 9.99397C13.3716 10.2409 14.0874 10.3252 14.7931 10.24C15.6514 10.121 16.4581 9.75988 17.1187 9.199C17.7793 8.63813 18.2664 7.90067 18.5231 7.07297C18.7959 6.21218 18.7879 5.28689 18.5001 4.43097L15.6901 7.24297C15.2951 7.62031 14.7698 7.83088 14.2236 7.83088C13.6773 7.83088 13.1521 7.62031 12.7571 7.24297C12.5643 7.0506 12.4113 6.8221 12.307 6.57054C12.2026 6.31899 12.1489 6.04932 12.1489 5.77697C12.1489 5.50463 12.2026 5.23496 12.307 4.9834C12.4113 4.73184 12.5643 4.50334 12.7571 4.31097L15.5691 1.49997C15.136 1.35382 14.6821 1.27851 14.2251 1.27697L14.2261 1.27397Z" fill="#0F1A1C"/>
</svg>
