<svg width="20" height="20" viewBox="0 0 20 20" fill="none" xmlns="http://www.w3.org/2000/svg">
<path d="M5.99294 6.76045L13.1289 13.9004L11.4839 15.5464C11.0853 15.928 10.5548 16.1409 10.0029 16.1409C9.45113 16.1409 8.9206 15.928 8.52194 15.5464L7.97094 14.9955L4.87094 18.8685C4.63043 19.1685 4.32935 19.4146 3.98734 19.5905C3.64534 19.7664 3.2701 19.8682 2.88609 19.8893C2.50209 19.9104 2.11795 19.8503 1.75873 19.7129C1.39952 19.5755 1.0733 19.364 0.801356 19.092C0.529414 18.8201 0.317857 18.4939 0.180488 18.1347C0.0431188 17.7754 -0.0169773 17.3913 0.00412014 17.0073C0.0252176 16.6233 0.127035 16.2481 0.302929 15.906C0.478824 15.564 0.724844 15.263 1.02494 15.0225L4.89794 11.9225L4.34694 11.3715C3.95551 10.9779 3.73578 10.4455 3.73578 9.89045C3.73578 9.33542 3.95551 8.80295 4.34694 8.40945L5.99294 6.76045ZM19.7539 6.11945C18.3961 3.5758 16.3134 1.49273 13.7699 0.134451C13.5513 0.0199654 13.3019 -0.0218823 13.0579 0.0149799C12.8139 0.0518421 12.588 0.165496 12.4129 0.339451L6.87694 5.87645L14.0129 13.0125L19.5489 7.47745C19.7234 7.3025 19.8374 7.07638 19.8743 6.83209C19.9111 6.58779 19.869 6.3381 19.7539 6.11945Z" fill="#0F1A1C"/>
</svg>
