<svg width="20" height="20" viewBox="0 0 20 20" fill="none" xmlns="http://www.w3.org/2000/svg">
<path d="M6.274 4.86L9.332 7.918L7.918 9.332L4.86 6.274L3.067 8.067C3.00895 8.12503 2.94004 8.17106 2.8642 8.20246C2.78836 8.23386 2.70708 8.25002 2.625 8.25C2.54286 8.24883 2.46172 8.23185 2.386 8.2C2.27222 8.15277 2.17491 8.07302 2.10624 7.97074C2.03758 7.86846 2.00062 7.74819 2 7.625V2.625C2 2.45924 2.06585 2.30027 2.18306 2.18306C2.30027 2.06585 2.45924 2 2.625 2H7.625C7.74863 1.99998 7.86949 2.03662 7.97229 2.10529C8.07509 2.17397 8.15522 2.27159 8.20253 2.38581C8.24985 2.50003 8.26223 2.62571 8.2381 2.74696C8.21398 2.86822 8.15443 2.97959 8.067 3.067L6.274 4.86ZM17.614 11.8C17.4997 11.7531 17.3741 11.7409 17.253 11.7651C17.1318 11.7893 17.0205 11.8488 16.933 11.936L15.14 13.726L12.082 10.668L10.668 12.082L13.726 15.14L11.933 16.933C11.8456 17.0204 11.786 17.1318 11.7619 17.253C11.7378 17.3743 11.7502 17.5 11.7975 17.6142C11.8448 17.7284 11.9249 17.826 12.0277 17.8947C12.1305 17.9634 12.2514 18 12.375 18H17.375C17.5408 18 17.6997 17.9342 17.8169 17.8169C17.9342 17.6997 18 17.5408 18 17.375V12.375C17.9994 12.2518 17.9624 12.1315 17.8938 12.0293C17.8251 11.927 17.7278 11.8472 17.614 11.8Z" fill="#0F1A1C"/>
</svg>
