<svg width="20" height="20" viewBox="0 0 20 20" fill="none" xmlns="http://www.w3.org/2000/svg">
<path d="M5.5 10C5.5 10.2967 5.41203 10.5867 5.24721 10.8334C5.08238 11.08 4.84812 11.2723 4.57403 11.3858C4.29994 11.4994 3.99834 11.5291 3.70737 11.4712C3.41639 11.4133 3.14912 11.2704 2.93934 11.0607C2.72956 10.8509 2.5867 10.5836 2.52882 10.2926C2.47095 10.0017 2.50065 9.70006 2.61418 9.42598C2.72771 9.15189 2.91997 8.91762 3.16665 8.7528C3.41332 8.58797 3.70333 8.5 4 8.5C4.39783 8.5 4.77936 8.65804 5.06066 8.93934C5.34197 9.22064 5.5 9.60218 5.5 10ZM9.16665 8.7528C9.41332 8.58797 9.70333 8.5 10 8.5C10.3978 8.5 10.7794 8.65804 11.0607 8.93934C11.342 9.22065 11.5 9.60218 11.5 10C11.5 10.2967 11.412 10.5867 11.2472 10.8334C11.0824 11.08 10.8481 11.2723 10.574 11.3858C10.2999 11.4994 9.99834 11.5291 9.70737 11.4712C9.41639 11.4133 9.14912 11.2704 8.93934 11.0607C8.72956 10.8509 8.5867 10.5836 8.52882 10.2926C8.47094 10.0017 8.50065 9.70006 8.61418 9.42598C8.72771 9.15189 8.91997 8.91762 9.16665 8.7528ZM15.1666 8.7528C15.4133 8.58797 15.7033 8.5 16 8.5C16.3978 8.5 16.7794 8.65804 17.0607 8.93934C17.342 9.22064 17.5 9.60218 17.5 10C17.5 10.2967 17.412 10.5867 17.2472 10.8334C17.0824 11.08 16.8481 11.2723 16.574 11.3858C16.2999 11.4994 15.9983 11.5291 15.7074 11.4712C15.4164 11.4133 15.1491 11.2704 14.9393 11.0607C14.7296 10.8509 14.5867 10.5836 14.5288 10.2926C14.4709 10.0017 14.5007 9.70006 14.6142 9.42597C14.7277 9.15189 14.92 8.91762 15.1666 8.7528Z" fill="#0F1A1C" stroke="#0F1A1C"/>
</svg>
