<svg width="20" height="20" viewBox="0 0 20 20" fill="none" xmlns="http://www.w3.org/2000/svg">
<path d="M7.67773 5.875H6.42773V5.25C6.42773 4.75272 6.23019 4.27581 5.87856 3.92417C5.52693 3.57254 5.05002 3.375 4.55273 3.375C4.05545 3.375 3.57854 3.57254 3.22691 3.92417C2.87528 4.27581 2.67773 4.75272 2.67773 5.25V5.875H1.42773V5.25C1.42773 4.4212 1.75697 3.62634 2.34303 3.04029C2.92908 2.45424 3.72393 2.125 4.55273 2.125C5.38154 2.125 6.17639 2.45424 6.76244 3.04029C7.34849 3.62634 7.67773 4.4212 7.67773 5.25V5.875Z" fill="#0F1A1C"/>
<path d="M18.6777 5.875H17.4277V5.25C17.4277 4.75272 17.2302 4.27581 16.8786 3.92417C16.5269 3.57254 16.05 3.375 15.5527 3.375C15.0555 3.375 14.5785 3.57254 14.2269 3.92417C13.8753 4.27581 13.6777 4.75272 13.6777 5.25V5.875H12.4277V5.25C12.4277 4.4212 12.757 3.62634 13.343 3.04029C13.9291 2.45424 14.7239 2.125 15.5527 2.125C16.3815 2.125 17.1764 2.45424 17.7624 3.04029C18.3485 3.62634 18.6777 4.4212 18.6777 5.25V5.875Z" fill="#0F1A1C"/>
<path d="M10.0527 17.875C7.76605 17.8724 5.57379 16.9628 3.95686 15.3459C2.33993 13.7289 1.43038 11.5367 1.42773 9.25C1.42773 9.08424 1.49358 8.92527 1.61079 8.80806C1.728 8.69085 1.88697 8.625 2.05273 8.625H18.0527C18.2185 8.625 18.3775 8.69085 18.4947 8.80806C18.6119 8.92527 18.6777 9.08424 18.6777 9.25C18.6751 11.5367 17.7655 13.7289 16.1486 15.3459C14.5317 16.9628 12.3394 17.8724 10.0527 17.875ZM2.70473 9.875C2.85701 11.7197 3.69735 13.4396 5.05894 14.6935C6.42052 15.9473 8.20379 16.6433 10.0547 16.6433C11.9057 16.6433 13.6889 15.9473 15.0505 14.6935C16.4121 13.4396 17.2525 11.7197 17.4047 9.875H2.70473Z" fill="#0F1A1C"/>
</svg>
