<svg width="20" height="20" viewBox="0 0 20 20" fill="none" xmlns="http://www.w3.org/2000/svg">
<path d="M2.625 15.375V16C2.19419 15.9995 1.78117 15.8281 1.47654 15.5235C1.1719 15.2188 1.00053 14.8058 1 14.375V2.624C1.00079 2.19336 1.17229 1.7806 1.47689 1.47618C1.78149 1.17177 2.19436 1.00053 2.625 1H14.375C14.8056 1.00053 15.2185 1.17177 15.5231 1.47618C15.8277 1.7806 15.9992 2.19336 16 2.624H5.629C4.834 2.62611 4.07216 2.94286 3.51001 3.50501C2.94786 4.06716 2.63111 4.829 2.629 5.624L2.625 15.375ZM19 5.625V17.375C18.9995 17.8058 18.8281 18.2188 18.5235 18.5235C18.2188 18.8281 17.8058 18.9995 17.375 19H5.625C5.19419 18.9995 4.78117 18.8281 4.47654 18.5235C4.1719 18.2188 4.00053 17.8058 4 17.375V5.625C4.00053 5.19419 4.1719 4.78117 4.47654 4.47654C4.78117 4.1719 5.19419 4.00053 5.625 4H17.375C17.8058 4.00053 18.2188 4.1719 18.5235 4.47654C18.8281 4.78117 18.9995 5.19419 19 5.625ZM15 14H8V15.5H15V14ZM15 11H8V12.5H15V11ZM15 8H8V9.5H15V8Z" fill="#0F1A1C"/>
</svg>
