<svg width="20" height="20" viewBox="0 0 20 20" fill="none" xmlns="http://www.w3.org/2000/svg">
<path d="M19 10.625H7V9.375H19V10.625ZM16 3.375H7V4.625H16V3.375ZM12 15.375H7V16.625H12V15.375ZM3.576 9.781C3.71069 9.70497 3.82446 9.59679 3.90717 9.46609C3.98987 9.3354 4.03895 9.18627 4.05 9.032C4.05 8.264 3.306 8 2.4 8H0.872V11.9H2.6C3.338 11.9 4.22 11.57 4.22 10.665C4.21526 10.4697 4.15108 10.2804 4.03602 10.1224C3.92096 9.96451 3.76049 9.8454 3.576 9.781ZM3.084 10.462C3.08241 10.381 3.06395 10.3012 3.02982 10.2278C2.99568 10.1543 2.94661 10.0888 2.88574 10.0353C2.82487 9.9819 2.75352 9.94173 2.67626 9.9174C2.599 9.89306 2.51751 9.88509 2.437 9.894V9.785C2.56278 9.79021 2.6856 9.7459 2.77908 9.66158C2.87256 9.57726 2.92926 9.45965 2.937 9.334C2.937 8.979 2.694 8.87 2.364 8.87H1.975V11.028H2.484C2.63741 11.0282 2.78509 10.9697 2.89668 10.8645C3.00828 10.7592 3.07531 10.6152 3.084 10.462ZM4.416 16.891L3.426 16.537C3.35263 16.6886 3.23756 16.8162 3.09427 16.9047C2.95099 16.9933 2.78543 17.0392 2.617 17.037C2.48615 17.0252 2.35897 16.9873 2.24289 16.9258C2.12682 16.8643 2.02416 16.7802 1.94094 16.6785C1.85771 16.5769 1.79557 16.4596 1.75815 16.3337C1.72073 16.2078 1.70878 16.0756 1.723 15.945C1.70836 15.8134 1.72016 15.6802 1.7577 15.5533C1.79523 15.4263 1.85776 15.3081 1.94159 15.2057C2.02543 15.1032 2.12889 15.0185 2.2459 14.9566C2.36292 14.8946 2.49113 14.8567 2.623 14.845C2.78392 14.8399 2.94282 14.882 3.08016 14.966C3.21749 15.0501 3.32727 15.1724 3.396 15.318L4.338 14.887C4.18142 14.5904 3.94509 14.3435 3.65568 14.1741C3.36626 14.0046 3.03526 13.9194 2.7 13.928C2.42965 13.9195 2.16034 13.9654 1.90807 14.063C1.6558 14.1606 1.42571 14.3078 1.23146 14.4961C1.03721 14.6843 0.882761 14.9096 0.777287 15.1587C0.671813 15.4078 0.617463 15.6755 0.617463 15.946C0.617463 16.2165 0.671813 16.4842 0.777287 16.7333C0.882761 16.9824 1.03721 17.2077 1.23146 17.3959C1.42571 17.5842 1.6558 17.7314 1.90807 17.829C2.16034 17.9266 2.42965 17.9725 2.7 17.964C3.05988 17.9739 3.41468 17.8773 3.71994 17.6865C4.02519 17.4956 4.26733 17.2189 4.416 16.891ZM2.539 3.014H2.562C2.646 3.374 3.462 5.898 3.462 5.898H4.6L3.282 2H1.819L0.5 5.9H1.627C1.627 5.9 2.455 3.374 2.539 3.014Z" fill="#0F1A1C"/>
</svg>
