<svg width="20" height="20" viewBox="0 0 20 20" fill="none" xmlns="http://www.w3.org/2000/svg">
<path d="M19.6 6.876L13.124 0.399999C13.0184 0.293778 12.8928 0.209561 12.7544 0.152229C12.6161 0.094896 12.4677 0.0655866 12.318 0.0659985C12.1692 0.0663778 12.022 0.0960711 11.8847 0.153381C11.7475 0.210691 11.6228 0.294494 11.518 0.399999L10.853 1.065C10.5391 1.37785 10.3331 1.7826 10.265 2.22048C10.1968 2.65835 10.27 3.10656 10.474 3.5L6.67997 7.292C6.28734 7.08831 5.8401 7.01476 5.40292 7.082C4.96573 7.14923 4.56126 7.35375 4.24797 7.666L3.58297 8.331C3.36924 8.54478 3.24917 8.8347 3.24917 9.137C3.24917 9.43929 3.36924 9.72921 3.58297 9.943L6.11297 12.473L0.292969 18.293L1.70697 19.707L7.52697 13.887L10.057 16.417C10.1618 16.5225 10.2865 16.6063 10.4237 16.6636C10.561 16.7209 10.7082 16.7506 10.857 16.751C11.0067 16.7515 11.1551 16.7223 11.2935 16.6649C11.4319 16.6076 11.5575 16.5233 11.663 16.417L12.328 15.752C12.6405 15.4389 12.8453 15.0345 12.9127 14.5973C12.9802 14.16 12.9067 13.7127 12.703 13.32L16.5 9.528C16.8943 9.7256 17.3403 9.79566 17.7763 9.72847C18.2122 9.66128 18.6164 9.46017 18.933 9.153L19.599 8.487C19.812 8.27313 19.9318 7.9836 19.9319 7.6817C19.9321 7.37981 19.8128 7.09013 19.6 6.876Z" fill="#0F1A1C"/>
</svg>
