<svg width="20" height="20" viewBox="0 0 20 20" fill="none" xmlns="http://www.w3.org/2000/svg">
<path d="M10.2061 0.368C8.30241 0.368 6.44152 0.932496 4.8587 1.99011C3.27587 3.04771 2.04221 4.55093 1.31372 6.30967C0.585225 8.06841 0.394618 10.0037 0.766001 11.8707C1.13738 13.7378 2.05408 15.4528 3.40016 16.7989C4.74624 18.145 6.46125 19.0617 8.32831 19.4331C10.1954 19.8044 12.1306 19.6138 13.8894 18.8853C15.6481 18.1568 17.1513 16.9232 18.209 15.3404C19.2666 13.7575 19.8311 11.8966 19.8311 9.993C19.8281 7.44118 18.8132 4.99472 17.0087 3.19031C15.2043 1.38591 12.7579 0.370911 10.2061 0.368ZM14.2391 6.786L11.8601 11.407C11.8003 11.5225 11.7064 11.6168 11.5911 11.677L6.97006 14.056C6.85228 14.1168 6.71824 14.1385 6.58729 14.1181C6.45634 14.0977 6.33526 14.0362 6.24155 13.9425C6.14783 13.8488 6.08634 13.7277 6.06594 13.5968C6.04554 13.4658 6.06729 13.3318 6.12806 13.214L8.50706 8.593C8.56681 8.47746 8.66074 8.38317 8.77606 8.323L13.4001 5.944C13.5178 5.88323 13.6519 5.86148 13.7828 5.88188C13.9138 5.90228 14.0349 5.96378 14.1286 6.05749C14.2223 6.1512 14.2838 6.27228 14.3042 6.40323C14.3246 6.53418 14.3028 6.66822 14.2421 6.786H14.2391Z" fill="#0F1A1C"/>
</svg>
