<svg width="20" height="20" viewBox="0 0 20 20" fill="none" xmlns="http://www.w3.org/2000/svg">
<path d="M13.219 13.5H13.719V13V11V10.5H13.219H11.525V8.809V8.309H11.025H8.975H8.475V8.809V10.5H6.781H6.281V11V13V13.5H6.781H8.475V15.248V15.748H8.975H11.025H11.525V15.248V13.5H13.219ZM15.125 2.446H4.875V1.5H15.125V2.446ZM3.70994 5.70994C4.48326 4.93662 5.53166 4.50151 6.62529 4.5H13.3747C14.4683 4.50151 15.5167 4.93662 16.2901 5.70994C17.0635 6.48334 17.4986 7.53189 17.5 8.62565V15.3744C17.4986 16.4681 17.0635 17.5167 16.2901 18.2901C15.5167 19.0635 14.4681 19.4986 13.3744 19.5H6.62565C5.53189 19.4986 4.48334 19.0635 3.70994 18.2901C2.93661 17.5167 2.5015 16.4683 2.5 15.3747V8.62533C2.5015 7.53169 2.93661 6.48327 3.70994 5.70994Z" fill="#0F1A1C" stroke="#0F1A1C"/>
</svg>
