<svg width="20" height="20" viewBox="0 0 20 20" fill="none" xmlns="http://www.w3.org/2000/svg">
<path d="M11.7246 15.2691L11.8721 15.5H12.146H14.812H15.7399L15.2296 14.725L12.1126 9.99111L15.1725 5.27202L15.6731 4.5H14.753H12.153H11.8701L11.7244 4.74254L9.99516 7.62134L8.25387 4.7413L8.10798 4.5H7.826H5.242H4.3208L4.82274 5.27244L7.88915 9.9913L4.77047 14.7249L4.25982 15.5H5.188H7.826H8.09848L8.24618 15.271L9.99452 12.5604L11.7246 15.2691ZM2.70994 2.70994C3.48327 1.93661 4.53169 1.5015 5.62533 1.5H14.3747C15.4683 1.5015 16.5167 1.93661 17.2901 2.70994C18.0635 3.48334 18.4986 4.53189 18.5 5.62565V14.3744C18.4986 15.4681 18.0635 16.5167 17.2901 17.2901C16.5167 18.0635 15.4681 18.4986 14.3744 18.5H5.62565C4.53189 18.4986 3.48334 18.0635 2.70994 17.2901C1.93661 16.5167 1.5015 15.4683 1.5 14.3747V5.62533C1.5015 4.53169 1.93661 3.48327 2.70994 2.70994Z" fill="#0F1A1C" stroke="#0F1A1C"/>
</svg>
