<svg width="20" height="20" viewBox="0 0 20 20" fill="none" xmlns="http://www.w3.org/2000/svg">
<path d="M17 1.632C16.9995 1.19933 16.8274 0.784531 16.5214 0.478586C16.2155 0.172642 15.8007 0.000529262 15.368 0H4.625C4.19419 0.000529257 3.78117 0.171904 3.47654 0.476536C3.1719 0.781168 3.00053 1.19419 3 1.625V15.5H17V1.632ZM12 4.5H8V3H12V4.5ZM3 17H17V18.368C16.9995 18.8007 16.8274 19.2155 16.5214 19.5214C16.2155 19.8274 15.8007 19.9995 15.368 20H4.632C4.19933 19.9995 3.78453 19.8274 3.47859 19.5214C3.17264 19.2155 3.00053 18.8007 3 18.368V17Z" fill="#0F1A1C"/>
</svg>
