<svg width="20" height="20" viewBox="0 0 20 20" fill="none" xmlns="http://www.w3.org/2000/svg">
<g clip-path="url(#clip0_473_93)">
<path d="M17 10.0001V10.4001C16.9568 12.029 16.3253 13.5872 15.2224 14.7866C14.1194 15.9861 12.6196 16.7457 11 16.9251V18.0001H12.42V20.0001H7.58V18.0001H9V16.9251C7.38044 16.7457 5.88058 15.9861 4.77763 14.7866C3.67469 13.5872 3.04324 12.029 3 10.4001V10.0001H5V10.4001C5.05664 11.6719 5.61431 12.8695 6.55117 13.7314C7.48803 14.5933 8.72793 15.0494 10 15.0001C11.2721 15.0494 12.512 14.5933 13.4488 13.7314C14.3857 12.8695 14.9434 11.6719 15 10.4001V10.0001H17ZM10 14.0001C11.0674 13.9919 12.0879 13.5607 12.8378 12.8011C13.5876 12.0415 14.0056 11.0155 14 9.9481V5.0481C14 3.98723 13.5786 2.96981 12.8284 2.21967C12.0783 1.46952 11.0609 1.0481 10 1.0481C8.93913 1.0481 7.92172 1.46952 7.17157 2.21967C6.42143 2.96981 6 3.98723 6 5.0481V9.9481C5.99441 11.0155 6.41238 12.0415 7.16225 12.8011C7.91212 13.5607 8.93265 13.9919 10 14.0001Z" fill="#0F1A1C"/>
</g>
<defs>
<clipPath id="clip0_473_93">
<rect width="20" height="20" fill="white"/>
</clipPath>
</defs>
</svg>
