<svg width="20" height="20" viewBox="0 0 20 20" fill="none" xmlns="http://www.w3.org/2000/svg">
<path d="M17.875 11H13V7H15.242C15.3855 7.00014 15.5258 6.95769 15.6452 6.87804C15.7645 6.79838 15.8575 6.6851 15.9125 6.55254C15.9674 6.41998 15.9818 6.2741 15.9537 6.13337C15.9257 5.99264 15.8565 5.8634 15.755 5.762L10.5 0.628L10.243 0.416L9.654 0.445L4.21 5.764C4.10952 5.8658 4.04134 5.99502 4.01404 6.13543C3.98674 6.27585 4.00153 6.42119 4.05654 6.55323C4.11156 6.68527 4.20435 6.79812 4.32328 6.8776C4.4422 6.95708 4.58196 6.99967 4.725 7H7V11H2.125C1.82917 10.9981 1.54467 11.1136 1.3338 11.3211C1.12294 11.5286 1.0029 11.8112 1 12.107V17.893C1.0029 18.1888 1.12294 18.4714 1.3338 18.6789C1.54467 18.8864 1.82917 19.0019 2.125 19H17.875C18.1708 19.0019 18.4553 18.8864 18.6662 18.6789C18.8771 18.4714 18.9971 18.1888 19 17.893V12.107C18.9971 11.8112 18.8771 11.5286 18.6662 11.3211C18.4553 11.1136 18.1708 10.9981 17.875 11ZM2.25 17.75V12.25H7V17.75H2.25ZM11.75 5.75V17.75H8.25V5.75H5.992L9.984 1.884L13.975 5.75H11.75ZM17.75 17.75H13V12.25H17.75V17.75Z" fill="#0F1A1C"/>
</svg>
