<svg width="20" height="20" viewBox="0 0 20 20" fill="none" xmlns="http://www.w3.org/2000/svg">
<path d="M17.375 2H2.625C1.92913 2.00106 1.26207 2.27796 0.770013 2.77001C0.277959 3.26207 0.00105795 3.92913 0 4.625L0 15.375C0.00105795 16.0709 0.277959 16.7379 0.770013 17.23C1.26207 17.722 1.92913 17.9989 2.625 18H17.375C18.0709 17.9989 18.7379 17.722 19.23 17.23C19.722 16.7379 19.9989 16.0709 20 15.375V4.625C19.9989 3.92913 19.722 3.26207 19.23 2.77001C18.7379 2.27796 18.0709 2.00106 17.375 2ZM18.75 15.375C18.7495 15.7395 18.6044 16.0889 18.3467 16.3467C18.0889 16.6044 17.7395 16.7495 17.375 16.75H2.625C2.26049 16.7495 1.91106 16.6044 1.65331 16.3467C1.39556 16.0889 1.25053 15.7395 1.25 15.375V4.625C1.25053 4.26049 1.39556 3.91106 1.65331 3.65331C1.91106 3.39556 2.26049 3.25053 2.625 3.25H17.375C17.7395 3.25053 18.0889 3.39556 18.3467 3.65331C18.6044 3.91106 18.7495 4.26049 18.75 4.625V15.375ZM16.55 9.675L16.579 10.264L16.367 10.518L13.438 13.447L12.554 12.563L15.116 10L12.558 7.442L13.442 6.558L16.55 9.675ZM7.442 7.442L4.884 10L7.442 12.558L6.558 13.442L3.446 10.33L3.417 9.741L3.629 9.487L6.558 6.558L7.442 7.442ZM9.375 6H10.625V14H9.375V6Z" fill="#0F1A1C"/>
</svg>
