<svg width="20" height="20" viewBox="0 0 20 20" fill="none" xmlns="http://www.w3.org/2000/svg">
<path d="M18.8849 8.994L1.9879 0.545001C1.78228 0.442149 1.55009 0.404764 1.32258 0.43788C1.09507 0.470995 0.883166 0.57302 0.715399 0.73022C0.547632 0.887419 0.432056 1.09225 0.38423 1.31712C0.336404 1.542 0.358625 1.77613 0.447901 1.988L3.8209 10L0.447901 18.012C0.376463 18.1829 0.348215 18.3688 0.36565 18.5532C0.383086 18.7376 0.44567 18.9149 0.547873 19.0694C0.650076 19.2239 0.788754 19.3508 0.951655 19.439C1.11456 19.5272 1.29667 19.5739 1.4819 19.575C1.65761 19.5749 1.83087 19.5338 1.9879 19.455L18.8879 11.006C19.0746 10.9125 19.2317 10.7689 19.3414 10.5912C19.4512 10.4136 19.5093 10.2088 19.5093 10C19.5093 9.79116 19.4512 9.58645 19.3414 9.40877C19.2317 9.2311 19.0746 9.08748 18.8879 8.994H18.8849Z" fill="#0F1A1C"/>
</svg>
