<svg width="20" height="20" viewBox="0 0 20 20" fill="none" xmlns="http://www.w3.org/2000/svg">
<path d="M10.5 3.89979V4.35719L10.9556 4.39782C15.7905 4.82899 19.5 8.4962 19.5 12.8518V13.3518H18.5V12.8518V12.8424L18.4996 12.8329C18.4423 11.3147 17.9273 9.84931 17.0222 8.62903C16.1172 7.40875 14.8643 6.49062 13.4281 5.99513L11.8795 5.4609L12.8658 6.76883C13.9656 8.22738 14.5414 10.0142 14.5001 11.8405L14.5 11.8405V11.8518C14.5 13.7236 13.9643 15.4019 13.1245 16.599C12.2835 17.798 11.1704 18.4768 10 18.4768C8.82941 18.4768 7.71638 17.7986 6.87541 16.6001C6.03586 15.4036 5.50022 13.7258 5.5 11.8529C5.50304 11.206 5.57181 10.561 5.70525 9.92792L5.75603 9.68701L5.59604 9.49987C5.51366 9.40353 5.43797 9.30168 5.36947 9.19503C5.11786 8.77093 4.99173 8.28408 5.0058 7.79106L5.03636 6.72012L4.19591 7.38456C3.36979 8.03768 2.69931 8.86639 2.23305 9.81065C1.76678 10.7549 1.5164 11.7911 1.50006 12.844L1.5 12.844V12.8518V13.3518H0.5V12.8532C0.510111 11.0458 1.14263 9.29712 2.29108 7.9015L2.57942 7.55111L2.25855 7.23024L0.712732 5.68442L1.42138 4.97828L2.96845 6.52535L3.28752 6.84442L3.63754 6.55965C3.80661 6.4221 3.97918 6.29037 4.15632 6.166L4.55545 5.88576L4.28524 5.47976L3.15521 3.78191L3.98687 3.22814L5.20078 5.05184L5.43418 5.4025L5.81937 5.23201C5.8454 5.22049 5.87095 5.20914 5.89609 5.19797C6.05502 5.12737 6.19811 5.0638 6.34702 5.00816L6.77483 4.8483L6.65426 4.4078L6.12226 2.46405L7.08605 2.20025L7.61755 4.1531L7.73666 4.59073L8.1838 4.51472C8.47698 4.46488 8.76285 4.42316 9.04482 4.39778L9.5 4.35681V3.89979V1.86279H10.5V3.89979ZM8.27039 5.57075L8.15243 5.53731L8.03239 5.56223C7.30868 5.71243 6.60582 5.94968 5.93913 6.26879L5.83824 6.31709L5.76754 6.40376C5.56013 6.65805 5.40898 6.95341 5.32404 7.27037L5.32397 7.27035L5.32186 7.2788C5.20911 7.73087 5.232 8.20613 5.38766 8.64528C5.54332 9.08443 5.82487 9.46801 6.19716 9.74815C6.56946 10.0283 7.01601 10.1926 7.48109 10.2205C7.94617 10.2485 8.40918 10.1388 8.81234 9.90529C9.2155 9.67175 9.54095 9.32464 9.74808 8.90729C9.95521 8.48994 10.0348 8.02084 9.97703 7.55852C9.91923 7.0962 9.72655 6.66114 9.42304 6.30764C9.11953 5.95414 8.71864 5.69785 8.27039 5.57075Z" fill="#0F1A1C" stroke="#0F1A1C"/>
</svg>
