<svg width="20" height="20" viewBox="0 0 20 20" fill="none" xmlns="http://www.w3.org/2000/svg">
<g clip-path="url(#clip0_474_58)">
<path d="M9.99955 20C9.79314 20.0003 9.59051 19.9447 9.41319 19.8391C9.23588 19.7334 9.09051 19.5817 8.99255 19.4L7.71155 17.04L5.28755 18.2C5.10142 18.289 4.89471 18.3261 4.68926 18.3073C4.4838 18.2885 4.28724 18.2146 4.12035 18.0933C3.95347 17.972 3.82245 17.8078 3.74116 17.6182C3.65987 17.4286 3.63133 17.2205 3.65855 17.016L4.01055 14.354L1.36955 13.862C1.16672 13.8246 0.977766 13.7331 0.822652 13.5971C0.667537 13.4612 0.55202 13.2859 0.488305 13.0897C0.424591 12.8936 0.415045 12.6838 0.460676 12.4827C0.506307 12.2815 0.605421 12.0965 0.747546 11.947L2.59955 10L0.747546 8.053C0.605141 7.90349 0.505814 7.71826 0.460081 7.51691C0.414348 7.31556 0.42391 7.1056 0.487757 6.90924C0.551603 6.71289 0.667357 6.53745 0.822763 6.4015C0.978169 6.26556 1.16744 6.17416 1.37055 6.137L4.01055 5.649L3.65855 2.987C3.63071 2.78226 3.65879 2.5738 3.73982 2.38372C3.82086 2.19364 3.95181 2.02904 4.11881 1.90735C4.2858 1.78567 4.48261 1.71144 4.68838 1.69254C4.89414 1.67364 5.10118 1.71077 5.28755 1.8L7.71155 2.96L8.99255 0.6C9.09973 0.429779 9.24831 0.289505 9.42442 0.192286C9.60052 0.0950668 9.79839 0.044075 9.99955 0.044075C10.2007 0.044075 10.3986 0.0950668 10.5747 0.192286C10.7508 0.289505 10.8994 0.429779 11.0065 0.6L12.2875 2.96L14.7115 1.8C14.8977 1.71099 15.1044 1.67392 15.3098 1.69271C15.5153 1.7115 15.7119 1.78545 15.8787 1.90675C16.0456 2.02805 16.1766 2.19218 16.2579 2.38181C16.3392 2.57143 16.3678 2.77949 16.3405 2.984L15.9885 5.646L18.6295 6.135C18.8324 6.17242 19.0213 6.26394 19.1764 6.39987C19.3316 6.53581 19.4471 6.71112 19.5108 6.90728C19.5745 7.10345 19.584 7.31318 19.5384 7.51432C19.4928 7.71546 19.3937 7.90054 19.2515 8.05L17.3995 10L19.2495 11.947C19.392 12.0965 19.4913 12.2817 19.537 12.4831C19.5827 12.6844 19.5732 12.8944 19.5093 13.0908C19.4455 13.2871 19.3297 13.4626 19.1743 13.5985C19.0189 13.7344 18.8296 13.8258 18.6265 13.863L15.9865 14.351L16.3385 17.013C16.3662 17.2175 16.338 17.4256 16.2571 17.6154C16.1761 17.8052 16.0454 17.9696 15.8787 18.0912C15.712 18.2128 15.5155 18.2872 15.3101 18.3063C15.1046 18.3254 14.8978 18.2887 14.7115 18.2L12.2875 17.04L11.0065 19.4C10.9086 19.5817 10.7632 19.7334 10.5859 19.8391C10.4086 19.9447 10.206 20.0003 9.99955 20ZM7.75555 15.758C7.96188 15.758 8.16439 15.8137 8.34165 15.9194C8.51891 16.025 8.66433 16.1765 8.76255 16.358L9.99955 18.636L11.2365 16.357C11.3767 16.0992 11.6103 15.905 11.8893 15.8142C12.1684 15.7235 12.4715 15.7431 12.7365 15.869L15.0755 16.985L14.7355 14.416C14.6971 14.1245 14.7723 13.8293 14.9454 13.5917C15.1185 13.354 15.3763 13.1919 15.6655 13.139L18.2125 12.669L16.4265 10.789C16.2244 10.576 16.1117 10.2936 16.1117 10C16.1117 9.70638 16.2244 9.42395 16.4265 9.211L18.2125 7.331L15.6645 6.86C15.3754 6.80756 15.1176 6.64568 14.9448 6.40802C14.7719 6.17037 14.6973 5.87523 14.7365 5.584L15.0755 3.015L12.7365 4.131C12.4715 4.25645 12.1685 4.27579 11.8896 4.18506C11.6107 4.09433 11.3771 3.9004 11.2365 3.643L9.99955 1.364L8.76255 3.643C8.62238 3.90076 8.38876 4.095 8.10975 4.18578C7.83074 4.27655 7.52755 4.25695 7.26255 4.131L4.92355 3.015L5.26355 5.584C5.30196 5.87552 5.22684 6.17066 5.05374 6.40835C4.88063 6.64604 4.62279 6.8081 4.33355 6.861L1.78655 7.331L3.57255 9.211C3.7747 9.42395 3.88741 9.70638 3.88741 10C3.88741 10.2936 3.7747 10.576 3.57255 10.789L1.78655 12.669L4.33455 13.14C4.62369 13.1924 4.88149 13.3543 5.05433 13.592C5.22717 13.8296 5.30174 14.1248 5.26255 14.416L4.92355 16.985L7.26255 15.869C7.41665 15.796 7.58503 15.7581 7.75555 15.758Z" fill="#0F1A1C"/>
</g>
<defs>
<clipPath id="clip0_474_58">
<rect width="20" height="20" fill="white"/>
</clipPath>
</defs>
</svg>
