<svg width="20" height="20" viewBox="0 0 20 20" fill="none" xmlns="http://www.w3.org/2000/svg">
<path d="M7.75 3C7.75 3.24723 7.67669 3.4889 7.53934 3.69446C7.40199 3.90002 7.20676 4.06024 6.97836 4.15485C6.74995 4.24946 6.49861 4.27421 6.25614 4.22598C6.01366 4.17775 5.79093 4.0587 5.61612 3.88388C5.4413 3.70907 5.32225 3.48634 5.27402 3.24386C5.22579 3.00139 5.25054 2.75005 5.34515 2.52165C5.43976 2.29324 5.59998 2.09801 5.80554 1.96066C6.0111 1.82331 6.25277 1.75 6.5 1.75C6.83152 1.75 7.14946 1.8817 7.38388 2.11612C7.6183 2.35054 7.75 2.66848 7.75 3ZM13.5 1.75C13.2528 1.75 13.0111 1.82331 12.8055 1.96066C12.6 2.09801 12.4398 2.29324 12.3452 2.52165C12.2505 2.75005 12.2258 3.00139 12.274 3.24386C12.3223 3.48634 12.4413 3.70907 12.6161 3.88388C12.7909 4.0587 13.0137 4.17775 13.2561 4.22598C13.4986 4.27421 13.7499 4.24946 13.9784 4.15485C14.2068 4.06024 14.402 3.90002 14.5393 3.69446C14.6767 3.4889 14.75 3.24723 14.75 3C14.75 2.66848 14.6183 2.35054 14.3839 2.11612C14.1495 1.8817 13.8315 1.75 13.5 1.75ZM6.5 8.75C6.25277 8.75 6.0111 8.82331 5.80554 8.96066C5.59998 9.09801 5.43976 9.29324 5.34515 9.52165C5.25054 9.75005 5.22579 10.0014 5.27402 10.2439C5.32225 10.4863 5.4413 10.7091 5.61612 10.8839C5.79093 11.0587 6.01366 11.1778 6.25614 11.226C6.49861 11.2742 6.74995 11.2495 6.97836 11.1548C7.20676 11.0602 7.40199 10.9 7.53934 10.6945C7.67669 10.4889 7.75 10.2472 7.75 10C7.75 9.66848 7.6183 9.35054 7.38388 9.11612C7.14946 8.8817 6.83152 8.75 6.5 8.75ZM13.5 8.75C13.2528 8.75 13.0111 8.82331 12.8055 8.96066C12.6 9.09801 12.4398 9.29324 12.3452 9.52165C12.2505 9.75005 12.2258 10.0014 12.274 10.2439C12.3223 10.4863 12.4413 10.7091 12.6161 10.8839C12.7909 11.0587 13.0137 11.1778 13.2561 11.226C13.4986 11.2742 13.7499 11.2495 13.9784 11.1548C14.2068 11.0602 14.402 10.9 14.5393 10.6945C14.6767 10.4889 14.75 10.2472 14.75 10C14.75 9.66848 14.6183 9.35054 14.3839 9.11612C14.1495 8.8817 13.8315 8.75 13.5 8.75ZM6.5 15.75C6.25277 15.75 6.0111 15.8233 5.80554 15.9607C5.59998 16.098 5.43976 16.2932 5.34515 16.5216C5.25054 16.7501 5.22579 17.0014 5.27402 17.2439C5.32225 17.4863 5.4413 17.7091 5.61612 17.8839C5.79093 18.0587 6.01366 18.1777 6.25614 18.226C6.49861 18.2742 6.74995 18.2495 6.97836 18.1549C7.20676 18.0602 7.40199 17.9 7.53934 17.6945C7.67669 17.4889 7.75 17.2472 7.75 17C7.75 16.6685 7.6183 16.3505 7.38388 16.1161C7.14946 15.8817 6.83152 15.75 6.5 15.75ZM13.5 15.75C13.2528 15.75 13.0111 15.8233 12.8055 15.9607C12.6 16.098 12.4398 16.2932 12.3452 16.5216C12.2505 16.7501 12.2258 17.0014 12.274 17.2439C12.3223 17.4863 12.4413 17.7091 12.6161 17.8839C12.7909 18.0587 13.0137 18.1777 13.2561 18.226C13.4986 18.2742 13.7499 18.2495 13.9784 18.1549C14.2068 18.0602 14.402 17.9 14.5393 17.6945C14.6767 17.4889 14.75 17.2472 14.75 17C14.75 16.6685 14.6183 16.3505 14.3839 16.1161C14.1495 15.8817 13.8315 15.75 13.5 15.75Z" fill="#0F1A1C"/>
</svg>
