<svg width="20" height="20" viewBox="0 0 20 20" fill="none" xmlns="http://www.w3.org/2000/svg">
<path d="M11.0001 18H12.0001C12.0001 18.5304 11.7894 19.0392 11.4143 19.4142C11.0392 19.7893 10.5305 20 10.0001 20C9.46967 20 8.96097 19.7893 8.58589 19.4142C8.21082 19.0392 8.00011 18.5304 8.00011 18H11.0001ZM19.0001 14.88V14.208C19.001 13.5612 18.8431 12.924 18.5403 12.3525C18.2374 11.7809 17.7988 11.2925 17.2631 10.93C16.898 10.6835 16.5988 10.3514 16.3916 9.96271C16.1843 9.57401 16.0753 9.14051 16.0741 8.70001L16.0691 7.09001C16.0752 5.92499 15.7452 4.78294 15.1186 3.80075C14.492 2.81856 13.5954 2.03792 12.5364 1.55241C11.4773 1.0669 10.3007 0.897115 9.1476 1.06341C7.99449 1.22971 6.91381 1.72504 6.03511 2.49001L18.8921 15.345C18.9617 15.1998 18.9986 15.0411 19.0001 14.88ZM19.4421 18.558L1.44211 0.558014L0.558105 1.44201L4.26311 5.14701C4.04684 5.76973 3.93467 6.42382 3.93111 7.08301V8.69601C3.93007 9.13755 3.82078 9.57209 3.61279 9.96157C3.4048 10.351 3.10447 10.6836 2.73811 10.93C2.20206 11.2922 1.76322 11.7806 1.46016 12.3522C1.15711 12.9238 0.999125 13.5611 1.00011 14.208V14.88C0.99984 15.1766 1.11734 15.4612 1.32679 15.6712C1.53624 15.8812 1.8205 15.9995 2.11711 16H15.1171L18.5601 19.442L19.4421 18.558Z" fill="#0F1A1C"/>
</svg>
