<svg width="20" height="20" viewBox="0 0 20 20" fill="none" xmlns="http://www.w3.org/2000/svg">
<path d="M15 13H17V16.35C16.9992 17.0526 16.7198 17.7262 16.223 18.223C15.7262 18.7198 15.0526 18.9992 14.35 19H3.65C2.94742 18.9992 2.27384 18.7198 1.77704 18.223C1.28024 17.7262 1.00079 17.0526 1 16.35V5.653C1.00079 4.94962 1.28056 4.27528 1.77792 3.77792C2.27528 3.28056 2.94962 3.00079 3.653 3H7V5H3.653C3.47989 5.00026 3.31396 5.06915 3.19155 5.19155C3.06915 5.31396 3.00026 5.47989 3 5.653V16.353C3.00026 16.5253 3.06883 16.6905 3.19067 16.8123C3.31251 16.9342 3.47769 17.0027 3.65 17.003H14.35C14.5223 17.0027 14.6875 16.9342 14.8093 16.8123C14.9312 16.6905 14.9997 16.5253 15 16.353V13ZM18.375 1H12.937C12.8113 1.00022 12.6885 1.03837 12.5848 1.10945C12.4811 1.18054 12.4012 1.28125 12.3556 1.39844C12.31 1.51563 12.3009 1.64385 12.3293 1.76633C12.3577 1.88882 12.4225 1.99988 12.515 2.085L14.591 4L8.168 10.418L9.582 11.832L16.065 5.349L17.952 7.085C18.0674 7.191 18.2183 7.24987 18.375 7.25C18.4615 7.25026 18.547 7.2322 18.626 7.197C18.7373 7.14847 18.832 7.06848 18.8984 6.96686C18.9649 6.86524 19.0002 6.74642 19 6.625V1.625C19 1.45924 18.9342 1.30027 18.8169 1.18306C18.6997 1.06585 18.5408 1 18.375 1Z" fill="#0F1A1C"/>
</svg>
