<svg width="20" height="20" viewBox="0 0 20 20" fill="none" xmlns="http://www.w3.org/2000/svg">
<path d="M9.09972 7.015L12.9847 10.9L4.64872 19.235C4.34364 19.5398 3.93 19.7111 3.49872 19.7111C3.06744 19.7111 2.65381 19.5398 2.34872 19.235L0.764724 17.649C0.46013 17.3438 0.289063 16.9302 0.289062 16.499C0.289063 16.0678 0.46013 15.6542 0.764724 15.349L9.09972 7.015ZM17.2337 4.351L15.6487 2.765C15.4977 2.61394 15.3184 2.49411 15.1211 2.41235C14.9238 2.33059 14.7123 2.28851 14.4987 2.28851C14.2851 2.28851 14.0736 2.33059 13.8763 2.41235C13.679 2.49411 13.4997 2.61394 13.3487 2.765L10.5147 5.6L14.3997 9.485L17.2357 6.649C17.5396 6.34374 17.7101 5.9305 17.7099 5.49979C17.7097 5.06908 17.5388 4.656 17.2347 4.351H17.2337ZM8.12472 0.5V0H6.87472V0.5C6.8742 0.86451 6.72916 1.21394 6.47141 1.47169C6.21366 1.72944 5.86423 1.87447 5.49972 1.875H4.99972V3.125H5.49972C5.86423 3.12553 6.21366 3.27056 6.47141 3.52831C6.72916 3.78606 6.8742 4.13549 6.87472 4.5V5H8.12472V4.5C8.12525 4.13549 8.27029 3.78606 8.52804 3.52831C8.78578 3.27056 9.13521 3.12553 9.49972 3.125H9.99972V1.875H9.49972C9.13521 1.87447 8.78578 1.72944 8.52804 1.47169C8.27029 1.21394 8.12525 0.86451 8.12472 0.5ZM19.6997 0.875C19.5473 0.874736 19.4012 0.814071 19.2934 0.706294C19.1857 0.598518 19.125 0.452418 19.1247 0.3V0H17.8747V0.3C17.8745 0.452418 17.8138 0.598518 17.706 0.706294C17.5982 0.814071 17.4521 0.874736 17.2997 0.875H16.9997V2.125H17.2997C17.4521 2.12526 17.5982 2.18593 17.706 2.29371C17.8138 2.40148 17.8745 2.54758 17.8747 2.7V3H19.1247V2.7C19.125 2.54758 19.1857 2.40148 19.2934 2.29371C19.4012 2.18593 19.5473 2.12526 19.6997 2.125H19.9997V0.875H19.6997ZM18.1247 10.3V10H16.8747V10.3C16.8745 10.4524 16.8138 10.5985 16.706 10.7063C16.5982 10.8141 16.4521 10.8747 16.2997 10.875H15.9997V12.125H16.2997C16.4521 12.1253 16.5982 12.1859 16.706 12.2937C16.8138 12.4015 16.8745 12.5476 16.8747 12.7V13H18.1247V12.7C18.125 12.5476 18.1857 12.4015 18.2934 12.2937C18.4012 12.1859 18.5473 12.1253 18.6997 12.125H18.9997V10.875H18.6997C18.5473 10.8747 18.4012 10.8141 18.2934 10.7063C18.1857 10.5985 18.125 10.4524 18.1247 10.3Z" fill="#0F1A1C"/>
</svg>
