<svg width="20" height="20" viewBox="0 0 20 20" fill="none" xmlns="http://www.w3.org/2000/svg">
<g clip-path="url(#clip0_474_96)">
<path d="M10 20C8.02219 20 6.08879 19.4135 4.4443 18.3147C2.79981 17.2159 1.51809 15.6541 0.761209 13.8268C0.00433284 11.9996 -0.193701 9.98891 0.192152 8.0491C0.578004 6.10929 1.53041 4.32746 2.92894 2.92893C4.32746 1.53041 6.10929 0.578 8.0491 0.192148C9.98891 -0.193704 11.9996 0.00432903 13.8268 0.761205C15.6541 1.51808 17.2159 2.79981 18.3147 4.4443C19.4135 6.08879 20 8.02219 20 10C19.9971 12.6513 18.9426 15.1931 17.0679 17.0679C15.1931 18.9426 12.6513 19.9971 10 20ZM10 1.25C8.26942 1.25 6.57769 1.76318 5.13876 2.72464C3.69983 3.6861 2.57833 5.05267 1.91606 6.65152C1.25379 8.25037 1.08051 10.0097 1.41813 11.707C1.75575 13.4044 2.58911 14.9635 3.81282 16.1872C5.03653 17.4109 6.59563 18.2443 8.29296 18.5819C9.9903 18.9195 11.7496 18.7462 13.3485 18.0839C14.9473 17.4217 16.3139 16.3002 17.2754 14.8612C18.2368 13.4223 18.75 11.7306 18.75 10C18.7474 7.68017 17.8246 5.45611 16.1843 3.81574C14.5439 2.17537 12.3198 1.25265 10 1.25ZM5.538 12.668C5.06821 12.3988 4.67782 12.0103 4.40633 11.5418C4.13484 11.0733 3.99186 10.5415 3.99186 10C3.99186 9.45854 4.13484 8.92667 4.40633 8.45819C4.67782 7.9897 5.06821 7.60121 5.538 7.332C6.01299 7.06364 6.55049 6.92564 7.096 6.932C7.64206 6.92617 8.17947 7.06856 8.651 7.344C9.35192 7.75949 9.8615 8.43378 10.0699 9.22149C10.2783 10.0092 10.1688 10.8473 9.76501 11.555C9.49811 12.0186 9.11257 12.4028 8.648 12.668C8.17296 12.9342 7.63754 13.074 7.093 13.074C6.54847 13.074 6.01304 12.9342 5.538 12.668ZM7.985 11.617C8.25319 11.4543 8.47309 11.223 8.622 10.947C8.77696 10.6563 8.858 10.3319 8.858 10.0025C8.858 9.67307 8.77696 9.34871 8.622 9.058C8.47228 8.7809 8.25224 8.54809 7.984 8.383C7.71848 8.21917 7.41199 8.13388 7.1 8.137C6.78857 8.13562 6.48287 8.22079 6.217 8.383C5.94618 8.54524 5.72326 8.77644 5.571 9.053C5.41604 9.3446 5.335 9.66978 5.335 10C5.335 10.3302 5.41604 10.6554 5.571 10.947C5.72033 11.2244 5.94224 11.456 6.213 11.617C6.48196 11.778 6.78955 11.863 7.103 11.863C7.41646 11.863 7.72404 11.778 7.993 11.617H7.985ZM12.57 12.676C12.0845 12.4213 11.6757 12.0415 11.386 11.576C11.0969 11.1011 10.9441 10.5559 10.9441 10C10.9441 9.44408 11.0969 8.89886 11.386 8.424C11.6748 7.9577 12.0837 7.57774 12.57 7.324C13.0601 7.06384 13.6071 6.92916 14.162 6.932C14.4775 6.93265 14.7915 6.97467 15.096 7.057C15.4065 7.14072 15.704 7.26691 15.98 7.432L15.48 8.608C15.3206 8.44174 15.1207 8.31975 14.9 8.254C14.6739 8.18063 14.4378 8.14251 14.2 8.141C13.866 8.13856 13.5366 8.21859 13.241 8.374C12.9532 8.52561 12.7114 8.75185 12.541 9.029C12.3645 9.31588 12.2736 9.64721 12.279 9.984C12.2748 10.3187 12.3612 10.6483 12.529 10.938C12.6934 11.2222 12.9328 11.4558 13.221 11.613C13.522 11.7793 13.8612 11.8641 14.205 11.859C14.4555 11.8588 14.7045 11.8196 14.943 11.743C15.1576 11.6815 15.3518 11.5634 15.505 11.401L16 12.58C15.7338 12.7405 15.4463 12.8627 15.146 12.943C14.8349 13.0286 14.5137 13.072 14.191 13.072C13.6261 13.0777 13.0687 12.9415 12.57 12.676Z" fill="#0F1A1C"/>
</g>
<defs>
<clipPath id="clip0_474_96">
<rect width="20" height="20" fill="white"/>
</clipPath>
</defs>
</svg>
