<svg width="20" height="20" viewBox="0 0 20 20" fill="none" xmlns="http://www.w3.org/2000/svg">
<path d="M2.48966 8.66158L2.50003 8.61158L2.50008 8.56051C2.50223 6.43445 3.34338 4.39515 4.84073 2.88581C6.3376 1.37695 8.36931 0.519631 10.4946 0.500002C12.6049 0.498643 14.6306 1.32972 16.1319 2.81286C17.6337 4.29648 18.4894 6.31273 18.5132 8.42363C18.537 10.5345 17.7269 12.5696 16.259 14.0867C14.7911 15.6038 12.7838 16.4804 10.6733 16.5261L10.5276 16.5293L10.4065 16.6101L7.60789 18.4782C7.60776 18.4783 7.60762 18.4784 7.60748 18.4785C7.58634 18.4924 7.56162 18.4999 7.53631 18.5C7.53616 18.5 7.53601 18.5 7.53585 18.5L3.62508 18.5C3.59193 18.5 3.56013 18.4868 3.53669 18.4634C3.51325 18.44 3.50008 18.4082 3.50008 18.375V14.819V14.5081L3.22119 14.3705L1.57019 13.5565L1.56982 13.5564C1.54494 13.5441 1.52484 13.524 1.51268 13.4991C1.50051 13.4742 1.49698 13.4459 1.50262 13.4188L1.50266 13.4186L2.48966 8.66158ZM12.0466 5.23142L11.6995 5.57845C11.3191 5.41991 10.9104 5.3361 10.4958 5.33302V5.333L10.4912 5.333C9.63728 5.33457 8.81886 5.67471 8.21541 6.27884C7.61195 6.88296 7.27271 7.70175 7.27208 8.55564V8.556V9.306V9.806H7.77208H9.24208V11.278V11.778H9.74208L10.4921 11.778L10.4928 11.778C11.3467 11.7768 12.1652 11.4369 12.7689 10.833C13.3726 10.2291 13.7121 9.41044 13.7131 8.55655L13.7131 8.55281C13.7104 8.13735 13.6266 7.72771 13.4677 7.3465L14.8605 5.95367C14.8606 5.95363 14.8606 5.95359 14.8606 5.95356C14.9767 5.8375 15.0688 5.6997 15.1317 5.54804C15.1946 5.39633 15.2269 5.23372 15.2269 5.0695C15.2269 4.90528 15.1946 4.74267 15.1317 4.59097C15.0688 4.43925 14.9767 4.30142 14.8605 4.18534C14.2873 3.61144 13.6065 3.15615 12.8572 2.84549C12.1078 2.53477 11.3044 2.37484 10.4931 2.37484C9.68176 2.37484 8.8784 2.53477 8.12894 2.84549C7.37948 3.15621 6.69862 3.61162 6.1253 4.18568L5.59453 4.71645L5.24064 5.07034L5.59486 5.42389L6.65686 6.48389L7.01075 6.83711L7.36397 6.48322L7.8896 5.9566C8.5074 5.36152 9.3097 4.99488 10.1641 4.91729C10.8116 4.8585 11.4595 4.9684 12.0466 5.23142ZM10.4921 9.278H9.77208V8.556V8.5556C9.77197 8.4125 9.81431 8.27259 9.89377 8.15357C9.97322 8.03456 10.0862 7.9418 10.2184 7.88704C10.3506 7.83228 10.4961 7.81798 10.6364 7.84596C10.7768 7.87393 10.9056 7.94292 11.0067 8.04419C11.1078 8.14545 11.1766 8.27445 11.2044 8.41483C11.2321 8.55521 11.2176 8.70067 11.1626 8.83278C11.1076 8.96489 11.0147 9.07772 10.8955 9.15698C10.7764 9.23624 10.6364 9.27836 10.4933 9.278H10.4921ZM4.81608 7.194H4.31608V7.694V8.44076C4.30569 9.25762 4.45743 10.0684 4.76253 10.8263C5.06806 11.5851 5.52128 12.2758 6.09589 12.8581C6.67051 13.4404 7.35506 13.9027 8.10982 14.2183C8.86458 14.5338 9.67451 14.6963 10.4926 14.6963C11.3107 14.6963 12.1206 14.5338 12.8753 14.2183C13.6301 13.9027 14.3147 13.4404 14.8893 12.8581C15.4639 12.2758 15.9171 11.5851 16.2226 10.8263C16.5277 10.0684 16.6795 9.2576 16.6691 8.44074V7.694V7.194H16.1691H14.6691H14.1691V7.694V8.444H14.169L14.1691 8.45174C14.1767 8.93934 14.0872 9.42357 13.9058 9.87624C13.7244 10.3289 13.4548 10.741 13.1127 11.0885C12.7705 11.436 12.3627 11.7119 11.9128 11.9003C11.463 12.0886 10.9802 12.1856 10.4926 12.1856C10.0049 12.1856 9.52214 12.0886 9.07232 11.9003C8.62251 11.7119 8.21466 11.436 7.87251 11.0885C7.53037 10.741 7.26075 10.3289 7.07938 9.87624C6.898 9.42357 6.80848 8.93934 6.81602 8.45174L6.81608 8.45174V8.444V7.694V7.194H6.31608H4.81608Z" fill="#0F1A1C" stroke="#0F1A1C"/>
</svg>
