<svg width="20" height="20" viewBox="0 0 20 20" fill="none" xmlns="http://www.w3.org/2000/svg">
<path d="M12.9992 10.9672C12.7863 10.8665 12.5537 10.8142 12.3182 10.8142C12.0827 10.8142 11.8501 10.8665 11.6372 10.9672C11.4448 11.0605 11.2808 11.2034 11.1622 11.3812C11.048 11.5515 10.9877 11.7522 10.9892 11.9572C10.9864 12.1627 11.0491 12.3638 11.1682 12.5312C11.2915 12.7028 11.4582 12.8384 11.6512 12.9242C11.8609 13.0193 12.089 13.0671 12.3192 13.0642C12.5511 13.0677 12.7807 13.0178 12.9902 12.9182C13.1809 12.8289 13.3447 12.6909 13.4652 12.5182C13.5801 12.3509 13.6405 12.1522 13.6382 11.9492C13.6392 11.7466 13.58 11.5482 13.4682 11.3792C13.351 11.2029 13.1891 11.0608 12.9992 10.9672Z" fill="#0F1A1C"/>
<path d="M11.7472 9.22724C11.9237 9.32154 12.1211 9.3697 12.3212 9.36724C12.5207 9.36997 12.7175 9.32179 12.8932 9.22724C13.0587 9.13629 13.1968 9.00266 13.2932 8.84024C13.3911 8.67546 13.4416 8.48688 13.4392 8.29524C13.4424 8.10849 13.3924 7.92469 13.295 7.76532C13.1976 7.60595 13.0568 7.47759 12.8892 7.39524C12.7117 7.31031 12.5175 7.26622 12.3207 7.26622C12.1239 7.26622 11.9297 7.31031 11.7522 7.39524C11.585 7.47729 11.444 7.60439 11.3452 7.76224C11.2445 7.92232 11.1924 8.10815 11.1952 8.29724C11.1934 8.48805 11.2438 8.67573 11.3409 8.83999C11.438 9.00425 11.5781 9.13885 11.7462 9.22924L11.7472 9.22724Z" fill="#0F1A1C"/>
<path d="M18.6362 6.72924L13.2702 1.36424C12.4016 0.498698 11.2254 0.0126953 9.9992 0.0126953C8.77299 0.0126953 7.59677 0.498698 6.7282 1.36424L1.3642 6.72924C0.496948 7.59691 0.00976563 8.77347 0.00976562 10.0002C0.00976563 11.227 0.496948 12.4036 1.3642 13.2712L6.7292 18.6362C7.59764 19.502 8.77391 19.9882 10.0002 19.9882C11.2265 19.9882 12.4028 19.502 13.2712 18.6362L18.6372 13.2712C19.5026 12.4025 19.9884 11.2262 19.9882 10C19.9881 8.77383 19.5019 7.59768 18.6362 6.72924ZM8.2042 14.5002H6.2882V8.27724L4.6472 9.00024V7.22924L7.6362 5.86324H8.2042V14.5002ZM15.0662 13.3522C14.7752 13.7516 14.3831 14.0664 13.9302 14.2642C13.4178 14.483 12.8662 14.5952 12.3091 14.5942C11.7519 14.5932 11.2008 14.4789 10.6892 14.2582C10.2371 14.0577 9.84616 13.7409 9.5562 13.3402C9.28668 12.9669 9.14275 12.5177 9.1452 12.0572C9.14637 11.6378 9.26633 11.2273 9.4912 10.8732C9.72704 10.5056 10.0517 10.2033 10.4352 9.99424C10.1666 9.76517 9.94977 9.48155 9.7992 9.16224C9.64688 8.8421 9.56861 8.49177 9.5702 8.13724C9.56175 7.69183 9.69403 7.25511 9.9482 6.88924C10.2036 6.5266 10.5517 6.23924 10.9562 6.05724C11.3869 5.85925 11.8562 5.75919 12.3302 5.76424C12.8039 5.76028 13.2724 5.8628 13.7012 6.06424C14.1041 6.24622 14.4498 6.53455 14.7012 6.89824C14.9499 7.26624 15.0788 7.70214 15.0702 8.14624C15.0724 8.49975 14.9955 8.84928 14.8452 9.16924C14.6937 9.4885 14.4747 9.77103 14.2032 9.99724C14.5861 10.2062 14.9107 10.5077 15.1472 10.8742C15.3808 11.249 15.4984 11.6845 15.4853 12.1259C15.4721 12.5674 15.3287 12.995 15.0732 13.3552L15.0662 13.3522Z" fill="#0F1A1C"/>
</svg>
