<svg width="20" height="20" viewBox="0 0 20 20" fill="none" xmlns="http://www.w3.org/2000/svg">
<path d="M11.5 16.262L11.18 16.069C11.009 15.968 7 13.536 7 10.48C6.99199 9.76493 7.26799 9.07589 7.76743 8.56408C8.26686 8.05226 8.94895 7.75949 9.664 7.75C10.352 7.75365 11.0112 8.02686 11.5 8.511C11.9888 8.02686 12.648 7.75365 13.336 7.75C14.0511 7.75949 14.7331 8.05226 15.2326 8.56408C15.732 9.07589 16.008 9.76493 16 10.48C16 13.536 11.991 15.968 11.82 16.069L11.5 16.262ZM9.664 9C9.28046 9.00944 8.9163 9.1705 8.65127 9.4479C8.38624 9.7253 8.24195 10.0964 8.25 10.48C8.25 12.249 10.362 14.03 11.499 14.792C12.637 14.028 14.75 12.244 14.75 10.48C14.7581 10.0964 14.6138 9.7253 14.3487 9.4479C14.0837 9.1705 13.7195 9.00944 13.336 9C13.066 9.00273 12.8026 9.08348 12.5774 9.23252C12.3522 9.38156 12.175 9.59252 12.067 9.84L11.5 11.068L10.933 9.84C10.825 9.59252 10.6478 9.38156 10.4226 9.23252C10.1974 9.08348 9.934 9.00273 9.664 9ZM17.375 19H5.625C5.19419 18.9995 4.78117 18.8281 4.47654 18.5235C4.1719 18.2188 4.00053 17.8058 4 17.375V5.625C4.00053 5.19419 4.1719 4.78117 4.47654 4.47654C4.78117 4.1719 5.19419 4.00053 5.625 4H17.375C17.8058 4.00053 18.2188 4.1719 18.5235 4.47654C18.8281 4.78117 18.9995 5.19419 19 5.625V17.375C18.9995 17.8058 18.8281 18.2188 18.5235 18.5235C18.2188 18.8281 17.8058 18.9995 17.375 19ZM5.625 5.25C5.52554 5.25 5.43016 5.28951 5.35984 5.35984C5.28951 5.43016 5.25 5.52554 5.25 5.625V17.375C5.25 17.4745 5.28951 17.5698 5.35984 17.6402C5.43016 17.7105 5.52554 17.75 5.625 17.75H17.375C17.4745 17.75 17.5698 17.7105 17.6402 17.6402C17.7105 17.5698 17.75 17.4745 17.75 17.375V5.625C17.75 5.52554 17.7105 5.43016 17.6402 5.35984C17.5698 5.28951 17.4745 5.25 17.375 5.25H5.625ZM2.625 14.75C2.52554 14.75 2.43016 14.7105 2.35983 14.6402C2.28951 14.5698 2.25 14.4745 2.25 14.375V2.624C2.25026 2.52472 2.28989 2.42959 2.36019 2.35948C2.43049 2.28937 2.52572 2.25 2.625 2.25H14.375C14.4743 2.25 14.5695 2.28937 14.6398 2.35948C14.7101 2.42959 14.7497 2.52472 14.75 2.624H16C15.9992 2.19336 15.8277 1.7806 15.5231 1.47618C15.2185 1.17177 14.8056 1.00053 14.375 1H2.625C2.19436 1.00053 1.78149 1.17177 1.47689 1.47618C1.17229 1.7806 1.00079 2.19336 1 2.624V14.375C1.00053 14.8058 1.1719 15.2188 1.47654 15.5235C1.78117 15.8281 2.19419 15.9995 2.625 16V14.75Z" fill="#0F1A1C"/>
</svg>
