<svg width="20" height="20" viewBox="0 0 20 20" fill="none" xmlns="http://www.w3.org/2000/svg">
<path d="M3.23828 4.99868V4.99977H2.98828L2.98828 4.99868C2.9872 4.50208 2.78926 4.02617 2.43785 3.67527C2.08644 3.32438 1.61025 3.12713 1.11364 3.12677H1.11328V2.87677L1.11401 2.87677C1.61135 2.87605 2.08807 2.67797 2.43948 2.32605C2.7909 1.97412 2.98828 1.49711 2.98828 0.999769L3.23828 0.999769C3.23828 1.49711 3.43566 1.97412 3.78708 2.32605C4.13849 2.67797 4.61522 2.87605 5.11256 2.87677H5.11328V3.12677L5.11292 3.12677C4.61632 3.12713 4.14012 3.32438 3.78871 3.67527C3.43731 4.02617 3.23936 4.50208 3.23828 4.99868ZM17.2177 4.49977H17.505C17.5187 4.57203 17.5398 4.64288 17.5681 4.71115C17.6221 4.84157 17.7013 4.96008 17.8011 5.05991C17.901 5.15973 18.0195 5.23892 18.1499 5.29294C18.2182 5.32122 18.289 5.34232 18.3613 5.356V5.6447C18.1504 5.68481 17.9546 5.78748 17.8008 5.94158C17.6476 6.095 17.5455 6.28986 17.5054 6.49977H17.2175C17.1777 6.2891 17.0754 6.09349 16.9218 5.93958C16.768 5.78548 16.5722 5.68281 16.3613 5.6427V5.357C16.4335 5.34332 16.5044 5.32222 16.5727 5.29394C16.7031 5.23992 16.8216 5.16073 16.9214 5.06091C17.0212 4.96109 17.1004 4.84258 17.1545 4.71215C17.1829 4.64356 17.204 4.57238 17.2177 4.49977ZM7.49929 5.16377L7.49928 5.16157C7.49737 4.72876 7.66297 4.312 7.96141 3.99854L7.96192 3.99799L11.0269 0.768994L11.027 0.769027L11.0317 0.763939C11.1445 0.641663 11.2921 0.556827 11.4546 0.520807C11.6171 0.484788 11.7867 0.499308 11.9407 0.562424L11.9427 0.563233C12.1082 0.630254 12.2498 0.745483 12.3491 0.893968C12.4483 1.04245 12.5007 1.21734 12.4993 1.39594L12.4993 1.39594V1.39977V6.04377H7.49928L7.49929 5.16377ZM11.9993 17.5248H12.4993V17.0248V10.9998V10.4998H11.9993H10.5343H10.0343V10.9998V17.0248V17.5248H10.5343H11.9993ZM5.82913 8.8301C6.04016 8.61894 6.32636 8.50014 6.6249 8.49977H13.3737C13.6722 8.50014 13.9584 8.61894 14.1694 8.8301C14.3805 9.04127 14.4991 9.32754 14.4993 9.62608V18.3742C14.4989 18.6726 14.3802 18.9587 14.1692 19.1697C13.9582 19.3807 13.6721 19.4994 13.3737 19.4998H6.62489C6.32648 19.4994 6.04039 19.3807 5.82937 19.1697C5.61844 18.9587 5.49974 18.6728 5.49928 18.3745C5.49928 18.3744 5.49928 18.3743 5.49928 18.3742L5.49928 9.62608C5.49946 9.32754 5.61809 9.04127 5.82913 8.8301Z" fill="#0F1A1C" stroke="#0F1A1C"/>
</svg>
