<svg width="20" height="20" viewBox="0 0 20 20" fill="none" xmlns="http://www.w3.org/2000/svg">
<g clip-path="url(#clip0_474_39)">
<path d="M19.9401 9.212C19.7992 8.47143 19.4052 7.80286 18.8256 7.32073C18.2461 6.8386 17.517 6.57286 16.7631 6.569C16.3125 6.56791 15.8677 6.67056 15.4631 6.869C13.9812 6.03469 12.3232 5.56188 10.6241 5.489L11.4351 1.748L13.8791 2.267C13.9705 2.59485 14.1711 2.88164 14.4478 3.07986C14.7244 3.27807 15.0605 3.37582 15.4003 3.3569C15.7401 3.33799 16.0633 3.20354 16.3162 2.97584C16.5692 2.74813 16.7367 2.44084 16.7911 2.10488C16.8455 1.76892 16.7835 1.42446 16.6154 1.12856C16.4472 0.832668 16.183 0.603102 15.8666 0.477904C15.5501 0.352706 15.2003 0.33939 14.8753 0.440162C14.5502 0.540935 14.2693 0.749747 14.0791 1.032L11.5731 0.500001C11.2822 0.439054 10.979 0.495415 10.7293 0.65683C10.4797 0.818246 10.3039 1.07167 10.2401 1.362L9.34413 5.5C7.66244 5.57197 6.02096 6.03671 4.55113 6.857C4.13849 6.66884 3.69064 6.57034 3.23713 6.568C2.48546 6.5721 1.75846 6.83662 1.17991 7.31652C0.601364 7.79642 0.207056 8.46203 0.0641323 9.2C-0.0148315 9.60029 -0.0209292 10.0115 0.0461323 10.414C0.159339 11.0796 0.478283 11.693 0.958132 12.168L1.02413 12.239V12.366C1.10013 16.056 5.03813 18.948 10.0001 18.948C14.9621 18.948 18.8921 16.059 18.9661 12.382L18.9721 12.243L19.0161 12.197C19.5091 11.7184 19.8378 11.096 19.9551 10.419C20.0232 10.0191 20.0181 9.61011 19.9401 9.212Z" fill="#0F1A1C"/>
</g>
<defs>
<clipPath id="clip0_474_39">
<rect width="20" height="20" fill="white"/>
</clipPath>
</defs>
</svg>
