<svg width="20" height="20" viewBox="0 0 20 20" fill="none" xmlns="http://www.w3.org/2000/svg">
<g clip-path="url(#clip0_474_59)">
<path d="M15.523 10.947C16.7483 10.8206 17.8836 10.2453 18.7101 9.332C19.5367 8.41866 19.9961 7.23182 20 6C20 5.46957 19.7893 4.96086 19.4142 4.58579C19.0391 4.21071 18.5304 4 18 4H16V2.135C16.0024 1.83688 15.8865 1.54997 15.6776 1.3372C15.4688 1.12443 15.1841 1.00317 14.886 1H5.114C4.81589 1.00317 4.5312 1.12443 4.32236 1.3372C4.11353 1.54997 3.9976 1.83688 4 2.135V4H2C1.46957 4 0.960859 4.21071 0.585786 4.58579C0.210714 4.96086 0 5.46957 0 6C0.00386678 7.23182 0.463315 8.41866 1.28988 9.332C2.11644 10.2453 3.25168 10.8206 4.477 10.947C4.83144 11.9368 5.43304 12.8196 6.22467 13.5114C7.01629 14.2033 7.97165 14.6813 9 14.9V17H6V19H14V17H11V14.9C12.0283 14.6813 12.9837 14.2033 13.7753 13.5114C14.567 12.8196 15.1686 11.9368 15.523 10.947ZM18 6C17.998 6.62204 17.8024 7.22802 17.4402 7.73375C17.078 8.23948 16.5673 8.61985 15.979 8.822C15.988 8.666 16 8.51 16 8.352V6H18ZM2 6H4V8.352C4 8.51 4.012 8.666 4.021 8.822C3.43272 8.61985 2.92201 8.23948 2.55983 7.73375C2.19764 7.22802 2.00197 6.62204 2 6Z" fill="#0F1A1C"/>
</g>
<defs>
<clipPath id="clip0_474_59">
<rect width="20" height="20" fill="white"/>
</clipPath>
</defs>
</svg>
