<svg width="20" height="20" viewBox="0 0 20 20" fill="none" xmlns="http://www.w3.org/2000/svg">
<path d="M11.261 13.02L10.576 14.626C10.2339 14.5144 9.91336 14.3453 9.62804 14.126C9.40292 13.955 9.2298 13.7248 9.12804 13.461H9.08804C8.7793 13.8221 8.39714 14.1132 7.96704 14.315C7.50135 14.5279 6.99401 14.6341 6.48204 14.626C5.92001 14.6363 5.36461 14.5034 4.86804 14.24C4.39457 13.9815 4.00857 13.5882 3.75904 13.11C3.47829 12.5586 3.34073 11.9455 3.35904 11.327V6.1H5.21504V11.138C5.2063 11.4786 5.27934 11.8164 5.42804 12.123C5.55967 12.3907 5.76871 12.6126 6.02804 12.76C6.30166 12.9103 6.60992 12.9861 6.92204 12.98C7.25918 12.9881 7.59193 12.9022 7.88304 12.732C8.15036 12.5722 8.36731 12.3403 8.50904 12.063C8.65462 11.7766 8.72905 11.4593 8.72604 11.138V6.1H10.583V11.871C10.5783 12.0603 10.5971 12.2494 10.639 12.434C10.6708 12.5651 10.7404 12.684 10.839 12.776C10.9642 12.8816 11.1071 12.9642 11.261 13.02ZM17 1.416L10.608 16.862H12.167L18.583 1.416H17Z" fill="#0F1A1C"/>
</svg>
