<svg width="20" height="20" viewBox="0 0 20 20" fill="none" xmlns="http://www.w3.org/2000/svg">
<path d="M18.9719 8.50006H18.9723C18.9933 8.50008 19.014 8.49481 19.0324 8.48475C19.0508 8.47468 19.0664 8.46014 19.0777 8.44247C19.089 8.4248 19.0957 8.40455 19.0971 8.38362C19.0986 8.36268 19.0947 8.34172 19.0859 8.32266L19.0858 8.32251L16.3178 2.32251L16.3177 2.32221C16.3081 2.30139 16.293 2.28361 16.274 2.27081C16.255 2.25801 16.2328 2.25068 16.2099 2.24962C16.187 2.24857 16.1643 2.25383 16.1442 2.26484C16.1241 2.27584 16.1074 2.29216 16.0959 2.31201L16.0959 2.31209L14.5086 5.06074C14.5085 5.06091 14.5084 5.06108 14.5083 5.06125C14.4537 5.1568 14.4249 5.26497 14.4249 5.37506C14.4249 5.4851 14.4537 5.59323 14.5083 5.68875C14.5084 5.68896 14.5085 5.68917 14.5086 5.68939L15.9516 8.18762L18.9719 8.50006ZM18.9719 8.50006H16.4931C16.3834 8.50001 16.2756 8.47111 16.1806 8.41627C16.0857 8.36151 16.0068 8.28279 15.9518 8.18798L18.9719 8.50006ZM11.6624 13.5001H11.6609H8.34111C8.23139 13.5 8.12361 13.4711 8.02857 13.4163C7.93368 13.3615 7.85481 13.2828 7.79986 13.188C7.79978 13.1879 7.7997 13.1878 7.79962 13.1876L6.00017 10.0626L5.99918 10.0609C5.98845 10.0424 5.9828 10.0214 5.9828 10.0001C5.9828 9.97871 5.98845 9.95773 5.99918 9.93927L6.00016 9.93756L7.79962 6.8125C7.79969 6.81238 7.79976 6.81226 7.79984 6.81213C7.85478 6.71733 7.93366 6.63861 8.02857 6.58385C8.12361 6.52901 8.23139 6.50012 8.34111 6.50006H11.6606C11.7703 6.50012 11.8781 6.52901 11.9732 6.58385C12.0681 6.63861 12.1469 6.71732 12.2019 6.81211C12.202 6.81224 12.202 6.81237 12.2021 6.8125L14.0016 9.93756L14.0015 9.93757L14.0042 9.94204C14.015 9.96043 14.0208 9.98137 14.0209 10.0027C14.0211 10.024 14.0156 10.0449 14.0051 10.0634C14.005 10.0635 14.005 10.0636 14.005 10.0636L12.2061 13.1876C12.206 13.1877 12.206 13.1879 12.2059 13.188C12.1508 13.2831 12.0715 13.362 11.9762 13.4168C11.8807 13.4717 11.7725 13.5004 11.6624 13.5001ZM1.02986 8.50006H1.02941C1.00842 8.50008 0.987768 8.49481 0.969351 8.48475C0.950933 8.47468 0.935348 8.46014 0.924031 8.44247C0.912712 8.4248 0.906027 8.40456 0.90459 8.38362C0.903154 8.36268 0.907012 8.34172 0.91581 8.32266L0.915879 8.32251L3.68363 2.32305C3.68365 2.323 3.68367 2.32296 3.6837 2.32291C3.69346 2.30188 3.70879 2.28392 3.72804 2.27099C3.74732 2.25802 3.76979 2.2506 3.79301 2.24952L3.79301 2.24956L3.79898 2.24921C3.81979 2.248 3.84053 2.25267 3.85881 2.2627C3.87709 2.27272 3.89218 2.28769 3.90235 2.30589L3.9023 2.30592L3.90587 2.31209L5.49309 5.06073C5.49318 5.0609 5.49328 5.06107 5.49338 5.06124C5.54804 5.15679 5.5768 5.26497 5.5768 5.37506C5.5768 5.48514 5.54805 5.5933 5.4934 5.68885C5.49329 5.68903 5.49319 5.68921 5.49309 5.68939L4.05011 8.18762C3.99515 8.28258 3.91619 8.36144 3.82116 8.41627C3.72612 8.47111 3.61834 8.50001 3.50861 8.50006H1.02986ZM4.05011 11.8125L4.05012 11.8125L5.49609 14.3107C5.49623 14.311 5.49637 14.3112 5.4965 14.3115C5.55108 14.407 5.5798 14.5151 5.5798 14.6251C5.5798 14.7351 5.55105 14.8433 5.49641 14.9388C5.4963 14.939 5.4962 14.9392 5.49609 14.9394L3.90931 17.6873C3.90928 17.6873 3.90924 17.6874 3.9092 17.6875C3.89814 17.7065 3.8823 17.7222 3.86326 17.7332C3.84415 17.7442 3.82248 17.75 3.80042 17.7501H3.78584C3.76519 17.7479 3.74533 17.7408 3.72803 17.7291C3.70879 17.7162 3.69346 17.6982 3.68369 17.6772C3.68367 17.6772 3.68365 17.6771 3.68363 17.6771L0.915879 11.6776L0.91581 11.6775C0.907012 11.6584 0.903154 11.6374 0.90459 11.6165C0.906027 11.5956 0.912712 11.5753 0.92403 11.5577C0.935348 11.54 0.950934 11.5254 0.969349 11.5154C0.98777 11.5053 1.00843 11.5 1.02941 11.5001H1.02986H3.50861C3.61834 11.5001 3.72612 11.529 3.82116 11.5838C3.91619 11.6387 3.99515 11.7175 4.05011 11.8125ZM18.9719 11.5001H18.9723C18.9933 11.5 19.014 11.5053 19.0324 11.5154C19.0508 11.5254 19.0664 11.54 19.0777 11.5576C19.089 11.5753 19.0957 11.5956 19.0971 11.6165C19.0986 11.6374 19.0947 11.6584 19.0859 11.6775L19.0858 11.6776L16.3181 17.6771C16.3083 17.6982 16.293 17.7162 16.2737 17.7291C16.2564 17.7408 16.2365 17.7479 16.2159 17.7501H16.2043C16.1822 17.75 16.1606 17.7442 16.1415 17.7332C16.1224 17.7222 16.1065 17.7064 16.0955 17.6874C16.0955 17.6873 16.0954 17.6873 16.0954 17.6873L14.5086 14.9394C14.5085 14.9392 14.5085 14.9391 14.5084 14.9389C14.4537 14.8434 14.4249 14.7352 14.4249 14.6251C14.4249 14.515 14.4537 14.4069 14.5083 14.3114C14.5084 14.3112 14.5085 14.3109 14.5086 14.3107L15.9516 11.8125C15.9517 11.8124 15.9517 11.8123 15.9518 11.8123C16.0067 11.7174 16.0856 11.6386 16.1806 11.5838C16.2756 11.529 16.3834 11.5001 16.4931 11.5001H18.9719Z" fill="#0F1A1C" stroke="#0F1A1C"/>
</svg>
