<svg width="20" height="20" viewBox="0 0 20 20" fill="none" xmlns="http://www.w3.org/2000/svg">
<path d="M2.25 19.775H1V2.193L1.353 2.022C2.74447 1.3531 4.2686 1.00578 5.8125 1.00578C7.3564 1.00578 8.88053 1.3531 10.272 2.022C11.4721 2.59749 12.7843 2.90133 14.1152 2.91187C15.4461 2.92242 16.7629 2.63941 17.972 2.083L18.281 1.939L18.666 2.127C18.7684 2.19149 18.8528 2.28092 18.9112 2.38691C18.9696 2.49289 19.0002 2.61198 19 2.733V14.79L18.647 14.96C17.2557 15.6294 15.7315 15.977 14.1875 15.977C12.6435 15.977 11.1193 15.6294 9.728 14.96C8.56527 14.4008 7.29624 14.0972 6.00634 14.0696C4.71643 14.042 3.43558 14.2911 2.25 14.8V19.775ZM5.812 12.819C7.3563 12.8167 8.88108 13.164 10.272 13.835C11.4345 14.3945 12.7033 14.6986 13.9931 14.7271C15.283 14.7556 16.5639 14.5076 17.75 14V3.531C16.4568 4.01485 15.0787 4.23033 13.6995 4.16431C12.3203 4.09829 10.9691 3.75216 9.728 3.147C8.56534 2.58776 7.29641 2.28396 6.00655 2.25602C4.71668 2.22807 3.43579 2.47664 2.25 2.985V13.453C3.39048 13.0326 4.59651 12.818 5.812 12.819Z" fill="#0F1A1C"/>
</svg>
