<svg width="20" height="20" viewBox="0 0 20 20" fill="none" xmlns="http://www.w3.org/2000/svg">
<path d="M16.377 1H3.623C2.92758 1.00079 2.26087 1.2774 1.76914 1.76914C1.2774 2.26087 1.00079 2.92758 1 3.623V13.423C1.00106 14.1063 1.27304 14.7613 1.75631 15.2444C2.23958 15.7275 2.89469 15.9992 3.578 16H7.012V18.664C7.01226 18.9596 7.12945 19.243 7.33798 19.4525C7.5465 19.662 7.82944 19.7804 8.125 19.782C8.41327 19.7781 8.68982 19.6673 8.901 19.471L12.331 16H16.377C17.0724 15.9992 17.7391 15.7226 18.2309 15.2309C18.7226 14.7391 18.9992 14.0724 19 13.377V3.623C18.9992 2.92758 18.7226 2.26087 18.2309 1.76914C17.7391 1.2774 17.0724 1.00079 16.377 1ZM9.53 11.53C9.4605 11.5998 9.37791 11.6552 9.28696 11.6929C9.196 11.7307 9.09849 11.7502 9 11.7502C8.90151 11.7502 8.804 11.7307 8.71304 11.6929C8.62209 11.6552 8.5395 11.5998 8.47 11.53L6.47 9.53L7.53 8.47L9 9.939L13.47 5.47L14.53 6.53L9.53 11.53Z" fill="#0F1A1C"/>
</svg>
