<svg width="20" height="20" viewBox="0 0 20 20" fill="none" xmlns="http://www.w3.org/2000/svg">
<g clip-path="url(#clip0_1205_24)">
<path d="M9.19964 20C9.05261 20.0003 8.90696 19.9715 8.77103 19.9155C8.63511 19.8594 8.51156 19.7771 8.40745 19.6733C8.30334 19.5695 8.22072 19.4462 8.1643 19.3104C8.10788 19.1746 8.07877 19.029 8.07864 18.882V11.911H3.61964C3.31173 11.9125 3.00985 11.8256 2.7498 11.6607C2.48975 11.4958 2.28244 11.2598 2.15245 10.9807C2.02246 10.7016 1.97524 10.391 2.0164 10.0858C2.05755 9.78068 2.18535 9.49373 2.38464 9.259L9.93964 0.400001C10.0895 0.22773 10.2875 0.104244 10.5081 0.0454336C10.7287 -0.0133767 10.9619 -0.0048205 11.1776 0.0700012C11.3938 0.14888 11.5806 0.292091 11.7129 0.480356C11.8452 0.66862 11.9167 0.8929 11.9176 1.123V8.093H16.3796C16.6881 8.09029 16.9908 8.17682 17.2513 8.34217C17.5118 8.50753 17.7188 8.74466 17.8476 9.025C17.9793 9.30346 18.0274 9.6141 17.9863 9.91934C17.9451 10.2246 17.8164 10.5114 17.6156 10.745L10.0596 19.6C9.95375 19.7249 9.82203 19.8254 9.67355 19.8944C9.52508 19.9635 9.36339 19.9995 9.19964 20ZM10.6676 1.468L3.33564 10.068C3.29066 10.1195 3.26183 10.1831 3.25276 10.2508C3.24369 10.3186 3.25478 10.3875 3.28464 10.449C3.31375 10.5131 3.36099 10.5672 3.42053 10.6047C3.48007 10.6422 3.54929 10.6614 3.61964 10.66H9.33164V18.53L16.6636 9.93C16.7085 9.87824 16.7372 9.8145 16.7463 9.74663C16.7553 9.67875 16.7443 9.60971 16.7146 9.548C16.6854 9.48413 16.6381 9.43021 16.5785 9.3929C16.519 9.35558 16.4499 9.3365 16.3796 9.338H10.6676V1.468Z" fill="#0F1A1C"/>
</g>
<defs>
<clipPath id="clip0_1205_24">
<rect width="20" height="20" fill="white"/>
</clipPath>
</defs>
</svg>
