<svg width="20" height="20" viewBox="0 0 20 20" fill="none" xmlns="http://www.w3.org/2000/svg">
<path d="M17.376 3.032H15.021L13.8 1.448C13.6928 1.30905 13.5553 1.19644 13.3979 1.1188C13.2405 1.04115 13.0675 1.00052 12.892 1H7.152C6.97361 0.999681 6.79755 1.04047 6.63748 1.11921C6.47741 1.19794 6.33763 1.3125 6.229 1.454L5.014 3.031H2.625C1.92913 3.03206 1.26207 3.30896 0.770013 3.80102C0.277959 4.29307 0.00105795 4.96013 0 5.656V15.375C0.00105795 16.0709 0.277959 16.7379 0.770013 17.23C1.26207 17.722 1.92913 17.9989 2.625 18H17.375C18.0709 17.9989 18.7379 17.722 19.23 17.23C19.722 16.7379 19.9989 16.0709 20 15.375V5.657C19.9995 4.96114 19.7229 4.29392 19.2309 3.80178C18.739 3.30964 18.0719 3.0328 17.376 3.032ZM8 9.029V7.548C7.52814 7.75586 7.12971 8.10086 6.85649 8.53814C6.58328 8.97542 6.44792 9.48478 6.468 10C6.46707 10.6716 6.72119 11.3186 7.179 11.81L6.265 12.662C5.59075 11.9397 5.21644 10.9881 5.218 10C5.19907 9.15408 5.46219 8.32591 5.96589 7.64604C6.46959 6.96616 7.18523 6.47325 8 6.245V4.405C7.99998 4.28137 8.03662 4.16051 8.10529 4.05771C8.17397 3.95491 8.27159 3.87478 8.38581 3.82747C8.50002 3.78015 8.62571 3.76778 8.74696 3.7919C8.86822 3.81603 8.97959 3.87557 9.067 3.963L11.443 6.234C11.5599 6.36676 11.6244 6.5376 11.6244 6.7145C11.6244 6.89141 11.5599 7.06224 11.443 7.195L9.066 9.471C8.97873 9.55858 8.8674 9.61826 8.74616 9.64246C8.62491 9.66667 8.49921 9.65431 8.385 9.60695C8.27079 9.5596 8.17322 9.47938 8.10467 9.37648C8.03613 9.27358 7.9997 9.15264 8 9.029ZM12 13.755V15.6C12 15.7236 11.9634 15.8445 11.8947 15.9473C11.826 16.0501 11.7284 16.1302 11.6142 16.1775C11.5 16.2249 11.3743 16.2372 11.253 16.2131C11.1318 16.189 11.0204 16.1294 10.933 16.042L8.557 13.766C8.44008 13.6332 8.37557 13.4624 8.37557 13.2855C8.37557 13.1086 8.44008 12.9378 8.557 12.805L10.938 10.529C11.0255 10.4428 11.1365 10.3843 11.257 10.3609C11.3776 10.3375 11.5024 10.3502 11.6158 10.3973C11.7292 10.4445 11.8261 10.5241 11.8945 10.6262C11.9628 10.7282 11.9995 10.8482 12 10.971V12.452C12.4719 12.2441 12.8703 11.8991 13.1435 11.4619C13.4167 11.0246 13.5521 10.5152 13.532 10C13.5329 9.32837 13.2788 8.68143 12.821 8.19L13.735 7.338C14.4093 8.06026 14.7836 9.01194 14.782 10C14.8009 10.8459 14.5378 11.6741 14.0341 12.354C13.5304 13.0338 12.8148 13.5268 12 13.755Z" fill="#0F1A1C"/>
</svg>
