<svg width="20" height="20" viewBox="0 0 20 20" fill="none" xmlns="http://www.w3.org/2000/svg">
<path d="M15.4408 8.63842L15.4407 8.63844L15.4458 8.64154C15.7671 8.8395 16.0326 9.11623 16.2171 9.44552C16.4015 9.7746 16.4989 10.1453 16.5 10.5225V13.2308C16.5 13.2308 16.5 13.2308 16.5 13.2308C16.4999 14.0557 16.3329 14.8719 16.009 15.6305C15.6851 16.3891 15.2109 17.0742 14.6152 17.6447L14.6125 17.6473C13.38 18.8452 11.7259 19.5106 10.0071 19.4998H10.004H10.0036H10.0031H10.0027H10.0023H10.0019H10.0014H10.001H10.0006H10.0002H9.99972H9.99929H9.99887H9.99844H9.99801H9.99758H9.99716H9.99673H9.9963H9.99587H9.99545H9.99502H9.99459H9.99416H9.99373H9.99331H9.99288H9.99245H9.99202H9.9916H9.99117H9.99074H9.99031H9.98988H9.98946H9.98903H9.9886H9.98817H9.98775H9.98732H9.98689H9.98646H9.98604H9.98561H9.98518H9.98475H9.98432H9.9839H9.98347H9.98304H9.98261H9.98219H9.98176H9.98133H9.9809H9.98048H9.98005H9.97962H9.97919H9.97877H9.97834H9.97791H9.97748H9.97705H9.97663H9.9762H9.97577H9.97534H9.97492H9.97449H9.97406H9.97363H9.97321H9.97278H9.97235H9.97192H9.9715H9.97107H9.97064H9.97021H9.96978H9.96936H9.96893H9.9685H9.96807H9.96765H9.96722H9.96679H9.96636H9.96594H9.96551H9.96508H9.96465H9.96423H9.9638H9.96337H9.96294H9.96252H9.96209H9.96166H9.96123H9.96081H9.96038H9.95995H9.95952H9.9591H9.95867H9.95824H9.95781H9.95739H9.95696H9.95653H9.9561H9.95568H9.95525H9.95482H9.95439H9.95397H9.95354H9.95311H9.95268H9.95226H9.95183H9.9514H9.95097H9.95055H9.95012H9.94969H9.94927H9.94884H9.94841H9.94798H9.94756H9.94713H9.9467H9.94627H9.94585H9.94542H9.94499H9.94456H9.94414H9.94371H9.94328H9.94286H9.94243H9.942H9.94157H9.94115H9.94072H9.94029H9.93986H9.93944H9.93901H9.93858H9.93816H9.93773H9.9373H9.93687H9.93645H9.93602H9.93559H9.93517H9.93474H9.93431H9.93388H9.93346H9.93303H9.9326H9.93218H9.93175H9.93132H9.93089H9.93047H9.93004H9.92961H9.92919H9.92876H9.92833H9.92791H9.92748H9.92705H9.92662H9.9262H9.92577H9.92534H9.92492H9.92449H9.92406H9.92364H9.92321H9.92278H9.92235H9.92193H9.9215H9.92107H9.92065H9.92022H9.91979H9.91937H9.91894H9.91851H9.91809H9.91766H9.91723H9.91681H9.91638H9.91595H9.91552H9.9151H9.91467H9.91424H9.91382H9.91339H9.91296H9.91254H9.91211H9.91168H9.91126H9.91083H9.9104H9.90998H9.90955H9.90912H9.9087H9.90827H9.90784H9.90742H9.90699H9.90656H9.90614H9.90571H9.90529H9.90486H9.90443H9.90401H9.90358H9.90315H9.90273H9.9023H9.90187H9.90145H9.90102H9.90059H9.90017H9.89974H9.89931H9.89889H9.89846H9.89804H9.89761H9.89718H9.89676H9.89633H9.8959H9.89548H9.89505H9.89463H9.8942H9.89377H9.89335H9.89292H9.89249H9.89207H9.89164H9.89122H9.89079H9.89036H9.88994H9.88951H9.88908H9.88866H9.88823H9.88781H9.88738H9.88695H9.88653H9.8861H9.88568H9.88525H9.88482H9.8844H9.88397H9.88355H9.88312H9.88269H9.88227H9.88184H9.88142H9.88099H9.88056H9.88014H9.87971H9.87929H9.87886H9.87844H9.87801H9.87758H9.87716H9.87673H9.87631H9.87588H9.87546H9.87503H9.8746H9.87418H9.87375H9.87333H9.8729H9.87248H9.87205H9.87162H9.8712H9.87077H9.87035H9.86992H9.8695H9.86907H9.86865H9.86822H9.86779H9.86737H9.86694H9.86652H9.86609H9.86567H9.86524H9.86482H9.86439H9.86397H9.86354H9.86312H9.86269H9.86227H9.86184H9.86141H9.86099H9.86056H9.86014H9.85971H9.85929H9.85886H9.85844H9.85801H9.85759H9.85716H9.85674H9.85631H9.85589H9.85546H9.85504H9.85461H9.85419H9.85376H9.85334H9.85291H9.85249H9.85206H9.85164H9.85121H9.85079H9.85036H9.84994H9.84951H9.84909H9.84866H9.84824H9.84781H9.84739H9.84697H9.84654H9.84612H9.84569H9.84527H9.84484H9.84442H9.84399H9.84357H9.84314H9.84272H9.84229H9.84187H9.84145H9.84102H9.8406H9.84017H9.83975H9.83932H9.8389H9.83847H9.83805H9.83763H9.8372H9.83678H9.83635H9.83593H9.8355H9.83508H9.83466H9.83423H9.83381H9.83338H9.83296H9.83253H9.83211H9.83169H9.83126H9.83084H9.83041H9.82999H9.82957H9.82914H9.82872H9.82829H9.82787H9.82745H9.82702H9.8266H9.82618H9.82575H9.82533H9.8249H9.82448H9.82406H9.82363H9.82321H9.82278H9.82236H9.82194H9.82151H9.82109H9.82067H9.82024H9.81982H9.8194H9.81897H9.81855H9.81813H9.8177H9.81728H9.81686H9.81643H9.81601H9.81559H9.81516H9.81474H9.81431H9.81389H9.81347H9.81305H9.81262H9.8122H9.81178H9.81135H9.81093H9.81051H9.81008H9.80966H9.80924H9.80881H9.80839H9.80797H9.80754H9.80712H9.8067H9.80628H9.80585H9.80543H9.80501H9.80458H9.80416H9.80374H9.80332H9.80289H9.80247H9.80205H9.80162H9.8012H9.80078H9.80036H9.79993H9.79951H9.79909H9.79867H9.79824H9.79782H9.7974H9.79698H9.79655H9.79613H9.79579C8.10922 19.4326 6.51339 18.7175 5.3406 17.5033C4.16584 16.287 3.50641 14.6639 3.5 12.9729V10.5227C3.50132 10.1453 3.59892 9.77455 3.78358 9.44547C3.96837 9.11617 4.2342 8.83953 4.55587 8.64177L4.55589 8.6418L4.561 8.63857C4.90277 8.42271 5.29399 8.29766 5.6976 8.27525C6.0967 8.25309 6.49486 8.33203 6.85523 8.50464L9.54219 10.0054L9.76899 10.132L10.003 10.0193L13.133 8.51128L13.1348 8.5104C13.4983 8.3335 13.9009 8.25241 14.3044 8.27482C14.708 8.29722 15.0991 8.42238 15.4408 8.63842ZM6.75213 8.73248L6.73665 8.72382L6.72061 8.71628C6.44364 8.58616 6.14126 8.51907 5.83525 8.51983C5.43209 8.52035 5.03719 8.63396 4.69542 8.84769C4.40768 9.02109 4.16948 9.26577 4.00386 9.55813C3.83737 9.85202 3.7499 10.1841 3.75 10.5218C3.75 10.5219 3.75 10.522 3.75 10.522L3.75 12.2368V13.033L4.46717 12.6872L8.62517 10.6822L9.4909 10.2647L8.65213 9.79548L6.75213 8.73248ZM15.9665 11.2635L16.25 11.1274V10.8128V10.522C16.25 10.522 16.25 10.5219 16.25 10.5218C16.2501 10.1841 16.1626 9.85202 15.9961 9.55813C15.8306 9.26586 15.5925 9.02125 15.3049 8.84785C14.9992 8.65623 14.65 8.54531 14.2897 8.52552C13.9279 8.50565 13.567 8.57836 13.2412 8.73677C13.2408 8.73693 13.2405 8.7371 13.2402 8.73726L4.0719 13.1564L3.74984 13.3117L3.79259 13.6666C3.90039 14.5617 4.20125 15.4228 4.67438 16.1902L4.91064 16.5735L5.31647 16.3785L15.9665 11.2635ZM5.65146 16.4971L5.03788 16.792L5.50273 17.2893C6.62069 18.4853 8.1671 19.1894 9.80319 19.2475C10.656 19.2796 11.5065 19.1385 12.3033 18.8328C13.0996 18.5272 13.8257 18.0636 14.438 17.4699C15.0099 16.9222 15.4652 16.2646 15.7766 15.5365C16.0882 14.8079 16.2493 14.0237 16.25 13.2313V13.2308V12.1998V11.4049L15.5335 11.7491L5.65146 16.4971ZM14.1573 5.90104C14.0937 4.88105 13.6477 3.9203 12.9053 3.21274C12.1297 2.47363 11.0938 2.07084 10.023 2.09172C8.95226 2.07084 7.91642 2.47369 7.14104 3.21284C6.39854 3.92067 5.95268 4.88182 5.88958 5.9021C5.80618 5.90102 5.72275 5.90216 5.6394 5.9055C5.70222 4.82591 6.16876 3.80685 6.94978 3.05298C7.77079 2.26051 8.87237 1.82571 10.0133 1.84374C10.2361 1.84889 10.4582 1.87055 10.6778 1.90852L10.9269 1.95158L11.1092 1.77656L12.0427 0.880553L12.2149 1.05968L11.7927 1.46521L11.2582 1.97851L11.9342 2.28198C12.6658 2.61037 13.2881 3.14134 13.7275 3.81213C14.1371 4.43738 14.3719 5.15975 14.4091 5.90433C14.3252 5.90101 14.2412 5.89991 14.1573 5.90104ZM8.54968 5.25659L8.54966 5.2566L8.55326 5.26006C8.56208 5.26856 8.56904 5.2788 8.57368 5.29014C8.57831 5.30148 8.58053 5.31366 8.58019 5.32591L8.57988 5.33709L8.58007 5.34827C8.58027 5.35993 8.57928 5.37156 8.57713 5.38298C8.56648 5.39974 8.55459 5.41569 8.54156 5.43071C8.53176 5.43916 8.52064 5.44599 8.50862 5.4509C8.49401 5.45688 8.47836 5.45992 8.46257 5.45984L8.45433 5.45979L8.44608 5.46002C8.43384 5.46036 8.42165 5.45814 8.41032 5.45351C8.39897 5.44887 8.38873 5.44191 8.38023 5.43308L8.37501 5.42766L8.36962 5.42239C8.35766 5.41069 8.34762 5.39722 8.33982 5.38246C8.33439 5.36656 8.33112 5.35 8.33011 5.33322C8.33067 5.32118 8.3334 5.30934 8.33819 5.29825C8.34364 5.28564 8.35163 5.27428 8.36167 5.26488L8.36176 5.26499L8.37032 5.25659C8.39425 5.23309 8.42646 5.21992 8.46 5.21992C8.49354 5.21992 8.52575 5.23309 8.54968 5.25659ZM11.7415 5.24837L11.7473 5.25431L11.7533 5.26006C11.7621 5.26856 11.769 5.2788 11.7737 5.29014C11.7783 5.30148 11.7805 5.31367 11.7802 5.32591L11.7799 5.33709L11.7801 5.34827C11.7803 5.35993 11.7793 5.37156 11.7771 5.38298C11.7665 5.39974 11.7546 5.4157 11.7416 5.43071C11.7318 5.43916 11.7206 5.44599 11.7086 5.4509C11.694 5.45688 11.6784 5.45992 11.6626 5.45984L11.6545 5.45979L11.6465 5.46001C11.6332 5.46037 11.62 5.4588 11.6072 5.45536C11.5987 5.45046 11.5909 5.44432 11.5841 5.43711L11.577 5.4296L11.5696 5.42239C11.5562 5.40925 11.5452 5.39387 11.537 5.37694C11.5323 5.36515 11.5299 5.35255 11.5299 5.33983C11.5299 5.32606 11.5328 5.31244 11.5383 5.29983L11.5439 5.28693L11.5472 5.2779L11.5747 5.25454L11.5981 5.22707L11.6028 5.22529L11.6117 5.22164C11.6335 5.21257 11.6575 5.21028 11.6807 5.21505C11.7038 5.21981 11.725 5.23142 11.7415 5.24837Z" fill="#0F1A1C" stroke="#0F1A1C"/>
</svg>
