<svg width="20" height="20" viewBox="0 0 20 20" fill="none" xmlns="http://www.w3.org/2000/svg">
<g clip-path="url(#clip0_797_62)">
<path d="M16.3748 7.80426e-06H2.6748C2.24399 0.000537061 1.83097 0.171912 1.52634 0.476544C1.22171 0.781176 1.05033 1.19419 1.0498 1.62501V3.12501C1.05033 3.42321 1.16903 3.70906 1.37989 3.91992C1.59076 4.13078 1.8766 4.24948 2.1748 4.25001H3.0498V18.882C3.05113 19.1793 3.1703 19.464 3.38119 19.6736C3.59209 19.8831 3.87748 20.0005 4.1748 20H16.8748C17.1721 20.0005 17.4575 19.8831 17.6684 19.6736C17.8793 19.464 17.9985 19.1793 17.9998 18.882V1.61101C17.9974 1.18205 17.825 0.77155 17.5204 0.469542C17.2157 0.167534 16.8038 -0.00132277 16.3748 7.80426e-06ZM5.7318 6.77001H6.2118V5.23001C6.0643 5.29752 5.90492 5.33525 5.7428 5.34101V4.83401C5.92035 4.84363 6.09467 4.78373 6.2288 4.66701H6.9288V6.76701H7.34781V7.33001H5.7318V6.77001ZM6.5998 8.67001C7.2188 8.67001 7.5158 8.98201 7.5158 9.47001C7.5158 9.77001 7.3948 10.058 6.8568 10.348C6.5228 10.536 6.41281 10.666 6.37381 10.772H7.53181V11.336H5.5568V11.19C5.5568 10.811 5.6278 10.427 6.3248 10.005C6.7248 9.75901 6.84081 9.70501 6.84081 9.48301C6.84081 9.33501 6.7468 9.25301 6.5828 9.25301C6.46472 9.26703 6.35207 9.31056 6.25525 9.3796C6.15842 9.44863 6.08055 9.54094 6.0288 9.64801L5.55081 9.30001C5.65016 9.10792 5.80076 8.9471 5.98591 8.83537C6.17107 8.72364 6.38355 8.66537 6.5998 8.66701V8.67001ZM6.5468 15.336C6.34126 15.3421 6.13749 15.2962 5.95444 15.2025C5.7714 15.1088 5.61501 14.9703 5.4998 14.8L5.9208 14.433C5.9806 14.5308 6.06349 14.6123 6.16217 14.6706C6.26086 14.7288 6.37233 14.7619 6.4868 14.767C6.77381 14.767 6.8698 14.649 6.8698 14.487C6.8698 14.266 6.7188 14.18 6.3628 14.18H6.1578V13.7H6.37381C6.7188 13.7 6.82181 13.6 6.82181 13.447C6.82181 13.317 6.7218 13.236 6.5468 13.236C6.43638 13.2378 6.32744 13.2617 6.22644 13.3064C6.12543 13.351 6.03442 13.4155 5.95881 13.496L5.59081 13.069C5.8618 12.8087 6.22407 12.6651 6.5998 12.669C7.1888 12.669 7.4998 12.932 7.4998 13.369C7.50539 13.4895 7.4708 13.6083 7.40147 13.707C7.33215 13.8056 7.23202 13.8785 7.11681 13.914C7.25213 13.9417 7.37317 14.0167 7.4582 14.1256C7.54323 14.2344 7.5867 14.37 7.5808 14.508C7.5828 15.047 7.1728 15.333 6.5468 15.333V15.336ZM14.9998 15H8.9998V13H14.9998V15ZM14.9998 11H8.9998V9.00001H14.9998V11ZM14.9998 7.00001H8.9998V5.00001H14.9998V7.00001Z" fill="#0F1A1C"/>
</g>
<defs>
<clipPath id="clip0_797_62">
<rect width="20" height="20" fill="white"/>
</clipPath>
</defs>
</svg>
