<svg width="20" height="20" viewBox="0 0 20 20" fill="none" xmlns="http://www.w3.org/2000/svg">
<path d="M8.44185 2.44211L7.55785 1.55811L8.70485 0.411115C8.91634 0.201108 9.2023 0.083252 9.50035 0.083252C9.7984 0.083252 10.0844 0.201108 10.2958 0.411115L11.3558 1.47211C11.6007 1.71501 11.7948 2.0042 11.9269 2.32284C12.0589 2.64148 12.1262 2.98321 12.1248 3.32811V4.24112L15.7588 7.87511H16.6718C17.0167 7.87417 17.3583 7.94165 17.6769 8.07365C17.9955 8.20565 18.2847 8.39955 18.5278 8.64411L19.5888 9.70011C19.7992 9.91165 19.9172 10.1978 19.9172 10.4961C19.9172 10.7944 19.7992 11.0806 19.5888 11.2921L18.4418 12.4381L17.5578 11.5541L18.6168 10.5001L17.6448 9.52811C17.517 9.40071 17.3652 9.29979 17.1982 9.23115C17.0312 9.16251 16.8524 9.1275 16.6718 9.12811H15.2418L10.8748 4.75911V3.32811C10.8744 2.96414 10.7307 2.61497 10.4748 2.35611L9.49985 1.38411L8.44185 2.44211ZM3.82385 0.208115L19.7348 16.1191L18.8508 17.0001L16.3658 14.5151L14.2958 16.5851C14.0844 16.7951 13.7984 16.913 13.5003 16.913C13.2023 16.913 12.9163 16.7951 12.7048 16.5851L11.6448 15.5241C11.3998 15.2813 11.2055 14.9922 11.0733 14.6735C10.9411 14.3549 10.8736 14.0131 10.8748 13.6681V12.7551L10.5008 12.3801L3.94185 18.9421C3.55855 19.3198 3.04149 19.5307 2.50337 19.5288C1.96525 19.5268 1.44971 19.3123 1.06914 18.9318C0.688563 18.5514 0.473811 18.0359 0.471695 17.4978C0.46958 16.9597 0.680274 16.4425 1.05785 16.0591L7.61585 9.50011L7.24185 9.12511H6.32885C5.984 9.12606 5.64239 9.05858 5.3238 8.92658C5.00521 8.79458 4.71598 8.60068 4.47285 8.35611L3.41185 7.30012C3.20154 7.08858 3.08349 6.80241 3.08349 6.50412C3.08349 6.20582 3.20154 5.91965 3.41185 5.70812L5.48185 3.63911L2.93985 1.09311L3.82385 0.208115ZM9.61585 11.5001L8.49985 10.3841L1.94185 16.9421C1.79425 17.0905 1.7114 17.2913 1.7114 17.5006C1.7114 17.7099 1.79425 17.9107 1.94185 18.0591C2.09246 18.2017 2.29196 18.2811 2.49935 18.2811C2.70673 18.2811 2.90623 18.2017 3.05685 18.0591L9.61585 11.5001ZM15.4818 13.6351L6.36585 4.51911L4.38385 6.50011L5.35585 7.47212C5.48374 7.59952 5.63552 7.70044 5.80249 7.76908C5.96945 7.83772 6.14832 7.87273 6.32885 7.87212H7.75885L12.1248 12.2381V13.6691C12.1254 14.0331 12.2691 14.3822 12.5248 14.6411L13.4968 15.6131L15.4818 13.6351Z" fill="#0F1A1C"/>
</svg>
