<svg width="20" height="20" viewBox="0 0 20 20" fill="none" xmlns="http://www.w3.org/2000/svg">
<path d="M9.99979 19C7.91991 18.998 5.90506 18.2749 4.29848 16.954C2.6919 15.6331 1.59298 13.796 1.1889 11.7558C0.784827 9.7155 1.1006 7.59826 2.08243 5.7647C3.06427 3.93115 4.65142 2.4947 6.57352 1.70007C8.49562 0.905438 10.6338 0.80177 12.6237 1.40673C14.6137 2.01169 16.3324 3.28785 17.487 5.01782C18.6416 6.74779 19.1607 8.82455 18.9559 10.8943C18.7511 12.9641 17.835 14.8989 16.3638 16.369C15.5285 17.205 14.5363 17.8677 13.4442 18.3192C12.3521 18.7707 11.1816 19.0021 9.99979 19ZM9.99979 2.254C8.72551 2.25395 7.47089 2.56819 6.34707 3.16888C5.22326 3.76957 4.26495 4.63817 3.55705 5.69773C2.84914 6.75728 2.4135 7.97508 2.28871 9.24324C2.16392 10.5114 2.35383 11.7907 2.84163 12.968C3.32943 14.1452 4.10005 15.1839 5.08523 15.9921C6.0704 16.8004 7.23971 17.3531 8.48955 17.6015C9.7394 17.8498 11.0312 17.786 12.2505 17.4158C13.4698 17.0456 14.579 16.3803 15.4798 15.479C16.5639 14.3956 17.3022 13.015 17.6013 11.5119C17.9005 10.0088 17.747 8.45067 17.1603 7.0348C16.5736 5.61893 15.5801 4.40892 14.3054 3.5579C13.0308 2.70688 11.5324 2.25311 9.99979 2.254ZM13.5358 6.464C12.8365 5.76487 11.9456 5.2888 10.9757 5.09598C10.0058 4.90316 9.00055 5.00225 8.087 5.38073C7.17345 5.7592 6.39263 6.40007 5.84328 7.22229C5.29393 8.0445 5.00072 9.01115 5.00072 10C5.00072 10.9888 5.29393 11.9555 5.84328 12.7777C6.39263 13.5999 7.17345 14.2408 8.087 14.6193C9.00055 14.9977 10.0058 15.0968 10.9757 14.904C11.9456 14.7112 12.8365 14.2351 13.5358 13.536C14.4723 12.5975 14.9982 11.3258 14.9982 10C14.9982 8.67417 14.4723 7.4025 13.5358 6.464Z" fill="#0F1A1C"/>
</svg>
