<svg width="20" height="20" viewBox="0 0 20 20" fill="none" xmlns="http://www.w3.org/2000/svg">
<g clip-path="url(#clip0_472_1132)">
<path d="M15.751 6.059L17 6.142L16.239 17.583C16.2306 18.237 15.974 18.8634 15.5212 19.3353C15.0683 19.8073 14.4531 20.0896 13.8 20.125H6.2C5.5482 20.0894 4.93418 19.8078 4.48187 19.3371C4.02957 18.8664 3.77266 18.2417 3.763 17.589L3 6.142L4.248 6.059L5.009 17.5C5.00403 17.8355 5.12268 18.161 5.34233 18.4146C5.56198 18.6682 5.86727 18.8321 6.2 18.875H13.8C14.1335 18.8313 14.4393 18.6664 14.6589 18.4117C14.8786 18.157 14.9968 17.8303 14.991 17.494L15.751 6.059ZM18 3V4.25H2V3H6V2.625C6.03553 1.89651 6.35777 1.21164 6.89639 0.719857C7.43501 0.228072 8.14629 -0.0307036 8.875 2.21864e-06H11.125C11.8537 -0.0307036 12.565 0.228072 13.1036 0.719857C13.6422 1.21164 13.9645 1.89651 14 2.625V3H18ZM7.25 3H12.75V2.625C12.7136 2.22849 12.5229 1.86215 12.2189 1.60494C11.9149 1.34774 11.5221 1.22027 11.125 1.25H8.875C8.47793 1.22027 8.08507 1.34774 7.7811 1.60494C7.47714 1.86215 7.2864 2.22849 7.25 2.625V3Z" fill="#0F1A1C"/>
</g>
<defs>
<clipPath id="clip0_472_1132">
<rect width="20" height="20" fill="white"/>
</clipPath>
</defs>
</svg>
