<svg width="20" height="20" viewBox="0 0 20 20" fill="none" xmlns="http://www.w3.org/2000/svg">
<g clip-path="url(#clip0_616_22)">
<path d="M4.71098 12.664C4.2463 12.4154 3.8612 12.0407 3.59998 11.583C3.32795 11.1004 3.18985 10.5539 3.19998 10C3.19042 9.44477 3.33252 8.89745 3.61098 8.417C3.87831 7.95752 4.26956 7.58256 4.73998 7.335C5.23808 7.07383 5.79363 6.94148 6.35598 6.95C6.68881 6.94961 7.02028 6.99264 7.34198 7.078C7.6508 7.15929 7.94668 7.2835 8.22098 7.447L7.72098 8.616C7.56712 8.45058 7.37322 8.32763 7.15798 8.259C6.91532 8.17591 6.66047 8.134 6.40398 8.135C6.1557 8.11572 5.90619 8.15018 5.67243 8.23602C5.43867 8.32186 5.22615 8.45707 5.04935 8.63244C4.87256 8.80781 4.73563 9.01923 4.6479 9.25229C4.56018 9.48535 4.52371 9.73458 4.54098 9.983C4.53455 10.3272 4.6143 10.6675 4.77298 10.973C4.91783 11.2559 5.1391 11.4926 5.41167 11.6561C5.68424 11.8196 5.99718 11.9034 6.31498 11.898C6.57278 11.9019 6.82803 11.8465 7.06098 11.736C7.26986 11.6389 7.44752 11.4855 7.57398 11.293C7.69508 11.1083 7.75876 10.8919 7.75698 10.671H6.12398V9.619L8.99998 9.6V10.528C9.00684 10.982 8.88926 11.4291 8.65998 11.821C8.43198 12.2036 8.10201 12.5152 7.70698 12.721C7.26935 12.9467 6.78226 13.0594 6.28998 13.049C5.73952 13.0566 5.19617 12.9241 4.71098 12.664ZM10.182 7.016H11.5V12.984H10.182V7.016ZM13.044 7.016H16.5V8.185H14.362V9.577H16.152V10.746H14.362V12.984H13.044V7.016ZM9.99998 20C7.82428 19.9999 5.66655 19.6062 3.63098 18.838C3.06719 18.626 2.55522 18.296 2.12939 17.87C1.70357 17.444 1.37373 16.9319 1.16198 16.368C-0.387327 12.2637 -0.387327 7.73533 1.16198 3.631C1.37396 3.06737 1.7039 2.55552 2.1297 2.12972C2.5555 1.70392 3.06735 1.37398 3.63098 1.162C7.73699 -0.379974 12.263 -0.379974 16.369 1.162C16.9326 1.37398 17.4445 1.70392 17.8703 2.12972C18.2961 2.55552 18.626 3.06737 18.838 3.631C20.3874 7.73566 20.3874 12.2643 18.838 16.369C18.6262 16.9327 18.2963 17.4447 17.8705 17.8705C17.4446 18.2963 16.9327 18.6262 16.369 18.838C14.3334 19.6062 12.1757 19.9999 9.99998 20ZM9.99998 1.25C7.97458 1.25032 5.96593 1.61688 4.07098 2.332C3.674 2.48131 3.31349 2.7137 3.01358 3.0136C2.71368 3.31351 2.48129 3.67402 2.33198 4.071C0.889338 7.89169 0.889338 12.1073 2.33198 15.928C2.48128 16.3251 2.71366 16.6857 3.01355 16.9858C3.31345 17.2859 3.67396 17.5185 4.07098 17.668C7.89322 19.104 12.1067 19.104 15.929 17.668C16.326 17.5187 16.6865 17.2863 16.9864 16.9864C17.2863 16.6865 17.5187 16.326 17.668 15.929C19.1107 12.108 19.1107 7.89202 17.668 4.071C17.5187 3.67402 17.2863 3.31351 16.9864 3.0136C16.6865 2.7137 16.326 2.48131 15.929 2.332C14.034 1.61688 12.0254 1.25032 9.99998 1.25Z" fill="#0F1A1C"/>
</g>
<defs>
<clipPath id="clip0_616_22">
<rect width="20" height="20" fill="white"/>
</clipPath>
</defs>
</svg>
