<svg width="20" height="20" viewBox="0 0 20 20" fill="none" xmlns="http://www.w3.org/2000/svg">
<path d="M12.761 19.919C14.3132 18.7821 15.5666 17.2857 16.4138 15.5581C17.2609 13.8306 17.6765 11.9234 17.625 10C17.6765 8.07661 17.2609 6.16941 16.4138 4.44186C15.5666 2.71431 14.3132 1.21794 12.761 0.081C16.833 0.682 20 4.9 20 10C20 15.1 16.833 19.318 12.761 19.919ZM16.25 10C16.25 15.514 12.605 20 8.125 20C3.645 20 0 15.514 0 10C0 4.486 3.645 0 8.125 0C12.605 0 16.25 4.486 16.25 10ZM10.637 14.129L10 12.245C9.81982 12.4939 9.57051 12.6845 9.283 12.793C8.98387 12.915 8.66404 12.9781 8.341 12.979C7.89113 12.9833 7.45133 12.8458 7.084 12.586C6.69729 12.3098 6.39196 11.9347 6.2 11.5C5.98263 11.0196 5.87371 10.4972 5.881 9.97C5.87208 9.44088 5.98679 8.91698 6.216 8.44C6.41707 8.01632 6.72781 7.65414 7.116 7.391C7.47701 7.14589 7.90364 7.01553 8.34 7.017C8.64881 7.01923 8.95433 7.08068 9.24 7.198C9.53578 7.3129 9.79253 7.50998 9.98 7.766L10.619 5.881C10.2779 5.62137 9.89695 5.41874 9.491 5.281C9.10736 5.14925 8.70463 5.08168 8.299 5.081C7.57368 5.08164 6.86532 5.30045 6.266 5.709C5.61362 6.15039 5.09095 6.75799 4.752 7.469C4.36793 8.2567 4.17472 9.12376 4.188 10C4.1757 10.8723 4.36892 11.7352 4.752 12.519C5.09139 13.2299 5.61267 13.8384 6.263 14.283C6.87119 14.6987 7.59133 14.9198 8.328 14.917C8.74303 14.9164 9.15503 14.8464 9.547 14.71C9.93928 14.5764 10.3074 14.3802 10.637 14.129Z" fill="#0F1A1C"/>
</svg>
