<svg width="20" height="20" viewBox="0 0 20 20" fill="none" xmlns="http://www.w3.org/2000/svg">
<g clip-path="url(#clip0_472_1141)">
<path d="M18.7061 8.953L10.8341 0.372C10.7289 0.255037 10.6003 0.161482 10.4566 0.0973987C10.3129 0.033315 10.1574 0.000131998 10.0001 0V0C9.84328 7.46685e-05 9.68822 0.0328389 9.54479 0.0962014C9.40136 0.159564 9.27272 0.252133 9.16708 0.368L1.29008 8.957C1.1355 9.14074 1.03716 9.36513 1.00683 9.60332C0.976502 9.84151 1.01547 10.0834 1.11908 10.3C1.20003 10.5024 1.33858 10.6766 1.51758 10.801C1.69658 10.9255 1.90815 10.9946 2.12608 11H6.00008V17.877C6.00061 18.1747 6.11909 18.46 6.32958 18.6705C6.54007 18.881 6.8254 18.9995 7.12308 19H12.8771C13.1748 18.9995 13.4601 18.881 13.6706 18.6705C13.8811 18.46 13.9995 18.1747 14.0001 17.877V11H17.8771C18.0947 10.9943 18.3058 10.9249 18.4844 10.8005C18.663 10.6761 18.8013 10.5021 18.8821 10.3C18.9856 10.0824 19.0241 9.83949 18.9928 9.60053C18.9616 9.36157 18.862 9.13672 18.7061 8.953Z" fill="#0F1A1C"/>
</g>
<defs>
<clipPath id="clip0_472_1141">
<rect width="20" height="20" fill="white"/>
</clipPath>
</defs>
</svg>
