<svg width="20" height="20" viewBox="0 0 20 20" fill="none" xmlns="http://www.w3.org/2000/svg">
<g clip-path="url(#clip0_609_349)">
<path d="M20.0002 7H18.9842V1.271C18.9841 1.06928 18.9298 0.871278 18.8271 0.697666C18.7244 0.524055 18.5769 0.381198 18.4002 0.284004C18.2267 0.188331 18.0307 0.140927 17.8327 0.146731C17.6346 0.152535 17.4418 0.211335 17.2742 0.317004L13.3742 2.775C11.195 2.07937 8.85334 2.07937 6.67417 2.775L2.77117 0.317004C2.60373 0.211422 2.41104 0.152669 2.21318 0.146865C2.01532 0.141061 1.81951 0.188418 1.64617 0.284004C1.47003 0.381671 1.32326 0.524716 1.22109 0.698281C1.11892 0.871846 1.06508 1.0696 1.06517 1.271V8.28401C0.741597 9.1095 0.575729 9.98836 0.576173 10.875C0.589542 11.9852 0.847786 13.0789 1.33248 14.0778C1.81717 15.0767 2.51637 15.9564 3.38017 16.654C5.24747 18.1982 7.60225 19.0296 10.0252 19C12.4481 19.0294 14.8028 18.1981 16.6702 16.654C18.1024 15.4786 19.0628 13.8263 19.3752 12H20.0002V7ZM6.51817 4.154L6.80417 4.054C8.88896 3.32102 11.1614 3.32102 13.2462 4.054L13.5322 4.154L17.7322 1.506V7H13.0002V8H11.0002V7H4.00017V8H2.27217L2.31517 1.507L6.51817 4.154ZM15.8612 15.7C14.2193 17.0515 12.1515 17.7771 10.0252 17.748C7.8988 17.7773 5.83093 17.0516 4.18917 15.7C3.46458 15.1186 2.87707 14.3846 2.46847 13.5503C2.05987 12.716 1.84023 11.8019 1.82517 10.873C1.8343 10.3225 1.9215 9.77603 2.08417 9.25H4.00017V12H11.0002V9.25H13.0002V12H18.1072C17.802 13.4532 17.0096 14.7586 15.8612 15.7ZM11.3392 14.575L11.6612 15.783C11.1193 15.9271 10.5609 16.0001 10.0002 16C8.41324 16.0148 6.88248 15.4132 5.73017 14.322L6.60417 13.429C7.23498 14.0002 7.99869 14.4045 8.82572 14.605C9.65275 14.8055 10.5168 14.7959 11.3392 14.577V14.575Z" fill="#0F1A1C"/>
</g>
<defs>
<clipPath id="clip0_609_349">
<rect width="20" height="20" fill="white"/>
</clipPath>
</defs>
</svg>
