<svg width="20" height="20" viewBox="0 0 20 20" fill="none" xmlns="http://www.w3.org/2000/svg">
<path d="M16.5 15.1539V15.5H13.1899L10.3509 12.7028L10 12.3571L9.64908 12.7028L6.81006 15.5H3.5V15.1539C3.50383 14.1559 3.7867 13.1787 4.31664 12.3329C4.84674 11.4868 5.60294 10.8059 6.49975 10.3671L7.41778 9.91794L6.4997 9.46886C5.60297 9.03021 4.84683 8.34947 4.31673 7.50358C3.7868 6.65795 3.5039 5.68098 3.5 4.68303V4.5H16.5V4.68303C16.4963 5.68102 16.2135 6.65809 15.6836 7.50377C15.1535 8.34967 14.3972 9.03035 13.5004 9.46881L12.5821 9.91776L13.5002 10.3671C14.397 10.806 15.1531 11.4869 15.6832 12.333C16.2131 13.1788 16.496 14.1559 16.5 15.1539ZM2.5 18.5V17.5H17.5V18.5H2.5ZM2.5 1.5H17.5V2.5H2.5V1.5Z" fill="#0F1A1C" stroke="#0F1A1C"/>
</svg>
