<svg width="20" height="20" viewBox="0 0 20 20" fill="none" xmlns="http://www.w3.org/2000/svg">
<g clip-path="url(#clip0_616_11)">
<path d="M2.00026 3.57101H0.625262C0.500804 3.57184 0.378932 3.5355 0.275261 3.46663C0.171589 3.39776 0.0908407 3.29951 0.0433603 3.18446C-0.0041201 3.06941 -0.0161698 2.9428 0.00875501 2.82086C0.0336798 2.69893 0.094444 2.5872 0.183262 2.50001L2.18326 0.500015C2.2413 0.441961 2.31021 0.395909 2.38605 0.364489C2.46189 0.33307 2.54317 0.316898 2.62526 0.316898C2.70735 0.316898 2.78864 0.33307 2.86448 0.364489C2.94032 0.395909 3.00922 0.441961 3.06726 0.500015L5.06726 2.50001C5.15469 2.58742 5.21424 2.6988 5.23836 2.82005C5.26249 2.9413 5.25011 3.06699 5.2028 3.18121C5.15548 3.29543 5.07536 3.39305 4.97255 3.46172C4.86975 3.53039 4.74889 3.56704 4.62526 3.56701H3.25026V6.44601H2.00026V3.57101ZM19.0003 10.223V13.246C19.022 15.0077 18.3461 16.7064 17.1202 17.9717C15.8943 19.237 14.2177 19.9661 12.4563 20H9.82526C8.68759 19.9745 7.57544 19.6578 6.59504 19.0801C5.61465 18.5023 4.79874 17.6829 4.22526 16.7L1.31226 11.884C1.01638 11.3945 0.926443 10.8077 1.06213 10.252C1.19781 9.69638 1.54807 9.21708 2.03626 8.91901C2.48941 8.64385 3.02902 8.54792 3.54924 8.65004C4.06946 8.75216 4.53276 9.04496 4.84826 9.47101L6.00026 11.016V2.24601C5.98499 1.97495 6.02474 1.7036 6.1171 1.4483C6.20947 1.19301 6.35255 0.959044 6.53773 0.760505C6.72291 0.561966 6.94636 0.402958 7.19461 0.293057C7.44286 0.183155 7.71079 0.124633 7.98226 0.121015C8.5605 0.11745 9.11807 0.33586 9.54004 0.731224C9.96201 1.12659 10.2162 1.66877 10.2503 2.24601V6.20001C10.4739 6.11561 10.7112 6.07291 10.9503 6.07401C11.3688 6.07501 11.7776 6.20035 12.1248 6.43413C12.472 6.6679 12.7419 6.99957 12.9003 7.38701C13.2121 7.21203 13.5637 7.12041 13.9213 7.12101C14.329 7.12204 14.7278 7.24109 15.0694 7.46379C15.411 7.68649 15.6808 8.00332 15.8463 8.37601C16.1641 8.19415 16.5241 8.09897 16.8903 8.10002C17.4514 8.1024 17.9887 8.32725 18.3842 8.72524C18.7798 9.12324 19.0013 9.66188 19.0003 10.223Z" fill="#0F1A1C"/>
</g>
<defs>
<clipPath id="clip0_616_11">
<rect width="20" height="20" fill="white"/>
</clipPath>
</defs>
</svg>
