<svg width="20" height="20" viewBox="0 0 20 20" fill="none" xmlns="http://www.w3.org/2000/svg">
<g clip-path="url(#clip0_616_14)">
<path d="M0.338055 2.73599L0.0810547 1.51299C1.69847 1.17172 3.34703 0.999797 5.00005 0.999992V2.24999C3.43343 2.25043 1.87108 2.4133 0.338055 2.73599ZM9.84305 20H12.4561C14.2174 19.9658 15.8938 19.2366 17.1197 17.9714C18.3456 16.7062 19.0215 15.0076 19.0001 13.246V10.223C19.0011 9.66186 18.7796 9.12322 18.384 8.72522C17.9885 8.32723 17.4512 8.10237 16.8901 8.09999C16.5235 8.0993 16.1634 8.19555 15.8461 8.37899C15.6809 8.00566 15.4111 7.68817 15.0693 7.46492C14.7275 7.24166 14.3283 7.12221 13.9201 7.12099C13.5627 7.12053 13.2111 7.21177 12.8991 7.38599C12.7404 6.99942 12.4706 6.6686 12.1238 6.43541C11.7771 6.20222 11.3689 6.07714 10.9511 6.07599C10.7119 6.07486 10.4746 6.11792 10.2511 6.20299V2.24499C10.2167 1.66758 9.96214 1.12535 9.53977 0.730146C9.1174 0.334941 8.55947 0.116899 7.98105 0.120992C7.70542 0.118006 7.43242 0.17484 7.18088 0.287576C6.92934 0.400311 6.70525 0.566265 6.52406 0.773992C6.17798 1.18564 5.99193 1.70826 6.00005 2.24599V11.016L4.84805 9.47099C4.53284 9.04456 4.06952 8.75147 3.54917 8.64932C3.02882 8.54718 2.48908 8.64337 2.03605 8.91899C1.54769 9.21689 1.19723 9.69612 1.06135 10.2518C0.925478 10.8075 1.01526 11.3944 1.31105 11.884L4.21905 16.7C4.79329 17.6835 5.61018 18.5034 6.59167 19.0811C7.57315 19.6589 8.68641 19.9753 9.82505 20H9.84305ZM3.84305 10.218L5.81505 12.862C5.92318 12.9926 6.06929 13.0862 6.23309 13.13C6.39689 13.1737 6.57024 13.1653 6.72905 13.106C6.87631 13.0631 7.00601 12.9743 7.0992 12.8525C7.1924 12.7307 7.2442 12.5823 7.24706 12.429V2.24499C7.24095 2.01061 7.319 1.78179 7.46705 1.59999C7.53044 1.52642 7.60953 1.46802 7.69848 1.42908C7.78744 1.39013 7.884 1.37165 7.98105 1.37499C8.22741 1.3728 8.46624 1.45976 8.65352 1.61984C8.84079 1.77991 8.96387 2.0023 9.00005 2.24599V8.19999H10.2501C10.241 7.96348 10.3145 7.73119 10.4581 7.54299C10.5184 7.47184 10.5942 7.41534 10.6796 7.37775C10.765 7.34016 10.8578 7.32246 10.9511 7.32599C11.0684 7.32854 11.184 7.35452 11.2911 7.40241C11.3982 7.4503 11.4947 7.51913 11.5748 7.60485C11.655 7.69057 11.7171 7.79145 11.7577 7.90156C11.7983 8.01166 11.8164 8.12877 11.8111 8.24599V9.24599H13.0611C13.0571 9.13065 13.0764 9.0157 13.1179 8.90799C13.1593 8.80027 13.222 8.702 13.3022 8.61902C13.3824 8.53603 13.4784 8.47004 13.5847 8.42497C13.6909 8.3799 13.8051 8.35667 13.9206 8.35667C14.036 8.35667 14.1502 8.3799 14.2564 8.42497C14.3627 8.47004 14.4587 8.53603 14.5389 8.61902C14.6191 8.702 14.6818 8.80027 14.7232 8.90799C14.7647 9.0157 14.784 9.13065 14.7801 9.24599V10.223H16.0301C16.0301 10.1101 16.0523 9.99822 16.0955 9.89388C16.1387 9.78955 16.2021 9.69474 16.2819 9.61488C16.3618 9.53502 16.4566 9.47167 16.5609 9.42846C16.6653 9.38524 16.7771 9.36299 16.8901 9.36299C17.003 9.36299 17.1148 9.38524 17.2192 9.42846C17.3235 9.47167 17.4183 9.53502 17.4982 9.61488C17.578 9.69474 17.6414 9.78955 17.6846 9.89388C17.7278 9.99822 17.7501 10.1101 17.7501 10.223V13.246C17.754 14.6716 17.2031 16.0428 16.2139 17.0693C15.2247 18.0958 13.8748 18.6972 12.4501 18.746H9.84105C8.91491 18.7275 8.00925 18.4701 7.21189 17.9986C6.41453 17.5271 5.75252 16.8576 5.29005 16.055L2.38105 11.237C2.25593 11.0314 2.21725 10.7846 2.27346 10.5506C2.32967 10.3166 2.4762 10.1143 2.68105 9.98799C2.86837 9.8739 3.09167 9.83423 3.30682 9.87682C3.52197 9.9194 3.71332 10.0411 3.84305 10.218Z" fill="#0F1A1C"/>
</g>
<defs>
<clipPath id="clip0_616_14">
<rect width="20" height="20" fill="white"/>
</clipPath>
</defs>
</svg>
