<svg width="20" height="20" viewBox="0 0 20 20" fill="none" xmlns="http://www.w3.org/2000/svg">
<path d="M3.37497 11.5H3.37488C3.35015 11.5 3.32598 11.5073 3.30542 11.5211C3.28486 11.5348 3.26883 11.5543 3.25937 11.5772C3.24991 11.6 3.24743 11.6252 3.25226 11.6494C3.25708 11.6737 3.26899 11.6959 3.28647 11.7134L3.28652 11.7135L5.07952 13.5065L5.43307 13.86L5.07952 14.2136L1.37508 17.918L2.08197 18.6249L5.78642 14.9205L6.13997 14.5669L6.49352 14.9205L8.28648 16.7134C8.28649 16.7134 8.28651 16.7134 8.28652 16.7135C8.29813 16.725 8.31189 16.7342 8.32703 16.7405C8.34201 16.7467 8.35805 16.7499 8.37426 16.75C8.39129 16.7499 8.40816 16.7467 8.42402 16.7405C8.44627 16.7309 8.46527 16.715 8.47875 16.6948C8.49255 16.6742 8.49994 16.6499 8.49997 16.625L3.37497 11.5ZM3.37497 11.5H8.37497M3.37497 11.5H8.37497M8.37497 11.5C8.40812 11.5 8.43992 11.5132 8.46336 11.5366C8.4868 11.5601 8.49997 11.5919 8.49997 11.625V16.6249L8.37497 11.5ZM16.7134 8.28657L16.7135 8.28661C16.7309 8.30409 16.7429 8.32637 16.7477 8.35062C16.7525 8.37487 16.75 8.40001 16.7406 8.42285C16.7311 8.44569 16.7151 8.46522 16.6945 8.47895C16.674 8.49269 16.6498 8.50002 16.6251 8.50001H16.625H11.625C11.5918 8.50001 11.56 8.48684 11.5366 8.4634C11.5131 8.43996 11.5 8.40817 11.5 8.37501V3.37501V3.37492C11.5 3.35019 11.5073 3.32602 11.521 3.30546C11.5348 3.2849 11.5543 3.26888 11.5771 3.25941C11.6 3.24995 11.6251 3.24747 11.6494 3.2523C11.6736 3.25712 11.6959 3.26903 11.7134 3.28652L11.7134 3.28657L13.5064 5.07957L13.86 5.43316L14.2136 5.07952L17.872 1.42016L18.5789 2.12706L14.9204 5.7865L14.5669 6.14006L14.9204 6.49357L16.7134 8.28657Z" fill="#0F1A1C" stroke="#0F1A1C"/>
</svg>
