<svg width="20" height="20" viewBox="0 0 20 20" fill="none" xmlns="http://www.w3.org/2000/svg">
<g clip-path="url(#clip0_474_83)">
<path d="M10 0C8.02219 0 6.08879 0.58649 4.4443 1.6853C2.79981 2.78412 1.51809 4.3459 0.761209 6.17317C0.00433284 8.00043 -0.193701 10.0111 0.192152 11.9509C0.578004 13.8907 1.53041 15.6725 2.92894 17.0711C4.32746 18.4696 6.10929 19.422 8.0491 19.8079C9.98891 20.1937 11.9996 19.9957 13.8268 19.2388C15.6541 18.4819 17.2159 17.2002 18.3147 15.5557C19.4135 13.9112 20 11.9778 20 10C19.9971 7.34873 18.9426 4.80688 17.0679 2.93215C15.1931 1.05742 12.6513 0.0029116 10 0V0ZM11.081 15.418H8.92V8.062H11.081V15.418ZM11.146 6.559C11.0319 6.75724 10.8678 6.92206 10.67 7.037C10.4695 7.15597 10.2401 7.21755 10.007 7.215C9.77161 7.21796 9.53989 7.1564 9.337 7.037C9.03768 6.85635 8.82061 6.56609 8.73191 6.22792C8.64321 5.88974 8.68988 5.53031 8.86201 5.226C8.97511 5.02888 9.13918 4.86585 9.337 4.754C9.5416 4.63954 9.77258 4.58059 10.007 4.583C10.2377 4.58443 10.4639 4.64622 10.6633 4.76223C10.8626 4.87825 11.0281 5.04444 11.1433 5.24428C11.2585 5.44411 11.3194 5.67062 11.3198 5.90128C11.3203 6.13194 11.2604 6.3587 11.146 6.559Z" fill="#0F1A1C"/>
</g>
<defs>
<clipPath id="clip0_474_83">
<rect width="20" height="20" fill="white"/>
</clipPath>
</defs>
</svg>
