<svg width="20" height="20" viewBox="0 0 20 20" fill="none" xmlns="http://www.w3.org/2000/svg">
<path d="M1.90002 14.7L1.9 14.7C1.7321 14.8259 1.60807 15.0015 1.54549 15.2018C1.48291 15.4022 1.48495 15.6171 1.55132 15.8162C1.61769 16.0153 1.74502 16.1885 1.91529 16.3112C2.08556 16.434 2.29012 16.5 2.5 16.5H17.5C17.7099 16.5 17.9144 16.434 18.0847 16.3112C18.255 16.1885 18.3823 16.0153 18.4487 15.8162C18.5151 15.6171 18.5171 15.4022 18.4545 15.2018C18.3919 15.0015 18.2679 14.8259 18.1 14.7L10.9002 9.29416L10.8994 9.29357C10.0741 8.67647 9.32237 7.96676 8.65881 7.17836C7.91131 6.28767 7.50108 5.16234 7.5 3.99954C7.50012 3.33666 7.7635 2.70096 8.23223 2.23223C8.70107 1.76339 9.33696 1.5 10 1.5C10.663 1.5 11.2989 1.76339 11.7678 2.23223C12.2366 2.70107 12.5 3.33696 12.5 4V4.5H11.5V4C11.5 3.60217 11.342 3.22064 11.0607 2.93934C10.7794 2.65804 10.3978 2.5 10 2.5C9.60217 2.5 9.22064 2.65804 8.93934 2.93934C8.65804 3.22064 8.5 3.60217 8.5 4V4.00035C8.50066 4.92796 8.82775 5.82574 9.42396 6.53637C10.036 7.26598 10.7299 7.92283 11.492 8.494C11.492 8.49403 11.4921 8.49407 11.4921 8.4941L18.7 13.9C19.0358 14.1519 19.2839 14.503 19.409 14.9037C19.5342 15.3043 19.5301 15.7342 19.3974 16.1325C19.2646 16.5307 19.01 16.877 18.6694 17.1225C18.3289 17.3679 17.9198 17.5 17.5 17.5H2.5C2.08024 17.5 1.67111 17.3679 1.33058 17.1225C0.990048 16.877 0.735375 16.5307 0.602633 16.1325C0.469892 15.7342 0.465813 15.3043 0.590973 14.9037C0.716131 14.503 0.964179 14.1519 1.29998 13.9C1.29999 13.9 1.29999 13.9 1.3 13.9L7.64199 9.14398L8.24199 9.94398L1.90002 14.7ZM9 4C9.00057 4.81019 9.28626 5.59433 9.807 6.215C10.3945 6.91531 11.0605 7.54578 11.792 8.094L9 4Z" fill="#0F1A1C" stroke="#0F1A1C"/>
</svg>
