<svg width="20" height="20" viewBox="0 0 20 20" fill="none" xmlns="http://www.w3.org/2000/svg">
<path d="M18.376 4H1.624C1.19574 3.9984 0.784316 4.16666 0.479899 4.46789C0.175483 4.76912 0.00290857 5.17875 0 5.607L0 17.393C0.00290857 17.8213 0.175483 18.2309 0.479899 18.5321C0.784316 18.8333 1.19574 19.0016 1.624 19H18.376C18.8043 19.0016 19.2157 18.8333 19.5201 18.5321C19.8245 18.2309 19.9971 17.8213 20 17.393V5.607C19.9971 5.17875 19.8245 4.76912 19.5201 4.46789C19.2157 4.16666 18.8043 3.9984 18.376 4ZM18.75 17.393C18.7476 17.4899 18.7069 17.5819 18.6368 17.6488C18.5667 17.7158 18.4729 17.7521 18.376 17.75H1.624C1.52709 17.7521 1.43329 17.7158 1.36318 17.6488C1.29306 17.5819 1.25236 17.4899 1.25 17.393V5.607C1.25236 5.5101 1.29306 5.41809 1.36318 5.35116C1.43329 5.28423 1.52709 5.24785 1.624 5.25H18.376C18.4729 5.24785 18.5667 5.28423 18.6368 5.35116C18.7069 5.41809 18.7476 5.5101 18.75 5.607V17.393ZM6 14.529H6.014C6.08177 15.0241 6.32816 15.4775 6.70682 15.8036C7.08547 16.1298 7.57028 16.3063 8.07 16.3H11.928C12.1823 16.3303 12.4401 16.3076 12.6852 16.2333C12.9302 16.159 13.1573 16.0347 13.3519 15.8684C13.5466 15.702 13.7047 15.4971 13.8162 15.2665C13.9278 15.036 13.9903 14.7849 14 14.529V12H6V14.529ZM7.249 13.25H12.749V14.529C12.749 14.999 12.175 15.05 11.928 15.05H8.07C7.86193 15.0584 7.65894 14.9844 7.50519 14.8439C7.35145 14.7035 7.25937 14.508 7.249 14.3V13.25ZM8.624 3H7.374C7.374 2.30381 7.65056 1.63613 8.14285 1.14384C8.63513 0.651562 9.30281 0.375 9.999 0.375C10.6952 0.375 11.3629 0.651562 11.8552 1.14384C12.3474 1.63613 12.624 2.30381 12.624 3H11.374C11.374 2.63533 11.2291 2.28559 10.9713 2.02773C10.7134 1.76987 10.3637 1.625 9.999 1.625C9.63433 1.625 9.28459 1.76987 9.02673 2.02773C8.76887 2.28559 8.624 2.63533 8.624 3ZM7 10H5V8H7V10ZM13 8H15V10H13V8Z" fill="#0F1A1C"/>
</svg>
