<svg width="20" height="20" viewBox="0 0 20 20" fill="none" xmlns="http://www.w3.org/2000/svg">
<g clip-path="url(#clip0_473_52)">
<path d="M12.465 11H7.538C5.82142 10.9851 4.16902 11.6517 2.94332 12.8536C1.71762 14.0554 1.01874 15.6945 1 17.411V17.893C1.00079 18.0392 1.03035 18.1837 1.08701 18.3185C1.14367 18.4532 1.22632 18.5755 1.33023 18.6783C1.43414 18.7811 1.55728 18.8624 1.69261 18.9176C1.82795 18.9728 1.97284 19.0008 2.119 19H17.884C18.1786 19.0005 18.4614 18.8844 18.6705 18.6769C18.8797 18.4694 18.9981 18.1876 19 17.893V17.411C18.981 15.6951 18.2824 14.0567 17.0575 12.8549C15.8325 11.6532 14.181 10.9861 12.465 11ZM17.752 17.75H2.252V17.411C2.27019 16.0262 2.83693 14.7051 3.82789 13.7375C4.81885 12.77 6.15312 12.2351 7.538 12.25H12.465C13.85 12.2351 15.1843 12.77 16.1755 13.7375C17.1666 14.705 17.7335 16.0261 17.752 17.411V17.75ZM10 10C10.9889 10 11.9556 9.70676 12.7779 9.15735C13.6001 8.60794 14.241 7.82705 14.6194 6.91342C14.9978 5.99979 15.0969 4.99446 14.9039 4.02455C14.711 3.05465 14.2348 2.16373 13.5355 1.46447C12.8363 0.765206 11.9454 0.289002 10.9755 0.0960759C10.0055 -0.0968503 9.00021 0.00216642 8.08658 0.380605C7.17295 0.759043 6.39206 1.39991 5.84265 2.22215C5.29324 3.0444 5 4.0111 5 5C5.00159 6.3256 5.52888 7.59644 6.46622 8.53378C7.40356 9.47112 8.67441 9.99841 10 10ZM10 1.25C10.7417 1.25 11.4667 1.46994 12.0834 1.88199C12.7001 2.29405 13.1807 2.87972 13.4645 3.56494C13.7484 4.25016 13.8226 5.00416 13.6779 5.73159C13.5333 6.45902 13.1761 7.12721 12.6517 7.65165C12.1272 8.1761 11.459 8.53325 10.7316 8.67795C10.0042 8.82264 9.25016 8.74838 8.56494 8.46455C7.87971 8.18072 7.29404 7.70008 6.88199 7.08339C6.46993 6.46671 6.25 5.74168 6.25 5C6.25132 4.00585 6.64684 3.05279 7.34981 2.34981C8.05279 1.64684 9.00584 1.25133 10 1.25Z" fill="#0F1A1C"/>
</g>
<defs>
<clipPath id="clip0_473_52">
<rect width="20" height="20" fill="white"/>
</clipPath>
</defs>
</svg>
