<svg width="20" height="20" viewBox="0 0 20 20" fill="none" xmlns="http://www.w3.org/2000/svg">
<path d="M9 2.188V7.812C9.0008 8.12611 8.87685 8.42768 8.6554 8.65045C8.43395 8.87321 8.13311 8.99894 7.819 9H2.181C1.8669 8.99894 1.56606 8.87321 1.34461 8.65045C1.12315 8.42768 0.999207 8.12611 1 7.812V2.188C0.999207 1.87389 1.12315 1.57232 1.34461 1.34955C1.56606 1.12679 1.8669 1.00106 2.181 1H7.819C8.13311 1.00106 8.43395 1.12679 8.6554 1.34955C8.87685 1.57232 9.0008 1.87389 9 2.188ZM17.819 1H12.181C11.8669 1.00106 11.5661 1.12679 11.3446 1.34955C11.1232 1.57232 10.9992 1.87389 11 2.188V7.812C10.9992 8.12611 11.1232 8.42768 11.3446 8.65045C11.5661 8.87321 11.8669 8.99894 12.181 9H17.819C18.1331 8.99894 18.4339 8.87321 18.6554 8.65045C18.8769 8.42768 19.0008 8.12611 19 7.812V2.188C19.0008 1.87389 18.8769 1.57232 18.6554 1.34955C18.4339 1.12679 18.1331 1.00106 17.819 1ZM7.819 11H2.181C1.8669 11.0011 1.56606 11.1268 1.34461 11.3496C1.12315 11.5723 0.999207 11.8739 1 12.188V17.812C0.999207 18.1261 1.12315 18.4277 1.34461 18.6504C1.56606 18.8732 1.8669 18.9989 2.181 19H7.819C8.13311 18.9989 8.43395 18.8732 8.6554 18.6504C8.87685 18.4277 9.0008 18.1261 9 17.812V12.188C9.0008 11.8739 8.87685 11.5723 8.6554 11.3496C8.43395 11.1268 8.13311 11.0011 7.819 11ZM17.819 11H12.181C11.8669 11.0011 11.5661 11.1268 11.3446 11.3496C11.1232 11.5723 10.9992 11.8739 11 12.188V17.812C10.9992 18.1261 11.1232 18.4277 11.3446 18.6504C11.5661 18.8732 11.8669 18.9989 12.181 19H17.819C18.1331 18.9989 18.4339 18.8732 18.6554 18.6504C18.8769 18.4277 19.0008 18.1261 19 17.812V12.188C19.0008 11.8739 18.8769 11.5723 18.6554 11.3496C18.4339 11.1268 18.1331 11.0011 17.819 11Z" fill="#0F1A1C"/>
</svg>
