<svg width="20" height="20" viewBox="0 0 20 20" fill="none" xmlns="http://www.w3.org/2000/svg">
<path d="M13.0739 16.478L12.2479 15.587C12.5479 15.274 12.8629 14.959 13.1829 14.64C15.0039 12.823 16.8829 10.945 16.8219 8.303C16.8416 7.70885 16.7249 7.11809 16.4809 6.576C16.3506 6.28094 16.1587 6.01715 15.9181 5.80234C15.6775 5.58753 15.3937 5.42666 15.0858 5.33054C14.7779 5.23441 14.453 5.20524 14.1329 5.24499C13.8128 5.28474 13.5049 5.39248 13.2299 5.561C12.867 5.76235 12.5654 6.05813 12.3569 6.417C12.1404 6.78911 12.0304 7.21358 12.0389 7.644C12.0289 8.06715 12.1304 8.48549 12.3331 8.85706C12.5358 9.22863 12.8327 9.54036 13.1939 9.761C13.5145 9.96254 13.8852 10.0703 14.2639 10.072V11.322C13.68 11.3191 13.1082 11.1547 12.6119 10.847C12.0882 10.5275 11.6543 10.0802 11.3509 9.547C11.022 8.96839 10.8536 8.31248 10.8629 7.647C10.8555 6.98305 11.0283 6.32952 11.3629 5.756C11.6726 5.19678 12.1316 4.73459 12.6886 4.42101C13.2456 4.10742 13.8789 3.95476 14.5176 3.98007C15.1563 4.00537 15.7755 4.20764 16.306 4.56432C16.8365 4.92099 17.2574 5.41803 17.5219 6C17.8544 6.71564 18.0179 7.49811 17.9999 8.287C18.0779 11.473 15.9059 13.64 13.9899 15.551C13.6749 15.864 13.3659 16.171 13.0739 16.478ZM4.21091 16.478L3.38491 15.587C3.68491 15.274 3.99991 14.959 4.31991 14.64C6.14091 12.823 8.01991 10.945 7.95891 8.303C7.97864 7.70874 7.86163 7.11789 7.61691 6.576C7.4334 6.16716 7.13584 5.81994 6.75991 5.576C6.39917 5.35969 5.98712 5.24385 5.5665 5.24051C5.14589 5.23717 4.73205 5.34644 4.36791 5.557C4.00456 5.75774 3.70276 6.05367 3.49491 6.413C3.27813 6.78503 3.16778 7.20949 3.17591 7.64C3.16533 8.07774 3.27386 8.51014 3.48991 8.891C3.69098 9.24834 3.98059 9.54794 4.33091 9.761C4.65155 9.96254 5.02221 10.0703 5.40091 10.072V11.322C4.81693 11.3194 4.24509 11.155 3.74891 10.847C3.22511 10.5277 2.79116 10.0803 2.48791 9.547C2.15862 8.96747 1.99014 8.31048 1.99991 7.644C1.99206 6.97968 2.16489 6.32571 2.49991 5.752C2.73503 5.34962 3.0475 4.99779 3.41929 4.71679C3.79108 4.43579 4.21483 4.23119 4.66609 4.11479C5.11736 3.9984 5.5872 3.97251 6.04852 4.03863C6.50984 4.10474 6.9535 4.26155 7.35391 4.5C7.92276 4.86566 8.37548 5.38603 8.65891 6C8.99137 6.71699 9.15424 7.50092 9.13491 8.291C9.21291 11.477 7.04191 13.643 5.12491 15.555C4.81191 15.863 4.49991 16.171 4.21091 16.478Z" fill="#0F1A1C"/>
</svg>
