<svg width="20" height="20" viewBox="0 0 20 20" fill="none" xmlns="http://www.w3.org/2000/svg">
<path d="M8.308 8H5.908C5.57052 7.38588 5.39823 6.69467 5.408 5.994C5.39188 5.25547 5.58498 4.52745 5.965 3.894C6.3421 3.28916 6.88494 2.80533 7.529 2.5C8.25633 2.15578 9.05348 1.98465 9.858 2C10.888 1.9651 11.9042 2.2441 12.772 2.8C13.5328 3.29976 14.1406 4.00026 14.528 4.824L12.783 5.515C12.5038 5.02786 12.1174 4.61066 11.653 4.295C11.1322 3.93725 10.5116 3.75347 9.88 3.77C9.43915 3.76434 9.00236 3.85477 8.6 4.035C8.22433 4.20251 7.90292 4.47162 7.672 4.812C7.43297 5.17496 7.31114 5.60256 7.323 6.037C7.31054 6.55805 7.47911 7.0673 7.8 7.478C7.9517 7.66833 8.12186 7.84318 8.308 8ZM19 9.007H1V10.257H9.467L9.509 10.274L9.728 10.351C10.2589 10.5352 10.7778 10.7519 11.282 11C11.7567 11.2405 12.1795 11.5721 12.526 11.976C12.9023 12.4051 13.103 12.9604 13.088 13.531C13.0938 14.0217 12.9512 14.5027 12.679 14.911C12.4061 15.3216 12.0298 15.6531 11.588 15.872C11.1327 16.101 10.6296 16.2185 10.12 16.215C9.59969 16.2194 9.08629 16.0957 8.625 15.855C8.17318 15.6201 7.77563 15.293 7.458 14.895C7.14106 14.5016 6.89721 14.0545 6.738 13.575L4.9 14.333C5.13506 15.001 5.50468 15.6136 5.986 16.133C6.50437 16.7024 7.13132 17.1624 7.83 17.486C8.55243 17.8284 9.34256 18.004 10.142 18C10.9784 18.0053 11.8038 17.8087 12.548 17.427C13.2783 17.0587 13.8962 16.5009 14.337 15.812C14.7888 15.104 15.0225 14.2788 15.009 13.439C15.0424 12.5578 14.7617 11.6934 14.217 11C13.9991 10.7331 13.7596 10.4846 13.501 10.257H19V9.007Z" fill="#0F1A1C"/>
</svg>
