<svg width="20" height="20" viewBox="0 0 20 20" fill="none" xmlns="http://www.w3.org/2000/svg">
<path d="M2.625 15.375V16C2.19419 15.9995 1.78117 15.8281 1.47654 15.5235C1.1719 15.2188 1.00053 14.8058 1 14.375V2.624C1.00079 2.19336 1.17229 1.7806 1.47689 1.47618C1.78149 1.17177 2.19436 1.00053 2.625 1H14.375C14.8056 1.00053 15.2185 1.17177 15.5231 1.47618C15.8277 1.7806 15.9992 2.19336 16 2.624H5.629C4.834 2.62611 4.07216 2.94286 3.51001 3.50501C2.94786 4.06716 2.63111 4.829 2.629 5.624L2.625 15.375ZM19 5.625V17.375C18.9995 17.8058 18.8281 18.2188 18.5235 18.5235C18.2188 18.8281 17.8058 18.9995 17.375 19H5.625C5.19419 18.9995 4.78117 18.8281 4.47654 18.5235C4.1719 18.2188 4.00053 17.8058 4 17.375V5.625C4.00053 5.19419 4.1719 4.78117 4.47654 4.47654C4.78117 4.1719 5.19419 4.00053 5.625 4H17.375C17.8058 4.00053 18.2188 4.1719 18.5235 4.47654C18.8281 4.78117 18.9995 5.19419 19 5.625ZM16 10.48C16.008 9.76493 15.732 9.07589 15.2326 8.56408C14.7331 8.05226 14.0511 7.75949 13.336 7.75C12.648 7.75365 11.9888 8.02686 11.5 8.511C11.0112 8.02686 10.352 7.75365 9.664 7.75C8.94895 7.75949 8.26686 8.05226 7.76743 8.56408C7.26799 9.07589 6.99199 9.76493 7 10.48C7 13.536 11.009 15.968 11.18 16.069L11.5 16.262L11.82 16.069C11.991 15.968 16 13.536 16 10.48Z" fill="#0F1A1C"/>
</svg>
