<svg width="20" height="20" viewBox="0 0 20 20" fill="none" xmlns="http://www.w3.org/2000/svg">
<path d="M19 11H7V9H19V11ZM16 3H7V5H16V3ZM12 15H7V17H12V15ZM4.224 10.663C4.224 11.563 3.342 11.898 2.604 11.898H0.872V8H2.4C3.311 8 4.055 8.264 4.055 9.032C4.04394 9.18627 3.99487 9.3354 3.91217 9.46609C3.82946 9.59679 3.71569 9.70497 3.581 9.781C3.76499 9.84544 3.92503 9.96432 4.03987 10.1219C4.15472 10.2794 4.21893 10.4681 4.224 10.663ZM2.484 11.028H1.975V8.87H2.362C2.692 8.87 2.935 8.979 2.935 9.334C2.92726 9.45965 2.87056 9.57726 2.77708 9.66158C2.6836 9.7459 2.56078 9.79021 2.435 9.785V9.894C2.51551 9.88509 2.597 9.89306 2.67426 9.9174C2.75152 9.94173 2.82287 9.9819 2.88374 10.0353C2.94461 10.0888 2.99368 10.1543 3.02782 10.2278C3.06195 10.3012 3.08041 10.381 3.082 10.462C3.07333 10.6148 3.00658 10.7585 2.89541 10.8638C2.78424 10.969 2.63706 11.0277 2.484 11.028ZM2.7 17.964C2.42965 17.9725 2.16034 17.9266 1.90807 17.829C1.6558 17.7314 1.42571 17.5842 1.23146 17.3959C1.03721 17.2077 0.882761 16.9824 0.777287 16.7333C0.671813 16.4842 0.617463 16.2165 0.617463 15.946C0.617463 15.6755 0.671813 15.4078 0.777287 15.1587C0.882761 14.9096 1.03721 14.6843 1.23146 14.4961C1.42571 14.3078 1.6558 14.1606 1.90807 14.063C2.16034 13.9654 2.42965 13.9195 2.7 13.928C3.03683 13.9191 3.36939 14.0049 3.65985 14.1757C3.95031 14.3465 4.187 14.5953 4.343 14.894L3.401 15.325C3.33227 15.1794 3.22249 15.0571 3.08516 14.973C2.94782 14.889 2.78892 14.8469 2.628 14.852C2.49613 14.8637 2.36792 14.9016 2.2509 14.9636C2.13389 15.0255 2.03043 15.1102 1.94659 15.2127C1.86276 15.3151 1.80023 15.4333 1.7627 15.5603C1.72516 15.6872 1.71336 15.8204 1.728 15.952C1.71378 16.0826 1.72573 16.2148 1.76315 16.3407C1.80057 16.4666 1.86271 16.5839 1.94594 16.6855C2.02916 16.7872 2.13182 16.8713 2.24789 16.9328C2.36397 16.9943 2.49115 17.0322 2.622 17.044C2.79043 17.0462 2.95599 17.0003 3.09927 16.9117C3.24256 16.8232 3.35763 16.6956 3.431 16.544L4.421 16.898C4.27095 17.2254 4.02759 17.5012 3.72143 17.6908C3.41527 17.8805 3.05995 17.9755 2.7 17.964ZM2.539 3.014H2.562C2.646 3.374 3.462 5.898 3.462 5.898H4.6L3.282 2H1.819L0.5 5.9H1.627C1.627 5.9 2.455 3.374 2.539 3.014Z" fill="#0F1A1C"/>
</svg>
