<svg width="20" height="20" viewBox="0 0 20 20" fill="none" xmlns="http://www.w3.org/2000/svg">
<path d="M18 2.083C18.5693 2.22257 19.0756 2.54868 19.438 3.00937C19.8005 3.47006 19.9983 4.03882 20 4.625V6H18V2.083ZM12 16V18H16V16H12ZM16 4V2H12V4H16ZM2.625 16C2.45924 16 2.30027 15.9342 2.18306 15.8169C2.06585 15.6997 2 15.5408 2 15.375V4.625C2 4.45924 2.06585 4.30027 2.18306 4.18306C2.30027 4.06585 2.45924 4 2.625 4H10V2H2.625C1.92913 2.00106 1.26207 2.27796 0.770013 2.77001C0.277959 3.26207 0.00105795 3.92913 0 4.625V15.375C0.00105795 16.0709 0.277959 16.7379 0.770013 17.23C1.26207 17.722 1.92913 17.9989 2.625 18H10V16H2.625ZM18 17.917C18.5693 17.7774 19.0756 17.4513 19.438 16.9906C19.8005 16.5299 19.9983 15.9612 20 15.375V14H18V17.917ZM18 8V12H20V8H18ZM14.457 9.394L9.137 6.187C9.0279 6.12066 8.90303 6.08475 8.77536 6.08299C8.64769 6.08123 8.52188 6.11369 8.411 6.177C8.30664 6.24407 8.21956 6.3348 8.15683 6.44183C8.09411 6.54886 8.05751 6.66917 8.05 6.793V13.207C8.0502 13.3325 8.08373 13.4556 8.14716 13.5638C8.2106 13.6721 8.30165 13.7615 8.411 13.823C8.5194 13.8789 8.64007 13.9067 8.762 13.904C8.89285 13.9074 9.02227 13.876 9.137 13.813L14.456 10.606C14.5608 10.5433 14.6476 10.4546 14.7079 10.3484C14.7681 10.2421 14.7998 10.1221 14.7998 10C14.7998 9.87788 14.7681 9.75785 14.7079 9.65164C14.6476 9.54542 14.5618 9.45665 14.457 9.394Z" fill="#0F1A1C"/>
</svg>
