<svg width="20" height="20" viewBox="0 0 20 20" fill="none" xmlns="http://www.w3.org/2000/svg">
<g clip-path="url(#clip0_616_23)">
<path d="M18.838 3.631C18.626 3.06737 18.2961 2.55552 17.8703 2.12972C17.4445 1.70392 16.9326 1.37398 16.369 1.162C12.263 -0.379974 7.73699 -0.379974 3.63098 1.162C3.06735 1.37398 2.5555 1.70392 2.1297 2.12972C1.7039 2.55552 1.37396 3.06737 1.16198 3.631C-0.387327 7.73533 -0.387327 12.2637 1.16198 16.368C1.37373 16.9319 1.70357 17.444 2.12939 17.87C2.55522 18.296 3.06719 18.626 3.63098 18.838C7.73564 20.3874 12.2643 20.3874 16.369 18.838C16.9327 18.6262 17.4446 18.2963 17.8705 17.8705C18.2963 17.4447 18.6262 16.9327 18.838 16.369C20.3874 12.2643 20.3874 7.73566 18.838 3.631ZM8.99998 10.53C9.00684 10.984 8.88926 11.4311 8.65998 11.823C8.43198 12.2056 8.10201 12.5172 7.70698 12.723C7.26935 12.9487 6.78226 13.0614 6.28998 13.051C5.73943 13.0583 5.19607 12.9255 4.71098 12.665C4.24652 12.4156 3.86153 12.0407 3.59998 11.583C3.32795 11.1004 3.18985 10.5539 3.19998 10C3.19042 9.44477 3.33252 8.89745 3.61098 8.417C3.87831 7.95752 4.26956 7.58256 4.73998 7.335C5.23808 7.07383 5.79363 6.94148 6.35598 6.95C6.68881 6.94961 7.02028 6.99264 7.34198 7.078C7.6508 7.15929 7.94668 7.2835 8.22098 7.447L7.72098 8.616C7.56712 8.45058 7.37322 8.32763 7.15798 8.259C6.91532 8.17591 6.66047 8.134 6.40398 8.135C6.1557 8.11572 5.90619 8.15018 5.67243 8.23602C5.43867 8.32186 5.22615 8.45707 5.04935 8.63244C4.87256 8.80781 4.73563 9.01923 4.6479 9.25229C4.56018 9.48535 4.52371 9.73458 4.54098 9.983C4.53455 10.3272 4.6143 10.6675 4.77298 10.973C4.91783 11.2559 5.1391 11.4926 5.41167 11.6561C5.68424 11.8196 5.99718 11.9034 6.31498 11.898C6.57278 11.9019 6.82803 11.8465 7.06098 11.736C7.26986 11.6389 7.44752 11.4855 7.57398 11.293C7.69508 11.1083 7.75876 10.8919 7.75698 10.671H6.12398V9.619L8.99998 9.6V10.53ZM11.5 12.984H9.99998V7.016H11.5V12.984ZM16.5 8.184H14.362V9.577H16.152V10.746H14.362V12.984H13V7.016H16.5V8.184Z" fill="#0F1A1C"/>
</g>
<defs>
<clipPath id="clip0_616_23">
<rect width="20" height="20" fill="white"/>
</clipPath>
</defs>
</svg>
