<svg width="20" height="20" viewBox="0 0 20 20" fill="none" xmlns="http://www.w3.org/2000/svg">
<path d="M17.25 8.625V8.62441C17.2488 7.59722 16.8402 6.61246 16.1139 5.88613C15.3875 5.1598 14.4028 4.75122 13.3756 4.75H13.375L6.625 4.75L6.62441 4.75C5.59722 4.75122 4.61246 5.1598 3.88613 5.88613C3.1598 6.61246 2.75122 7.59722 2.75 8.62441V8.625L2.75 15.375L2.75 15.3756C2.75122 16.4028 3.1598 17.3875 3.88613 18.1139C4.61246 18.8402 5.59722 19.2488 6.62441 19.25H6.625H13.375H13.3756C14.4028 19.2488 15.3875 18.8402 16.1139 18.1139C16.8402 17.3875 17.2488 16.4028 17.25 15.3756V15.375V8.625ZM9.375 11.9H9.875V11.4V9.609H10.125V11.4V11.9H10.625H12.419V12.153H10.625H10.125V12.653V14.45H9.875V12.65V12.15H9.375H7.581V11.9H9.375ZM15.125 1.75H4.875V1.5H15.125V1.75ZM17.5 8.62565V15.3744C17.4986 16.4681 17.0635 17.5167 16.2901 18.2901C15.5167 19.0635 14.4681 19.4986 13.3744 19.5H6.62565C5.53189 19.4986 4.48334 19.0635 3.70994 18.2901C2.93661 17.5167 2.5015 16.4683 2.5 15.3747V8.62533C2.5015 7.53169 2.93661 6.48327 3.70994 5.70994C4.48326 4.93662 5.53166 4.50151 6.62529 4.5H13.3747C14.4683 4.50151 15.5167 4.93662 16.2901 5.70994C17.0635 6.48334 17.4986 7.53189 17.5 8.62565Z" fill="#0F1A1C" stroke="#0F1A1C"/>
</svg>
