<svg width="20" height="20" viewBox="0 0 20 20" fill="none" xmlns="http://www.w3.org/2000/svg">
<g clip-path="url(#clip0_616_15)">
<path d="M2.62512 6.92099C2.70721 6.92111 2.78853 6.90501 2.86438 6.87361C2.94024 6.8422 3.00913 6.79611 3.06712 6.73799L5.06712 4.73799C5.15455 4.65058 5.21409 4.53921 5.23822 4.41795C5.26234 4.2967 5.24997 4.17102 5.20265 4.0568C5.15534 3.94258 5.07521 3.84496 4.97241 3.77628C4.86961 3.70761 4.74875 3.67097 4.62512 3.67099H3.25012V0.799991H2.00012V3.67099H0.625117C0.501487 3.67097 0.380627 3.70761 0.277824 3.77628C0.175022 3.84496 0.0948965 3.94258 0.0475821 4.0568C0.000267729 4.17102 -0.0121096 4.2967 0.0120159 4.41795C0.0361413 4.53921 0.0956855 4.65058 0.183117 4.73799L2.18312 6.73799C2.2411 6.79611 2.31 6.8422 2.38585 6.87361C2.46171 6.90501 2.54302 6.92111 2.62512 6.92099Z" fill="#0F1A1C"/>
<path d="M16.8901 8.09999C16.5236 8.09929 16.1634 8.19555 15.8461 8.37899C15.6808 8.00611 15.411 7.68907 15.0694 7.46619C14.7278 7.2433 14.329 7.1241 13.9211 7.12299C13.5636 7.12239 13.2119 7.214 12.9001 7.38899C12.7415 7.00207 12.4716 6.67094 12.1247 6.43755C11.7777 6.20416 11.3693 6.07902 10.9511 6.07799C10.712 6.07688 10.4748 6.11959 10.2511 6.20399V2.24599C10.2171 1.66857 9.96271 1.12624 9.54053 0.730854C9.11834 0.335464 8.56052 0.117169 7.98212 0.12099C7.71065 0.124609 7.44272 0.183131 7.19446 0.293033C6.94621 0.402934 6.72277 0.561942 6.53759 0.760481C6.35241 0.95902 6.20933 1.19298 6.11696 1.44828C6.02459 1.70358 5.98484 1.97493 6.00012 2.24599V11.016L4.84812 9.47099C4.53262 9.04494 4.06932 8.75214 3.5491 8.65002C3.02887 8.5479 2.48927 8.64383 2.03612 8.91899C1.54792 9.21705 1.19766 9.69635 1.06198 10.252C0.926297 10.8077 1.01624 11.3945 1.31212 11.884L4.22012 16.7C4.79404 17.6836 5.61073 18.5035 6.59207 19.0813C7.57341 19.659 8.68659 19.9754 9.82512 20H12.4561C14.2176 19.9661 15.8941 19.2369 17.1201 17.9717C18.346 16.7064 19.0218 15.0076 19.0001 13.246V10.223C19.0012 9.66186 18.7796 9.12322 18.3841 8.72522C17.9885 8.32722 17.4512 8.10237 16.8901 8.09999Z" fill="#0F1A1C"/>
</g>
<defs>
<clipPath id="clip0_616_15">
<rect width="20" height="20" fill="white"/>
</clipPath>
</defs>
</svg>
